<svg width="84" height="83" viewBox="0 0 84 83" fill="none" xmlns="http://www.w3.org/2000/svg">
<path d="M14.8693 23.6909C19.4949 18.7736 23.1954 12.9977 28.4303 8.71872M14.0224 29.5125C22.2515 21.6622 28.6421 12.997 31.0584 6.63346M14.2169 31.9549C19.6639 22.5621 25.6681 17.0787 35.2256 8.38694M14.1232 33.5677C21.7128 24.2099 29.249 17.2161 36.4795 7.34543M12.4414 37.5362C24.6784 23.909 34.9136 12.6208 41.8772 5.52412M13.6546 38.3735C21.1207 29.178 28.9963 19.911 42.8176 4.68446M14.7461 40.3917C23.4915 30.3355 32.5781 16.79 43.4923 3.5918M15.2446 42.4807C28.2068 28.495 39.9821 13.4893 45.8181 3.79497M15.4372 45.8071C21.2232 34.5216 30.1737 25.7504 47.7407 4.45928M16.3611 46.2958C26.2564 32.4986 39.5318 19.0048 52.4146 4.46971M17.158 49.0407C28.9256 32.7026 44.0314 16.851 51.6217 5.12143M17.6456 50.5828C27.4999 36.6388 36.6724 25.3697 55.5787 4.28306M17.6691 52.057C28.5259 36.2505 40.7637 24.2131 54.6179 4.48703M16.8148 52.6494C30.3649 37.6494 40.9796 24.7124 56.5294 7.41415M19.5673 53.5728C27.4367 44.8633 34.7511 36.317 60.3693 6.59929M20.6371 54.8131C33.8596 40.076 50.2802 21.7012 62.6243 7.66146M22.3577 56.6564C36.8715 37.9046 49.8582 22.312 63.2757 9.52869M21.2346 59.2668C37.2022 39.5203 55.244 18.6268 63.0112 7.76087M23.9848 57.7979C33.5156 47.8125 43.7679 36.0901 64.9676 8.71312M25.0352 59.985C40.5098 43.4865 53.4136 27.2564 66.6254 10.9907M24.9121 59.8903C39.3518 47.7284 52.6308 32.5105 67.4801 12.3183M26.5719 61.1002C43.3812 44.4793 57.6097 27.0017 69.614 11.8855M28.281 62.1548C45.8778 44.878 61.3585 23.7829 70.7381 13.2238M27.8528 63.8485C37.5723 51.201 50.2221 39.6248 71.3434 13.2623M30.348 63.8619C41.442 51.5854 51.6767 40.2923 72.7452 14.2764M33.0542 65.4959C45.7436 51.5183 59.7958 33.3075 74.4618 18.33M33.249 68.1462C45.4166 53.5451 54.9628 39.3316 74.7257 17.3198M35.3137 66.7512C43.8302 54.6979 56.9215 43.6824 75.28 20.0008M35.7023 68.4751C48.0458 51.4989 61.6226 38.5631 75.1472 19.7092M38.4925 68.0897C52.1777 52.3542 67.8855 33.8023 77.5993 22.2426M40.3286 67.6364C46.8304 59.3738 57.3786 50.0867 77.8589 24.9006M40.8286 68.8699C52.6637 55.2804 67.0132 38.3237 78.9057 24.6204M43.9843 69.5645C56.6177 52.6301 67.6005 38.1785 78.2317 28.8522M44.8981 70.4667C56.1783 58.272 65.9727 47.048 78.564 29.4199M46.3865 70.6991C55.9716 60.457 62.0129 50.3769 80.7942 31.9442M49.5897 69.0938C61.3992 57.4867 71.5316 46.8425 79.5798 31.2926M51.0537 69.2848C59.1845 57.0335 68.1106 46.0909 79.278 36.2286M53.4218 68.058C64.8812 56.7783 73.2098 45.3515 79.6347 37.4271M57.217 68.2778C64.7474 57.0113 73.2598 47.5168 81.9454 41.1554M59.7491 67.8709C66.2156 58.9541 75.5235 49.7319 81.0283 41.7719M62.8123 64.5096C69.2952 57.9748 73.2781 52.8066 79.6247 48.3649M65.783 62.8139C69.7511 59.404 74.2752 53.5107 78.5687 50.3464M22.8669 13.649V13.649Z" stroke="#454545" stroke-width="0.180436" stroke-linecap="round"/>
<g filter="url(#filter0_d_3002_7799)">
<circle cx="38.0564" cy="44.9158" r="28.49" fill="white"/>
</g>
<g clip-path="url(#clip0_3002_7799)">
<path d="M55.4023 31.4561L45.6013 29.1962L43.3414 38.9972" stroke="#454545" stroke-width="1.5" stroke-linecap="round" stroke-linejoin="round"/>
<path d="M45.6002 29.1961L50.9746 38.4177C52.7064 41.1927 53.4895 44.4554 53.2058 47.7141C52.9221 50.9728 51.587 54.051 49.4017 56.485C47.2164 58.9189 44.2993 60.5768 41.0899 61.2087C37.8805 61.8406 34.5526 61.4123 31.6078 59.9885C28.6629 58.5646 26.2606 56.2222 24.7627 53.3143C23.2649 50.4064 22.7526 47.0904 23.3032 43.866C23.4201 43.1816 23.5835 42.5091 23.7912 41.8529" stroke="#454545" stroke-width="1.5" stroke-linecap="round" stroke-linejoin="round"/>
<circle cx="26.8214" cy="35.7383" r="1.40815" transform="rotate(12.9842 26.8214 35.7383)" fill="#454545"/>
<ellipse cx="32.0089" cy="31.1544" rx="1.40815" ry="1.40815" transform="rotate(12.9842 32.0089 31.1544)" fill="#454545"/>
<ellipse cx="38.5206" cy="29.7657" rx="1.40815" ry="1.40815" transform="rotate(12.9842 38.5206 29.7657)" fill="#454545"/>
</g>
<defs>
<filter id="filter0_d_3002_7799" x="0.377926" y="7.2373" width="75.3574" height="75.3574" filterUnits="userSpaceOnUse" color-interpolation-filters="sRGB">
<feFlood flood-opacity="0" result="BackgroundImageFix"/>
<feColorMatrix in="SourceAlpha" type="matrix" values="0 0 0 0 0 0 0 0 0 0 0 0 0 0 0 0 0 0 127 0" result="hardAlpha"/>
<feOffset/>
<feGaussianBlur stdDeviation="4.59424"/>
<feComposite in2="hardAlpha" operator="out"/>
<feColorMatrix type="matrix" values="0 0 0 0 0 0 0 0 0 0 0 0 0 0 0 0 0 0 0.08 0"/>
<feBlend mode="normal" in2="BackgroundImageFix" result="effect1_dropShadow_3002_7799"/>
<feBlend mode="normal" in="SourceGraphic" in2="effect1_dropShadow_3002_7799" result="shape"/>
</filter>
<clipPath id="clip0_3002_7799">
<rect width="47.9338" height="47.9338" fill="white" transform="translate(14.1875 21.0459)"/>
</clipPath>
</defs>
</svg>
