<svg width="83" height="80" viewBox="0 0 83 80" fill="none" xmlns="http://www.w3.org/2000/svg">
<path d="M14.8693 20.6909C19.4949 15.7736 23.1954 9.99772 28.4303 5.71872M14.0224 26.5125C22.2515 18.6622 28.6421 9.99698 31.0584 3.63346M14.2169 28.9549C19.6639 19.5621 25.6681 14.0787 35.2256 5.38694M14.1232 30.5677C21.7128 21.2099 29.249 14.2161 36.4795 4.34543M12.4414 34.5362C24.6784 20.909 34.9136 9.62082 41.8772 2.52412M13.6546 35.3735C21.1207 26.178 28.9963 16.911 42.8176 1.68446M14.7461 37.3917C23.4915 27.3355 32.5781 13.79 43.4923 0.591797M15.2446 39.4807C28.2068 25.495 39.9821 10.4893 45.8181 0.794969M15.4372 42.8071C21.2232 31.5216 30.1737 22.7504 47.7407 1.45928M16.3611 43.2958C26.2564 29.4986 39.5318 16.0048 52.4146 1.46971M17.158 46.0407C28.9256 29.7026 44.0314 13.851 51.6217 2.12143M17.6456 47.5828C27.4999 33.6388 36.6724 22.3697 55.5787 1.28306M17.6691 49.057C28.5259 33.2505 40.7637 21.2131 54.6179 1.48703M16.8148 49.6494C30.3649 34.6494 40.9796 21.7124 56.5294 4.41415M19.5673 50.5728C27.4367 41.8633 34.7511 33.317 60.3693 3.59929M20.6371 51.8131C33.8596 37.076 50.2802 18.7012 62.6243 4.66146M22.3577 53.6564C36.8715 34.9046 49.8582 19.312 63.2757 6.52869M21.2346 56.2668C37.2022 36.5203 55.244 15.6268 63.0112 4.76087M23.9848 54.7979C33.5156 44.8125 43.7679 33.0901 64.9676 5.71312M25.0352 56.985C40.5098 40.4865 53.4136 24.2564 66.6254 7.99071M24.9121 56.8903C39.3518 44.7284 52.6308 29.5105 67.4801 9.31834M26.5719 58.1002C43.3812 41.4793 57.6097 24.0017 69.614 8.88546M28.281 59.1548C45.8778 41.878 61.3585 20.7829 70.7381 10.2238M27.8528 60.8485C37.5723 48.201 50.2221 36.6248 71.3434 10.2623M30.348 60.8619C41.442 48.5854 51.6767 37.2923 72.7452 11.2764M33.0542 62.4959C45.7436 48.5183 59.7958 30.3075 74.4618 15.33M33.249 65.1462C45.4166 50.5451 54.9628 36.3316 74.7257 14.3198M35.3137 63.7512C43.8302 51.6979 56.9215 40.6824 75.28 17.0008M35.7023 65.4751C48.0458 48.4989 61.6226 35.5631 75.1472 16.7092M38.4925 65.0897C52.1777 49.3542 67.8855 30.8023 77.5993 19.2426M40.3286 64.6364C46.8304 56.3738 57.3786 47.0867 77.8589 21.9006M40.8286 65.8699C52.6637 52.2804 67.0132 35.3237 78.9057 21.6204M43.9843 66.5645C56.6177 49.6301 67.6005 35.1785 78.2317 25.8522M44.8981 67.4667C56.1783 55.272 65.9727 44.048 78.564 26.4199M46.3865 67.6991C55.9716 57.457 62.0129 47.3769 80.7942 28.9442M49.5897 66.0938C61.3992 54.4867 71.5316 43.8425 79.5798 28.2926M51.0537 66.2848C59.1845 54.0335 68.1106 43.0909 79.278 33.2286M53.4218 65.058C64.8812 53.7783 73.2098 42.3515 79.6347 34.4271M57.217 65.2778C64.7474 54.0113 73.2598 44.5168 81.9454 38.1554M59.7491 64.8709C66.2156 55.9541 75.5235 46.7319 81.0283 38.7719M62.8123 61.5096C69.2952 54.9748 73.2781 49.8066 79.6247 45.3649M65.783 59.8139C69.7511 56.404 74.2752 50.5107 78.5687 47.3464M22.8669 10.649V10.649Z" stroke="#454545" stroke-width="0.180436" stroke-linecap="round"/>
<g filter="url(#filter0_d_2679_18067)">
<circle cx="38.0564" cy="41.9158" r="28.49" fill="white"/>
</g>
<path d="M31.1402 40.554L37.1087 27.125C38.2959 27.125 39.4344 27.5966 40.2739 28.4361C41.1134 29.2756 41.585 30.4141 41.585 31.6013V37.5698H50.0303C50.4629 37.5649 50.8913 37.6541 51.286 37.8312C51.6807 38.0083 52.0321 38.2692 52.316 38.5956C52.5999 38.922 52.8094 39.3063 52.93 39.7217C53.0506 40.1372 53.0794 40.5739 53.0145 41.0016L50.9554 54.4306C50.8475 55.1422 50.486 55.7908 49.9377 56.2569C49.3893 56.723 48.6909 56.9753 47.9712 56.9671H31.1402M31.1402 40.554V56.9671M31.1402 40.554H26.6639C25.8724 40.554 25.1134 40.8684 24.5537 41.428C23.9941 41.9877 23.6797 42.7467 23.6797 43.5382V53.9829C23.6797 54.7744 23.9941 55.5334 24.5537 56.0931C25.1134 56.6527 25.8724 56.9671 26.6639 56.9671H31.1402" stroke="#454545" stroke-width="1.5" stroke-linecap="round" stroke-linejoin="round"/>
<defs>
<filter id="filter0_d_2679_18067" x="0.377926" y="4.2373" width="75.3574" height="75.3574" filterUnits="userSpaceOnUse" color-interpolation-filters="sRGB">
<feFlood flood-opacity="0" result="BackgroundImageFix"/>
<feColorMatrix in="SourceAlpha" type="matrix" values="0 0 0 0 0 0 0 0 0 0 0 0 0 0 0 0 0 0 127 0" result="hardAlpha"/>
<feOffset/>
<feGaussianBlur stdDeviation="4.59424"/>
<feComposite in2="hardAlpha" operator="out"/>
<feColorMatrix type="matrix" values="0 0 0 0 0 0 0 0 0 0 0 0 0 0 0 0 0 0 0.08 0"/>
<feBlend mode="normal" in2="BackgroundImageFix" result="effect1_dropShadow_2679_18067"/>
<feBlend mode="normal" in="SourceGraphic" in2="effect1_dropShadow_2679_18067" result="shape"/>
</filter>
</defs>
</svg>
