<svg width="113" height="85" viewBox="0 0 113 85" fill="none" xmlns="http://www.w3.org/2000/svg">
<path d="M42.247 21.0405C47.0936 15.9858 50.9709 10.0486 56.4558 5.65004M41.3597 27.0248C49.9819 18.9552 56.6778 10.0478 59.2095 3.50653M41.5634 29.5354C47.2706 19.8802 53.5617 14.2436 63.5757 5.309M41.4652 31.1932C49.4175 21.574 57.3137 14.3848 64.8896 4.23839M39.7031 35.2726C52.5247 21.2648 63.2489 9.66116 70.5451 2.3662M40.9743 36.1333C48.797 26.681 57.0489 17.155 71.5305 1.50307M42.1179 38.2079C51.2811 27.8708 60.8018 13.9468 72.2373 0.379883M42.6403 40.3553C56.2217 25.9789 68.5595 10.5539 74.6743 0.588732M42.842 43.7746C48.9044 32.1739 58.2825 23.1576 76.6888 1.27161M43.8101 44.277C54.1781 30.0943 68.0877 16.2235 81.5859 1.28232M44.645 47.0985C56.9748 30.304 72.8023 14.0095 80.7551 1.95225M45.1559 48.6837C55.481 34.3502 65.0917 22.7662 84.9012 1.09046M45.1805 50.1991C56.556 33.951 69.3785 21.5773 83.8945 1.30013M44.2855 50.8081C58.4828 35.389 69.6047 22.0905 85.8973 4.30902M47.1694 51.7573C55.4148 42.8045 63.0786 34.0193 89.9206 3.4714M48.2903 53.0322C62.1445 37.8834 79.3496 18.9952 92.2833 4.56325M50.0931 54.927C65.3003 35.6513 78.9073 19.6231 92.9659 6.48264M48.9164 57.6104C65.6468 37.3122 84.5505 15.835 92.6888 4.66543M51.798 56.1004C61.7841 45.836 72.5261 33.7861 94.7386 5.64429M52.8986 58.3487C69.1124 41.3891 82.6326 24.7056 96.4756 7.98551M52.7696 58.2512C67.899 45.7496 81.8124 30.1065 97.3711 9.35023M54.5087 59.495C72.1209 42.4097 87.0291 24.4438 99.607 8.90526M56.2994 60.579C74.7369 42.8195 90.9571 21.1351 100.785 10.281M55.8508 62.32C66.0346 49.3192 79.2887 37.4196 101.419 10.3206M58.4651 62.3338C70.0891 49.7144 80.8127 38.1057 102.888 11.363M61.3006 64.0135C74.5962 49.6453 89.3198 30.9258 104.686 15.5298M61.5048 66.7379C74.2536 51.7288 84.2559 37.1182 104.963 14.4914M63.6681 65.3039C72.5915 52.9138 86.3081 41.5906 105.544 17.2473M64.0752 67.0759C77.0084 49.6255 91.2338 36.3282 105.404 16.9476M66.9988 66.6798C81.3377 50.5046 97.7958 31.4344 107.974 19.5517M68.9225 66.2138C75.735 57.7204 86.787 48.1738 108.246 22.284M69.4464 67.4818C81.8469 53.5126 96.8819 36.0822 109.343 21.996M72.7529 68.1957C85.9898 50.7882 97.4972 35.9328 108.636 26.346M73.7103 69.1232C85.5294 56.5877 95.7917 45.0502 108.985 26.9295M75.2699 69.362C85.3128 58.8339 91.6428 48.472 111.321 29.5244M78.626 67.7119C90.9998 55.7805 101.616 44.8389 110.049 28.8546M80.16 67.9082C88.6793 55.3146 98.0317 44.0663 109.733 33.9285M82.6413 66.6471C94.648 55.0523 103.375 43.3063 110.106 35.1604M86.6178 66.8731C94.5079 55.2918 103.427 45.5321 112.527 38.993M89.2708 66.4548C96.0462 57.289 105.799 47.809 111.567 39.6267M92.4803 62.9997C99.2729 56.2823 103.446 50.9697 110.096 46.4038M95.5929 61.2565C99.7506 57.7513 104.491 51.6934 108.989 48.4407M50.6267 10.7181V10.7181Z" stroke="url(#paint0_linear_2545_16044)" stroke-width="0.201499" stroke-linecap="round"/>
<g clip-path="url(#clip0_2545_16044)">
<path d="M46.5565 34.9268C47.4714 40.0506 46.286 50.4175 50.9324 53.4488C54.0432 55.04 57.2178 52.0008 59.0079 49.5582C64.0044 43.3445 57.6951 34.4972 51.2586 32.1183C48.2909 30.9328 46.5804 32.1581 46.1587 35.3008H45.92C45.7927 28.9358 51.7041 30.2088 55.4674 32.5877C57.3279 33.7042 58.946 35.1819 60.2264 36.9337C61.5067 38.6855 62.4234 40.6759 62.9223 42.7875C63.9328 47.1714 61.3311 51.4518 57.9577 54.0773C54.2501 57.2598 49.0149 56.7347 47.1612 51.8894C46.0871 49.1922 45.9677 46.3201 45.9677 43.4479C45.9677 40.5757 46.2621 37.7672 46.3178 34.9427L46.5565 34.9268Z" fill="white"/>
<path d="M72.8779 35.627C74.3259 36.1839 75.1693 37.7513 75.5511 39.1595C76.3468 42.342 75.4795 45.421 74.5885 48.3807C74.3994 48.9635 74.3584 49.5842 74.4691 50.1868L74.31 50.3618C73.8286 49.909 73.4957 49.3209 73.3552 48.6751C72.5119 44.4344 74.9863 39.7403 72.7188 35.7781L72.8779 35.627Z" fill="white"/>
<path d="M67.3066 43.0731C69.1324 41.732 71.3386 41.0088 73.604 41.0088C75.8693 41.0088 78.0755 41.732 79.9013 43.0731V43.3118C75.7057 43.455 71.5075 43.455 67.3066 43.3118V43.0731Z" fill="white"/>
<path d="M6.61853 39.1028C5.19688 38.3561 4.69626 36.4753 5.1471 34.9734C5.62282 33.3914 6.99468 32.238 8.47441 31.6102C9.98456 30.9851 11.6053 30.8717 13.1376 30.844C15.1041 30.8247 17.1426 30.8717 19.0178 31.6102C22.1405 32.8133 23.9632 36.0798 22.4502 39.2688C19.7148 44.8613 12.0368 46.2691 7.63912 49.9754C6.01557 51.3002 4.63818 52.8961 4.01863 54.8848C3.91353 55.1862 3.79183 55.6094 3.86928 55.9026C3.88034 55.9275 3.86928 55.9275 3.88311 55.9441C3.88864 55.9524 3.90247 55.9662 3.97438 55.9717C4.34224 55.9828 4.86221 55.6758 5.21348 55.5237C10.0814 53.1948 16.1662 53.2612 20.882 55.8196C15.9533 54.102 10.4796 54.4533 5.9409 56.9453C5.61176 57.1168 5.18858 57.3685 4.81796 57.4957C2.84591 58.2259 1.65107 56.5249 2.15722 54.6801C2.72145 52.1632 4.38926 49.9837 6.29492 48.3657C9.76883 45.3619 14.2855 44.0067 17.9087 41.3293C21.1503 39.0199 22.5553 35.38 18.3153 33.2503C16.7028 32.5063 14.952 32.4205 13.1017 32.285C11.6358 32.1882 10.1809 32.1993 8.8478 32.6197C7.53126 33.0235 6.28663 33.892 5.71963 35.1781C5.16093 36.4725 5.42092 38.2067 6.61576 39.1001L6.61853 39.1028Z" fill="white"/>
<path d="M28.9087 31.3965C30.1368 35.3765 30.5212 39.6 30.2612 43.7543L28.4772 43.2177C29.5615 41.0299 32.3688 40.5321 34.5068 41.2069C35.5468 41.5223 36.4678 42.1252 37.2643 42.8471C39.0262 44.5426 39.9915 47.0014 39.8559 49.4436C39.654 53.8247 35.6684 56.7759 31.4229 56.3361C30.1423 56.1923 28.9143 55.6917 27.9711 54.9034C29.6389 55.6474 31.4395 55.7276 33.1266 55.1994C34.6921 54.7541 36.1691 53.6947 36.9988 52.3422C38.6473 49.6483 37.6239 45.7512 35.1568 43.9673C34.0255 43.1154 32.3854 42.7475 31.0661 43.3118C30.6789 43.4943 30.3719 43.7515 30.1589 44.0945L27.7305 48.0469C28.0236 46.0831 28.5519 42.4958 28.7206 40.5597C29.0028 37.5145 29.0166 34.4583 28.9115 31.3965H28.9087Z" fill="white"/>
<path d="M29.4062 30.7138C32.941 29.3834 38.3427 29.1151 41.9881 30.1164C38.4893 32.1078 33.0821 32.3539 29.4062 30.7138Z" fill="white"/>
</g>
<defs>
<linearGradient id="paint0_linear_2545_16044" x1="39.7031" y1="38.7904" x2="112.531" y2="38.9582" gradientUnits="userSpaceOnUse">
<stop stop-color="#3CA0D2"/>
<stop offset="1" stop-color="#48DCA6"/>
</linearGradient>
<clipPath id="clip0_2545_16044">
<rect width="77.8273" height="25.9928" fill="white" transform="translate(2.06641 30.0566)"/>
</clipPath>
</defs>
</svg>
