<svg width="116" height="88" viewBox="0 0 116 88" fill="none" xmlns="http://www.w3.org/2000/svg">
<g clip-path="url(#clip0_2545_16022)">
<path d="M43.7768 21.1139C48.6799 16.0002 52.6025 9.99355 58.1515 5.54363M42.879 27.168C51.6019 19.0042 58.3761 9.99279 60.9374 3.37508M43.0852 29.708C48.859 19.94 55.2236 14.2375 65.3546 5.1986M42.9858 31.3852C51.0309 21.6536 59.0194 14.3804 66.6837 4.11549M41.2031 35.5122C54.1744 21.3407 65.0239 9.6016 72.4053 2.22143M42.4892 36.383C50.4032 26.8202 58.7515 17.183 73.4022 1.34822M43.6462 38.4818C52.9163 28.0239 62.5482 13.9373 74.1173 0.211914M44.1746 40.6542C57.9146 26.1099 70.3965 10.5048 76.5828 0.423202M44.3787 44.1135C50.5119 32.3772 59.9995 23.2557 78.6207 1.11405M45.3581 44.6217C55.8471 30.2734 69.9192 16.2406 83.5751 1.12489M46.2028 47.4762C58.6765 30.4855 74.6889 14.0008 82.7346 1.80265M46.7196 49.08C57.1653 34.579 66.8882 22.8597 86.9291 0.930792M46.7445 50.613C58.2528 34.1752 71.2251 21.6569 85.9106 1.14291M45.839 51.2292C60.2022 35.6299 71.4539 22.1761 87.9368 4.18695M48.7566 52.1894C57.0983 43.132 64.8516 34.2443 92.0071 3.33954M49.8906 53.4792C63.9066 38.1535 81.3127 19.0447 94.3975 4.44414M51.7145 55.3962C67.0992 35.8953 80.8652 19.6798 95.088 6.38596M50.524 58.1109C67.4498 37.5756 86.5743 15.8475 94.8076 4.54752M53.4393 56.5832C63.542 46.199 74.4095 34.0083 96.8814 5.53781M54.5527 58.8578C70.9559 41.7002 84.634 24.8218 98.6387 7.90638M54.4222 58.7592C69.7284 46.1115 83.8043 30.2857 99.5447 9.28703M56.1816 60.0175C73.9996 42.7327 89.0819 24.5569 101.807 8.83687M57.9932 61.1142C76.646 43.1473 93.0558 21.2096 102.998 10.2287M57.5394 62.8755C67.8421 49.7229 81.251 37.6842 103.64 10.2687M60.1842 62.8895C71.944 50.1226 82.7929 38.3784 105.126 11.3233M63.0529 64.5888C76.5038 50.0528 91.3993 31.1146 106.945 15.5388M63.2594 67.345C76.1571 52.1606 86.2762 37.3794 107.225 14.4882M65.448 65.8942C74.4756 53.3594 88.3525 41.9039 107.813 17.2764M65.8599 67.6869C78.9441 50.0327 93.3357 36.5802 107.672 16.9731M68.8176 67.2862C83.3239 50.9221 99.9743 31.6292 110.271 19.6077M70.7638 66.8148C77.6558 58.2221 88.837 48.564 110.546 22.3719M71.2938 68.0976C83.8391 53.9652 99.0497 36.3312 111.656 22.0805M74.6389 68.8199C88.0304 51.209 99.6723 36.1801 110.941 26.4813M75.6075 69.7581C87.5647 57.0763 97.9468 45.404 111.294 27.0717M77.1853 69.9998C87.3455 59.3486 93.7494 48.8658 113.658 29.6968M80.5806 68.3304C93.0989 56.2596 103.839 45.1903 112.371 29.0192M82.1326 68.529C90.7513 55.7883 100.213 44.4086 112.051 34.1523M84.6428 67.2532C96.7898 55.5229 105.618 43.6397 112.429 35.3987M88.6657 67.4817C96.648 55.7652 105.671 45.8915 114.878 39.276M91.3497 67.0586C98.2043 57.7857 108.071 48.195 113.906 39.9172M94.5968 63.5631C101.469 56.7672 105.691 51.3926 112.418 46.7734M97.7457 61.7996C101.952 58.2535 106.748 52.1248 111.299 48.8341M52.2543 10.6709V10.6709Z" stroke="url(#paint0_linear_2545_16022)" stroke-width="0.205633" stroke-linecap="round"/>
<g clip-path="url(#clip1_2545_16022)">
<g clip-path="url(#clip2_2545_16022)">
<path d="M32.9504 40.6563C30.6343 39.8843 26.8823 40.7567 26.0022 37.6377C25.9548 37.419 25.9933 37.1905 26.1097 36.9994C26.2261 36.8083 26.4115 36.6692 26.6275 36.6109C29.9704 35.6922 32.9658 33.2912 36.2855 31.917C40.9176 30.1337 46.1983 29.1918 51.0466 30.6123C52.2072 31.0383 53.3327 31.5545 54.4126 32.1564C53.1928 32.0328 51.9884 31.8244 50.8227 31.724C46.1905 31.5465 41.5584 32.8049 37.3277 34.4416C35.1506 35.3525 33.0584 36.5801 30.8041 37.4524C29.6015 37.9217 28.3471 38.2457 27.0676 38.4175L27.8396 37.3521C27.8396 38.2939 28.8741 38.7186 29.7079 39.0968C30.8698 39.4547 31.969 39.9912 32.9658 40.6872L32.9504 40.6563Z" fill="white"/>
<path d="M45.8022 63.7099C46.2114 65.8561 46.8059 67.8556 46.7904 70.0945L45.6941 69.1604C47.705 68.2969 49.5657 67.119 51.2064 65.6708C55.4602 62.1504 60.5478 59.0777 62.9952 53.9284C63.4893 52.9093 63.9602 51.813 64.5392 50.7939C64.2536 53.1641 63.9679 55.5882 62.8099 57.7421C61.3713 60.44 59.345 62.7802 56.8807 64.59C53.4761 67.0759 50.3726 70.164 45.9412 70.882C45.8124 70.9007 45.6809 70.8882 45.558 70.8454C45.435 70.8027 45.3242 70.7309 45.2348 70.6363C45.1455 70.5416 45.0802 70.4268 45.0446 70.3016C45.009 70.1764 45.004 70.0445 45.0302 69.9169C45.4394 67.9328 45.339 65.7403 45.8022 63.7408V63.7099Z" fill="white"/>
<path d="M38.6465 43.5439C39.7084 44.5807 40.7086 45.6789 41.6419 46.8328C43.6646 49.9981 44.6374 53.2946 45.6256 56.815C45.8417 57.4558 46.2277 58.112 46.4748 58.8454C45.0266 58.1964 43.8442 57.0712 43.1242 55.657C41.6536 53.2173 40.5286 50.5853 39.7814 47.8364C39.1592 46.4814 38.7752 45.0294 38.6465 43.5439Z" fill="white"/>
<path d="M38.539 42.9108C40.6543 40.7337 43.1711 39.0121 45.4872 37.0511C47.8023 35.0055 50.3586 33.2503 53.0993 31.8245C55.0988 30.9367 59.4453 28.7905 61.3908 27.9644C64.2627 26.7137 67.7214 26.5979 70.6551 26.4204C73.7432 26.2196 77.1401 25.7255 80.2668 27.0148C83.3935 28.3041 85.1382 32.2183 82.7141 35.1442C81.0311 37.1438 79.7572 39.2977 78.0125 41.22C75.1405 44.3544 71.597 46.4157 68.1923 48.7627C64.7877 51.1096 60.6265 51.9125 56.9208 53.5878C53.2151 55.2631 49.7101 57.5406 45.6647 58.0115C49.6638 56.9384 52.7519 54.4062 56.3418 52.4066C59.9317 50.4071 63.9694 49.3185 66.988 47.0565C70.1764 44.5475 73.6583 42.4244 76.0747 39.5447C77.4026 38.0625 78.4525 36.2637 79.6723 34.7273C80.2522 34.1027 80.7314 33.3916 81.0928 32.6197C81.1933 32.331 81.2226 32.0224 81.1782 31.72C81.1339 31.4176 81.0172 31.1303 80.8381 30.8827C78.6918 27.9181 74.1523 28.9449 70.8018 28.9758C68.8347 28.9649 66.8691 29.0887 64.919 29.3463C63.0223 29.7422 61.1777 30.3562 59.4222 31.176L53.825 33.4226C51.0997 34.6239 48.5114 36.1148 46.1048 37.8695C43.6343 39.6451 40.9322 41.0502 38.5312 42.9108H38.539Z" fill="white"/>
<path d="M43.1161 39.0586C43.7724 40.6026 45.2315 41.2589 46.1579 42.7643C46.9299 44.1925 47.7019 45.4973 48.389 46.9178C48.9681 48.0449 49.8018 49.2338 50.404 50.3996C50.8476 51.3543 51.1493 52.3686 51.2996 53.4105C51.361 54.1635 51.7159 54.8622 52.2878 55.356C50.5353 55.4409 49.632 53.094 48.8214 52.0131C47.7476 50.8265 46.7982 49.5331 45.9881 48.153C45.2721 46.7315 44.6931 45.2451 44.2587 43.7139C43.8573 42.3783 42.5526 40.6258 43.1084 39.0818L43.1161 39.0586Z" fill="white"/>
<path d="M70.1449 27.4078C69.914 27.9971 69.9057 28.6503 70.1218 29.2452C70.8 31.003 71.67 32.6807 72.7158 34.2479C74.0755 36.5006 75.6445 38.6202 77.4019 40.5785C72.9088 40.1308 69.6817 35.7688 68.8093 31.5768C68.5546 30.2026 68.6318 28.01 70.1449 27.377V27.4078Z" fill="white"/>
<path d="M55.0672 41.5983C53.0213 41.7759 52.4269 44.725 54.7584 44.3931C55.5304 44.2232 56.0554 43.7986 55.5304 43.2119C55.3604 43.0018 55.1304 42.8486 54.871 42.7728C54.6117 42.6969 54.3354 42.702 54.079 42.7873C53.0522 43.3045 52.0409 44.478 53.5849 45.1805C53.3223 45.2412 53.0485 45.2321 52.7905 45.1542C52.5326 45.0762 52.2995 44.9321 52.1145 44.7362C51.9295 44.5403 51.799 44.2993 51.736 44.0373C51.6729 43.7753 51.6796 43.5014 51.7552 43.2428C52.0486 41.5134 53.8165 40.062 55.5613 40.5098C58.6494 41.0502 59.5912 44.9566 56.7039 46.493C54.5268 47.79 50.9523 46.215 51.5313 43.4435C51.7861 41.8531 53.8474 40.7491 55.0903 41.5983H55.0672Z" fill="white"/>
<path d="M64.7408 36.2399C62.6872 36.4175 62.0928 39.328 64.4243 39.0347C65.1963 38.8648 65.729 38.4402 65.1963 37.8535C65.0263 37.6434 64.7963 37.4902 64.537 37.4144C64.2776 37.3385 64.0013 37.3435 63.7449 37.4288C62.7181 37.9461 61.7068 39.1196 63.2431 39.8221C62.9819 39.8805 62.71 39.8701 62.4541 39.7917C62.1981 39.7134 61.967 39.5699 61.7832 39.3752C61.5995 39.1806 61.4695 38.9415 61.406 38.6815C61.3426 38.4215 61.3478 38.1495 61.4211 37.8921C61.7068 36.155 63.4824 34.7036 65.2272 35.1514C68.3153 35.6918 69.2494 39.5982 66.3621 41.1346C64.185 42.4315 60.6105 40.8566 61.1895 38.0928C61.452 36.4947 63.5056 35.3907 64.7563 36.2399H64.7408Z" fill="white"/>
<path d="M36.9249 48.8483C33.8986 49.7053 31.2892 51.6817 30.8646 54.9242C30.6851 56.0587 30.4428 57.1824 30.1389 58.2902L29.004 56.5377C31.2351 56.6766 32.4627 58.8537 34.524 58.9155C35.9294 58.9124 37.3293 58.7387 38.6929 58.3983C39.7892 58.0894 40.4685 57.0549 41.2792 56.2598C41.1183 56.8638 40.9118 57.4548 40.6615 58.0277C39.8355 59.8883 37.4576 60.614 35.7052 61.0154C35.0189 61.2154 34.3034 61.2963 33.5898 61.2547C31.9068 61.2161 29.9073 59.3556 28.7029 59.2089C28.5034 59.1894 28.3108 59.125 28.1397 59.0205C27.9686 58.9161 27.8234 58.7742 27.715 58.6056C27.6065 58.437 27.5377 58.246 27.5135 58.0469C27.4894 57.8479 27.5107 57.646 27.5758 57.4564C27.8768 56.5454 28.0776 55.4569 28.4173 54.3143C28.863 52.4887 29.9925 50.9038 31.5727 49.8868C33.1529 48.8697 35.0632 48.498 36.9095 48.8483H36.9249Z" fill="white"/>
<path d="M26.2316 78.1377C25.528 76.9223 25.1778 75.5346 25.2202 74.1309C25.2555 71.5539 25.7253 69.0013 26.6099 66.5806C27.0345 65.3839 27.5054 64.2645 28.0458 62.9443C29.4278 65.3685 29.0572 68.2636 28.648 70.819C28.1385 73.4979 27.1812 75.5592 26.2316 78.1377Z" fill="white"/>
<path d="M23.955 60.1279C20.8283 63.0925 16.945 64.9531 13.2084 66.8831C9.25568 68.8749 4.88604 71.0212 0.253906 70.6583L0.925565 70.4807C1.06353 70.4571 1.2045 70.4571 1.34246 70.4807C1.23437 70.5579 1.08769 70.5965 1.03365 70.6738L0.956446 70.4576C4.73163 68.3808 7.97413 66.0571 11.8342 64.127C15.6831 62.2717 19.7578 60.9273 23.955 60.1279Z" fill="white"/>
<path d="M22.735 54.8087C18.8363 56.4068 11.4172 54.4999 8.90039 51.0567C13.7935 50.8054 18.6394 52.1197 22.735 54.8087Z" fill="white"/>
</g>
</g>
</g>
<defs>
<linearGradient id="paint0_linear_2545_16022" x1="41.2031" y1="39.0711" x2="114.881" y2="39.2408" gradientUnits="userSpaceOnUse">
<stop stop-color="#3CA0D2"/>
<stop offset="1" stop-color="#48DCA6"/>
</linearGradient>
<clipPath id="clip0_2545_16022">
<rect width="114.856" height="87.3904" fill="white" transform="translate(0.287109 0.209961)"/>
</clipPath>
<clipPath id="clip1_2545_16022">
<rect width="83.8942" height="83.8942" fill="white" transform="translate(0.552734 10.5898)"/>
</clipPath>
<clipPath id="clip2_2545_16022">
<rect width="83.6177" height="51.9803" fill="white" transform="translate(0.253906 26.1572)"/>
</clipPath>
</defs>
</svg>
