<svg width="121" height="90" viewBox="0 0 121 90" fill="none" xmlns="http://www.w3.org/2000/svg">
<path d="M45.2678 22.3674C50.4257 16.9881 54.552 10.6695 60.3891 5.9885M44.3235 28.736C53.4994 20.1481 60.6254 10.6687 63.3197 3.70733M44.5403 31.4078C50.6141 21.1326 57.3091 15.1339 67.9663 5.62555M44.4358 33.1721C52.8988 22.9351 61.3021 15.2842 69.3645 4.48619M42.5605 37.5135C56.2055 22.606 67.6185 10.2572 75.3832 2.49376M43.9134 38.4295C52.2385 28.3701 61.0203 18.2324 76.4319 1.57521M45.1305 40.6373C54.8821 29.6363 65.0142 14.8181 77.1842 0.379883M45.6863 42.9226C60.14 27.6229 73.2701 11.2073 79.7777 0.602144M45.9011 46.5615C52.3527 34.2157 62.3331 24.6204 81.9215 1.32887M46.9313 47.0962C57.9651 32.0026 72.768 17.241 87.1331 1.34028M47.8199 50.0989C60.9414 32.2258 77.7854 14.8849 86.2489 2.05323M48.3636 51.7859C59.3517 36.5318 69.5796 24.2039 90.6613 1.1361M48.3897 53.3986C60.4957 36.107 74.1417 22.9386 89.59 1.35923M47.4372 54.0467C62.5463 37.6373 74.3824 23.4848 91.7214 4.56136M50.5063 55.0568C59.2812 45.529 67.4372 36.1797 96.0031 3.66994M51.6992 56.4137C66.4431 40.292 84.7532 20.1908 98.5176 4.83191M53.6178 58.4301C69.8016 37.9165 84.2825 20.8589 99.244 6.87458M52.3655 61.2858C70.1703 39.684 90.2881 16.8275 98.949 4.94066M55.4322 59.6789C66.0596 48.7553 77.4915 35.9315 101.131 5.98238M56.6034 62.0715C73.8586 44.0228 88.247 26.2679 102.979 8.47396M56.4661 61.9678C72.5673 48.6633 87.3742 32.0156 103.932 9.92632M58.3169 63.2915C77.0603 45.109 92.9259 25.9892 106.312 9.45278M60.2226 64.4452C79.8442 45.5451 97.1062 22.468 107.565 10.9169M59.7452 66.298C70.583 52.4622 84.6883 39.7983 108.24 10.959M62.5275 66.3126C74.898 52.8827 86.3103 40.5285 109.803 12.0683M65.5451 68.1002C79.6946 52.8093 95.3637 32.8875 111.717 16.5028M65.7623 70.9995C79.3299 55.0266 89.9746 39.4776 112.011 15.3977M68.0646 69.4734C77.561 56.2876 92.1586 44.2372 112.629 18.3306M68.4978 71.3592C82.2616 52.7881 97.4006 38.6369 112.481 18.0116M71.6092 70.9377C86.8689 53.7237 104.384 33.4288 115.216 20.783M73.6565 70.4418C80.9064 61.4029 92.6683 51.2432 115.505 23.6908M74.214 71.7912C87.4109 56.9249 103.411 38.375 116.672 23.3842M77.7329 72.551C91.8199 54.0255 104.066 38.2161 115.921 28.0136M78.7517 73.538C91.3299 60.1975 102.251 47.919 116.291 28.6346M80.4115 73.7922C91.0994 62.5879 97.8359 51.5606 118.778 31.3961M83.9832 72.0361C97.1516 59.3385 108.45 47.6942 117.424 30.6833M85.6157 72.245C94.682 58.8426 104.635 46.8719 117.087 36.083M88.2563 70.9029C101.034 58.5635 110.321 46.0631 117.485 37.3941M92.4881 71.1434C100.885 58.8183 110.377 48.4319 120.062 41.4728M95.3115 70.6983C102.522 60.9438 112.901 50.855 119.039 42.1472M98.7272 67.0212C105.956 59.8724 110.397 54.2186 117.474 49.3596M102.04 65.1661C106.464 61.4358 111.509 54.9889 116.297 51.5273M54.1856 11.382V11.382Z" stroke="url(#paint0_linear_2545_16001)" stroke-width="0.216313" stroke-linecap="round"/>
<g clip-path="url(#clip0_2545_16001)">
<path d="M54.0684 79.6768C40.7397 86.0909 24.1176 79.331 15.9475 67.7037C13.1212 63.8988 11.2012 59.4987 10.334 54.839C10.3339 54.8038 10.3451 54.7695 10.3661 54.7412C10.387 54.7129 10.4166 54.6921 10.4503 54.6818C10.484 54.6716 10.5201 54.6726 10.5532 54.6845C10.5863 54.6964 10.6148 54.7187 10.6342 54.748C16.0931 67.0577 27.2473 77.0383 40.6033 79.5403C45.0367 80.3474 49.5845 80.2887 53.9956 79.3674C54.0366 79.3591 54.0791 79.3666 54.1147 79.3886C54.1502 79.4106 54.1759 79.4453 54.1867 79.4857C54.193 79.5264 54.1845 79.568 54.1628 79.6031C54.1412 79.6381 54.1077 79.6642 54.0684 79.6768Z" fill="white"/>
<path d="M12.1257 55.4502C6.16645 42.2307 10.8702 26.0361 22.7068 17.6659C26.4129 14.9079 30.6365 12.9246 35.1256 11.834C35.1477 11.8254 35.1712 11.8215 35.1949 11.8224C35.2185 11.8233 35.2417 11.8291 35.263 11.8393C35.2843 11.8495 35.3033 11.864 35.3188 11.8819C35.3343 11.8998 35.346 11.9206 35.3531 11.9432C35.3614 11.9783 35.3579 12.0152 35.343 12.0481C35.3282 12.081 35.303 12.1081 35.2712 12.1251C31.3458 14.1504 27.68 16.6432 24.3535 19.5492C17.6006 25.3348 13.2258 33.4135 12.0711 42.2307C11.5597 46.6197 11.6823 51.0596 12.435 55.4138C12.4389 55.4341 12.4387 55.455 12.4344 55.4753C12.4301 55.4956 12.4217 55.5147 12.4099 55.5317C12.398 55.5487 12.3828 55.5631 12.3653 55.5741C12.3477 55.5851 12.3281 55.5924 12.3077 55.5957C12.2672 55.5993 12.2268 55.5884 12.1935 55.5651C12.1602 55.5418 12.1362 55.5076 12.1257 55.4684V55.4502Z" fill="white"/>
<path d="M36.3458 13.5166C48.8102 6.61114 66.0055 12.2065 73.8844 23.6427C76.5684 27.5367 78.1605 32.3496 77.6238 36.9259C77.6252 36.9498 77.6215 36.9737 77.6127 36.996C77.604 37.0182 77.5904 37.0383 77.5731 37.0548C77.5558 37.0713 77.535 37.0838 77.5123 37.0914C77.4896 37.099 77.4656 37.1015 77.4418 37.0988C77.4069 37.0949 77.3745 37.0792 77.3497 37.0544C77.3249 37.0296 77.3092 36.9972 77.3053 36.9623C76.6336 32.6269 74.7758 28.5619 71.9375 25.2167C66.1596 18.5567 58.1558 14.2266 49.4197 13.0344C45.0806 12.404 40.6582 12.6734 36.4277 13.8259C36.388 13.8347 36.3464 13.8284 36.3111 13.8082C36.2758 13.788 36.2492 13.7554 36.2366 13.7167C36.2274 13.6758 36.2334 13.6329 36.2535 13.5961C36.2736 13.5593 36.3064 13.531 36.3458 13.5166Z" fill="white"/>
<path d="M78.2883 37.7445C86.0308 54.4577 74.6491 76.8207 56.0617 79.1134C56.0389 79.1202 56.0149 79.122 55.9914 79.1186C55.9679 79.1151 55.9454 79.1067 55.9255 79.0937C55.9056 79.0807 55.8887 79.0635 55.8761 79.0434C55.8635 79.0232 55.8554 79.0006 55.8525 78.977C55.8487 78.9436 55.8567 78.91 55.8749 78.8818C55.8932 78.8536 55.9206 78.8326 55.9525 78.8223C59.8801 77.2842 63.503 75.0599 66.6519 72.2535C72.9291 66.5455 77.0105 58.8204 78.1882 50.4181C78.7647 46.235 78.6941 41.9881 77.979 37.8264C77.9751 37.8066 77.9753 37.7862 77.9797 37.7664C77.9842 37.7467 77.9926 37.7282 78.0046 37.7119C78.0166 37.6956 78.0318 37.6821 78.0493 37.672C78.0669 37.662 78.0863 37.6557 78.1063 37.6535C78.1461 37.6454 78.1875 37.6533 78.2215 37.6754C78.2556 37.6975 78.2796 37.7321 78.2883 37.7718V37.7445Z" fill="white"/>
<path d="M33.0608 13.608C33.0542 13.5842 33.0542 13.5591 33.0608 13.5353C33.2428 13.4443 33.2701 13.6626 33.2428 13.5899C33.3101 13.8333 33.3498 14.0836 33.3611 14.3359C33.3526 14.6264 33.3036 14.9142 33.2155 15.1911C33.1085 15.4817 33.0742 15.794 33.1154 16.1009C33.0083 16.5653 32.8368 17.0124 32.6059 17.4292C32.613 17.7355 32.5274 18.0368 32.3603 18.2936C32.2852 18.391 32.2182 18.4945 32.1601 18.6029C31.7332 19.4537 31.2113 20.2533 30.6043 20.9866C30.2777 21.5564 29.823 22.0423 29.276 22.4059L29.1305 22.5515C28.9345 22.7257 28.7056 22.8587 28.4572 22.9427C28.0524 23.0673 27.6162 23.0415 27.229 22.8699C27.0218 22.7977 26.8303 22.6865 26.6649 22.5424C26.4379 22.3223 26.2798 22.041 26.21 21.7326C26.2505 21.8877 26.3216 22.0331 26.4192 22.1602C26.1396 22.0044 25.9022 21.7827 25.7278 21.5143C25.6641 21.4233 25.7278 21.5143 25.7278 21.5143C25.529 21.3165 25.2694 21.1915 24.9908 21.1594C24.6596 21.0349 24.3189 20.9375 23.9718 20.8683C24.2246 20.9057 24.4828 20.8678 24.7141 20.7594C24.9455 20.651 25.1398 20.4769 25.2729 20.2587C25.2729 20.2042 25.2729 20.2587 25.2729 20.377L25.1 21.1231C25.044 21.33 24.9614 21.5287 24.8544 21.7144C24.9089 21.6598 24.9544 21.4051 24.9453 21.487V21.5962C24.9352 21.3462 24.8565 21.1039 24.7179 20.8956C24.5541 20.6954 24.5723 20.75 24.7179 20.841C25.0665 21.08 25.3384 21.415 25.5003 21.8054C25.6095 22.0963 25.665 22.4045 25.6641 22.7152C25.6641 22.8608 25.7187 22.7152 25.5367 22.3058C25.3548 21.8964 24.8817 21.7235 25.473 22.1238C25.6086 22.2364 25.7335 22.3613 25.846 22.4969C25.7082 22.3685 25.5478 22.2667 25.373 22.1966C25.5126 22.2393 25.6494 22.2909 25.7824 22.3513C26.3616 22.5962 26.8621 22.996 27.229 23.5068C27.5915 24.1964 27.7071 24.9895 27.5565 25.754C27.5639 25.6936 27.5639 25.6324 27.5565 25.572C27.6301 25.8708 27.6301 26.183 27.5565 26.4818C27.4735 26.8694 27.3159 27.2371 27.0925 27.5645C26.8881 27.858 26.6161 28.0981 26.2993 28.2644C25.9826 28.4306 25.6306 28.5182 25.2729 28.5198C25.3639 28.5198 25.4093 28.5198 25.2183 28.5744C24.8744 28.7522 24.5111 28.8896 24.1356 28.9838C23.1621 29.1112 23.89 28.9838 23.8536 28.9838C23.8172 28.9838 23.2622 29.6116 23.0075 29.7753L22.9347 29.8299C22.9347 29.8299 22.9984 29.7662 23.0256 29.7571C23.0529 29.748 23.1075 29.6298 23.0256 29.7116C22.8785 30.0124 22.6816 30.2861 22.4434 30.5214L21.9794 30.9308C21.3626 31.5804 20.6434 32.1244 19.8504 32.5411L19.6867 32.6412C19.5684 32.7413 19.0407 33.1962 19.0407 33.178C19.0952 33.0878 19.1351 32.9895 19.159 32.8869C19.0497 33.2699 18.8907 33.637 18.6859 33.9786C18.6859 33.9786 18.6859 33.9786 18.6859 33.9149C18.728 34.5274 18.6664 35.1426 18.5039 35.7346C18.3305 36.1848 18.0098 36.5632 17.5941 36.8081C17.5304 36.8081 17.5941 36.8081 17.5941 36.8081C17.6669 36.7543 17.7313 36.6899 17.7852 36.6171C17.7852 36.6171 17.7852 36.6171 17.7033 36.7263C17.6272 36.8389 17.5387 36.9427 17.4394 37.0356C17.2393 37.2448 17.4394 37.0356 17.3757 36.9082V37.0447C17.3825 37.1112 17.3825 37.1783 17.3757 37.2448C17.303 37.5451 17.3757 37.3085 17.2939 37.072C17.2614 36.9328 17.1886 36.8062 17.0846 36.7081C17.4398 37.1353 17.6187 37.6819 17.585 38.2365C17.6354 38.7095 17.5126 39.1847 17.2393 39.574C17.0118 39.8287 17.3212 39.4375 17.303 39.3101C17.2692 39.6388 17.1553 39.9541 16.9713 40.2285C16.7873 40.503 16.5388 40.728 16.2476 40.8841C15.9738 41.0419 15.6677 41.1354 15.3525 41.1575C15.0372 41.1795 14.7211 41.1296 14.428 41.0114C14.3435 40.9662 14.2668 40.9078 14.2005 40.8386C14.1186 40.7567 14.0731 40.7476 14.064 40.6839C14.064 40.6839 14.064 40.6839 13.8912 40.6839C13.7411 40.717 13.5892 40.7413 13.4363 40.7567C13.3362 40.7567 13.2907 40.7567 13.3453 40.7567C13.2039 40.8537 13.0548 40.9389 12.8995 41.0114C12.7687 41.0671 12.6351 41.1157 12.4992 41.157C12.4173 41.157 12.4355 41.157 12.4992 41.0296C12.5629 40.9023 12.4992 41.0842 12.4992 41.1206V41.2753C12.4992 41.2753 12.3354 41.1024 12.5447 41.3299C12.7812 41.7666 12.6538 41.894 12.6265 42.1851C12.6265 42.1851 12.6265 42.1851 12.6265 42.1214C12.5629 42.0486 12.6265 42.0577 12.6265 42.1214C12.6963 42.1954 12.7436 42.2877 12.763 42.3876C12.7823 42.4875 12.7728 42.5908 12.7357 42.6855C12.7357 42.7401 12.7357 42.7765 12.7357 42.6855C12.7504 42.6381 12.7504 42.5873 12.7357 42.5399C12.7357 42.4762 12.672 42.4489 12.7357 42.4762C13.0269 42.8493 13.0269 43.1404 13.4272 43.3133L13.6 43.4042C13.6 43.4042 13.7183 43.4588 13.7456 43.4861C13.7729 43.5134 13.8002 43.6408 13.7456 43.6408C13.691 43.6408 13.6546 43.6408 13.6182 43.6408C13.5818 43.6408 13.5 43.4588 13.6182 43.4588C13.6819 43.4588 13.7365 43.4588 13.6182 43.4588C13.5546 43.4588 13.6182 43.5862 13.6182 43.5771H13.5364L13.3544 43.5134C12.945 43.4224 12.6811 43.013 12.4446 42.7492C12.4446 42.7492 12.3536 42.6309 12.3809 42.5763C12.4082 42.5217 12.4628 42.458 12.3809 42.3944C12.3435 42.4122 12.3028 42.422 12.2614 42.4233C12.22 42.4247 12.1788 42.4174 12.1404 42.402C12.1019 42.3866 12.0671 42.3635 12.038 42.334C12.0089 42.3045 11.9863 42.2693 11.9715 42.2306C11.9715 42.085 12.017 41.8303 11.9715 41.7302C11.9098 41.6805 11.8593 41.6183 11.8233 41.5478C11.7872 41.4772 11.7664 41.3999 11.7622 41.3208C11.7537 41.1814 11.7537 41.0416 11.7622 40.9023C11.9442 40.4838 12.4628 40.4929 12.7357 40.1926C12.9756 40.0591 13.2376 39.9697 13.5091 39.9288C13.7005 39.8329 13.9153 39.794 14.1282 39.8166C14.3411 39.8391 14.543 39.9223 14.71 40.0562L14.8556 40.1653C15.1425 40.1836 15.4283 40.1138 15.6744 39.9652C16.0656 39.765 16.0292 39.4102 16.1293 39.0554C16.2294 38.8643 16.3204 38.8643 16.2931 38.7733C16.3405 38.4052 16.3 38.031 16.1748 37.6816C16.1115 37.6239 16.064 37.551 16.0369 37.4697C16.0098 37.3885 16.0041 37.3017 16.0201 37.2176C16.021 36.9315 16.0734 36.648 16.1748 36.3805C16.3295 36.1258 16.5023 36.0166 16.657 35.7528C17.7943 35.2251 16.657 33.8877 17.4667 32.9233C17.5956 32.3882 17.9202 31.9208 18.3765 31.6131C19.2096 31.0277 19.9945 30.3767 20.7238 29.6661C21.1329 29.345 21.4706 28.9422 21.7155 28.4834C22.1613 28.165 22.3979 27.7374 22.9074 27.4098C23.4169 27.0823 23.7626 27.3279 24.3904 26.9276C24.8726 26.6183 25.4275 26.9276 25.6823 26.3635C25.837 26.1543 25.7824 26.1361 25.7551 25.945C25.7496 25.6106 25.7678 25.2761 25.8097 24.9442C25.8097 24.4075 25.4002 24.18 24.9726 23.9708C24.7121 23.8914 24.4851 23.7283 24.3267 23.5068C24.2721 23.4522 24.081 23.3703 23.99 23.2065C23.7899 22.8426 24.081 22.415 23.6807 22.1966C23.5396 22.1303 23.4221 22.0225 23.344 21.8875C23.266 21.7525 23.2311 21.5969 23.244 21.4415C23.244 21.1867 23.426 20.8865 23.4896 20.6682C23.6443 20.2951 23.7171 19.0851 24.3176 19.3125C25.3262 19.4754 26.2412 19.9992 26.8923 20.7864C27.0561 21.0139 27.5019 21.2049 27.5201 21.5325C27.5893 21.5993 27.6727 21.6495 27.7641 21.6794C27.8555 21.7094 27.9525 21.7182 28.0478 21.7053C28.2479 21.6507 28.439 21.4324 28.6937 21.305C29.1318 21.0259 29.5143 20.6681 29.8219 20.2496L30.85 19.0669C31.2048 18.7394 31.3868 18.1571 31.7598 17.8205C31.9145 17.6476 31.8781 17.3928 32.0145 17.1108C32.2278 16.7968 32.4077 16.4614 32.5513 16.11C32.5641 15.7026 32.6633 15.3025 32.8425 14.9364C33.0523 14.5109 33.1314 14.0329 33.0699 13.5626C33.0699 13.4898 33.0699 13.6808 33.2246 13.5626C33.2246 13.5867 33.215 13.6098 33.1979 13.6269C33.1809 13.644 33.1577 13.6535 33.1336 13.6535C33.1095 13.6535 33.0863 13.644 33.0693 13.6269C33.0522 13.6098 33.0426 13.5867 33.0426 13.5626L33.0608 13.608Z" fill="white"/>
<path d="M13.1464 43.5754C13.3011 43.5754 13.4467 43.6937 13.5467 43.5754C13.6468 43.4572 13.5467 43.5754 13.5467 43.4935C13.5669 43.4087 13.6097 43.3308 13.6706 43.2683C13.7314 43.2059 13.8081 43.1611 13.8925 43.1387C14.1108 43.1387 14.1836 43.0932 14.0198 43.1387C13.981 43.1499 13.9463 43.172 13.9198 43.2024C14.0012 43.0732 14.1226 42.9742 14.2655 42.9204C14.7022 42.7839 14.684 42.7384 15.0661 42.6383C15.2011 42.6094 15.3408 42.6116 15.4748 42.6447C15.6088 42.6778 15.7335 42.741 15.8395 42.8294C15.9166 42.8944 15.9895 42.9643 16.0578 43.0386C16.1215 43.1114 16.0578 43.0386 16.1488 43.0932L16.5491 43.3389C17.0222 43.5208 17.559 44.5034 17.7046 44.7946C17.7682 44.8946 17.8501 44.931 17.7046 44.7946C18.0564 45.0317 18.3482 45.3475 18.5567 45.7171C18.7651 46.0867 18.8846 46.4997 18.9055 46.9235C18.8554 47.2033 18.8554 47.4898 18.9055 47.7696C18.9055 47.7696 18.9055 47.8424 18.9055 47.7696C18.9055 47.6969 18.9055 47.706 18.9055 47.7242C18.9055 47.7423 19.0693 47.9425 19.1239 47.9607C19.1785 47.9789 19.1239 47.8697 18.8054 47.7423C19.2925 47.9043 19.7458 48.154 20.1428 48.4793C20.1428 48.4793 20.3339 48.6522 20.2247 48.543C20.1156 48.4338 19.9882 48.3974 20.0064 48.3792C20.4355 48.4399 20.8457 48.5953 21.2073 48.8341H21.2619L21.1618 48.7613C21.1072 48.7067 20.9344 48.6522 20.9435 48.6431C21.4077 48.7626 21.82 49.0311 22.1171 49.4073C22.5325 49.9225 22.7575 50.5651 22.754 51.2269C22.9974 51.6832 23.1345 52.1887 23.155 52.7054C23.1755 53.2222 23.0788 53.7369 22.8723 54.2111C22.9298 54.1134 22.967 54.0051 22.9814 53.8926C23.076 54.5946 22.9353 55.3081 22.5811 55.9215C22.5336 55.9752 22.491 56.0331 22.4538 56.0944C22.6062 55.904 22.7093 55.679 22.754 55.4393C22.7995 55.1027 22.754 55.0754 22.754 55.0572C22.8442 55.3523 22.8932 55.6585 22.8996 55.967V56.0853C22.8996 56.0853 22.8996 56.0034 22.8996 55.9306C22.8996 55.8578 22.7449 55.6031 22.8996 55.876C23.0743 56.1974 23.168 56.5565 23.1725 56.9223C23.1725 57.0497 23.1725 57.3408 23.1725 57.4682C23.1597 57.6748 23.1875 57.8819 23.2544 58.0778C23.4248 58.5367 23.4931 59.0272 23.4545 59.5153C23.4481 60.0446 23.3464 60.5686 23.1543 61.0619C23.0906 61.2166 23.1543 60.8982 23.1543 60.7708C23.1361 61.0827 23.0685 61.3898 22.9542 61.6806C22.9494 61.7412 22.9494 61.802 22.9542 61.8626C22.9542 62.6086 23.1816 63.2637 23.0087 63.6822C22.9632 63.8186 22.9632 63.8186 22.9542 63.6822C22.9542 63.8732 22.8905 64.1917 22.8632 64.3827L22.7358 65.3744C22.5764 66.0472 22.3758 66.7096 22.1353 67.3578C22.0534 67.7581 21.826 68.6224 21.7896 69.0318C21.7896 69.1046 21.7896 69.1865 21.7896 69.1774C21.9079 69.1774 21.9079 69.3685 21.7896 69.3594C21.6713 69.3503 21.6349 69.1592 21.5894 69.0864C21.5532 68.8333 21.5349 68.5779 21.5349 68.3222C21.5465 67.3339 21.6378 66.3481 21.8078 65.3744C21.7825 64.7069 21.7977 64.0385 21.8533 63.3728C21.8988 63.109 21.7077 62.7451 21.6895 62.463C21.5621 61.8877 21.5621 61.2915 21.6895 60.7162C21.819 60.3299 21.8686 59.9213 21.8351 59.5153C21.8351 58.6691 21.3529 57.9504 21.4257 57.0952C21.4803 56.6858 21.18 56.5766 21.1527 56.1854C21.1675 56.0322 21.1521 55.8776 21.1072 55.7305C21.0618 55.5394 20.9162 55.2028 21.1072 54.9753C21.1656 54.9032 21.1976 54.8133 21.1982 54.7206C21.1982 54.3384 21.0981 53.6015 21.362 53.2376C21.4177 52.7801 21.332 52.3166 21.1163 51.9093C20.9162 51.4726 21.1163 50.9995 20.8798 50.6537C20.7433 50.5082 20.6796 50.3626 20.4704 50.3353C20.1865 50.1722 19.8799 50.0526 19.5606 49.9805C19.2057 49.9077 19.0056 49.5802 18.7053 49.4255C18.5692 49.3459 18.426 49.279 18.2777 49.2253C18.0468 49.0748 17.8531 48.8737 17.7112 48.6372C17.5694 48.4008 17.4831 48.1353 17.4589 47.8606C17.4134 47.2238 17.7319 46.5778 17.2951 46.041C17.1223 45.759 16.7857 45.5497 16.6947 45.2404C16.5214 44.6137 16.1394 44.0649 15.612 43.6846C15.4664 43.5754 15.3755 43.3662 15.3118 43.3389C15.1746 43.3026 15.0304 43.3026 14.8933 43.3389C14.7477 43.3844 14.5293 43.3935 14.4111 43.4208C14.2928 43.4481 14.4111 43.4208 14.2382 43.5572C14.0653 43.6937 14.0016 43.5572 13.9562 43.5572C13.9107 43.5572 13.8106 43.8666 13.6286 43.8848C13.4467 43.903 13.2192 43.7665 13.1191 43.7665C13.0191 43.7665 13.0009 43.5663 13.1191 43.5845L13.1464 43.5754Z" fill="white"/>
<path d="M28.5762 37.3534C28.6308 37.1623 28.5762 36.8439 28.7399 36.6892C29.1221 36.3981 28.9492 36.2434 29.1039 35.8613C29.4041 35.4519 29.8499 35.0061 30.1683 34.6149C30.1683 34.6149 30.1683 34.5603 30.2593 34.3237C30.2936 34.2713 30.3333 34.2225 30.3776 34.1782C30.593 33.9435 30.8307 33.7302 31.0872 33.5413C31.3238 33.3684 31.2237 33.4594 31.4148 33.1774C31.6058 32.8953 31.7605 32.7862 31.8606 32.6588C31.8606 32.6588 31.8606 32.586 31.9152 32.495C31.9691 32.3327 32.0524 32.1816 32.1608 32.0492C32.1608 32.0492 32.3428 31.9037 32.2336 31.9855C32.1244 32.0674 32.2336 31.9855 32.2791 31.8491C32.3246 31.7126 32.5156 31.6853 32.7613 31.3305C33.4431 30.7706 34.2283 30.3502 35.0722 30.0931C36.3823 29.8293 37.465 30.448 38.6386 30.8665C38.8701 30.9573 39.0829 31.0899 39.2664 31.2577C39.2664 31.2577 39.2664 31.2577 39.3483 31.2577C39.4302 31.2577 39.6303 31.5033 39.6303 31.4942C39.5718 31.4518 39.5075 31.4181 39.4393 31.3942C39.6608 31.4685 39.8586 31.6004 40.0125 31.7763C40.1125 31.9128 40.2126 31.9582 40.0125 31.7763C40.244 31.902 40.4243 32.1048 40.5219 32.3495C40.6766 32.868 40.6311 32.6042 40.5219 32.4222C40.4128 32.2403 40.5219 32.3677 40.5219 32.3768C40.8222 32.6133 41.2407 32.4859 41.6228 32.5769C42.3 32.7309 42.994 32.7982 43.6881 32.7771C44.0523 32.6512 44.4267 32.5568 44.8071 32.495C44.8071 32.495 44.6707 32.5587 44.8526 32.495C45.5168 32.213 45.6533 32.4404 46.0991 32.1766C46.0991 32.1766 46.1537 32.1766 46.0991 32.1766C45.971 32.2342 45.8563 32.3178 45.7624 32.4222C45.5999 32.5909 45.5086 32.8158 45.5077 33.05C45.5077 33.05 45.5077 33.05 45.5077 32.9681C45.4985 32.9223 45.4799 32.879 45.4531 32.8408C45.4531 32.8408 45.4531 32.8408 45.4986 32.9226C45.5524 32.9955 45.6168 33.0599 45.6896 33.1137C45.3803 32.8862 45.0801 32.4495 44.9345 32.3404C44.7579 32.2012 44.5726 32.0735 44.3795 31.9582C44.4277 31.9661 44.4769 31.9661 44.5251 31.9582H44.7253C44.4287 32.0387 44.1227 32.0785 43.8154 32.0765H43.9064C43.5859 32.1912 43.2456 32.2407 42.9056 32.2221C42.4052 32.2221 42.1687 32.0674 41.9958 32.0674C41.5544 32.0676 41.1166 31.9874 40.7039 31.8309L39.8305 31.5397C39.399 31.4034 39.0054 31.1678 38.6815 30.8518C38.3576 30.5358 38.1123 30.1481 37.9654 29.7201V29.6291C37.9654 29.5382 37.9654 29.6291 37.9654 29.6291C38.0016 29.808 38.094 29.9706 38.2292 30.0931C38.2747 30.0931 38.1655 30.0931 38.1473 30.0931C38.277 30.1382 38.418 30.1382 38.5477 30.0931C38.6932 30.0203 38.3384 30.2387 38.3111 30.2569C38.104 30.3775 37.8843 30.4751 37.6561 30.548C37.778 30.4915 37.8913 30.4179 37.9927 30.3297C37.8264 30.5528 37.627 30.7491 37.4013 30.912L37.1193 31.0848C36.4674 31.5427 35.7316 31.8673 34.9539 32.0401C33.6438 32.6133 31.8242 32.304 31.7696 30.5116C31.715 29.8622 31.8994 29.2151 32.2882 28.692C32.3792 28.5829 32.5338 28.3736 32.6157 28.2644C32.8385 27.9071 33.0911 27.5693 33.3709 27.2545C33.3709 27.2545 33.4527 27.1363 33.3709 27.2545C33.289 27.3728 33.3709 27.3364 33.3709 27.3091C33.3709 27.2818 33.4345 27.0635 33.48 26.8542C33.5295 26.6538 33.5902 26.4564 33.662 26.2628C33.8258 25.9444 33.9349 25.7261 33.8167 25.999C33.7862 26.0993 33.7709 26.2035 33.7712 26.3083C33.7712 26.3083 33.7712 26.3083 33.7712 26.2446L33.6074 25.8534C33.6045 25.908 33.6045 25.9626 33.6074 26.0172C33.4482 25.7 33.3585 25.3526 33.3444 24.998C33.3303 24.6434 33.392 24.2898 33.5255 23.961C33.6749 23.6898 33.8909 23.4613 34.1533 23.2969C33.8742 23.4572 33.6662 23.7173 33.571 24.0247C33.4983 24.2254 33.4712 24.4397 33.4917 24.6522C33.5121 24.8646 33.5796 25.0699 33.6893 25.253C33.7439 25.3348 33.7621 25.3621 33.6893 25.253C33.6275 25.1826 33.5727 25.1064 33.5255 25.0255C33.3655 24.7131 33.2921 24.3635 33.3129 24.0131C33.3337 23.6627 33.4479 23.3243 33.6438 23.033C33.605 23.1157 33.5716 23.2008 33.5437 23.2878C33.5437 23.2878 33.5437 23.397 33.5437 23.2878C33.6414 22.9413 33.8298 22.6272 34.0896 22.378C34.3903 22.0999 34.7427 21.8835 35.1268 21.7411C35.0827 21.7692 35.0402 21.7995 34.9994 21.8321L35.0722 21.7775C35.3909 21.5106 35.7664 21.32 36.17 21.2202C36.5735 21.1205 36.9946 21.1143 37.4009 21.2021C37.8073 21.2898 38.1882 21.4693 38.5147 21.7267C38.8411 21.9841 39.1045 22.3126 39.2846 22.6873C39.2846 22.6873 39.2846 22.8238 39.2846 22.7692C39.2315 22.6018 39.1448 22.447 39.0299 22.3143C38.9635 22.2409 38.8904 22.1739 38.8115 22.1141L38.9207 22.1596C39.1714 22.2769 39.4018 22.4335 39.603 22.6236C39.8024 22.8402 39.9681 23.0855 40.0943 23.3515C40.0293 23.2658 39.9562 23.1866 39.876 23.1149C39.6708 22.9351 39.4181 22.8182 39.1481 22.7783C38.9308 22.7396 38.7078 22.7463 38.4931 22.7979C38.2784 22.8495 38.0768 22.9449 37.9008 23.0782C37.7248 23.2115 37.5782 23.3798 37.4703 23.5724C37.3625 23.765 37.2956 23.9779 37.2739 24.1976C37.3078 23.5008 37.5041 22.8216 37.8471 22.2142C37.7909 22.3318 37.754 22.4578 37.7379 22.5872V22.6964C37.7379 22.478 37.7379 21.9322 37.7379 21.7138C37.7618 21.3337 37.8706 20.9637 38.0564 20.6311C38.0207 20.7037 37.9933 20.78 37.9745 20.8586C38.1323 20.2877 38.4994 19.7972 39.0026 19.4848C39.1026 19.4211 39.139 19.3938 39.0572 19.4848C38.9544 19.5871 38.8711 19.7074 38.8115 19.8396C39.0472 19.4254 39.3849 19.0783 39.7926 18.8315C40.2003 18.5846 40.6643 18.4462 41.1406 18.4294C41.3494 18.3453 41.5657 18.2813 41.7866 18.2383H41.7047C41.6462 18.2526 41.5907 18.2772 41.5409 18.3111C41.0769 18.7296 41.6228 18.1838 41.8412 18.0655C42.4328 17.742 43.1076 17.6026 43.7791 17.6652C44.2084 17.6057 44.6458 17.6526 45.0528 17.8016C45.1187 17.834 45.1893 17.8555 45.262 17.8653C45.8526 17.9245 46.437 18.0341 47.0089 18.1929C47.2909 18.302 47.4365 18.3202 47.1635 18.2747C47.7127 18.2585 48.2588 18.361 48.7648 18.575C48.4737 18.4658 48.7011 18.575 48.9286 18.575C49.3744 18.575 50.3934 18.575 50.639 18.5022H50.7209C50.6067 18.5351 50.4989 18.5874 50.4025 18.6569C50.2751 18.7569 50.3115 18.7478 50.4025 18.6569C50.6981 18.2917 51.0883 18.0148 51.5306 17.8562H51.4487C51.3305 17.929 51.5033 17.8562 51.6671 17.6925C51.7821 17.5961 51.9037 17.508 52.031 17.4286C52.4315 17.2384 52.8073 17.0001 53.1501 16.719C53.5172 16.3027 53.9747 15.976 54.4875 15.7637C54.8168 15.6868 55.1588 15.6819 55.4901 15.7494C55.8214 15.8169 56.1343 15.9553 56.4072 16.1549C56.4072 16.1549 56.6346 16.2186 57.044 16.4278C57.1987 16.4278 57.5171 16.7645 57.599 16.8281C57.6809 16.8918 57.6809 16.8918 57.5444 16.8281H57.4717H57.5899L57.9175 16.9373C58.473 17.0872 58.9687 17.4049 59.3368 17.8471C59.257 17.7399 59.162 17.6449 59.0547 17.5651C58.9877 17.5159 58.9142 17.4761 58.8364 17.4468H58.9092C59.3186 17.556 59.819 17.6288 60.283 17.7652C61.0194 18.0975 61.7797 18.3743 62.5575 18.5932C63.0485 18.6544 63.5348 18.7486 64.0132 18.8752C64.2452 18.9756 64.4978 19.0192 64.7501 19.0026C65.3208 18.8344 65.9112 18.7426 66.506 18.7296C66.7972 18.8843 67.8708 19.5212 68.1619 19.6394L68.2256 19.7031L71.046 22.4326L71.1006 22.4962L72.8565 24.7617L72.9202 24.8344C73.6753 26.1537 75.1128 28.874 75.7588 30.2933C76.1864 31.3487 76.5503 32.4222 76.9506 33.4958L76.887 34.4056C76.887 34.4298 76.8774 34.4529 76.8603 34.47C76.8432 34.487 76.8201 34.4966 76.796 34.4966C76.7718 34.4966 76.7487 34.487 76.7316 34.47C76.7146 34.4529 76.705 34.4298 76.705 34.4056V33.4958L75.313 30.5025C74.5942 29.1651 73.0385 26.5631 72.2014 25.2984C72.2924 25.3712 70.2999 23.1786 70.3818 23.2332C70.4637 23.2878 67.3886 20.5038 67.4886 20.622L66.2149 19.9306C65.5598 20.0489 64.6045 20.4947 63.6947 20.1216C62.831 20.0302 61.978 19.8566 61.1473 19.6031C60.7556 19.4321 60.3547 19.2832 59.9463 19.1573C59.3186 18.948 58.4815 19.0572 58.0266 18.575C57.6423 18.3937 57.2437 18.2446 56.8348 18.1292C56.5891 18.0109 56.4709 17.8198 56.3162 17.7471C55.9159 17.5992 55.5267 17.4228 55.1516 17.2194C54.8514 17.092 54.533 17.5105 54.2418 17.7925C53.5597 18.3462 52.8391 18.8509 52.0856 19.3028C51.749 19.3938 51.6489 19.7122 51.3759 19.9124C51.2631 19.9779 51.1401 20.0241 51.012 20.0489C50.1378 20.1673 49.2553 20.213 48.3736 20.1853C47.9676 20.0429 47.5391 19.9751 47.1089 19.9852C46.877 19.9624 46.6499 19.9041 46.4357 19.8123C46.0298 19.7064 45.616 19.6334 45.1984 19.594C44.9164 19.5719 44.6399 19.5043 44.3795 19.3938C43.8412 19.323 43.2937 19.3887 42.7874 19.5849C42.4447 19.8786 42.0303 20.0763 41.5864 20.158C41.1952 20.2399 40.7403 20.249 40.4856 20.522C40.2581 21.0133 39.7941 20.9496 39.6667 21.4318C39.6083 21.5069 39.5666 21.5937 39.5447 21.6863C39.5227 21.7789 39.5209 21.8752 39.5394 21.9686C39.5699 22.319 39.5453 22.672 39.4666 23.0148C39.4029 23.1422 39.3574 23.1968 39.321 23.2878C39.2133 23.6906 39.1372 24.1013 39.0935 24.516C38.7478 24.8708 38.4931 24.1066 38.3748 23.9519C38.2565 23.7973 38.0928 23.7973 37.8835 23.679C37.6742 23.5607 37.6651 23.3242 37.465 23.1786C36.7917 22.7055 36.4733 23.0694 35.8819 23.4151C35.6454 23.5243 35.4179 23.5789 35.3087 23.7609C35.1996 23.9428 35.1177 24.1066 35.1177 24.1703C35.1177 24.234 35.3451 24.4068 35.2724 24.6252C35.2366 24.7132 35.1726 24.7868 35.0904 24.8344C35.0904 24.7799 35.1632 24.7617 35.0904 24.8344C35.145 25.1893 35.3451 25.5623 35.3633 25.9262C35.5271 26.4903 35.145 26.7359 35.054 27.2181C34.9262 27.8709 34.6099 28.4719 34.1442 28.9468C33.9484 29.2657 33.7295 29.5698 33.4891 29.8566C33.424 30.0809 33.3993 30.3151 33.4163 30.548C33.3527 30.4844 33.4163 30.548 33.4163 30.548C33.7712 30.639 34.0805 30.448 34.4353 30.3752C35.0705 30.2449 35.6697 29.9779 36.1913 29.5927C36.5461 29.4563 36.6007 29.1287 36.9464 28.965C37.2582 28.883 37.5558 28.7542 37.8289 28.5829C38.1292 28.4858 38.454 28.4973 38.7467 28.6154C39.0394 28.7335 39.2813 28.9506 39.4302 29.2288C39.5212 29.7747 40.0488 29.984 40.4856 30.1932C41.037 30.5255 41.6621 30.7161 42.3052 30.7482C42.6905 30.903 43.1208 30.903 43.5061 30.7482C43.7791 30.7482 43.961 30.7482 44.1521 30.7027C44.2693 30.6624 44.3935 30.6464 44.5171 30.6558C44.6407 30.6652 44.7611 30.6997 44.8708 30.7573C45.6733 31.1907 46.3123 31.8744 46.6904 32.7043C46.7399 32.8096 46.7656 32.9245 46.7656 33.0409C46.7656 33.1573 46.7399 33.2722 46.6904 33.3775C46.4578 33.5283 46.1928 33.6218 45.9171 33.6505C45.4914 33.6965 45.069 33.7694 44.6525 33.8688C44.4439 33.8913 44.2391 33.9402 44.0429 34.0144C43.2514 34.2691 42.2233 33.8688 41.4227 33.7688C40.8537 33.775 40.297 33.6032 39.8305 33.2775C39.7195 33.1992 39.6417 33.0825 39.6121 32.9499C39.6121 32.8226 39.6121 32.7771 39.5303 32.7498C39.4484 32.7225 39.3119 32.5041 39.1936 32.4222C39.0753 32.3404 38.8843 32.1948 38.7842 32.1129C37.9026 31.5127 36.9144 31.0866 35.8728 30.8574C35.4591 30.8 35.0383 30.8868 34.681 31.103C34.0549 31.2174 33.4849 31.5376 33.0615 32.0128C32.9614 32.1038 32.8432 32.1402 32.825 32.1948C32.7931 32.2358 32.7685 32.2819 32.7522 32.3313C32.7522 32.3768 32.6157 32.4677 32.6248 32.4677C32.4505 32.8609 32.1892 33.2093 31.8606 33.4867C31.5876 33.9234 31.069 34.0781 30.6596 34.5512C30.6596 34.5967 30.6596 34.7332 30.5323 34.8514C30.4049 34.9697 29.8317 35.5611 29.6225 35.7612C29.5375 35.8123 29.467 35.8843 29.4177 35.9703C29.3683 36.0562 29.3417 36.1534 29.3404 36.2525C29.2887 36.4844 29.1483 36.6869 28.9492 36.8166C28.7854 36.9167 28.9492 37.135 28.7854 37.3989C28.7755 37.4204 28.7576 37.4371 28.7355 37.4456C28.7134 37.4541 28.6889 37.4537 28.6672 37.4444C28.6554 37.4395 28.6447 37.4323 28.6359 37.423C28.6271 37.4138 28.6203 37.4028 28.616 37.3908C28.6118 37.3788 28.61 37.366 28.611 37.3533C28.612 37.3406 28.6156 37.3282 28.6217 37.317L28.5762 37.3534Z" fill="white"/>
<path d="M28.6126 37.4525C28.6013 37.7468 28.5365 38.0366 28.4215 38.3078C28.2327 38.9647 28.2327 39.6615 28.4215 40.3184C28.7921 40.9832 28.9863 41.7318 28.9856 42.4929C28.953 42.6273 28.9317 42.7643 28.9219 42.9023C28.9219 42.8113 28.9219 42.7112 28.9856 42.7931C29.0533 42.9898 29.0931 43.195 29.1039 43.4027C29.1039 43.4573 29.1585 43.4027 29.0493 43.1206C28.9401 42.8386 29.0493 43.0569 29.213 43.2116C29.3342 43.3478 29.4438 43.4938 29.5406 43.6483C29.5406 43.6483 29.395 43.4573 29.4132 43.4755C29.9122 43.8071 30.3838 44.1782 30.8234 44.5854C31.1615 44.7884 31.468 45.0397 31.7332 45.3315C31.5788 45.1479 31.3776 45.0096 31.1509 44.9311C30.7506 44.822 30.7415 44.9311 30.878 44.8584H31.3329H31.4057L31.2055 44.9311H31.1509H31.2328C31.5621 44.7863 31.9121 44.6942 32.27 44.6582H32.1972C32.2518 44.6582 32.4429 44.5945 32.5065 44.5672C33.8531 44.267 35.1268 44.0486 36.4733 45.013C36.8899 45.287 37.2357 45.6557 37.4824 46.089C37.7291 46.5223 37.8697 47.0078 37.8926 47.5059C37.871 47.7697 37.8284 48.0313 37.7652 48.2883C37.7652 48.534 37.7652 48.1337 37.6743 48.1246C37.5833 48.1155 37.6743 48.1246 37.6743 48.1792C37.8348 48.5329 37.8701 48.9308 37.7743 49.3073C37.6288 49.7167 37.556 49.8259 37.6106 49.6076C37.6264 49.5418 37.6264 49.4732 37.6106 49.4074C37.5287 49.1709 37.4195 49.0981 37.6561 49.4984C37.6984 49.5688 37.7291 49.6456 37.747 49.7258C37.7354 49.6967 37.7201 49.6692 37.7015 49.644C37.6288 49.553 37.5651 49.5166 37.556 49.5257C37.5469 49.5348 37.7288 49.6349 38.0109 50.0261C38.2345 50.4208 38.3027 50.8848 38.2019 51.3271V51.5182C38.1383 51.1087 38.0291 51.1451 38.0382 51.136C38.1383 51.3726 38.5841 51.7638 38.575 52.1368C38.5923 52.5083 38.5238 52.8788 38.3748 53.2195C38.2219 53.4395 38.0548 53.6492 37.8744 53.8473C37.745 54.0704 37.6528 54.3132 37.6015 54.566C37.5955 54.5842 37.5839 54.6001 37.5684 54.6113C37.5529 54.6225 37.5342 54.6286 37.515 54.6286C37.4959 54.6286 37.4772 54.6225 37.4617 54.6113C37.4462 54.6001 37.4346 54.5842 37.4286 54.566C37.3826 54.0376 37.5069 53.5084 37.7834 53.0557C37.82 52.8175 37.82 52.5752 37.7834 52.337C37.7834 52.1368 37.5014 52.0185 37.3103 51.8093C37.2103 51.7456 37.1648 51.5091 37.1648 51.3726C37.1648 51.2361 37.1648 50.7994 37.0647 50.6811C36.9646 50.5629 36.6007 50.3627 36.537 50.117C36.4367 50.0107 36.3597 49.8845 36.3111 49.7466C36.2626 49.6087 36.2434 49.4622 36.255 49.3164C36.255 49.1527 36.3641 49.0435 36.3823 48.9434C36.4005 48.8433 36.3823 48.816 36.3004 48.6614C36.214 48.2626 36.214 47.85 36.3004 47.4513C36.1566 46.9974 35.8564 46.6093 35.4532 46.3561C35.05 46.1029 34.57 46.0009 34.0987 46.0684C33.4891 46.0684 32.8432 46.3959 32.2154 46.4414C31.8438 46.5689 31.4528 46.6304 31.06 46.6234C30.8689 46.6234 30.5141 46.6234 30.3685 46.4414C30.2229 46.2595 29.8772 46.0775 29.6407 45.841C28.9674 45.0585 28.4033 44.8584 28.003 44.1669C27.8944 44.0714 27.8075 43.9538 27.7479 43.822C27.6882 43.6902 27.6574 43.5473 27.6573 43.4027C27.607 43.139 27.5917 42.8698 27.6118 42.602C27.702 42.3705 27.7423 42.1224 27.7301 41.8742C27.7301 41.392 27.4571 40.9098 27.448 40.3548C27.4183 39.5485 27.634 38.7522 28.0667 38.0712C28.2304 37.893 28.3544 37.6822 28.4306 37.4525C28.4306 37.3525 28.6126 37.3434 28.6126 37.4525Z" fill="white"/>
<path d="M37.5295 54.3846C37.5295 54.5029 37.4385 54.603 37.4658 54.6212C37.4957 54.661 37.5146 54.7081 37.5204 54.7577C37.6659 55.0852 37.5204 55.3945 37.5659 55.6675C37.5687 55.5686 37.5365 55.4719 37.4749 55.3945C37.6024 55.513 37.721 55.6407 37.8297 55.7766C38.3392 56.4681 38.2391 57.3051 38.4757 57.4598C38.6009 57.658 38.7408 57.8465 38.8942 58.0239C39.1328 58.4879 39.2897 58.9896 39.3582 59.5068C39.3582 59.5068 39.3582 59.616 39.3582 59.6342C39.3582 59.4159 39.3582 59.525 39.5219 59.8708C39.6387 60.3351 39.6542 60.8192 39.5674 61.2901C39.5674 61.2901 39.5674 61.3538 39.5674 61.0899C39.5443 60.9088 39.4755 60.7366 39.3673 60.5895C39.2945 60.5076 39.3036 60.5076 39.3673 60.5895C39.5284 60.7577 39.6606 60.9514 39.7585 61.1627C39.943 61.3721 40.0768 61.6211 40.1497 61.8905C40.268 62.2727 40.4136 62.8003 40.5227 63.1825C40.5227 63.2371 40.5227 63.2643 40.5227 63.2371C40.5227 63.2098 40.5227 63.1097 40.5955 63.2371C40.6683 63.3644 41.2506 63.6829 41.5053 63.8375C41.3558 63.7331 41.1782 63.676 40.9958 63.6738C40.5045 63.6738 40.5409 63.8193 40.5955 63.7284L40.6774 63.6283C40.7402 63.5463 40.8102 63.4702 40.8867 63.4008C41.186 63.1184 41.5429 62.9043 41.9329 62.7731L41.842 62.8276C41.7237 62.9186 41.751 62.9186 41.9056 62.7458C42.0833 62.5615 42.2853 62.4023 42.5061 62.2727C42.7518 62.0998 43.516 60.7988 43.8344 60.5531C43.8344 60.5531 43.8344 60.5531 43.8344 60.6441C44.0625 60.2976 44.3451 59.9904 44.6715 59.7343C44.6715 59.7343 44.6078 59.9254 44.6715 60.0072C44.7351 60.0891 44.6715 59.8708 44.6715 59.7525C44.6938 59.6571 44.7211 59.563 44.7533 59.4705C44.8826 59.1345 45.0994 58.8393 45.3811 58.6152C45.3811 58.6152 45.3811 58.688 45.3811 58.6152C45.5471 58.3693 45.7605 58.159 46.0089 57.9966C46.0089 57.9966 46.0089 58.0875 46.0089 58.1057C46.0089 58.1239 46.1089 57.851 46.1999 57.6781C46.2901 57.4728 46.4199 57.2872 46.582 57.1322C46.9187 56.8593 47.4464 56.3498 47.8558 56.3316C47.7825 56.3667 47.715 56.4127 47.6556 56.4681C47.5464 56.55 47.3918 56.8866 47.4646 56.9048C47.4967 56.4712 47.6619 56.0582 47.9377 55.722C47.9922 55.7948 48.0286 55.6129 48.0468 55.4855C48.044 55.0126 48.1834 54.5497 48.4472 54.1572C48.5199 54.0753 48.4472 54.1572 48.4472 54.2482C48.4472 54.2482 48.4472 54.3391 48.4472 54.2482C48.429 53.9634 48.429 53.6777 48.4472 53.3929C48.4472 53.3929 48.4472 53.3293 48.529 53.3929C48.4869 53.3764 48.4496 53.3494 48.4209 53.3143C48.3923 53.2792 48.3731 53.2374 48.3653 53.1928C48.3653 52.9744 48.429 53.1382 48.3653 52.9835C48.3016 52.8289 48.3653 52.8562 48.4654 52.8834C48.5654 52.9107 48.5927 53.1291 48.5927 53.1291C48.802 53.2474 48.7565 53.5385 48.8111 53.7205L48.9112 54.1481C48.9298 54.228 48.9305 54.3111 48.9132 54.3913C48.8959 54.4716 48.861 54.547 48.8111 54.6121C48.6473 55.0761 48.993 55.7675 48.62 56.3134C48.5574 56.4332 48.5144 56.5622 48.4926 56.6955C48.4926 56.8684 48.4926 57.3051 48.2197 57.3688C48.0265 57.4202 47.8585 57.5398 47.7466 57.7054C47.5357 57.8741 47.3803 58.1024 47.3008 58.3605C47.2371 58.8154 46.6366 59.2703 46.2909 59.8071C46.2109 59.9037 46.1718 60.0278 46.1817 60.1528C46.118 60.6259 45.6722 60.9534 45.4175 61.2719C44.8625 61.9724 44.5077 62.7094 43.9254 63.419C43.6525 63.7193 43.4796 63.7556 42.9246 64.3288C42.6711 64.4471 42.425 64.5808 42.1877 64.7291C42.055 64.9289 41.8805 65.0974 41.6763 65.223C41.4721 65.3487 41.243 65.4285 41.0049 65.457C40.6774 65.457 40.4136 65.184 40.1588 65.0294C39.8576 64.8656 39.5926 64.6425 39.38 64.3736C39.1673 64.1046 39.0113 63.7954 38.9215 63.4645C38.8474 62.905 38.7006 62.3575 38.4848 61.836C38.2937 61.3538 38.0753 61.4265 38.1572 60.9716C38.2118 60.6623 38.3301 60.3985 38.2482 60.1801C38.121 59.8937 38.0559 59.5836 38.0572 59.2703C38.0572 58.5243 37.7296 58.3605 37.5295 57.669C37.3293 56.9776 37.5295 56.3589 37.1473 55.8494L37.1019 55.7584C37.0382 55.6038 37.1837 55.3763 37.2201 55.2398C37.2565 55.1034 37.2201 54.8213 37.2838 54.5848C37.3475 54.3482 37.393 54.4665 37.393 54.4301C37.393 54.3937 37.5841 54.3118 37.5659 54.4301L37.5295 54.3846Z" fill="white"/>
<path d="M48.2552 52.7926C47.8912 52.4833 47.9731 52.0739 48.1551 51.6826C48.337 51.2914 48.7737 51.0913 48.983 50.8729L50.4023 49.2898C50.657 49.0078 51.2393 48.38 51.4486 48.0616C51.5487 47.9433 51.4486 48.0616 51.4486 47.9888C51.506 47.8807 51.5762 47.7799 51.6578 47.6886C51.8034 47.4702 51.767 47.5339 51.7943 47.4611C51.8711 47.1835 51.9779 46.915 52.1127 46.6605C52.2297 46.4527 52.2864 46.2164 52.2765 45.9781C52.2765 45.7962 52.2765 45.1775 52.2765 45.0046C52.2765 44.8318 52.2765 44.9228 52.2765 45.0046C52.2765 45.0865 52.2765 45.0774 52.2765 45.1229C52.2765 45.1684 52.2765 45.1684 52.2765 45.1229C51.7903 45.1133 51.306 45.0584 50.8299 44.9592C50.1203 44.6407 49.3014 44.2222 49.1377 43.367C49.1653 43.5796 49.2611 43.7775 49.4106 43.9311C49.5289 44.0221 49.5835 44.0766 49.4106 43.9311C49.1877 43.8078 48.9975 43.6331 48.8556 43.4216C48.801 43.3397 48.8556 43.4216 48.8556 43.4762C49.0012 43.6399 48.61 43.2851 48.519 43.1486C48.4274 43.0264 48.3538 42.8915 48.3006 42.7483C48.2337 42.5319 48.188 42.3095 48.1642 42.0842C48.1805 42.1924 48.2279 42.2936 48.3006 42.3753C48.3006 42.3753 48.3552 42.4299 48.3006 42.3753C48.1061 42.2275 47.9472 42.038 47.8354 41.8207C47.7236 41.6035 47.6619 41.364 47.6547 41.1198C47.6598 41.2323 47.6844 41.3432 47.7275 41.4473C47.3889 41.0545 47.1488 40.5867 47.0269 40.0826C46.9237 39.6552 46.935 39.2081 47.0596 38.7865C47.1842 38.3648 47.4177 37.9834 47.7366 37.6807C48.2096 37.3161 48.7957 37.1294 49.3924 37.153C49.7177 37.1343 50.0439 37.1712 50.3568 37.2622C50.7338 37.4166 51.0765 37.644 51.3654 37.9313C51.6542 38.2186 51.8835 38.5601 52.04 38.9362C52.04 38.9362 52.1491 39.1182 52.04 38.9362C51.9308 38.7543 52.04 38.9362 52.3402 39.1819C52.5664 39.4086 52.7349 39.6863 52.8315 39.9916C53.0385 40.3798 53.1595 40.808 53.1863 41.2471C53.1909 41.0778 53.1398 40.9115 53.0407 40.774C52.9771 40.6922 53.0407 40.774 53.0407 40.774C52.9593 40.7275 52.8741 40.6879 52.786 40.6558H52.7041H52.9498H52.8588C52.7859 40.6784 52.7158 40.7089 52.6495 40.7467C52.5871 40.7936 52.5345 40.8523 52.4949 40.9196C52.5328 40.8481 52.5786 40.781 52.6313 40.7195C52.8773 40.4353 53.1899 40.2164 53.5411 40.0826C53.5411 40.0826 53.4774 40.0826 53.3592 40.1918L53.2591 40.2646C53.2136 40.3191 53.2591 40.2645 53.2591 40.1918C53.6039 39.7503 54.0545 39.403 54.5692 39.1819C54.5692 39.1819 54.3782 39.3638 54.2963 39.5094C54.2963 39.5094 54.3873 39.3002 54.36 39.382C54.36 39.382 54.36 39.2911 54.36 39.5731C54.3787 39.7031 54.4187 39.8291 54.4782 39.9461C54.3126 39.6511 54.222 39.3199 54.2144 38.9817C54.2303 39.2238 54.3191 39.4553 54.4691 39.6459C54.4691 39.6459 54.2599 39.3729 54.1871 39.2911C53.9656 39.045 53.8155 38.7431 53.7529 38.4181C53.6903 38.093 53.7175 37.757 53.8317 37.4462C53.9459 37.1355 54.1427 36.8618 54.4009 36.6546C54.6591 36.4474 54.969 36.3146 55.2971 36.2705C55.8416 36.0908 56.4328 36.1134 56.962 36.3342C57.335 36.4979 57.3259 36.507 57.4078 36.5343C57.9417 36.7131 58.4472 36.9674 58.909 37.2895C58.7899 37.1952 58.6541 37.1242 58.5087 37.0802C58.445 37.0802 58.5087 37.0802 58.6906 37.0802C58.828 37.1093 58.9621 37.1519 59.091 37.2076C59.2885 37.3066 59.4772 37.4223 59.655 37.5533C59.9637 37.7418 60.2452 37.9714 60.4921 38.2357L60.6285 38.3449C61.3501 38.8518 61.8917 39.5751 62.1752 40.4101C62.066 40.1099 62.0751 40.2191 62.1752 40.3555C62.5243 40.7768 62.7256 41.301 62.7484 41.8476V42.0023C62.8984 42.6767 62.8953 43.3763 62.7393 44.0493C62.6973 44.2128 62.6759 44.3809 62.6756 44.5497V44.9592C62.6679 44.841 62.6269 44.7275 62.5573 44.6316C62.8907 44.9299 63.1953 45.2589 63.4671 45.6142C63.6127 45.7416 63.922 45.9599 64.0676 46.0964C64.2132 46.2329 64.0676 46.0964 63.8493 46.0964C63.731 46.1009 63.6149 46.1299 63.5084 46.1816C63.4019 46.2333 63.3073 46.3065 63.2306 46.3967C63.0254 46.606 62.9082 46.886 62.9031 47.1791C62.9031 47.4156 62.9031 47.3429 62.9031 47.3247C62.8818 47.225 62.8513 47.1275 62.8121 47.0335L62.6847 46.7606C62.3876 46.21 62.282 45.5763 62.3845 44.9592C62.1427 44.1589 62.1747 43.3009 62.4754 42.5209C62.7517 41.8456 63.2279 41.2709 63.8402 40.8741C63.6836 40.9877 63.5609 41.1418 63.4853 41.3199C63.4125 41.511 63.4307 41.3199 63.7401 40.9014C63.8362 40.7879 63.9462 40.6871 64.0676 40.6012C64.1459 40.5521 64.2281 40.5095 64.3133 40.4738C63.9038 40.774 64.6226 40.1554 65.0138 40.0553C65.2629 39.8328 65.5684 39.6832 65.8969 39.6228C66.2254 39.5624 66.5641 39.5935 66.8761 39.7129C67.188 39.8322 67.4611 40.0351 67.6654 40.2993C67.8697 40.5635 67.9974 40.8788 68.0344 41.2108L68.089 41.42V41.3563C68.243 41.5543 68.3858 41.7609 68.5166 41.975C68.5909 42.1147 68.6431 42.2651 68.6712 42.4208C68.6712 42.4208 68.6712 42.5755 68.6712 42.4208C68.6712 42.4208 68.5712 42.3207 68.6166 42.4208C69.0131 42.8907 69.3409 43.4145 69.5901 43.9766C69.7539 44.4224 69.763 44.3041 70.0632 44.7408C70.1689 44.9622 70.3211 45.1581 70.5096 45.3152C70.698 45.4722 70.9182 45.5866 71.155 45.6506C71.155 45.6506 71.2642 45.6506 71.4643 45.6506C71.4643 45.6506 71.2733 45.7689 71.2824 45.7962C71.2824 45.7962 71.2915 45.8235 71.2824 45.7962C71.3256 45.67 71.3501 45.5382 71.3552 45.405C71.3552 44.8591 71.619 44.6043 71.3552 44.0766C71.2479 43.7753 71.1043 43.4881 70.9276 43.2214C70.7318 43.0363 70.6173 42.7811 70.6091 42.5118C70.6091 42.0751 70.6091 41.5474 70.9821 41.2926C71.2278 40.9196 71.6918 40.2918 72.3014 40.2555C72.4196 40.2555 72.4287 40.4465 72.3014 40.4374C71.8101 40.5375 71.5007 41.0743 71.2642 41.511C71.1987 41.5581 71.1466 41.6215 71.1131 41.6949C71.0796 41.7683 71.0658 41.8491 71.0731 41.9295C71.0731 42.2934 70.9912 42.6755 71.3006 42.8393C71.8284 43.3869 72.1249 44.1168 72.1285 44.8773C72.0648 45.2503 72.1285 45.5869 72.0284 45.969C71.801 46.8789 70.5545 46.4876 69.9905 46.1328C69.6548 45.9521 69.3796 45.6769 69.1989 45.3413C68.9363 45.0785 68.7236 44.7703 68.5711 44.4315C68.4312 44.0988 68.2376 43.7915 67.998 43.5217C67.8797 43.367 67.7978 43.276 67.6523 43.0759C67.561 42.7308 67.3788 42.4166 67.1246 42.166C66.8152 41.8021 66.8789 40.9833 66.3512 40.9378C66.0874 40.8832 65.8417 41.2653 65.4414 41.3927C65.2868 41.3927 65.1048 41.6929 64.9046 41.7839C64.7045 41.8749 64.8136 41.884 64.7318 42.0387C64.3012 42.3527 63.9913 42.805 63.8539 43.3199C63.7164 43.8348 63.7598 44.3813 63.9766 44.8682C63.9766 45.2776 63.8856 45.6233 63.9766 45.9054C64.1677 46.3512 64.7318 47.0517 64.3315 47.5703C63.9311 48.0889 63.0759 47.5703 62.6847 47.2337C62.3658 47.0331 62.088 46.7737 61.8659 46.4694C61.5747 46.0691 60.9015 45.7052 60.9561 45.0774C60.8469 44.0948 61.2927 43.2578 61.0834 42.4208C60.9925 42.0569 61.0834 41.7748 60.7923 41.511C60.5012 41.2471 60.4739 40.8468 60.2737 40.6012C60.0484 40.3368 59.7882 40.1042 59.5004 39.9097C59.1749 39.599 58.8216 39.3189 58.445 39.0727C58.3176 38.9726 58.163 38.9908 57.9992 38.9271C57.6084 38.6909 57.1974 38.4899 56.771 38.3267C56.3069 38.1356 56.125 37.9172 55.6246 38.172H55.57C55.57 38.172 55.57 38.0719 55.57 38.0901C55.7611 38.3994 56.0795 38.636 56.0613 39.0545C56.316 39.4184 56.1159 39.9643 55.9157 40.3464C55.688 40.6158 55.3929 40.8199 55.0605 40.9378C54.7148 41.0925 54.6602 41.5019 54.2781 41.6748C54.0779 41.7657 54.0233 41.7384 53.9142 41.9295C53.2955 42.7665 51.5669 42.439 51.5669 41.3017C51.495 40.791 51.2234 40.3296 50.8117 40.0189C50.3932 39.3456 50.193 38.6269 49.4015 38.7543C49.0467 38.7543 48.7646 38.7543 48.5554 39.0636C48.3461 39.3729 48.4917 39.7005 48.4917 40.028C48.4917 40.3555 48.8647 40.6285 48.9921 40.9378C49.0922 41.0561 48.9921 41.3017 49.1286 41.4109C49.2979 41.527 49.4229 41.6969 49.4834 41.8931C49.3378 42.8029 50.3295 42.8575 50.6116 43.5217C51.4213 44.4315 53.2227 43.6854 53.2682 45.1047C53.3259 45.8514 53.1613 46.5985 52.7951 47.2519C52.7063 47.4017 52.6332 47.5602 52.5767 47.725C52.5036 47.8962 52.4055 48.0556 52.2856 48.1981C52.2209 48.3762 52.122 48.54 51.9945 48.6803L51.6578 48.9623C50.8936 49.6993 50.0748 50.4999 49.2832 51.2095C48.8192 51.5098 48.3734 51.7372 48.2825 52.3013C48.237 52.4924 48.3734 52.4924 48.4735 52.7744C48.5281 52.8927 48.3097 52.9564 48.3006 52.7744L48.2552 52.7926Z" fill="white"/>
<path d="M71.9915 40.2734C72.296 39.9935 72.5594 39.6719 72.7739 39.3181C72.8285 39.2272 73.0377 39.0179 72.8467 39.0998C72.6556 39.1817 72.8467 38.6358 72.8467 38.5721C72.8467 38.5084 72.7739 38.3629 72.7466 38.2992C72.7193 38.2355 72.7466 38.3629 72.7466 38.3538C72.7466 38.3447 72.4646 37.726 72.4919 37.5804C72.4919 37.6714 72.41 37.6259 72.4191 37.6896C72.3718 37.6009 72.3293 37.5098 72.2917 37.4167C72.2145 37.1755 72.1746 36.9239 72.1734 36.6706C72.1598 36.823 72.1849 36.9763 72.2462 37.1164C72.3372 37.3439 72.4464 37.4712 72.2462 37.2256C71.9776 36.8163 71.8121 36.3481 71.764 35.8609C71.7581 35.9123 71.7581 35.9642 71.764 36.0155C71.764 36.0155 71.764 36.1156 71.764 36.1338C71.6975 35.9814 71.6457 35.823 71.6093 35.6607C71.5275 35.1603 71.482 34.8601 71.6093 35.2604C71.6093 35.3241 71.7276 35.4697 71.6093 35.3696C71.2094 34.9131 70.9254 34.367 70.7814 33.7774C70.7303 33.4868 70.7506 33.1882 70.8406 32.9072C70.9306 32.6262 71.0875 32.3714 71.298 32.1645C71.5084 31.9577 71.7659 31.8052 72.0484 31.72C72.3309 31.6349 72.6298 31.6197 72.9195 31.6758C73.1811 31.6839 73.4377 31.7502 73.6706 31.8698C73.9035 31.9894 74.1069 32.1593 74.266 32.3672C74.614 32.7058 75.0056 32.9965 75.4305 33.2315L76.0583 33.7228C76.0583 33.7865 76.3949 33.8775 76.4859 33.9867C76.5826 34.0963 76.6892 34.1969 76.8043 34.2869C76.8589 34.2869 76.9226 34.3688 76.8771 34.4325C76.5769 34.5508 76.2676 34.3051 75.9673 34.3506C75.1292 34.2154 74.3125 33.9707 73.5381 33.6228C73.156 33.3498 72.9013 33.2042 72.5192 33.3225C72.4373 33.3225 72.4555 33.3225 72.4555 33.459C72.6101 33.9685 73.429 34.4143 73.3653 35.2786C73.4512 35.5373 73.5002 35.8068 73.5108 36.0792C73.5108 36.1975 73.5836 36.2157 73.7019 36.425C73.7189 36.564 73.7189 36.7045 73.7019 36.8435C73.8445 37.2413 73.9452 37.6529 74.0021 38.0717C74.051 38.5169 73.9518 38.9658 73.7199 39.349C73.488 39.7322 73.1364 40.0283 72.7193 40.1916C72.4612 40.3314 72.1754 40.4122 71.8823 40.4281C71.8606 40.4281 71.8397 40.4195 71.8244 40.4041C71.809 40.3888 71.8004 40.3679 71.8004 40.3462C71.8004 40.3007 71.8004 40.2734 71.8823 40.2462L71.9915 40.2734Z" fill="white"/>
<path d="M76.6677 56.0591C76.6677 56.0591 76.6677 56.1501 76.6677 56.1774H76.5858C76.3766 56.2229 76.3129 56.3502 76.0581 56.423C75.6123 56.605 75.1483 56.0773 75.021 55.7679C74.9755 55.7043 74.9482 55.6497 74.9027 55.677C74.8544 55.626 74.8144 55.5676 74.7844 55.5041C74.6479 55.1857 74.7025 55.0947 74.6206 54.9582C74.6206 55.0856 74.6206 55.122 74.839 55.3403L75.0028 55.4495C74.6115 55.6042 74.1566 55.8407 73.7563 56.05C73.6744 56.05 73.4288 56.2047 73.629 56.1501C73.8291 56.0955 73.3742 56.514 73.3287 56.5504C73.2286 56.6323 73.2832 56.5868 73.3287 56.5504C73.4288 56.4685 73.265 56.8597 73.265 56.887C73.1922 57.0599 73.2104 57.16 73.265 56.9962C73.1786 57.5196 72.9415 58.0065 72.5827 58.3973L72.4735 58.5338C72.4735 58.5338 72.4735 58.5338 72.5281 58.4883C72.5827 58.4428 72.3552 59.1069 72.2733 59.2343C71.782 60.317 70.572 60.7719 69.5439 61.245C69.4256 61.3087 69.2437 61.3906 69.3256 61.3633C69.4074 61.336 69.3802 61.3633 69.5712 61.154C69.6371 61.0769 69.6922 60.9912 69.735 60.8993C69.4727 61.3993 69.1317 61.854 68.7251 62.2458C68.4903 62.6128 68.2256 62.9597 67.9336 63.283C67.9772 63.2336 68.0139 63.1785 68.0427 63.1192C68.1337 62.9372 68.0973 62.9918 68.0427 63.2739C67.9579 63.4845 67.8413 63.6809 67.697 63.8561L67.6424 63.9198C67.8518 63.5731 68.1881 63.3217 68.5799 63.219C68.9717 63.1163 69.3881 63.1705 69.7406 63.37C70.0931 63.5695 70.3539 63.8986 70.4675 64.2874C70.5812 64.6761 70.5388 65.0939 70.3492 65.4519C70.1597 65.8098 69.8381 66.0798 69.4527 66.2043C69.0673 66.3289 68.6485 66.2982 68.2853 66.1188C67.9222 65.9395 67.6433 65.6255 67.5079 65.2438C67.3726 64.862 67.3915 64.4425 67.5605 64.0745C67.3058 64.5203 66.8964 64.9115 66.6507 65.3664L66.4779 65.6666C66.4779 65.5848 66.4779 65.603 66.4779 65.6666C66.4202 65.8324 66.3503 65.9936 66.2686 66.1489C66.1525 66.3711 65.9839 66.5617 65.7773 66.7038C65.7136 66.7038 65.7773 66.7766 65.8865 66.3308C65.919 66.1932 65.919 66.0499 65.8865 65.9123C65.8583 65.7196 65.769 65.541 65.6317 65.4028C65.5226 65.3027 65.6317 65.4028 65.5499 65.4028C65.3952 65.349 65.2305 65.3303 65.0677 65.3482C64.9221 65.3482 64.9858 65.4028 65.1495 65.3482C65.3767 65.2668 65.6188 65.2358 65.8592 65.2572C66 65.2684 66.1399 65.2897 66.2777 65.3209C66.5052 65.3846 66.9237 65.2663 67.2512 65.3209C67.4559 65.3381 67.6523 65.4095 67.8202 65.5279C67.9882 65.6462 68.1215 65.8072 68.2065 65.9942C68.3248 66.3581 68.2975 66.4309 68.2065 66.3217C68.2874 66.4842 68.3295 66.6633 68.3295 66.8449C68.3295 67.0264 68.2874 67.2055 68.2065 67.368C68.1337 67.4863 68.1519 67.368 68.1064 67.368C68.0609 67.368 68.0518 67.368 68.1064 67.4954C68.3066 67.8775 68.4703 68.4052 68.9161 68.4052C69.0253 68.4052 69.1163 68.4871 69.0253 68.5598C68.4157 68.8419 67.9518 68.2141 67.6242 67.832C67.5188 67.7249 67.4491 67.5879 67.4247 67.4397C67.4002 67.2914 67.4223 67.1393 67.4878 67.0041C67.5878 66.8585 67.3968 66.6492 67.324 66.3581C67.324 66.2216 66.9601 66.2944 66.7326 66.3581C66.4705 66.4204 66.2013 66.4479 65.932 66.44C65.6863 66.44 65.5135 66.5765 65.1768 66.631C65.0127 66.6267 64.8552 66.5656 64.731 66.4582C64.5946 66.3672 64.4308 66.2125 64.4854 66.0124C64.5764 65.6576 64.9221 65.5393 64.9312 65.3664C65.0124 65.1092 65.1159 64.8596 65.2405 64.6204C65.659 63.7106 66.2322 63.1101 66.5779 62.2276C66.9451 61.6698 67.3462 61.135 67.7789 60.6263C67.9637 60.4487 68.1147 60.2391 68.2247 60.0077C68.9097 59.5919 69.6243 59.227 70.3627 58.9159C70.8449 58.6338 70.9268 58.188 71.1543 57.6876C71.3817 57.1872 71.7002 57.1782 71.782 56.7778C72.0074 56.2061 72.3921 55.7111 72.8904 55.3515C73.3887 54.9918 73.9797 54.7827 74.5933 54.749C74.8464 54.6817 75.1143 54.6976 75.3576 54.7945C75.5123 54.94 75.3576 55.1948 75.4577 55.313C75.6578 55.5223 75.6578 56.1774 76.0308 56.1046C76.2298 56.053 76.4349 56.0285 76.6404 56.0318C76.7314 56.0318 76.9134 56.0864 76.8224 56.2229C76.7314 56.3593 76.4948 56.2229 76.6859 56.0864L76.6677 56.0591Z" fill="white"/>
<path d="M31.761 76.2554C31.761 76.2554 31.761 76.2554 31.6609 76.2554C31.5608 76.2554 31.6609 76.2554 31.6063 76.2554C31.5517 76.2554 31.6063 76.0825 31.6063 76.0916C31.7205 76.0024 31.8423 75.9232 31.9702 75.8551C32.3799 75.6002 32.8124 75.3839 33.2621 75.2091C33.8833 75.0399 34.5157 74.9153 35.1545 74.8361C35.4002 74.8361 35.8369 74.6996 35.5367 74.7269C35.9097 74.1446 36.9378 74.0446 37.4746 74.0264C37.9155 74.046 38.3469 74.1608 38.7392 74.363C38.8029 74.363 38.7392 74.3175 38.63 74.2993H38.721C38.9695 74.3139 39.2186 74.3139 39.467 74.2993C39.5125 74.2447 39.5853 74.2993 39.467 74.2993C39.6322 74.0072 39.86 73.7553 40.134 73.5617C40.408 73.368 40.7214 73.2373 41.0519 73.1791C41.3823 73.1208 41.7216 73.1364 42.0453 73.2247C42.369 73.313 42.6692 73.4718 42.9243 73.6897C43.1427 73.7807 43.7613 74.1628 43.7704 74.1264C44.1236 74.2143 44.4655 74.3426 44.7894 74.5086H44.7166C45.1825 74.6339 45.6568 74.7251 46.1359 74.7815H46.8547C46.8547 74.7815 47.4733 74.4904 47.5461 74.4813C48.0161 74.1309 48.556 73.8857 49.1292 73.7625C50.0137 73.6596 50.9082 73.8379 51.6857 74.272L51.7858 74.3266C51.7858 74.3266 51.895 74.3903 51.9496 74.3994H51.9951H51.9041C51.8495 74.4449 51.8586 74.3994 51.9041 74.3994C52.249 74.2118 52.6251 74.0885 53.0141 74.0355C53.1323 74.0355 53.2415 74.0355 53.4872 74.0355C54.1669 74.0011 54.8482 74.05 55.516 74.181C56.0312 74.1948 56.5409 74.29 57.0263 74.4631C57.0263 74.5904 57.5995 74.4631 57.836 74.5723C58.4729 74.5723 58.573 75.4002 59.0097 75.5912C59.0269 75.5998 59.0405 75.6142 59.0482 75.6318C59.0559 75.6494 59.0571 75.6692 59.0517 75.6876C59.0463 75.7061 59.0345 75.722 59.0185 75.7327C59.0025 75.7433 58.9833 75.748 58.9642 75.7459C58.5821 75.7459 58.391 75.4184 58.1636 75.2455C57.836 74.8998 57.3356 75.2455 56.908 75.1909C56.1651 75.0953 55.4129 75.0953 54.6699 75.1909C54.0828 75.1663 53.4963 75.2527 52.9413 75.4457C52.6756 75.6455 52.3616 75.7711 52.0315 75.8096C50.8942 75.8551 49.6933 74.7178 48.6834 75.7368C48.1717 76.116 47.5806 76.3741 46.9547 76.4919C46.3465 76.5414 45.7343 76.5078 45.1351 76.3919C44.8531 76.2918 44.562 76.2463 44.2253 76.1644C43.5095 75.8982 42.8159 75.5758 42.151 75.2C41.7961 75.0272 41.5232 74.545 41.1229 74.8907C40.7226 75.2364 40.2131 75.8733 39.5216 75.8005C39.2032 75.8005 38.912 75.7459 38.6118 75.7459C38.2866 75.6943 37.9763 75.5733 37.702 75.3911C37.4209 75.3328 37.1334 75.3114 36.8468 75.3274C36.3737 75.3274 36.1007 75.8642 35.6185 75.8005C34.5694 75.7094 33.5124 75.7893 32.4888 76.037L32.0521 76.1462L31.8428 76.2099H31.7428C31.7428 76.2099 31.7883 76.1189 31.7428 76.1007C31.761 76.1067 31.7768 76.1183 31.7881 76.1338C31.7993 76.1493 31.8053 76.168 31.8053 76.1872C31.8053 76.2063 31.7993 76.225 31.7881 76.2405C31.7768 76.256 31.761 76.2676 31.7428 76.2736L31.761 76.2554Z" fill="white"/>
</g>
<defs>
<linearGradient id="paint0_linear_2545_16001" x1="42.5605" y1="41.2572" x2="120.065" y2="41.4357" gradientUnits="userSpaceOnUse">
<stop stop-color="#3CA0D2"/>
<stop offset="1" stop-color="#48DCA6"/>
</linearGradient>
<clipPath id="clip0_2545_16001">
<rect width="71.8475" height="71.7656" fill="white" transform="translate(8.89648 10.3867)"/>
</clipPath>
</defs>
</svg>
