<svg width="60" height="60" viewBox="0 0 60 60" fill="none" xmlns="http://www.w3.org/2000/svg">
<g clip-path="url(#clip0_1678_8706)">
<rect x="0.814229" y="0.814229" width="57.8103" height="57.8103" rx="13.5952" fill="url(#paint0_linear_1678_8706)" stroke="url(#paint1_linear_1678_8706)" stroke-width="1.62846"/>
<path d="M32.5 17.5H22.5C21.837 17.5 21.2011 17.7634 20.7322 18.2322C20.2634 18.7011 20 19.337 20 20V40C20 40.663 20.2634 41.2989 20.7322 41.7678C21.2011 42.2366 21.837 42.5 22.5 42.5H37.5C38.163 42.5 38.7989 42.2366 39.2678 41.7678C39.7366 41.2989 40 40.663 40 40V25L32.5 17.5Z" stroke="white" stroke-width="2" stroke-linecap="round" stroke-linejoin="round"/>
<path d="M32.5 17.5V25H40" stroke="white" stroke-width="2" stroke-linecap="round" stroke-linejoin="round"/>
<path d="M35 31.25H25" stroke="white" stroke-width="2" stroke-linecap="round" stroke-linejoin="round"/>
<path d="M35 36.25H25" stroke="white" stroke-width="2" stroke-linecap="round" stroke-linejoin="round"/>
<path d="M27.5 26.25H26.25H25" stroke="white" stroke-width="2" stroke-linecap="round" stroke-linejoin="round"/>
</g>
<defs>
<linearGradient id="paint0_linear_1678_8706" x1="5.5" y1="65" x2="33.6781" y2="-7.50881" gradientUnits="userSpaceOnUse">
<stop stop-color="#3CA0D2"/>
<stop offset="1" stop-color="#48DCA6"/>
</linearGradient>
<linearGradient id="paint1_linear_1678_8706" x1="7.69529e-07" y1="5.29249" x2="29.7194" y2="59.4387" gradientUnits="userSpaceOnUse">
<stop stop-color="#8DCBE8"/>
<stop offset="1" stop-color="#96EECF"/>
</linearGradient>
<clipPath id="clip0_1678_8706">
<rect width="59.4387" height="59.4387" fill="white"/>
</clipPath>
</defs>
</svg>
