<svg width="60" height="60" viewBox="0 0 60 60" fill="none" xmlns="http://www.w3.org/2000/svg">
<g clip-path="url(#clip0_1678_8641)">
<rect x="0.814229" y="0.814229" width="57.8103" height="57.8103" rx="13.5952" fill="url(#paint0_linear_1678_8641)" stroke="url(#paint1_linear_1678_8641)" stroke-width="1.62846"/>
<path d="M23.75 28.75L28.75 17.5C29.7446 17.5 30.6984 17.8951 31.4017 18.5983C32.1049 19.3016 32.5 20.2554 32.5 21.25V26.25H39.575C39.9374 26.2459 40.2963 26.3206 40.627 26.469C40.9576 26.6174 41.252 26.8359 41.4898 27.1094C41.7276 27.3829 41.9031 27.7048 42.0042 28.0528C42.1052 28.4009 42.1294 28.7667 42.075 29.125L40.35 40.375C40.2596 40.9711 39.9568 41.5145 39.4974 41.905C39.038 42.2955 38.4529 42.5068 37.85 42.5H23.75M23.75 28.75V42.5M23.75 28.75H20C19.337 28.75 18.7011 29.0134 18.2322 29.4822C17.7634 29.9511 17.5 30.587 17.5 31.25V40C17.5 40.663 17.7634 41.2989 18.2322 41.7678C18.7011 42.2366 19.337 42.5 20 42.5H23.75" stroke="white" stroke-width="2" stroke-linecap="round" stroke-linejoin="round"/>
</g>
<defs>
<linearGradient id="paint0_linear_1678_8641" x1="5.5" y1="65" x2="33.6781" y2="-7.50881" gradientUnits="userSpaceOnUse">
<stop stop-color="#3CA0D2"/>
<stop offset="1" stop-color="#48DCA6"/>
</linearGradient>
<linearGradient id="paint1_linear_1678_8641" x1="7.69529e-07" y1="5.29249" x2="29.7194" y2="59.4387" gradientUnits="userSpaceOnUse">
<stop stop-color="#8DCBE8"/>
<stop offset="1" stop-color="#96EECF"/>
</linearGradient>
<clipPath id="clip0_1678_8641">
<rect width="59.4387" height="59.4387" fill="white"/>
</clipPath>
</defs>
</svg>
