<svg width="60" height="60" viewBox="0 0 60 60" fill="none" xmlns="http://www.w3.org/2000/svg">
<g clip-path="url(#clip0_1710_11513)">
<rect x="0.814229" y="0.814229" width="57.8103" height="57.8103" rx="13.5952" fill="url(#paint0_linear_1710_11513)" stroke="url(#paint1_linear_1710_11513)" stroke-width="1.62846"/>
<path d="M41.25 27.5C41.25 36.25 30 43.75 30 43.75C30 43.75 18.75 36.25 18.75 27.5C18.75 24.5163 19.9353 21.6548 22.045 19.545C24.1548 17.4353 27.0163 16.25 30 16.25C32.9837 16.25 35.8452 17.4353 37.955 19.545C40.0647 21.6548 41.25 24.5163 41.25 27.5Z" stroke="white" stroke-width="2" stroke-linecap="round" stroke-linejoin="round"/>
<path d="M30 31.25C32.0711 31.25 33.75 29.5711 33.75 27.5C33.75 25.4289 32.0711 23.75 30 23.75C27.9289 23.75 26.25 25.4289 26.25 27.5C26.25 29.5711 27.9289 31.25 30 31.25Z" stroke="white" stroke-width="2" stroke-linecap="round" stroke-linejoin="round"/>
</g>
<defs>
<linearGradient id="paint0_linear_1710_11513" x1="5.5" y1="65" x2="33.6781" y2="-7.50881" gradientUnits="userSpaceOnUse">
<stop stop-color="#3CA0D2"/>
<stop offset="1" stop-color="#48DCA6"/>
</linearGradient>
<linearGradient id="paint1_linear_1710_11513" x1="7.69529e-07" y1="5.29249" x2="29.7194" y2="59.4387" gradientUnits="userSpaceOnUse">
<stop stop-color="#8DCBE8"/>
<stop offset="1" stop-color="#96EECF"/>
</linearGradient>
<clipPath id="clip0_1710_11513">
<rect width="59.4387" height="59.4387" fill="white"/>
</clipPath>
</defs>
</svg>
