<svg width="60" height="60" viewBox="0 0 60 60" fill="none" xmlns="http://www.w3.org/2000/svg">
<g clip-path="url(#clip0_1608_12250)">
<rect x="1.31423" y="0.814229" width="57.8103" height="57.8103" rx="13.5952" fill="url(#paint0_linear_1608_12250)" stroke="url(#paint1_linear_1608_12250)" stroke-width="1.62846"/>
<path d="M25.561 33.4L24.311 32.15L20.436 33.3875H20.311C20.25 33.3913 20.189 33.3821 20.1319 33.3606C20.0748 33.339 20.0229 33.3056 19.9797 33.2625L19.0735 32.3688C19.0003 32.2991 18.9534 32.2063 18.9409 32.106C18.9283 32.0058 18.9509 31.9043 19.0047 31.8188L20.061 30C20.7152 28.8804 21.6279 27.9336 22.7228 27.2388C23.8178 26.544 25.0631 26.1214 26.3547 26.0063L27.911 25.8688M27.911 25.8688C28.8151 24.7938 29.6485 23.8729 30.411 23.1063C31.8577 21.5738 33.5847 20.3327 35.4985 19.45C37.4491 18.7209 39.5232 18.3791 41.6047 18.4438C41.7306 18.4449 41.8514 18.4941 41.9422 18.5813C41.9855 18.621 42.0201 18.6693 42.0437 18.7231C42.0674 18.7769 42.0796 18.835 42.0797 18.8938C42.1224 20.9815 41.7506 23.0569 40.986 25C40.1261 26.9194 38.8988 28.652 37.3735 30.1C36.6047 30.875 35.6797 31.7063 34.611 32.6L34.4735 34.15C34.3613 35.441 33.942 36.6865 33.2505 37.7824C32.559 38.8783 31.6154 39.793 30.4985 40.45L28.6922 41.5063C28.621 41.5438 28.5415 41.5632 28.461 41.5625C28.3414 41.5601 28.2264 41.5158 28.136 41.4375L27.2297 40.525C27.1712 40.4691 27.1296 40.3978 27.1097 40.3193C27.0898 40.2408 27.0924 40.1583 27.1172 40.0813L28.3235 36.1625M27.911 25.8688L24.3422 32.1813M28.3235 36.1625L27.111 34.95M28.3235 36.1625L34.636 32.6M38.886 24.1875C38.8876 23.509 38.6201 22.8575 38.1421 22.3759C37.664 21.8944 37.0145 21.6221 36.336 21.6188C35.9884 21.6016 35.641 21.6552 35.3147 21.7764C34.9885 21.8976 34.6903 22.0838 34.4383 22.3238C34.1862 22.5637 33.9855 22.8523 33.8484 23.1722C33.7113 23.492 33.6405 23.8364 33.6405 24.1844C33.6405 24.5324 33.7113 24.8768 33.8484 25.1966C33.9855 25.5164 34.1862 25.8051 34.4383 26.045C34.6903 26.2849 34.9885 26.4712 35.3147 26.5923C35.641 26.7135 35.9884 26.7672 36.336 26.75C37.0097 26.751 37.6566 26.486 38.136 26.0125C38.3771 25.7746 38.5674 25.4901 38.6953 25.1764C38.8231 24.8627 38.8859 24.5262 38.8797 24.1875H38.886Z" stroke="white" stroke-width="1.5" stroke-linecap="round" stroke-linejoin="round"/>
<path d="M23.625 36.875C26.125 36.4125 30.5625 32.25 31.0813 29.4187C28.2313 29.9625 24.0688 34.375 23.625 36.875Z" stroke="white" stroke-width="1.5" stroke-linecap="round" stroke-linejoin="round"/>
</g>
<defs>
<linearGradient id="paint0_linear_1608_12250" x1="6" y1="65" x2="34.1781" y2="-7.50881" gradientUnits="userSpaceOnUse">
<stop stop-color="#3CA0D2"/>
<stop offset="1" stop-color="#48DCA6"/>
</linearGradient>
<linearGradient id="paint1_linear_1608_12250" x1="0.500001" y1="5.29249" x2="30.2194" y2="59.4387" gradientUnits="userSpaceOnUse">
<stop stop-color="#8DCBE8"/>
<stop offset="1" stop-color="#96EECF"/>
</linearGradient>
<clipPath id="clip0_1608_12250">
<rect width="59.4387" height="59.4387" fill="white" transform="translate(0.5)"/>
</clipPath>
</defs>
</svg>
