<svg width="21" height="24" viewBox="0 0 21 24" fill="none" xmlns="http://www.w3.org/2000/svg">
<path d="M1.88086 22.4756C3.7013 21.2294 6.02479 21.004 8.13376 20.6612C9.20386 20.4817 10.2863 20.3835 11.3478 20.2584C12.419 20.154 13.4819 19.9773 14.5293 19.7296C13.6076 20.3391 12.5251 20.6758 11.4676 20.9302C10.4101 21.1846 9.33155 21.3551 8.26614 21.5261C6.10715 21.8604 3.98852 21.8702 1.88086 22.4756Z" fill="white"/>
<path d="M15.6481 15.6875C12.8381 13.4858 10.4509 10.7985 7.89557 8.337C5.3247 5.82239 2.43355 3.26977 0.822602 0.000420936L0.982352 0.179159C1.04303 0.269761 1.09306 0.367052 1.13146 0.469109C1.05996 0.389895 1.01573 0.283235 0.93688 0.225633L0.986482 0.185876C2.09357 1.57162 3.30572 2.87006 4.61218 4.06968C5.90444 5.29003 7.23093 6.47225 8.51146 7.71406C11.0604 10.2301 13.3053 12.98 15.6481 15.6875Z" fill="white"/>
<path d="M19.5674 13.2377C18.7169 11.3683 18.571 9.26217 18.4086 7.24736C18.2462 5.23254 18.1466 3.11718 18.7463 1.14784C18.8335 2.88417 19.0209 4.69639 19.2094 6.41675C19.4407 8.70106 19.3669 10.9501 19.5652 13.2376L19.5674 13.2377Z" fill="white"/>
</svg>
