<svg width="250" height="78" viewBox="0 0 250 78" fill="none" xmlns="http://www.w3.org/2000/svg">
<path d="M27.5917 14.4263C39.8588 14.4263 52.366 10.7168 64.0608 8.34616C69.8254 7.17762 75.479 6.66363 81.3938 6.0661C85.3752 5.66388 90.8718 4.9472 94.7931 5.55942C105.731 7.2671 117.196 3.92243 128.066 5.19348C134.543 5.95076 141.835 5.30608 148.39 5.30608C155.139 5.30608 161.388 6.28524 168.059 6.71352C179.268 7.43314 190.857 7.18877 201.947 8.5995C209.638 9.57797 217.929 10.8524 223.5 14.6797C226.83 16.9668 231.637 17.5746 234.851 20.0279C238.443 22.7698 241.078 26.058 244.726 28.7822C249.479 32.331 247.891 37.48 248.197 42.2087C249.591 45.4934 248.961 47.3805 247.891 50.4C246.684 53.8095 246.505 55.1067 243.702 57.8882C241.089 60.4807 239.42 63.2316 235.425 65.0943C231.415 66.9632 226.304 68.4482 221.574 69.2603C205.052 72.0979 187.61 72.0402 170.723 72.7226C152.179 73.472 133.943 75.7346 115.322 75.7346C108.998 75.7346 102.674 75.7346 96.3502 75.7346C92.3272 75.7346 88.4075 76.2413 84.3851 76.2413C80.651 76.2413 77.0555 75.7346 73.3214 75.7346C59.8691 75.7346 46.6211 74.2145 33.2055 74.2145C21.5798 74.2145 6.50454 69.0583 4.56297 60.7594C3.38256 55.7139 3.25171 50.0593 3.25171 44.9397C3.25171 40.6567 4.63357 36.0078 6.93958 32.0475C12.5758 22.368 23.5882 13.2039 38.2047 9.64101C56.4601 5.1911 77.2441 5.54413 96.1863 7.61429C103.256 8.38693 109.548 10.3729 116.675 10.3729C127.92 10.3729 138.682 9.04337 150.029 9.97879C158.931 10.7125 168.421 10.6929 177.156 11.8929C187.69 13.3403 199.131 13.0989 209.036 16.453M244.439 57.4941C239.44 63.9807 230.389 71.1773 220.099 73.4264C209.994 75.6351 198.128 75.0201 187.728 75.7346C177.488 76.438 166.614 77.7114 156.34 76.4946C149.926 75.735 143.255 76.0022 136.753 75.3405C129.705 74.6232 121.923 74.2145 114.79 74.2145C102.813 74.2145 90.6986 73.7079 78.6484 73.7079C68.3864 73.7079 58.2026 74.2145 47.875 74.2145C38.0694 74.2145 28.4481 72.483 18.7818 71.653C12.8841 71.1466 6.93696 67.9041 4.89076 63.9683C3.19722 60.7109 3.75251 57.8038 3.21071 54.454C2.48545 49.9701 0.589552 45.1807 1.07994 40.6329C2.05328 31.6064 8.47403 23.8041 18.7408 18.0857C30.5829 11.4898 45.2172 4.03173 60.6187 2.37859C84.547 -0.189773 110.677 1.09879 134.458 4.03938C146.492 5.5274 158.558 7.81178 170.682 8.85284C179.633 9.62145 188.658 10.4759 197.603 11.3862C204.102 12.0476 213.498 12.7832 219.198 15.0456" stroke="url(#paint0_linear_2545_15996)" stroke-width="1.1223" stroke-linecap="round"/>
<defs>
<linearGradient id="paint0_linear_2545_15996" x1="223.518" y1="11.032" x2="168.861" y2="103.528" gradientUnits="userSpaceOnUse">
<stop stop-color="#3CA0D2"/>
<stop offset="1" stop-color="#48DCA6"/>
</linearGradient>
</defs>
</svg>
