<svg width="119" height="102" viewBox="0 0 119 102" fill="none" xmlns="http://www.w3.org/2000/svg">
<path d="M103.677 25.0836C97.2051 17.3963 89.6326 10.1301 88.2193 4.01087M108.466 31.6599C99.4204 20.7715 89.8457 11.1168 82.0838 3.19737M108.789 32.5926C98.1438 23.7009 90.8214 13.2828 81.4254 2.44679M108.576 38.4316C99.5878 25.8436 90.8451 14.471 78.9083 2.06323M113.246 41.8255C97.8889 27.3427 85.352 11.4375 76.1587 1.9615M112.091 45.3602C100.262 30.6926 88.2996 16.8724 75.2312 3.33166M113.055 48.5214C104.787 38.1475 97.3139 27.8032 74.4025 3.1088M116.303 51.2262C103.674 38.6969 93.4698 25.194 71.539 4.13105M115.205 55.8885C102.497 41.3231 92.4044 28.1633 80.9764 16.5009M115.686 57.3605C107.022 47.9513 97.7164 37.8967 88.6177 28.5543M116.186 61.5404C109.247 53.1185 106.101 47.8203 90.0718 30.9094M115.045 62.3714C110.039 52.9872 101.625 45.3741 93.4009 36.2497M117.207 65.8319C109.852 56.0536 101.896 47.9387 93.0267 39.489M117.971 68.2928C111.812 59.9014 106.414 56.378 92.9104 40.2724M117.423 69.8892C112.789 63.2821 104.977 58.2928 94.9628 42.4286M118 71.3371C111.081 65.6558 107.568 62.0792 93.8335 45.5576M117.226 73.6831C112.522 67.1758 106.718 62.4353 95.8584 47.8368M115.628 74.8882C111.964 69.5686 106.57 62.9414 96.4741 53.001M115.377 78.6186C108.264 68.8166 101.17 58.0821 94.4975 52.4512M115.608 79.7943C108.165 69.7866 98.5127 61.1401 89.5331 50.9411M117.203 82.9726C107.202 69.4727 95.2737 58.9702 87.4372 50.2892M114.472 82.3137C105.746 72.1438 97.615 63.1234 87.1241 49.2346M114.308 85.3119C104.442 71.4865 91.5493 59.8362 84.1976 50.3214M112.631 85.2919C103.474 72.1743 92.439 60.5027 84.8517 51.19M113.447 87.1231C105.382 76.6149 95.6114 65.5923 80.9575 51.1538M112.56 89.179C102.351 75.2519 89.9522 63.3319 81.7052 52.1488M110.638 89.1237C103.619 82.6011 98.5013 73.2876 79.5497 53.9594M111.26 90.6928C98.3788 75.2156 86.7861 62.0853 76.1366 53.4149M110.411 92.2402C102.679 85.4889 95.309 76.2063 76.573 53.6159M108.303 92.6756C101.397 84.6448 91.6644 77.1666 74.653 56.2731M106.934 94.7528C98.3086 86.7582 89.4139 75.2839 73.9586 56.7404M106.887 95.9272C97.298 82.9449 84.8922 71.2504 73.1289 56.9876M106.302 96.5251C94.9853 84.6705 83.2088 71.7186 73.2493 56.2537M103.717 96.0528C93.5957 86.4105 86.7293 75.7369 71.1736 58.2642M101.159 96.1295C94.7819 87.0311 87.0728 79.1888 71.1451 58.8542M102.582 97.5586C94.288 89.7505 83.73 78.6106 68.8553 60.6367M98.9149 99.4763C91.2677 90.9454 86.576 80.9185 67.2624 63.3949M97.7965 99.6589C88.4394 87.7824 79.1822 77.6751 68.5836 62.8185M94.9265 97.9848C84.5356 88.4763 77.5951 77.1539 66.5068 64.9727M94.3417 100.217C84.7347 87.4563 73.494 74.0876 66.7862 67.7079M91.7579 99.958C87.6341 92.3792 82.751 85.1681 67.0539 67.0961M90.6552 99.5708C82.7817 87.5728 74.0755 78.0573 64.6526 71.0174M89.7743 98.725C83.05 92.7482 77.8254 84.5331 65.8746 71.1059M86.7556 101.503C80.718 92.1844 73.0987 85.5885 65.2325 74.9774M85.6508 100.299C77.5576 91.0265 70.5245 81.947 66.6865 77.1385M84.2276 98.9695C76.5793 91.5312 72.7593 84.7726 67.5469 80.6338M80.5138 97.738C74.6186 91.3167 68.7997 85.7351 67.3956 82.6932M72.3416 91.7999C71.4853 91.0387 71.2495 88.8054 70.531 87.1172M108.631 30.3703C103.344 24.3917 95.9146 19.1965 88.0826 3.3503M107.84 34.2734C98.8633 23.2504 89.6306 11.5409 82.306 3.46296M108.981 37.2939C101.706 29.1526 95.0895 19.8092 82.0096 2.66486M113.294 41.9383C101.964 29.6863 93.0825 18.1545 79.3695 1.28865M113.426 47.1638C103.275 31.3918 89.4401 19.5687 76.3718 2.62491M115.141 47.9194C104.237 37.2645 94.0636 26.5339 76.2944 2.16306M115.174 52.2504C97.8646 34.4739 83.9222 16.9437 75.4054 3.59412M116.579 54.1318C106.129 43.6564 96.3865 32.4871 73.1838 2.31999M115.99 56.9512C108.865 47.3755 100.348 38.2383 80.4404 15.7876M116.977 60.2968C111.122 52.5981 104.551 46.3921 88.7014 26.9132M115.647 61.7222C107.63 51.8366 101.218 44.4722 91.2044 32.7972M117.742 64.0009C111.966 57.9246 104.873 50.3991 93.7029 36.1339M116.714 68.3109C109.033 57.5842 100.908 47.6423 93.0568 40.2489M115.682 69.4717C111.205 62.0088 106.289 58.189 92.867 40.5862M116.082 71.383C112.597 64.7764 106.119 58.6669 92.6506 43.5397M115.975 73.9308C110.396 67.6236 105.068 61.1412 93.3556 45.6988M115.72 77.1316C107.516 64.2215 99.6647 53.5682 95.5315 47.8262M115.426 77.1536C109.184 69.7641 102.519 63.462 94.4659 52.8777M116.234 80.348C106.757 69.8615 100.952 62.8817 93.7066 50.2276M114.433 80.754C107.95 70.9031 99.9415 62.8144 91.3374 50.283M115.861 81.9664C106.607 72.7345 95.9457 61.4137 87.2725 51.0076M114.344 83.5249C102.742 69.7197 91.2543 58.7271 86.684 51.0953M113.177 85.2377C102.627 74.4828 93.5332 59.5221 85.6918 50.9843M112.999 86.6543C105.53 78.2133 97.0401 65.3311 84.0855 52.4809M112.008 88.6872C101.744 76.8687 93.9945 66.3632 82.7442 51.1473M112.255 89.7631C99.841 77.5748 87.932 61.4367 81.5117 51.829M110.619 92.7405C100.875 79.0665 93.0511 66.5348 77.6555 52.5666M108.872 91.2058C97.6044 79.351 87.0254 64.2032 76.2559 51.8991M110.004 92.1886C100.641 84.6472 93.8514 74.6196 77.4787 54.4846M107.045 95.3762C99.7706 82.1904 91.7218 72.7591 75.7238 55.9294M107.856 95.2517C93.2737 81.896 80.3854 65.0947 72.9727 55.5079M106.402 96.2833C99.1257 88.3444 92.8207 78.9845 71.8936 56.809M103.061 96.8141C94.3644 85.7069 84.5436 74.7733 73.2547 57.5366M101.075 95.9179C90.7332 80.1098 76.7637 67.1972 70.4618 57.5463M100.352 97.8391C92.1567 89.1104 84.7614 78.8347 70.2712 58.5609M100.639 98.9207C90.5918 88.1366 79.1351 73.3516 69.2216 62.4916M98.272 98.5812C89.4434 87.2014 78.5552 75.4395 69.2494 61.6961M97.126 100.089C89.9855 91.7812 84.2483 83.4371 68.5931 64.2371M94.5026 100.054C87.8787 92.9243 82.909 85.4592 66.9747 66.1146M94.0209 98.2953C82.8706 88.6471 76.2069 77.8459 65.0174 66.1279M91.154 99.5172C82.0476 90.8932 75.537 83.1601 65.3988 67.9262M90.3626 99.1734C84.2198 92.5623 76.6073 84.457 64.4131 68.7213M87.497 99.9229C80.0886 90.3129 71.3819 78.5933 64.2222 72.8893M84.4455 98.4596C79.2639 93.7106 75.4989 86.9365 65.9936 73.227M83.9285 97.3933C76.1647 92.6506 70.6599 83.2653 67.3013 75.5923M78.8468 97.6746C75.167 90.7139 68.5957 84.8776 67.868 80.2625M40.7713 23.2125C33.8574 16.7293 28.8395 9.84683 24.1024 4.72163M43.6088 31.0148C39.267 23.6883 31.1186 17.4602 18.6787 1.39682M44.6406 32.2788C36.4913 25.0655 28.2871 16.1725 18.1003 1.75219M45.5948 36.353C37.7713 29.2583 31.0059 21.0335 14.7907 2.08599M49.2321 41.6967C39.3168 31.449 29.5946 19.9922 15.0747 1M49.0809 45.7317C38.0872 32.5131 23.9786 16.499 12.0887 2.34043M49.8684 49.7899C38.798 37.1246 27.9047 23.4247 10.1386 2.64136M52.6711 52.5673C33.426 32.5461 16.8631 14.5168 8.49127 3.71598M52.2361 54.8855C37.5587 38.7165 23.9266 24.251 17.0203 14.3604M52.6879 56.9993C45.803 47.6714 37.672 39.4905 26.0455 28.8893M51.8478 60.416C44.6326 48.012 33.5746 38.9555 27.0585 32.4919M53.6525 62.5615C47.8352 56.9137 39.4634 48.2548 30.4069 34.7059M52.5413 64.1225C45.3244 55.6674 34.506 45.8199 31.0103 39.9847M51.9636 66.7289C43.491 56.794 35.0488 45.9434 31.5286 40.9446M52.1713 69.1096C47.3774 62.1486 43.1824 55.494 30.4071 44.3948M53.4972 73.0074C44.3883 63.2488 36.2174 54.4752 30.4641 45.5803M54.0043 72.5705C45.1949 65.4736 40.9424 57.9882 32.4045 49.49M53.8709 76.4418C46.0674 69.1413 38.2531 60.334 32.1296 53.4471M53.1266 78.6576C49.5641 71.8427 43.2746 67.5725 30.9861 51.5262M53.1555 80.3313C44.577 70.8019 35.3448 59.6062 26.5156 49.6303M53.6337 81.6487C46.2994 72.3008 37.6762 63.714 24.7104 49.2019M53.0565 82.8284C44.6938 74.961 38.5592 68.5111 22.8356 51.9256M51.0664 84.8536C42.0294 75.3181 33.3093 64.1434 22.0836 51.3002M51.1847 84.9418C43.5724 77.9658 39.7383 72.1337 19.6242 52.3079M49.019 88.789C40.0232 76.4376 32.5274 64.8564 18.5697 51.5499M50.2629 88.7313C39.1443 78.2648 25.5037 65.2341 17.8314 52.4535M48.3626 91.2841C42.2608 83.252 32.6878 74.8283 15.9675 52.858M48.1326 90.8653C35.7505 78.9164 26.2101 65.1643 13.7859 54M47.8664 91.7139C41.5541 86.714 33.1972 77.826 12.2671 52.8907M46.0773 94.0132C36.8754 83.2139 26.7186 71.907 12.59 53.6801M45.5063 94.0008C33.8962 82.8004 21.1271 69.3812 9.61559 54.6013M43.7688 95.4892C36.4603 88.4612 28.7931 77.7774 8.68169 57.7073M42.1565 96.1946C27.2408 79.9235 14.9819 67.0241 9.08959 57.3484M41.633 97.3352C30.2892 85.0653 20.9733 73.3405 7.76428 59.1778M38.6639 96.2073C29.4355 85.1668 18.9714 73.8504 7.19919 59.1288M36.8461 97.4317C30.8169 87.7928 21.4734 81.3062 6.97144 61.5167M35.6581 97.4622C29.0297 90.3896 21.7618 82.0293 5.31026 62.0547M34.1331 99.2677C27.0597 89.8182 17.4007 78.7845 5.48579 64.5351M33.9409 98.7245C22.0911 87.3366 13.6185 78.3568 2.72321 65.4488M31.1162 98.9112C19.9904 85.6684 10.8441 74.2657 4.06774 67.5434M29.9129 99.5323C22.8735 90.641 13.4193 83.0255 3.12422 67.8095M27.5746 97.9363C19.1086 89.6226 10.1707 78.3331 1.69232 69.3353M24.8556 100.199C20.8252 93.8756 12.643 87.1513 1.93994 71.8492M25.1718 99.0174C19.1696 92.9459 11.4353 83.97 2.43632 75.1532M23.2962 98.1138C17.9579 95.0594 14.0898 88.3659 2.72101 78.501M18.4435 99.2612C14.4858 90.9903 6.62781 83.494 1.78632 80.0418M15.6605 95.9988C10.7549 92.2335 6.41159 88.1006 3.22771 83.0222M8.87637 92.4323C8.49697 89.8009 7.87377 89.5657 7.14088 88.3145M44.1466 29.3167C36.2606 20.6764 29.4144 12.3643 24.438 5.56779M44.2515 34.6648C35.9783 24.8533 29.9762 15.4189 19.4489 2.12914M46.407 36.1097C36.0868 26.0652 26.6048 13.0378 16.7606 3.41774M47.8552 42.7949C36.8601 29.8025 25.2834 13.4324 14.9991 1.35234M49.8882 45.1144C38.0391 32.3815 28.5992 16.3954 15.0394 2.46006M51.5087 49.4272C40.0243 32.5517 26.3494 19.0857 13.4258 2.8862M52.8919 53.5593C37.8444 34.1964 22.3359 18.1039 10.5428 3.77495M52.823 53.5885C40.2709 38.2474 24.2848 21.7496 10.6749 3.36029M53.7623 58.1377C43.5979 44.7096 33.6451 33.167 18.0152 16.2192M51.6572 59.6932C43.9484 48.6838 35.4741 38.0418 27.4383 26.6594M53.354 61.5585C45.7908 56.012 41.4508 46.0602 27.7741 31.35M54.0478 66.2788C46.8661 57.4277 41.4082 51.576 28.5705 35.5719M54.0319 68.4236C47.1622 57.8556 38.8744 49.6433 29.6161 37.8563M54.0244 70.965C48.3745 64.3254 42.0424 57.0187 31.2775 41.4297M53.4996 72.4782C48.9853 64.0957 43.5502 58.3464 31.8855 42.8915M52.6965 72.7793C45.4181 63.8377 37.9181 56.2807 30.9086 45.7644M53.1403 75.7157C47.7458 70.7708 43.3251 64.9487 31.5184 49.0134M53.4092 77.6538C47.5666 69.5457 42.2316 64.5682 32.0894 52.4204M52.7671 78.6935C46.4203 74.7018 43.5837 67.1783 29.2529 52.7975M52.2324 81.2385C44.7075 72.8368 37.3368 62.8582 26.7179 51.4663M52.9454 84.613C42.5993 70.0519 32.3776 58.958 24.5604 51.8862M50.312 85.8369C39.9862 73.0888 32.5655 61.2712 24.427 50.7147M49.3585 86.0353C42.5788 77.2396 35.415 68.3969 20.3817 51.7968M48.8981 87.7289C41.8415 76.0866 30.8896 66.0286 20.369 51.5943M48.5104 88.7103C39.1506 76.6637 28.3167 64.3883 18.8941 51.9354M49.5505 90.3134C42.8364 80.6056 33.0968 72.6261 15.7552 52.7304M48.5537 92.7966C37.8274 78.7113 25.8851 65.3678 14.3752 53.6916M45.3445 91.3343C36.5376 79.4995 28.6683 68.0256 12.8052 54.2035M45.5108 94.3888C38.9087 84.6315 33.9065 76.4316 12.7092 55.2374M45.0584 94.7318C35.3746 83.5079 25.2759 70.9904 11.8376 53.8157M42.9563 94.3622C31.3504 81.6396 20.6648 69.7501 11.1809 57.0778M40.8781 95.8309C33.5221 87.0308 24.7172 75.9247 10.5115 55.9015M40.1682 97.7076C31.8157 86.5009 25.516 78.1669 8.41423 58.2267M39.2302 98.3495C31.0618 86.7068 22.7593 77.5878 7.10326 59.1904M37.0491 98.786C28.8774 85.3341 18.2372 73.2127 8.03271 59.1323M36.2342 97.8323C28.229 88.4612 21.4835 80.2215 4.96182 62.4702M33.6459 99.3016C24.1174 86.7672 16.0958 74.0702 4.48638 62.887M33.4846 99.2714C20.737 84.8298 10.0155 69.937 4.67015 62.4774M29.9052 100.091C20.288 84.7759 11.7101 71.7468 3.3223 66.1896M28.7975 98.3676C24.2644 90.4872 16.6627 83.1055 2.70623 67.4495M26.9704 99.3578C18.1419 86.2148 7.84008 76.0904 2.65858 68.1765M26.8323 99.4786C18.0078 87.066 6.20244 77.115 1.64699 70.9542M25.6412 100.227C17.0725 93.9824 12.6793 85.6968 0.999997 71.7326M20.8402 100.597C17.8984 94.3532 10.7097 86.5323 2.3467 73.538M18.1254 98.19C16.9027 94.245 11.3095 90.339 1.24104 76.0163M15.4425 97.6193C12.296 90.2401 6.86834 86.0964 4.15171 79.7893M99.4326 16.7639V16.7639ZM36.1671 16.8864V16.8864Z" stroke="#454545" stroke-width="0.2" stroke-linecap="round"/>
</svg>
