<svg width="99" height="17" viewBox="0 0 99 17" fill="none" xmlns="http://www.w3.org/2000/svg">
<path d="M8.35518 1.88209C8.53368 1.33272 9.31089 1.33272 9.48939 1.88209L10.6627 5.49306C10.7425 5.73875 10.9714 5.90509 11.2298 5.90509L15.0266 5.90509C15.6042 5.90509 15.8444 6.64426 15.3771 6.98379L12.3054 9.21549C12.0964 9.36734 12.0089 9.63648 12.0888 9.88217L13.262 13.4931C13.4406 14.0425 12.8118 14.4993 12.3445 14.1598L9.27278 11.9281C9.06378 11.7763 8.78079 11.7763 8.57179 11.9281L5.50012 14.1598C5.03279 14.4993 4.40402 14.0425 4.58252 13.4931L5.7558 9.88217C5.83562 9.63648 5.74817 9.36734 5.53918 9.21549L2.4675 6.98379C2.00018 6.64426 2.24036 5.90509 2.818 5.90509L6.6148 5.90509C6.87313 5.90509 7.10208 5.73875 7.1819 5.49306L8.35518 1.88209Z" fill="#FFB953"/>
<path d="M28.6286 1.88209C28.8071 1.33272 29.5843 1.33272 29.7628 1.88209L30.9361 5.49306C31.0159 5.73875 31.2449 5.90509 31.5032 5.90509L35.3 5.90509C35.8777 5.90509 36.1178 6.64426 35.6505 6.98379L32.5788 9.21549C32.3698 9.36734 32.2824 9.63648 32.3622 9.88217L33.5355 13.4931C33.714 14.0425 33.0852 14.4993 32.6179 14.1598L29.5462 11.9281C29.3372 11.7763 29.0542 11.7763 28.8452 11.9281L25.7736 14.1598C25.3062 14.4993 24.6775 14.0425 24.856 13.4931L26.0292 9.88217C26.1091 9.63648 26.0216 9.36734 25.8126 9.21549L22.7409 6.98379C22.2736 6.64426 22.5138 5.90509 23.0914 5.90509L26.8882 5.90509C27.1466 5.90509 27.3755 5.73875 27.4553 5.49306L28.6286 1.88209Z" fill="#FFB953"/>
<path d="M48.904 1.88209C49.0825 1.33272 49.8597 1.33272 50.0382 1.88209L51.2115 5.49306C51.2913 5.73875 51.5203 5.90509 51.7786 5.90509L55.5754 5.90509C56.153 5.90509 56.3932 6.64426 55.9259 6.98379L52.8542 9.21549C52.6452 9.36734 52.5578 9.63648 52.6376 9.88217L53.8109 13.4931C53.9894 14.0425 53.3606 14.4993 52.8933 14.1598L49.8216 11.9281C49.6126 11.7763 49.3296 11.7763 49.1206 11.9281L46.0489 14.1598C45.5816 14.4993 44.9528 14.0425 45.1313 13.4931L46.3046 9.88217C46.3845 9.63648 46.297 9.36734 46.088 9.21549L43.0163 6.98379C42.549 6.64426 42.7892 5.90509 43.3668 5.90509L47.1636 5.90509C47.422 5.90509 47.6509 5.73875 47.7307 5.49306L48.904 1.88209Z" fill="#FFB953"/>
<path d="M69.1774 1.88209C69.3559 1.33272 70.1332 1.33272 70.3117 1.88209L71.4849 5.49306C71.5648 5.73875 71.7937 5.90509 72.052 5.90509L75.8488 5.90509C76.4265 5.90509 76.6667 6.64426 76.1993 6.98379L73.1277 9.21549C72.9187 9.36734 72.8312 9.63648 72.911 9.88217L74.0843 13.4931C74.2628 14.0425 73.634 14.4993 73.1667 14.1598L70.095 11.9281C69.886 11.7763 69.6031 11.7763 69.3941 11.9281L66.3224 14.1598C65.8551 14.4993 65.2263 14.0425 65.4048 13.4931L66.5781 9.88217C66.6579 9.63648 66.5704 9.36734 66.3614 9.21549L63.2898 6.98379C62.8224 6.64426 63.0626 5.90509 63.6403 5.90509L67.4371 5.90509C67.6954 5.90509 67.9243 5.73875 68.0042 5.49306L69.1774 1.88209Z" fill="#FFB953"/>
<path d="M89.4509 1.88209C89.6294 1.33272 90.4066 1.33272 90.5851 1.88209L91.7584 5.49306C91.8382 5.73875 92.0671 5.90509 92.3255 5.90509L96.1223 5.90509C96.6999 5.90509 96.9401 6.64426 96.4728 6.98379L93.4011 9.21549C93.1921 9.36734 93.1046 9.63648 93.1845 9.88217L94.3578 13.4931C94.5363 14.0425 93.9075 14.4993 93.4402 14.1598L90.3685 11.9281C90.1595 11.7763 89.8765 11.7763 89.6675 11.9281L86.5958 14.1598C86.1285 14.4993 85.4997 14.0425 85.6782 13.4931L86.8515 9.88217C86.9313 9.63648 86.8439 9.36734 86.6349 9.21549L83.5632 6.98379C83.0959 6.64426 83.3361 5.90509 83.9137 5.90509L87.7105 5.90509C87.9688 5.90509 88.1978 5.73875 88.2776 5.49306L89.4509 1.88209Z" fill="#FFB953"/>
</svg>
