<svg width="119" height="102" viewBox="0 0 119 102" fill="none" xmlns="http://www.w3.org/2000/svg">
<path d="M15.3227 25.0836C21.7949 17.3963 29.3674 10.1301 30.7807 4.01087M10.5338 31.6599C19.5796 20.7715 29.1543 11.1168 36.9162 3.19737M10.2109 32.5926C20.8562 23.7009 28.1786 13.2828 37.5746 2.44679M10.4241 38.4316C19.4122 25.8436 28.1549 14.471 40.0917 2.06323M5.75397 41.8255C21.1111 27.3427 33.648 11.4375 42.8413 1.9615M6.90919 45.3602C18.7384 30.6926 30.7004 16.8724 43.7688 3.33166M5.94493 48.5214C14.2133 38.1475 21.6861 27.8032 44.5975 3.1088M2.69656 51.2262C15.3256 38.6969 25.5302 25.194 47.461 4.13105M3.79498 55.8885C16.5031 41.3231 26.5956 28.1633 38.0236 16.5009M3.31438 57.3605C11.9781 47.9513 21.2836 37.8967 30.3823 28.5543M2.81432 61.5404C9.7528 53.1185 12.8994 47.8203 28.9282 30.9094M3.95476 62.3714C8.96101 52.9872 17.3749 45.3741 25.5991 36.2497M1.79266 65.8319C9.1478 56.0536 17.1041 47.9387 25.9733 39.489M1.02938 68.2928C7.18822 59.9014 12.5859 56.378 26.0896 40.2724M1.57683 69.8892C6.21106 63.2821 14.0228 58.2928 24.0372 42.4286M1 71.3371C7.91925 65.6558 11.432 62.0792 25.1665 45.5576M1.77369 73.6831C6.47752 67.1758 12.282 62.4353 23.1416 47.8368M3.37219 74.8882C7.03602 69.5686 12.4299 62.9414 22.5259 53.001M3.62329 78.6186C10.7358 68.8166 17.83 58.0821 24.5025 52.4512M3.3924 79.7943C10.8349 69.7866 20.4873 61.1401 29.4669 50.9411M1.7967 82.9726C11.798 69.4727 23.7263 58.9702 31.5628 50.2892M4.52758 82.3137C13.2536 72.1438 21.385 63.1234 31.8759 49.2346M4.69243 85.3119C14.5577 71.4865 27.4507 59.8362 34.8024 50.3214M6.36936 85.2919C15.5258 72.1743 26.561 60.5027 34.1483 51.19M5.55315 87.1231C13.6181 76.6149 23.3886 65.5923 38.0425 51.1538M6.43963 89.179C16.6487 75.2519 29.0478 63.3319 37.2948 52.1488M8.36226 89.1237C15.3808 82.6011 20.4987 73.2876 39.4503 53.9594M7.74024 90.6928C20.6212 75.2156 32.2139 62.0853 42.8634 53.4149M8.58949 92.2402C16.3215 85.4889 23.691 76.2063 42.427 53.6159M10.6968 92.6756C17.6025 84.6448 27.3356 77.1666 44.347 56.2731M12.0656 94.7528C20.6914 86.7582 29.5861 75.2839 45.0414 56.7404M12.1126 95.9272C21.702 82.9449 34.1078 71.2504 45.8711 56.9876M12.6985 96.5251C24.0147 84.6705 35.7912 71.7186 45.7507 56.2537M15.2827 96.0528C25.4043 86.4105 32.2707 75.7369 47.8264 58.2642M17.8414 96.1295C24.2181 87.0311 31.9272 79.1888 47.8549 58.8542M16.4184 97.5586C24.712 89.7505 35.27 78.6106 50.1447 60.6367M20.0851 99.4763C27.7323 90.9454 32.424 80.9185 51.7376 63.3949M21.2035 99.6589C30.5606 87.7824 39.8178 77.6751 50.4164 62.8185M24.0735 97.9848C34.4644 88.4763 41.4049 77.1539 52.4932 64.9727M24.6583 100.217C34.2653 87.4563 45.506 74.0876 52.2138 67.7079M27.2421 99.958C31.3659 92.3792 36.249 85.1681 51.9461 67.0961M28.3448 99.5708C36.2183 87.5728 44.9245 78.0573 54.3474 71.0174M29.2257 98.725C35.95 92.7482 41.1746 84.5331 53.1254 71.1059M32.2444 101.503C38.282 92.1844 45.9013 85.5885 53.7675 74.9774M33.3492 100.299C41.4424 91.0265 48.4755 81.947 52.3135 77.1385M34.7724 98.9695C42.4207 91.5312 46.2407 84.7726 51.4531 80.6338M38.4862 97.738C44.3814 91.3167 50.2003 85.7351 51.6044 82.6932M46.6584 91.7999C47.5147 91.0387 47.7505 88.8054 48.469 87.1172M10.3689 30.3703C15.6558 24.3917 23.0854 19.1965 30.9174 3.3503M11.1601 34.2734C20.1367 23.2504 29.3694 11.5409 36.694 3.46296M10.0187 37.2939C17.2943 29.1526 23.9105 19.8092 36.9904 2.66486M5.70565 41.9383C17.0363 29.6863 25.9175 18.1545 39.6305 1.28865M5.57416 47.1638C15.7247 31.3918 29.5599 19.5687 42.6282 2.62491M3.85873 47.9194C14.7626 37.2645 24.9364 26.5339 42.7056 2.16306M3.82628 52.2504C21.1354 34.4739 35.0778 16.9437 43.5946 3.59412M2.42117 54.1318C12.8706 43.6564 22.6135 32.4871 45.8162 2.31999M3.01018 56.9512C10.1349 47.3755 18.6523 38.2383 38.5596 15.7876M2.02252 60.2968C7.87833 52.5981 14.4485 46.3921 30.2986 26.9132M3.35349 61.7222C11.3701 51.8366 17.782 44.4722 27.7956 32.7972M1.25786 64.0009C7.03433 57.9246 14.1268 50.3991 25.2971 36.1339M2.2857 68.3109C9.96746 57.5842 18.0924 47.6423 25.9432 40.2489M3.31836 69.4717C7.79505 62.0088 12.7112 58.189 26.133 40.5862M2.91818 71.383C6.40332 64.7764 12.8806 58.6669 26.3494 43.5397M3.02532 73.9308C8.60424 67.6236 13.9321 61.1412 25.6444 45.6988M3.28021 77.1316C11.4836 64.2215 19.3353 53.5682 23.4685 47.8262M3.57353 77.1536C9.8155 69.7641 16.481 63.462 24.5341 52.8777M2.76579 80.348C12.2427 69.8615 18.0484 62.8817 25.2934 50.2276M4.56728 80.754C11.0505 70.9031 19.0585 62.8144 27.6626 50.283M3.13934 81.9664C12.3931 72.7345 23.0543 61.4137 31.7275 51.0076M4.65558 83.5249C16.2576 69.7197 27.7457 58.7271 32.316 51.0953M5.82294 85.2377C16.3732 74.4828 25.4668 59.5221 33.3082 50.9843M6.00113 86.6543C13.47 78.2133 21.9599 65.3311 34.9145 52.4809M6.99199 88.6872C17.256 76.8687 25.0055 66.3632 36.2558 51.1473M6.74476 89.7631C19.159 77.5748 31.068 61.4367 37.4883 51.829M8.3812 92.7405C18.1248 79.0665 25.9489 66.5348 41.3445 52.5666M10.1277 91.2058C21.3956 79.351 31.9746 64.2032 42.7441 51.8991M8.99633 92.1886C18.3593 84.6472 25.1486 74.6196 41.5213 54.4846M11.9545 95.3762C19.2294 82.1904 27.2782 72.7591 43.2762 55.9294M11.1439 95.2517C25.7263 81.896 38.6146 65.0947 46.0273 55.5079M12.5977 96.2833C19.8743 88.3444 26.1793 78.9845 47.1064 56.809M15.9388 96.8141C24.6356 85.7069 34.4564 74.7733 45.7453 57.5366M17.9247 95.9179C28.2668 80.1098 42.2363 67.1972 48.5382 57.5463M18.6476 97.8391C26.8433 89.1104 34.2386 78.8347 48.7288 58.5609M18.3613 98.9207C28.4082 88.1366 39.8649 73.3516 49.7784 62.4916M20.728 98.5812C29.5566 87.2014 40.4448 75.4395 49.7506 61.6961M21.874 100.089C29.0145 91.7812 34.7517 83.4371 50.4069 64.2371M24.4974 100.054C31.1213 92.9243 36.091 85.4592 52.0253 66.1146M24.9791 98.2953C36.1294 88.6471 42.7931 77.8459 53.9826 66.1279M27.846 99.5172C36.9524 90.8932 43.463 83.1601 53.6012 67.9262M28.6374 99.1734C34.7802 92.5623 42.3927 84.457 54.5869 68.7213M31.503 99.9229C38.9114 90.3129 47.6181 78.5933 54.7778 72.8893M34.5545 98.4596C39.7361 93.7106 43.5011 86.9365 53.0064 73.227M35.0715 97.3933C42.8353 92.6506 48.3401 83.2653 51.6987 75.5923M40.1532 97.6746C43.833 90.7139 50.4043 84.8776 51.132 80.2625M78.2287 23.2125C85.1426 16.7293 90.1605 9.84683 94.8976 4.72163M75.3912 31.0148C79.733 23.6883 87.8814 17.4602 100.321 1.39682M74.3594 32.2788C82.5087 25.0655 90.7129 16.1725 100.9 1.75219M73.4052 36.353C81.2287 29.2583 87.9941 21.0335 104.209 2.08599M69.7679 41.6967C79.6832 31.449 89.4054 19.9922 103.925 1M69.9191 45.7317C80.9128 32.5131 95.0214 16.499 106.911 2.34043M69.1316 49.7899C80.202 37.1246 91.0953 23.4247 108.861 2.64136M66.3289 52.5673C85.574 32.5461 102.137 14.5168 110.509 3.71598M66.7639 54.8855C81.4413 38.7165 95.0734 24.251 101.98 14.3604M66.3121 56.9993C73.197 47.6714 81.328 39.4905 92.9545 28.8893M67.1522 60.416C74.3674 48.012 85.4254 38.9555 91.9415 32.4919M65.3475 62.5615C71.1648 56.9137 79.5366 48.2548 88.5931 34.7059M66.4587 64.1225C73.6756 55.6674 84.494 45.8199 87.9897 39.9847M67.0364 66.7289C75.509 56.794 83.9512 45.9434 87.4714 40.9446M66.8287 69.1096C71.6226 62.1486 75.8176 55.494 88.5929 44.3948M65.5028 73.0074C74.6117 63.2488 82.7826 54.4752 88.5359 45.5803M64.9957 72.5705C73.8051 65.4736 78.0576 57.9882 86.5955 49.49M65.1291 76.4418C72.9326 69.1413 80.7469 60.334 86.8704 53.4471M65.8734 78.6576C69.4359 71.8427 75.7254 67.5725 88.0139 51.5262M65.8445 80.3313C74.423 70.8019 83.6552 59.6062 92.4844 49.6303M65.3663 81.6487C72.7006 72.3008 81.3238 63.714 94.2896 49.2019M65.9435 82.8284C74.3062 74.961 80.4408 68.5111 96.1644 51.9256M67.9336 84.8536C76.9706 75.3181 85.6907 64.1434 96.9164 51.3002M67.8153 84.9418C75.4276 77.9658 79.2617 72.1337 99.3758 52.3079M69.981 88.789C78.9768 76.4376 86.4726 64.8564 100.43 51.5499M68.7371 88.7313C79.8557 78.2648 93.4963 65.2341 101.169 52.4535M70.6374 91.2841C76.7392 83.252 86.3122 74.8283 103.033 52.858M70.8674 90.8653C83.2495 78.9164 92.7899 65.1643 105.214 54M71.1336 91.7139C77.4459 86.714 85.8028 77.826 106.733 52.8907M72.9227 94.0132C82.1246 83.2139 92.2814 71.907 106.41 53.6801M73.4937 94.0008C85.1038 82.8004 97.8729 69.3812 109.384 54.6013M75.2312 95.4892C82.5397 88.4612 90.2069 77.7774 110.318 57.7073M76.8435 96.1946C91.7592 79.9235 104.018 67.0241 109.91 57.3484M77.367 97.3352C88.7108 85.0653 98.0267 73.3405 111.236 59.1778M80.3361 96.2073C89.5645 85.1668 100.029 73.8504 111.801 59.1288M82.1539 97.4317C88.1831 87.7928 97.5266 81.3062 112.029 61.5167M83.3419 97.4622C89.9703 90.3896 97.2382 82.0293 113.69 62.0547M84.8669 99.2677C91.9403 89.8182 101.599 78.7845 113.514 64.5351M85.0591 98.7245C96.9089 87.3366 105.381 78.3568 116.277 65.4488M87.8838 98.9112C99.0096 85.6684 108.156 74.2657 114.932 67.5434M89.0871 99.5323C96.1265 90.641 105.581 83.0255 115.876 67.8095M91.4254 97.9363C99.8914 89.6226 108.829 78.3331 117.308 69.3353M94.1444 100.199C98.1748 93.8756 106.357 87.1513 117.06 71.8492M93.8282 99.0174C99.8304 92.9459 107.565 83.97 116.564 75.1532M95.7038 98.1138C101.042 95.0594 104.91 88.3659 116.279 78.501M100.556 99.2612C104.514 90.9903 112.372 83.494 117.214 80.0418M103.339 95.9988C108.245 92.2335 112.588 88.1006 115.772 83.0222M110.124 92.4323C110.503 89.8009 111.126 89.5657 111.859 88.3145M74.8534 29.3167C82.7394 20.6764 89.5856 12.3643 94.562 5.56779M74.7485 34.6648C83.0217 24.8533 89.0238 15.4189 99.5511 2.12914M72.593 36.1097C82.9132 26.0652 92.3952 13.0378 102.239 3.41774M71.1448 42.7949C82.1399 29.8025 93.7166 13.4324 104.001 1.35234M69.1118 45.1144C80.9609 32.3815 90.4008 16.3954 103.961 2.46006M67.4913 49.4272C78.9757 32.5517 92.6506 19.0857 105.574 2.8862M66.1081 53.5593C81.1556 34.1964 96.6641 18.1039 108.457 3.77495M66.177 53.5885C78.7291 38.2474 94.7152 21.7496 108.325 3.36029M65.2377 58.1377C75.4021 44.7096 85.3549 33.167 100.985 16.2192M67.3428 59.6932C75.0516 48.6838 83.5259 38.0418 91.5617 26.6594M65.646 61.5585C73.2092 56.012 77.5492 46.0602 91.2259 31.35M64.9522 66.2788C72.1339 57.4277 77.5918 51.576 90.4295 35.5719M64.9681 68.4236C71.8378 57.8556 80.1256 49.6433 89.3839 37.8563M64.9756 70.965C70.6255 64.3254 76.9576 57.0187 87.7225 41.4297M65.5004 72.4782C70.0147 64.0957 75.4498 58.3464 87.1145 42.8915M66.3035 72.7793C73.5819 63.8377 81.0819 56.2807 88.0914 45.7644M65.8597 75.7157C71.2542 70.7708 75.6749 64.9487 87.4816 49.0134M65.5908 77.6538C71.4334 69.5457 76.7684 64.5682 86.9106 52.4204M66.2329 78.6935C72.5797 74.7018 75.4163 67.1783 89.7471 52.7975M66.7676 81.2385C74.2925 72.8368 81.6632 62.8582 92.2821 51.4663M66.0546 84.613C76.4007 70.0519 86.6224 58.958 94.4396 51.8862M68.688 85.8369C79.0138 73.0888 86.4345 61.2712 94.573 50.7147M69.6415 86.0353C76.4212 77.2396 83.585 68.3969 98.6183 51.7968M70.1019 87.7289C77.1585 76.0866 88.1104 66.0286 98.631 51.5943M70.4896 88.7103C79.8494 76.6637 90.6833 64.3883 100.106 51.9354M69.4495 90.3134C76.1636 80.6056 85.9032 72.6261 103.245 52.7304M70.4463 92.7966C81.1726 78.7113 93.1149 65.3678 104.625 53.6916M73.6555 91.3343C82.4624 79.4995 90.3317 68.0256 106.195 54.2035M73.4892 94.3888C80.0913 84.6315 85.0935 76.4316 106.291 55.2374M73.9416 94.7318C83.6254 83.5079 93.7241 70.9904 107.162 53.8157M76.0437 94.3622C87.6496 81.6396 98.3352 69.7501 107.819 57.0778M78.1219 95.8309C85.4779 87.0308 94.2828 75.9247 108.489 55.9015M78.8318 97.7076C87.1843 86.5009 93.484 78.1669 110.586 58.2267M79.7698 98.3495C87.9382 86.7068 96.2407 77.5878 111.897 59.1904M81.9509 98.786C90.1226 85.3341 100.763 73.2127 110.967 59.1323M82.7658 97.8323C90.771 88.4612 97.5165 80.2215 114.038 62.4702M85.3541 99.3016C94.8826 86.7672 102.904 74.0702 114.514 62.887M85.5154 99.2714C98.263 84.8298 108.984 69.937 114.33 62.4774M89.0948 100.091C98.712 84.7759 107.29 71.7468 115.678 66.1896M90.2025 98.3676C94.7356 90.4872 102.337 83.1055 116.294 67.4495M92.0296 99.3578C100.858 86.2148 111.16 76.0904 116.341 68.1765M92.1677 99.4786C100.992 87.066 112.798 77.115 117.353 70.9542M93.3588 100.227C101.928 93.9824 106.321 85.6968 118 71.7326M98.1598 100.597C101.102 94.3532 108.29 86.5323 116.653 73.538M100.875 98.19C102.097 94.245 107.69 90.339 117.759 76.0163M103.557 97.6193C106.704 90.2401 112.132 86.0964 114.848 79.7893M19.5674 16.7639V16.7639ZM82.8329 16.8864V16.8864Z" stroke="#454545" stroke-width="0.2" stroke-linecap="round"/>
</svg>
