<svg width="20" height="61" viewBox="0 0 20 61" fill="none" xmlns="http://www.w3.org/2000/svg">
<g clip-path="url(#clip0_2679_18094)">
<path d="M7.0143 0C16.2628 2.52173 19.141 6.60138 19.3391 16.1008C19.5305 20.5039 19.6031 24.8938 18.6129 29.3035C17.9528 32.1223 17.187 34.9411 16.2364 37.7071C13.5101 46.0182 7.9715 53.3061 1.53516 59.0691C4.98108 54.4482 8.34118 49.8272 10.8101 44.7375C13.279 39.6479 14.7709 34.1753 16.0384 28.683C17.2398 23.3095 17.0946 17.4606 16.9428 11.9419C16.6853 7.39354 14.6125 4.3305 10.7969 2.03983C9.62185 1.19485 8.15634 0.91099 7.0143 0.0594124V0Z" fill="#454545"/>
<path d="M1.63506 45.6748C2.69128 47.5694 2.55925 49.9987 2.7705 52.0385C2.92233 54.2434 2.56586 56.3096 2.64507 58.4419C2.64507 58.5145 2.64507 58.4419 2.57906 58.2504C2.52351 58.129 2.43977 58.0227 2.33481 57.9402C2.24678 57.8601 2.14011 57.8034 2.02454 57.7751C1.88591 57.7751 1.92552 57.7751 1.96513 57.7751C2.7903 57.6761 3.66168 57.2602 4.53307 57.181C6.5927 56.8311 8.77115 56.9566 10.7384 56.4152C11.4843 56.0984 12.4217 56.204 13.1743 55.9597C12.5933 56.6199 11.854 56.7783 11.1939 57.3328C9.33887 58.6531 7.11421 58.9634 5.02157 59.5575C4.11058 59.7423 3.29861 60.2573 2.19618 60.3629C1.88224 60.4209 1.55876 60.3993 1.25536 60.2999C0.951957 60.2005 0.678348 60.0266 0.4596 59.7941C0.240852 59.5615 0.08396 59.2778 0.0032992 58.9689C-0.0773616 58.66 -0.0792116 58.3358 -0.00208122 58.026C-0.0945005 56.0456 0.473218 53.9463 0.658057 52.0385C0.869301 49.7611 1.57565 47.8599 1.59545 45.6748H1.63506Z" fill="#454545"/>
</g>
<defs>
<clipPath id="clip0_2679_18094">
<rect width="19.4609" height="60.3828" fill="white"/>
</clipPath>
</defs>
</svg>
