<svg width="586" height="1233" viewBox="0 0 586 1233" fill="none" xmlns="http://www.w3.org/2000/svg">
<path d="M-490.154 65.2404C-481.726 55.3147 -480.889 53.1621 -470.345 43.5398M-491.454 78.6763C-478.8 56.419 -467.293 33.2405 -455.242 22.162M-492.243 83.1161C-483.745 64.1405 -468.818 41.2041 -446.455 18.66M-496.287 93.8085C-471.338 63.4658 -451.442 40.249 -441.492 17.1607M-495.355 102.461C-479.508 72.6997 -457.913 49.4053 -424.607 6.41427M-496.979 104.881C-474.122 78.2696 -452.419 50.0551 -423.505 6.43746M-493.845 111.969C-474.665 75.3747 -441.77 43.091 -412.542 0.33483M-496.175 118.732C-467.599 75.9581 -441.707 39.6824 -408.16 2.29636M-499.196 125.406C-461.189 85.6387 -434.588 38.1547 -406.175 5.88668M-494.021 130.336C-453.555 86.1096 -425.142 34.3308 -400.504 1.34473M-489.719 139.374C-466.888 101.905 -436.318 56.0694 -396.9 0.55084M-490.735 142.775C-463.931 104.699 -442.6 76.043 -386.422 6.02863M-490.714 146.85C-470.34 114.26 -444.987 84.271 -384.506 2.98464M-484.948 147.178C-452.581 101.146 -416.415 54.3835 -379.145 4.86553M-487.486 155.163C-462.505 120.477 -438.764 88.1374 -376.994 2.93236M-478.375 161.058C-458.886 123.138 -438.077 99.5425 -369.618 6.87864M-483.477 159.676C-444.892 110.924 -409.386 59.387 -365.561 4.81373M-475.983 164.763C-433.11 105.083 -391.656 40.0762 -365.83 8.74633M-473.402 166.514C-449.293 128.093 -417.353 90.1723 -360.515 4.72612M-469.609 168.906C-452.334 135.129 -422.166 99.8389 -356.785 11.5616M-467.977 171.728C-440.631 129.099 -413.916 86.4263 -354.668 11.1794M-470.187 182.077C-434.389 128.422 -397.304 80.8273 -349.875 8.82289M-468.694 179.177C-437.145 140.297 -407.136 95.2324 -348.413 14.3586M-463.804 186.176C-431.392 140.115 -396.629 97.019 -338.001 13.243M-458.334 185.084C-427.054 149.073 -396.407 102.677 -338.451 20.9011M-460.967 189.86C-427.162 143.71 -391.943 103.017 -334.103 17.9379M-451.952 195.943C-408.002 129.249 -362.904 69.834 -331.746 24.5564M-452.029 196.039C-419.393 158.307 -387.493 114.77 -330.664 23.1694M-447.519 200.874C-424.567 164.395 -394.669 127.576 -327.511 27.1348M-446.013 202.988C-406.632 147.659 -375.162 96.2656 -320.538 26.4238M-445.721 209.457C-409.807 159.358 -373.42 107.448 -316.632 32.4992M-438.677 211.181C-400.428 142.061 -350.671 81.1142 -314.458 38.1863M-441.548 210.753C-411.206 175.942 -386.879 136.357 -312.072 41.2097M-433.479 215.914C-397.1 164.045 -355.073 107.672 -309.883 39.7527M-436.435 216.855C-399.365 164.65 -362.022 116.948 -308.381 43.1759M-429.321 224.393C-389.957 161.645 -346.428 105.881 -304.538 50.3688M-424.387 226.988C-402.05 191.9 -374.731 152.331 -299.888 51.6463M-422.982 230.203C-384.347 172.386 -343.224 117.028 -299.869 56.6674M-421.059 228.891C-383.72 181.787 -348.318 133.454 -295.831 57.5911M-416.67 230.012C-381.308 182.753 -342.692 128.769 -292.48 64.622M-413.46 236.371C-370.752 165.39 -324.787 98.9884 -292.103 68.5714M-410.217 239.775C-376.275 183.452 -335.699 131.074 -288.477 67.7324M-406.207 239.85C-367.087 184.669 -330.159 132.734 -290.518 73.9305M-409.931 246.986C-377.924 211.83 -351.991 172.572 -287.825 76.4803M-406.274 244.341C-366.54 191.391 -332.292 142.517 -282.459 79.8649M-400.701 251.81C-364.288 197.917 -333.891 147.688 -275.403 81.4669M-399.993 248.967C-348.844 187.009 -302.143 119.101 -276.611 81.746M-392.577 258.057C-366.796 221.54 -337.541 185.543 -275.755 84.5384M-388.944 258.527C-353.502 205.471 -316.561 150.712 -266.992 91.5794M-391.027 258.532C-348.411 205.271 -315.04 156.044 -266.643 89.3014M-386.189 261.484C-359.667 227.559 -333.162 191.113 -261.661 94.7708M-383.254 266.077C-347.048 217.055 -311.125 168.659 -260.819 97.3611M-376.293 270.358C-356.227 236.206 -334.8 203.167 -254.943 101.571M-379.81 268.477C-338.444 223.592 -305.88 175.344 -255.771 104.076M-376.288 274.157C-330.632 221.726 -295.333 162.758 -251.671 105.819M-372.22 277.872C-331.013 223.16 -293.073 162.427 -250.093 109.084M-364.931 276.679C-337.151 237.447 -307.005 198.865 -248.364 111.888M-362.978 282.822C-327.146 236.078 -294.46 189.486 -243.208 109.426M-362.543 284.088C-329.797 240.578 -301.778 192.028 -242.133 113.41M-357.993 284.831C-322.601 241.258 -285.91 193.035 -237.739 118.423M-357.869 285.929C-323.155 242.933 -294.891 196.757 -230.929 120.157M-352.638 291.68C-312.968 227.766 -263.826 163.692 -234.028 120.658M-345.501 296.708C-307.81 233.811 -262.493 173.921 -230.339 121.585M-343.835 298.143C-319.419 261.784 -296.173 221.819 -224.184 127.985M-338.75 297.719C-304.878 249.378 -274.253 200.961 -221.276 127.461M-338.022 296.978C-301.405 248.855 -264.609 204.456 -214.529 131.092M-338.96 301.398C-298.202 251.263 -253.161 198.719 -217.199 132.998M-332.383 307.581C-305.914 263.183 -269.105 220.878 -209.769 134.387M-327.986 309.894C-296.37 265.637 -265.87 219.185 -209.538 141.809M-322.517 308.079C-276.974 246.668 -234.888 186.786 -208.041 139.16M-324.541 312.97C-296.855 276.281 -270.54 235.119 -198.551 141.359M-318.023 313.588C-275.365 258.024 -240.455 197.138 -194.536 145.066M-315.446 315.401C-290.697 276.324 -260.011 241.222 -192.263 149.949M-310.364 317.074C-275.743 268.674 -240.183 217.862 -192.185 150.704M-310.168 324.432C-269.531 262.413 -227.476 204.334 -188.299 156.138M-306.445 321.614C-276.244 287.421 -250.026 251.176 -185.837 152.957M-299.528 322.373C-273.488 285.255 -247.964 244.065 -184.524 157.96M-301.238 325.845C-253.374 261.523 -203.237 197.931 -178.379 157.979M-298.39 327.593C-263.151 276.123 -226.765 229.618 -171.969 161.227M-293.995 334.018C-265.923 285.151 -234.156 246.004 -173.406 163.829M-292.178 334.787C-260.852 291.544 -227.228 252.657 -166.977 165.664M-285.432 339.439C-255.18 293.023 -222.694 247.354 -161.854 172.129M-285.409 341.011C-233.83 276.737 -186.565 212.525 -162.769 169.036M-279.626 340.351C-248.822 292.476 -214.564 241.404 -158.65 173.961M-273.109 341.972C-226.428 276.117 -179.859 206.265 -158.809 172.465M-271.609 343.333C-239.021 291.121 -199.4 244.295 -153.956 178.557M-270.257 347.276C-225.81 288.632 -181.301 233.115 -147.53 176.444M-265.085 352.047C-229.775 298.278 -192.74 249.41 -146.453 179.118M-263.154 353.275C-233.877 317.102 -199.927 275.611 -144.404 183.876M-258.417 351.68C-234.862 318.311 -205.329 277.675 -137.789 184.372M-253.9 357.936C-229.659 317.824 -208.506 282.527 -134.462 184.825M-248.849 355.649C-216.863 307.686 -178.324 258.897 -129.18 191.415M-251.56 357.422C-211.724 311.751 -177.732 257.648 -124.361 194.097M-241.863 361.876C-212.017 313.238 -173.795 259.803 -123.596 191.933M-241.403 365.178C-194.724 303.405 -149.622 241.577 -118.782 198.852M-236.964 363.203C-195.527 300.934 -149.856 238.222 -119.958 195.312M-231.688 367.404C-204.001 328.636 -174.603 288.423 -110.603 201.926M-234.186 367.694C-205.149 332.828 -180.388 296.093 -113.057 202.557M-231.652 370.258C-177.861 305.032 -137.392 245.535 -107.144 206.532M-226.299 376.378C-190.693 331.331 -154.677 282.066 -103.592 206.876M-221.191 376.397C-191.567 342.19 -170.636 304.888 -99.9759 210.976M-218.73 378.322C-183.524 322.277 -140.633 267.518 -95.3951 208.69M-212.284 380.728C-184.452 336.893 -148.817 288.245 -95.9256 214.379M-208.963 379.745C-177.305 341.687 -146.326 295.986 -87.9023 217.093M-207.515 383.594C-161.819 331.094 -127.197 276.069 -83.9696 216M-204.46 386.127C-155.062 326.428 -106.819 260.203 -86.1985 218.444M-204.384 387.144C-171.737 353.426 -146.946 323.275 -80.5258 219.441M-197.634 390.848C-170.065 359.263 -144.657 320.404 -77.5698 219.651M-194.169 393.559C-155.83 334.552 -116.552 280.68 -75.8385 222.749M-191.871 396.718C-144.389 328.583 -99.5456 261.316 -69.6798 225.023M-187.737 396.313C-154.203 351.863 -127.214 310.589 -62.7994 227.734M-186.739 399.684C-146.299 350.042 -106.074 290.84 -59.133 228.349M-178.169 399.863C-147.771 360.056 -109.31 307.819 -56.849 232.81M-179.57 402.346C-138.325 354.667 -99.9597 297.15 -53.665 234.162M-174.364 402.665C-133.21 349.507 -90.0098 289.193 -51.2725 235.931M-172.408 408.999C-139.221 363.38 -106.221 324.066 -47.5998 242.168M-166 411.814C-127.014 357.199 -87.9226 297.382 -45.7037 237.723M-162.143 411.2C-133.58 371.115 -106.203 335.083 -43.7498 245.756M-158.446 411.17C-133.93 375.962 -104.314 333.221 -36.4324 245.3M-155.71 412.782C-121.475 372.113 -89.2876 328.216 -37.956 248.392M-154.494 422.032C-108.218 360.65 -60.6423 298.802 -32.9084 250.864M-152.487 420.755C-96.9946 352.193 -53.3707 288.062 -25.3059 248.038M-146.921 422.45C-118.122 380.381 -87.5107 339.706 -24.0276 257.392M-142.351 427.719C-103.819 372.897 -70.3838 324.618 -17.0468 257.695M-135.798 428.724C-99.345 378.341 -58.9681 319.273 -16.9408 254.275M-133.494 426.727C-109.701 390.156 -81.2699 351.173 -12.5791 261.876M-132.61 427.61C-97.2493 388.706 -67.7719 342.777 -11.2422 260.493M-125.839 431.286C-82.8122 376.5 -44.2702 319.974 -6.36331 264.911M-126.621 437.307C-87.0741 372.413 -47.1009 316.721 -6.36568 265.221M-119.226 433.768C-97.9331 402.67 -70.4103 367.005 3.30567 267.944M-115.364 437.299C-76.7084 375.16 -28.2086 315.856 0.761619 269.324M-113.708 444.186C-87.9697 403.881 -59.6449 362.378 3.50759 272.725M-113.05 440.603C-79.9054 389.334 -39.2659 340.042 8.09239 275.784M-104.771 441.556C-71.6652 396.467 -35.9574 350.311 11.6502 273.95M-103.565 446.235C-68.1801 394.101 -32.4126 350.999 17.6484 275.311M-102.336 446.778C-70.1935 406.765 -34.2092 360.799 17.3069 277.123M-97.2505 451.46C-71.0485 417.829 -47.0524 377.029 26.0623 280.965M-95.9716 455.164C-65.6712 410.022 -29.0224 367.974 26.7051 285.555M-93.1668 454.358C-46.5571 394.372 -6.16877 339.907 28.5653 285.868M-84.934 456.719C-50.171 397.421 -3.27235 341.171 36.4138 287.911M-502.506 1042.2C-495.679 1023.9 -480.96 1006.73 -470.463 1002.21M-85.7559 460.57C-50.0688 409.581 -11.6825 365.304 34.9434 293.689M-506.815 1055.18C-496.797 1036.59 -476.179 1017.31 -461.247 996.076M-83.0393 465.019C-44.9917 405.004 -1.54134 355.022 38.2622 293.684M-507.865 1064.89C-492.2 1044.61 -479.231 1022.12 -451.124 988.841M-74.7719 464.553C-28.5461 402.111 20.4045 330.559 42.1581 294.951M-508.087 1070.74C-489.421 1047.34 -468.861 1013.2 -449.667 987.388M-72.2429 466.757C-34.0889 413.124 -1.85161 366.303 47.8452 300.613M-510.956 1085.93C-491.424 1048.24 -464.127 1022.91 -438.782 988.262M-69.9354 469.7C-31.3084 415.443 8.51138 358.243 50.1373 300.654M-510.398 1088.49C-482.097 1054.29 -454.683 1018.31 -432.141 981.604M-64.9257 471.792C-24.0063 414.763 18.5151 354.578 52.2672 300.223M-508.854 1097.7C-476.125 1051.42 -446.629 1013.23 -430.319 985.456M-65.1503 474.521C-19.3391 403.102 30.3183 340.837 60.6999 304.311M-512.067 1099.2C-480.18 1061.94 -448.9 1022.67 -421.998 985.142M-57.5207 471.891C-15.8171 410.023 29.1856 348.443 63.0404 308.059M-506.424 1110.11C-489.084 1076.27 -461.106 1043.28 -418.21 984.579M-59.782 474.082C-13.6417 416.2 23.5687 363.193 68.0869 309.331M-507.41 1116.19C-486.997 1083.6 -460.03 1048.8 -410.871 979.689M-56.2212 478.605C-14.0998 419.943 24.1794 368.703 71.5151 309.9M-508.965 1115.27C-482.48 1084.95 -457.445 1050.01 -409.264 979.704M-48.4455 477.155C-10.0562 425.606 29.1644 372.648 73.1272 312.237M-501.26 1123.94C-471.046 1071.44 -430.262 1014.84 -402.899 979.616M-42.5462 479.636C-4.22633 430.933 35.6894 379.886 76.78 310.746M-502.633 1126.51C-476.762 1085.95 -447.728 1054.28 -400.561 980.817M-45.9293 485.224C-0.361661 426.328 36.1458 367.234 81.475 314.792M-497.558 1130.46C-468.333 1082.9 -433.435 1043.42 -394.583 982.019M-40.9139 484.131C-13.1555 451.842 19.5135 417.811 82.4601 315.616M-498.639 1134.67C-472.103 1092.43 -440.616 1059.66 -391.797 986.35M-32.6086 485.532C1.40135 443.8 32.3839 395.425 86.0451 321.862M-497.438 1138.45C-469.981 1092.75 -439.316 1054.49 -387.529 982.933M-34.2054 492.708C9.03742 430.094 51.215 375.32 89.2678 320.192M-493.547 1138.9C-449.03 1081.38 -407.41 1021.93 -378.403 982.728M-31.941 491.653C7.6585 438.552 46.6608 385.85 90.1199 321.574M-492.119 1144.16C-459.264 1100.61 -421.409 1052.05 -378.312 984.589M-28.4104 495.743C13.649 429.583 60.8562 369.194 97.0667 328.968M-491.732 1150.27C-446.455 1081.52 -399.364 1022.32 -376.185 983.51M-20.3218 500.391C24.3133 437.228 62.2006 376.835 97.9855 326.156M-488.919 1149.32C-457.855 1113.87 -431.438 1079.66 -370.758 986.368M-19.7147 498.916C23.7527 437.105 72.7812 377.774 100.639 329.585M-486.622 1156.95C-456.179 1114.97 -422.425 1070.81 -367.925 991.979M-15.1455 503.763C22.0928 444.927 62.2344 393.109 105.437 333.791M-481.794 1158.97C-435.552 1094.08 -389.507 1027.58 -357.635 993.318M-9.305 505.532C26.9395 447.635 69.762 390.289 108.248 336.171M-476.779 1161.5C-439.64 1108.43 -404.811 1062.69 -358.27 991.596M-5.52049 502.348C44.4215 438.513 86.5763 368.024 111.317 338.079M-471.859 1162.09C-431.536 1098.88 -383.456 1040.7 -352.934 993.645M-1.60968 506.547C37.9744 451.373 78.1734 390.041 119.718 334.462M-470.708 1166.98C-443.636 1124.62 -417.493 1089.36 -347.819 991.924M-3.43955 507.808C42.3705 455.453 77.8774 397.424 120.353 340.819M-466.051 1166.41C-433.541 1120.81 -398.301 1075.04 -342.534 995.803M4.86286 509.266C50.6463 452.342 96.253 387.19 126.379 341.786M-463.264 1171.41C-432.845 1127.32 -404.521 1084.43 -338.398 995.902M7.23139 515.727C29.8174 470.21 65.9758 432.387 129.124 341.817M-464.445 1173.21C-420.644 1123.14 -384.354 1068.47 -338.348 997.457M10.1376 518.592C52.6662 454.22 100.767 387.269 127.922 347.246M-456.997 1177.05C-419.814 1120.69 -385.526 1070.55 -330.417 996.758M12.3298 515.642C41.0675 474.084 74.5654 433.545 134.208 346.289M-458.623 1175.69C-429.065 1130.13 -398.176 1088.25 -328.525 997.789M15.6525 521.61C42.0179 479.492 71.3715 443.868 137.503 347.433M-452.336 1179.81C-414.094 1128.24 -383.227 1076.42 -326.536 1000.95M15.9467 521.364C57.6616 475.06 86.6157 430.366 138.804 354.54M-447.731 1183.21C-407.63 1127.22 -376.72 1077.86 -316.257 1003.04M24.6345 526.59C56.2161 474.249 89.4312 426.441 142.178 356.975M-442.798 1178.26C-397.18 1120.68 -353.297 1055.73 -317.589 1003.05M25.9079 525.053C53.324 481.658 87.4069 435.832 148.041 357.77M-441.22 1186.29C-403.249 1138.65 -373.645 1087.53 -309.622 1004.58M32.0817 525.271C67.4417 483.008 101.699 429.649 149.851 357.483M-432.169 1183.7C-408.401 1142.06 -379.221 1100.61 -305.057 1006.06M32.9514 527.729C76.2127 468.53 121.186 399.339 157.902 364.441M-431.738 1188.47C-387.581 1118.5 -334.796 1053.69 -298.363 1005.75M37.6224 531.797C78.3745 474.385 111.344 423.868 156.56 360.635M-431.18 1188.81C-392.544 1131.57 -357.723 1087 -295.881 1001.6M42.0327 531.133C63.4709 495.467 94.4954 457.408 160.008 365.855M-426.053 1188.85C-384.519 1139.17 -351.879 1084.53 -290.749 1006.02M43.9482 536.956C89.818 472.021 143.171 401.974 163.118 364.549M-419.033 1189.02C-386.213 1141.21 -348.944 1087 -288.253 1009.8M46.1238 540.124C79.026 483.922 118.859 434.739 166.328 367.774M-416.295 1188.98C-386.416 1151.35 -354.035 1100.27 -285.932 1006.75M47.2275 540.137C101.042 467.945 146.81 402.81 172.709 372.956M-412.452 1191.79C-382.079 1154.58 -354.957 1118.19 -282.006 1011.78M56.4941 543.039C104.837 476.115 149.415 410.966 177.867 372.116M-407.685 1195.53C-382.243 1149.62 -350.687 1116.28 -276.69 1010.11M54.6888 547.954C102.851 485.113 146.964 420.898 181.175 378.263M-404.933 1194.9C-355.483 1120.6 -300.107 1050.27 -273.721 1011.73M61.0127 549.443C84.7003 513.599 107.903 475.089 182.934 375.944M-395.769 1196.9C-358.438 1139.21 -313.671 1079.23 -270.325 1008.47M63.6249 549.339C93.4645 510.065 118.155 474.85 182.663 377.105M-393.033 1198.14C-359.225 1153.45 -322.396 1104.83 -260.254 1015.04M64.3922 553.96C93.8924 516.118 117.478 476.888 188.274 379.701M-393.149 1198.04C-356.186 1155.54 -324.367 1110.36 -259.467 1010.86M68.5562 550.863C96.4323 514.13 119.996 477.725 193.7 380.58M-390.359 1196.38C-355.911 1150.99 -324.239 1105.28 -252.235 1014.73M73.749 556.647C111.631 499.733 156.371 450.049 194.014 383.91M-380.161 1200.15C-353.918 1153.33 -324.128 1115.8 -248.37 1013.5M76.5315 557.959C121.317 489.777 174.264 423.533 196.356 388.953M-380.657 1198.82C-341.912 1145.89 -302.156 1089.44 -247.386 1013.63M83.7912 556.627C108.679 520.911 133.8 476.502 204.04 387.563M-376.827 1199.29C-344.96 1161.9 -312.979 1117.73 -241.209 1016.98M85.32 559.944C124.235 501.073 171.894 445.042 205.436 395.445M-373.315 1203.48C-327.838 1146.34 -288.634 1091.84 -238.085 1017.57M86.182 566.026C134.018 495.436 186.787 431.304 208.054 396.294M-367.358 1200.88C-335.437 1154.46 -299.309 1109.58 -231.838 1019.3M90.5085 563.772C136.681 499.03 190.447 434.336 211.645 392.929M-364.592 1205.31C-335.55 1163.94 -303.327 1119.18 -225.844 1014.11M96.7456 569.286C119.495 528.194 149.821 487.85 212.82 395.869M-358.695 1207.57C-321.847 1156.21 -288.28 1113.08 -221.766 1017.57M94.7668 567.263C144.182 512.806 188.866 447.311 222.866 402.728M-351.897 1208.66C-301.008 1137.43 -255.075 1069.73 -215.642 1017.97M104.692 572.79C140.737 520.63 184.042 462.116 222.686 401.842M-352.796 1209.5C-305.516 1152.51 -268.548 1090.5 -212.222 1021.89M103.858 571.903C141.255 521.886 181.061 474.626 229.04 405.113M-345.453 1211.08C-309.049 1156.1 -278.217 1111.69 -209.838 1017.33M110.063 576.191C143.964 533.127 169.852 486.238 233.739 409.157M-339.97 1211.06C-299.022 1152.31 -258.929 1088.99 -202.366 1016.81M111.083 575.225C151.886 523.531 193.496 466.654 233.109 407.333M-337.996 1209.53C-298.859 1161.19 -266.141 1109.56 -203.092 1017.64M112.926 579.669C159.529 514.619 201.213 453.458 237.652 410.301M-335.193 1210.57C-305.765 1165.38 -271.854 1126.15 -193.769 1021.69M120.167 583.085C148.791 546.879 175.768 504.337 238.267 410.822M-327.84 1209.36C-285.886 1159.45 -253.094 1110.51 -193.186 1023.78M123.191 585.788C161.381 524.053 204.312 475.351 244.64 416.297M-325.52 1212.67C-283.858 1151.11 -238.805 1096.7 -183.085 1024.5M123.359 588.953C167.073 528.322 205.218 473.742 244.999 415.973M-317.341 1211.52C-264.812 1142.25 -211.333 1073.21 -183.978 1020.16M129.638 590.376C169.958 535.021 201.765 483.078 251.44 421.112M-317.729 1213.41C-265.397 1143.01 -217.671 1078.36 -175.019 1021.89M134.683 586.356C174.432 537.804 208.229 485.53 255.418 422.611M-312.552 1217.39C-262.191 1146.58 -209.631 1080.12 -172.579 1024M135.626 590.538C183.824 533.467 227.786 467.692 260.939 419.067M-308.5 1217.1C-249.604 1140.68 -200.292 1068.39 -166.151 1024.31M137.682 591.781C172.679 544.633 209.083 495.343 259.041 423.075M-298.74 1218.43C-259.8 1165.88 -223.498 1109.16 -165.648 1020.75M141.741 595.764C169.774 561.192 192.949 520.552 263.703 428.188M-300.388 1219.59C-268.032 1175.91 -240.202 1129.81 -157.19 1022.48M146.033 595.996C188.905 538.072 228.645 477.305 266.21 425.62M-294.454 1215.12C-257.324 1173.46 -229.323 1125.51 -152.416 1025.06M149.27 598.727C182.311 559.541 210.95 508.672 276.063 432.669M-286.759 1219.67C-255.816 1177.2 -227.518 1131.38 -149.945 1020.75M151.698 601.883C188.118 556.477 221.154 510.828 276.272 433.978M-282.714 1220.75C-248.77 1174.13 -217.437 1130.8 -141.7 1022.83M156.84 602.703C191.121 556.553 227.741 504.922 278.838 433.474M-275.796 1215.68C-228.671 1144.52 -177.54 1078.65 -140.176 1024.2M161.439 604.27C199.367 554.957 232.201 506.296 283.918 438.057M-275.658 1217.4C-220.533 1142.72 -163.596 1069.14 -135.37 1025.01M167.372 609.97C189.16 568.634 211.851 533.249 285.597 438.441M-271.489 1219.56C-238.418 1182.7 -211.151 1136.89 -126.344 1022.18M166.294 611.996C198.45 557.398 235.137 506.358 293.396 440.397M-266.709 1218.31C-231.585 1178.16 -205.519 1134.68 -122.67 1023.37M168.961 608.602C218.012 552.701 257.417 494.498 296.888 438.922M-258.184 1222.9C-232.053 1176.85 -203.885 1128.73 -118.353 1019.36M177.926 610.875C211.155 559.911 245.663 510.087 294.737 442.266M-257.925 1222.1C-225.499 1185 -195.636 1138.53 -113.637 1017.84M176.884 615.944C215.623 574.17 247.863 525.679 301.91 446.016M-251.622 1222.84C-204.776 1164.07 -164.283 1106.59 -104.208 1018.68M183.116 618.896C221.914 568.354 253.593 517.375 303.743 444.673M-243.412 1221.32C-198.684 1149.79 -141.78 1076.97 -99.3625 1016.28M185.283 620.637C227.886 561.813 272.805 502.191 306.449 450.407M-239.129 1220.47C-210.806 1178.07 -177.746 1134.82 -95.8437 1019.47M187.31 620.533C214.205 580.464 241.794 547.718 312.122 449.341M-238.52 1222.75C-179.149 1145.16 -124.747 1064.23 -92.2852 1019.7M196.526 622.822C223.618 578.612 258.858 528.358 313.585 454.908M-230.885 1223.47C-199.173 1175.78 -159.849 1117.11 -89.6457 1018.83M196.047 621.712C224.832 585.429 247.867 553.262 317.073 453.317M-230.972 1222.18C-185.157 1154.8 -133.838 1089.99 -80.6577 1021.46M198.516 624.606C244.183 568.696 292.486 508.484 321.874 455.567M-222.376 1222.24C-173.421 1153.77 -116.578 1082.02 -76.7814 1019.3M207.152 628.493C244.763 567.276 287.76 510.03 329.287 458.616M-221.413 1227.73C-177.044 1173.63 -142.466 1114.95 -69.7364 1019.32M207.738 627.647C239.316 581.531 270.581 539.02 332.34 460.332M-215.943 1226.12C-184.712 1177.67 -148.613 1126.96 -65.505 1019.76M209.26 629.523C262.689 566.147 310.152 497.658 335.274 463.913M-211.49 1223.7C-168.363 1170.02 -129.727 1107.4 -62.2935 1015.4M214.883 631.594C244.953 585.221 277.055 537.368 336.111 462.166M-205.803 1227.31C-173.435 1176.15 -136.123 1126.32 -58.2764 1015.37M219.96 634.276C261.637 579.108 306.675 520.02 337.247 462.876M-199.685 1225.65C-174.562 1184.58 -139.957 1140.55 -51.7025 1018.23M218.188 636.306C259.914 581.966 299.233 523.122 345.621 467.726M-198.845 1230.64C-147.833 1158.36 -96.5268 1082.28 -41.6316 1015.3M222.623 637.374C273.356 575.903 321.844 505.771 348.108 468.825M-191.079 1226.17C-143.13 1157.76 -89.7635 1081.64 -39.7365 1013M225.616 641.304C253.157 604.009 279.807 574.068 355.138 471.339M-190.073 1231.04C-150.705 1186.51 -118.66 1141.35 -35.2167 1015.44M232.582 640.281C278.513 581.087 319.019 519.186 352.997 475.588M-179.253 1231.31C-143.614 1177.11 -110.157 1128.03 -26.8629 1015.4M233.121 643.326C259.509 611.345 287.545 573.314 361.116 475.667M-177.746 1232.2C-135.092 1168.82 -92.5763 1115.29 -20.8397 1013.88M240.87 648.819C288.426 579.684 340.561 512.218 361.514 473.651M-175.994 1229.53C-117.251 1147.22 -59.028 1065.95 -18.7186 1014.05M242.836 646.261C292.324 582.043 338.251 518.326 365.542 474.832M-167.335 1231.59C-119.089 1167.7 -75.0773 1104.5 -8.85665 1012.14M249.374 648.259C284.528 603.374 321.536 548.573 367.858 475.54M-161.948 1226.1C-102.336 1146.16 -45.0671 1070.2 -6.89534 1010.08M252.812 650.836C282.359 612.136 307.05 571.08 376.401 481.536M-160.265 1227.6C-118.733 1164.96 -71.2037 1104.75 2.71955 1009.25M254.829 656.829C289.047 597.444 334.91 545.849 380.657 482.063M-153 1231.29C-100.914 1147.69 -46.1497 1069.47 7.19141 1006.59M260.35 655.982C291.836 608.519 331.616 555.34 381.127 485.275M-150.602 1230.18C-104.965 1168.63 -58.3742 1110.09 10.7048 1006.77M260.658 660.066C293.741 609.734 324.622 568.21 385.067 484.854M-145.556 1232.56C-89.8714 1153.1 -40.4197 1081.21 18.8631 1002.37M267.019 657.332C304.553 607.32 343.69 549.651 386.975 487.774M-138.201 1227.39C-89.9935 1152.72 -35.1077 1079.98 24.4821 1003.24M265.685 658.95C299.963 612.075 331.629 570.365 391.903 489.145M-134.507 1228.2C-86.6745 1169.22 -44.7738 1101.4 27.5753 1005.36M273.1 661.569C301.423 623.824 329.305 578.592 397.858 492.229M-129.323 1228.18C-94.8004 1176.14 -60.4888 1131.37 32.1636 1004.79M277.108 666.012C316.658 612.846 352.03 559.808 403.399 493.006M-122.979 1229.4C-73.3101 1158.09 -24.7492 1094.25 39.1312 1003.59M278.643 669.092C310.86 622.391 336.625 584.253 401.061 494.309M-116.712 1230.53C-85.6441 1184.26 -47.3971 1134.45 45.4765 999.987M283.412 669.183C324.597 607.51 364.396 548.971 404.475 495.375M-116.317 1231.76C-66.4744 1163.71 -14.5818 1093.15 51.6743 998.472M290.543 667.537C321.746 618.799 355.49 567.361 408.911 499.02M-107.286 1231.24C-60.482 1166.04 -13.4944 1101.49 57.1306 998.6M290.59 671.509C333.295 610.234 381.531 557.675 412.041 502.089M-101.74 1226.59C-53.7333 1162.27 -0.797442 1094.28 65.7469 996.348M291.763 672.216C343.131 608.683 388.876 541.974 421.155 499.936M-98.3416 1231.7C-54.6187 1168.54 -11.1482 1103.14 69.7851 994.024M297.191 678.351C337.581 621.811 374.365 566.435 424.544 502.63M-92.775 1228.48C-47.7637 1167.58 -4.51866 1102.3 79.4778 989.969M300.088 677.26C336.646 625.985 372.209 579.162 423.517 506.478M-90.8821 1231.93C-39.8478 1161.2 11.5227 1094.83 83.5975 992.302M209.304 817.202C215.891 804.417 226.175 795.211 237.95 777.292M307.992 676.648C356.803 612.409 401.553 544.831 428.955 503.108M-84.8267 1229.14C-16.0658 1141.32 49.0462 1052.15 91.1738 985.53M202.387 834.321C208.453 816.782 220.786 797.134 247.425 767.555M306.212 683.622C356.533 612.479 405.365 551.007 430.417 507.407M-79.045 1227.96C-19.3873 1147.71 44.7367 1059.13 98.1197 985.423M189.492 855.426C204.725 831.033 218.748 810.612 258.752 759.653M312.295 682.825C362.533 614.59 407.763 547.209 440.973 510.443M-75.5173 1229.97C-38.6993 1176.78 -1.87385 1131.91 103.015 983.827M192.981 859.429C213.567 832.829 231.641 804.978 261.345 753.997M315.388 686.416C354.732 633.523 389.846 584.822 443.194 511.81M-68.6658 1224.72C-18.81 1156.71 35.147 1084.04 110.544 982.63M186.921 870.775C207.232 840.425 225.396 818.833 272.489 753.307M320.34 683.046C360.363 633.861 401.57 578.917 442.047 513.063M-66.0787 1224.47C-13.5313 1157.25 34.2263 1086.23 115.744 978.955M189.485 872.348C216.512 839.818 236.704 807.551 280.022 751.55M321.751 687.5C351.123 651.566 375.456 619.777 445.679 516.48M-57.2168 1223.24C-12.8694 1158.2 29.9362 1096.6 123.461 975.307M187.73 879.358C226.534 825.772 267.714 778.044 291.979 745.577M327.681 688.062C374.298 617.925 423.964 550.247 448.191 521.341M-53.0008 1228.05C12.2773 1137.61 72.306 1052.03 131.296 969.727M188.637 888.893C220.966 844.848 253.301 800.239 297.527 742.393M335.364 693.532C370.653 640.8 403.036 588.466 453.435 520.468M-45.1628 1222.46C1.62106 1149.81 54.0041 1075.66 137.026 971.83M187.519 897.407C231.183 831.739 275.497 778.827 303.324 743.4M337.717 694.685C373.478 633.979 407.542 586.492 458.601 522.907M-40.5362 1223.83C12.9016 1146.26 65.3509 1075.79 141.803 966.891M192.811 900.216C230.786 849.622 267.526 796.42 306.671 742.968M341.618 692.148C367.833 656.018 397.158 619.655 457.96 523.072M-38.9172 1221.97C22.2934 1140.48 84.7848 1056.21 149.673 961.363M192.246 906.968C225.652 858.201 262.885 811.372 311.323 740.582M340.699 694.297C386.781 637.931 425.905 587.305 461.287 527.171M-28.5221 1224.77C22.1754 1142.5 80.0696 1064.98 158.7 959.366M192.927 911.784C220.418 870.91 247.201 832.929 315.181 738.654M348.13 698.819C391.638 633.285 435.574 574.367 471.132 530.989M-27.1123 1220.71C31.5122 1145.77 86.3359 1064.49 162.914 956.507M194.064 913.141C233.605 860.235 269.32 810.072 325.902 739.283M348.965 697.09C378.193 660.241 400.216 619.724 474.095 526.89M-21.1655 1221C36.6957 1142.43 99.8078 1061.12 171.142 957.944M199.985 921.998C237.229 861.556 275.597 804.2 330.394 733.997M351.415 700.159C382.777 660.647 411.209 621.672 475.465 531.491M-14.437 1222.86C24.2401 1165.45 72.8571 1105.13 179.706 952.604M199.683 926.846C225.049 882.65 259.252 842.99 332.825 733.725M354.258 706.368C395.591 651.386 435.833 594.177 475.57 531.778M-8.17773 1219.63C59.1831 1123.92 134.568 1027.85 184.995 948.706M197.626 926.447C237.934 869.919 276.554 815.762 340.698 735.98M360.161 705.247C398.106 647.165 439.565 595.769 479.498 534.685M-6.36841 1223.37C57.0949 1134.39 119.213 1047.63 194.113 946.379M201.264 934.765C258.325 854.981 308.875 779.435 346.77 731.162M362.935 710.951C398.027 665.802 429.261 618.791 485.374 541.79M-0.986388 1218.54C46.1952 1163.12 85.8811 1101.74 201.305 939.566M203.42 935.669C252.836 867.306 298.534 795.617 351.199 729.343M365.238 708.136C395.148 667.792 426.499 619.582 488.444 543.124M5.99689 1220.17C131.066 1044.76 258.018 866.967 357.53 733.102M368.146 711.235C404.54 658.347 443.37 608.113 488.216 542.933M13.0428 1218.34C86.6498 1120.63 159.78 1016.16 360.633 732.315M376.549 716.563C403.311 670.233 434.892 629.874 497.592 543.572M18.3435 1218.44C152.591 1031.37 285.911 845.965 365.943 730.15M374.323 721.372C422.091 651.96 467.539 585.876 496.265 546.934M24.2757 1216C213.073 949.97 404.161 684.845 500.764 551.418M30.5016 1215.21C123.871 1085.42 218.558 949.268 503.147 555.283M35.6421 1214.15C167.043 1031.66 298.718 845.63 507.098 556.72M39.6914 1212.53C159.662 1045.71 280.712 874.665 510.031 558.629M48.074 1212.49C199.062 998.242 356.079 785.608 513.235 561.068M53.7693 1208.57C193.33 1012.72 333.063 821.174 514.266 566.281M57.0528 1208.98C242.431 953.947 424.11 697.742 517.071 567.929M63.7363 1206.12C157.387 1080.42 247.585 952.396 520.729 571.585M69.6359 1205.51C244.517 966.797 419.48 722.326 524.067 574.875M75.2658 1205.12C242.028 975.615 405.25 747.123 525.122 576.321M81.8186 1202.95C213.64 1019.06 343.335 835.426 528.533 581.346M86.7835 1203.62C260.705 961.33 434.118 717.991 530.365 581.673M93.6203 1202.3C183.997 1071.97 278.869 937.585 532.949 585.319M100.745 1197.59C231.65 1008.69 366.037 823.282 536.815 589.3M105.962 1197.35C268.58 973.588 426.574 752.516 540.021 592.364M111.739 1194.3C226.551 1036.19 341.83 875.431 543.619 594.539M117.266 1194.19C294.557 955.791 464.72 717.142 545.456 599.973M124.737 1190.39C222.741 1056.3 322.751 915.896 546.665 603.829M132.439 1189.57C264.872 999.694 400.267 811.115 550.03 606.696M136.871 1186.57C293.556 966.553 450.047 746.211 552.139 609.629M144.679 1186.12C308.736 958.9 471.442 731.101 554.874 613.292M148.958 1185.58C253.419 1041.97 355.757 899.032 554.598 617.124M155.294 1182.42C307.712 970.303 456.724 760.306 558.732 622.57M162.752 1179.63C291.069 1001.2 418.584 825.869 561.311 624.303M167.293 1179.62C257.517 1050.87 353.023 919.195 563.779 630.983M175.441 1176.05C333.567 964.228 488.175 745.533 564.193 635.185M180.132 1176.26C267.245 1049.28 355.883 926.495 565.899 638.398M189.43 1172.1C296.049 1019.19 403.639 867.169 568.682 642.548M194.912 1169.1C309.107 1004.74 424.857 845.469 569.349 644.368M202.993 1166.18C303.229 1027.19 403.688 887.251 573.569 651.526M209.016 1164.97C350.348 967.735 491.092 767.874 575.082 656.024M215.966 1161.14C305.325 1038.89 396.582 915.214 574.962 658.294M224.412 1159.1C306.546 1035.19 393.403 916.955 576.383 663.569M231.267 1155.01C336.28 1001.82 446.662 849.541 577.312 671.234M238.057 1150.18C333.795 1009.83 433.728 872.034 580.474 676.315M242.413 1148.06C317.178 1053.1 388.728 954.326 580.788 679.323M252.519 1146.54C344.49 1017.06 437.397 889.909 581.277 684.505M258.333 1143.24C367.881 987.9 477.119 836.14 581.397 692.255M264.088 1141.61C387.676 967.111 509.394 793.848 583.155 695.534M271.366 1138.89C366.495 1007.98 457.102 879.312 585.194 704.05M276.838 1138.71C398.063 966.705 517.363 796.571 583.827 709.198M284.09 1132.36C361.219 1025.33 438.443 919.456 582.636 716.721M292.247 1128.78C376.596 1005.47 463.218 885.125 585.172 724.343M302.212 1125.87C350.849 1060.37 397.83 991.532 445.5 926.284M444.843 923.748C496.076 850.948 547.209 780.339 581.367 729.117M307.749 1122.49C345.635 1060.03 390.632 1006.57 441.404 935.55M447.741 919.368C490.191 865.016 530.016 808.532 583.803 736.141M319.45 1118.66C366.793 1050.32 412.531 977.825 445.839 939.552M461.122 918.054C489.766 878.883 523.91 832.435 582.846 742.566M323.513 1113.44C358.978 1066.37 391.235 1025.97 442.519 947.752M465.978 916.41C505.403 863.604 545.82 804.438 583.956 753.886M336.907 1108.47C375.881 1052.51 409.757 1005.42 443.04 950.146M475.226 908.456C509.071 864.062 551.652 807.713 574.437 764.354M341.487 1098.45C382.413 1041.79 422.842 987.281 443.184 954.83M482.133 905.676C504.968 869.254 531.604 833.331 572.583 775.837M352.569 1094.01C373.876 1066.1 399.215 1025.78 442.918 963.113M489.286 903.897C505.091 878.002 526.409 851.914 573.994 789.389M362.155 1090.89C383.588 1053.93 411.504 1023.61 441.521 976.561M501.707 893.087C517.164 867.672 541.388 835.913 567.302 803.913M373.327 1085.17C387.876 1059.38 399.287 1037.43 438.654 986.768M515.979 874.276C531.238 865.069 542.624 849.119 556.497 826.82M375.898 1078.72C393.666 1057.62 407.517 1043.51 437.053 996.127M390.16 1064.56C403.57 1047.08 414.355 1040.7 434.114 1008.74M-482.582 48.3734V48.3734ZM-498.657 1031.33V1031.33ZM217.127 795.384V795.384Z" stroke="#454545" stroke-width="0.1" stroke-linecap="round"/>
</svg>
