<svg width="655" height="1233" viewBox="0 0 655 1233" fill="none" xmlns="http://www.w3.org/2000/svg">
<path d="M1076.4 65.2404C1067.97 55.3147 1067.13 53.1621 1056.59 43.5398M1077.7 78.6763C1065.04 56.419 1053.54 33.2405 1041.48 22.162M1078.49 83.1161C1069.99 64.1405 1055.06 41.2041 1032.7 18.66M1082.53 93.8085C1057.58 63.4658 1037.68 40.249 1027.73 17.1607M1081.6 102.461C1065.75 72.6997 1044.15 49.4053 1010.85 6.41427M1083.22 104.881C1060.36 78.2696 1038.66 50.0551 1009.75 6.43746M1080.09 111.969C1060.91 75.3747 1028.01 43.091 998.785 0.33483M1082.42 118.732C1053.84 75.9581 1027.95 39.6824 994.402 2.29636M1085.44 125.406C1047.43 85.6387 1020.83 38.1547 992.417 5.88668M1080.26 130.336C1039.8 86.1096 1011.38 34.3308 986.746 1.34473M1075.96 139.374C1053.13 101.905 1022.56 56.0694 983.143 0.55084M1076.98 142.775C1050.17 104.699 1028.84 76.043 972.664 6.02863M1076.96 146.85C1056.58 114.26 1031.23 84.271 970.748 2.98464M1071.19 147.178C1038.82 101.146 1002.66 54.3835 965.387 4.86553M1073.73 155.163C1048.75 120.477 1025.01 88.1374 963.236 2.93236M1064.62 161.058C1045.13 123.138 1024.32 99.5425 955.86 6.87864M1069.72 159.676C1031.13 110.924 995.628 59.387 951.804 4.81373M1062.22 164.763C1019.35 105.083 977.898 40.0762 952.072 8.74633M1059.64 166.514C1035.53 128.093 1003.59 90.1723 946.757 4.72612M1055.85 168.906C1038.58 135.129 1008.41 99.8389 943.027 11.5616M1054.22 171.728C1026.87 129.099 1000.16 86.4263 940.911 11.1794M1056.43 182.077C1020.63 128.422 983.547 80.8273 936.118 8.82289M1054.94 179.177C1023.39 140.297 993.378 95.2324 934.655 14.3586M1050.05 186.176C1017.63 140.115 982.872 97.019 924.243 13.243M1044.58 185.084C1013.3 149.073 982.649 102.677 924.693 20.9011M1047.21 189.86C1013.4 143.71 978.185 103.017 920.345 17.9379M1038.19 195.943C994.244 129.249 949.147 69.834 917.988 24.5564M1038.27 196.039C1005.64 158.307 973.735 114.77 916.906 23.1694M1033.76 200.874C1010.81 164.395 980.911 127.576 913.753 27.1348M1032.26 202.988C992.874 147.659 961.404 96.2656 906.78 26.4238M1031.96 209.457C996.05 159.358 959.662 107.448 902.875 32.4992M1024.92 211.181C986.67 142.061 936.913 81.1142 900.7 38.1863M1027.79 210.753C997.448 175.942 973.121 136.357 898.314 41.2097M1019.72 215.914C983.342 164.045 941.315 107.672 896.125 39.7527M1022.68 216.855C985.607 164.65 948.264 116.948 894.623 43.1759M1015.56 224.393C976.2 161.645 932.67 105.881 890.78 50.3688M1010.63 226.988C988.292 191.9 960.973 152.331 886.13 51.6463M1009.22 230.203C970.589 172.386 929.466 117.028 886.111 56.6674M1007.3 228.891C969.962 181.787 934.561 133.454 882.073 57.5911M1002.91 230.012C967.55 182.753 928.934 128.769 878.722 64.622M999.702 236.371C956.995 165.39 911.029 98.9884 878.345 68.5714M996.459 239.775C962.517 183.452 921.941 131.074 874.719 67.7324M992.449 239.85C953.329 184.669 916.402 132.734 876.76 73.9305M996.173 246.986C964.166 211.83 938.233 172.572 874.068 76.4803M992.516 244.341C952.782 191.391 918.534 142.517 868.701 79.8649M986.944 251.81C950.53 197.917 920.134 147.688 861.646 81.4669M986.235 248.967C935.086 187.009 888.386 119.101 862.853 81.746M978.819 258.057C953.038 221.54 923.783 185.543 861.997 84.5384M975.187 258.527C939.745 205.471 902.803 150.712 853.234 91.5794M977.269 258.532C934.653 205.271 901.283 156.044 852.885 89.3014M972.431 261.484C945.909 227.559 919.404 191.113 847.904 94.7708M969.497 266.077C933.29 217.055 897.367 168.659 847.061 97.3611M962.535 270.358C942.469 236.206 921.042 203.167 841.185 101.571M966.052 268.477C924.686 223.592 892.122 175.344 842.013 104.076M962.531 274.157C916.875 221.726 881.575 162.758 837.913 105.819M958.462 277.872C917.255 223.16 879.315 162.427 836.335 109.084M951.173 276.679C923.393 237.447 893.247 198.865 834.606 111.888M949.22 282.822C913.388 236.078 880.703 189.486 829.45 109.426M948.785 284.088C916.04 240.578 888.02 192.028 828.375 113.41M944.235 284.831C908.843 241.258 872.152 193.035 823.981 118.423M944.111 285.929C909.397 242.933 881.133 196.757 817.172 120.157M938.88 291.68C899.21 227.766 850.068 163.692 820.271 120.658M931.743 296.708C894.052 233.811 848.735 173.921 816.581 121.585M930.077 298.143C905.662 261.784 882.415 221.819 810.426 127.985M924.992 297.719C891.12 249.378 860.495 200.961 807.518 127.461M924.264 296.978C887.647 248.855 850.851 204.456 800.772 131.092M925.202 301.398C884.445 251.263 839.403 198.719 803.441 132.998M918.626 307.581C892.156 263.183 855.347 220.878 796.011 134.387M914.228 309.894C882.612 265.637 852.112 219.185 795.78 141.809M908.759 308.079C863.216 246.668 821.13 186.786 794.283 139.16M910.783 312.97C883.097 276.281 856.782 235.119 784.793 141.359M904.265 313.588C861.607 258.024 826.697 197.138 780.778 145.066M901.688 315.401C876.939 276.324 846.253 241.222 778.505 149.949M896.606 317.074C861.986 268.674 826.426 217.862 778.427 150.704M896.41 324.432C855.773 262.413 813.718 204.334 774.541 156.138M892.687 321.614C862.486 287.421 836.268 251.176 772.079 152.957M885.77 322.373C859.73 285.255 834.206 244.065 770.767 157.96M887.481 325.845C839.616 261.523 789.479 197.931 764.621 157.979M884.632 327.593C849.393 276.123 813.007 229.618 758.212 161.227M880.237 334.018C852.165 285.151 820.398 246.004 759.648 163.829M878.42 334.787C847.094 291.544 813.471 252.657 753.219 165.664M871.674 339.439C841.422 293.023 808.937 247.354 748.096 172.129M871.651 341.011C820.072 276.737 772.807 212.525 749.011 169.036M865.868 340.351C835.065 292.476 800.806 241.404 744.892 173.961M859.351 341.972C812.67 276.117 766.101 206.265 745.051 172.465M857.851 343.333C825.263 291.121 785.643 244.295 740.198 178.557M856.499 347.276C812.053 288.632 767.543 233.115 733.772 176.444M851.328 352.047C816.018 298.278 778.982 249.41 732.695 179.118M849.396 353.275C820.119 317.102 786.17 275.611 730.646 183.876M844.659 351.68C821.104 318.311 791.571 277.675 724.031 184.372M840.142 357.936C815.901 317.824 794.748 282.527 720.704 184.825M835.091 355.649C803.105 307.686 764.566 258.897 715.422 191.415M837.802 357.422C797.966 311.751 763.974 257.648 710.603 194.097M828.105 361.876C798.259 313.238 760.037 259.803 709.838 191.933M827.646 365.178C780.966 303.405 735.864 241.577 705.024 198.852M823.206 363.203C781.77 300.934 736.098 238.222 706.2 195.312M817.93 367.404C790.243 328.636 760.846 288.423 696.845 201.926M820.428 367.694C791.392 332.828 766.63 296.093 699.299 202.557M817.895 370.258C764.103 305.032 723.634 245.535 693.386 206.532M812.541 376.378C776.935 331.331 740.919 282.066 689.834 206.876M807.433 376.397C777.81 342.19 756.878 304.888 686.218 210.976M804.972 378.322C769.766 322.277 726.875 267.518 681.637 208.69M798.527 380.728C770.695 336.893 735.059 288.245 682.168 214.379M795.205 379.745C763.547 341.687 732.568 295.986 674.144 217.093M793.757 383.594C748.061 331.094 713.439 276.069 670.212 216M790.702 386.127C741.304 326.428 693.061 260.203 672.441 218.444M790.626 387.144C757.979 353.426 733.188 323.275 666.768 219.441M783.876 390.848C756.307 359.263 730.899 320.404 663.812 219.651M780.411 393.559C742.072 334.552 702.794 280.68 662.081 222.749M778.113 396.718C730.631 328.583 685.788 261.316 655.922 225.023M773.979 396.313C740.445 351.863 713.456 310.589 649.042 227.734M772.981 399.684C732.541 350.042 692.317 290.84 645.375 228.349M764.411 399.863C734.013 360.056 695.552 307.819 643.091 232.81M765.812 402.346C724.567 354.667 686.202 297.15 639.907 234.162M760.606 402.665C719.452 349.507 676.252 289.193 637.515 235.931M758.651 408.999C725.464 363.38 692.463 324.066 633.842 242.168M752.242 411.814C713.256 357.199 674.165 297.382 631.946 237.723M748.385 411.2C719.822 371.115 692.445 335.083 629.992 245.756M744.688 411.17C720.172 375.962 690.556 333.221 622.675 245.3M741.952 412.782C707.717 372.113 675.53 328.216 624.198 248.392M740.736 422.032C694.46 360.65 646.884 298.802 619.151 250.864M738.729 420.755C683.237 352.193 639.613 288.062 611.548 248.038M733.163 422.45C704.365 380.381 673.753 339.706 610.27 257.392M728.594 427.719C690.061 372.897 656.626 324.618 603.289 257.695M722.04 428.724C685.587 378.341 645.21 319.273 603.183 254.275M719.736 426.727C695.944 390.156 667.512 351.173 598.821 261.876M718.852 427.61C683.492 388.706 654.014 342.777 597.484 260.493M712.081 431.286C669.054 376.5 630.512 319.974 592.605 264.911M712.863 437.307C673.316 372.413 633.343 316.721 592.608 265.221M705.468 433.768C684.175 402.67 656.652 367.005 582.937 267.944M701.606 437.299C662.951 375.16 614.451 315.856 585.481 269.324M699.951 444.186C674.212 403.881 645.887 362.378 582.735 272.725M699.292 440.603C666.148 389.334 625.508 340.042 578.15 275.784M691.013 441.556C657.907 396.467 622.2 350.311 574.592 273.95M689.807 446.235C654.422 394.101 618.655 350.999 568.594 275.311M688.578 446.778C656.436 406.765 620.451 360.799 568.935 277.123M683.493 451.46C657.291 417.829 633.295 377.029 560.18 280.965M682.214 455.164C651.913 410.022 615.265 367.974 559.537 285.555M679.409 454.358C632.799 394.372 592.411 339.907 557.677 285.868M671.176 456.719C636.413 397.421 589.515 341.171 549.828 287.911M1088.75 1042.2C1081.92 1023.9 1067.2 1006.73 1056.71 1002.21M671.998 460.57C636.311 409.581 597.925 365.304 551.299 293.689M1093.06 1055.18C1083.04 1036.59 1062.42 1017.31 1047.49 996.076M669.282 465.019C631.234 405.004 587.784 355.022 547.98 293.684M1094.11 1064.89C1078.44 1044.61 1065.47 1022.12 1037.37 988.841M661.014 464.553C614.788 402.111 565.838 330.559 544.084 294.951M1094.33 1070.74C1075.66 1047.34 1055.1 1013.2 1035.91 987.388M658.485 466.757C620.331 413.124 588.094 366.303 538.397 300.613M1097.2 1085.93C1077.67 1048.24 1050.37 1022.91 1025.02 988.262M656.178 469.7C617.551 415.443 577.731 358.243 536.105 300.654M1096.64 1088.49C1068.34 1054.29 1040.92 1018.31 1018.38 981.604M651.168 471.792C610.248 414.763 567.727 354.578 533.975 300.223M1095.1 1097.7C1062.37 1051.42 1032.87 1013.23 1016.56 985.456M651.392 474.521C605.581 403.102 555.924 340.837 525.542 304.311M1098.31 1099.2C1066.42 1061.94 1035.14 1022.67 1008.24 985.142M643.763 471.891C602.059 410.023 557.057 348.443 523.202 308.059M1092.67 1110.11C1075.33 1076.27 1047.35 1043.28 1004.45 984.579M646.024 474.082C599.884 416.2 562.674 363.193 518.155 309.331M1093.65 1116.19C1073.24 1083.6 1046.27 1048.8 997.113 979.689M642.463 478.605C600.342 419.943 562.063 368.703 514.727 309.9M1095.21 1115.27C1068.72 1084.95 1043.69 1050.01 995.506 979.704M634.688 477.155C596.298 425.606 557.078 372.648 513.115 312.237M1087.5 1123.94C1057.29 1071.44 1016.5 1014.84 989.141 979.616M628.788 479.636C590.469 430.933 550.553 379.886 509.462 310.746M1088.87 1126.51C1063 1085.95 1033.97 1054.28 986.803 980.817M632.171 485.224C586.604 426.328 550.096 367.234 504.767 314.792M1083.8 1130.46C1054.58 1082.9 1019.68 1043.42 980.825 982.019M627.156 484.131C599.398 451.842 566.729 417.811 503.782 315.616M1084.88 1134.67C1058.34 1092.43 1026.86 1059.66 978.039 986.35M618.851 485.532C584.841 443.8 553.858 395.425 500.197 321.862M1083.68 1138.45C1056.22 1092.75 1025.56 1054.49 973.771 982.933M620.448 492.708C577.205 430.094 535.027 375.32 496.974 320.192M1079.79 1138.9C1035.27 1081.38 993.652 1021.93 964.645 982.728M618.183 491.653C578.584 438.552 539.581 385.85 496.122 321.574M1078.36 1144.16C1045.51 1100.61 1007.65 1052.05 964.554 984.589M614.653 495.743C572.593 429.583 525.386 369.194 489.176 328.968M1077.97 1150.27C1032.7 1081.52 985.606 1022.32 962.427 983.51M606.564 500.391C561.929 437.228 524.042 376.835 488.257 326.156M1075.16 1149.32C1044.1 1113.87 1017.68 1079.66 957 986.368M605.957 498.916C562.489 437.105 513.461 377.774 485.604 329.585M1072.86 1156.95C1042.42 1114.97 1008.67 1070.81 954.167 991.979M601.388 503.763C564.149 444.927 524.008 393.109 480.806 333.791M1068.04 1158.97C1021.79 1094.08 975.749 1027.58 943.877 993.318M595.547 505.532C559.303 447.635 516.48 390.289 477.994 336.171M1063.02 1161.5C1025.88 1108.43 991.054 1062.69 944.512 991.596M591.763 502.348C541.821 438.513 499.666 368.024 474.925 338.079M1058.1 1162.09C1017.78 1098.88 969.698 1040.7 939.177 993.645M587.852 506.547C548.268 451.373 508.069 390.041 466.524 334.462M1056.95 1166.98C1029.88 1124.62 1003.73 1089.36 934.061 991.924M589.682 507.808C543.872 455.453 508.365 397.424 465.889 340.819M1052.29 1166.41C1019.78 1120.81 984.543 1075.04 928.777 995.803M581.379 509.266C535.596 452.342 489.989 387.19 459.863 341.786M1049.51 1171.41C1019.09 1127.32 990.763 1084.43 924.64 995.902M579.011 515.727C556.425 470.21 520.266 432.387 457.118 341.817M1050.69 1173.21C1006.89 1123.14 970.596 1068.47 924.59 997.457M576.105 518.592C533.576 454.22 485.475 387.269 458.32 347.246M1043.24 1177.05C1006.06 1120.69 971.768 1070.55 916.659 996.758M573.912 515.642C545.175 474.084 511.677 433.545 452.034 346.289M1044.87 1175.69C1015.31 1130.13 984.418 1088.25 914.768 997.789M570.59 521.61C544.224 479.492 514.871 443.868 448.739 347.433M1038.58 1179.81C1000.34 1128.24 969.469 1076.42 912.778 1000.95M570.296 521.364C528.581 475.06 499.626 430.366 447.439 354.54M1033.97 1183.21C993.872 1127.22 962.962 1077.86 902.499 1003.04M561.608 526.59C530.026 474.249 496.811 426.441 444.064 356.975M1029.04 1178.26C983.422 1120.68 939.539 1055.73 903.831 1003.05M560.334 525.053C532.918 481.658 498.835 435.832 438.201 357.77M1027.46 1186.29C989.492 1138.65 959.887 1087.53 895.864 1004.58M554.16 525.271C518.8 483.008 484.543 429.649 436.392 357.483M1018.41 1183.7C994.643 1142.06 965.463 1100.61 891.299 1006.06M553.291 527.729C510.03 468.53 465.056 399.339 428.34 364.441M1017.98 1188.47C973.823 1118.5 921.039 1053.69 884.605 1005.75M548.62 531.797C507.868 474.385 474.898 423.868 429.683 360.635M1017.42 1188.81C978.787 1131.57 943.965 1087 882.123 1001.6M544.21 531.133C522.771 495.467 491.747 457.408 426.234 365.855M1012.3 1188.85C970.761 1139.17 938.121 1084.53 876.991 1006.02M542.294 536.956C496.424 472.021 443.071 401.974 423.124 364.549M1005.27 1189.02C972.455 1141.21 935.187 1087 874.495 1009.8M540.118 540.124C507.216 483.922 467.383 434.739 419.914 367.774M1002.54 1188.98C972.658 1151.35 940.278 1100.27 872.174 1006.75M539.015 540.137C485.2 467.945 439.432 402.81 413.533 372.956M998.694 1191.79C968.321 1154.58 941.199 1118.19 868.248 1011.78M529.748 543.039C481.405 476.115 436.827 410.966 408.375 372.116M993.927 1195.53C968.485 1149.62 936.929 1116.28 862.932 1010.11M531.553 547.954C483.391 485.113 439.278 420.898 405.067 378.263M991.176 1194.9C941.725 1120.6 886.35 1050.27 859.964 1011.73M525.23 549.443C501.542 513.599 478.339 475.089 403.308 375.944M982.011 1196.9C944.68 1139.21 899.913 1079.23 856.567 1008.47M522.617 549.339C492.778 510.065 468.087 474.85 403.579 377.105M979.276 1198.14C945.467 1153.45 908.639 1104.83 846.496 1015.04M521.85 553.96C492.35 516.118 468.764 476.888 397.968 379.701M979.391 1198.04C942.428 1155.54 910.609 1110.36 845.709 1010.86M517.686 550.863C489.81 514.13 466.246 477.725 392.542 380.58M976.602 1196.38C942.153 1150.99 910.481 1105.28 838.477 1014.73M512.493 556.647C474.611 499.733 429.872 450.049 392.229 383.91M966.403 1200.15C940.161 1153.33 910.37 1115.8 834.613 1013.5M509.711 557.959C464.925 489.777 411.978 423.533 389.886 388.953M966.899 1198.82C928.155 1145.89 888.398 1089.44 833.628 1013.63M502.451 556.627C477.564 520.911 452.442 476.502 382.202 387.563M963.069 1199.29C931.203 1161.9 899.221 1117.73 827.451 1016.98M500.922 559.944C462.007 501.073 414.348 445.042 380.806 395.445M959.557 1203.48C914.08 1146.34 874.876 1091.84 824.327 1017.57M500.06 566.026C452.224 495.436 399.456 431.304 378.189 396.294M953.6 1200.88C921.679 1154.46 885.551 1109.58 818.08 1019.3M495.734 563.772C449.561 499.03 395.795 434.336 374.598 392.929M950.834 1205.31C921.792 1163.94 889.569 1119.18 812.086 1014.11M489.497 569.286C466.748 528.194 436.421 487.85 373.423 395.869M944.937 1207.57C908.089 1156.21 874.522 1113.08 808.008 1017.57M491.475 567.263C442.06 512.806 397.377 447.311 363.376 402.728M938.14 1208.66C887.251 1137.43 841.317 1069.73 801.884 1017.97M481.55 572.79C445.505 520.63 402.2 462.116 363.556 401.842M939.039 1209.5C891.758 1152.51 854.79 1090.5 798.464 1021.89M482.384 571.903C444.988 521.886 405.182 474.626 357.202 405.113M931.696 1211.08C895.292 1156.1 864.459 1111.69 796.08 1017.33M476.179 576.191C442.278 533.127 416.39 486.238 352.503 409.157M926.212 1211.06C885.264 1152.31 845.171 1088.99 788.608 1016.81M475.159 575.225C434.356 523.531 392.746 466.654 353.133 407.333M924.239 1209.53C885.101 1161.19 852.384 1109.56 789.334 1017.64M473.316 579.669C426.713 514.619 385.029 453.458 348.59 410.301M921.435 1210.57C892.007 1165.38 858.096 1126.15 780.011 1021.69M466.075 583.085C437.451 546.879 410.474 504.337 347.975 410.822M914.083 1209.36C872.128 1159.45 839.336 1110.51 779.428 1023.78M463.052 585.788C424.861 524.053 381.93 475.351 341.602 416.297M911.762 1212.67C870.1 1151.11 825.047 1096.7 769.327 1024.5M462.883 588.953C419.169 528.322 381.024 473.742 341.243 415.973M903.583 1211.52C851.054 1142.25 797.575 1073.21 770.22 1020.16M456.604 590.376C416.284 535.021 384.477 483.078 334.803 421.112M903.972 1213.41C851.639 1143.01 803.913 1078.36 761.262 1021.89M451.559 586.356C411.81 537.804 378.013 485.53 330.825 422.611M898.795 1217.39C848.433 1146.58 795.873 1080.12 758.821 1024M450.616 590.538C402.418 533.467 358.456 467.692 325.303 419.067M894.742 1217.1C835.847 1140.68 786.534 1068.39 752.393 1024.31M448.56 591.781C413.563 544.633 377.16 495.343 327.201 423.075M884.982 1218.43C846.042 1165.88 809.74 1109.16 751.89 1020.75M444.501 595.764C416.468 561.192 393.293 520.552 322.539 428.188M886.631 1219.59C854.274 1175.91 826.444 1129.81 743.432 1022.48M440.209 595.996C397.337 538.072 357.597 477.305 320.032 425.62M880.696 1215.12C843.566 1173.46 815.565 1125.51 738.658 1025.06M436.972 598.727C403.932 559.541 375.292 508.672 310.18 432.669M873.001 1219.67C842.058 1177.2 813.76 1131.38 736.187 1020.75M434.544 601.883C398.124 556.477 365.088 510.828 309.97 433.978M868.956 1220.75C835.012 1174.13 803.679 1130.8 727.943 1022.83M429.402 602.703C395.121 556.553 358.502 504.922 307.404 433.474M862.038 1215.68C814.913 1144.52 763.783 1078.65 726.418 1024.2M424.803 604.27C386.875 554.957 354.041 506.296 302.324 438.057M861.9 1217.4C806.776 1142.72 749.838 1069.14 721.613 1025.01M418.87 609.97C397.083 568.634 374.391 533.249 300.646 438.441M857.731 1219.56C824.66 1182.7 797.393 1136.89 712.586 1022.18M419.949 611.996C387.792 557.398 351.105 506.358 292.847 440.397M852.951 1218.31C817.827 1178.16 791.761 1134.68 708.913 1023.37M417.281 608.602C368.23 552.701 328.825 494.498 289.354 438.922M844.426 1222.9C818.296 1176.85 790.127 1128.73 704.596 1019.36M408.316 610.875C375.087 559.911 340.579 510.087 291.506 442.266M844.167 1222.1C811.741 1185 781.879 1138.53 699.879 1017.84M409.358 615.944C370.619 574.17 338.379 525.679 284.332 446.016M837.865 1222.84C791.019 1164.07 750.525 1106.59 690.45 1018.68M403.126 618.896C364.328 568.354 332.649 517.375 282.5 444.673M829.654 1221.32C784.926 1149.79 728.022 1076.97 685.605 1016.28M400.959 620.637C358.356 561.813 313.438 502.191 279.793 450.407M825.371 1220.47C797.049 1178.07 763.988 1134.82 682.086 1019.47M398.932 620.533C372.037 580.464 344.448 547.718 274.12 449.341M824.762 1222.75C765.391 1145.16 710.989 1064.23 678.527 1019.7M389.716 622.822C362.624 578.612 327.384 528.358 272.657 454.908M817.127 1223.47C785.415 1175.78 746.091 1117.11 675.888 1018.83M390.196 621.712C361.41 585.429 338.376 553.262 269.17 453.317M817.214 1222.18C771.399 1154.8 720.08 1089.99 666.9 1021.46M387.726 624.606C342.059 568.696 293.756 508.484 264.368 455.567M808.618 1222.24C759.663 1153.77 702.82 1082.02 663.024 1019.3M379.09 628.493C341.479 567.276 298.483 510.03 256.956 458.616M807.655 1227.73C763.286 1173.63 728.708 1114.95 655.979 1019.32M378.504 627.647C346.926 581.531 315.662 539.02 253.902 460.332M802.185 1226.12C770.954 1177.67 734.855 1126.96 651.747 1019.76M376.982 629.523C323.553 566.147 276.091 497.658 250.968 463.913M797.732 1223.7C754.605 1170.02 715.969 1107.4 648.536 1015.4M371.359 631.594C341.289 585.221 309.187 537.368 250.131 462.166M792.045 1227.31C759.677 1176.15 722.365 1126.32 644.519 1015.37M366.282 634.276C324.605 579.108 279.567 520.02 248.996 462.876M785.927 1225.65C760.805 1184.58 726.199 1140.55 637.945 1018.23M368.054 636.306C326.329 581.966 287.009 523.122 240.621 467.726M785.087 1230.64C734.075 1158.36 682.769 1082.28 627.874 1015.3M363.619 637.374C312.886 575.903 264.398 505.771 238.135 468.825M777.321 1226.17C729.372 1157.76 676.006 1081.64 625.979 1013M360.626 641.304C333.085 604.009 306.435 574.068 231.104 471.339M776.315 1231.04C736.947 1186.51 704.902 1141.35 621.459 1015.44M353.66 640.281C307.73 581.087 267.223 519.186 233.245 475.588M765.495 1231.31C729.856 1177.11 696.4 1128.03 613.105 1015.4M353.121 643.326C326.733 611.345 298.697 573.314 225.126 475.667M763.988 1232.2C721.335 1168.82 678.818 1115.29 607.082 1013.88M345.372 648.819C297.816 579.684 245.681 512.218 224.728 473.651M762.236 1229.53C703.493 1147.22 645.27 1065.95 604.961 1014.05M343.406 646.261C293.918 582.043 247.991 518.326 220.7 474.832M753.577 1231.59C705.331 1167.7 661.319 1104.5 595.099 1012.14M336.868 648.259C301.714 603.374 264.706 548.573 218.384 475.54M748.19 1226.1C688.579 1146.16 631.309 1070.2 593.138 1010.08M333.431 650.836C303.883 612.136 279.192 571.08 209.841 481.536M746.507 1227.6C704.975 1164.96 657.446 1104.75 583.523 1009.25M331.413 656.829C297.195 597.444 251.332 545.849 205.585 482.063M739.242 1231.29C687.156 1147.69 632.392 1069.47 579.051 1006.59M325.893 655.982C294.406 608.519 254.626 555.34 205.116 485.275M736.845 1230.18C691.207 1168.63 644.616 1110.09 575.537 1006.77M325.584 660.066C292.501 609.734 261.62 568.21 201.175 484.854M731.798 1232.56C676.114 1153.1 626.662 1081.21 567.379 1002.37M319.223 657.332C281.689 607.32 242.552 549.651 199.267 487.774M724.443 1227.39C676.236 1152.72 621.35 1079.98 561.76 1003.24M320.557 658.95C286.279 612.075 254.613 570.365 194.339 489.145M720.749 1228.2C672.917 1169.22 631.016 1101.4 558.667 1005.36M313.142 661.569C284.819 623.824 256.937 578.592 188.384 492.229M715.565 1228.18C681.043 1176.14 646.731 1131.37 554.079 1004.79M309.134 666.012C269.584 612.846 234.212 559.808 182.843 493.006M709.221 1229.4C659.552 1158.09 610.991 1094.25 547.111 1003.59M307.599 669.092C275.382 622.391 249.618 584.253 185.181 494.309M702.954 1230.53C671.886 1184.26 633.639 1134.45 540.766 999.987M302.83 669.183C261.645 607.51 221.847 548.971 181.767 495.375M702.559 1231.76C652.717 1163.71 600.824 1093.15 534.568 998.472M295.699 667.537C264.496 618.799 230.752 567.361 177.331 499.02M693.528 1231.24C646.724 1166.04 599.737 1101.49 529.112 998.6M295.652 671.509C252.947 610.234 204.711 557.675 174.201 502.089M687.982 1226.59C639.976 1162.27 587.04 1094.28 520.495 996.348M294.479 672.216C243.111 608.683 197.366 541.974 165.087 499.936M684.584 1231.7C640.861 1168.54 597.39 1103.14 516.457 994.024M289.051 678.351C248.661 621.811 211.877 566.435 161.698 502.63M679.017 1228.48C634.006 1167.58 590.761 1102.3 506.764 989.969M286.154 677.26C249.596 625.985 214.033 579.162 162.725 506.478M677.124 1231.93C626.09 1161.2 574.719 1094.83 502.645 992.302M376.938 817.202C370.351 804.417 360.067 795.211 348.292 777.292M278.25 676.648C229.439 612.409 184.689 544.831 157.287 503.108M671.069 1229.14C602.308 1141.32 537.196 1052.15 495.068 985.53M383.855 834.321C377.789 816.782 365.456 797.134 338.818 767.555M280.03 683.622C229.71 612.479 180.877 551.007 155.825 507.407M665.287 1227.96C605.629 1147.71 541.505 1059.13 488.123 985.423M396.75 855.426C381.517 831.033 367.494 810.612 327.49 759.653M273.948 682.825C223.709 614.59 178.48 547.209 145.27 510.443M661.759 1229.97C624.942 1176.78 588.116 1131.91 483.227 983.827M393.261 859.429C372.675 832.829 354.601 804.978 324.898 753.997M270.854 686.416C231.51 633.523 196.396 584.822 143.048 511.81M654.908 1224.72C605.052 1156.71 551.095 1084.04 475.699 982.63M399.321 870.775C379.01 840.425 360.846 818.833 313.753 753.307M265.902 683.046C225.879 633.861 184.672 578.917 144.195 513.063M652.321 1224.47C599.773 1157.25 552.016 1086.23 470.498 978.955M396.758 872.348C369.73 839.818 349.538 807.551 306.22 751.55M264.491 687.5C235.119 651.566 210.786 619.777 140.563 516.48M643.459 1223.24C599.112 1158.2 556.306 1096.6 462.781 975.307M398.512 879.358C359.709 825.772 318.529 778.044 294.263 745.577M258.561 688.062C211.944 617.925 162.278 550.247 138.052 521.341M639.243 1228.05C573.965 1137.61 513.936 1052.03 454.947 969.727M397.605 888.893C365.276 844.848 332.941 800.239 288.715 742.393M250.878 693.532C215.589 640.8 183.206 588.466 132.807 520.468M631.405 1222.46C584.621 1149.81 532.238 1075.66 449.216 971.83M398.723 897.407C355.059 831.739 310.745 778.827 282.918 743.4M248.525 694.685C212.764 633.979 178.7 586.492 127.642 522.907M626.778 1223.83C573.341 1146.26 520.891 1075.79 444.439 966.891M393.431 900.216C355.456 849.622 318.716 796.42 279.571 742.968M244.624 692.148C218.409 656.018 189.084 619.655 128.282 523.072M625.159 1221.97C563.949 1140.48 501.457 1056.21 436.569 961.363M393.996 906.968C360.59 858.201 323.358 811.372 274.919 740.582M245.543 694.297C199.461 637.931 160.337 587.305 124.956 527.171M614.764 1224.77C564.067 1142.5 506.173 1064.98 427.543 959.366M393.315 911.784C365.824 870.91 339.041 832.929 271.062 738.654M238.113 698.819C194.605 633.285 150.669 574.367 115.11 530.989M613.354 1220.71C554.73 1145.77 499.906 1064.49 423.328 956.507M392.178 913.141C352.637 860.235 316.922 810.072 260.341 739.283M237.277 697.09C208.049 660.241 186.026 619.724 112.147 526.89M607.408 1221C549.547 1142.43 486.434 1061.12 415.1 957.944M386.257 921.998C349.013 861.556 310.645 804.2 255.848 733.997M234.827 700.159C203.465 660.647 175.033 621.672 110.777 531.491M600.679 1222.86C562.002 1165.45 513.385 1105.13 406.536 952.604M386.559 926.846C361.194 882.65 326.99 842.99 253.417 733.725M231.984 706.368C190.651 651.386 150.409 594.177 110.672 531.778M594.42 1219.63C527.059 1123.92 451.675 1027.85 401.247 948.706M388.616 926.447C348.308 869.919 309.688 815.762 245.545 735.98M226.082 705.247C188.136 647.165 146.677 595.769 106.744 534.685M592.611 1223.37C529.147 1134.39 467.029 1047.63 392.129 946.379M384.978 934.765C327.918 854.981 277.367 779.435 239.472 731.162M223.307 710.951C188.215 665.802 156.981 618.791 100.868 541.79M587.229 1218.54C540.047 1163.12 500.361 1101.74 384.937 939.566M382.823 935.669C333.406 867.306 287.708 795.617 235.043 729.343M221.005 708.136C191.094 667.792 159.743 619.582 97.798 543.124M580.245 1220.17C455.177 1044.76 328.224 866.967 228.712 733.102M218.096 711.235C181.702 658.347 142.872 608.113 98.0262 542.933M573.199 1218.34C499.592 1120.63 426.462 1016.16 225.609 732.315M209.694 716.563C182.931 670.233 151.35 629.874 88.6503 543.572M567.899 1218.44C433.651 1031.37 300.331 845.965 220.299 730.15M211.919 721.372C164.151 651.96 118.703 585.876 89.9769 546.934M561.966 1216C373.169 949.97 182.081 684.845 85.4786 551.418M555.741 1215.21C462.372 1085.42 367.685 949.268 83.0947 555.283M550.6 1214.15C419.2 1031.66 287.524 845.63 79.1445 556.72M546.551 1212.53C426.58 1045.71 305.53 874.665 76.2113 558.629M538.168 1212.49C387.18 998.242 230.163 785.608 73.0068 561.068M532.473 1208.57C392.912 1012.72 253.179 821.174 71.9765 566.281M529.189 1208.98C343.811 953.947 162.132 697.742 69.171 567.929M522.506 1206.12C428.855 1080.42 338.658 952.396 65.5135 571.585M516.606 1205.51C341.725 966.797 166.763 722.326 62.1747 574.875M510.976 1205.12C344.214 975.615 180.992 747.123 61.1207 576.321M504.424 1202.95C372.602 1019.06 242.907 835.426 57.7088 581.346M499.459 1203.62C325.537 961.33 152.124 717.991 55.8771 581.673M492.622 1202.3C402.246 1071.97 307.373 937.585 53.2932 585.319M485.497 1197.59C354.593 1008.69 220.205 823.282 49.4271 589.3M480.28 1197.35C317.663 973.588 159.668 752.516 46.2211 592.364M474.503 1194.3C359.691 1036.19 244.412 875.431 42.623 594.539M468.976 1194.19C291.685 955.791 121.522 717.142 40.7866 599.973M461.505 1190.39C363.501 1056.3 263.492 915.896 39.5772 603.829M453.804 1189.57C321.37 999.694 185.975 811.115 36.2118 606.696M449.371 1186.57C292.686 966.553 136.195 746.211 34.1028 609.629M441.563 1186.12C277.506 958.9 114.8 731.101 31.3682 613.292M437.284 1185.58C332.823 1041.97 230.486 899.032 31.6438 617.124M430.949 1182.42C278.53 970.303 129.518 760.306 27.5102 622.57M423.49 1179.63C295.173 1001.2 167.658 825.869 24.9308 624.303M418.949 1179.62C328.726 1050.87 233.219 919.195 22.4628 630.983M410.801 1176.05C252.675 964.228 98.0669 745.533 22.0495 635.185M406.111 1176.26C318.997 1049.28 230.359 926.495 20.3435 638.398M396.813 1172.1C290.194 1019.19 182.603 867.169 17.5597 642.548M391.331 1169.1C277.135 1004.74 161.385 845.469 16.8935 644.368M383.249 1166.18C283.013 1027.19 182.554 887.251 12.6734 651.526M377.226 1164.97C235.894 967.735 95.1506 767.874 11.1606 656.024M370.276 1161.14C280.917 1038.89 189.66 915.214 11.28 658.294M361.83 1159.1C279.697 1035.19 192.84 916.955 9.85872 663.569M354.976 1155.01C249.962 1001.82 139.58 849.541 8.92979 671.234M348.185 1150.18C252.447 1009.83 152.514 872.034 5.76828 676.315M343.829 1148.06C269.064 1053.1 197.514 954.326 5.4542 679.323M333.724 1146.54C241.752 1017.06 148.845 889.909 4.96508 684.505M327.909 1143.24C218.362 987.9 109.123 836.14 4.84481 692.255M322.154 1141.61C198.566 967.111 76.848 793.848 3.08756 695.534M314.876 1138.89C219.747 1007.98 129.141 879.312 1.0478 704.05M309.404 1138.71C188.179 966.705 68.8797 796.571 2.41492 709.198M302.152 1132.36C225.023 1025.33 147.799 919.456 3.60627 716.721M293.995 1128.78C209.646 1005.47 123.025 885.125 1.07059 724.343M284.03 1125.87C235.393 1060.37 188.412 991.532 140.742 926.284M141.399 923.748C90.1662 850.948 39.0331 780.339 4.87494 729.117M278.493 1122.49C240.607 1060.03 195.61 1006.57 144.838 935.55M138.501 919.368C96.0513 865.016 56.2265 808.532 2.43883 736.141M266.792 1118.66C219.449 1050.32 173.711 977.825 140.403 939.552M125.12 918.054C96.4762 878.883 62.3326 832.435 3.39584 742.566M262.73 1113.44C227.264 1066.37 195.007 1025.97 143.723 947.752M120.264 916.41C80.8389 863.604 40.422 804.438 2.28654 753.886M249.335 1108.47C210.361 1052.51 176.485 1005.42 143.202 950.146M111.016 908.456C77.171 864.062 34.5904 807.713 11.8052 764.354M244.756 1098.45C203.829 1041.79 163.4 987.281 143.058 954.83M104.109 905.676C81.2741 869.254 54.6382 833.331 13.6587 775.837M233.673 1094.01C212.366 1066.1 187.028 1025.78 143.324 963.113M96.9557 903.897C81.1508 878.002 59.8331 851.914 12.2481 789.389M224.087 1090.89C202.654 1053.93 174.738 1023.61 144.721 976.561M84.5349 893.087C69.0786 867.672 44.8543 835.913 18.9405 803.913M212.915 1085.17C198.366 1059.38 186.955 1037.43 147.589 986.768M70.2634 874.276C55.004 865.069 43.6181 849.119 29.7451 826.82M210.344 1078.72C192.576 1057.62 178.725 1043.51 149.189 996.127M196.082 1064.56C182.672 1047.08 171.887 1040.7 152.128 1008.74M1068.82 48.3734V48.3734ZM1084.9 1031.33V1031.33ZM369.115 795.384V795.384Z" stroke="#454545" stroke-width="0.1" stroke-linecap="round"/>
</svg>
