<svg width="365" height="99" viewBox="0 0 365 99" fill="none" xmlns="http://www.w3.org/2000/svg">
<path d="M39.9226 18.1362C57.8781 18.1362 76.185 13.4017 93.3027 10.376C101.74 8.88459 110.016 8.22858 118.673 7.46594C124.501 6.95259 132.546 6.03787 138.286 6.81926C154.296 8.9988 171.077 4.72995 186.988 6.35221C196.467 7.31873 207.142 6.49591 216.737 6.49591C226.615 6.49591 235.762 7.74563 245.526 8.29226C261.933 9.21072 278.896 8.89882 295.128 10.6994C306.386 11.9482 318.521 13.5748 326.676 18.4596C331.549 21.3786 338.585 22.1544 343.29 25.2857C348.548 28.7852 352.404 32.9819 357.744 36.4589C364.701 40.9882 362.377 47.56 362.824 53.5953C364.865 57.7876 363.942 60.1962 362.377 64.05C360.61 68.4016 360.348 70.0573 356.245 73.6073C352.421 76.9162 349.978 80.4272 344.129 82.8046C338.261 85.1899 330.779 87.0851 323.857 88.1217C299.673 91.7434 274.143 91.6698 249.425 92.5407C222.281 93.4971 195.591 96.3849 168.335 96.3849C159.078 96.3849 149.822 96.3849 140.565 96.3849C134.677 96.3849 128.939 97.0316 123.052 97.0316C117.586 97.0316 112.323 96.3849 106.858 96.3849C87.1672 96.3849 67.7761 94.4449 48.1396 94.4449C31.1229 94.4449 9.05706 87.8639 6.21518 77.2718C4.4874 70.8322 4.29587 63.6152 4.29587 57.0809C4.29587 51.6145 6.31851 45.681 9.69383 40.6264C17.9437 28.2723 34.0626 16.576 55.4568 12.0287C82.1775 6.34917 112.599 6.79975 140.325 9.44192C150.673 10.428 159.882 12.9627 170.314 12.9627C186.774 12.9627 202.526 11.2659 219.136 12.4598C232.164 13.3963 246.056 13.3712 258.841 14.9028C274.261 16.7501 291.006 16.442 305.504 20.7229M357.325 73.1043C350.007 81.3833 336.759 90.5683 321.698 93.4389C306.906 96.258 289.538 95.4731 274.315 96.3849C259.327 97.2827 243.41 98.908 228.372 97.3549C218.985 96.3854 209.22 96.7264 199.703 95.8819C189.386 94.9664 177.996 94.4449 167.555 94.4449C150.025 94.4449 132.293 93.7982 114.655 93.7982C99.6341 93.7982 84.7279 94.4449 69.6115 94.4449C55.2588 94.4449 41.176 92.2349 27.0274 91.1755C18.3949 90.5291 9.69 86.3908 6.69496 81.3675C4.21611 77.2099 5.02888 73.4995 4.23584 69.2242C3.17427 63.5013 0.399245 57.3886 1.11703 51.5841C2.54171 40.0634 11.9398 30.1053 26.9674 22.8067C44.3008 14.3883 65.7212 4.86945 88.2645 2.75952C123.289 -0.518525 161.535 1.12609 196.344 4.87921C213.959 6.7784 231.619 9.69398 249.365 11.0227C262.466 12.0037 275.677 13.0942 288.77 14.2561C298.282 15.1002 312.035 16.0391 320.378 18.9266" stroke="url(#paint0_linear_2679_18095)" stroke-width="1.1223" stroke-linecap="round"/>
<defs>
<linearGradient id="paint0_linear_2679_18095" x1="326.702" y1="13.804" x2="261.851" y2="139.665" gradientUnits="userSpaceOnUse">
<stop stop-color="#3CA0D2"/>
<stop offset="1" stop-color="#48DCA6"/>
</linearGradient>
</defs>
</svg>
