<svg width="55" height="62" viewBox="0 0 55 62" fill="none" xmlns="http://www.w3.org/2000/svg">
<path d="M4.83984 58.1084C9.684 55.1093 15.7049 54.8032 21.1863 54.169C23.9683 53.8326 26.7724 53.7078 29.5258 53.5107C32.3017 53.3684 35.0647 53.0387 37.7961 52.5237C35.3459 53.9869 32.5135 54.7271 29.7551 55.2581C26.9967 55.7891 24.1941 56.1011 21.4253 56.4158C15.8158 57.0224 10.349 56.7965 4.83984 58.1084Z" fill="#454545"/>
<path d="M41.1667 42.228C34.1786 36.2148 28.3384 28.999 22.038 22.3458C15.7038 15.5538 8.54778 8.62572 4.77942 0.000397014L5.17036 0.480451C5.31615 0.721379 5.43368 0.978303 5.52064 1.24614C5.34559 1.03331 5.24414 0.752902 5.04754 0.594952L5.18022 0.498266C7.87202 4.20449 10.8452 7.69793 14.0734 10.9476C17.2625 14.2491 20.5445 17.4563 23.7008 20.8118C29.9783 27.6047 35.4438 34.9652 41.1667 42.228Z" fill="#454545"/>
<path d="M51.567 36.3738C49.5946 31.4503 49.4679 25.9996 49.2878 20.7825C49.1077 15.5654 49.1015 10.0963 50.882 5.08689C50.9013 9.57666 51.1697 14.2741 51.4521 18.7346C51.7779 24.6551 51.3209 30.4485 51.5614 36.3733L51.567 36.3738Z" fill="#454545"/>
</svg>
