<svg width="269" height="83" viewBox="0 0 269 83" fill="none" xmlns="http://www.w3.org/2000/svg">
<path d="M29.629 15.3096C42.8359 15.3096 56.3013 11.356 68.892 8.82946C75.0983 7.58404 81.185 7.03623 87.553 6.39939C91.8395 5.97072 97.7572 5.20688 101.979 5.85938C113.755 7.67941 126.098 4.1147 137.801 5.46937C144.774 6.27647 152.625 5.58937 159.682 5.58937C166.948 5.58937 173.676 6.63295 180.858 7.08941C192.926 7.85637 205.403 7.59592 217.342 9.09946C225.623 10.1423 234.549 11.5006 240.547 15.5796C244.131 18.0172 249.306 18.665 252.767 21.2798C256.634 24.202 259.471 27.7065 263.399 30.61C268.515 34.3922 266.806 39.88 267.135 44.9198C268.637 48.4206 267.958 50.4318 266.806 53.65C265.507 57.2838 265.314 58.6664 262.296 61.6308C259.483 64.394 257.686 67.3258 253.384 69.311C249.068 71.3029 243.565 72.8855 238.473 73.7511C220.685 76.7754 201.907 76.7139 183.726 77.4412C163.761 78.2399 144.129 80.6513 124.081 80.6513C117.272 80.6513 110.464 80.6513 103.655 80.6513C99.3241 80.6513 95.104 81.1913 90.7735 81.1913C86.7533 81.1913 82.8824 80.6513 78.8622 80.6513C64.3792 80.6513 50.1163 79.0313 35.6729 79.0313C23.1565 79.0313 6.92627 73.5358 4.83595 64.6909C3.56511 59.3135 3.42423 53.2869 3.42423 47.8305C3.42423 43.2657 4.91196 38.3109 7.39463 34.0901C13.4627 23.7737 25.3188 14.0067 41.055 10.2095C60.7091 5.46683 83.0854 5.84309 103.479 8.04944C111.09 8.87291 117.864 10.9895 125.537 10.9895C137.643 10.9895 149.23 9.57254 161.447 10.5695C171.03 11.3515 181.248 11.3306 190.652 12.6096C201.993 14.1521 214.31 13.8949 224.974 17.4697M263.09 61.2108C257.708 68.1242 247.963 75.7942 236.885 78.1913C226.006 80.5453 213.231 79.8899 202.034 80.6513C191.009 81.401 179.302 82.7582 168.241 81.4613C161.336 80.6517 154.153 80.9365 147.154 80.2313C139.565 79.4668 131.187 79.0313 123.507 79.0313C110.613 79.0313 97.5707 78.4913 84.5973 78.4913C73.549 78.4913 62.585 79.0313 51.4663 79.0313C40.9094 79.0313 30.551 77.1858 20.1441 76.3012C13.7946 75.7615 7.39182 72.3057 5.18885 68.111C3.36556 64.6392 3.96339 61.5408 3.38008 57.9707C2.59926 53.1918 0.558118 48.0874 1.08608 43.2404C2.13398 33.6199 9.04665 25.3044 20.1 19.2097C32.8493 12.1799 48.6048 4.23119 65.1863 2.46929C90.9478 -0.268047 119.08 1.10529 144.683 4.23934C157.639 5.82526 170.629 8.25992 183.681 9.36947C193.318 10.1887 203.035 11.0993 212.666 12.0695C219.662 12.7744 229.778 13.5585 235.915 15.9696" stroke="url(#paint0_linear_2168_13768)" stroke-width="1.1223" stroke-linecap="round"/>
<defs>
<linearGradient id="paint0_linear_2168_13768" x1="240.566" y1="11.692" x2="182.599" y2="110.786" gradientUnits="userSpaceOnUse">
<stop stop-color="#3CA0D2"/>
<stop offset="1" stop-color="#48DCA6"/>
</linearGradient>
</defs>
</svg>
