<svg width="70" height="70" viewBox="0 0 70 70" fill="none" xmlns="http://www.w3.org/2000/svg">
<circle cx="34.8648" cy="34.8824" r="34.2867" fill="#3CA0D2"/>
<circle cx="35" cy="35.0176" r="31" fill="white"/>
<mask id="mask0_2273_14986" style="mask-type:alpha" maskUnits="userSpaceOnUse" x="4" y="4" width="62" height="63">
<circle cx="35" cy="35.0176" r="31" fill="white"/>
</mask>
<g mask="url(#mask0_2273_14986)">
<path d="M56.7094 56.7362C53.4968 51.1822 48.5461 47.1997 42.7685 45.3118C45.6264 43.6105 47.8467 41.0182 49.0887 37.9328C50.3306 34.8475 50.5253 31.4397 49.6431 28.233C48.7608 25.0262 46.8503 22.1977 44.2049 20.1818C41.5596 18.166 38.3256 17.0742 34.9997 17.0742C31.6738 17.0742 28.4398 18.166 25.7944 20.1818C23.1491 22.1977 21.2385 25.0262 20.3563 28.233C19.474 31.4397 19.6688 34.8475 20.9107 37.9328C22.1526 41.0182 24.373 43.6105 27.2309 45.3118C21.4533 47.1976 16.5026 51.1801 13.29 56.7362C13.1722 56.9283 13.094 57.1421 13.0602 57.3648C13.0263 57.5876 13.0374 57.8149 13.0928 58.0334C13.1482 58.2518 13.2468 58.4569 13.3828 58.6366C13.5188 58.8163 13.6893 58.967 13.8845 59.0797C14.0796 59.1924 14.2953 59.2649 14.5189 59.2929C14.7425 59.3209 14.9695 59.3038 15.1864 59.2426C15.4033 59.1815 15.6057 59.0775 15.7818 58.9369C15.9578 58.7962 16.1039 58.6217 16.2115 58.4237C20.1855 51.5556 27.2098 47.455 34.9997 47.455C42.7896 47.455 49.8138 51.5556 53.7879 58.4237C53.8954 58.6217 54.0415 58.7962 54.2176 58.9369C54.3937 59.0775 54.5961 59.1815 54.813 59.2426C55.0299 59.3038 55.2568 59.3209 55.4804 59.2929C55.704 59.2649 55.9198 59.1924 56.1149 59.0797C56.31 58.967 56.4806 58.8163 56.6166 58.6366C56.7525 58.4569 56.8511 58.2518 56.9065 58.0334C56.962 57.8149 56.9731 57.5876 56.9392 57.3648C56.9053 57.1421 56.8272 56.9283 56.7094 56.7362ZM23.1872 32.2675C23.1872 29.9312 23.88 27.6473 25.178 25.7048C26.4759 23.7622 28.3208 22.2482 30.4792 21.3541C32.6377 20.4601 35.0128 20.2261 37.3042 20.6819C39.5956 21.1377 41.7004 22.2628 43.3524 23.9148C45.0044 25.5668 46.1294 27.6716 46.5852 29.963C47.041 32.2544 46.8071 34.6295 45.913 36.7879C45.019 38.9464 43.5049 40.7912 41.5624 42.0892C39.6198 43.3872 37.336 44.08 34.9997 44.08C31.8678 44.0766 28.8652 42.831 26.6507 40.6165C24.4361 38.4019 23.1905 35.3993 23.1872 32.2675Z" fill="#48DCA6"/>
</g>
</svg>
