<svg width="366" height="80" viewBox="0 0 366 80" fill="none" xmlns="http://www.w3.org/2000/svg">
<path d="M40.0298 14.7796C58.0348 14.7796 76.3921 10.9725 93.5569 8.53948C102.018 7.34019 110.316 6.81267 118.997 6.19942C124.841 5.78662 132.909 5.05107 138.664 5.6794C154.718 7.43202 171.545 3.99934 187.5 5.30384C197.006 6.08104 207.71 5.41939 217.331 5.41939C227.237 5.41939 236.408 6.42432 246.2 6.86388C262.651 7.60243 279.661 7.35163 295.938 8.79948C307.227 9.80371 319.396 11.1117 327.573 15.0396C332.46 17.387 339.515 18.0107 344.233 20.5287C349.505 23.3427 353.372 26.7174 358.727 29.5134C365.703 33.1555 363.373 38.44 363.821 43.2931C365.868 46.6643 364.942 48.601 363.373 51.7C361.601 55.1992 361.338 56.5306 357.224 59.3852C353.389 62.046 350.94 64.8693 345.075 66.781C339.19 68.6991 331.688 70.2231 324.746 71.0567C300.495 73.9689 274.895 73.9097 250.109 74.6101C222.891 75.3791 196.127 77.7013 168.796 77.7013C159.514 77.7013 150.232 77.7013 140.95 77.7013C135.045 77.7013 129.292 78.2213 123.388 78.2213C117.907 78.2213 112.63 77.7013 107.149 77.7013C87.4046 77.7013 67.9601 76.1412 48.2694 76.1412C31.2059 76.1412 9.07928 70.8493 6.22956 62.332C4.49703 57.1537 4.30497 51.3503 4.30497 46.096C4.30497 41.7003 6.33318 36.9291 9.7178 32.8646C17.9903 22.9303 34.1537 13.525 55.6069 9.8684C82.4012 5.3014 112.907 5.66372 140.709 7.78835C151.086 8.58132 160.32 10.6195 170.78 10.6195C187.285 10.6195 203.082 9.25504 219.737 10.2151C232.801 10.9681 246.731 10.9479 259.551 12.1796C275.013 13.665 291.805 13.4173 306.343 16.8597M358.306 58.9808C350.969 65.6381 337.684 73.024 322.581 75.3323C307.749 77.5992 290.333 76.968 275.068 77.7013C260.039 78.4232 244.078 79.7301 228.999 78.4813C219.585 77.7017 209.793 77.9759 200.25 77.2968C189.905 76.5606 178.483 76.1412 168.014 76.1412C150.435 76.1412 132.654 75.6212 114.968 75.6212C99.9058 75.6212 84.9586 76.1412 69.8005 76.1412C55.4083 76.1412 41.2867 74.3641 27.0991 73.5123C18.4428 72.9925 9.71396 69.6648 6.71066 65.6254C4.22499 62.2822 5.04 59.2986 4.24477 55.8607C3.18028 51.2588 0.397609 46.3434 1.11738 41.6759C2.54598 32.4118 11.97 24.4042 27.039 18.5353C44.4201 11.7658 65.8995 4.11152 88.5049 2.41487C123.625 -0.221082 161.978 1.10139 196.882 4.11936C214.545 5.64655 232.254 7.99103 250.049 9.05949C263.187 9.84833 276.433 10.7252 289.563 11.6596C299.101 12.3383 312.892 13.0933 321.258 15.4152" stroke="url(#paint0_linear_2168_13767)" stroke-width="1.1223" stroke-linecap="round"/>
<defs>
<linearGradient id="paint0_linear_2168_13767" x1="327.599" y1="11.296" x2="282.396" y2="120.696" gradientUnits="userSpaceOnUse">
<stop stop-color="#3CA0D2"/>
<stop offset="1" stop-color="#48DCA6"/>
</linearGradient>
</defs>
</svg>
