<svg width="22" height="107" viewBox="0 0 22 107" fill="none" xmlns="http://www.w3.org/2000/svg">
<g clip-path="url(#clip0_2218_17374)">
<path d="M8.70667 102.205C9.23632 76.5592 11.2903 51.1614 10.6315 25.5676C10.3731 17.0625 9.921 8.51819 10.1406 -1.63193e-07C10.3731 8.53126 11.2645 16.9841 11.9233 25.4893C13.8999 50.9524 13.1118 76.716 13.874 102.179L8.70667 102.179L8.70667 102.205Z" fill="white"/>
<path d="M21.9996 94.8887C18.757 99.4613 16.3284 104.609 10.7735 107L9.77877 105.615C7.19509 101.695 2.33778 99.2915 -0.000448234 95.0455C1.18804 95.5942 2.28611 96.0906 3.43584 96.5479C7.20415 97.81 10.5175 100.174 12.9567 103.342L10.5022 102.741C14.3777 100.781 17.5944 96.2082 22.0254 94.9017L21.9996 94.8887Z" fill="white"/>
</g>
<defs>
<clipPath id="clip0_2218_17374">
<rect width="107" height="22" fill="white" transform="translate(22) rotate(90)"/>
</clipPath>
</defs>
</svg>
