<svg width="41" height="35" viewBox="0 0 41 35" fill="none" xmlns="http://www.w3.org/2000/svg">
<path d="M35.2258 26.4721C33.0684 29.0346 30.5442 31.4566 30.0731 33.4964M36.8221 24.28C33.8068 27.9095 30.6152 31.1277 28.0279 33.7675M36.9297 23.9692C33.3813 26.933 30.9405 30.4057 27.8085 34.0177M36.8586 22.0228C33.8626 26.2188 30.9484 30.0097 26.9694 34.1456M38.4153 20.8915C33.2963 25.7191 29.1173 31.0208 26.0529 34.1795M38.0303 19.7133C34.0872 24.6025 30.0999 29.2092 25.7437 33.7228M38.3517 18.6595C35.5956 22.1175 33.1046 25.5656 25.4675 33.7971M39.4345 17.7579C35.2248 21.9344 31.8233 26.4353 24.513 33.4563M39.0683 16.2038C34.8323 21.059 31.4681 25.4456 27.6588 29.333M39.2285 15.7132C36.3406 18.8496 33.2388 22.2011 30.2059 25.3152M39.3952 14.3199C37.0824 17.1272 36.0335 18.8932 30.6906 24.5302M39.0151 14.0429C37.3463 17.1709 34.5417 19.7087 31.8003 22.7501M39.7358 12.8894C37.2841 16.1488 34.632 18.8538 31.6756 21.6703M39.9902 12.0691C37.9373 14.8662 36.138 16.0407 31.6368 21.4092M39.8077 11.5369C38.263 13.7393 35.6591 15.4024 32.3209 20.6905M40 11.0543C37.6936 12.9481 36.5227 14.1403 31.9445 19.6475M39.7421 10.2723C38.1742 12.4414 36.2393 14.0216 32.6195 18.8877M39.2093 9.87062C37.988 11.6438 36.19 13.8529 32.8247 17.1663M39.1256 8.62712C36.7547 11.8945 34.39 15.4726 32.1658 17.3496M39.2025 8.23524C36.7217 11.5711 33.5042 14.4533 30.511 17.853M39.7344 7.1758C36.4007 11.6758 32.4246 15.1766 29.8124 18.0703M38.8241 7.39543C35.9155 10.7854 33.205 13.7922 29.708 18.4218M38.7692 6.39603C35.4808 11.0045 31.1831 14.8879 28.7325 18.0595M38.2102 6.40271C35.1581 10.7752 31.4797 14.6658 28.9506 17.77M38.4823 5.79229C35.794 9.29505 32.5371 12.9692 27.6525 17.7821M38.1868 5.10699C34.7838 9.74937 30.6507 13.7227 27.9017 17.4504M37.5459 5.12545C35.2064 7.29964 33.5004 10.4041 27.1832 16.8469M37.7533 4.60239C33.4596 9.76148 29.5954 14.1382 26.0455 17.0284M37.4702 4.0866C34.8928 6.33703 32.4363 9.43123 26.191 16.9614M36.7677 3.94146C34.4658 6.61839 31.2215 9.11115 25.551 16.0756M36.3115 3.24907C33.4362 5.91394 30.4713 9.73871 25.3195 15.9199M36.2958 2.85761C33.0993 7.18504 28.9641 11.0832 25.043 15.8375M36.1005 2.65829C32.3284 6.60983 28.4029 10.9271 25.0831 16.0821M35.2391 2.81575C31.8652 6.02983 29.5764 9.5877 24.3912 15.4119M34.3862 2.79017C32.2606 5.82298 29.6909 8.43707 24.3817 15.2153M34.8605 2.3138C32.096 4.91649 28.5766 8.62981 23.6184 14.6211M33.6383 1.67456C31.0892 4.5182 29.5253 7.86051 23.0875 13.7017M33.2655 1.6137C30.1465 5.57252 27.0607 8.94164 23.5279 13.8939M32.3088 2.17172C28.8452 5.34124 26.5317 9.11535 22.8356 13.1758M32.1139 1.42777C28.9116 5.68125 25.1647 10.1375 22.9287 12.264M31.2526 1.51401C29.878 4.04028 28.2503 6.44398 23.018 12.468M30.8851 1.64306C28.2606 5.64239 25.3585 8.81424 22.2175 11.1609M30.5914 1.92502C28.35 3.91727 26.6085 6.65564 22.6249 11.1314M29.5852 0.99904C27.5727 4.10521 25.0329 6.30385 22.4108 9.84086M29.2169 1.40035C26.5192 4.49117 24.1748 7.51768 22.8955 9.1205M28.7425 1.84351C26.1931 4.32293 24.9198 6.57579 23.1823 7.9554M27.5046 2.25399C25.5395 4.39445 23.5999 6.25497 23.1319 7.26894M24.7805 4.23336C24.4951 4.4871 24.4165 5.23155 24.177 5.79426M36.877 24.7099C35.1147 26.7028 32.6382 28.4345 30.0275 33.7166M36.6133 23.4089C33.6211 27.0832 30.5435 30.9864 28.102 33.679M36.9938 22.402C34.5686 25.1158 32.3632 28.2303 28.0032 33.945M38.4314 20.8539C34.6546 24.9379 31.6942 28.7818 27.1232 34.4038M38.4753 19.1121C35.0918 24.3694 30.48 28.3104 26.1239 33.9584M39.0471 18.8602C35.4124 22.4118 32.0212 25.9887 26.0981 34.1123M39.0579 17.4165C33.2882 23.342 28.6407 29.1854 25.8018 33.6353M39.5263 16.7894C36.0431 20.2812 32.7955 24.0043 25.0613 34.06M39.3299 15.8496C36.955 19.0415 34.1159 22.0872 27.4801 29.5708M39.6592 14.7344C37.7072 17.3006 35.5172 19.3693 30.2338 25.8623M39.2155 14.2593C36.5433 17.5545 34.406 20.0093 31.0681 23.9009M39.914 13.4997C37.9886 15.5251 35.6244 18.0336 31.901 22.7887M39.5714 12.063C37.0108 15.6386 34.3025 18.9526 31.6856 21.417M39.2272 11.6761C37.735 14.1637 36.0963 15.437 31.6223 21.3046M39.3606 11.039C38.1989 13.2412 36.0398 15.2777 31.5502 20.3201M39.3249 10.1897C37.4653 12.2921 35.6893 14.4529 31.7852 19.6004M39.2399 9.12281C36.5055 13.4262 33.8882 16.9773 32.5105 18.8913M39.1422 9.11547C37.0615 11.5786 34.8397 13.6793 32.1553 17.2074M39.4114 8.05065C36.2524 11.5462 34.3172 13.8728 31.9022 18.0908M38.8109 7.91534C36.6498 11.199 33.9805 13.8952 31.1125 18.0723M39.2869 7.51121C36.2023 10.5885 32.6486 14.3621 29.7575 17.8308M38.7815 6.99169C34.9141 11.5934 31.0848 15.2576 29.5613 17.8016M38.3924 6.42078C34.8756 10.0057 31.8444 14.9926 29.2306 17.8386M38.333 5.94856C35.8433 8.76224 33.0134 13.0563 28.6952 17.3397M38.0027 5.27093C34.5813 9.21042 31.9982 12.7123 28.2481 17.7842M38.0851 4.91231C33.947 8.97507 29.9773 14.3544 27.8372 17.557M37.5396 3.91985C34.2917 8.47784 31.6837 12.6551 26.5518 17.3111M36.9574 4.43141C33.2015 8.38302 29.6751 13.4323 26.0853 17.5336M37.3346 4.10379C34.2136 6.61761 31.9505 9.96013 26.4929 16.6718M36.3485 3.04127C33.9235 7.43655 31.2406 10.5803 25.9079 16.1902M36.6187 3.08276C31.7579 7.53466 27.4618 13.1351 24.9909 16.3307M36.1341 2.73892C33.7086 5.38519 31.6069 8.50515 24.6312 15.897M35.0204 2.56197C32.1215 6.26438 28.8479 9.9089 25.0849 15.6545M34.3584 2.8607C30.9111 8.13008 26.2546 12.4343 24.1539 15.6512M34.1175 2.22031C31.3856 5.12986 28.9205 8.55509 24.0904 15.313M34.2129 1.85977C30.8639 5.45445 27.045 10.3828 23.7405 14.0028M33.424 1.97293C30.4811 5.7662 26.8517 9.68682 23.7498 14.268M33.042 1.47035C30.6618 4.2396 28.7494 7.02097 23.531 13.421M32.1675 1.48195C29.9596 3.85857 28.303 6.34694 22.9916 12.7951M32.007 2.06824C28.2902 5.28429 26.069 8.88469 22.3391 12.7907M31.0513 1.66094C28.0159 4.5356 25.8457 7.11331 22.4663 12.1913M30.7875 1.77553C28.7399 3.97924 26.2024 6.68101 22.1377 11.9263M29.8323 1.52572C27.3629 4.72904 24.4606 8.63556 22.0741 10.5369M28.8152 2.01347C27.088 3.59647 25.833 5.8545 22.6645 10.4243M28.6428 2.36891C26.0549 3.9498 24.22 7.07825 23.1004 9.63591M26.9489 2.27514C25.7223 4.59537 23.5319 6.54079 23.2893 8.07918M14.2571 27.0958C11.9525 29.2569 10.2798 31.5511 8.70079 33.2595M15.2029 24.4951C13.7557 26.9372 11.0395 29.0133 6.89291 34.3677M15.5469 24.0737C12.8304 26.4782 10.0957 29.4425 6.7001 34.2493M15.8649 22.7157C13.2571 25.0806 11.002 27.8222 5.59691 34.138M17.0774 20.9344C13.7723 24.3503 10.5315 28.1693 5.69158 34.5M17.027 19.5894C13.3624 23.9956 8.65952 29.3337 4.69622 34.0532M17.2895 18.2367C13.5993 22.4585 9.96824 27.0251 4.04622 33.9529M18.2237 17.3109C11.8087 23.9846 6.28772 29.9944 3.49709 33.5947M18.0787 16.5382C13.1862 21.9278 8.64222 26.7497 6.3401 30.0465M18.2293 15.8336C15.9343 18.9429 13.224 21.6698 9.34849 25.2036M17.9493 14.6947C15.5442 18.8293 11.8582 21.8482 9.68616 24.0027M18.5508 13.9795C16.6117 15.8621 13.8211 18.7484 10.8023 23.2647M18.1804 13.4592C15.7748 16.2775 12.1687 19.56 11.0034 21.5051M17.9879 12.5904C15.1637 15.902 12.3496 19.5189 11.1762 21.1851M18.0571 11.7968C16.4591 14.1171 15.0608 16.3353 10.8024 20.0351M18.4991 10.4975C15.4628 13.7504 12.7391 16.6749 10.8214 19.6399M18.6681 10.6432C15.7316 13.0088 14.3141 15.5039 11.4682 18.3367M18.6236 9.35275C16.0225 11.7862 13.4177 14.722 11.3765 17.0176M18.3755 8.61414C17.188 10.8858 15.0915 12.3092 10.9954 17.6579M18.3852 8.05624C15.5257 11.2327 12.4483 14.9646 9.50521 18.2899M18.5446 7.61711C16.0998 10.7331 13.2254 13.5953 8.90346 18.4327M18.3522 7.22388C15.5646 9.84635 13.5197 11.9963 8.27854 17.5248M17.6888 6.54879C14.6765 9.72731 11.7698 13.4522 8.02785 17.7333M17.7282 6.51939C15.1908 8.84474 13.9128 10.7888 7.20807 17.3974M17.0063 5.23702C14.0077 9.35414 11.5091 13.2145 6.85657 17.65M17.421 5.25623C13.7148 8.74506 9.16789 13.0886 6.61046 17.3488M16.7875 4.40529C14.7536 7.08268 11.5626 9.89057 5.98917 17.214M16.7109 4.5449C12.5835 8.52786 9.40337 13.1119 5.26198 16.8333M16.6221 4.26204C14.518 5.92867 11.7324 8.89134 4.75569 17.2031M16.0258 3.4956C12.9585 7.09535 9.57286 10.8643 4.86332 16.94M15.8354 3.49974C11.9654 7.2332 7.70902 11.7063 3.87186 16.6329M15.2563 3.00361C12.8201 5.34627 10.2644 8.90754 3.56056 15.5976M14.7188 2.76847C9.74692 8.19217 5.66064 12.492 3.69653 15.7172M14.5443 2.38827C10.7631 6.47825 7.65777 10.3865 3.25476 15.1074M13.5546 2.76422C10.4785 6.44442 6.99046 10.2165 3.0664 15.1237M12.9487 2.3561C10.939 5.56905 7.82446 7.73126 2.99048 14.3278M12.5527 2.34595C10.3432 4.70347 7.92061 7.49024 2.43675 14.1484M12.0444 1.74409C9.68658 4.89395 6.4669 8.57183 2.49526 13.3216M11.9803 1.92516C8.03038 5.72112 5.20617 8.7144 1.5744 13.0171M11.0387 1.86295C7.33013 6.27722 4.28135 10.0781 2.02258 12.3189M10.6376 1.6559C8.29116 4.61967 5.13976 7.15818 1.70807 12.2302M9.85821 2.1879C7.03619 4.95914 4.05691 8.7223 1.23077 11.7216M8.95188 1.43359C7.6084 3.54148 4.88099 5.7829 1.31331 10.8836M9.05725 1.82752C7.05652 3.85138 4.47842 6.84332 1.47877 9.78228M8.43206 2.12873C6.65265 3.14687 5.36326 5.37804 1.57367 8.66632M6.81451 1.74626C5.49527 4.50324 2.87594 7.00202 1.26211 8.15272M5.88683 2.83374C4.25165 4.08885 2.80386 5.46646 1.74257 7.15926M3.62545 4.02258C3.49899 4.89969 3.29126 4.97809 3.04696 5.39518M15.3822 25.0611C12.7535 27.9412 10.4715 30.7119 8.81266 32.9774M15.4172 23.2784C12.6594 26.5489 10.6587 29.6937 7.14964 34.1236M16.1357 22.7968C12.6956 26.1449 9.53493 30.4874 6.25354 33.6941M16.6184 20.5684C12.9534 24.8992 9.09448 30.3559 5.66637 34.3826M17.2961 19.7952C13.3464 24.0395 10.1997 29.3682 5.67981 34.0133M17.8362 18.3576C14.0081 23.9828 9.4498 28.4714 5.14195 33.8713M18.2973 16.9802C13.2815 23.4345 8.11198 28.7987 4.18093 33.575M18.2743 16.9705C14.0903 22.0842 8.76161 27.5835 4.22496 33.7132M18.5874 15.4541C15.1993 19.9301 11.8817 23.7777 6.67175 29.427M17.8857 14.9356C15.3161 18.6054 12.4914 22.1527 9.81278 25.9469M18.4513 14.3139C15.9303 16.1627 14.4836 19.4799 9.92469 24.3833M18.6826 12.7404C16.2887 15.6908 14.4694 17.6413 10.1902 22.9761M18.6773 12.0255C16.3874 15.5481 13.6248 18.2856 10.5387 22.2146M18.6748 11.1783C16.7915 13.3916 14.6808 15.8271 11.0925 21.0234M18.4999 10.6739C16.9951 13.4681 15.1834 15.3845 11.2952 20.5362M18.2322 10.5736C15.806 13.5541 13.306 16.0731 10.9695 19.5785M18.3801 9.59476C16.5819 11.2431 15.1084 13.1838 11.1728 18.4956M18.4697 8.94874C16.5222 11.6514 14.7439 13.3106 11.3631 17.3599M18.2557 8.60217C16.1401 9.93274 15.1946 12.4406 10.4176 17.2342M18.0775 7.75383C15.5692 10.5544 13.1123 13.8806 9.57264 17.6779M18.3151 6.62901C14.8664 11.4827 11.4592 15.1807 8.85345 17.5379M17.4373 6.22102C13.9954 10.4704 11.5218 14.4096 8.809 17.9284M17.1195 6.15491C14.8596 9.08681 12.4717 12.0344 7.46056 17.5678M16.966 5.59037C14.6138 9.47115 10.9632 12.8238 7.45635 17.6352M16.8368 5.26322C13.7169 9.27877 10.1056 13.3706 6.96469 17.5215M17.1835 4.72887C14.9455 7.96479 11.6989 10.6246 5.9184 17.2566M16.8512 3.90115C13.2758 8.59625 9.29504 13.0441 5.4584 16.9361M15.7815 4.38856C12.8459 8.33349 10.2228 12.1581 4.93506 16.7655M15.8369 3.37042C13.6362 6.62283 11.9688 9.35613 4.90307 16.4209M15.6861 3.25605C12.4582 6.99738 9.09195 11.1699 4.61253 16.8948M14.9854 3.37927C11.1168 7.62014 7.55494 11.5833 4.39363 15.8074M14.2927 2.8897C11.8407 5.82306 8.90575 9.52509 4.17049 16.1995M14.0561 2.26414C11.2719 5.99971 9.17202 8.7777 3.47141 15.4244M13.7434 2.05017C11.0206 5.93106 8.25309 8.97074 3.03442 15.1032M13.0164 1.90469C10.2925 6.38864 6.74572 10.4291 3.34423 15.1226M12.7447 2.22255C10.0763 5.34627 7.82783 8.09283 2.32061 14.0099M11.882 1.7328C8.70578 5.91093 6.03193 10.1433 2.16213 13.871M11.8282 1.74286C7.57899 6.55673 4.00517 11.521 2.22338 14.0076M10.6351 1.46979C7.42934 6.57469 4.57005 10.9177 1.7741 12.7701M10.2658 2.04415C8.75478 4.67092 6.2209 7.13151 1.56874 12.3502M9.65679 1.71408C6.71396 6.09507 3.28003 9.46988 1.55286 12.1078M9.61078 1.67379C6.66926 5.81132 2.73414 9.12832 1.21566 11.1819M9.21372 1.42424C6.35749 3.50586 4.8931 6.26773 0.999999 10.9225M7.61341 1.30086C6.6328 3.38228 4.23655 5.98925 1.4489 10.3207M6.70848 2.10334C6.30088 3.41835 4.4365 4.72034 1.08035 9.49457M5.81418 2.29357C4.76533 4.75331 2.95611 6.13452 2.05057 8.23689M33.8109 29.2454V29.2454ZM12.7224 29.2045V29.2045Z" stroke="#3CA0D2" stroke-width="0.0576685" stroke-linecap="round"/>
</svg>
