<svg width="49" height="56" viewBox="0 0 49 56" fill="none" xmlns="http://www.w3.org/2000/svg">
<path d="M4.51123 53.999C8.91471 51.0532 14.5 50.5713 19.5732 49.8023C22.1475 49.3985 24.7493 49.1906 27.3017 48.9173C29.8767 48.694 32.4337 48.297 34.9552 47.729C32.7261 49.1691 30.1181 49.9498 27.5721 50.5336C25.0261 51.1175 22.4318 51.4992 19.8689 51.8825C14.6759 52.6301 9.58801 52.5993 4.51123 53.999Z" fill="#454545"/>
<path d="M37.7483 38.0505C31.0571 32.6914 25.3932 26.177 19.3201 20.2005C13.211 14.0961 6.33366 7.89225 2.54896 6.64277e-05L2.928 0.433374C3.07138 0.652497 3.18903 0.88741 3.27863 1.13347C3.10897 0.941416 3.0055 0.684154 2.81762 0.543812L2.93775 0.449608C5.56076 3.80566 8.4383 6.95474 11.5449 9.86895C14.6168 12.8326 17.7718 15.7055 20.815 18.7204C26.8715 24.8275 32.1919 31.4886 37.7483 38.0505Z" fill="#454545"/>
<path d="M47.2229 32.2697C45.2285 27.7588 44.9321 22.6975 44.5937 17.855C44.2554 13.0126 44.0704 7.93027 45.5609 3.21654C45.7259 7.38834 46.1293 11.7449 46.5379 15.881C47.0348 21.3724 46.8 26.7713 47.2176 32.2694L47.2229 32.2697Z" fill="#454545"/>
</svg>
