<svg width="108" height="121" viewBox="0 0 108 121" fill="none" xmlns="http://www.w3.org/2000/svg">
<path d="M83.7153 84.8358C77.5597 89.7543 68.9425 93.4421 60.3252 93.4421C40.629 93.4421 27.087 78.688 27.087 59.0152C27.087 39.3425 40.629 25.8191 60.3252 25.8191C68.9425 25.8191 77.5597 28.2776 83.7153 34.4254L87.4078 38.1132L107.104 19.6712L102.179 15.9834C91.1003 6.14782 76.3274 0 60.3222 0C25.8518 0 0 25.8191 0 60.246C0 94.6729 25.8518 120.492 60.3222 120.492C76.3259 120.492 91.0988 114.344 102.179 104.508L107.104 100.821L87.4078 81.1494L83.7153 84.8358Z" fill="#B6B9BB"/>
<path d="M60.2461 80.3261C71.337 80.3261 80.328 71.3351 80.328 60.2441C80.328 49.1531 71.337 40.1621 60.2461 40.1621C49.1551 40.1621 40.1641 49.1531 40.1641 60.2441C40.1641 71.3351 49.1551 80.3261 60.2461 80.3261Z" fill="#EF4335"/>
</svg>
