<svg width="108" height="105" viewBox="0 0 108 105" fill="none" xmlns="http://www.w3.org/2000/svg">
<path d="M17.4298 27.9557C23.659 21.3609 28.6425 13.6146 35.6921 7.8759M16.2893 35.7632C27.3713 25.2349 35.9774 13.6136 39.2314 5.07929M16.5512 39.0388C23.8866 26.4418 31.9724 19.0878 44.8433 7.43094M16.425 41.2017C26.6459 28.6517 36.7948 19.272 46.5319 6.03414M14.1602 46.524C30.6395 28.2482 44.4232 13.1092 53.8009 3.59151M15.794 47.647C25.8484 35.3146 36.4544 22.8863 55.0674 2.46541M17.2639 50.3537C29.0412 36.867 41.278 18.7006 55.9759 1M17.9352 53.1553C35.3912 34.3986 51.2488 14.2739 59.1081 1.27248M18.1946 57.6164C25.9864 42.4811 38.0399 30.7177 61.6972 2.16342M19.4388 58.2719C32.7646 39.768 50.6424 21.671 67.9915 2.1774M20.5119 61.9531C36.3592 40.0416 56.702 18.7824 66.9236 3.05144M21.1686 64.0213C34.4392 45.3206 46.7917 30.2071 72.2526 1.92708M21.2002 65.9984C35.8209 44.7998 52.3014 28.656 70.9587 2.20063M20.0498 66.793C38.2974 46.6758 52.5921 29.3256 73.5328 6.12629M23.7564 68.0313C34.3541 56.3507 44.2043 44.8889 78.7039 5.03345M25.1972 69.6947C43.0037 49.9303 65.1172 25.2872 81.7407 6.45798M27.5142 72.1668C47.0598 47.0181 64.5488 26.1063 82.618 8.96218M26.0018 75.6678C47.5051 49.185 71.8018 21.164 82.2618 6.5913M29.7055 73.6977C42.5405 60.306 56.3471 44.5846 84.8964 7.8684M31.1201 76.631C51.9595 54.5042 69.3368 32.7374 87.1289 10.923M30.9543 76.5039C50.4 60.1931 68.2826 39.7839 88.28 12.7035M33.1895 78.1266C55.8263 55.8357 74.9876 32.3958 91.1537 12.1229M35.491 79.541C59.1885 56.3704 80.0362 28.079 92.6674 13.9178M34.9145 81.8124C48.0035 64.8504 65.0389 49.3251 93.4826 13.9694M38.2747 81.8304C53.2148 65.366 66.9977 50.2203 95.3705 15.3295M41.9191 84.0219C59.0078 65.2759 77.9317 40.8528 97.6821 20.7659M42.1815 87.5763C58.5674 67.9942 71.4231 48.932 98.0375 19.4111M44.962 85.7054C56.431 69.5402 74.0609 54.767 98.7839 23.0067M45.4852 88.0173C62.108 65.25 80.3918 47.9013 98.6051 22.6156M49.2428 87.5005C67.6724 66.397 88.8258 41.5164 101.907 26.0132M51.7154 86.8925C60.4713 75.8113 74.6764 63.356 102.257 29.578M52.3888 88.5469C68.3269 70.3214 87.6512 47.5802 103.667 29.2022M56.6386 89.4783C73.6517 66.767 88.4421 47.3854 102.759 34.8776M57.8691 90.6884C73.06 74.3336 86.25 59.2807 103.206 35.639M59.8736 91C72.7816 77.264 80.9174 63.7451 106.21 39.0244M64.1872 88.8472C80.091 73.2804 93.736 59.0051 104.575 38.1505M66.1588 89.1032C77.1084 72.6726 89.129 57.997 104.168 44.7703M69.3479 87.4579C84.78 72.3303 95.9961 57.0054 104.648 46.3777M74.4588 87.7527C84.5999 72.6428 96.0634 59.9095 107.76 51.3779M77.8687 87.207C86.5771 75.2485 99.1119 62.8801 106.525 52.2048M81.9939 82.6991C90.7244 73.935 96.088 67.0038 104.635 61.0468M85.9945 80.4248C91.3383 75.8517 97.4308 67.948 103.213 63.7043M28.2 14.4881V14.4881Z" stroke="white" stroke-width="0.4" stroke-linecap="round"/>
<g filter="url(#filter0_d_2168_14268)">
<g filter="url(#filter1_d_2168_14268)">
<ellipse cx="48.4658" cy="57.3828" rx="38.4658" ry="36.9863" fill="url(#paint0_linear_2168_14268)"/>
</g>
<path d="M45.6446 71.3945C44.2243 71.3945 42.7515 71.2104 41.226 70.8422C39.7005 70.474 38.3723 69.9216 37.2413 69.1852C36.7153 68.8433 36.3602 68.4488 36.1761 68.0016C35.992 67.5545 35.9394 67.1337 36.0183 66.7392C36.1235 66.3184 36.3208 65.9633 36.6101 65.674C36.9257 65.3847 37.3071 65.2137 37.7542 65.1611C38.2276 65.1085 38.7405 65.2268 39.2928 65.5162C40.3712 66.0948 41.4101 66.5156 42.4095 66.7786C43.409 67.0153 44.4348 67.1337 45.4868 67.1337C46.6441 67.1337 47.6172 66.9759 48.4063 66.6603C49.1953 66.3447 49.7871 65.8712 50.1816 65.24C50.6024 64.6088 50.8128 63.846 50.8128 62.9518C50.8128 61.6367 50.3657 60.6636 49.4715 60.0323C48.6035 59.3748 47.3279 59.046 45.6446 59.046H43.1197C42.3832 59.046 41.8178 58.8619 41.4232 58.4937C41.055 58.1255 40.8709 57.6126 40.8709 56.9551C40.8709 56.2975 41.055 55.7847 41.4232 55.4164C41.8178 55.0482 42.3832 54.8641 43.1197 54.8641H45.1712C46.1706 54.8641 47.0254 54.7063 47.7356 54.3907C48.4457 54.0488 48.998 53.5753 49.3926 52.9704C49.7871 52.3655 49.9843 51.629 49.9843 50.7611C49.9843 49.5512 49.5767 48.6307 48.7613 47.9995C47.9723 47.3682 46.815 47.0526 45.2895 47.0526C44.3164 47.0526 43.3958 47.171 42.5279 47.4077C41.6863 47.6181 40.7526 48.0258 39.7268 48.6307C39.2534 48.92 38.7931 49.0384 38.346 48.9858C37.9252 48.9332 37.5701 48.7622 37.2808 48.4729C36.9915 48.1836 36.7942 47.8416 36.689 47.4471C36.5838 47.0263 36.6101 46.6055 36.7679 46.1847C36.9257 45.7375 37.2545 45.3562 37.7542 45.0405C38.8852 44.3041 40.1345 43.7518 41.5022 43.3836C42.8698 42.989 44.2769 42.7918 45.7235 42.7918C47.6435 42.7918 49.2874 43.0942 50.655 43.6992C52.0227 44.2778 53.0616 45.1195 53.7717 46.2241C54.5082 47.3025 54.8764 48.6175 54.8764 50.1693C54.8764 51.274 54.666 52.2866 54.2452 53.2071C53.8243 54.1014 53.2326 54.8641 52.4698 55.4953C51.7071 56.1266 50.7865 56.5737 49.7082 56.8367V56.3633C51.6019 56.6789 53.0748 57.4679 54.1268 58.7304C55.1789 59.9666 55.7049 61.5184 55.7049 63.3858C55.7049 65.0164 55.2972 66.4367 54.4819 67.6466C53.6665 68.8564 52.5093 69.7901 51.0101 70.4477C49.5109 71.0789 47.7224 71.3945 45.6446 71.3945Z" fill="white"/>
</g>
<defs>
<filter id="filter0_d_2168_14268" x="0.136987" y="3.13699" width="96.6577" height="109.726" filterUnits="userSpaceOnUse" color-interpolation-filters="sRGB">
<feFlood flood-opacity="0" result="BackgroundImageFix"/>
<feColorMatrix in="SourceAlpha" type="matrix" values="0 0 0 0 0 0 0 0 0 0 0 0 0 0 0 0 0 0 127 0" result="hardAlpha"/>
<feOffset/>
<feGaussianBlur stdDeviation="4.93151"/>
<feComposite in2="hardAlpha" operator="out"/>
<feColorMatrix type="matrix" values="0 0 0 0 0 0 0 0 0 0 0 0 0 0 0 0 0 0 0.05 0"/>
<feBlend mode="normal" in2="BackgroundImageFix" result="effect1_dropShadow_2168_14268"/>
<feBlend mode="normal" in="SourceGraphic" in2="effect1_dropShadow_2168_14268" result="shape"/>
</filter>
<filter id="filter1_d_2168_14268" x="0" y="10.3965" width="96.9316" height="93.9727" filterUnits="userSpaceOnUse" color-interpolation-filters="sRGB">
<feFlood flood-opacity="0" result="BackgroundImageFix"/>
<feColorMatrix in="SourceAlpha" type="matrix" values="0 0 0 0 0 0 0 0 0 0 0 0 0 0 0 0 0 0 127 0" result="hardAlpha"/>
<feOffset/>
<feGaussianBlur stdDeviation="5"/>
<feComposite in2="hardAlpha" operator="out"/>
<feColorMatrix type="matrix" values="0 0 0 0 0 0 0 0 0 0 0 0 0 0 0 0 0 0 0.08 0"/>
<feBlend mode="normal" in2="BackgroundImageFix" result="effect1_dropShadow_2168_14268"/>
<feBlend mode="normal" in="SourceGraphic" in2="effect1_dropShadow_2168_14268" result="shape"/>
</filter>
<linearGradient id="paint0_linear_2168_14268" x1="-3.45117" y1="20" x2="98.1553" y2="70.7735" gradientUnits="userSpaceOnUse">
<stop stop-color="#3CA0D2"/>
<stop offset="1" stop-color="#48DCA6"/>
</linearGradient>
</defs>
</svg>
