<svg width="108" height="105" viewBox="0 0 108 105" fill="none" xmlns="http://www.w3.org/2000/svg">
<path d="M17.4298 27.9557C23.659 21.3609 28.6425 13.6146 35.6921 7.8759M16.2893 35.7632C27.3713 25.2349 35.9774 13.6136 39.2314 5.07929M16.5512 39.0388C23.8866 26.4418 31.9724 19.0878 44.8433 7.43094M16.425 41.2017C26.6459 28.6517 36.7948 19.272 46.5319 6.03414M14.1602 46.524C30.6395 28.2482 44.4232 13.1092 53.8009 3.59151M15.794 47.647C25.8484 35.3146 36.4544 22.8863 55.0674 2.46541M17.2639 50.3537C29.0412 36.867 41.278 18.7006 55.9759 1M17.9352 53.1553C35.3912 34.3986 51.2488 14.2739 59.1081 1.27248M18.1946 57.6164C25.9864 42.4811 38.0399 30.7177 61.6972 2.16342M19.4388 58.2719C32.7646 39.768 50.6424 21.671 67.9915 2.1774M20.5119 61.9531C36.3592 40.0416 56.702 18.7824 66.9236 3.05144M21.1686 64.0213C34.4392 45.3206 46.7917 30.2071 72.2526 1.92708M21.2002 65.9984C35.8209 44.7998 52.3014 28.656 70.9587 2.20063M20.0498 66.793C38.2974 46.6758 52.5921 29.3256 73.5328 6.12629M23.7564 68.0313C34.3541 56.3507 44.2043 44.8889 78.7039 5.03345M25.1972 69.6947C43.0037 49.9303 65.1172 25.2872 81.7407 6.45798M27.5142 72.1668C47.0598 47.0181 64.5488 26.1063 82.618 8.96218M26.0018 75.6678C47.5051 49.185 71.8018 21.164 82.2618 6.5913M29.7055 73.6977C42.5405 60.306 56.3471 44.5846 84.8964 7.8684M31.1201 76.631C51.9595 54.5042 69.3368 32.7374 87.1289 10.923M30.9543 76.5039C50.4 60.1931 68.2826 39.7839 88.28 12.7035M33.1895 78.1266C55.8263 55.8357 74.9876 32.3958 91.1537 12.1229M35.491 79.541C59.1885 56.3704 80.0362 28.079 92.6674 13.9178M34.9145 81.8124C48.0035 64.8504 65.0389 49.3251 93.4826 13.9694M38.2747 81.8304C53.2148 65.366 66.9977 50.2203 95.3705 15.3295M41.9191 84.0219C59.0078 65.2759 77.9317 40.8528 97.6821 20.7659M42.1815 87.5763C58.5674 67.9942 71.4231 48.932 98.0375 19.4111M44.962 85.7054C56.431 69.5402 74.0609 54.767 98.7839 23.0067M45.4852 88.0173C62.108 65.25 80.3918 47.9013 98.6051 22.6156M49.2428 87.5005C67.6724 66.397 88.8258 41.5164 101.907 26.0132M51.7154 86.8925C60.4713 75.8113 74.6764 63.356 102.257 29.578M52.3888 88.5469C68.3269 70.3214 87.6512 47.5802 103.667 29.2022M56.6386 89.4783C73.6517 66.767 88.4421 47.3854 102.759 34.8776M57.8691 90.6884C73.06 74.3336 86.25 59.2807 103.206 35.639M59.8736 91C72.7816 77.264 80.9174 63.7451 106.21 39.0244M64.1872 88.8472C80.091 73.2804 93.736 59.0051 104.575 38.1505M66.1588 89.1032C77.1084 72.6726 89.129 57.997 104.168 44.7703M69.3479 87.4579C84.78 72.3303 95.9961 57.0054 104.648 46.3777M74.4588 87.7527C84.5999 72.6428 96.0634 59.9095 107.76 51.3779M77.8687 87.207C86.5771 75.2485 99.1119 62.8801 106.525 52.2048M81.9939 82.6991C90.7244 73.935 96.088 67.0038 104.635 61.0468M85.9945 80.4248C91.3383 75.8517 97.4308 67.948 103.213 63.7043M28.2 14.4881V14.4881Z" stroke="white" stroke-width="0.4" stroke-linecap="round"/>
<g filter="url(#filter0_d_2168_14246)">
<g filter="url(#filter1_d_2168_14246)">
<ellipse cx="48.4658" cy="57.3828" rx="38.4658" ry="36.9863" fill="url(#paint0_linear_2168_14246)"/>
</g>
<path d="M40.5158 71C39.832 71 39.2928 70.8159 38.8983 70.4477C38.5301 70.0532 38.346 69.5271 38.346 68.8696C38.346 68.1858 38.5301 67.6729 38.8983 67.331C39.2928 66.989 39.832 66.8181 40.5158 66.8181H44.9345V47.4471H47.3805L41.5811 50.9584C41.0813 51.2477 40.6079 51.366 40.1608 51.3134C39.74 51.2345 39.3717 51.0504 39.0561 50.7611C38.7668 50.4455 38.5695 50.0773 38.4643 49.6564C38.3591 49.2356 38.3854 48.8148 38.5432 48.394C38.7274 47.9468 39.0693 47.5786 39.569 47.2893L45.0134 44.0148C45.5394 43.6992 46.0654 43.4362 46.5915 43.2258C47.1175 42.989 47.6041 42.8707 48.0512 42.8707C48.6035 42.8707 49.0638 43.0285 49.432 43.3441C49.8002 43.6334 49.9843 44.12 49.9843 44.8038V66.8181H54.0085C54.6923 66.8181 55.2183 66.989 55.5865 67.331C55.9811 67.6729 56.1783 68.1858 56.1783 68.8696C56.1783 69.5534 55.9811 70.0795 55.5865 70.4477C55.2183 70.8159 54.6923 71 54.0085 71H40.5158Z" fill="white"/>
</g>
<defs>
<filter id="filter0_d_2168_14246" x="0.136987" y="3.13699" width="96.6577" height="109.726" filterUnits="userSpaceOnUse" color-interpolation-filters="sRGB">
<feFlood flood-opacity="0" result="BackgroundImageFix"/>
<feColorMatrix in="SourceAlpha" type="matrix" values="0 0 0 0 0 0 0 0 0 0 0 0 0 0 0 0 0 0 127 0" result="hardAlpha"/>
<feOffset/>
<feGaussianBlur stdDeviation="4.93151"/>
<feComposite in2="hardAlpha" operator="out"/>
<feColorMatrix type="matrix" values="0 0 0 0 0 0 0 0 0 0 0 0 0 0 0 0 0 0 0.05 0"/>
<feBlend mode="normal" in2="BackgroundImageFix" result="effect1_dropShadow_2168_14246"/>
<feBlend mode="normal" in="SourceGraphic" in2="effect1_dropShadow_2168_14246" result="shape"/>
</filter>
<filter id="filter1_d_2168_14246" x="0" y="10.3965" width="96.9316" height="93.9727" filterUnits="userSpaceOnUse" color-interpolation-filters="sRGB">
<feFlood flood-opacity="0" result="BackgroundImageFix"/>
<feColorMatrix in="SourceAlpha" type="matrix" values="0 0 0 0 0 0 0 0 0 0 0 0 0 0 0 0 0 0 127 0" result="hardAlpha"/>
<feOffset/>
<feGaussianBlur stdDeviation="5"/>
<feComposite in2="hardAlpha" operator="out"/>
<feColorMatrix type="matrix" values="0 0 0 0 0 0 0 0 0 0 0 0 0 0 0 0 0 0 0.08 0"/>
<feBlend mode="normal" in2="BackgroundImageFix" result="effect1_dropShadow_2168_14246"/>
<feBlend mode="normal" in="SourceGraphic" in2="effect1_dropShadow_2168_14246" result="shape"/>
</filter>
<linearGradient id="paint0_linear_2168_14246" x1="-3.45117" y1="20" x2="98.1553" y2="70.7735" gradientUnits="userSpaceOnUse">
<stop stop-color="#3CA0D2"/>
<stop offset="1" stop-color="#48DCA6"/>
</linearGradient>
</defs>
</svg>
