<svg width="160" height="155" viewBox="0 0 160 155" fill="none" xmlns="http://www.w3.org/2000/svg">
<path d="M28.3313 40.1541C37.3422 30.575 44.551 19.3232 54.7487 10.9875M26.6814 51.4949C42.7122 36.2022 55.1614 19.3218 59.8685 6.92532M27.0603 56.2528C37.6713 37.9552 49.3679 27.2732 67.9863 10.3412M26.8777 59.3945C41.6628 41.1651 56.3437 27.5408 70.429 8.31228M23.6016 67.1254C47.4398 40.5791 67.3787 18.589 80.9439 4.76427M25.965 68.7566C40.5092 50.8433 55.8514 32.7907 82.776 3.12857M28.0913 72.6881C45.1277 53.0982 62.8289 26.7108 84.0902 1M29.0624 76.7576C54.3134 49.5128 77.2522 20.2808 88.6212 1.39579M29.4375 83.2376C40.7089 61.253 58.1449 44.1662 92.3665 2.68991M31.2374 84.1897C50.5138 57.3119 76.375 31.0254 101.471 2.71022M32.7898 89.5368C55.7136 57.7094 85.1406 26.8296 99.9267 3.9798M33.7396 92.5409C52.9363 65.3774 70.8048 43.4245 107.635 2.34662M33.7854 95.4127C54.935 64.6209 78.7749 41.1714 105.764 2.74397M32.1212 96.5669C58.5174 67.3459 79.1955 42.144 109.487 8.44614M37.4831 98.3656C52.8132 81.3991 67.0619 64.7503 116.968 6.85875M39.5672 100.782C65.3253 72.0732 97.3136 36.2781 121.36 8.92792M42.9189 104.373C71.1926 67.8431 96.4913 37.4678 122.629 12.5654M40.7311 109.458C71.8368 70.9906 106.983 30.289 122.114 9.12157M46.0888 106.596C64.6553 87.1442 84.6272 64.3083 125.925 10.9766M48.1349 110.857C78.2803 78.7169 103.417 47.0998 129.155 15.4135M47.8951 110.672C76.0244 86.9803 101.893 57.335 130.82 17.9998M51.1285 113.029C83.8738 80.651 111.592 46.6036 134.977 17.1565M54.4578 115.084C88.7374 81.4277 118.895 40.3333 137.166 19.7636M53.6238 118.383C72.5578 93.7452 97.2003 71.1941 138.346 19.8386M58.4845 118.409C80.0961 94.494 100.034 72.4944 141.077 21.8141M63.7563 121.593C88.476 94.3633 115.85 58.8878 144.421 29.7107M64.1359 126.755C87.8389 98.3117 106.436 70.6231 144.935 27.7428M68.158 124.038C84.7486 100.557 110.251 79.0986 146.014 32.9656M68.9149 127.396C92.9607 94.3256 119.409 69.126 145.756 32.3975M74.3505 126.645C101.01 95.9917 131.609 59.8517 150.533 37.3327M77.9272 125.762C90.5931 109.666 111.141 91.5745 151.038 42.5107M78.9013 128.165C101.957 101.692 129.91 68.6596 153.077 41.9648M85.0488 129.518C109.659 96.5291 131.054 68.3766 151.764 50.2086M86.8288 131.276C108.803 107.52 127.883 85.655 152.412 51.3144M89.7284 131.728C108.401 111.776 120.169 92.1397 156.756 56.232M95.9683 128.601C118.974 105.99 138.712 85.2546 154.391 54.9626M98.8204 128.973C114.66 105.107 132.048 83.7904 153.803 64.5781M103.434 126.583C125.757 104.61 141.982 82.35 154.498 66.9128M110.827 127.012C125.496 105.064 142.079 86.5683 158.999 74.1759M115.759 126.219C128.357 108.849 146.489 90.8832 157.212 75.3769M121.727 119.671C134.356 106.941 142.115 96.873 154.478 88.2203M127.514 116.368C135.244 109.725 144.057 98.2446 152.421 92.0804M43.911 20.592V20.592Z" stroke="url(#paint0_linear_2275_7127)" stroke-width="0.351498" stroke-linecap="round"/>
<g filter="url(#filter0_d_2275_7127)">
<circle cx="73.5" cy="81.5" r="55.5" fill="white"/>
</g>
<path d="M74.3352 104.406V53.118C74.3352 53.118 79.8152 45.2852 87.3829 50.4629C94.9505 55.6405 92.2499 60.8182 92.2499 60.8182C92.2499 60.8182 99.6021 59.3684 101.466 65.9958C103.33 72.6232 98.4631 76.9725 98.4631 76.9725C98.4631 76.9725 106.022 75.9369 105.401 87.3278C104.836 97.6769 100.638 99.1328 96.392 98.0973C96.392 98.0973 100.741 105.553 86.4509 113.009C72.1606 120.465 74.3352 104.406 74.3352 104.406Z" stroke="#454545" stroke-width="4" stroke-linejoin="round"/>
<path d="M73.9216 104.406V53.118C73.9216 53.118 68.4415 45.2852 60.8739 50.4629C53.0038 55.8476 56.0069 60.8182 56.0069 60.8182C56.0069 60.8182 48.6546 59.3684 46.7907 65.9958C44.9267 72.6232 49.7937 76.9725 49.7937 76.9725C49.7937 76.9725 42.2343 75.9369 42.8556 87.3278C43.421 97.6769 47.6191 99.1328 51.8648 98.0973C51.8648 98.0973 47.5155 105.553 61.8059 113.009C76.0962 120.465 73.9216 104.406 73.9216 104.406Z" stroke="#454545" stroke-width="4" stroke-linejoin="round"/>
<path d="M74.2314 93.0625H74.771C81.4594 93.0625 86.8815 87.6405 86.8815 80.952V77.5938" stroke="#454545" stroke-width="4" stroke-miterlimit="10"/>
<path d="M43.2686 81.8398H52.5883C58.6505 81.8398 63.565 86.7542 63.565 92.8165V92.8165" stroke="#454545" stroke-width="4" stroke-miterlimit="10"/>
<path d="M63.6697 99.858C65.6142 99.858 67.1905 98.2817 67.1905 96.3372C67.1905 94.3927 65.6142 92.8164 63.6697 92.8164C61.7252 92.8164 60.1489 94.3927 60.1489 96.3372C60.1489 98.2817 61.7252 99.858 63.6697 99.858Z" stroke="#454545" stroke-width="4" stroke-miterlimit="10"/>
<path d="M86.865 77.4908C88.8095 77.4908 90.3858 75.9145 90.3858 73.97C90.3858 72.0255 88.8095 70.4492 86.865 70.4492C84.9206 70.4492 83.3442 72.0255 83.3442 73.97C83.3442 75.9145 84.9206 77.4908 86.865 77.4908Z" stroke="#454545" stroke-width="4" stroke-miterlimit="10"/>
<path d="M61.8055 70.2428C63.75 70.2428 65.3263 68.6665 65.3263 66.722C65.3263 64.7775 63.75 63.2012 61.8055 63.2012C59.861 63.2012 58.2847 64.7775 58.2847 66.722C58.2847 68.6665 59.861 70.2428 61.8055 70.2428Z" stroke="#454545" stroke-width="4" stroke-miterlimit="10"/>
<path d="M73.4039 66.7207H65.3599" stroke="#454545" stroke-width="4" stroke-miterlimit="10"/>
<defs>
<filter id="filter0_d_2275_7127" x="0.100363" y="8.10036" width="146.799" height="146.799" filterUnits="userSpaceOnUse" color-interpolation-filters="sRGB">
<feFlood flood-opacity="0" result="BackgroundImageFix"/>
<feColorMatrix in="SourceAlpha" type="matrix" values="0 0 0 0 0 0 0 0 0 0 0 0 0 0 0 0 0 0 127 0" result="hardAlpha"/>
<feOffset/>
<feGaussianBlur stdDeviation="8.94982"/>
<feComposite in2="hardAlpha" operator="out"/>
<feColorMatrix type="matrix" values="0 0 0 0 0 0 0 0 0 0 0 0 0 0 0 0 0 0 0.08 0"/>
<feBlend mode="normal" in2="BackgroundImageFix" result="effect1_dropShadow_2275_7127"/>
<feBlend mode="normal" in="SourceGraphic" in2="effect1_dropShadow_2275_7127" result="shape"/>
</filter>
<linearGradient id="paint0_linear_2275_7127" x1="23.6016" y1="73.792" x2="159.005" y2="74.098" gradientUnits="userSpaceOnUse">
<stop stop-color="#3CA0D2"/>
<stop offset="1" stop-color="#48DCA6"/>
</linearGradient>
</defs>
</svg>
