<svg width="163" height="161" viewBox="0 0 163 161" fill="none" xmlns="http://www.w3.org/2000/svg">
<path d="M28.3313 46.1541C37.3422 36.575 44.551 25.3232 54.7487 16.9875M26.6814 57.4949C42.7122 42.2022 55.1614 25.3218 59.8685 12.9253M27.0603 62.2528C37.6713 43.9552 49.3679 33.2732 67.9863 16.3412M26.8777 65.3945C41.6628 47.1651 56.3437 33.5408 70.429 14.3123M23.6016 73.1254C47.4398 46.5791 67.3787 24.589 80.9439 10.7643M25.965 74.7566C40.5092 56.8433 55.8514 38.7907 82.776 9.12857M28.0913 78.6881C45.1277 59.0982 62.8289 32.7108 84.0902 7M29.0624 82.7576C54.3134 55.5128 77.2522 26.2808 88.6212 7.39579M29.4375 89.2376C40.7089 67.253 58.1449 50.1662 92.3665 8.68991M31.2374 90.1897C50.5138 63.3119 76.375 37.0254 101.471 8.71022M32.7898 95.5368C55.7136 63.7094 85.1406 32.8296 99.9267 9.9798M33.7396 98.5409C52.9363 71.3774 70.8048 49.4245 107.635 8.34662M33.7854 101.413C54.935 70.6209 78.7749 47.1714 105.764 8.74397M32.1212 102.567C58.5174 73.3459 79.1955 48.144 109.487 14.4461M37.4831 104.366C52.8132 87.3991 67.0619 70.7503 116.968 12.8587M39.5672 106.782C65.3253 78.0732 97.3136 42.2781 121.36 14.9279M42.9189 110.373C71.1926 73.8431 96.4913 43.4678 122.629 18.5654M40.7311 115.458C71.8368 76.9906 106.983 36.289 122.114 15.1216M46.0888 112.596C64.6553 93.1442 84.6272 70.3083 125.925 16.9766M48.1349 116.857C78.2803 84.7169 103.417 53.0998 129.155 21.4135M47.8951 116.672C76.0244 92.9803 101.893 63.335 130.82 23.9998M51.1285 119.029C83.8738 86.651 111.592 52.6036 134.977 23.1565M54.4578 121.084C88.7374 87.4277 118.895 46.3333 137.166 25.7636M53.6238 124.383C72.5578 99.7452 97.2003 77.1941 138.346 25.8386M58.4845 124.409C80.0961 100.494 100.034 78.4944 141.077 27.8141M63.7563 127.593C88.476 100.363 115.85 64.8878 144.421 35.7107M64.1359 132.755C87.8389 104.312 106.436 76.6231 144.935 33.7428M68.158 130.038C84.7486 106.557 110.251 85.0986 146.014 38.9656M68.9149 133.396C92.9607 100.326 119.409 75.126 145.756 38.3975M74.3505 132.645C101.01 101.992 131.609 65.8517 150.533 43.3327M77.9272 131.762C90.5931 115.666 111.141 97.5745 151.038 48.5107M78.9013 134.165C101.957 107.692 129.91 74.6596 153.077 47.9648M85.0488 135.518C109.659 102.529 131.054 74.3766 151.764 56.2086M86.8288 137.276C108.803 113.52 127.883 91.655 152.412 57.3144M89.7284 137.728C108.401 117.776 120.169 98.1397 156.756 62.232M95.9683 134.601C118.974 111.99 138.712 91.2546 154.391 60.9626M98.8204 134.973C114.66 111.107 132.048 89.7904 153.803 70.5781M103.434 132.583C125.757 110.61 141.982 88.35 154.498 72.9128M110.827 133.012C125.496 111.064 142.079 92.5683 158.999 80.1759M115.759 132.219C128.357 114.849 146.489 96.8832 157.212 81.3769M121.727 125.671C134.356 112.941 142.115 102.873 154.478 94.2203M127.514 122.368C135.244 115.725 144.057 104.245 152.421 98.0804M43.911 26.592V26.592Z" stroke="url(#paint0_linear_2168_14338)" stroke-width="0.351498" stroke-linecap="round"/>
<g filter="url(#filter0_d_2168_14338)">
<circle cx="73.5" cy="87.5" r="55.5" fill="white"/>
</g>
<path d="M73.6896 119.436C91.2231 119.436 105.437 105.222 105.437 87.6886C105.437 70.1551 91.2231 55.9414 73.6896 55.9414C56.1561 55.9414 41.9424 70.1551 41.9424 87.6886C41.9424 105.222 56.1561 119.436 73.6896 119.436Z" stroke="#454545" stroke-width="3.7351" stroke-linecap="round" stroke-linejoin="round"/>
<path d="M73.689 68.6406V87.6889L86.3878 94.0384" stroke="#454545" stroke-width="3.7351" stroke-linecap="round" stroke-linejoin="round"/>
<defs>
<filter id="filter0_d_2168_14338" x="0.100363" y="14.1004" width="146.799" height="146.799" filterUnits="userSpaceOnUse" color-interpolation-filters="sRGB">
<feFlood flood-opacity="0" result="BackgroundImageFix"/>
<feColorMatrix in="SourceAlpha" type="matrix" values="0 0 0 0 0 0 0 0 0 0 0 0 0 0 0 0 0 0 127 0" result="hardAlpha"/>
<feOffset/>
<feGaussianBlur stdDeviation="8.94982"/>
<feComposite in2="hardAlpha" operator="out"/>
<feColorMatrix type="matrix" values="0 0 0 0 0 0 0 0 0 0 0 0 0 0 0 0 0 0 0.08 0"/>
<feBlend mode="normal" in2="BackgroundImageFix" result="effect1_dropShadow_2168_14338"/>
<feBlend mode="normal" in="SourceGraphic" in2="effect1_dropShadow_2168_14338" result="shape"/>
</filter>
<linearGradient id="paint0_linear_2168_14338" x1="23.6016" y1="79.792" x2="159.005" y2="80.098" gradientUnits="userSpaceOnUse">
<stop stop-color="#3CA0D2"/>
<stop offset="1" stop-color="#48DCA6"/>
</linearGradient>
</defs>
</svg>
