<svg width="15" height="13" viewBox="0 0 15 13" fill="none" xmlns="http://www.w3.org/2000/svg">
<path d="M6.93233 0.476816C7.11083 -0.0725529 7.88804 -0.0725509 8.06654 0.476818L9.23982 4.08779C9.31964 4.33348 9.54859 4.49982 9.80692 4.49982L13.6037 4.49982C14.1814 4.49982 14.4215 5.23899 13.9542 5.57852L10.8825 7.81022C10.6735 7.96206 10.5861 8.23121 10.6659 8.47689L11.8392 12.0879C12.0177 12.6372 11.3889 13.0941 10.9216 12.7545L7.84992 10.5228C7.64093 10.371 7.35793 10.371 7.14894 10.5228L4.07726 12.7545C3.60994 13.0941 2.98117 12.6372 3.15967 12.0879L4.33295 8.47689C4.41277 8.23121 4.32532 7.96206 4.11633 7.81022L1.04465 5.57852C0.577331 5.23899 0.817504 4.49982 1.39514 4.49982L5.19195 4.49982C5.45027 4.49982 5.67922 4.33348 5.75905 4.08779L6.93233 0.476816Z" fill="#FFB953"/>
</svg>
