<svg width="46" height="38" viewBox="0 0 46 38" fill="none" xmlns="http://www.w3.org/2000/svg">
<path d="M20.7476 0.147365C17.1199 1.24661 13.6811 2.89307 10.5496 5.02992C10.1025 5.32543 9.67916 5.65549 9.28351 6.01709C8.50983 6.74947 7.95973 7.68959 7.36084 8.59153L5.58635 11.3124C4.42316 13.1243 3.15174 14.8954 2.25651 16.8546C1.58486 18.3167 1.19181 19.896 0.814728 21.462C0.691401 21.9946 0.553878 22.5122 0.494432 23.027C0.347149 24.0524 0.737538 25.0688 1.02678 26.1137L1.48105 27.6743C2.47743 31.3309 3.35935 33.2325 6.46383 35.5752C9.09097 37.5806 10.6712 37.68 13.7517 36.5473C14.2601 36.3635 14.7649 36.1842 15.2414 35.9703C16.6823 35.3391 17.8144 34.2134 18.6626 32.8925C20.8807 29.464 21.6402 24.5477 18.9465 21.1743C17.6476 19.4716 15.5901 18.7668 13.5893 18.1507C13.0454 17.9785 12.4838 17.808 11.9976 17.4583C10.8885 16.693 10.8752 15.1679 11.4715 14.0742C11.7376 13.5531 12.0872 13.1075 12.4253 12.6813C13.7819 10.9742 15.2563 9.36402 16.8375 7.8627C17.6278 7.117 18.4423 6.39704 19.281 5.70283C19.6962 5.36105 20.1026 5.01838 20.3794 4.58339C20.6562 4.1484 20.8097 3.63706 20.9038 3.11241C20.9956 2.5839 21.0548 2.05025 21.0812 1.51448C21.0972 0.994267 21.0182 0.426114 20.6154 0.0612539L20.6669 0C20.8825 0.18228 21.0409 0.423055 21.1229 0.693323C21.3527 1.49673 21.2117 2.33564 21.1336 3.15058C20.973 4.43603 20.4815 5.16042 19.5197 5.9798C17.0963 8.12378 14.8889 10.5004 12.9292 13.0755C12.3223 13.8745 11.6871 14.732 11.7864 15.7618C11.8805 16.8519 12.8964 17.1689 13.8111 17.4325C14.8474 17.7432 15.9086 18.0619 16.9236 18.5564C17.9584 19.0498 18.8695 19.769 19.5898 20.6612C21.776 23.3493 21.933 27.1639 20.7716 30.3163C20.0059 32.4087 18.8196 34.4185 16.9955 35.7625C16.0976 36.4363 15.0169 36.8278 13.9788 37.1829C13.4624 37.3605 12.9381 37.5327 12.396 37.6658C9.83094 38.3343 8.13008 37.6108 6.10893 36.0493C4.79137 35.0426 3.58472 33.8672 2.72054 32.4335C1.59728 30.5488 1.17761 28.3162 0.554765 26.2486C-0.0725191 24.0843 -0.21714 23.5694 0.377315 21.3572C0.771253 19.769 1.1856 18.1791 1.88564 16.6868C2.81991 14.708 4.11529 12.9503 5.31219 11.1358C5.95189 10.2063 7.41053 7.98698 8.04491 7.09036C8.36086 6.63947 8.7211 6.22133 9.12025 5.8422C9.70495 5.29181 10.444 4.84172 11.1095 4.40407C14.0945 2.51316 17.3319 1.05435 20.7255 0.071019L20.7476 0.147365Z" fill="#454545"/>
<path d="M44.5871 0.109016C41.234 1.17271 38.0436 2.69413 35.106 4.63027C33.029 5.9743 32.5978 6.57175 31.2846 8.64018C30.6928 9.55277 29.204 11.852 28.6318 12.7318C27.7543 14.0776 26.8617 15.4429 26.2034 16.9041C25.7734 17.8791 25.427 18.8888 25.1679 19.9224C24.9177 20.9389 24.6063 22.0211 24.4581 23.0411C24.3543 23.8152 24.5424 24.5582 24.7616 25.3013C24.9044 25.8108 25.2939 27.1193 25.4421 27.6422C25.8857 29.162 26.3143 30.7493 27.1341 32.0907C27.9539 33.432 29.1153 34.5541 30.369 35.5005C31.1977 36.1219 32.0796 36.7158 33.0662 37.0096C34.5799 37.4615 36.0953 37.0096 37.5805 36.4912C38.5805 36.145 39.5582 35.7943 40.402 35.1596C42.0807 33.9167 43.1835 32.0046 43.8898 30.0569C44.9686 27.1424 44.8489 23.6234 42.8534 21.1253C41.5527 19.404 39.4713 18.6814 37.4616 18.0653C36.9488 17.9011 36.3925 17.7395 35.8957 17.3844C34.8256 16.6485 34.8239 15.1651 35.3988 14.1131C35.6605 13.6026 36.0048 13.1614 36.3419 12.7362C37.0198 11.884 37.7234 11.0495 38.458 10.2505C39.9258 8.64601 41.5017 7.14399 43.1746 5.75503C43.5916 5.41236 44.0069 5.06348 44.2837 4.6134C44.5605 4.16332 44.7167 3.64843 44.8054 3.12022C44.9225 2.18011 45.2659 0.732208 44.486 0.0273438C44.9198 0.382439 45.0316 0.976336 45.0387 1.51164C45.0343 2.0559 44.9961 2.59936 44.9243 3.13887C44.848 3.67772 44.7131 4.22457 44.4265 4.70661C44.14 5.18865 43.7221 5.56683 43.3184 5.92548C41.695 7.35167 40.1685 8.88464 38.749 10.5142C38.0392 11.3262 37.3572 12.1615 36.703 13.0203C36.2248 13.6506 35.7555 14.2791 35.5842 15.0425C35.4281 15.735 35.5931 16.5295 36.2168 16.937C36.609 17.2122 37.1121 17.3622 37.6302 17.5167C39.1847 17.9827 40.8527 18.4932 42.1658 19.5203C46.4087 22.9319 45.8923 29.1079 43.1418 33.3104C42.2368 34.7202 40.9476 35.9736 39.3843 36.6474C38.8679 36.8756 38.3498 37.0567 37.8387 37.2396C36.2612 37.805 34.4991 38.2951 32.8355 37.7722C31.7424 37.442 30.7913 36.8019 29.8996 36.1281C28.5688 35.1161 27.3577 33.9381 26.4793 32.4884C25.3374 30.5922 24.9213 28.3613 24.294 26.2795C23.6596 24.0966 23.5159 23.5551 24.1166 21.3268C24.5105 19.7289 24.9337 18.139 25.6426 16.6387C26.584 14.6528 27.8776 12.8924 29.086 11.0788C29.7266 10.1458 31.1924 7.93798 31.8321 7.04048C32.15 6.58691 32.5133 6.16691 32.9163 5.78699C33.5107 5.23393 34.2471 4.79006 34.925 4.35418C37.9232 2.47823 41.1779 1.04823 44.5871 0.109016Z" fill="#454545"/>
</svg>
