<svg width="659" height="1281" viewBox="0 0 659 1281" fill="none" xmlns="http://www.w3.org/2000/svg">
<path d="M-458.474 68.0015C-449.725 57.6976 -448.856 55.463 -437.911 45.4741M-459.823 81.9492C-446.688 58.844 -434.742 34.7824 -422.232 23.2818M-460.643 86.5581C-451.821 66.8596 -436.325 43.0495 -413.11 19.6465M-464.84 97.6579C-438.941 66.1593 -418.287 42.058 -407.958 18.09M-463.873 106.641C-447.422 75.7449 -425.004 51.5631 -390.43 6.93422M-465.559 109.152C-441.831 81.527 -419.302 52.2376 -389.286 6.95829M-462.305 116.51C-442.395 78.5218 -408.247 45.0082 -377.906 0.623173M-464.724 123.531C-435.059 79.1275 -408.181 41.4697 -373.356 2.65943M-467.86 130.459C-428.405 89.1769 -400.791 39.8839 -371.295 6.38653M-462.488 135.577C-420.481 89.6657 -390.985 35.9143 -365.408 1.67155M-458.022 144.96C-434.321 106.063 -402.587 58.481 -361.668 0.847412M-459.077 148.49C-431.252 108.963 -409.108 79.2156 -350.79 6.53388M-459.055 152.72C-437.905 118.889 -411.586 87.757 -348.801 3.37393M-453.07 153.061C-419.469 105.275 -381.926 56.7309 -343.236 5.32648M-455.705 161.35C-429.772 125.342 -405.126 91.7707 -341.003 3.31966M-446.246 167.469C-426.015 128.105 -404.413 103.61 -333.346 7.41628M-451.542 166.034C-411.487 115.425 -374.629 61.925 -329.135 5.27271M-443.763 171.315C-399.257 109.362 -356.223 41.8785 -329.413 9.35512M-441.084 173.134C-416.056 133.249 -382.899 93.8831 -323.896 5.18176M-437.146 175.617C-419.213 140.553 -387.896 103.918 -320.024 12.2776M-435.452 178.546C-407.064 134.293 -379.331 89.9945 -317.827 11.8809M-437.746 189.289C-400.584 133.59 -362.087 84.1821 -312.851 9.4346M-436.197 186.279C-403.446 145.918 -372.293 99.136 -311.333 15.1812M-431.12 193.544C-397.473 145.728 -361.386 100.991 -300.524 14.0231M-425.442 192.411C-392.97 155.028 -361.156 106.865 -300.992 21.973M-428.175 197.368C-393.082 149.46 -356.522 107.217 -296.478 18.8969M-418.817 203.683C-373.193 134.448 -326.377 72.7701 -294.031 25.7675M-418.897 203.783C-385.018 164.613 -351.902 119.418 -292.908 24.3276M-414.215 208.802C-390.389 170.933 -359.351 132.712 -289.635 28.4441M-412.651 210.997C-371.77 153.56 -339.101 100.209 -282.396 27.7061M-412.348 217.713C-375.066 165.705 -337.292 111.817 -278.342 34.0129M-405.035 219.502C-365.329 147.748 -313.677 84.4799 -276.084 39.9166M-408.016 219.058C-376.518 182.921 -351.264 141.828 -273.608 43.0552M-399.64 224.415C-361.875 170.571 -318.246 112.049 -271.335 41.5427M-402.708 225.392C-364.226 171.198 -325.46 121.678 -269.776 45.0964M-395.324 233.217C-354.46 168.079 -309.273 110.19 -265.786 52.5633M-390.202 235.911C-367.013 199.486 -338.654 158.41 -260.959 53.8894M-388.743 239.248C-348.636 179.229 -305.946 121.762 -260.939 59.1019M-386.747 237.887C-347.985 188.988 -311.235 138.814 -256.748 60.0608M-382.19 239.05C-345.481 189.991 -305.394 133.95 -253.269 67.3595M-378.858 245.652C-334.523 171.966 -286.807 103.035 -252.878 71.4593M-375.492 249.186C-340.256 190.717 -298.135 136.343 -249.114 70.5884M-371.329 249.263C-330.718 191.98 -292.384 138.067 -251.232 77.0226M-375.194 256.671C-341.968 220.176 -315.047 179.422 -248.437 79.6696M-371.398 253.925C-330.151 198.958 -294.598 148.222 -242.866 83.1831M-365.614 261.679C-327.813 205.733 -296.258 153.59 -235.542 84.8461M-364.878 258.728C-311.78 194.409 -263.301 123.914 -236.796 85.1359M-357.18 268.164C-330.416 230.255 -300.047 192.888 -235.907 88.0347M-353.409 268.651C-316.616 213.574 -278.268 156.729 -226.81 95.3439M-355.571 268.657C-311.331 213.367 -276.689 162.265 -226.448 92.9791M-350.548 271.721C-323.016 236.504 -295.501 198.67 -221.277 98.6569M-347.502 276.489C-309.916 225.599 -272.625 175.36 -220.402 101.346M-340.275 280.933C-319.444 245.48 -297.201 211.183 -214.302 105.717M-343.926 278.981C-300.984 232.386 -267.18 182.3 -215.161 108.317M-340.271 284.878C-292.875 230.448 -256.23 169.234 -210.906 110.126M-336.047 288.733C-293.27 231.937 -253.885 168.89 -209.267 113.515M-328.48 287.495C-299.642 246.769 -268.348 206.717 -207.472 116.426M-326.453 293.872C-289.256 245.347 -255.325 196.98 -202.12 113.87M-326.002 295.187C-292.008 250.019 -262.922 199.619 -201.004 118.006M-321.278 295.958C-284.538 250.724 -246.449 200.665 -196.443 123.21M-321.149 297.098C-285.113 252.463 -255.772 204.528 -189.374 125.01M-315.719 303.068C-274.538 236.718 -223.524 170.204 -192.591 125.531M-308.31 308.287C-269.183 242.994 -222.14 180.823 -188.761 126.492M-306.581 309.777C-281.235 272.033 -257.103 230.546 -182.371 133.137M-301.302 309.337C-266.14 259.154 -234.348 208.893 -179.353 132.593M-300.546 308.567C-262.534 258.611 -224.336 212.521 -172.349 136.362M-301.52 313.155C-259.21 261.111 -212.453 206.565 -175.12 138.341M-294.693 319.575C-267.215 273.485 -229.004 229.569 -167.407 139.783M-290.127 321.975C-257.308 276.032 -225.645 227.811 -167.167 147.488M-284.45 320.091C-237.173 256.341 -193.483 194.178 -165.614 144.737M-286.551 325.168C-257.811 287.082 -230.493 244.352 -155.762 147.02M-279.786 325.811C-235.502 268.13 -199.262 204.923 -151.594 150.868M-277.11 327.692C-251.418 287.127 -219.563 250.687 -149.234 155.937M-271.834 329.429C-235.895 279.185 -198.98 226.437 -149.154 156.721M-271.631 337.068C-229.446 272.686 -185.788 212.394 -145.119 162.362M-267.767 334.142C-236.415 298.646 -209.197 261.021 -142.563 159.059M-260.586 334.93C-233.554 296.398 -207.057 253.639 -141.201 164.253M-262.361 338.534C-212.673 271.762 -160.626 205.747 -134.822 164.273M-259.404 340.349C-222.823 286.918 -185.05 238.641 -128.168 167.644M-254.842 347.019C-225.7 296.29 -192.723 255.652 -129.659 170.346M-252.956 347.817C-220.436 302.927 -185.532 262.558 -122.985 172.251M-245.952 352.646C-214.548 304.461 -180.825 257.053 -117.667 178.962M-245.929 354.278C-192.385 287.556 -143.319 220.898 -118.617 175.751M-239.926 353.593C-207.948 303.894 -172.385 250.877 -114.341 180.863M-233.16 355.275C-184.701 286.912 -136.358 214.398 -114.505 179.311M-231.603 356.688C-197.774 302.488 -156.644 253.877 -109.468 185.635M-230.2 360.781C-184.06 299.903 -137.855 242.272 -102.797 183.442M-224.831 365.734C-188.176 309.917 -149.729 259.187 -101.679 186.217M-222.826 367.009C-192.433 329.458 -157.191 286.386 -99.5524 191.157M-217.909 365.353C-193.456 330.713 -162.798 288.529 -92.6848 191.671M-213.219 371.848C-188.055 330.208 -166.096 293.566 -89.231 192.142M-207.976 369.473C-174.772 319.684 -134.764 269.036 -83.7477 198.983M-210.791 371.314C-169.437 323.904 -134.15 267.739 -78.7454 201.768M-200.724 375.938C-169.741 325.447 -130.063 269.977 -77.9511 199.52M-200.247 379.366C-151.789 315.239 -104.969 251.056 -72.9535 206.703M-195.638 377.315C-152.623 312.674 -105.212 247.573 -74.1749 203.028M-190.161 381.677C-161.42 341.432 -130.902 299.687 -64.4636 209.894M-192.755 381.978C-162.612 345.783 -136.907 307.649 -67.0103 210.55M-190.124 384.639C-134.283 316.929 -92.2725 255.165 -60.8722 214.676M-184.567 390.992C-147.605 344.229 -110.216 293.087 -57.1851 215.033M-179.264 391.012C-148.512 355.502 -126.783 316.779 -53.4314 219.289M-176.71 393.011C-140.162 334.83 -95.6374 277.985 -48.676 216.916M-170.019 395.508C-141.126 350.003 -104.133 299.502 -49.2267 222.822M-166.57 394.488C-133.706 354.98 -101.547 307.538 -40.8978 225.639M-165.068 398.483C-117.63 343.983 -81.6894 286.862 -36.8153 224.504M-161.896 401.113C-110.616 339.14 -60.535 270.391 -39.1292 227.042M-161.817 402.169C-127.926 367.166 -102.191 335.867 -33.2403 228.077M-154.81 406.014C-126.19 373.225 -99.8145 332.886 -30.1717 228.294M-151.213 408.828C-111.413 347.573 -70.6388 291.648 -28.3745 231.51M-148.827 412.107C-99.5362 341.377 -52.9847 271.547 -21.9811 233.871M-144.535 411.687C-109.724 365.543 -81.7069 322.697 -14.8386 236.686M-143.5 415.187C-101.519 363.653 -59.7622 302.195 -11.0326 237.324M-134.603 415.372C-103.047 374.049 -63.1209 319.821 -8.66148 241.954M-136.058 417.95C-93.2417 368.454 -53.4145 308.746 -5.35615 243.358M-130.653 418.28C-87.9314 363.097 -43.0856 300.486 -2.87255 245.195M-128.623 424.856C-94.172 377.499 -59.9144 336.687 0.940021 251.67M-121.971 427.779C-81.4998 371.083 -40.9189 308.987 2.9084 247.055M-117.966 427.141C-88.3157 385.529 -59.8956 348.125 4.93669 255.394M-114.129 427.109C-88.6789 390.561 -57.9345 346.191 12.5329 254.921M-111.288 428.784C-75.7495 386.564 -42.3359 340.995 10.9512 258.131M-110.027 438.385C-61.9872 374.666 -12.5993 310.461 16.1912 260.696M-107.943 437.06C-50.3365 365.886 -5.05068 299.312 24.0833 257.763M-102.165 438.82C-72.2693 395.148 -40.4913 352.923 25.4103 267.473M-97.4212 444.289C-57.421 387.379 -22.7119 337.26 32.6571 267.788M-90.6181 445.333C-52.7764 393.03 -10.8613 331.712 32.7671 264.238M-88.2264 443.259C-63.5274 405.296 -34.0128 364.827 37.295 272.128M-87.3087 444.176C-50.6009 403.79 -20.0005 356.112 38.6828 270.692M-80.2799 447.992C-35.6138 391.119 4.39656 332.44 43.7475 275.279M-81.0917 454.243C-40.038 386.876 1.45793 329.063 43.7451 275.6M-73.4151 450.569C-51.3108 418.286 -22.7394 381.262 53.7849 278.427M-69.4057 454.234C-29.2775 389.728 21.07 328.164 51.1439 279.86M-67.6871 461.384C-40.9678 419.543 -11.5639 376.459 53.9945 283.39M-67.0033 457.664C-32.5963 404.442 9.59146 353.272 58.7539 286.566M-58.4087 458.653C-24.0422 411.846 13.026 363.932 62.4473 284.662M-57.1573 463.51C-20.4243 409.391 16.7058 364.646 68.674 286.075M-55.8816 464.075C-22.5144 422.537 14.8408 374.819 68.3195 287.956M-50.6022 468.935C-23.4019 434.023 1.50833 391.668 77.4085 291.944M-49.2746 472.78C-17.8198 425.918 20.2252 382.268 78.0757 296.71M-46.3629 471.944C2.02248 409.672 43.9495 353.132 80.0068 297.034M-37.8164 474.394C-1.72905 412.837 46.9562 354.444 88.1543 299.155M-471.296 1082.18C-464.209 1063.19 -448.93 1045.36 -438.033 1040.67M-38.6696 478.391C-1.62304 425.46 38.2257 379.497 86.6279 305.153M-475.769 1095.66C-465.37 1076.36 -443.966 1056.34 -428.465 1034.3M-35.8496 483.011C3.64753 420.709 48.7532 368.823 90.0731 305.148M-476.86 1105.74C-460.598 1084.68 -447.135 1061.33 -417.957 1026.79M-27.2672 482.527C20.7197 417.706 71.5351 343.428 94.1174 306.463M-477.09 1111.8C-457.713 1087.52 -436.37 1052.07 -416.444 1025.28M-24.6418 484.814C14.9657 429.138 48.4311 380.533 100.021 312.341M-480.068 1127.58C-459.792 1088.45 -431.456 1062.16 -405.145 1026.19M-22.2464 487.87C17.8522 431.546 59.1889 372.167 102.401 312.384M-479.489 1130.23C-450.11 1094.73 -421.651 1057.38 -398.251 1019.28M-17.0458 490.041C25.4324 430.839 69.5737 368.362 104.612 311.936M-477.886 1139.79C-443.911 1091.75 -413.291 1052.1 -396.36 1023.27M-17.279 492.874C30.2774 418.735 81.8266 354.097 113.366 316.18M-481.222 1141.36C-448.12 1102.67 -415.648 1061.91 -387.721 1022.95M-9.35883 490.145C33.9336 425.919 80.6507 361.993 115.795 320.071M-475.364 1152.67C-457.363 1117.54 -428.319 1083.3 -383.789 1022.36M-11.7063 492.418C36.1919 432.331 74.8198 377.306 121.034 321.391M-476.387 1158.99C-455.196 1125.15 -427.202 1089.03 -376.171 1017.29M-8.00978 497.114C35.7163 436.218 75.4538 383.025 124.593 321.982M-478.001 1158.04C-450.508 1126.56 -424.518 1090.29 -374.502 1017.3M0.0621673 495.609C39.914 442.095 80.6287 387.12 126.266 324.408M-470.003 1167.03C-438.638 1112.54 -396.3 1053.78 -367.894 1017.21M6.18614 498.185C45.9659 447.626 87.4023 394.634 130.058 322.86M-471.428 1169.7C-444.571 1127.6 -414.431 1094.72 -365.467 1018.46M2.67426 503.986C49.9778 442.845 87.8761 381.5 134.932 327.061M-466.16 1173.81C-435.822 1124.43 -399.594 1083.45 -359.262 1019.71M7.88066 502.851C36.6966 469.332 70.6102 434.004 135.955 327.916M-467.282 1178.18C-439.735 1134.33 -407.049 1100.3 -356.369 1024.2M16.5024 504.304C51.808 460.983 83.9709 410.766 139.676 334.4M-466.036 1182.1C-437.532 1134.65 -405.7 1094.94 -351.939 1020.65M14.8448 511.754C59.735 446.755 103.519 389.894 143.022 332.666M-461.997 1182.56C-415.783 1122.85 -372.578 1061.13 -342.466 1020.44M17.1955 510.659C58.3035 455.535 98.7917 400.826 143.906 334.1M-460.514 1188.03C-426.407 1142.81 -387.111 1092.4 -342.371 1022.37M20.8605 514.904C64.5222 446.225 113.528 383.535 151.118 341.776M-460.112 1194.37C-413.11 1123 -364.225 1061.54 -340.163 1021.25M29.2573 519.73C75.5929 454.16 114.923 391.467 152.072 338.857M-457.192 1193.38C-424.944 1156.58 -397.521 1121.07 -334.53 1024.22M29.8875 518.199C75.0109 454.033 125.907 392.441 154.826 342.416M-454.807 1201.3C-423.205 1157.72 -388.165 1111.88 -331.588 1030.05M34.6308 523.23C73.2877 462.153 114.959 408.361 159.807 346.783M-449.795 1203.39C-401.792 1136.04 -353.992 1067 -320.906 1031.44M40.6938 525.067C78.3191 464.964 122.773 405.433 162.726 349.253M-444.589 1206.02C-406.035 1150.93 -369.88 1103.45 -321.565 1029.65M44.6225 521.762C96.467 455.495 140.228 382.32 165.911 351.234M-439.482 1206.64C-397.622 1141.02 -347.711 1080.63 -316.027 1031.78M48.6823 526.12C89.7744 468.844 131.505 405.176 174.632 347.48M-438.287 1211.72C-410.184 1167.74 -383.044 1131.13 -310.716 1029.99M46.7827 527.43C94.3379 473.08 131.198 412.84 175.292 354.078M-433.453 1211.12C-399.704 1163.78 -363.121 1116.27 -305.231 1034.02M55.4014 528.943C102.929 469.851 150.273 402.217 181.547 355.082M-430.56 1216.31C-398.982 1170.54 -369.579 1126.02 -300.936 1034.12M57.8601 535.65C81.3066 488.399 118.843 449.135 184.396 355.115M-431.785 1218.18C-386.315 1166.2 -348.643 1109.45 -300.884 1035.73M60.877 538.625C105.026 471.8 154.959 402.298 183.149 360.751M-424.054 1222.17C-385.454 1163.66 -349.86 1111.61 -292.652 1035.01M63.1528 535.562C92.9853 492.421 127.759 450.338 189.674 359.757M-425.742 1220.76C-395.058 1173.46 -362.992 1129.98 -290.688 1036.08M66.6021 541.757C93.9719 498.034 124.444 461.053 193.095 360.945M-419.216 1225.04C-379.517 1171.5 -347.473 1117.7 -288.622 1039.36M66.9074 541.502C110.212 493.434 140.269 447.037 194.445 368.322M-414.434 1228.56C-372.806 1170.44 -340.718 1119.2 -277.952 1041.53M75.9263 546.927C108.711 492.592 143.191 442.963 197.948 370.851M-409.313 1223.42C-361.958 1163.65 -316.403 1096.22 -279.335 1041.54M77.2481 545.331C105.709 500.283 141.09 452.712 204.034 371.675M-407.676 1231.76C-368.259 1182.31 -337.527 1129.23 -271.064 1043.12M83.6572 545.558C120.364 501.684 155.927 446.292 205.913 371.377M-398.28 1229.07C-373.606 1185.84 -343.315 1142.81 -266.325 1044.66M84.56 548.11C129.469 486.655 176.156 414.828 214.27 378.601M-397.832 1234.02C-351.993 1161.39 -297.198 1094.11 -259.377 1044.34M89.409 552.332C131.714 492.733 165.939 440.292 212.877 374.65M-397.253 1234.37C-357.146 1174.95 -320.998 1128.69 -256.8 1040.03M93.9872 551.643C116.242 514.618 148.449 475.109 216.457 380.068M-391.931 1234.41C-348.814 1182.84 -314.931 1126.12 -251.472 1044.62M95.9758 557.688C143.593 490.279 198.978 417.564 219.685 378.713M-384.643 1234.59C-350.573 1184.97 -311.885 1128.69 -248.882 1048.54M98.2342 560.977C132.39 502.633 173.74 451.577 223.018 382.06M-381.801 1234.55C-350.784 1195.49 -317.17 1142.46 -246.472 1045.38M99.3799 560.99C155.245 486.047 202.756 418.431 229.642 387.44M-377.811 1237.47C-346.282 1198.84 -318.127 1161.07 -242.396 1050.6M109 564.003C159.184 494.529 205.46 426.898 234.997 386.568M-372.863 1241.35C-346.452 1193.69 -313.693 1159.08 -236.877 1048.87M107.125 569.105C157.122 503.87 202.916 437.209 238.43 392.949M-370.007 1240.69C-318.673 1163.57 -261.187 1090.55 -233.796 1050.54M113.69 570.651C138.28 533.441 162.367 493.464 240.256 390.541M-360.493 1242.77C-321.74 1182.89 -275.267 1120.62 -230.27 1047.17M116.402 570.543C147.378 529.773 173.01 493.216 239.975 391.747M-357.653 1244.06C-322.557 1197.66 -284.325 1147.2 -219.816 1053.99M117.199 575.34C147.823 536.056 172.307 495.331 245.8 394.442M-357.773 1243.96C-319.403 1199.84 -286.371 1152.94 -218.999 1049.64M121.521 572.124C150.459 533.992 174.921 496.2 251.433 395.354M-354.878 1242.23C-319.117 1195.12 -286.238 1147.67 -211.491 1053.66M126.912 578.129C166.237 519.046 212.681 467.47 251.758 398.812M-344.291 1246.15C-317.048 1197.54 -286.123 1158.58 -207.479 1052.39M129.8 579.491C176.292 508.712 231.256 439.944 254.189 404.047M-344.805 1244.77C-304.585 1189.82 -263.314 1131.22 -206.457 1052.52M137.337 578.108C163.172 541.031 189.251 494.931 262.167 402.603M-340.829 1245.25C-307.749 1206.44 -274.549 1160.59 -200.045 1056M138.924 581.552C179.321 520.438 228.796 462.273 263.616 410.786M-337.184 1249.61C-289.974 1190.29 -249.276 1133.71 -196.802 1056.61M139.819 587.865C189.477 514.587 244.256 448.011 266.333 411.667M-330.999 1246.9C-297.863 1198.72 -260.359 1152.13 -190.317 1058.4M144.31 585.525C192.242 518.317 248.056 451.158 270.061 408.174M-328.129 1251.51C-297.98 1208.55 -264.53 1162.09 -184.095 1053.02M150.785 591.25C174.4 548.592 205.882 506.711 271.281 411.226M-322.007 1253.86C-283.755 1200.53 -248.909 1155.76 -179.861 1056.61M148.73 589.15C200.029 532.618 246.414 464.627 281.71 418.346M-314.95 1254.98C-262.123 1181.03 -214.439 1110.76 -173.504 1057.02M159.034 594.887C196.452 540.74 241.407 479.997 281.523 417.427M-315.884 1255.85C-266.802 1196.69 -228.425 1132.32 -169.953 1061.1M158.168 593.966C196.989 542.044 238.312 492.983 288.119 420.822M-308.261 1257.49C-270.47 1200.42 -238.462 1154.32 -167.479 1056.36M164.609 598.418C199.802 553.713 226.676 505.038 292.997 425.021M-302.568 1257.48C-260.06 1196.48 -218.44 1130.75 -159.722 1055.82M165.669 597.415C208.025 543.751 251.221 484.707 292.343 423.126M-300.52 1255.89C-259.891 1205.71 -225.927 1152.11 -160.476 1056.69M167.581 602.028C215.96 534.5 259.232 471.009 297.059 426.208M-297.609 1256.97C-267.06 1210.05 -231.857 1169.32 -150.797 1060.89M175.098 605.574C204.813 567.989 232.817 523.826 297.697 426.749M-289.977 1255.71C-246.424 1203.9 -212.383 1153.09 -150.193 1063.06M178.237 608.38C217.882 544.294 262.449 493.736 304.313 432.432M-287.568 1259.14C-244.319 1195.24 -197.55 1138.76 -139.706 1063.8M178.412 611.665C223.791 548.725 263.389 492.065 304.686 432.096M-279.077 1257.95C-224.547 1186.04 -169.031 1114.37 -140.634 1059.3M184.93 613.143C226.786 555.679 259.805 501.758 311.372 437.43M-279.481 1259.92C-225.154 1186.83 -175.61 1119.72 -131.334 1061.1M190.167 608.97C231.431 558.569 266.515 504.303 315.501 438.987M-274.106 1264.05C-221.826 1190.53 -167.264 1121.54 -128.8 1063.29M191.146 613.311C241.18 554.066 286.817 485.786 321.233 435.308M-269.9 1263.75C-208.76 1184.41 -157.569 1109.37 -122.127 1063.61M193.281 614.602C229.61 565.657 267.401 514.49 319.263 439.468M-259.768 1265.12C-219.344 1210.57 -181.66 1151.69 -121.605 1059.91M197.494 618.736C226.595 582.848 250.653 540.659 324.102 444.776M-261.479 1266.33C-227.89 1220.98 -199 1173.13 -112.825 1061.71M201.95 618.977C246.455 558.846 287.709 495.764 326.705 442.11M-255.318 1261.69C-216.773 1218.44 -187.706 1168.67 -107.869 1064.39M205.31 621.813C239.609 581.134 269.34 528.326 336.933 449.428M-247.33 1266.42C-215.208 1222.32 -185.832 1174.76 -105.304 1059.91M207.831 625.089C245.638 577.952 279.932 530.565 337.151 450.786M-243.131 1267.53C-207.894 1219.14 -175.368 1174.16 -96.7454 1062.07M213.168 625.939C248.755 578.032 286.77 524.433 339.814 450.264M-235.95 1262.26C-187.029 1188.39 -133.951 1120.02 -95.1627 1063.5M217.943 627.567C257.316 576.375 291.4 525.859 345.087 455.022M-235.806 1264.06C-178.582 1186.53 -119.475 1110.15 -90.1743 1064.33M224.102 633.483C246.719 590.572 270.275 553.84 346.83 455.419M-231.478 1266.3C-197.147 1228.04 -168.841 1180.48 -80.804 1061.4M222.982 635.586C256.364 578.908 294.448 525.924 354.926 457.45M-226.516 1265C-190.054 1223.32 -162.995 1178.18 -76.9905 1062.64M225.751 632.063C276.671 574.032 317.577 513.613 358.552 455.919M-217.667 1269.76C-190.541 1221.96 -161.299 1172 -72.509 1058.47M235.058 634.423C269.552 581.518 305.375 529.795 356.318 459.39M-217.398 1268.93C-183.736 1230.42 -152.736 1182.18 -67.613 1056.9M233.976 639.685C274.191 596.32 307.659 545.981 363.765 463.284M-210.855 1269.7C-162.224 1208.69 -120.188 1149.02 -57.8248 1057.77M240.446 642.749C280.722 590.283 313.608 537.361 365.667 461.889M-202.332 1268.12C-155.9 1193.87 -96.8276 1118.27 -52.7946 1055.27M242.695 644.557C286.921 583.492 333.551 521.598 368.477 467.842M-197.885 1267.24C-168.484 1223.22 -134.164 1178.33 -49.1418 1058.59M244.799 644.449C272.719 602.853 301.359 568.86 374.366 466.735M-197.254 1269.6C-135.62 1189.07 -79.1457 1105.05 -45.4477 1058.83M254.366 646.825C282.49 600.931 319.073 548.763 375.885 472.515M-189.327 1270.35C-156.408 1220.85 -115.585 1159.95 -42.7077 1057.92M253.869 645.673C283.751 608.008 307.663 574.615 379.505 470.863M-189.418 1269.02C-141.858 1199.07 -88.5833 1131.79 -33.3772 1060.65M256.432 648.677C303.839 590.637 353.982 528.131 384.489 473.198M-180.494 1269.08C-129.674 1198 -70.6658 1123.51 -29.3532 1058.41M265.397 652.712C304.441 589.163 349.075 529.736 392.185 476.363M-179.494 1274.78C-133.435 1218.61 -97.5402 1157.71 -22.0399 1058.42M266.006 651.834C298.787 603.961 331.242 559.831 395.355 478.145M-173.816 1273.11C-141.396 1222.81 -103.921 1170.17 -17.6472 1058.89M267.585 653.781C323.05 587.991 372.321 516.893 398.401 481.862M-169.193 1270.59C-124.423 1214.86 -84.3162 1149.86 -14.3134 1054.36M273.423 655.932C304.638 607.791 337.963 558.116 399.269 480.048M-163.29 1274.34C-129.689 1221.23 -90.9555 1169.51 -10.1433 1054.33M278.694 658.715C321.958 601.446 368.711 540.107 400.448 480.786M-156.939 1272.61C-130.859 1229.98 -94.9359 1184.28 -3.31893 1057.29M276.854 660.822C320.169 604.412 360.986 543.326 409.141 485.821M-156.067 1277.8C-103.112 1202.76 -49.8509 1123.78 7.1356 1054.26M281.458 661.931C334.123 598.118 384.458 525.315 411.723 486.961M-148.005 1273.16C-98.2291 1202.14 -42.83 1123.12 9.10296 1051.87M284.565 666.011C313.155 627.296 340.82 596.214 419.021 489.571M-146.961 1278.21C-106.093 1231.99 -72.8268 1185.11 13.795 1054.4M291.796 664.949C339.476 603.5 381.526 539.241 416.799 493.982M-135.728 1278.49C-98.7322 1222.23 -64.0008 1171.28 22.467 1054.36M292.356 668.111C319.748 634.911 348.853 595.431 425.226 494.064M-134.164 1279.42C-89.8856 1213.62 -45.7498 1158.05 28.7197 1052.78M300.4 673.812C349.767 602.044 403.889 532.007 425.64 491.971M-132.345 1276.65C-71.3644 1191.21 -10.9235 1106.83 30.9216 1052.96M302.44 671.157C353.814 604.492 401.491 538.348 429.822 493.197M-123.356 1278.78C-73.2722 1212.46 -27.5842 1146.85 41.1592 1050.97M309.228 673.232C345.721 626.636 384.139 569.747 432.226 493.932M-117.764 1273.09C-55.8819 1190.1 3.5693 1111.25 43.1952 1048.83M312.796 675.906C343.469 635.732 369.101 593.112 441.094 500.156M-116.017 1274.65C-72.9028 1209.62 -23.5631 1147.11 53.1764 1047.97M314.89 682.128C350.412 620.48 398.022 566.919 445.512 500.704M-108.475 1278.48C-54.4054 1191.69 2.44541 1110.49 57.8186 1045.21M320.621 681.249C353.308 631.977 394.603 576.772 446 504.038M-105.986 1277.32C-58.6108 1213.42 -10.2448 1152.65 61.4658 1045.4M320.942 685.488C355.285 633.239 387.343 590.133 450.09 503.601M-100.748 1279.8C-42.942 1197.31 8.3937 1122.68 69.935 1040.84M327.545 682.65C366.509 630.733 407.137 570.866 452.071 506.632M-93.1126 1274.43C-43.0686 1196.91 13.908 1121.4 75.7681 1041.74M326.16 684.329C361.744 635.669 394.616 592.37 457.187 508.056M-89.2777 1275.27C-39.6232 1214.04 3.87371 1143.63 78.9791 1043.94M333.858 687.048C363.26 647.865 392.204 600.91 463.369 511.257M-83.8967 1275.25C-48.0587 1221.22 -12.44 1174.74 83.7422 1043.34M338.018 691.66C379.075 636.469 415.794 581.411 469.12 512.064M-77.3104 1276.52C-25.7497 1202.49 24.6612 1136.21 90.9752 1042.1M339.612 694.857C373.056 646.377 399.802 606.786 466.694 513.417M-70.8047 1277.68C-38.5536 1229.65 1.15052 1177.94 97.5622 1038.36M344.562 694.952C387.316 630.93 428.631 570.16 470.238 514.522M-70.3949 1278.96C-18.6536 1208.32 35.2159 1135.07 103.996 1036.79M351.965 693.244C384.357 642.648 419.386 589.251 474.842 518.307M-61.0195 1278.42C-12.4329 1210.74 36.3448 1143.73 109.66 1036.92M352.014 697.367C396.345 633.757 446.42 579.196 478.092 521.493M-55.2627 1273.6C-5.42714 1206.82 49.5254 1136.25 118.605 1034.58M353.231 698.101C406.557 632.148 454.044 562.897 487.553 519.257M-51.7349 1278.9C-6.34621 1213.33 38.7804 1145.44 122.797 1032.17M358.866 704.47C400.795 645.776 438.981 588.29 491.071 522.054M-45.9561 1275.55C0.769888 1212.34 45.6625 1144.57 132.859 1027.96M361.874 703.337C399.824 650.109 436.742 601.502 490.005 526.049M-43.9911 1279.14C8.98738 1205.72 62.315 1136.82 137.136 1030.38M267.631 848.61C274.469 835.338 285.145 825.782 297.369 807.18M370.079 702.702C420.749 636.016 467.204 565.863 495.65 522.55M-37.7051 1276.24C33.6754 1185.08 101.268 1092.51 145 1023.35M260.45 866.381C266.748 848.174 279.551 827.778 307.204 797.072M368.231 709.942C420.469 636.088 471.162 572.274 497.168 527.013M-31.7031 1275.02C30.2274 1191.71 96.7943 1099.76 152.211 1023.24M247.065 888.291C262.878 862.968 277.435 841.769 318.963 788.869M374.545 709.114C426.698 638.28 473.65 568.331 508.125 530.165M-28.041 1277.1C10.1796 1221.88 48.408 1175.3 157.293 1021.58M250.686 892.446C272.057 864.833 290.819 835.921 321.654 782.997M377.757 712.841C418.6 657.934 455.051 607.377 510.432 531.584M-20.9284 1271.66C30.8267 1201.06 86.8393 1125.61 165.108 1020.34M244.395 904.224C265.48 872.718 284.336 850.303 333.223 782.281M382.898 709.343C424.445 658.285 467.221 601.248 509.24 532.885M-18.2428 1271.4C36.3065 1201.61 85.8835 1127.89 170.506 1016.53M247.057 905.857C275.113 872.088 296.075 838.592 341.043 780.457M384.362 713.967C414.853 676.664 440.113 643.665 513.011 536.432M-9.04325 1270.12C36.9936 1202.6 81.4299 1138.65 178.518 1012.74M245.235 913.135C285.517 857.506 328.266 807.96 353.456 774.257M390.518 714.551C438.911 641.741 490.469 571.485 515.618 541.478M-4.66668 1275.11C63.0983 1181.23 125.414 1092.38 186.651 1006.95M246.177 923.033C279.737 877.31 313.304 831.002 359.215 770.952M398.494 720.229C435.127 665.488 468.743 611.161 521.063 540.572M3.46988 1269.31C52.0361 1193.89 106.415 1116.91 192.599 1009.13M245.017 931.871C290.344 863.702 336.345 808.773 365.233 771.997M400.936 721.426C438.059 658.408 473.421 609.112 526.425 543.104M8.27274 1270.73C63.7464 1190.2 118.194 1117.05 197.559 1004M250.51 934.787C289.931 882.265 328.071 827.037 368.707 771.549M404.986 718.792C432.2 681.286 462.641 643.538 525.76 543.275M9.95342 1268.8C73.4959 1184.2 138.368 1096.72 205.728 998.263M249.924 941.796C284.602 891.171 323.253 842.558 373.537 769.071M404.032 721.023C451.869 662.51 492.484 609.955 529.213 547.53M20.7446 1271.71C73.3734 1186.3 133.473 1105.83 215.099 996.19M250.63 946.796C279.169 904.364 306.972 864.937 377.541 767.07M411.745 725.717C456.911 657.687 502.521 596.524 539.434 551.493M22.2081 1267.49C83.066 1189.7 139.978 1105.32 219.474 993.222M251.81 948.205C292.858 893.283 329.933 841.209 388.671 767.723M412.613 723.922C442.954 685.669 465.816 643.609 542.51 547.239M28.3815 1267.79C88.4469 1186.23 153.963 1101.83 228.016 994.715M257.957 957.399C296.62 894.654 336.45 835.113 393.334 762.235M415.156 727.108C447.713 686.091 477.228 645.631 543.932 552.014M35.3662 1269.73C75.5168 1210.13 125.986 1147.51 236.906 989.171M257.643 962.431C283.975 916.552 319.482 875.38 395.858 761.953M418.108 733.554C461.015 676.478 502.79 617.089 544.041 552.312M41.864 1266.37C111.791 1167.02 190.047 1067.28 242.396 985.124M255.508 962.017C297.352 903.336 337.443 847.116 404.03 764.294M424.235 732.39C463.626 672.095 506.664 618.741 548.118 555.33M43.7422 1270.26C109.623 1177.88 174.108 1087.81 251.862 982.708M259.285 970.652C318.519 887.828 370.995 809.405 410.334 759.292M427.115 738.312C463.544 691.443 495.968 642.641 554.218 562.706M49.3293 1265.24C98.3083 1207.7 139.506 1143.99 259.327 975.636M261.522 971.591C312.822 900.623 360.261 826.203 414.932 757.404M429.505 735.389C460.555 693.508 493.101 643.461 557.406 564.091M56.5786 1266.93C186.412 1084.83 318.201 900.272 421.504 761.306M432.524 738.606C470.305 683.703 510.614 631.556 557.169 563.892M63.8929 1265.03C140.304 1163.6 216.221 1055.15 424.725 760.49M441.247 744.138C469.029 696.043 501.813 654.146 566.902 564.556M69.3956 1265.14C208.758 1070.94 347.157 878.47 430.237 758.242M438.937 749.13C488.525 677.073 535.704 608.471 565.525 568.046M75.5538 1262.6C271.544 986.436 469.911 711.211 570.194 572.7M82.0169 1261.78C178.943 1127.04 277.237 985.708 572.669 576.713M87.3532 1260.69C223.76 1071.23 360.451 878.122 576.77 578.204M91.5568 1259C216.098 1085.83 341.759 908.262 579.815 580.187M100.259 1258.96C256.999 1036.55 419.998 815.813 583.141 582.719M106.171 1254.89C251.048 1051.58 396.105 852.734 584.211 588.13M109.58 1255.31C302.021 990.565 490.62 724.6 587.123 589.841M116.518 1252.34C213.736 1121.86 307.37 988.955 590.92 593.637M122.642 1251.72C304.186 1003.9 485.814 750.12 594.386 597.051M128.486 1251.31C301.602 1013.06 471.042 775.862 595.48 598.552M135.289 1249.06C272.133 1058.16 406.768 867.529 599.022 603.769M140.443 1249.75C320.99 998.23 501.01 745.62 600.923 604.109M147.54 1248.38C241.359 1113.09 339.846 973.579 603.606 607.894M154.937 1243.49C290.828 1047.39 430.335 854.922 607.619 612.026M160.352 1243.24C329.165 1010.95 493.178 781.46 610.947 615.207M166.349 1240.08C285.535 1075.94 405.206 909.057 614.683 617.465M172.087 1239.96C356.132 992.479 532.777 744.738 616.589 623.106M179.842 1236.01C281.58 1096.82 385.4 951.064 617.844 627.109M187.837 1235.16C325.316 1038.05 465.869 842.292 621.338 630.085M192.439 1232.05C355.093 1003.65 517.546 774.915 623.527 633.13M200.544 1231.59C370.851 995.706 539.756 759.229 626.366 636.932M204.986 1231.02C313.427 1081.94 419.663 933.558 626.08 640.91M211.563 1227.74C369.788 1007.54 524.477 789.547 630.371 646.564M219.306 1224.85C352.511 1039.62 484.884 857.607 633.049 648.362M224.02 1224.83C317.68 1091.18 416.826 954.489 635.611 655.297M232.478 1221.13C396.628 1001.24 557.126 774.211 636.04 659.659M237.347 1221.34C327.779 1089.53 419.795 962.067 637.811 662.995M247 1217.03C357.68 1058.3 469.369 900.481 640.701 667.302M252.69 1213.92C371.236 1043.3 491.396 877.954 641.392 669.192M261.079 1210.89C365.135 1066.6 469.421 921.328 645.773 676.622M267.332 1209.63C414.049 1004.88 560.154 797.403 647.344 681.292M274.547 1205.66C367.31 1078.74 462.044 950.357 647.22 683.649M283.315 1203.53C368.577 1074.91 458.743 952.164 648.695 689.125M290.43 1199.29C399.444 1040.26 514.032 882.181 649.659 697.081M297.479 1194.27C396.865 1048.58 500.605 905.531 652.941 702.356M302.002 1192.07C379.615 1093.5 453.891 990.958 653.267 705.479M312.492 1190.49C407.967 1056.08 504.414 924.087 653.775 710.858M318.528 1187.07C432.249 1025.81 545.649 868.269 653.9 718.904M324.502 1185.38C452.799 1004.23 579.154 824.367 655.724 722.307M332.058 1182.55C430.811 1046.66 524.869 913.087 657.842 731.147M337.738 1182.37C463.581 1003.81 587.426 827.193 656.422 736.492M345.266 1175.78C425.334 1064.66 505.499 954.759 655.186 744.301M353.734 1172.06C441.297 1044.05 531.218 919.121 657.818 752.214M364.079 1169.04C414.569 1101.04 463.339 1029.58 512.826 961.848M512.143 959.216C565.328 883.642 618.409 810.343 653.869 757.17M369.827 1165.53C409.156 1100.69 455.867 1045.2 508.573 971.467M515.152 954.668C559.219 898.246 600.561 839.61 656.398 764.461M381.973 1161.55C431.12 1090.61 478.601 1015.35 513.177 975.622M529.042 953.305C558.778 912.641 594.222 864.424 655.404 771.131M386.191 1156.13C423.007 1107.28 456.493 1065.33 509.731 984.133M534.084 951.597C575.011 896.78 616.967 835.36 656.556 782.882M400.095 1150.97C440.554 1092.88 475.721 1044 510.271 986.619M543.684 943.341C578.818 897.256 623.021 838.76 646.674 793.749M404.849 1140.57C447.335 1081.75 489.305 1025.17 510.421 991.481M550.854 940.455C574.559 902.645 602.21 865.354 644.75 805.67M416.354 1135.97C438.473 1106.99 464.777 1065.14 510.145 1000.08M558.28 938.609C574.687 911.726 596.817 884.645 646.215 819.738M426.305 1132.72C448.555 1094.35 477.534 1062.88 508.695 1014.04M571.174 927.386C587.219 901.003 612.366 868.034 639.267 834.815M437.902 1126.79C453.006 1100.02 464.852 1077.22 505.718 1024.64M585.989 907.859C601.83 898.301 613.65 881.743 628.051 858.595M440.572 1120.09C459.017 1098.19 473.396 1083.54 504.056 1034.35M455.377 1105.4C469.298 1087.24 480.494 1080.62 501.006 1047.44M-450.613 50.4918V50.4918ZM-467.301 1070.9V1070.9ZM275.752 825.961V825.961Z" stroke="#454545" stroke-width="0.519048" stroke-linecap="round"/>
</svg>
