<svg width="696" height="1130" viewBox="0 0 696 1130" fill="none" xmlns="http://www.w3.org/2000/svg">
<path d="M984.658 60.4287C976.944 51.3437 976.178 49.3735 966.527 40.5662M985.848 72.7264C974.266 52.3545 963.733 31.1394 952.703 20.9993M986.57 76.7901C978.792 59.4219 965.129 38.4285 944.66 17.794M990.271 86.5768C967.436 58.8044 949.225 37.5543 940.118 16.4217M989.418 94.4968C974.913 67.256 955.148 45.935 924.664 6.58563M990.905 96.7111C969.984 72.3542 950.12 46.5297 923.654 6.60686M988.036 103.199C970.481 69.7045 940.372 40.1555 913.621 1.02118M990.168 109.389C964.013 70.2385 940.315 37.0356 909.61 2.81655M992.934 115.498C958.146 79.0991 933.799 35.6374 907.792 6.10273M988.197 120.01C951.159 79.53 925.153 32.1374 902.602 1.94553M984.259 128.283C963.362 93.9879 935.382 52.0345 899.304 1.21889M985.19 131.396C960.656 96.5446 941.132 70.3162 889.713 6.23266M985.17 135.125C966.522 105.296 943.317 77.8472 887.959 3.44652M979.893 135.426C950.267 93.2931 917.165 50.4914 883.052 5.16808M982.216 142.734C959.351 110.986 937.621 81.3861 881.084 3.39867M973.876 148.129C956.039 113.422 936.992 91.825 874.332 7.01066M978.546 146.864C943.229 102.242 910.731 55.0711 870.619 5.12068M971.687 151.521C932.446 96.8963 894.503 37.3961 870.865 8.72014M969.325 153.124C947.258 117.957 918.024 83.2486 866 5.04048M965.853 155.313C950.042 124.397 922.429 92.0963 862.586 11.2969M964.359 157.896C939.33 118.878 914.878 79.8199 860.649 10.9471M966.382 167.368C933.617 118.259 899.673 74.6952 856.262 8.79022M965.016 164.714C936.139 129.128 908.672 87.88 854.924 13.857M960.54 171.12C930.874 128.961 899.056 89.5153 845.393 12.8359M955.533 170.12C926.903 137.16 898.852 94.6943 845.806 19.8453M957.943 174.492C927.002 132.251 894.766 95.0055 841.826 17.1331M949.692 180.06C909.465 119.015 868.187 64.6332 839.668 23.191M949.763 180.147C919.891 145.611 890.693 105.763 838.678 21.9214M945.635 184.572C924.627 151.184 897.261 117.484 835.792 25.5509M944.256 186.508C908.211 135.866 879.407 88.8258 829.41 24.9002M943.989 192.429C911.117 146.574 877.812 99.0607 825.835 30.4609M937.541 194.007C902.532 130.742 856.991 74.9578 823.845 35.6663M940.169 193.615C912.398 161.753 890.131 125.521 821.661 38.4336M932.784 198.338C899.486 150.864 861.019 99.2655 819.657 37.1M935.489 199.2C901.559 151.418 867.38 107.756 818.283 40.2332M928.978 206.1C892.949 148.667 853.107 97.6264 814.765 46.8168M924.462 208.475C904.017 176.359 879.012 140.142 810.509 47.9861M923.176 211.417C887.813 158.498 850.174 107.83 810.491 52.5819M921.416 210.217C887.24 167.102 854.837 122.864 806.796 53.4274M917.399 211.242C885.032 167.987 849.687 118.576 803.728 59.8626M914.46 217.063C875.371 152.094 833.299 91.3179 803.384 63.4775M911.492 220.179C880.425 168.627 843.287 120.686 800.065 62.7096M907.822 220.247C872.016 169.74 838.216 122.205 801.933 68.3827M911.23 226.779C881.935 194.601 858.199 158.668 799.468 70.7164M907.883 224.358C871.515 175.893 840.168 131.159 794.556 73.8144M902.783 231.194C869.454 181.867 841.632 135.892 788.099 75.2806M902.134 228.592C855.318 171.882 812.573 109.727 789.204 75.5361M895.347 236.912C871.749 203.488 844.973 170.541 788.42 78.092M892.022 237.342C859.582 188.78 825.77 138.66 780.399 84.5365M893.928 237.347C854.922 188.597 824.378 143.541 780.08 82.4514M889.5 240.048C865.224 208.998 840.964 175.639 775.521 87.4576M886.814 244.253C853.675 199.383 820.794 155.087 774.749 89.8284M880.442 248.171C862.075 216.912 842.464 186.672 769.371 93.6821M883.661 246.449C845.799 205.367 815.993 161.206 770.129 95.9746M880.438 251.649C838.649 203.658 806.34 149.686 766.377 97.5698M876.714 255.048C838.997 204.971 804.271 149.383 764.932 100.558M870.042 253.956C844.615 218.048 817.023 182.734 763.349 103.125M868.255 259.579C835.458 216.795 805.541 174.149 758.63 100.871M867.857 260.738C837.885 220.914 812.239 176.476 757.646 104.518M863.692 261.418C831.298 221.536 797.715 177.398 753.625 109.106M863.578 262.423C831.805 223.069 805.935 180.804 747.392 110.693M858.791 267.687C822.481 209.186 777.502 150.541 750.228 111.152M852.258 272.289C817.76 214.72 776.282 159.903 746.851 112M850.733 273.602C828.386 240.324 807.109 203.744 741.218 117.858M846.079 273.214C815.077 228.968 787.045 184.653 738.556 117.379M845.413 272.536C811.898 228.489 778.218 187.852 732.381 120.702M846.271 276.581C808.966 230.693 767.741 182.6 734.824 122.447M840.252 282.241C816.025 241.604 782.334 202.883 728.024 123.718M836.227 284.358C807.289 243.849 779.372 201.333 727.812 130.512M831.221 282.696C789.536 226.488 751.015 171.678 726.443 128.087M833.074 287.173C807.733 253.592 783.647 215.917 717.756 130.099M827.108 287.739C788.063 236.882 756.111 181.153 714.081 133.492M824.749 289.398C802.096 253.632 774.01 221.503 712.001 137.962M820.098 290.93C788.41 246.63 755.862 200.122 711.93 138.653M819.918 297.665C782.723 240.899 744.231 187.74 708.373 143.626M816.511 295.085C788.868 263.788 764.87 230.614 706.119 140.715M810.18 295.78C786.345 261.806 762.984 224.105 704.918 145.294M811.745 298.957C767.935 240.084 722.045 181.879 699.293 145.311M809.138 300.558C776.884 253.447 743.58 210.882 693.426 148.284M805.115 306.439C779.421 261.711 750.345 225.88 694.741 150.666M803.452 307.142C774.78 267.563 744.004 231.969 688.857 152.346M797.277 311.4C769.588 268.916 739.855 227.116 684.168 158.263M797.256 312.839C750.047 254.01 706.786 195.237 685.005 155.432M791.963 312.235C763.769 268.415 732.413 221.67 681.235 159.939M785.998 313.718C743.272 253.442 700.648 189.507 681.38 158.57M784.626 314.964C754.798 267.175 718.534 224.315 676.939 164.147M783.388 318.573C742.706 264.897 701.968 214.083 671.057 162.213M778.655 322.94C746.336 273.726 712.437 228.997 670.072 164.66M776.887 324.064C750.089 290.955 719.016 252.979 668.196 169.015M772.551 322.604C750.991 292.061 723.96 254.868 662.141 169.468M768.416 328.331C746.229 291.616 726.868 259.309 659.096 169.883M763.794 326.237C734.517 282.337 699.243 237.681 654.261 175.915M766.275 327.86C729.813 286.058 698.701 236.538 649.851 178.37M757.399 331.936C730.082 287.418 695.097 238.51 649.15 176.389M756.979 334.959C714.253 278.419 672.972 221.828 644.744 182.722M752.915 333.151C714.989 276.156 673.186 218.757 645.821 179.482M748.086 336.996C722.745 301.513 695.837 264.706 637.259 185.536M750.373 337.262C723.796 305.349 701.132 271.726 639.504 186.114M748.054 339.608C698.819 279.908 661.778 225.451 634.092 189.752M743.154 345.21C710.564 303.979 677.599 258.887 630.841 190.067M738.478 345.228C711.364 313.918 692.206 279.776 627.531 193.819M736.226 346.99C704.002 295.692 664.745 245.571 623.339 191.727M730.326 349.192C704.852 309.07 672.235 264.543 623.824 196.934M727.286 348.292C698.31 313.458 669.955 271.628 616.481 199.418M725.961 351.814C684.136 303.762 652.446 253.398 612.881 198.417M723.165 354.133C677.951 299.491 633.795 238.876 614.921 200.655M723.095 355.064C693.213 324.202 670.523 296.606 609.729 201.567M716.917 358.454C691.683 329.545 668.427 293.977 607.023 201.759M713.746 360.936C678.654 306.927 642.703 257.618 605.439 204.595M711.642 363.827C668.182 301.464 627.138 239.895 599.802 206.676M707.858 363.456C677.165 322.771 652.462 284.994 593.504 209.158M706.945 366.542C669.931 321.105 633.113 266.918 590.148 209.721M699.101 366.706C671.277 330.271 636.075 282.459 588.058 213.803M700.383 368.978C662.632 325.338 627.517 272.694 585.143 215.041M695.618 369.27C657.95 320.615 618.41 265.41 582.954 216.66M693.828 375.068C663.452 333.313 633.247 297.329 579.592 222.369M687.962 377.645C652.279 327.656 616.499 272.905 577.857 218.3M684.432 377.082C658.289 340.393 633.231 307.414 576.068 225.653M681.049 377.055C658.609 344.83 631.502 305.709 569.371 225.236M678.544 378.531C647.209 341.306 617.749 301.128 570.765 228.066M677.431 386.996C635.075 330.815 591.53 274.205 566.145 230.328M675.594 385.828C624.803 323.074 584.874 264.375 559.187 227.741M670.5 387.38C644.141 348.874 616.122 311.644 558.017 236.303M666.317 392.202C631.049 342.024 600.446 297.834 551.627 236.58M660.319 393.122C626.954 347.007 589.997 292.942 551.53 233.45M658.21 391.294C636.433 357.821 610.41 322.14 547.538 240.408M657.401 392.102C625.036 356.493 598.055 314.456 546.314 239.141M651.204 395.467C611.822 345.322 576.544 293.584 541.849 243.185M651.92 400.978C615.722 341.581 579.135 290.606 541.851 243.469M645.151 397.739C625.662 369.275 600.47 336.631 532.999 245.961M641.616 400.97C606.235 344.095 561.843 289.814 535.327 247.225M640.101 407.274C616.542 370.384 590.617 332.396 532.814 250.337M639.498 403.995C609.161 357.069 571.964 311.952 528.617 253.137M631.92 404.867C601.619 363.597 568.936 321.351 525.361 251.459M630.817 409.149C598.429 361.432 565.691 321.981 519.871 252.704M629.692 409.647C600.272 373.023 567.336 330.95 520.184 254.363M625.037 413.932C601.054 383.15 579.091 345.805 512.17 257.879M623.866 417.322C596.133 376.004 562.588 337.518 511.581 262.081M621.299 416.585C578.638 361.68 541.671 311.828 509.879 262.367M613.764 418.745C581.945 364.47 539.02 312.986 502.695 264.237M995.963 954.629C989.714 937.883 976.243 922.166 966.635 918.029M614.516 422.27C581.852 375.6 546.717 335.074 504.041 269.526M999.907 966.514C990.738 949.499 971.866 931.852 958.199 912.414M612.03 426.343C577.205 371.411 537.435 325.663 501.003 269.521M1000.87 975.4C986.53 956.836 974.66 936.25 948.934 905.792M604.462 425.916C562.152 368.764 517.348 303.272 497.437 270.681M1001.07 980.749C983.987 959.339 965.169 928.085 947.6 904.462M602.148 427.933C567.226 378.843 537.719 335.988 492.232 275.863M1003.7 994.661C985.82 960.157 960.836 936.975 937.637 905.262M600.036 430.627C564.681 380.966 528.234 328.612 490.134 275.901M1003.19 997C977.284 965.692 952.191 932.766 931.559 899.168M595.45 432.541C557.997 380.343 519.078 325.257 488.185 275.506M1001.77 1005.43C971.818 963.071 944.82 928.113 929.892 902.693M595.656 435.04C553.725 369.67 508.274 312.68 480.466 279.248M1004.72 1006.81C975.529 972.694 946.898 936.757 922.275 902.406M588.673 432.633C550.502 376.005 509.311 319.641 478.324 282.679M999.55 1016.78C983.678 985.811 958.07 955.615 918.808 901.891M590.742 434.638C548.51 381.659 514.452 333.142 473.705 283.842M1000.45 1022.36C981.768 992.521 957.086 960.671 912.091 897.416M587.483 438.777C548.93 385.085 513.893 338.185 470.567 284.364M1001.88 1021.52C977.634 993.764 954.719 961.782 910.62 897.429M580.366 437.451C545.229 390.268 509.33 341.796 469.092 286.503M994.823 1029.45C967.168 981.395 929.839 929.59 904.794 897.348M574.967 439.721C539.893 395.144 503.358 348.421 465.748 285.138M996.08 1031.8C972.4 994.675 945.825 965.689 902.654 898.447M578.063 444.836C536.355 390.929 502.94 336.841 461.451 288.841M991.435 1035.42C964.686 991.883 932.743 955.75 897.183 899.548M573.473 443.836C548.065 414.282 518.164 383.133 460.549 289.595M992.424 1039.27C968.135 1000.61 939.316 970.61 894.632 903.512M565.871 445.117C534.742 406.921 506.384 362.644 457.268 295.312M991.325 1042.73C966.193 1000.9 938.127 965.881 890.726 900.384M567.332 451.686C527.753 394.376 489.148 344.242 454.318 293.783M987.764 1043.14C947.017 990.492 908.923 936.074 882.373 900.197M565.26 450.72C529.015 402.117 493.316 353.88 453.538 295.048M986.457 1047.96C956.385 1008.09 921.737 963.643 882.29 901.9M562.028 454.463C523.532 393.908 480.323 338.635 447.18 301.816M986.102 1053.55C944.66 990.619 901.559 936.432 880.343 900.912M554.625 458.718C513.771 400.905 479.093 345.629 446.339 299.242M983.528 1052.68C955.094 1020.23 930.915 988.918 875.376 903.529M554.069 457.368C514.284 400.793 469.408 346.488 443.911 302.381M981.425 1059.66C953.561 1021.24 922.666 980.815 872.783 908.664M549.887 461.804C515.803 407.953 479.062 360.524 439.519 306.231M977.006 1061.51C934.682 1002.12 892.536 941.25 863.364 909.89M544.541 463.424C511.367 410.431 472.172 357.942 436.946 308.409M972.416 1063.82C938.423 1015.25 906.545 973.381 863.945 908.314M541.077 460.509C495.366 402.082 456.782 337.563 434.137 310.155M967.912 1064.36C931.005 1006.51 886.998 953.262 859.062 910.189M537.498 464.352C501.267 413.852 464.473 357.715 426.448 306.845M966.859 1068.84C942.08 1030.06 918.152 997.794 854.38 908.614M539.173 465.507C497.243 417.587 464.744 364.473 425.866 312.663M962.596 1068.32C932.84 1026.58 900.585 984.686 849.543 912.164M531.573 466.841C489.668 414.74 447.925 355.107 420.351 313.548M960.046 1072.89C932.204 1032.54 906.279 993.282 845.757 912.255M529.406 472.755C508.733 431.094 475.637 396.475 417.838 313.577M961.126 1074.54C921.036 1028.72 887.82 978.673 845.711 913.678M526.746 475.377C487.819 416.458 443.793 355.179 418.938 318.546M954.31 1078.06C920.276 1026.47 888.893 980.581 838.452 913.038M524.739 472.678C498.436 434.639 467.775 397.535 413.185 317.669M955.798 1076.81C928.744 1035.11 900.471 996.778 836.721 913.982M521.698 478.139C497.566 439.589 470.699 406.983 410.169 318.717M950.044 1080.59C915.041 1033.38 886.788 985.95 834.899 916.877M521.429 477.914C483.247 435.533 456.746 394.625 408.979 325.221M945.828 1083.69C909.124 1032.45 880.832 987.268 825.492 918.791M513.477 482.698C484.57 434.791 454.169 391.033 405.89 327.451M941.313 1079.16C899.559 1026.46 859.394 967.012 826.711 918.796M512.311 481.291C487.217 441.572 456.022 399.628 400.524 328.178M939.869 1086.52C905.115 1042.91 878.018 996.119 819.418 920.195M506.66 481.491C474.296 442.807 442.94 393.968 398.867 327.915M931.585 1084.15C909.83 1046.03 883.122 1008.09 815.24 921.55M505.864 483.74C466.268 429.556 425.104 366.226 391.498 334.285M931.19 1088.51C890.774 1024.47 842.46 965.152 809.114 921.265M501.589 487.464C464.289 434.915 434.112 388.678 392.727 330.801M930.68 1088.82C895.317 1036.43 863.445 995.636 806.842 917.466M497.552 486.856C477.93 454.211 449.534 419.376 389.57 335.578M925.987 1088.85C887.971 1043.38 858.096 993.374 802.144 921.512M495.799 492.186C453.815 432.751 404.982 368.638 386.724 334.383M919.561 1089.01C889.522 1045.26 855.41 995.639 799.86 924.973M493.808 495.086C463.693 443.644 427.234 398.627 383.786 337.335M917.055 1088.98C889.707 1054.54 860.07 1007.78 797.735 922.184M492.798 495.097C443.541 429.02 401.65 369.403 377.946 342.078M913.538 1091.55C885.738 1057.49 860.913 1024.19 794.142 926.79M484.316 497.754C440.068 436.498 399.266 376.868 373.224 341.309M909.175 1094.97C885.888 1052.95 857.005 1022.43 789.276 925.263M485.968 502.252C441.886 444.735 401.509 385.959 370.197 346.935M906.656 1094.39C861.395 1026.39 810.71 962.015 786.559 926.738M480.18 503.615C458.499 470.807 437.261 435.559 368.587 344.812M898.268 1096.22C864.1 1043.43 823.124 988.52 783.45 923.762M477.789 503.52C450.477 467.573 427.878 435.34 368.835 345.876M895.764 1097.36C864.82 1056.45 831.111 1011.96 774.232 929.773M477.087 507.75C450.086 473.113 428.498 437.206 363.698 348.252M895.87 1097.27C862.038 1058.37 832.914 1017.02 773.512 925.941M473.275 504.914C447.761 471.293 426.193 437.972 358.732 349.056M893.317 1095.75C861.787 1054.21 832.797 1012.37 766.893 929.487M468.523 510.209C433.85 458.115 392.9 412.64 358.445 352.104M883.982 1099.2C859.963 1056.35 832.696 1022 763.355 928.361M465.976 511.409C424.984 449.004 376.522 388.371 356.302 356.72M884.436 1097.98C848.974 1049.54 812.585 997.869 762.455 928.477M459.331 510.191C436.552 477.5 413.558 436.853 349.268 355.447M880.93 1098.41C851.763 1064.19 822.491 1023.76 756.8 931.552M457.932 513.227C422.313 459.342 378.691 408.058 347.991 362.662M877.716 1102.25C836.091 1049.95 800.208 1000.07 753.941 932.085M457.143 518.793C413.359 454.183 365.06 395.484 345.595 363.439M872.263 1099.87C843.047 1057.38 809.979 1016.3 748.223 933.668M453.183 516.73C410.921 457.473 361.71 398.258 342.308 360.359M869.732 1103.93C843.15 1066.05 813.657 1025.09 742.737 928.923M447.474 521.777C426.652 484.166 398.895 447.239 341.233 363.05M864.335 1106C830.608 1058.98 799.884 1019.5 739.005 932.086M449.285 519.926C404.056 470.082 363.157 410.134 332.037 369.328M858.113 1106.99C811.535 1041.79 769.492 979.827 733.399 932.452M440.2 524.984C407.209 477.243 367.573 423.685 332.202 368.517M858.936 1107.76C815.661 1055.59 781.824 998.837 730.269 936.045M440.964 524.172C406.735 478.393 370.301 435.136 326.386 371.511M852.215 1109.21C818.894 1058.89 790.673 1018.24 728.087 931.864M435.285 528.097C404.255 488.681 380.56 445.764 322.085 375.213M847.196 1109.19C809.716 1055.41 773.02 997.457 721.248 931.391M434.351 527.213C397.005 479.898 358.919 427.838 322.662 373.542M845.389 1107.79C809.567 1063.54 779.621 1016.29 721.913 932.154M432.664 531.28C390.009 471.741 351.856 415.76 318.503 376.26M842.823 1108.74C815.888 1067.37 784.85 1031.47 713.379 935.863M426.037 534.407C399.837 501.268 375.146 462.329 317.941 376.737M836.094 1107.63C797.693 1061.95 767.679 1017.15 712.846 937.769M423.269 536.881C388.314 480.376 349.019 435.8 312.108 381.748M833.97 1110.66C795.837 1054.31 754.601 1004.52 703.6 938.428M423.115 539.778C383.104 484.283 348.19 434.326 311.779 381.451M826.483 1109.6C778.404 1046.21 729.456 983.012 704.418 934.456M417.368 541.08C380.464 490.415 351.351 442.872 305.884 386.155M826.839 1111.34C778.939 1046.9 735.257 987.732 696.218 936.04M412.75 537.401C376.368 492.962 345.434 445.116 302.243 387.527M822.101 1114.98C776.005 1050.17 727.898 989.338 693.984 937.972M411.887 541.228C367.772 488.992 327.534 428.789 297.189 384.283M818.392 1114.72C764.485 1044.77 719.349 978.604 688.101 938.259M410.005 542.367C377.973 499.212 344.653 454.098 298.927 387.951M809.458 1115.93C773.817 1067.83 740.59 1015.92 687.64 934.999M406.29 546.012C380.632 514.369 359.42 477.171 294.66 392.631M810.967 1116.99C781.352 1077.01 755.879 1034.82 679.899 936.582M402.362 546.224C363.121 493.207 326.748 437.588 292.365 390.28M805.535 1112.91C771.55 1074.77 745.921 1030.89 675.53 938.946M399.399 548.724C369.157 512.858 342.944 466.297 283.347 396.732M798.492 1117.07C770.17 1078.19 744.269 1036.26 673.268 934.995M397.176 551.613C363.842 510.053 333.604 468.271 283.155 397.931M794.79 1118.06C763.721 1075.38 735.043 1035.73 665.721 936.903M392.47 552.363C361.093 510.123 327.575 462.865 280.806 397.47M788.458 1113.41C745.325 1048.28 698.525 987.997 664.326 938.157M388.261 553.798C353.545 508.662 323.493 464.122 276.157 401.665M788.331 1114.99C737.877 1046.64 685.762 979.288 659.928 938.895M382.83 559.015C362.888 521.18 342.119 488.793 274.62 402.015M784.516 1116.97C754.246 1083.23 729.289 1041.3 651.666 936.308M383.817 560.869C354.385 510.896 320.806 464.179 267.482 403.806M780.141 1115.82C747.992 1079.08 724.134 1039.28 648.304 937.398M381.376 557.762C336.48 506.596 300.413 453.324 264.285 402.456M772.338 1120.02C748.421 1077.88 722.639 1033.83 644.352 933.727M373.17 559.843C342.756 513.196 311.171 467.592 266.255 405.517M772.101 1119.29C742.421 1085.34 715.089 1042.8 640.035 932.338M374.124 564.483C338.667 526.247 309.157 481.864 259.689 408.949M766.332 1119.97C723.454 1066.18 686.391 1013.56 631.405 933.106M368.42 567.184C332.908 520.924 303.913 474.263 258.012 407.72M758.817 1118.57C717.878 1053.11 665.794 986.455 626.97 930.903M366.436 568.778C327.442 514.937 286.329 460.365 255.534 412.968M754.897 1117.8C728.973 1078.99 698.713 1039.4 623.749 933.827M364.581 568.683C339.964 532.008 314.713 502.036 250.342 411.992M754.34 1119.88C699.998 1048.87 650.204 974.796 620.492 934.04M356.146 570.778C331.349 530.313 299.094 484.316 249.003 417.088M747.351 1120.54C718.326 1076.9 682.332 1023.2 618.076 933.24M356.585 569.762C330.238 536.553 309.154 507.11 245.811 415.632M747.431 1119.37C705.497 1057.69 658.525 998.371 609.85 935.646M354.325 572.411C312.526 521.237 268.314 466.125 241.416 417.691M739.563 1119.42C694.755 1056.75 642.727 991.074 606.302 933.669M346.42 575.969C311.995 519.937 272.641 467.541 234.631 420.482M738.681 1124.45C698.071 1074.92 666.422 1021.22 599.853 933.686M345.884 575.195C316.981 532.985 288.364 494.075 231.836 422.052M733.675 1122.97C705.089 1078.62 672.048 1032.21 595.98 934.093M344.491 576.911C295.588 518.904 252.146 456.217 229.151 425.33M729.599 1120.75C690.125 1071.62 654.763 1014.31 593.041 930.104M339.344 578.807C311.821 536.362 282.439 492.563 228.385 423.731M724.394 1124.06C694.768 1077.23 660.616 1031.63 589.364 930.073M334.697 581.261C296.55 530.767 255.328 476.685 227.346 424.381M718.794 1122.54C695.8 1084.95 664.126 1044.65 583.347 932.687M336.319 583.119C298.128 533.383 262.139 479.523 219.68 428.82M718.025 1127.11C671.334 1060.95 624.374 991.311 574.129 930.013M332.259 584.097C285.824 527.833 241.444 463.642 217.405 429.826M710.917 1123.02C667.03 1060.4 618.184 990.73 572.395 927.903M329.52 587.694C304.312 553.559 279.92 526.154 210.97 432.127M709.996 1127.47C673.963 1086.72 644.632 1045.38 568.258 930.136M323.144 586.758C281.104 532.578 244.029 475.921 212.929 436.016M700.093 1127.72C667.473 1078.11 636.85 1033.19 560.612 930.1M322.651 589.546C298.498 560.273 272.837 525.464 205.498 436.088M698.713 1128.54C659.673 1070.52 620.759 1021.53 555.099 928.708M315.558 594.573C272.031 531.294 224.312 469.543 205.134 434.243M697.11 1126.09C643.343 1050.76 590.052 976.368 553.157 928.868M313.759 592.231C268.463 533.453 226.426 475.134 201.447 435.324M689.184 1127.97C645.025 1069.5 604.742 1011.65 544.131 927.115M307.775 594.061C275.598 552.977 241.726 502.818 199.327 435.972M684.254 1122.96C629.692 1049.78 577.274 980.258 542.336 925.23M304.628 596.419C277.584 560.997 254.984 523.419 191.508 441.46M682.713 1124.33C644.699 1066.99 601.196 1011.88 533.535 924.47M302.782 601.904C271.462 547.55 229.485 500.325 187.612 441.943M676.064 1127.71C628.39 1051.19 578.265 979.594 529.442 922.038M297.729 601.129C268.909 557.686 232.499 509.013 187.183 444.882M673.869 1126.68C632.098 1070.35 589.454 1016.77 526.226 922.204M297.446 604.867C267.166 558.799 238.901 520.792 183.576 444.497M669.25 1128.87C618.283 1056.14 573.02 990.34 518.759 918.177M291.624 602.365C257.27 556.589 221.448 503.805 181.83 447.17M662.518 1124.13C618.395 1055.79 568.158 989.208 513.616 918.972M292.845 603.846C261.471 560.942 232.487 522.765 177.319 448.425M659.137 1124.88C615.357 1070.89 577.005 1008.81 510.785 920.914M286.058 606.243C260.134 571.695 234.614 530.295 171.868 451.248M654.393 1124.86C622.794 1077.22 591.389 1036.24 506.585 920.388M282.39 610.309C246.19 561.647 213.815 513.102 166.797 451.959M648.586 1125.98C603.124 1060.71 558.677 1002.27 500.208 919.289M280.985 613.128C251.497 570.383 227.915 535.476 168.937 453.152M642.849 1127.01C614.414 1084.66 579.406 1039.06 494.4 915.994M276.62 613.212C238.924 556.763 202.496 503.183 165.812 454.126M642.488 1128.13C596.868 1065.85 549.371 1001.27 488.727 914.607M270.093 611.706C241.533 567.095 210.648 520.015 161.752 457.464M634.222 1127.66C591.383 1067.98 548.376 1008.9 483.733 914.724M270.05 615.34C230.963 559.256 186.812 511.149 158.887 460.273M629.146 1123.4C585.206 1064.53 536.754 1002.3 475.847 912.663M268.976 615.988C221.96 557.837 180.09 496.778 150.545 458.301M626.036 1128.08C586.016 1070.27 546.228 1010.41 472.151 910.535M264.008 621.603C227.039 569.853 193.371 519.167 147.443 460.767M620.94 1125.13C579.742 1069.39 540.16 1009.64 463.279 906.825M261.357 620.605C227.895 573.673 195.345 530.817 148.383 464.289M619.208 1128.29C572.497 1063.55 525.478 1002.8 459.508 908.959M344.45 748.692C338.421 736.99 329.008 728.564 318.23 712.163M254.122 620.044C209.446 561.247 168.487 499.393 143.406 461.205M613.665 1125.73C550.729 1045.35 491.133 963.736 452.574 902.762M350.782 764.361C345.229 748.307 333.941 730.324 309.559 703.251M255.751 626.428C209.693 561.311 164.997 505.046 142.068 465.14M608.374 1124.66C553.769 1051.2 495.077 970.129 446.216 902.664M362.584 783.679C348.641 761.352 335.806 742.661 299.191 696.018M250.184 625.698C204.201 563.243 162.803 501.57 132.406 467.919M605.145 1126.49C571.446 1077.81 537.739 1036.74 441.736 901.202M359.39 787.342C340.548 762.995 324.005 737.504 296.818 690.841M247.352 628.985C211.341 580.572 179.202 535.997 130.373 469.17M598.874 1121.69C553.241 1059.44 503.855 992.926 434.845 900.107M364.937 797.727C346.347 769.948 329.721 750.185 286.618 690.21M242.82 625.901C206.188 580.882 168.471 530.592 131.423 470.317M596.506 1121.46C548.409 1059.93 504.697 994.933 430.085 896.743M362.591 799.167C337.853 769.393 319.371 739.859 279.723 688.602M241.529 629.977C214.645 597.087 192.373 567.991 128.099 473.444M588.394 1120.34C547.804 1060.81 508.624 1004.42 423.022 893.405M364.197 805.583C328.68 756.536 290.989 712.851 268.778 683.134M236.101 630.492C193.433 566.296 147.974 504.351 125.8 477.893M584.536 1124.74C524.787 1041.96 469.843 963.625 415.851 888.297M363.367 814.311C333.776 773.996 304.18 733.167 263.7 680.221M229.069 635.499C196.769 587.233 167.129 539.333 120.999 477.095M577.362 1119.62C534.541 1053.12 486.595 985.254 410.606 890.222M364.39 822.103C324.424 761.998 283.865 713.568 258.394 681.142M226.915 636.553C194.184 580.99 163.005 537.526 116.271 479.327M573.127 1120.88C524.216 1049.88 476.209 985.379 406.233 885.701M359.546 824.674C324.788 778.366 291.16 729.671 255.331 680.747M223.344 634.231C199.35 601.162 172.509 567.88 116.857 479.478M571.645 1119.17C515.619 1044.58 458.422 967.455 399.03 880.641M360.063 830.854C329.487 786.218 295.408 743.356 251.073 678.563M224.186 636.198C182.007 584.607 146.197 538.269 113.813 483.229M562.13 1121.74C515.727 1046.44 462.737 975.485 390.768 878.813M359.44 835.262C334.277 797.85 309.764 763.087 247.542 676.798M217.385 640.337C177.562 580.355 137.348 526.428 104.801 486.724M560.84 1118.02C507.182 1049.43 457.002 975.029 386.911 876.196M358.4 836.505C322.208 788.08 289.518 742.166 237.73 677.374M216.62 638.755C189.868 605.027 169.71 567.942 102.09 482.972M555.397 1118.28C502.437 1046.37 444.671 971.952 379.379 877.512M352.98 844.611C318.891 789.289 283.773 736.792 233.618 672.535M214.378 641.564C185.672 605.398 159.648 569.725 100.836 487.183M549.238 1119.99C513.838 1067.44 469.339 1012.23 371.541 872.625M353.257 849.048C330.04 808.596 298.733 772.295 231.393 672.286M211.775 647.247C173.943 596.923 137.111 544.56 100.74 487.446M543.509 1117.03C481.855 1029.43 412.856 941.494 366.7 869.057M355.139 848.683C318.245 796.944 282.897 747.374 224.187 674.351M206.373 646.221C171.642 593.059 133.694 546.017 97.1444 490.107M541.853 1120.46C483.766 1039.01 426.91 959.598 358.354 866.927M351.809 856.296C299.582 783.271 253.314 714.125 218.629 669.94M203.833 651.442C171.714 610.118 143.125 567.088 91.766 496.61M536.927 1116.04C493.742 1065.31 457.418 1009.13 351.772 860.691M349.836 857.124C304.606 794.552 262.779 728.935 214.575 668.276M201.726 648.865C174.349 611.938 145.654 567.812 88.9559 497.831M530.535 1117.53C416.061 956.971 299.863 794.242 208.78 671.716M199.064 651.702C165.753 603.294 130.212 557.315 89.1647 497.656M524.086 1115.85C456.715 1026.42 389.779 930.799 205.941 670.996M191.373 656.579C166.878 614.173 137.971 577.233 80.583 498.241M519.235 1115.95C396.359 944.718 274.332 775.019 201.08 669.014M193.41 660.98C149.688 597.448 108.09 536.961 81.7973 501.318M513.805 1113.71C341.001 870.214 166.1 627.547 77.68 505.422M508.107 1112.98C422.647 994.186 335.981 869.571 75.4981 508.96M503.402 1112.02C383.132 944.98 262.611 774.712 71.8825 510.275M499.695 1110.54C389.887 957.845 279.091 801.287 69.1978 512.023M492.023 1110.5C353.824 914.396 210.108 719.775 66.2648 514.255M486.81 1106.91C359.071 927.652 231.175 752.328 65.3217 519.027M483.804 1107.28C314.129 873.854 147.841 639.352 62.7538 520.535M477.687 1104.66C391.97 989.617 309.413 872.434 59.4062 523.882M472.287 1104.11C312.22 885.615 152.079 661.853 56.3502 526.892M467.134 1103.75C314.498 893.686 165.103 684.55 55.3855 528.216M461.137 1101.77C340.481 933.453 221.773 765.373 52.2626 532.816M456.592 1102.38C297.404 880.612 138.68 657.885 50.5861 533.115M450.335 1101.17C367.614 981.882 280.778 858.877 48.221 536.452M443.813 1096.85C323.998 923.959 200.994 754.257 44.6824 540.095M439.038 1096.64C290.196 891.831 145.585 689.486 41.7481 542.9M433.751 1093.85C328.665 949.131 223.15 801.988 38.4547 544.891M428.692 1093.75C266.419 875.542 110.671 657.108 36.7739 549.865M421.854 1090.27C332.152 967.537 240.614 839.026 35.667 553.394M414.805 1089.52C293.589 915.726 169.663 743.121 32.5866 556.018M410.747 1086.77C267.335 885.392 124.1 683.715 30.6562 558.703M403.601 1086.36C253.441 878.387 104.518 669.885 28.1533 562.055M399.684 1085.86C304.072 954.419 210.404 823.591 28.4056 565.563M393.886 1082.97C254.378 888.824 117.989 696.616 24.6221 570.548M387.059 1080.42C269.611 917.106 152.898 756.625 22.2612 572.133M382.903 1080.41C300.322 962.564 212.905 842.045 20.0023 578.247M375.445 1077.14C230.714 883.264 89.202 683.094 19.624 582.094M371.152 1077.33C291.418 961.109 210.288 848.727 18.0625 585.035M362.641 1073.52C265.054 933.572 166.578 794.427 15.5145 588.833M357.624 1070.79C253.102 920.347 147.157 774.565 14.9047 590.499M350.227 1068.11C258.481 940.897 166.532 812.807 11.0422 597.05M344.714 1067C215.354 886.474 86.5328 703.543 9.65744 601.168M338.353 1063.5C256.563 951.601 173.036 838.402 9.76672 603.246M330.622 1061.63C255.446 948.218 175.947 839.996 8.46587 608.074M324.348 1057.89C228.231 917.671 127.199 778.292 7.61563 615.089M318.133 1053.46C230.505 925.004 139.037 798.88 4.72192 619.74M314.146 1051.52C245.714 964.61 180.225 874.201 4.43445 622.493M304.896 1050.13C220.716 931.621 135.679 815.24 3.98676 627.236M299.575 1047.11C199.307 904.931 99.3219 766.026 3.87668 634.33M294.307 1045.62C181.188 885.903 69.7805 727.317 2.26828 637.331M287.645 1043.13C200.574 923.312 117.643 805.541 0.40131 645.125M282.637 1042.97C171.681 885.531 62.4872 729.809 1.65262 649.837M275.999 1037.16C205.404 939.186 134.722 842.284 2.74306 656.723M268.533 1033.88C191.329 921.009 112.046 810.862 0.422173 663.699M259.412 1031.21C214.895 971.262 171.894 908.255 128.262 848.534M128.864 846.213C81.9706 779.58 35.1689 714.952 3.90426 668.069M254.344 1028.12C219.668 970.952 178.482 922.022 132.011 857.015M126.211 842.204C87.3571 792.456 50.9058 740.757 1.67451 674.498M243.635 1024.61C200.302 962.061 158.438 895.709 127.952 860.678M113.964 841.001C87.7461 805.148 56.4947 762.635 2.55045 680.379M239.916 1019.83C207.455 976.758 177.931 939.777 130.99 868.183M109.519 839.496C73.4334 791.164 36.4401 737.009 1.53513 690.74M227.657 1015.29C191.984 964.064 160.977 920.965 130.514 870.374M101.055 832.217C70.0762 791.583 31.1025 740.007 10.2475 700.321M223.465 1006.11C186.005 954.255 149.001 904.364 130.382 874.662M94.7326 829.672C73.8318 796.335 49.4521 763.455 11.9439 710.831M213.321 1002.06C193.819 976.504 170.627 939.605 130.625 882.244M88.1849 828.044C73.7189 804.342 54.2069 780.464 10.6528 723.235M204.547 999.196C184.93 965.363 159.379 937.617 131.904 894.552M76.8163 818.149C62.6692 794.887 40.497 765.819 16.7783 736.529M194.322 993.962C181.005 970.36 170.56 950.261 134.529 903.894M63.7537 800.932C49.7869 792.504 39.3655 777.906 26.6677 757.496M191.968 988.053C175.705 968.746 163.028 955.826 135.994 912.461M178.914 975.1C166.64 959.094 156.769 953.259 138.684 924.002M977.727 44.9904V44.9904ZM992.44 944.683V944.683ZM337.29 728.722V728.722Z" stroke="#454545" stroke-width="0.457645" stroke-linecap="round"/>
</svg>
