<svg width="245" height="329" viewBox="0 0 245 329" fill="none" xmlns="http://www.w3.org/2000/svg">
<g style="mix-blend-mode:overlay" opacity="0.5" clip-path="url(#clip0_2168_14478)">
<path d="M149.816 221.438C139.859 223.94 131.486 229.865 123.004 235.411C133.34 234.474 142.308 228.226 149.816 221.438Z" fill="white"/>
<path d="M191.844 198.605C186.118 201.685 181.004 205.16 176.664 210.04C183.309 209.626 189.827 205.034 191.844 198.605Z" fill="white"/>
<path d="M166.238 237.861C155.758 239.499 129.072 248.827 124.156 235.538C123.382 233.557 123.166 231.306 123.022 229.02C122.374 231.216 122.086 233.575 122.446 235.988C126.515 253.599 155.704 244.253 166.238 237.861Z" fill="white"/>
<path d="M193.448 200.212C190.945 195.981 196.635 195.279 199.39 196.377C204.9 198.646 203.694 206.101 201.695 210.62C197.877 219.516 188.838 224.738 181.311 230.572C192.998 226.412 206.449 218.075 206.719 204.174C206.953 189.012 187.073 193.46 193.43 200.23L193.448 200.212Z" fill="white"/>
<path d="M145.423 171.4C167.157 183.59 177.511 208.296 182.192 231.686C183.759 239.627 184.659 247.676 185.056 255.743L187.667 254.141C178.375 248.775 169.948 241.86 162.097 234.532C146.791 219.874 131.828 202.227 130.495 180.187C130.279 175.343 130.261 168.771 135.141 166.286C140.183 164.359 145.747 167.438 150.23 169.797C143.388 164.935 132.584 160.776 129.469 171.904C127.398 180.097 129.127 188.686 131.395 196.645C132.944 201.975 135.465 207.089 138.454 211.753C151.293 231.02 168.435 247.442 188.711 258.769C187.324 226.23 177.061 186.814 145.441 171.418L145.423 171.4Z" fill="white"/>
<path d="M193.447 132.987C227.786 128.971 220.349 171.413 220.601 193.435L223.914 193.255C222.438 176.581 208.266 168.496 193.465 165.003C206.52 170.117 219.827 178.094 220.619 193.561L223.932 193.381C224.922 170.567 229.55 125.028 193.465 132.987H193.447Z" fill="white"/>
<path d="M84.5949 192.194C71.54 220.626 81.1556 242.631 107.608 257.594L115.152 262.024L109.804 255.073C107.752 252.408 106.221 248.915 104.906 245.494C102.007 237.067 98.7302 227.361 101.719 218.574C102.476 216.935 103.682 215.441 105.411 214.594C97.6678 217.781 98.6221 228.423 99.4144 235.302C100.729 243.045 102.656 250.446 107.139 257.162L109.336 254.641C83.7486 239.335 75.8796 220.861 84.5949 192.176V192.194Z" fill="white"/>
<path d="M214.244 221.016C238.301 237.6 236.987 254.958 235.294 281.374L237.329 280.816C231.206 271.975 222.581 255.571 210.625 254.688L210.373 257.659C224.454 260.54 216.873 291.836 219.79 303.271C220.582 310.365 224.634 317.208 230.054 321.763C232.683 324.122 235.456 326.193 238.247 328.228L239.309 324.969C220.222 324.861 205.781 309.609 198.362 293.151C196.327 288.883 194.923 284.363 192.87 280.078C190.997 276.404 186.712 266.861 181.4 270.57C175.872 276.999 180.571 292.448 183.452 299.489L185.217 298.031C174.359 291.35 163.339 285.12 153.615 276.909C148.861 272.821 144.27 268.265 141.551 262.593C138.616 256.867 139.48 249.826 143.82 245.019C139.192 249.682 137.967 256.975 140.812 262.917C146.395 274.676 157.505 282.455 167.859 289.711C174.179 293.979 180.751 297.886 187.036 302.1C183.651 293.673 180.499 284.291 182.21 275.18C182.516 274.136 182.966 272.659 183.795 272.749C185.001 273.109 185.901 274.37 186.748 275.468C190.727 281.194 192.51 288.217 195.445 294.519C199.478 303.235 204.899 311.518 212.317 317.946C219.718 324.41 229.388 328.426 239.273 328.588L245.018 328.714L240.336 325.329C232.071 319.585 224.292 313.102 223.139 302.766C220.006 289.747 228.433 258.596 210.949 254.742L210.697 257.713C221.537 258.506 231.368 276.603 237.419 284.886C238.571 257.407 240.606 237.312 214.262 221.034L214.244 221.016Z" fill="white"/>
<path d="M129.415 280.24C133.341 288.181 133.935 296.518 137.32 304.747C140.993 314.255 150.411 317.928 159.811 315.461C135.177 314.003 142.362 293.817 129.397 280.24H129.415Z" fill="white"/>
<path d="M124.608 302.65C116.703 309.979 127.219 320.477 135.809 318.658C132.585 316.66 129.47 314.841 127.021 312.176C124.464 309.475 123.96 306.468 124.59 302.65H124.608Z" fill="white"/>
<path d="M214.244 233.837C218.53 237.69 221.879 241.112 223.842 246.64C227.371 240.535 220.96 232.738 214.244 233.837Z" fill="white"/>
<path d="M153.418 192.205C155.039 198.381 158.1 204.072 163.016 208.213C162.493 201.803 159.036 195.5 153.418 192.205Z" fill="white"/>
<path d="M203.045 148.988C205.278 153.31 207.871 156.515 211.04 160.188C212.823 155.093 208.303 149.186 203.045 148.988Z" fill="white"/>
<path d="M115.008 43.3535C122.553 50.7183 129.45 58.9654 135.824 67.3565C133.934 56.5885 125.506 46.6127 115.008 43.3535Z" fill="white"/>
<path d="M147.025 83.3633C144.306 85.4881 147.259 90.1698 150.23 88.1711C149.528 85.0199 149.618 84.8939 147.025 83.3633Z" fill="white"/>
<path d="M71.793 14.541C65.4546 18.2144 56.0731 22.41 49.3926 25.5071C41.9558 29.1445 33.7807 33.8803 30.1793 41.7492C42.0998 29.7387 60.6648 27.5959 71.793 14.541Z" fill="white"/>
<path d="M103.809 28.9473C84.1632 29.0733 40.1187 45.9997 33.3842 65.7531C35.0588 62.764 37.3997 60.3511 39.9746 58.2443C47.7896 51.9059 56.829 47.3322 65.9044 43.0286C78.167 37.4285 90.6456 32.1705 103.809 28.9473Z" fill="white"/>
<path d="M99 27.3429C90.8609 21.0225 82.1097 14.8102 71.7918 12.9375C79.9128 19.2759 88.6821 25.4522 99 27.3429Z" fill="white"/>
<path d="M82.9922 32.1523C75.6814 25.4538 65.9038 20.3399 55.784 20.9521C64.7333 25.2197 73.3045 29.8294 82.9922 32.1523Z" fill="white"/>
<path d="M63.7988 36.9423C60.0354 31.9544 53.9311 29.2894 47.7908 28.9473C51.7523 33.7371 57.6945 36.294 63.7988 36.9423Z" fill="white"/>
<path d="M172.63 136.188C147.601 143.3 97.8483 162.441 89.4032 189.001C91.2579 185.22 93.8508 181.943 96.7679 179.026C105.645 170.274 116.557 164.008 127.451 158.048C142.163 150.071 157.505 143.408 172.648 136.188H172.63Z" fill="white"/>
<path d="M180.645 156.994C170.453 160.541 160.837 164.395 150.231 166.592C160.999 169.509 173.082 164.863 180.645 156.994Z" fill="white"/>
<path d="M124.607 184.204C117.063 185.842 111.715 192.163 106.979 197.763C105.412 199.635 103.9 201.49 102.189 203.399C104.71 202.751 106.943 201.328 108.924 199.779C114.812 195.08 119.115 189.335 124.589 184.186L124.607 184.204Z" fill="white"/>
<path d="M177.439 152.185C175.765 146.747 170.345 142.642 164.637 142.588C167.968 147.018 172.254 150.241 177.439 152.185Z" fill="white"/>
<path d="M169.426 155.4C165.752 149.494 158.802 145.604 151.815 145.802C157.001 150.268 162.835 153.509 169.426 155.4Z" fill="white"/>
<path d="M166.238 161.811C161.845 154.339 151.833 152.304 143.838 153.816C151.149 157.364 158.838 158.444 166.238 161.811Z" fill="white"/>
<path d="M108.616 67.361C117.44 70.4942 126.785 75.1939 131.035 83.9092C135.32 92.4264 134.438 102.474 132.637 111.568C129.972 126.099 119.853 136.939 104.421 136.111C80.5438 136.309 59.5659 112.882 67.6329 89.2032C70.46 80.1458 77.7347 73.2672 86.6841 70.1881C95.6154 66.8388 105.429 66.2446 115.045 65.7584C100.711 65.4343 84.5053 65.6504 73.161 75.7702C48.3657 100.89 71.3243 139.946 104.349 139.64C121.329 140.432 132.943 128.26 135.392 112.126C137.067 102.51 137.535 91.9042 132.601 83.0809C127.649 74.2756 117.962 69.8459 108.652 67.361H108.616Z" fill="white"/>
<path d="M95.7962 84.967C103.035 86.0294 111.066 87.2178 116.774 92.0796C128.857 103.892 104.259 119.756 92.9691 116.911C85.9285 115.65 82.6873 108.7 82.5252 102.145C83.1554 86.1914 107.357 81.8158 113.875 96.0951C116.036 103.352 105.268 105.459 100.082 103.766C93.0952 101.929 89.1877 95.1228 88.5215 88.1902L87.7832 89.8108C89.89 88.3883 92.1408 87.1278 94.3736 86.6056C104.872 84.5168 101.306 104.54 96.1563 108.304C92.0868 111.563 88.3414 105.999 86.3246 102.596C85.0461 100.381 83.9657 97.9859 82.9934 95.5549L82.6693 97.2836C86.7748 92.7279 94.2836 92.926 99.5416 95.4829C102.297 96.7974 104.746 98.9582 105.628 101.587C106.978 105.297 103.863 110.501 99.9738 111.581C95.5081 112.571 91.5106 108.934 89.0977 105.333C84.9921 98.8502 86.1986 92.3497 94.8958 92.2057C97.6509 92.2057 100.604 92.4038 103.161 93.4121C106.114 94.4926 108.545 96.7254 109.859 99.5525C112.705 105.063 109.968 113.742 102.693 112.589C96.8406 111.545 89.4758 106.755 89.944 100.111C90.1781 96.8514 92.8971 94.0424 96.0843 93.4482C99.3615 92.6379 102.801 94.2044 105.376 96.1852C101.576 92.7459 95.346 91.3054 91.4566 95.3749C84.3259 103.028 94.5717 112.751 102.495 114.012C111.12 115.578 114.973 105.495 111.642 98.7601C109.121 92.6739 102.369 89.9368 96.1563 89.9368C78.4016 88.8744 82.7773 108.88 94.8418 114.066C102.621 117.613 111.138 108.34 108.599 100.669C104.385 89.7748 86.8648 86.6776 79.4821 95.8791C80.6165 98.7602 81.8049 101.605 83.3535 104.342C98.2091 130.434 113.767 89.0365 98.4612 83.3104C93.4193 81.9238 88.7555 85.039 84.9381 87.614L85.0642 88.6584C85.7304 94.5646 88.4314 100.867 93.5634 104.378C100.262 109.06 111.372 109.222 116.342 101.875C118.881 97.7698 116.342 92.6919 113.227 89.9008C108.869 85.5252 102.315 83.5805 96.3004 84.7329C84.2358 86.8397 76.691 97.7338 81.5168 109.546C88.5935 128.057 115.982 117.073 120.718 102.181C123.887 88.5323 105.502 85.8853 95.7782 85.021L95.7962 84.967Z" fill="white"/>
<path d="M7.77917 68.957C-7.13043 83.3624 2.5212 107.924 10.9844 123.373C10.03 118.638 8.67952 114.064 7.45506 109.508C4.01577 96.2553 0.144306 81.5077 7.77917 68.957Z" fill="white"/>
<path d="M25.371 142.588C19.3207 145.433 21.9677 154.508 28.5762 153.788C27.4237 151.843 26.1993 150.439 25.6231 148.548C25.0649 146.657 25.371 144.839 25.371 142.588Z" fill="white"/>
<path d="M195.517 191.239C196.166 135.112 170.218 79.9213 130.027 41.2427C124.247 35.6066 117.206 29.7364 110.67 25.0187C99.3253 16.8076 87.1887 9.1727 73.5936 5.35527C62.7536 2.31212 51.4273 1.97 40.2631 2.36614C51.3733 2.79831 62.6095 3.50057 73.0894 7.0479C88.8634 12.1618 102.531 22.2996 115.405 32.5275C136.491 50.3001 154.372 72.1604 167.625 96.3254C183.885 125.316 193.843 157.981 195.499 191.239H195.517Z" fill="white"/>
<path d="M40.263 0.771484C35.9774 4.51689 34.933 10.6392 33.7266 15.9512C32.6462 21.4432 32.0159 27.0073 31.4037 32.5534C30.7915 38.0995 30.4133 43.6456 29.2429 49.0116C26.5779 62.9668 28.5586 77.3723 32.16 90.9674C37.0038 110.343 50.4909 125.576 59.2602 142.971C67.0571 157.826 74.3859 173.168 85.9102 185.701C93.7791 193.642 100.856 202.123 108.347 210.442C115.945 218.527 123.364 227.279 133.088 232.861C123.796 226.666 116.828 217.717 109.679 209.29C102.566 200.773 95.6518 191.895 87.999 183.828C77.447 171.908 69.7221 155.504 62.3753 141.332C54.9926 126.495 44.0805 113.08 37.8861 97.8639C34.0867 87.6541 31.7638 76.67 30.9175 65.7939C29.9632 54.7017 32.9343 43.6996 33.1684 32.6975C33.5105 27.1334 33.8886 21.5873 34.6809 16.1132C35.6533 10.8013 36.3195 4.78699 40.281 0.771484L40.263 0.771484Z" fill="white"/>
</g>
<defs>
<clipPath id="clip0_2168_14478">
<rect width="245" height="327.939" fill="white" transform="matrix(-1 0 0 1 245 0.769531)"/>
</clipPath>
</defs>
</svg>
