<svg width="189" height="244" viewBox="0 0 189 244" fill="none" xmlns="http://www.w3.org/2000/svg">
<g style="mix-blend-mode:overlay" opacity="0.5">
<path d="M51.418 149.072C54.7311 137.922 61.6919 128.253 65.1803 117.215C66.1679 113.822 67.3306 109.314 68.4934 106.049C73.2561 91.0602 82.0646 77.728 92.2908 65.9089C102.453 54.074 114.209 43.4018 127.748 35.5012C134.613 31.6624 141.287 27.967 148.359 24.5742C155.32 21.4841 163.555 18.6328 171.01 21.5159C159.35 18.5213 148.662 26.2149 139.009 31.7102C115.228 44.4212 95.6676 63.9019 80.8381 86.2657C74.7056 95.9981 70.5323 106.845 67.1554 117.852C63.1414 128.907 55.6868 138.161 51.418 149.04V149.072Z" fill="white"/>
<path d="M79.9941 173.935C87.2257 170.622 93.1193 165.222 98.8536 159.838C104.556 154.359 110.497 149.007 116.662 144.037C122.747 138.988 129.054 134.145 134.741 128.809C153.728 110.253 168.987 84.1137 173.208 57.7359C174.706 46.3629 176.983 33.6041 171.058 23.123C175.852 29.6378 176.155 38.2871 176.171 46.0921C175.741 78.2679 159.733 108.994 136.78 131.007C130.79 136.391 124.467 141.138 118.207 145.964C111.899 150.759 105.862 155.761 99.889 160.985C93.8042 166.019 87.5284 171.243 79.9941 173.919V173.935Z" fill="white"/>
<path d="M171.934 20.2542C172.396 15.619 175.326 11.0634 179.866 9.58203C178.576 14.0102 176.043 17.9923 171.934 20.2542Z" fill="white"/>
<path d="M178.895 9.28913C184.199 17.6039 189.838 2.18497 182.192 2.28054C178.879 2.0894 179.277 5.92819 180.567 7.83962C181.221 8.74755 181.921 9.3847 182.941 8.77941C184.167 7.99891 186.111 5.13176 185.904 3.44333C185.505 3.17254 184.741 3.23626 183.96 3.36369C182.065 3.69819 179.468 4.90876 178.465 6.32641C178.29 6.67684 178.226 6.67683 178.322 6.91576C178.783 7.52105 180.711 8.28562 181.555 8.12634C183.307 7.96705 185.171 6.08748 184.996 4.39905C184.964 4.06454 184.868 3.55483 184.613 3.36369C184.454 3.26811 183.833 3.4274 183.482 3.84154C182.543 4.82912 183.084 6.03969 184.024 6.91576H182.957C184.693 5.73705 185.744 3.8734 185.473 1.72304L185.967 2.13718C183.912 2.02568 181.778 2.85397 180.329 4.51055C181.571 2.45576 183.928 1.22925 186.334 1.13368C187.226 3.96897 185.856 6.99541 183.482 8.66791C182.511 7.88741 181.523 7.12284 181.125 5.73705C180.504 3.33183 182.415 0.671753 185.187 1.11775C186.588 1.46818 187.226 2.82211 187.433 4.08047C187.847 7.56884 185.123 10.4041 181.921 10.9457C180.838 11.1528 179.548 10.8661 178.736 10.5634C177.828 10.1971 176.84 9.89441 175.9 8.79534C173.049 4.30347 179.787 0.958468 183.371 0.257609C192.1 -1.12818 189.264 8.44491 184.358 11.4395C179.675 13.8925 175.948 7.60069 177.159 3.44333C178.194 -1.31932 185.76 -0.937036 187.178 3.33183C189.249 8.87498 182.415 17.0941 178.879 9.30505L178.895 9.28913Z" fill="white"/>
<path d="M1.97461 125.773C6.30719 123.798 10.9106 127.43 12.9016 131.173C8.60091 131.205 5.28776 128.067 1.97461 125.773Z" fill="white"/>
<path d="M14.0977 128.915C26.6972 119.884 47.1654 119.502 58.4907 130.827C44.7443 123.675 28.5608 124.264 14.0977 128.915Z" fill="white"/>
<path d="M0.0159286 123.608C5.19272 109.686 21.7107 103.235 34.0235 97.1503C43.8196 92.6106 54.4599 87.4179 65.6736 88.0391C69.4009 88.278 73.0645 89.1541 76.3617 90.731C72.8256 89.8231 69.2257 89.409 65.6577 89.6001C54.7625 90.2054 45.1894 95.4618 35.3774 100.033C28.7511 103.092 22.1248 105.975 15.8649 109.495C9.70052 113.079 3.52022 117.173 0 123.608H0.0159286Z" fill="white"/>
<path d="M98.375 163.268C109.35 169.273 120.5 189.454 113.061 201.178C115.801 188.801 106.053 172.586 98.375 163.268Z" fill="white"/>
<path d="M113.778 204.025C117.745 208.087 121.137 212.101 123.973 217.039C118.318 215.59 113.699 209.919 113.778 204.025Z" fill="white"/>
<path d="M123 216.739C125.644 209.969 129.642 203.773 131.84 197.099C133.991 190.345 135.058 183.193 136.237 176.168C137.575 169.032 138.706 162.104 138.164 155.031C137.67 147.991 135.552 141.094 132.701 134.436C141.557 147.258 142.56 161.785 139.375 176.71C138.116 183.814 136.906 191.046 134.166 197.975C131.331 204.904 126.791 210.59 123 216.739Z" fill="white"/>
<path d="M51.1629 151.631C53.2814 157.445 59.175 160.248 63.858 163.753L71.4241 168.866C73.9408 170.618 76.4734 172.402 78.7353 174.616C70.102 171.526 50.5417 162.43 51.1629 151.647V151.631Z" fill="white"/>
<path d="M58.5682 166.932C54.4905 177.222 51.6871 188.053 44.0891 196.591L41.668 194.552C45.1085 189.948 48.4854 185.313 51.7667 180.598C54.6339 176.489 58.5841 170.436 61.3876 166.215C59.3806 171.678 56.8161 176.919 53.9011 181.968C50.9862 187.002 47.6731 191.812 44.2006 196.463L41.7795 194.424C48.9473 186.619 52.5631 175.597 58.5523 166.932H58.5682Z" fill="white"/>
<path d="M45.3014 157.167C41.2714 163.331 35.5212 168.158 31.2524 174.003C29.1179 177.014 26.6808 179.786 24.5464 182.685C22.6191 185.376 20.2935 188.578 20.0705 191.843L18.4458 190.84C19.4971 190.282 20.4846 189.964 21.4085 189.582C23.3677 189.024 26.0278 186.539 27.5888 185.361L25.6455 189.757C18.4935 205.845 11.8832 222.522 10.4337 240.155L7.83731 238.801C17.6015 230.407 26.0278 219.878 37.7831 213.873C37.2097 217.919 35.123 222.251 35.7283 226.217L33.9761 225.166C36.3017 224.449 38.5317 222.904 40.5706 221.2C46.8305 215.832 51.5932 209.046 56.8018 202.595C63.7308 193.962 72.3959 186.523 76.2347 175.883C73.2083 186.73 64.7343 194.918 58.2354 203.71C53.2975 210.4 48.5508 217.52 42.275 223.175C39.8379 225.421 36.7637 227.38 33.339 228.304C32.0647 224.338 33.3709 220.228 34.231 216.517L36.4292 218.062C31.4913 221.072 27.0631 224.832 22.8421 228.925C17.8086 233.879 12.6318 239.183 6.94531 243.627L7.27981 239.868C8.80896 221.837 15.706 204.841 23.4792 188.737L25.2791 190.171C24.2597 190.92 23.2084 191.302 22.2208 191.684C20.6121 192.194 19.1466 192.879 17.729 193.627C17.6015 188.849 20.3413 185.026 23.1128 181.554C25.4225 178.639 27.9551 176.01 30.2329 173.159C34.9637 167.409 40.8095 162.933 45.3014 157.119V157.167Z" fill="white"/>
<path d="M60.8789 136.787C65.2911 142.856 70.2768 147.396 77.1739 150.39C80.5667 152.126 88.4195 156.395 91.8123 157.861C93.4688 158.562 95.1254 159.342 96.989 159.215C96.1448 159.677 95.1413 159.724 94.1856 159.724C87.623 159.199 81.5542 156.029 75.7562 153.257C68.7476 150.119 63.0293 144.289 60.8948 136.803L60.8789 136.787Z" fill="white"/>
<path d="M52.373 149.367C55.2243 145.56 58.0596 141.721 60.1621 137.484C58.9197 144.031 56.4348 150.355 55.3995 156.822L54.0933 156.487C55.7181 151.597 59.1586 147.663 62.0258 143.537L64.8292 139.507L63.6505 144.286C62.4559 149.224 59.7161 153.827 59.525 158.813L57.4224 158.287C59.1427 154.671 61.0064 150.992 64.1921 148.316L66.8044 146.15C66.1513 151.788 63.9213 156.742 62.8222 161.712L60.7993 160.278C62.5036 159.259 63.8576 157.363 65.1319 155.404C67.0592 152.027 70.0697 148.587 72.9528 145.751L71.9334 150.641C70.8024 155.993 68.0149 160.422 67.0751 165.073L64.3673 163.974C66.5495 160.501 68.6202 156.742 71.6944 153.509L74.5934 150.45L74.3386 154.655C74.1793 157.092 73.2714 159.115 72.459 160.995C71.6148 162.875 70.7547 164.643 70.3087 166.395L67.4415 165.12C70.1494 161.027 72.5387 156.599 76.4412 153.301L79.2924 150.928L78.9579 154.608C78.3845 160.119 75.2147 164.515 72.9528 169.198L70.3883 167.781C73.2395 163.48 76.027 159.163 80.5667 156.28L83.8161 154.321L82.6215 157.937C80.949 162.986 78.05 167.239 75.8996 171.635L73.6377 170.202C77.7473 165.152 82.6374 160.453 87.4797 156.073L85.6798 160.74C83.6568 165.981 80.1207 170.154 78.1933 174.933L76.5208 174.025C80.3437 168.88 84.4373 163.719 89.5345 159.641C89.2637 162.859 88.0213 165.981 86.1895 168.481L85.3771 167.749C88.738 165.152 91.1433 161.361 94.6635 158.653L95.5396 157.984C94.775 160.039 93.4688 161.871 92.0353 163.448C90.8565 164.802 89.646 166.108 88.738 167.669C90.3628 164.467 93.3255 162.062 94.5838 158.765L95.0298 159.099C91.7326 161.839 89.5185 165.694 86.0939 168.609L83.386 170.903L85.2815 167.876C86.5558 165.837 87.639 163.607 87.8779 161.314L89.0566 161.935C83.2108 167.382 78.3845 174.821 73.7174 181.384L76.4412 174.248C78.4163 169.039 81.841 164.77 83.5294 159.944L85.4249 161.202C79.5791 166.697 73.2077 175.187 68.1901 181.527L73.5422 170.473C75.7881 165.837 78.5597 161.648 79.9932 157.092L82.048 158.733C80.2003 159.864 78.5597 161.616 77.0624 163.448C75.5651 165.312 74.2112 167.319 72.9209 169.373L70.3564 167.956C72.4431 163.512 75.4854 159.195 75.9633 154.401L78.48 155.707C74.9917 158.717 72.7457 163.002 70.1812 166.92L64.7177 175.315L67.3141 165.646C68.3017 161.728 70.9936 158.319 71.344 154.544L73.9882 155.691C69.8149 160.151 65.9761 167.494 62.424 172.718L64.2558 164.499C65.4504 159.163 68.2698 154.767 69.2414 150.116L71.6626 151.39C68.3654 154.751 66.5973 160.071 62.2806 162.683L59.6524 164.213C60.3533 159.004 62.8063 153.795 63.8576 149.112L65.8646 150.307C61.8824 153.445 59.5409 159.45 57.1357 164.021L57.4224 158.781C57.5658 155.977 58.4737 153.429 59.3816 151.024C60.3055 148.603 61.3409 146.261 61.9939 143.888L63.6186 144.636C60.7037 148.634 57.2631 152.346 55.4791 156.965L54.173 156.631C55.3517 150.721 57.7091 145.258 59.1905 139.555L59.7639 139.778C57.7091 143.298 55.0013 146.309 52.4686 149.415L52.373 149.367Z" fill="white"/>
<path d="M75.1035 146.841C79.6113 135.723 89.71 128.587 96.1611 118.695C93.74 130.546 82.9882 138.526 75.1035 146.841Z" fill="white"/>
<path d="M111.134 88.1622C110.736 89.7072 111.548 95.9035 114.065 94.3743C114.766 93.8487 115.355 93.116 115.498 92.2558C115.896 90.5833 114.67 88.5922 113.077 88.8471C111.691 89.0223 109.844 90.4877 109.716 91.9532C109.493 94.1991 112.663 96.0468 114.622 94.8044C116.454 93.6575 117.521 90.1851 116.804 88.417C115.18 85.3269 108.139 88.21 109.382 91.762C111.038 96.6203 118.987 93.4027 119.592 89.3409C120.086 81.3447 110.688 86.3463 109.525 90.9975C109.047 92.4151 109.222 94.0876 109.923 95.4256C112.599 100.555 118.875 97.7034 118.7 92.6222C118.318 87.6843 111.452 85.0083 108.187 89.0701C106.212 91.555 106.785 95.8875 108.856 98.229C113.491 103.024 118.318 96.7636 118.843 91.9054C119.576 88.5285 118.381 83.957 114.654 83.1765C112.886 82.9217 111.07 83.8614 109.334 84.6579C107.582 85.4702 105.75 86.2985 103.807 86.4897C107.805 85.8525 110.513 82.2845 114.734 82.3323C125.008 84.3234 120.325 104.951 109.971 101.686C102.787 98.914 102.341 86.6012 110.337 84.5782C115.466 83.1128 121.137 86.9357 121.694 92.3832C122.109 97.2893 117.665 102.116 112.631 101.128C107.645 100.093 104.969 94.5336 106.467 90.0258C108.06 85.6614 111.755 82.4916 116.47 81.9819C122.156 81.4403 124.466 89.2453 121.105 93.0841C117.999 97.13 110.64 98.9777 107.438 94.1673C103.982 88.6082 110.815 83.3199 116.088 84.9764C120.054 86.1392 119.751 91.1886 117.951 94.0558C116.263 97.4645 111.58 98.1016 109.175 95.0752C106.467 92.0328 109.477 87.8914 113.013 87.6525C116.932 87.6047 117.569 93.2752 114.415 94.9318C110.975 96.6203 110.56 90.2488 111.134 88.1622Z" fill="white"/>
<path d="M100.749 79.2805C89.5032 89.7934 97.7702 106.264 111.978 107.299C125.374 108.207 134.533 92.9313 129.882 81.0008C128.178 76.2541 124.116 72.7498 119.178 71.6826C108.713 69.4844 98.7737 77.5602 93.0234 85.8272C94.234 83.406 95.795 81.1442 97.5949 79.0735C104.651 70.3446 117.888 64.8651 127.573 72.8135C134.533 78.5 135.712 88.9333 132.431 96.8816C128.194 108.095 114.033 113.909 103.584 107.41C92.9119 101.246 90.3952 87.0059 100.765 79.2646L100.749 79.2805Z" fill="white"/>
<path d="M124.977 51.0434C125.948 50.6611 126.984 50.7089 127.876 50.4381L126.506 51.7443C126.251 50.6134 126.187 49.7054 125.917 48.6701L127.095 49.6098L126.394 49.3868C126.203 49.3391 126.251 49.2276 126.156 49.1479C126.028 49.0523 125.789 49.2913 125.534 49.578C125.295 49.8647 124.993 50.1833 124.642 50.4222C124.372 49.4346 124.005 48.8612 124.531 47.7621C125.232 46.6471 126.522 46.5516 127.573 46.5993H128.29C129.246 48.1126 129.596 50.0877 129.102 51.7443L128.736 53.2734C127.191 53.0664 125.869 52.3336 124.977 51.0594V51.0434Z" fill="white"/>
<path d="M135.648 58.9661C136.222 59.0457 136.843 59.1891 137.384 59.2209C137.464 59.2209 137.703 59.1572 137.273 59.0139L135.855 60.0333C135.823 58.8387 135.776 58.8864 135.808 57.6599L138.085 58.3927C138.085 58.313 137.846 58.4723 137.703 58.536C137.082 58.8068 136.365 59.1572 135.664 58.9502C135.76 58.2971 135.696 57.6599 135.903 57.0387C135.919 56.5927 137.114 55.3025 137.384 54.9043C137.894 56.0989 138.961 57.3892 139.009 58.8387C139.009 59.6988 138.754 60.2245 138.484 60.6864L137.799 61.881L137.066 61.6899C136.285 61.4828 136.206 61.228 136.015 61.0209C135.632 60.3837 135.457 59.6669 135.664 58.9502L135.648 58.9661Z" fill="white"/>
<path d="M133.434 36.8594C137.798 49.666 157.788 66.4069 171.885 63.6513C170.006 64.7504 167.776 65.2441 165.546 65.3397C151.624 65.5946 134.119 51.0358 133.434 36.8594Z" fill="white"/>
<path d="M139.01 32.2539C150.351 40.8713 156.914 57.9786 173.001 58.2175C172.093 58.4565 171.154 58.6954 170.198 58.8865C154.54 59.9856 146.432 43.3561 139.01 32.2539Z" fill="white"/>
<path d="M146.16 27.625C149.585 32.1487 154.905 34.6814 159.652 37.5644C163.315 39.5555 167.011 41.6103 171.041 42.6935C172.363 43.012 173.733 43.251 175.102 42.6457C174.656 43.235 173.94 43.6492 173.191 43.8881C164.685 46.0703 147.896 36.3379 146.176 27.625H146.16Z" fill="white"/>
<path d="M158.441 25.0605C164.431 27.4658 165.275 35.669 172.952 34.1558C170.356 37.3734 165.593 36.7999 163.14 33.7098C160.815 31.0497 159.939 28.1666 158.441 25.0605Z" fill="white"/>
<path d="M42.609 117.654C41.6215 114.692 42.9595 111.458 45.8903 110.279C46.8779 113.258 45.524 116.444 42.609 117.654Z" fill="white"/>
<path d="M48.0721 120.359C47.0686 117.413 48.3748 114.099 51.3534 112.984C52.2614 115.963 50.9871 119.133 48.0721 120.359Z" fill="white"/>
<path d="M54.6359 117.642C53.8713 113.644 54.8748 109.566 56.3562 105.87C57.9331 102.191 60.0675 98.7504 63.2055 96.1699C62.7117 98.161 62.0586 99.9769 61.4056 101.793C59.3986 107.033 57.0252 112.529 54.6359 117.642Z" fill="white"/>
<path d="M57.8535 119.138C58.7455 112.464 61.6445 105.853 66.8532 101.457C65.4674 108.036 62.6799 114.359 57.8535 119.138Z" fill="white"/>
<path d="M103.123 163.15C110.848 153.195 119.784 143.351 131.556 138.27C122.365 146.935 113.875 156.364 103.123 163.15Z" fill="white"/>
<path d="M109.158 163.933C113.698 158.135 119.623 153.961 125.867 150.154C122.825 157.004 116.167 161.75 109.158 163.933Z" fill="white"/>
<path d="M114.336 167.568C119.162 160.687 125.518 153.614 134.167 152.117C128.433 156.88 121.233 164.573 114.336 167.568Z" fill="white"/>
<path d="M111.963 173.654C115.356 167.665 121.186 163.141 127.764 161.166C123.75 166.709 118.239 170.93 111.963 173.654Z" fill="white"/>
<path d="M115.848 176.394C118.444 171.121 123.86 166.9 129.817 166.502C125.883 170.835 121.375 174.371 115.848 176.394Z" fill="white"/>
<path d="M147.419 71.9435C147.706 71.3542 148.455 71.1152 148.837 70.717C148.901 70.6215 148.726 70.5896 148.598 70.733C148.407 70.956 148.359 70.7011 148.184 70.4781L147.627 69.6498L150.382 69.5224C149.968 70.6374 149.411 71.7365 148.742 72.724L147.181 70.5418C147.435 70.5418 147.754 70.51 147.865 70.5259C148.009 70.4781 147.865 70.8763 148.041 70.7807C148.28 70.3188 148.375 69.156 148.933 68.726C149.267 69.6339 149.761 69.825 150 70.8445C150.334 73.186 146.703 73.6638 145.189 74.4284C145.795 72.6444 146.48 69.9525 147.563 68.4074L149.315 65.6836L150.318 68.28C150.669 69.4587 151.115 70.0799 150.51 71.609C149.649 72.8992 148.534 72.1347 147.419 71.9435Z" fill="white"/>
<path d="M160.258 77.9114C160.784 77.7839 161.039 77.5291 160.927 77.099C160.863 76.0318 161.15 75.0124 161.628 73.9292L163.794 75.2831C163.157 75.4265 162.217 75.761 161.485 75.8088C161.548 75.7132 161.389 75.6017 161.357 75.6336C161.278 75.6814 161.357 75.6654 161.341 75.6814H161.453C161.453 75.6814 161.485 75.8088 161.405 75.8566C161.389 75.9044 161.23 75.761 161.278 75.7132C161.278 74.7097 161.469 73.7859 162.201 73.0054L164.097 70.9824C164.161 72.9098 164.909 75.6336 163.635 77.3698C163.141 78.4052 160.8 79.6954 160.242 77.9273L160.258 77.9114Z" fill="white"/>
</g>
</svg>
