<svg width="37" height="75" viewBox="0 0 37 75" fill="none" xmlns="http://www.w3.org/2000/svg">
<g clip-path="url(#clip0_2168_14515)">
<path d="M9.04432 2.90126C20.2678 3.82552 24.4689 7.91849 26.7397 18.847C27.9073 23.8911 28.9349 28.9456 28.7392 34.2513C28.5828 37.6487 28.3043 41.0688 27.801 44.4677C26.4389 54.6525 21.609 64.2602 15.4143 72.2996C18.4008 66.222 21.2881 60.1628 23.0454 53.7538C24.8027 47.3449 25.3493 40.7038 25.6324 34.0881C25.8649 27.6238 24.4398 20.9001 23.0781 14.559C21.803 9.36129 18.7506 6.2693 13.8514 4.44397C12.3127 3.72068 10.5591 3.70788 9.05709 2.96987L9.04432 2.90126Z" fill="#454545"/>
<path d="M12.6484 56.8088C14.2756 58.7698 14.6453 61.6039 15.3278 63.9143C15.9771 66.4281 16.0096 68.8911 16.5594 71.3367C16.575 71.4205 16.5594 71.3367 16.442 71.1298C16.3518 71.0015 16.2322 70.8966 16.0933 70.8239C15.9744 70.7504 15.839 70.7078 15.6994 70.7C15.5393 70.7298 15.5851 70.7213 15.6308 70.7128C16.5626 70.421 17.4795 69.7534 18.4689 69.4746C20.7724 68.6278 23.3153 68.3043 25.4709 67.2563C26.2643 66.7299 27.3697 66.6504 28.1863 66.2066C27.6573 67.0938 26.8375 67.4358 26.1942 68.2181C24.3357 70.1417 21.8331 70.9782 19.5439 72.1143C18.5316 72.5236 17.7045 73.2928 16.454 73.6518C16.1039 73.7863 15.7256 73.8309 15.3538 73.7813C14.9821 73.7318 14.6287 73.5897 14.3261 73.3682C14.0234 73.1466 13.7812 72.8527 13.6217 72.5132C13.4621 72.1738 13.3903 71.7998 13.4128 71.4254C12.8803 69.158 13.0847 66.6115 12.8881 64.3684C12.6425 61.6927 13.0495 59.3451 12.6027 56.8173L12.6484 56.8088Z" fill="#454545"/>
</g>
<defs>
<clipPath id="clip0_2168_14515">
<rect width="22.8619" height="70.9355" fill="white" transform="translate(0.939453 4.41016) rotate(-10.5439)"/>
</clipPath>
</defs>
</svg>
