<svg width="666" height="1130" viewBox="0 0 666 1130" fill="none" xmlns="http://www.w3.org/2000/svg">
<path d="M984.658 60.4384C976.944 51.3535 976.178 49.3833 966.527 40.576M985.848 72.7362C974.266 52.3643 963.733 31.1492 952.703 21.0091M986.57 76.7998C978.792 59.4317 965.129 38.4383 944.66 17.8038M990.271 86.5865C967.436 58.8142 949.225 37.564 940.118 16.4315M989.418 94.5065C974.913 67.2658 955.148 45.9447 924.664 6.59539M990.905 96.7208C969.984 72.364 950.12 46.5394 923.654 6.61662M988.036 103.209C970.481 69.7143 940.372 40.1653 913.621 1.03094M990.168 109.399C964.013 70.2483 940.315 37.0454 909.61 2.82632M992.934 115.507C958.146 79.1088 933.799 35.6471 907.792 6.1125M988.197 120.02C951.159 79.5398 925.153 32.1472 902.602 1.9553M984.259 128.292C963.362 93.9976 935.382 52.0443 899.304 1.22865M985.19 131.405C960.656 96.5544 941.132 70.3259 889.713 6.24242M985.17 135.135C966.522 105.306 943.317 77.857 887.959 3.45629M979.893 135.436C950.267 93.3029 917.165 50.5012 883.052 5.17785M982.216 142.744C959.351 110.996 937.621 81.3958 881.084 3.40844M973.876 148.139C956.039 113.432 936.992 91.8348 874.332 7.02043M978.546 146.874C943.229 102.252 910.731 55.0809 870.619 5.13044M971.687 151.53C932.446 96.906 894.503 37.4058 870.865 8.72991M969.325 153.134C947.258 117.967 918.024 83.2583 866 5.05025M965.853 155.323C950.042 124.407 922.429 92.1061 862.586 11.3067M964.359 157.906C939.33 118.888 914.878 79.8297 860.649 10.9569M966.382 167.378C933.617 118.268 899.673 74.705 856.262 8.79999M965.016 164.724C936.139 129.137 908.672 87.8898 854.924 13.8668M960.54 171.13C930.874 128.97 899.056 89.5251 845.393 12.8457M955.533 170.13C926.903 137.17 898.852 94.704 845.806 19.8551M957.943 174.501C927.002 132.26 894.766 95.0153 841.826 17.1429M949.692 180.069C909.465 119.025 868.187 64.6429 839.668 23.2007M949.763 180.157C919.891 145.621 890.693 105.772 838.678 21.9312M945.635 184.582C924.627 151.193 897.261 117.493 835.792 25.5607M944.256 186.518C908.211 135.875 879.407 88.8355 829.41 24.9099M943.989 192.439C911.117 146.583 877.812 99.0705 825.835 30.4707M937.541 194.016C902.532 130.751 856.991 74.9675 823.845 35.676M940.169 193.625C912.398 161.763 890.131 125.531 821.661 38.4433M932.784 198.348C899.486 150.874 861.019 99.2753 819.657 37.1098M935.489 199.21C901.559 151.427 867.38 107.765 818.283 40.243M928.978 206.11C892.949 148.677 853.107 97.6362 814.765 46.8266M924.462 208.484C904.017 176.368 879.012 140.152 810.509 47.9958M923.176 211.427C887.813 158.508 850.174 107.84 810.491 52.5917M921.416 210.227C887.24 167.112 854.837 122.874 806.796 53.4371M917.399 211.252C885.032 167.997 849.687 118.586 803.728 59.8724M914.46 217.073C875.371 152.104 833.299 91.3276 803.384 63.4873M911.492 220.189C880.425 168.637 843.287 120.695 800.065 62.7194M907.822 220.257C872.016 169.75 838.216 122.215 801.933 68.3924M911.23 226.789C881.935 194.611 858.199 158.678 799.468 70.7262M907.883 224.367C871.515 175.903 840.168 131.169 794.556 73.8241M902.783 231.204C869.454 181.876 841.632 135.902 788.099 75.2904M902.134 228.602C855.318 171.892 812.573 109.737 789.204 75.5459M895.347 236.922C871.749 203.498 844.973 170.551 788.42 78.1017M892.022 237.352C859.582 188.79 825.77 138.67 780.399 84.5463M893.928 237.357C854.922 188.607 824.378 143.55 780.08 82.4612M889.5 240.058C865.224 209.007 840.964 175.649 775.521 87.4673M886.814 244.262C853.675 199.393 820.794 155.097 774.749 89.8382M880.442 248.18C862.075 216.922 842.464 186.682 769.371 93.6919M883.661 246.459C845.799 205.377 815.993 161.215 770.129 95.9844M880.438 251.658C838.649 203.668 806.34 149.695 766.377 97.5796M876.714 255.058C838.997 204.981 804.271 149.392 764.932 100.568M870.042 253.966C844.615 218.058 817.023 182.744 763.349 103.134M868.255 259.589C835.458 216.805 805.541 174.159 758.63 100.881M867.857 260.748C837.885 220.924 812.239 176.486 757.646 104.528M863.692 261.428C831.298 221.545 797.715 177.408 753.625 109.116M863.578 262.433C831.805 223.078 805.935 180.814 747.392 110.703M858.791 267.697C822.481 209.196 777.502 150.551 750.228 111.162M852.258 272.299C817.76 214.73 776.282 159.913 746.851 112.01M850.733 273.612C828.386 240.333 807.109 203.754 741.218 117.868M846.079 273.224C815.077 228.978 787.045 184.663 738.556 117.389M845.413 272.545C811.898 228.499 778.218 187.861 732.381 120.712M846.271 276.591C808.966 230.703 767.741 182.61 734.824 122.457M840.252 282.251C816.025 241.613 782.334 202.892 728.024 123.728M836.227 284.368C807.289 243.859 779.372 201.343 727.812 130.521M831.221 282.706C789.536 226.498 751.015 171.688 726.443 128.096M833.074 287.183C807.733 253.602 783.647 215.927 717.756 130.109M827.108 287.749C788.063 236.892 756.111 181.163 714.081 133.502M824.749 289.408C802.096 253.641 774.01 221.513 712.001 137.971M820.098 290.94C788.41 246.639 755.862 200.132 711.93 138.663M819.918 297.674C782.723 240.909 744.231 187.75 708.373 143.636M816.511 295.095C788.868 263.798 764.87 230.624 706.119 140.724M810.18 295.79C786.345 261.816 762.984 224.115 704.918 145.304M811.745 298.967C767.935 240.094 722.045 181.889 699.293 145.321M809.138 300.568C776.884 253.457 743.58 210.892 693.426 148.294M805.115 306.448C779.421 261.721 750.345 225.89 694.741 150.675M803.452 307.152C774.78 267.572 744.004 231.979 688.857 152.355M797.277 311.41C769.588 268.925 739.855 227.126 684.168 158.273M797.256 312.849C750.047 254.02 706.786 195.247 685.005 155.442M791.963 312.244C763.769 268.425 732.413 221.68 681.235 159.949M785.998 313.728C743.272 253.452 700.648 189.517 681.38 158.58M784.626 314.974C754.798 267.185 718.534 224.325 676.939 164.156M783.388 318.583C742.706 264.906 701.968 214.093 671.057 162.222M778.655 322.95C746.336 273.735 712.437 229.007 670.072 164.67M776.887 324.074C750.089 290.965 719.016 252.989 668.196 169.025M772.551 322.614C750.991 292.071 723.96 254.878 662.141 169.478M768.416 328.34C746.229 291.626 726.868 259.319 659.096 169.893M763.794 326.247C734.517 282.347 699.243 237.691 654.261 175.925M766.275 327.87C729.813 286.068 698.701 236.548 649.851 178.38M757.399 331.946C730.082 287.428 695.097 238.52 649.15 176.399M756.979 334.969C714.253 278.428 672.972 221.837 644.744 182.732M752.915 333.161C714.989 276.166 673.186 218.767 645.821 179.492M748.086 337.006C722.745 301.522 695.837 264.715 637.259 185.545M750.373 337.272C723.796 305.359 701.132 271.736 639.504 186.123M748.054 339.618C698.819 279.918 661.778 225.461 634.092 189.762M743.154 345.219C710.564 303.988 677.599 258.897 630.841 190.076M738.478 345.237C711.364 313.928 692.206 279.786 627.531 193.829M736.226 347C704.002 295.702 664.745 245.581 623.339 191.736M730.326 349.202C704.852 309.079 672.235 264.553 623.824 196.944M727.286 348.302C698.31 313.468 669.955 271.638 616.481 199.427M725.961 351.824C684.136 303.772 652.446 253.408 612.881 198.427M723.165 354.143C677.951 299.501 633.795 238.886 614.921 200.664M723.095 355.074C693.213 324.212 670.523 296.615 609.729 201.577M716.917 358.464C691.683 329.554 668.427 293.987 607.023 201.769M713.746 360.945C678.654 306.937 642.703 257.628 605.439 204.604M711.642 363.837C668.182 301.474 627.138 239.905 599.802 206.686M707.858 363.466C677.165 322.781 652.462 285.003 593.504 209.167M706.945 366.552C669.931 321.114 633.113 266.927 590.148 209.731M699.101 366.715C671.277 330.281 636.075 282.468 588.058 213.813M700.383 368.988C662.632 325.348 627.517 272.704 585.143 215.05M695.618 369.28C657.95 320.625 618.41 265.42 582.954 216.67M693.828 375.078C663.452 333.323 633.247 297.339 579.592 222.379M687.962 377.654C652.279 327.666 616.499 272.915 577.857 218.31M684.432 377.092C658.289 340.403 633.231 307.423 576.068 225.662M681.049 377.064C658.609 344.839 631.502 305.718 569.371 225.245M678.544 378.541C647.209 341.316 617.749 301.138 570.765 228.076M677.431 387.006C635.075 330.825 591.53 274.215 566.145 230.338M675.594 385.837C624.803 323.084 584.874 264.385 559.187 227.751M670.5 387.39C644.141 348.884 616.122 311.654 558.017 236.313M666.317 392.211C631.049 342.034 600.446 297.844 551.627 236.59M660.319 393.132C626.954 347.016 589.997 292.952 551.53 233.46M658.21 391.304C636.433 357.831 610.41 322.15 547.538 240.417M657.401 392.112C625.036 356.503 598.055 314.466 546.314 239.151M651.204 395.477C611.822 345.331 576.544 293.594 541.849 243.195M651.92 400.988C615.722 341.59 579.135 290.616 541.851 243.479M645.151 397.748C625.662 369.284 600.47 336.64 532.999 245.971M641.616 400.98C606.235 344.105 561.843 289.824 535.327 247.234M640.101 407.284C616.542 370.393 590.617 332.406 532.814 250.347M639.498 404.004C609.161 357.079 571.964 311.961 528.617 253.147M631.92 404.877C601.619 363.607 568.936 321.361 525.361 251.469M630.817 409.159C598.429 361.442 565.691 321.99 519.871 252.714M629.692 409.657C600.272 373.033 567.336 330.96 520.184 254.372M625.037 413.942C601.054 383.16 579.091 345.815 512.17 257.889M623.866 417.332C596.133 376.014 562.588 337.527 511.581 262.091M621.299 416.595C578.638 361.689 541.671 311.838 509.879 262.376M613.764 418.755C581.945 364.48 539.02 312.995 502.695 264.247M995.963 954.639C989.714 937.893 976.243 922.176 966.635 918.039M614.516 422.28C581.852 375.61 546.717 335.084 504.041 269.535M999.907 966.524C990.738 949.509 971.866 931.862 958.199 912.424M612.03 426.352C577.205 371.421 537.435 325.673 501.003 269.53M1000.87 975.41C986.53 956.846 974.66 936.26 948.934 905.802M604.462 425.926C562.152 368.773 517.348 303.282 497.437 270.69M1001.07 980.759C983.987 959.348 965.169 928.095 947.6 904.471M602.148 427.943C567.226 378.853 537.719 335.998 492.232 275.873M1003.7 994.671C985.82 960.166 960.836 936.985 937.637 905.272M600.036 430.637C564.681 380.976 528.234 328.621 490.134 275.91M1003.19 997.01C977.284 965.702 952.191 932.776 931.559 899.178M595.45 432.551C557.997 380.353 519.078 325.267 488.185 275.516M1001.77 1005.44C971.818 963.081 944.82 928.123 929.892 902.703M595.656 435.049C553.725 369.68 508.274 312.689 480.466 279.258M1004.72 1006.82C975.529 972.704 946.898 936.767 922.275 902.416M588.673 432.642C550.502 376.015 509.311 319.651 478.324 282.688M999.55 1016.79C983.678 985.821 958.07 955.625 918.808 901.9M590.742 434.647C548.51 381.668 514.452 333.152 473.705 283.852M1000.45 1022.37C981.768 992.53 957.086 960.681 912.091 897.425M587.483 438.787C548.93 385.095 513.893 338.195 470.567 284.373M1001.88 1021.52C977.634 993.774 954.719 961.792 910.62 897.439M580.366 437.46C545.229 390.277 509.33 341.806 469.092 286.512M994.823 1029.46C967.168 981.405 929.839 929.6 904.794 897.358M574.967 439.731C539.893 395.153 503.358 348.431 465.748 285.147M996.08 1031.81C972.4 994.685 945.825 965.699 902.654 898.457M578.063 444.846C536.355 390.938 502.94 336.85 461.451 288.851M991.435 1035.43C964.686 991.893 932.743 955.76 897.183 899.558M573.473 443.846C548.065 414.292 518.164 383.143 460.549 289.605M992.424 1039.28C968.135 1000.62 939.316 970.62 894.632 903.521M565.871 445.127C534.742 406.93 506.384 362.654 457.268 295.322M991.325 1042.74C966.193 1000.91 938.127 965.891 890.726 900.394M567.332 451.696C527.753 394.386 489.148 344.252 454.318 293.793M987.764 1043.15C947.017 990.502 908.923 936.084 882.373 900.207M565.26 450.73C529.015 402.127 493.316 353.89 453.538 295.058M986.457 1047.97C956.385 1008.1 921.737 963.653 882.29 901.91M562.028 454.473C523.532 393.918 480.323 338.645 447.18 301.826M986.102 1053.56C944.66 990.628 901.559 936.441 880.343 900.922M554.625 458.728C513.771 400.915 479.093 345.639 446.339 299.252M983.528 1052.69C955.094 1020.24 930.915 988.928 875.376 903.538M554.069 457.378C514.284 400.803 469.408 346.497 443.911 302.39M981.425 1059.67C953.561 1021.25 922.666 980.825 872.783 908.674M549.887 461.814C515.803 407.962 479.062 360.534 439.519 306.241M977.006 1061.52C934.682 1002.13 892.536 941.26 863.364 909.899M544.541 463.434C511.367 410.441 472.172 357.952 436.946 308.419M972.416 1063.83C938.423 1015.26 906.545 973.391 863.945 908.323M541.077 460.519C495.366 402.092 456.782 337.573 434.137 310.165M967.912 1064.37C931.005 1006.52 886.998 953.271 859.062 910.199M537.498 464.362C501.267 413.862 464.473 357.725 426.448 306.855M966.859 1068.85C942.08 1030.07 918.152 997.804 854.38 908.623M539.173 465.517C497.243 417.597 464.744 364.483 425.866 312.673M962.596 1068.33C932.84 1026.59 900.585 984.696 849.543 912.174M531.573 466.851C489.668 414.749 447.925 355.116 420.351 313.558M960.046 1072.9C932.204 1032.55 906.279 993.292 845.757 912.264M529.406 472.765C508.733 431.104 475.637 396.484 417.838 313.587M961.126 1074.55C921.036 1028.73 887.82 978.683 845.711 913.687M526.746 475.387C487.819 416.468 443.793 355.188 418.938 318.556M954.31 1078.07C920.276 1026.48 888.893 980.591 838.452 913.048M524.739 472.687C498.436 434.649 467.775 397.545 413.185 317.679M955.798 1076.82C928.744 1035.12 900.471 996.788 836.721 913.992M521.698 478.149C497.566 439.599 470.699 406.992 410.169 318.727M950.044 1080.6C915.041 1033.39 886.788 985.96 834.899 916.887M521.429 477.924C483.247 435.542 456.746 394.635 408.979 325.231M945.828 1083.7C909.124 1032.46 880.832 987.278 825.492 918.801M513.477 482.707C484.57 434.8 454.169 391.042 405.89 327.461M941.313 1079.17C899.559 1026.47 859.394 967.021 826.711 918.806M512.311 481.3C487.217 441.581 456.022 399.638 400.524 328.188M939.869 1086.53C905.115 1042.92 878.018 996.129 819.418 920.205M506.66 481.5C474.296 442.817 442.94 393.978 398.867 327.925M931.585 1084.16C909.83 1046.04 883.122 1008.1 815.24 921.56M505.864 483.75C466.268 429.566 425.104 366.236 391.498 334.294M931.19 1088.52C890.774 1024.48 842.46 965.161 809.114 921.274M501.589 487.473C464.289 434.925 434.112 388.687 392.727 330.811M930.68 1088.83C895.317 1036.44 863.445 995.646 806.842 917.476M497.552 486.866C477.93 454.221 449.534 419.385 389.57 335.588M925.987 1088.86C887.971 1043.39 858.096 993.384 802.144 921.522M495.799 492.196C453.815 432.761 404.982 368.648 386.724 334.393M919.561 1089.02C889.522 1045.27 855.41 995.648 799.86 924.983M493.808 495.095C463.693 443.654 427.234 398.637 383.786 337.344M917.055 1088.99C889.707 1054.55 860.07 1007.79 797.735 922.194M492.798 495.107C443.541 429.03 401.65 369.412 377.946 342.087M913.538 1091.56C885.738 1057.5 860.913 1024.2 794.142 926.8M484.316 497.764C440.068 436.508 399.266 376.878 373.224 341.319M909.175 1094.98C885.888 1052.96 857.005 1022.44 789.276 925.272M485.968 502.262C441.886 444.744 401.509 385.969 370.197 346.945M906.656 1094.4C861.395 1026.4 810.71 962.025 786.559 926.747M480.18 503.625C458.499 470.817 437.261 435.569 368.587 344.822M898.268 1096.23C864.1 1043.44 823.124 988.53 783.45 923.772M477.789 503.53C450.477 467.583 427.878 435.35 368.835 345.885M895.764 1097.37C864.82 1056.46 831.111 1011.97 774.232 929.783M477.087 507.759C450.086 473.122 428.498 437.215 363.698 348.261M895.87 1097.28C862.038 1058.38 832.914 1017.03 773.512 925.951M473.275 504.924C447.761 471.303 426.193 437.982 358.732 349.066M893.317 1095.76C861.787 1054.22 832.797 1012.38 766.893 929.497M468.523 510.219C433.85 458.125 392.9 412.65 358.445 352.114M883.982 1099.21C859.963 1056.35 832.696 1022.01 763.355 928.37M465.976 511.419C424.984 449.013 376.522 388.381 356.302 356.73M884.436 1097.99C848.974 1049.55 812.585 997.878 762.455 928.486M459.331 510.2C436.552 477.509 413.558 436.862 349.268 355.457M880.93 1098.42C851.763 1064.2 822.491 1023.77 756.8 931.561M457.932 513.236C422.313 459.352 378.691 408.068 347.991 362.672M877.716 1102.26C836.091 1049.96 800.208 1000.08 753.941 932.095M457.143 518.803C413.359 454.193 365.06 395.493 345.595 363.449M872.263 1099.88C843.047 1057.39 809.979 1016.31 748.223 933.678M453.183 516.74C410.921 457.482 361.71 398.268 342.308 360.369M869.732 1103.93C843.15 1066.06 813.657 1025.1 742.737 928.932M447.474 521.787C426.652 484.176 398.895 447.249 341.233 363.06M864.335 1106.01C830.608 1058.99 799.884 1019.51 739.005 932.095M449.285 519.936C404.056 470.092 363.157 410.144 332.037 369.338M858.113 1107C811.535 1041.8 769.492 979.837 733.399 932.461M440.2 524.994C407.209 477.253 367.573 423.695 332.202 368.527M858.936 1107.77C815.661 1055.6 781.824 998.846 730.269 936.055M440.964 524.182C406.735 478.402 370.301 435.145 326.386 371.52M852.215 1109.22C818.894 1058.9 790.673 1018.25 728.087 931.873M435.285 528.107C404.255 488.69 380.56 445.774 322.085 375.222M847.196 1109.2C809.716 1055.42 773.02 997.467 721.248 931.401M434.351 527.223C397.005 479.907 358.919 427.848 322.662 373.552M845.389 1107.8C809.567 1063.55 779.621 1016.29 721.913 932.164M432.664 531.29C390.009 471.751 351.856 415.77 318.503 376.269M842.823 1108.75C815.888 1067.38 784.85 1031.48 713.379 935.872M426.037 534.417C399.837 501.278 375.146 462.339 317.941 376.746M836.094 1107.64C797.693 1061.96 767.679 1017.16 712.846 937.779M423.269 536.891C388.314 480.386 349.019 435.809 312.108 381.757M833.97 1110.67C795.837 1054.32 754.601 1004.53 703.6 938.438M423.115 539.787C383.104 484.293 348.19 434.336 311.779 381.461M826.483 1109.61C778.404 1046.22 729.456 983.022 704.418 934.465M417.368 541.09C380.464 490.425 351.351 442.882 305.884 386.164M826.839 1111.35C778.939 1046.91 735.257 987.742 696.218 936.05M412.75 537.411C376.368 492.972 345.434 445.126 302.243 387.537M822.101 1114.99C776.005 1050.18 727.898 989.347 693.984 937.982M411.887 541.238C367.772 489.002 327.534 428.799 297.189 384.293M818.392 1114.73C764.485 1044.78 719.349 978.613 688.101 938.269M410.005 542.377C377.973 499.222 344.653 454.108 298.927 387.961M809.458 1115.94C773.817 1067.84 740.59 1015.93 687.64 935.009M406.29 546.021C380.632 514.379 359.42 477.181 294.66 392.641M810.967 1117C781.352 1077.02 755.879 1034.83 679.899 936.591M402.362 546.234C363.121 493.217 326.748 437.597 292.365 390.29M805.535 1112.92C771.55 1074.78 745.921 1030.9 675.53 938.956M399.399 548.734C369.157 512.868 342.944 466.307 283.347 396.742M798.492 1117.08C770.17 1078.2 744.269 1036.27 673.268 935.004M397.176 551.623C363.842 510.062 333.604 468.281 283.155 397.94M794.79 1118.07C763.721 1075.39 735.043 1035.74 665.721 936.913M392.47 552.373C361.093 510.133 327.575 462.875 280.806 397.479M788.458 1113.42C745.325 1048.29 698.525 988.007 664.326 938.167M388.261 553.807C353.545 508.672 323.493 464.132 276.157 401.674M788.331 1115C737.877 1046.65 685.762 979.297 659.928 938.905M382.83 559.024C362.888 521.19 342.119 488.803 274.62 402.025M784.516 1116.98C754.246 1083.24 729.289 1041.31 651.666 936.317M383.817 560.879C354.385 510.906 320.806 464.189 267.482 403.816M780.141 1115.83C747.992 1079.09 724.134 1039.29 648.304 937.408M381.376 557.772C336.48 506.606 300.413 453.334 264.285 402.466M772.338 1120.03C748.421 1077.89 722.639 1033.84 644.352 933.737M373.17 559.853C342.756 513.206 311.171 467.602 266.255 405.526M772.101 1119.3C742.421 1085.35 715.089 1042.81 640.035 932.348M374.124 564.492C338.667 526.257 309.157 481.873 259.689 408.959M766.332 1119.98C723.454 1066.19 686.391 1013.57 631.405 933.116M368.42 567.194C332.908 520.934 303.913 474.273 258.012 407.729M758.817 1118.58C717.878 1053.12 665.794 986.465 626.97 930.913M366.436 568.788C327.442 514.947 286.329 460.375 255.534 412.978M754.897 1117.81C728.973 1079 698.713 1039.41 623.749 933.837M364.581 568.693C339.964 532.018 314.713 502.046 250.342 412.002M754.34 1119.89C699.998 1048.88 650.204 974.806 620.492 934.049M356.146 570.788C331.349 530.323 299.094 484.326 249.003 417.098M747.351 1120.55C718.326 1076.91 682.332 1023.21 618.076 933.25M356.585 569.772C330.238 536.563 309.154 507.12 245.811 415.641M747.431 1119.38C705.497 1057.7 658.525 998.381 609.85 935.656M354.325 572.421C312.526 521.247 268.314 466.135 241.416 417.701M739.563 1119.43C694.755 1056.76 642.727 991.084 606.302 933.679M346.42 575.979C311.995 519.947 272.641 467.55 234.631 420.491M738.681 1124.46C698.071 1074.93 666.422 1021.23 599.853 933.696M345.884 575.204C316.981 532.995 288.364 494.085 231.836 422.062M733.675 1122.98C705.089 1078.63 672.048 1032.22 595.98 934.103M344.491 576.921C295.588 518.913 252.146 456.227 229.151 425.34M729.599 1120.76C690.125 1071.63 654.763 1014.32 593.041 930.113M339.344 578.817C311.821 536.371 282.439 492.573 228.385 423.741M724.394 1124.07C694.768 1077.24 660.616 1031.64 589.364 930.083M334.697 581.271C296.55 530.777 255.328 476.694 227.346 424.391M718.794 1122.55C695.8 1084.96 664.126 1044.66 583.347 932.697M336.319 583.129C298.128 533.392 262.139 479.533 219.68 428.83M718.025 1127.12C671.334 1060.96 624.374 991.321 574.129 930.023M332.259 584.107C285.824 527.843 241.444 463.652 217.405 429.836M710.917 1123.03C667.03 1060.41 618.184 990.739 572.395 927.912M329.52 587.704C304.312 553.569 279.92 526.164 210.97 432.137M709.996 1127.48C673.963 1086.73 644.632 1045.39 568.258 930.145M323.144 586.768C281.104 532.588 244.029 475.93 212.929 436.026M700.093 1127.73C667.473 1078.12 636.85 1033.2 560.612 930.11M322.651 589.555C298.498 560.283 272.837 525.474 205.498 436.098M698.713 1128.55C659.673 1070.53 620.759 1021.54 555.099 928.717M315.558 594.582C272.031 531.304 224.312 469.553 205.134 434.253M697.11 1126.1C643.343 1050.77 590.052 976.378 553.157 928.878M313.759 592.241C268.463 533.463 226.426 475.143 201.447 435.334M689.184 1127.98C645.025 1069.51 604.742 1011.66 544.131 927.125M307.775 594.07C275.598 552.987 241.726 502.828 199.327 435.982M684.254 1122.97C629.692 1049.79 577.274 980.268 542.336 925.24M304.628 596.428C277.584 561.007 254.984 523.429 191.508 441.47M682.713 1124.34C644.699 1067 601.196 1011.89 533.535 924.48M302.782 601.914C271.462 547.56 229.485 500.335 187.612 441.952M676.064 1127.72C628.39 1051.2 578.265 979.603 529.442 922.048M297.729 601.139C268.909 557.696 232.499 509.022 187.183 444.892M673.869 1126.69C632.098 1070.36 589.454 1016.78 526.226 922.214M297.446 604.877C267.166 558.809 238.901 520.802 183.576 444.507M669.25 1128.88C618.283 1056.15 573.02 990.35 518.759 918.187M291.624 602.375C257.27 556.599 221.448 503.815 181.83 447.18M662.518 1124.14C618.395 1055.79 568.158 989.218 513.616 918.982M292.845 603.855C261.471 560.951 232.487 522.775 177.319 448.435M659.137 1124.89C615.357 1070.9 577.005 1008.82 510.785 920.924M286.058 606.252C260.134 571.705 234.614 530.305 171.868 451.258M654.393 1124.87C622.794 1077.23 591.389 1036.25 506.585 920.398M282.39 610.319C246.19 561.657 213.815 513.112 166.797 451.969M648.586 1125.99C603.124 1060.72 558.677 1002.28 500.208 919.299M280.985 613.138C251.497 570.393 227.915 535.486 168.937 453.161M642.849 1127.01C614.414 1084.67 579.406 1039.07 494.4 916.004M276.62 613.222C238.924 556.773 202.496 503.193 165.812 454.136M642.488 1128.14C596.868 1065.86 549.371 1001.28 488.727 914.617M270.093 611.715C241.533 567.105 210.648 520.025 161.752 457.473M634.222 1127.67C591.383 1067.99 548.376 1008.91 483.733 914.734M270.05 615.35C230.963 559.266 186.812 511.159 158.887 460.282M629.146 1123.41C585.206 1064.54 536.754 1002.31 475.847 912.672M268.976 615.998C221.96 557.847 180.09 496.788 150.545 458.311M626.036 1128.09C586.016 1070.28 546.228 1010.42 472.151 910.545M264.008 621.613C227.039 569.863 193.371 519.177 147.443 460.777M620.94 1125.14C579.742 1069.4 540.16 1009.65 463.279 906.834M261.357 620.614C227.895 573.683 195.345 530.827 148.383 464.299M619.208 1128.3C572.497 1063.56 525.478 1002.81 459.508 908.969M344.45 748.702C338.421 737 329.008 728.574 318.23 712.173M254.122 620.054C209.446 561.257 168.487 499.403 143.406 461.215M613.665 1125.74C550.729 1045.36 491.133 963.746 452.574 902.771M350.782 764.371C345.229 748.317 333.941 730.334 309.559 703.261M255.751 626.438C209.693 561.321 164.997 505.056 142.068 465.15M608.374 1124.67C553.769 1051.21 495.077 970.138 446.216 902.673M362.584 783.688C348.641 761.361 335.806 742.67 299.191 696.028M250.184 625.708C204.201 563.253 162.803 501.58 132.406 467.928M605.145 1126.5C571.446 1077.82 537.739 1036.75 441.736 901.212M359.39 787.352C340.548 763.005 324.005 737.513 296.818 690.851M247.352 628.994C211.341 580.582 179.202 536.007 130.373 469.179M598.874 1121.7C553.241 1059.45 503.855 992.936 434.845 900.116M364.937 797.737C346.347 769.958 329.721 750.195 286.618 690.219M242.82 625.91C206.188 580.892 168.471 530.602 131.423 470.326M596.506 1121.47C548.409 1059.94 504.697 994.942 430.085 896.753M362.591 799.176C337.853 769.402 319.371 739.869 279.723 688.612M241.529 629.987C214.645 597.097 192.373 568.001 128.099 473.454M588.394 1120.35C547.804 1060.82 508.624 1004.43 423.022 893.414M364.197 805.593C328.68 756.546 290.989 712.861 268.778 683.144M236.101 630.502C193.433 566.305 147.974 504.361 125.8 477.903M584.536 1124.75C524.787 1041.97 469.843 963.635 415.851 888.307M363.367 814.32C333.776 774.006 304.18 733.176 263.7 680.23M229.069 635.508C196.769 587.243 167.129 539.342 120.999 477.104M577.362 1119.63C534.541 1053.13 486.595 985.264 410.606 890.231M364.39 822.113C324.424 762.008 283.865 713.578 258.394 681.152M226.915 636.563C194.184 581 163.005 537.536 116.271 479.337M573.127 1120.89C524.216 1049.89 476.209 985.389 406.233 885.711M359.546 824.684C324.788 778.375 291.16 729.681 255.331 680.757M223.344 634.241C199.35 601.172 172.509 567.889 116.857 479.488M571.645 1119.18C515.619 1044.59 458.422 967.465 399.03 880.651M360.063 830.864C329.487 786.228 295.408 743.366 251.073 678.572M224.186 636.208C182.007 584.617 146.197 538.279 113.813 483.239M562.13 1121.75C515.727 1046.45 462.737 975.495 390.768 878.823M359.44 835.272C334.277 797.86 309.764 763.097 247.542 676.808M217.385 640.347C177.562 580.365 137.348 526.438 104.801 486.734M560.84 1118.03C507.182 1049.44 457.002 975.039 386.911 876.206M358.4 836.514C322.208 788.09 289.518 742.176 237.73 677.384M216.62 638.764C189.868 605.037 169.71 567.952 102.09 482.982M555.397 1118.29C502.437 1046.38 444.671 971.962 379.379 877.522M352.98 844.621C318.891 789.299 283.773 736.802 233.618 672.545M214.378 641.574C185.672 605.408 159.648 569.735 100.836 487.193M549.238 1120C513.838 1067.45 469.339 1012.24 371.541 872.635M353.257 849.058C330.04 808.606 298.733 772.305 231.393 672.296M211.775 647.257C173.943 596.932 137.111 544.569 100.74 487.456M543.509 1117.04C481.855 1029.44 412.856 941.503 366.7 869.067M355.139 848.693C318.245 796.953 282.897 747.384 224.187 674.36M206.373 646.231C171.642 593.068 133.694 546.026 97.1444 490.116M541.853 1120.47C483.766 1039.02 426.91 959.608 358.354 866.936M351.809 856.306C299.582 783.281 253.314 714.134 218.629 669.95M203.833 651.451C171.714 610.127 143.125 567.098 91.766 496.62M536.927 1116.05C493.742 1065.32 457.418 1009.13 351.772 860.701M349.836 857.134C304.606 794.561 262.779 728.945 214.575 668.286M201.726 648.875C174.349 611.948 145.654 567.822 88.9559 497.841M530.535 1117.54C416.061 956.981 299.863 794.252 208.78 671.726M199.064 651.711C165.753 603.303 130.212 557.325 89.1647 497.666M524.086 1115.86C456.715 1026.43 389.779 930.808 205.941 671.006M191.373 656.588C166.878 614.183 137.971 577.242 80.583 498.251M519.235 1115.96C396.359 944.728 274.332 775.029 201.08 669.024M193.41 660.99C149.688 597.457 108.09 536.971 81.7973 501.328M513.805 1113.72C341.001 870.223 166.1 627.557 77.68 505.432M508.107 1112.99C422.647 994.195 335.981 869.581 75.4981 508.97M503.402 1112.03C383.132 944.99 262.611 774.722 71.8825 510.285M499.695 1110.55C389.887 957.855 279.091 801.297 69.1978 512.033M492.023 1110.51C353.824 914.406 210.108 719.784 66.2648 514.265M486.81 1106.92C359.071 927.661 231.175 752.338 65.3217 519.037M483.804 1107.29C314.129 873.863 147.841 639.362 62.7538 520.545M477.687 1104.67C391.97 989.627 309.413 872.444 59.4062 523.891M472.287 1104.12C312.22 885.625 152.079 661.863 56.3502 526.902M467.134 1103.76C314.498 893.696 165.103 684.56 55.3855 528.226M461.137 1101.78C340.481 933.463 221.773 765.382 52.2626 532.825M456.592 1102.39C297.404 880.622 138.68 657.895 50.5861 533.125M450.335 1101.18C367.614 981.891 280.778 858.887 48.221 536.462M443.813 1096.86C323.998 923.969 200.994 754.267 44.6824 540.105M439.038 1096.65C290.196 891.841 145.585 689.496 41.7481 542.91M433.751 1093.86C328.665 949.141 223.15 801.998 38.4547 544.901M428.692 1093.75C266.419 875.551 110.671 657.118 36.7739 549.874M421.854 1090.28C332.152 967.546 240.614 839.036 35.667 553.404M414.805 1089.53C293.589 915.735 169.663 743.131 32.5866 556.028M410.747 1086.78C267.335 885.402 124.1 683.725 30.6562 558.713M403.601 1086.37C253.441 878.397 104.518 669.895 28.1533 562.065M399.684 1085.87C304.072 954.429 210.404 823.601 28.4056 565.572M393.886 1082.98C254.378 888.834 117.989 696.626 24.6221 570.557M387.059 1080.43C269.611 917.116 152.898 756.635 22.2612 572.143M382.903 1080.42C300.322 962.574 212.905 842.055 20.0023 578.257M375.445 1077.15C230.714 883.274 89.202 683.104 19.624 582.104M371.152 1077.34C291.418 961.119 210.288 848.737 18.0625 585.045M362.641 1073.53C265.054 933.582 166.578 794.436 15.5145 588.842M357.624 1070.8C253.102 920.357 147.157 774.575 14.9047 590.509M350.227 1068.12C258.481 940.907 166.532 812.817 11.0422 597.06M344.714 1067.01C215.354 886.484 86.5328 703.553 9.65744 601.178M338.353 1063.51C256.563 951.611 173.036 838.412 9.76672 603.255M330.622 1061.63C255.446 948.228 175.947 840.005 8.46587 608.083M324.348 1057.9C228.231 917.681 127.199 778.301 7.61563 615.099M318.133 1053.47C230.505 925.014 139.037 798.889 4.72192 619.749M314.146 1051.53C245.714 964.62 180.225 874.21 4.43445 622.503M304.896 1050.14C220.716 931.63 135.679 815.25 3.98676 627.246M299.575 1047.12C199.307 904.94 99.3219 766.035 3.87668 634.34M294.307 1045.63C181.188 885.912 69.7805 727.327 2.26828 637.34M287.645 1043.14C200.574 923.321 117.643 805.551 0.40131 645.135M282.637 1042.98C171.681 885.54 62.4872 729.819 1.65262 649.847M275.999 1037.17C205.404 939.196 134.722 842.294 2.74306 656.733M268.533 1033.89C191.329 921.019 112.046 810.872 0.422173 663.709M259.412 1031.22C214.895 971.272 171.894 908.265 128.262 848.543M128.864 846.223C81.9706 779.59 35.1689 714.961 3.90426 668.079M254.344 1028.13C219.668 970.961 178.482 922.032 132.011 857.024M126.211 842.213C87.3571 792.466 50.9058 740.766 1.67451 674.507M243.635 1024.62C200.302 962.071 158.438 895.718 127.952 860.688M113.964 841.011C87.7461 805.158 56.4947 762.645 2.55045 680.388M239.916 1019.84C207.455 976.768 177.931 939.786 130.99 868.193M109.519 839.506C73.4334 791.174 36.4401 737.019 1.53513 690.75M227.657 1015.3C191.984 964.074 160.977 920.974 130.514 870.384M101.055 832.226C70.0762 791.593 31.1025 740.017 10.2475 700.331M223.465 1006.12C186.005 954.265 149.001 904.374 130.382 874.671M94.7326 829.681C73.8318 796.345 49.4521 763.465 11.9439 710.841M213.321 1002.07C193.819 976.514 170.627 939.615 130.625 882.253M88.1849 828.054C73.7189 804.352 54.2069 780.473 10.6528 723.245M204.547 999.206C184.93 965.373 159.379 937.627 131.904 894.561M76.8163 818.159C62.6692 794.897 40.497 765.828 16.7783 736.538M194.322 993.972C181.005 970.37 170.56 950.27 134.529 903.904M63.7537 800.941C49.7869 792.514 39.3655 777.915 26.6677 757.506M191.968 988.063C175.705 968.756 163.028 955.836 135.994 912.471M178.914 975.11C166.64 959.104 156.769 953.269 138.684 924.012M977.727 45.0002V45.0002ZM992.44 944.692V944.692ZM337.29 728.732V728.732Z" stroke="url(#paint0_linear_2168_14187)" stroke-width="0.457645" stroke-linecap="round"/>
<defs>
<linearGradient id="paint0_linear_2168_14187" x1="977.235" y1="159.406" x2="225.978" y2="427.763" gradientUnits="userSpaceOnUse">
<stop stop-color="#3CA0D2"/>
<stop offset="1" stop-color="#48DCA6"/>
</linearGradient>
</defs>
</svg>
