<svg width="34" height="32" viewBox="0 0 34 32" fill="none" xmlns="http://www.w3.org/2000/svg">
<path d="M16.0779 1.63728C16.3624 0.761686 17.6011 0.761689 17.8856 1.63729L21.0359 11.3327C21.1631 11.7243 21.528 11.9894 21.9397 11.9894L32.1341 11.9894C33.0548 11.9894 33.4376 13.1675 32.6927 13.7087L24.4453 19.7008C24.1122 19.9428 23.9728 20.3718 24.1001 20.7634L27.2503 30.4588C27.5348 31.3344 26.5326 32.0625 25.7878 31.5214L17.5404 25.5292C17.2073 25.2872 16.7562 25.2872 16.4231 25.5292L8.17571 31.5214C7.43088 32.0625 6.42872 31.3344 6.71322 30.4588L9.86346 20.7634C9.99069 20.3718 9.85131 19.9428 9.51821 19.7008L1.27077 13.7087C0.525947 13.1675 0.908739 11.9894 1.8294 11.9894L12.0238 11.9894C12.4355 11.9894 12.8004 11.7243 12.9277 11.3327L16.0779 1.63728Z" fill="#EF4335"/>
</svg>
