<svg width="656" height="1040" viewBox="0 0 656 1040" fill="none" xmlns="http://www.w3.org/2000/svg">
<path d="M-137.602 174.384C-106.046 133.06 -66.1199 78.8329 -11.6605 0.965957M-139.057 176.961C-96.2408 127.465 -56.4136 67.7579 -8.35518 2.36945M-133.653 177.292C-90.9305 122.109 -46.0846 59.4972 -5.87158 4.20613M-131.622 183.868C-97.1711 136.511 -62.9134 95.6986 -2.05903 10.681M-124.97 186.79C-84.4988 130.094 -43.918 67.998 -0.0906269 6.06617M-120.965 186.152C-91.3148 144.54 -62.8946 107.136 1.93768 14.4052M-117.128 186.121C-91.678 149.572 -60.9335 105.202 9.53393 13.9324M-114.287 187.795C-78.7485 145.576 -45.335 100.007 7.95218 17.1423M-113.026 197.397C-64.9863 133.677 -15.5983 69.4722 13.1922 19.7079M-110.942 196.071C-53.3355 124.898 -8.04974 58.3233 21.0842 16.7743M-105.164 197.831C-75.2683 154.159 -43.4903 111.934 22.4113 26.4847M-100.42 203.3C-60.42 146.391 -25.711 96.2717 29.658 26.7993M-93.6171 204.344C-55.7755 152.041 -13.8603 90.7231 29.7681 23.2491M-91.2254 202.271C-66.5264 164.307 -37.0118 123.839 34.2959 31.1398M-90.3077 203.188C-53.6 162.801 -22.9996 115.123 35.6838 29.7039M-83.2789 207.004C-38.6129 150.13 1.39754 91.451 40.7485 34.2902M-84.0907 213.254C-43.037 145.887 -1.54112 88.074 40.746 34.6118M-76.4142 209.58C-54.3098 177.297 -25.7384 140.273 50.7859 37.4387M-72.4047 213.245C-32.2765 148.74 18.0709 87.1757 48.1448 38.8716M-70.6862 220.395C-43.9668 178.555 -14.563 135.471 50.9954 42.402M-70.0024 216.676C-35.5953 163.454 6.59241 112.283 55.7549 45.5772M-61.4077 217.665C-27.0412 170.858 10.027 122.944 59.4483 43.6739M-60.1563 222.522C-23.4233 168.402 13.7068 123.658 65.6749 45.0861M-58.8806 223.086C-25.5134 181.549 11.8418 133.831 65.3204 46.9672M-53.6012 227.947C-26.401 193.034 -1.4907 150.679 74.4094 50.9558M-52.2736 231.791C-20.8188 184.93 17.2262 141.279 75.0767 55.721M-49.3619 230.955C-0.976554 168.683 40.9505 112.143 77.0078 56.0452M-40.8154 233.405C-4.72807 171.848 43.9572 113.456 85.1553 58.1669M-41.6687 237.403C-4.62206 184.471 35.2266 138.508 83.6288 64.1646M-38.8486 242.022C0.648481 179.72 45.7542 127.835 87.074 64.159M-30.2662 241.538C17.7206 176.718 68.5361 102.439 91.1184 65.4748M-27.6409 243.826C11.9667 188.15 45.4321 139.545 97.0221 71.3523M-25.2454 246.882C14.8531 190.557 56.1898 131.178 99.4015 71.395M-20.0449 249.052C22.4334 189.851 66.5746 127.373 101.613 70.9478M-20.2781 251.886C27.2783 177.746 78.8275 113.109 110.367 75.1913M-12.3579 249.156C30.9345 184.931 77.6517 121.005 112.796 79.0825M-14.7053 251.43C33.1929 191.343 71.8208 136.317 118.035 80.4021M-11.0088 256.125C32.7173 195.229 72.4548 142.036 121.594 80.9936M-2.93689 254.621C36.9149 201.107 77.6296 146.132 123.267 83.4195M3.18713 257.196C42.9669 206.637 84.4033 153.646 127.059 81.8715M-0.324752 262.997C46.9788 201.857 84.8771 140.512 131.933 86.0721M4.88163 261.862C33.6976 228.343 67.6111 193.015 132.956 86.9273M13.5034 263.316C48.809 219.994 80.9719 169.777 136.677 93.4112M11.8457 270.766C56.7359 205.767 100.52 148.906 140.023 91.6772M14.1965 269.67C55.3045 214.546 95.7927 159.837 140.907 93.1116M17.8615 273.916C61.5232 205.236 110.529 142.546 148.119 100.787M26.2583 278.741C72.5938 213.172 111.924 150.479 149.073 97.8681M26.8884 277.21C72.0119 213.044 122.908 151.453 151.827 101.428M31.6318 282.242C70.2887 221.165 111.96 167.372 156.808 105.795M37.6947 284.078C75.3201 223.976 119.774 164.445 159.727 108.265M41.6234 280.773C93.468 214.506 137.229 141.331 162.912 110.245M45.6832 285.131C86.7754 227.855 128.506 164.187 171.633 106.491M43.7836 286.441C91.3389 232.092 128.199 171.851 172.293 113.09M52.4023 287.954C99.9299 228.862 147.274 161.228 178.548 114.094M54.8611 294.661C78.3076 247.411 115.844 208.147 181.397 114.126M57.878 297.636C102.027 230.811 151.96 161.31 180.15 119.762M60.1538 294.574C89.9862 251.432 124.76 209.349 186.675 118.768M63.6031 300.768C90.9729 257.046 121.445 220.065 190.095 119.957M63.9084 300.513C107.213 252.445 137.27 206.049 191.446 127.333M72.9273 305.938C105.712 251.604 140.192 201.974 194.949 129.862M74.2491 304.343C102.71 259.294 138.091 211.723 201.035 130.686M80.6582 304.569C117.365 260.696 152.928 205.304 202.914 130.389M81.561 307.121C126.47 245.666 173.157 173.84 211.271 137.612M86.4099 311.344C128.715 251.745 162.94 199.304 209.878 133.661M90.9882 310.655C113.243 273.63 145.45 234.12 213.458 139.08M92.9767 316.7C140.594 249.291 195.979 176.575 216.686 137.724M95.2352 319.988C129.391 261.645 170.741 210.588 220.019 141.072M96.3809 320.001C152.246 245.059 199.757 177.442 226.643 146.451M106.001 323.015C156.185 253.541 202.461 185.909 231.998 145.58M104.126 328.116C154.123 262.882 199.917 196.22 235.431 151.961M110.691 329.662C135.281 292.452 159.368 252.475 237.257 149.553M113.403 329.554C144.379 288.784 170.011 252.227 236.976 150.759M114.2 334.352C144.824 295.067 169.308 254.343 242.801 153.453M118.522 331.136C147.46 293.004 171.922 255.212 248.434 154.366M123.913 337.141C163.238 278.058 209.682 226.481 248.759 157.823M126.801 338.502C173.293 267.723 228.257 198.956 251.19 163.058M134.338 337.12C160.173 300.043 186.252 253.942 259.168 161.615M135.925 340.563C176.322 279.449 225.797 221.284 260.617 169.797M136.819 346.876C186.478 273.598 241.257 207.023 263.334 170.678M141.311 344.537C189.243 277.329 245.056 210.169 267.062 167.185M147.786 350.261C171.401 307.603 202.883 265.722 268.282 170.238M145.731 348.161C197.03 291.63 243.415 223.639 278.711 177.357M156.035 353.898C193.453 299.752 238.408 239.008 278.524 176.438M155.169 352.978C193.99 301.056 235.313 251.995 285.12 179.833M161.61 357.429C196.803 312.724 223.677 264.049 289.998 184.032M162.67 356.427C205.026 302.763 248.222 243.719 289.344 182.138M164.582 361.039C212.961 293.511 256.233 230.02 294.06 185.219M172.099 364.586C201.814 327 229.818 282.837 294.698 185.76M175.238 367.392C214.883 303.305 259.45 252.748 301.314 191.444M175.413 370.677C220.792 307.736 260.39 251.077 301.687 191.107M181.931 372.154C223.787 314.691 256.806 260.769 308.373 196.442M187.168 367.982C228.432 317.58 263.516 263.314 312.502 197.999M188.147 372.322C238.181 313.077 283.818 244.797 318.234 194.32M190.282 373.613C226.611 324.669 264.402 273.501 316.264 198.48M194.495 377.747C223.596 341.859 247.654 299.671 321.103 203.787M198.951 377.988C243.456 317.858 284.71 254.776 323.706 201.121M202.311 380.824C236.61 340.145 266.341 287.337 333.934 208.439M204.832 384.1C242.639 336.964 276.933 289.576 334.152 209.798M210.169 384.951C245.756 337.043 283.771 283.445 336.815 209.275M214.944 386.578C254.317 335.386 288.401 284.871 342.088 214.033M221.103 392.495C243.72 349.584 267.276 312.852 343.831 214.431M219.983 394.598C253.365 337.92 291.449 284.935 351.927 216.461M222.752 391.074C273.672 333.044 314.578 272.624 355.553 214.93M232.059 393.434C266.553 340.529 302.376 288.806 353.319 218.402M230.977 398.697C271.192 355.331 304.66 304.992 360.766 222.295M237.446 401.761C277.723 349.294 310.609 296.372 362.668 220.901M239.696 403.568C283.922 342.503 330.552 280.609 365.478 226.853M241.8 403.461C269.72 361.865 298.36 327.871 371.367 225.746M251.367 405.837C279.491 359.943 316.074 307.774 372.886 231.526M250.87 404.685C280.752 367.019 304.664 333.627 376.506 229.874M253.433 407.688C300.84 349.649 350.983 287.143 381.49 232.21M262.398 411.724C301.442 348.174 346.076 288.748 389.186 235.375M263.007 410.846C295.787 362.973 328.243 318.842 392.356 237.156M264.586 412.793C320.051 347.002 369.321 275.905 395.401 240.873M270.424 414.943C301.639 366.803 334.964 317.127 396.27 239.06M-166.289 1033.36C-132.688 980.241 -93.9545 928.519 -13.1423 813.339M275.694 417.727C318.959 360.457 365.712 299.118 397.449 239.797M-159.938 1031.63C-133.858 988.996 -97.935 943.288 -6.31796 816.303M273.854 419.834C317.17 363.424 357.987 302.338 406.142 244.832M-159.066 1036.81C-106.111 961.772 -52.8499 882.794 4.13657 813.271M278.459 420.943C331.124 357.13 381.459 284.326 408.724 245.973M-151.004 1032.17C-101.228 961.15 -45.829 882.134 6.10392 810.877M281.566 425.023C310.156 386.307 337.821 355.226 416.022 248.583M-149.96 1037.22C-109.092 991 -75.8258 944.117 10.796 813.41M288.797 423.961C336.477 362.511 378.527 298.252 413.8 252.994M-138.727 1037.51C-101.731 981.239 -66.9998 930.294 19.4679 813.369M289.357 427.122C316.749 393.922 345.854 354.443 422.227 253.075M-137.163 1038.43C-92.8847 972.632 -48.7489 917.062 25.7206 811.79M297.401 432.824C346.768 361.055 400.89 291.019 422.641 250.983M-135.344 1035.66C-74.3635 950.217 -13.9225 865.845 27.9225 811.972M299.441 430.168C350.815 363.504 398.492 297.359 426.823 252.209M-126.355 1037.79C-76.2712 971.469 -30.5832 905.865 38.1602 809.984M306.229 432.243C342.722 385.647 381.14 328.759 429.227 252.944M-120.764 1032.1C-58.8809 949.111 0.570277 870.258 40.1962 807.846M309.797 434.918C340.47 394.744 366.102 352.124 438.095 259.168M-119.016 1033.66C-75.9018 968.631 -26.5621 906.125 50.1774 806.984M311.891 441.139C347.413 379.492 395.023 325.931 442.513 259.715M-111.475 1037.49C-57.4045 950.705 -0.553644 869.504 54.8196 804.226M317.622 440.26C350.309 390.988 391.604 335.784 443 263.049M-108.986 1036.33C-61.6098 972.436 -13.2438 911.664 58.4668 804.414M317.943 444.499C352.286 392.25 384.344 349.144 447.091 262.613M-103.747 1038.81C-45.941 956.319 5.39467 881.692 66.936 799.847M324.546 441.662C363.51 389.744 404.138 329.878 449.072 265.644M-96.1117 1033.44C-46.0677 955.918 10.909 880.408 72.769 800.749M323.161 443.341C358.745 394.68 391.617 351.382 454.188 267.067M-92.2767 1034.28C-42.6223 973.051 0.8747 902.642 75.9801 802.951M330.858 446.059C360.261 406.877 389.205 359.922 460.37 270.269M-86.8957 1034.26C-51.0577 980.231 -15.4391 933.754 80.7431 802.354M335.019 450.672C376.076 395.481 412.795 340.422 466.121 271.075M-80.3094 1035.53C-28.7487 961.501 21.6621 895.22 87.9762 801.108M336.613 453.869C370.057 405.389 396.803 365.798 463.695 272.428M-73.8038 1036.69C-41.5526 988.662 -1.84851 936.953 94.5632 797.371M341.563 453.964C384.317 389.941 425.632 329.172 467.239 273.534M-73.394 1037.97C-21.6526 967.335 32.2169 894.085 100.997 795.798M348.966 452.255C381.358 401.66 416.387 348.262 471.843 277.319M-64.0186 1037.43C-15.4319 969.748 33.3457 902.738 106.661 795.931M349.015 456.378C393.346 392.768 443.421 338.208 475.093 280.504M-58.2618 1032.61C-8.42619 965.835 46.5264 895.258 115.606 793.592M350.232 457.112C403.558 391.159 451.045 321.908 484.554 278.269M-54.7339 1037.91C-9.34523 972.345 35.7813 904.453 119.798 791.18M355.867 463.481C397.796 404.787 435.982 347.301 488.072 281.065M-48.9552 1034.57C-2.22914 971.351 42.6634 903.579 129.86 786.971M358.875 462.348C396.825 409.12 433.743 360.514 487.006 285.06M-46.9901 1038.15C5.98835 964.727 59.3159 895.828 134.136 789.392M264.632 607.622C271.47 594.349 282.146 584.793 294.37 566.191M367.08 461.713C417.75 395.027 464.205 324.874 492.651 281.562M-40.7041 1035.25C30.6764 944.087 98.2689 851.518 142.001 782.363M257.451 625.393C263.749 607.185 276.552 586.789 304.205 556.084M365.232 468.953C417.47 395.099 468.163 331.286 494.169 286.025M-34.7021 1034.03C27.2284 950.721 93.7953 858.769 149.212 782.252M244.066 647.302C259.879 621.98 274.436 600.781 315.964 547.88M371.546 468.126C423.699 397.291 470.651 327.343 505.126 289.176M-31.04 1036.11C7.18059 980.895 45.409 934.315 154.294 780.594M247.687 651.458C269.058 623.844 287.82 594.932 318.655 542.009M374.758 471.853C415.601 416.945 452.052 366.389 507.433 290.595M-23.9275 1030.67C27.8277 960.068 83.8403 884.624 162.109 779.352M241.396 663.236C262.481 631.73 281.337 609.315 330.224 541.293M379.898 468.355C421.446 417.296 464.223 360.259 506.241 291.896M-21.2419 1030.41C33.3075 960.624 82.8844 886.901 167.507 775.537M244.058 664.868C272.114 631.1 293.076 597.603 338.044 539.469M381.363 472.979C411.854 435.676 437.114 402.676 510.012 295.444M-12.0423 1029.13C33.9946 961.612 78.4309 897.661 175.519 771.75M242.236 672.146C282.518 616.518 325.267 566.972 350.457 533.268M387.519 473.562C435.912 400.753 487.47 330.497 512.619 300.489M-7.66572 1034.12C60.0992 940.241 122.415 851.393 183.652 765.958M243.178 682.044C276.738 636.321 310.305 590.013 356.216 529.963M395.495 479.241C432.128 424.5 465.744 370.172 518.064 299.584M0.47083 1028.32C49.037 952.9 103.416 875.923 189.6 768.14M242.018 690.882C287.345 622.713 333.347 567.785 362.234 531.008M397.937 480.437C435.06 417.419 470.423 368.123 523.426 302.115M5.27371 1029.74C60.7474 949.215 115.195 876.065 194.56 763.013M247.511 693.799C286.932 641.276 325.072 586.049 365.708 530.56M401.987 477.803C429.2 440.298 459.643 402.549 522.761 302.287M6.95438 1027.81C70.4969 943.213 135.369 855.736 202.729 757.275M246.925 700.807C281.603 650.182 320.254 601.57 370.538 528.083M401.033 480.034C448.87 421.521 489.485 368.966 526.214 306.541M17.7456 1030.72C70.3744 945.314 130.474 864.844 212.1 755.201M247.631 705.807C276.17 663.376 303.973 623.948 374.542 526.082M408.746 484.729C453.912 416.699 499.522 355.536 536.435 310.505M19.2091 1026.51C80.0669 948.71 136.979 864.327 216.475 752.233M248.811 707.216C289.859 652.294 326.934 600.22 385.672 526.735M409.614 482.934C439.955 444.681 462.817 402.62 539.511 306.25M25.3824 1026.8C85.4479 945.239 150.964 860.837 225.017 753.726M254.958 716.411C293.621 653.665 333.451 594.125 390.335 521.247M412.157 486.12C444.714 445.102 474.229 404.642 540.933 311.026M32.3672 1028.74C72.5178 969.137 122.987 906.52 233.907 748.183M254.644 721.443C280.976 675.563 316.483 634.392 392.859 520.965M415.109 492.565C458.016 435.489 499.791 376.1 541.042 311.324M38.865 1025.38C108.792 926.026 187.048 826.292 239.397 744.136M252.509 721.029C294.353 662.347 334.444 606.127 401.031 523.306M421.236 491.402C460.627 431.107 503.666 377.753 545.119 314.341M40.7432 1029.27C106.624 936.896 171.109 846.825 248.863 741.72M256.286 729.663C315.52 646.84 367.996 568.416 407.335 518.304M424.116 497.323C460.545 450.454 492.969 401.652 551.219 321.718M46.3303 1024.25C95.3093 966.715 136.507 902.997 256.328 734.648M258.523 730.602C309.823 659.634 357.262 585.214 411.933 516.416M426.506 494.401C457.556 452.519 490.102 402.473 554.407 323.103M53.5796 1025.95C183.413 843.845 315.202 659.283 418.505 520.317M429.525 497.618C467.306 442.715 507.615 390.568 554.17 322.904M60.8939 1024.04C137.305 922.614 213.222 814.162 421.726 519.501M438.248 503.149C466.03 455.054 498.814 413.157 563.903 323.568M66.3966 1024.15C205.759 829.949 344.158 637.481 427.238 517.253M435.938 508.141C485.526 436.085 532.705 367.483 562.526 327.057M72.5548 1021.61C268.545 745.448 466.912 470.223 567.195 331.712M79.0179 1020.79C175.944 886.053 274.238 744.719 569.67 335.724M84.3542 1019.7C220.761 830.246 357.452 637.133 573.771 337.216M88.5577 1018.01C213.099 844.837 338.76 667.274 576.816 339.198M97.2596 1017.97C254 795.559 416.999 574.824 580.142 341.73M103.172 1013.9C248.049 810.593 393.106 611.745 581.212 347.142M106.581 1014.32C299.022 749.576 487.621 483.611 584.124 348.853M113.519 1011.35C210.737 880.872 304.371 747.966 587.921 352.648M119.643 1010.73C301.187 762.916 482.815 509.131 591.387 356.063M125.487 1010.32C298.603 772.07 468.043 534.874 592.481 357.564M132.29 1008.07C269.134 817.172 403.769 626.54 596.023 362.781M137.444 1008.77C317.991 757.241 498.011 504.631 597.924 363.12M144.541 1007.39C238.36 872.098 336.847 732.591 600.607 366.905M151.938 1002.5C287.829 806.404 427.336 613.933 604.62 371.037M157.353 1002.26C326.166 769.966 490.179 540.472 607.948 374.218M163.35 999.09C282.536 834.954 402.207 668.069 611.684 376.476M169.088 998.971C353.133 751.491 529.778 503.75 613.59 382.117M176.843 995.025C278.581 855.829 382.401 710.076 614.845 386.12M184.838 994.174C322.317 797.066 462.87 601.303 618.339 389.096M189.44 991.06C352.094 762.663 514.547 533.927 620.528 392.141M197.545 990.599C367.852 754.718 536.757 518.241 623.367 395.943M201.987 990.033C310.427 840.951 416.664 692.57 623.081 399.922M208.564 986.752C366.789 766.556 521.478 548.558 627.372 405.575M216.307 983.857C349.512 798.632 481.885 616.619 630.05 407.374M221.021 983.842C314.681 850.189 413.827 713.5 632.612 414.308M229.479 980.139C393.629 760.249 554.127 533.222 633.041 418.671M234.348 980.354C324.78 848.539 416.796 721.078 634.812 422.006M244.001 976.037C354.681 817.307 466.37 659.492 637.702 426.314M249.691 972.931C368.237 802.308 488.397 636.966 638.393 428.203M258.08 969.898C362.136 825.615 466.422 680.339 642.774 435.634M264.333 968.638C411.05 763.89 557.155 556.415 644.345 440.304M271.548 964.667C364.311 837.755 459.045 709.368 644.221 442.66M280.316 962.541C365.578 833.918 455.744 711.175 645.696 448.136M287.431 958.3C396.445 799.273 511.033 641.193 646.66 456.093M294.48 953.286C393.866 807.59 497.606 664.543 649.942 461.368M299.003 951.08C376.616 852.51 450.892 749.97 650.268 464.49M309.493 949.502C404.968 815.094 501.415 683.099 650.776 469.87M315.529 946.078C429.25 784.823 542.65 627.281 650.901 477.915M321.503 944.388C449.8 763.242 576.155 583.378 652.725 481.319M329.059 941.565C427.812 805.67 521.87 672.098 654.843 490.159M334.739 941.382C460.582 762.82 584.427 586.205 653.423 495.503M342.267 934.791C422.335 823.675 502.5 713.771 652.187 503.313M350.735 931.075C438.298 803.058 528.219 678.133 654.819 511.225M361.08 928.048C411.57 860.054 460.34 788.593 509.827 720.859M509.144 718.227C562.329 642.654 615.41 569.354 650.87 516.181M366.828 924.539C406.157 859.702 452.868 804.208 505.574 730.478M512.153 713.68C556.22 657.258 597.562 598.621 653.399 523.472M378.974 920.563C428.121 849.619 475.602 774.364 510.178 734.633M526.043 712.316C555.779 671.653 591.223 623.436 652.405 530.142M383.192 915.141C420.008 866.287 453.494 824.344 506.732 743.145M531.085 710.609C572.012 655.792 613.968 594.371 653.557 541.894M397.096 909.985C437.555 851.89 472.722 803.008 507.272 745.63M540.684 702.353C575.819 656.267 620.022 597.772 643.675 552.761M401.85 899.583C444.336 840.766 486.306 784.18 507.422 750.493M547.855 699.466C571.56 661.657 599.211 624.365 641.751 564.681M413.355 894.98C435.474 865.999 461.778 824.149 507.146 759.092M555.281 697.62C571.688 670.738 593.818 643.656 643.216 578.749M423.306 891.736C445.556 853.364 474.535 821.895 505.696 773.051M568.175 686.398C584.22 660.014 609.367 627.046 636.268 593.826M434.903 885.8C450.007 859.031 461.853 836.235 502.719 783.648M582.99 666.87C598.831 657.312 610.651 640.755 625.052 617.607M437.573 879.098C456.018 857.2 470.397 842.547 501.057 793.364M452.378 864.407C466.299 846.254 477.495 839.636 498.007 806.454" stroke="url(#paint0_linear_2168_14190)" stroke-width="0.519048" stroke-linecap="round"/>
<defs>
<linearGradient id="paint0_linear_2168_14190" x1="-159.133" y1="151.219" x2="483.981" y2="363.708" gradientUnits="userSpaceOnUse">
<stop stop-color="#3CA0D2"/>
<stop offset="1" stop-color="#48DCA6"/>
</linearGradient>
</defs>
</svg>
