<svg width="70" height="70" viewBox="0 0 70 70" fill="none" xmlns="http://www.w3.org/2000/svg">
<circle cx="34.8648" cy="34.8814" r="34.2867" fill="#3CA0D2"/>
<circle cx="35" cy="35.0166" r="31" fill="white"/>
<mask id="mask0_2198_3466" style="mask-type:alpha" maskUnits="userSpaceOnUse" x="4" y="4" width="62" height="63">
<circle cx="35" cy="35.0166" r="31" fill="white"/>
</mask>
<g mask="url(#mask0_2198_3466)">
<path d="M56.7094 56.7343C53.4968 51.1803 48.5461 47.1978 42.7685 45.3099C45.6264 43.6086 47.8467 41.0162 49.0887 37.9309C50.3306 34.8455 50.5253 31.4378 49.6431 28.231C48.7608 25.0243 46.8503 22.1958 44.2049 20.1799C41.5596 18.164 38.3256 17.0723 34.9997 17.0723C31.6738 17.0723 28.4398 18.164 25.7944 20.1799C23.1491 22.1958 21.2385 25.0243 20.3563 28.231C19.474 31.4378 19.6688 34.8455 20.9107 37.9309C22.1526 41.0162 24.373 43.6086 27.2309 45.3099C21.4533 47.1957 16.5026 51.1782 13.29 56.7343C13.1722 56.9264 13.094 57.1401 13.0602 57.3629C13.0263 57.5857 13.0374 57.813 13.0928 58.0314C13.1482 58.2498 13.2468 58.455 13.3828 58.6347C13.5188 58.8144 13.6893 58.965 13.8845 59.0777C14.0796 59.1904 14.2953 59.2629 14.5189 59.2909C14.7425 59.3189 14.9695 59.3018 15.1864 59.2407C15.4033 59.1795 15.6057 59.0756 15.7818 58.9349C15.9578 58.7943 16.1039 58.6198 16.2115 58.4218C20.1855 51.5536 27.2098 47.453 34.9997 47.453C42.7896 47.453 49.8138 51.5536 53.7879 58.4218C53.8954 58.6198 54.0415 58.7943 54.2176 58.9349C54.3937 59.0756 54.5961 59.1795 54.813 59.2407C55.0299 59.3018 55.2568 59.3189 55.4804 59.2909C55.704 59.2629 55.9198 59.1904 56.1149 59.0777C56.31 58.965 56.4806 58.8144 56.6166 58.6347C56.7525 58.455 56.8511 58.2498 56.9065 58.0314C56.962 57.813 56.9731 57.5857 56.9392 57.3629C56.9053 57.1401 56.8272 56.9264 56.7094 56.7343ZM23.1872 32.2655C23.1872 29.9292 23.88 27.6454 25.178 25.7028C26.4759 23.7603 28.3208 22.2462 30.4792 21.3522C32.6377 20.4581 35.0128 20.2242 37.3042 20.68C39.5956 21.1358 41.7004 22.2608 43.3524 23.9128C45.0044 25.5648 46.1294 27.6696 46.5852 29.961C47.041 32.2524 46.8071 34.6275 45.913 36.786C45.019 38.9444 43.5049 40.7893 41.5624 42.0872C39.6198 43.3852 37.336 44.078 34.9997 44.078C31.8678 44.0747 28.8652 42.8291 26.6507 40.6145C24.4361 38.4 23.1905 35.3973 23.1872 32.2655Z" fill="#48DCA6"/>
</g>
</svg>
