<svg width="61" height="52" viewBox="0 0 61 52" fill="none" xmlns="http://www.w3.org/2000/svg">
<path d="M11.6086 15.823C14.9457 12.1487 17.6154 7.83291 21.392 4.63559M10.9975 20.173C16.9344 14.3071 21.5449 7.83236 23.2881 3.07746M11.1379 21.9979C15.0676 14.9796 19.3993 10.8823 26.2945 4.38768M11.0702 23.203C16.5458 16.2108 21.9827 10.9849 27.1991 3.60945M9.85693 26.1683C18.6852 15.986 26.0694 7.55129 31.0933 2.24855M10.7322 26.794C16.1186 19.923 21.8004 12.9986 31.7717 1.62114M11.5197 28.302C17.829 20.7879 24.3845 10.6665 32.2585 0.804688M11.8793 29.863C21.2308 19.4127 29.726 8.20022 33.9365 0.9565M12.0182 32.3485C16.1925 23.9159 22.6498 17.3619 35.3235 1.45288M12.6848 32.7137C19.8237 22.4042 29.4012 12.3215 38.6954 1.46067M13.2597 34.7647C21.7494 22.5566 32.6475 10.7121 38.1234 1.94765M13.6115 35.917C20.7208 25.4978 27.3383 17.0774 40.9782 1.32121M13.6284 37.0185C21.461 25.2077 30.29 16.2132 40.285 1.47362M13.0121 37.4612C22.7878 26.2529 30.4457 16.5862 41.6641 3.6608M14.9979 38.1511C20.6752 31.6433 25.9522 25.2573 44.4343 3.05192M15.7697 39.0779C25.309 28.0662 37.1556 14.3363 46.0612 3.84559M17.011 40.4552C27.4819 26.4436 36.8511 14.7926 46.5312 5.24081M16.2007 42.4058C27.7205 27.6509 40.7367 12.039 46.3404 3.91987M18.1849 41.3081C25.0609 33.8469 32.4573 25.0878 47.7518 4.63141M18.9427 42.9424C30.1068 30.6145 39.4161 18.4872 48.9478 6.33325M18.8539 42.8716C29.2713 33.7841 38.8514 22.4131 49.5644 7.32527M20.0513 43.7757C32.1783 31.3563 42.4434 18.2968 51.1039 7.00182M21.2843 44.5637C33.9795 31.6542 45.148 15.8917 51.9148 8.00184M20.9754 45.8292C27.9875 36.3789 37.1137 27.729 52.3515 8.0306M22.7756 45.8392C30.7793 36.6661 38.1631 28.2277 53.3629 8.78835M24.7279 47.0602C33.8827 36.6159 44.0206 23.0086 54.6013 11.8172M24.8685 49.0406C33.6468 38.1304 40.5339 27.5099 54.7917 11.0624M26.3581 47.9982C32.5023 38.9918 41.9469 30.7609 55.1916 13.0657M26.6384 49.2863C35.5436 36.6015 45.3385 26.9357 55.0958 12.8478M28.6514 48.9984C38.5245 37.2406 49.8568 23.3784 56.8649 14.7408M29.976 48.6596C34.6668 42.4857 42.2767 35.5463 57.0521 16.7269M30.3368 49.5813C38.8751 39.427 49.2275 26.7568 57.8074 16.5175M32.6135 50.1003C41.7278 37.4467 49.6512 26.6483 57.3211 19.6796M33.2727 50.7745C41.4108 41.6624 48.4769 33.2757 57.5608 20.1037M34.3465 50.9481C41.2616 43.2951 45.6201 35.7631 59.1698 21.99M36.6574 49.7486C45.1774 41.0756 52.4873 33.1222 58.2937 21.5031M37.7137 49.8913C43.5796 40.737 50.0192 32.5605 58.0759 25.1913M39.4221 48.9746C47.6894 40.5463 53.6981 32.008 58.3333 26.0868M42.1601 49.1388C47.5929 40.7204 53.7341 33.626 60.0003 28.8727M43.9869 48.8348C48.6521 42.1721 55.3673 35.2811 59.3387 29.3334M46.1968 46.3233C50.8739 41.4403 53.7473 37.5786 58.3261 34.2597M48.34 45.0561C51.2028 42.5082 54.4667 38.1047 57.5643 35.7403M17.3784 8.31958V8.31958Z" stroke="#454545" stroke-opacity="0.5" stroke-width="0.250191" stroke-linecap="round"/>
<g clip-path="url(#clip0_2168_14300)">
<path d="M6.48262 23.2496C8.86633 23.2496 10.8044 21.0532 10.8044 18.3516C10.8044 15.6501 8.86633 13.4536 6.48262 13.4536C4.09891 13.4536 2.16087 15.6501 2.16087 18.3516C2.16087 21.0532 4.09891 23.2496 6.48262 23.2496ZM36.7348 23.2496C39.1185 23.2496 41.0566 21.0532 41.0566 18.3516C41.0566 15.6501 39.1185 13.4536 36.7348 13.4536C34.3511 13.4536 32.4131 15.6501 32.4131 18.3516C32.4131 21.0532 34.3511 23.2496 36.7348 23.2496ZM38.8957 25.6986H34.574C33.3855 25.6986 32.3118 26.242 31.5285 27.1221C34.2498 28.8134 36.1811 31.867 36.5998 35.4945H41.0566C42.2518 35.4945 43.2175 34.4001 43.2175 33.0456V30.5966C43.2175 27.895 41.2794 25.6986 38.8957 25.6986ZM21.6087 25.6986C25.7887 25.6986 29.1718 21.8644 29.1718 17.1271C29.1718 12.3899 25.7887 8.55566 21.6087 8.55566C17.4288 8.55566 14.0457 12.3899 14.0457 17.1271C14.0457 21.8644 17.4288 25.6986 21.6087 25.6986ZM26.7948 28.1476H26.2343C24.8298 28.9129 23.2699 29.3721 21.6087 29.3721C19.9476 29.3721 18.3944 28.9129 16.9831 28.1476H16.4226C12.1279 28.1476 8.64349 32.0966 8.64349 36.9639V39.168C8.64349 41.1961 10.0953 42.8415 11.8848 42.8415H31.3327C33.1221 42.8415 34.574 41.1961 34.574 39.168V36.9639C34.574 32.0966 31.0896 28.1476 26.7948 28.1476ZM11.689 27.1221C10.9057 26.242 9.83197 25.6986 8.64349 25.6986H4.32175C1.93803 25.6986 0 27.895 0 30.5966V33.0456C0 34.4001 0.96564 35.4945 2.16087 35.4945H6.61092C7.03634 31.867 8.96762 28.8134 11.689 27.1221Z" fill="white"/>
</g>
<defs>
<clipPath id="clip0_2168_14300">
<rect width="43.2175" height="43.2174" fill="white" transform="translate(0 4.2168)"/>
</clipPath>
</defs>
</svg>
