<svg width="61" height="52" viewBox="0 0 61 52" fill="none" xmlns="http://www.w3.org/2000/svg">
<path d="M11.6061 16.0183C14.9432 12.344 17.6129 8.02822 21.3896 4.8309M10.9951 20.3683C16.932 14.5025 21.5424 8.02767 23.2857 3.27277M11.1354 22.1933C15.0651 15.1749 19.3969 11.0776 26.292 4.58299M11.0678 23.3983C16.5433 16.4061 21.9803 11.1802 27.1967 3.80476M9.85449 26.3637C18.6828 16.1813 26.067 7.7466 31.0908 2.44386M10.7298 26.9893C16.1161 20.1183 21.798 13.1939 31.7693 1.81645M11.5172 28.4973C17.8265 20.9832 24.382 10.8619 32.256 1M11.8769 30.0583C21.2284 19.608 29.7236 8.39553 33.934 1.15181M12.0158 32.5438C16.1901 24.1112 22.6474 17.5572 35.3211 1.6482M12.6824 32.909C19.8212 22.5995 29.3987 12.5168 38.693 1.65599M13.2573 34.96C21.747 22.752 32.645 10.9075 38.1209 2.14296M13.609 36.1123C20.7184 25.6932 27.3358 17.2727 40.9758 1.51652M13.626 37.2138C21.4586 25.403 30.2875 16.4085 40.2826 1.66893M13.0097 37.6565C22.7853 26.4482 30.4433 16.7815 41.6616 3.85611M14.9954 38.3464C20.6728 31.8386 25.9497 25.4527 44.4319 3.24723M15.7672 39.2732C25.3065 28.2615 37.1532 14.5316 46.0587 4.0409M17.0085 40.6505C27.4795 26.6389 36.8487 14.9879 46.5287 5.43612M16.1983 42.6011C27.7181 27.8462 40.7343 12.2343 46.3379 4.11518M18.1825 41.5034C25.0584 34.0422 32.4549 25.2831 47.7493 4.82672M18.9402 43.1377C30.1044 30.8098 39.4137 18.6825 48.9453 6.52856M18.8514 43.0669C29.2689 33.9794 38.849 22.6084 49.5619 7.52058M20.0489 43.971C32.1759 31.5517 42.441 18.4921 51.1015 7.19713M21.2819 44.759C33.9771 31.8495 45.1456 16.087 51.9124 8.19715M20.973 46.0245C27.9851 36.5742 37.1112 27.9243 52.3491 8.22591M22.7731 46.0345C30.7768 36.8614 38.1606 28.423 53.3605 8.98366M24.7255 47.2555C33.8802 36.8113 44.0182 23.2039 54.5989 12.0125M24.8661 49.2359C33.6443 38.3257 40.5314 27.7052 54.7892 11.2577M26.3556 48.1935C32.4998 39.1871 41.9445 30.9562 55.1891 13.261M26.636 49.4816C35.5411 36.7968 45.3361 27.131 55.0933 13.0431M28.649 49.1937C38.5221 37.4359 49.8544 23.5737 56.8624 14.9361M29.9736 48.8549C34.6643 42.681 42.2742 35.7416 57.0497 16.9222M30.3343 49.7766C38.8727 39.6224 49.2251 26.9521 57.8049 16.7128M32.611 50.2956C41.7253 37.642 49.6488 26.8436 57.3186 19.8749M33.2702 50.9698C41.4083 41.8577 48.4745 33.471 57.5584 20.299M34.3441 51.1434C41.2592 43.4904 45.6177 35.9584 59.1674 22.1853M36.655 49.9439C45.1749 41.2709 52.4849 33.3175 58.2913 21.6984M37.7112 50.0866C43.5771 40.9323 50.0168 32.7558 58.0735 25.3866M39.4197 49.1699C47.687 40.7416 53.6956 32.2033 58.3308 26.2821M42.1577 49.3341C47.5905 40.9157 53.7317 33.8213 59.9979 29.068M43.9844 49.0301C48.6497 42.3674 55.3648 35.4764 59.3362 29.5287M46.1944 46.5186C50.8715 41.6356 53.7449 37.7739 58.3236 34.455M48.3376 45.2515C51.2004 42.7035 54.4643 38.3 57.5618 35.9356M17.3759 8.51489V8.51489Z" stroke="white" stroke-width="0.209719" stroke-linecap="round"/>
<g clip-path="url(#clip0_2168_14535)">
<path d="M41.8581 18.4747C42.1283 19.209 41.9003 20.0278 41.3179 20.5511L37.663 23.8768C37.7559 24.5774 37.8065 25.2949 37.8065 26.0208C37.8065 26.7467 37.7559 27.4642 37.663 28.1648L41.3179 31.4905C41.9003 32.0139 42.1283 32.8326 41.8581 33.567C41.4867 34.5715 41.0394 35.5337 40.5245 36.4622L40.1278 37.1459C39.5707 38.0744 38.946 38.9523 38.2623 39.7795C37.7643 40.3873 36.9371 40.5898 36.1943 40.3535L31.4927 38.8595C30.3616 39.7289 29.1124 40.4548 27.7787 41.0034L26.7236 45.8232C26.5548 46.5913 25.9639 47.1991 25.1874 47.3257C24.0225 47.5198 22.8239 47.6211 21.6 47.6211C20.376 47.6211 19.1774 47.5198 18.0126 47.3257C17.236 47.1991 16.6451 46.5913 16.4763 45.8232L15.4212 41.0034C14.0876 40.4548 12.8383 39.7289 11.7072 38.8595L7.01407 40.3619C6.27127 40.5983 5.44406 40.3873 4.94605 39.788C4.26234 38.9607 3.63771 38.0829 3.08061 37.1544L2.68389 36.4707C2.16899 35.5422 1.72162 34.5799 1.35022 33.5754C1.08011 32.8411 1.30802 32.0223 1.89044 31.499L5.54535 28.1733C5.45251 27.4642 5.40186 26.7467 5.40186 26.0208C5.40186 25.2949 5.45251 24.5774 5.54535 23.8768L1.89044 20.5511C1.30802 20.0278 1.08011 19.209 1.35022 18.4747C1.72162 17.4702 2.16899 16.5079 2.68389 15.5794L3.08061 14.8957C3.63771 13.9672 4.26234 13.0894 4.94605 12.2622C5.44406 11.6544 6.27127 11.4518 7.01407 11.6882L11.7157 13.1822C12.8467 12.3128 14.096 11.5869 15.4297 11.0382L16.4848 6.21846C16.6536 5.45034 17.2445 4.8426 18.021 4.71598C19.1859 4.5134 20.3845 4.41211 21.6084 4.41211C22.8323 4.41211 24.0309 4.5134 25.1958 4.70754C25.9724 4.83415 26.5632 5.4419 26.732 6.21002L27.7872 11.0298C29.1208 11.5784 30.3701 12.3044 31.5012 13.1738L36.2027 11.6797C36.9455 11.4434 37.7727 11.6544 38.2708 12.2537C38.9545 13.0809 39.5791 13.9588 40.1362 14.8873L40.5329 15.571C41.0478 16.4995 41.4952 17.4618 41.8666 18.4662L41.8581 18.4747ZM21.6084 32.7736C23.3993 32.7736 25.1169 32.0621 26.3833 30.7957C27.6497 29.5293 28.3611 27.8118 28.3611 26.0208C28.3611 24.2299 27.6497 22.5123 26.3833 21.2459C25.1169 19.9796 23.3993 19.2681 21.6084 19.2681C19.8175 19.2681 18.0999 19.9796 16.8335 21.2459C15.5671 22.5123 14.8557 24.2299 14.8557 26.0208C14.8557 27.8118 15.5671 29.5293 16.8335 30.7957C18.0999 32.0621 19.8175 32.7736 21.6084 32.7736Z" fill="white"/>
</g>
<defs>
<clipPath id="clip0_2168_14535">
<rect width="43.2175" height="43.2174" fill="white" transform="translate(0 4.41211)"/>
</clipPath>
</defs>
</svg>
