<svg class="sales-card__img" width="61" height="52" viewBox="0 0 61 52" fill="none" xmlns="http://www.w3.org/2000/svg">
<path d="M11.6081 16.0183C14.9452 12.344 17.6149 8.02822 21.3915 4.8309M10.9971 20.3683C16.9339 14.5025 21.5444 8.02767 23.2876 3.27277M11.1374 22.1933C15.0671 15.1749 19.3988 11.0776 26.294 4.58299M11.0698 23.3983C16.5453 16.4061 21.9823 11.1802 27.1986 3.80476M9.85645 26.3637C18.6848 16.1813 26.069 7.7466 31.0928 2.44386M10.7317 26.9893C16.1181 20.1183 21.7999 13.1939 31.7713 1.81645M11.5192 28.4973C17.8285 20.9832 24.384 10.8619 32.258 1M11.8788 30.0583C21.2304 19.608 29.7256 8.39553 33.936 1.15181M12.0178 32.5438C16.192 24.1112 22.6493 17.5572 35.323 1.6482M12.6843 32.909C19.8232 22.5995 29.4007 12.5168 38.6949 1.65599M13.2592 34.96C21.7489 22.752 32.647 10.9075 38.1229 2.14296M13.611 36.1123C20.7203 25.6932 27.3378 17.2727 40.9777 1.51652M13.6279 37.2138C21.4605 25.403 30.2895 16.4085 40.2845 1.66893M13.0116 37.6565C22.7873 26.4482 30.4452 16.7815 41.6636 3.85611M14.9974 38.3464C20.6747 31.8386 25.9517 25.4527 44.4338 3.24723M15.7692 39.2732C25.3085 28.2615 37.1551 14.5316 46.0607 4.0409M17.0105 40.6505C27.4814 26.6389 36.8506 14.9879 46.5307 5.43612M16.2002 42.6011C27.72 27.8462 40.7362 12.2343 46.3399 4.11518M18.1844 41.5034C25.0604 34.0422 32.4568 25.2831 47.7513 4.82672M18.9422 43.1377C30.1063 30.8098 39.4157 18.6825 48.9473 6.52856M18.8534 43.0669C29.2708 33.9794 38.8509 22.6084 49.5639 7.52058M20.0508 43.971C32.1778 31.5517 42.4429 18.4921 51.1034 7.19713M21.2838 44.759C33.979 31.8495 45.1475 16.087 51.9144 8.19715M20.9749 46.0245C27.987 36.5742 37.1132 27.9243 52.351 8.22591M22.7751 46.0345C30.7788 36.8614 38.1626 28.423 53.3624 8.98366M24.7275 47.2555C33.8822 36.8113 44.0201 23.2039 54.6008 12.0125M24.868 49.2359C33.6463 38.3257 40.5334 27.7052 54.7912 11.2577M26.3576 48.1935C32.5018 39.1871 41.9465 30.9562 55.1911 13.261M26.6379 49.4816C35.5431 36.7968 45.338 27.131 55.0953 13.0431M28.6509 49.1937C38.524 37.4359 49.8563 23.5737 56.8644 14.9361M29.9755 48.8549C34.6663 42.681 42.2762 35.7416 57.0516 16.9222M30.3363 49.7766C38.8747 39.6224 49.2271 26.9521 57.8069 16.7128M32.613 50.2956C41.7273 37.642 49.6508 26.8436 57.3206 19.8749M33.2722 50.9698C41.4103 41.8577 48.4764 33.471 57.5603 20.299M34.346 51.1434C41.2611 43.4904 45.6196 35.9584 59.1693 22.1853M36.6569 49.9439C45.1769 41.2709 52.4868 33.3175 58.2932 21.6984M37.7132 50.0866C43.5791 40.9323 50.0187 32.7558 58.0755 25.3866M39.4216 49.1699C47.6889 40.7416 53.6976 32.2033 58.3328 26.2821M42.1597 49.3341C47.5924 40.9157 53.7337 33.8213 59.9998 29.068M43.9864 49.0301C48.6517 42.3674 55.3668 35.4764 59.3382 29.5287M46.1963 46.5186C50.8734 41.6356 53.7468 37.7739 58.3256 34.455M48.3395 45.2515C51.2023 42.7035 54.4662 38.3 57.5638 35.9356M17.3779 8.51489V8.51489Z" stroke="#454545" stroke-opacity="0.5" stroke-width="0.209719" stroke-linecap="round"/>
<g clip-path="url(#clip0_2172_3500)">
<path d="M41.8586 18.4747C42.1287 19.209 41.9008 20.0278 41.3184 20.5511L37.6635 23.8768C37.7564 24.5774 37.807 25.2949 37.807 26.0208C37.807 26.7467 37.7564 27.4642 37.6635 28.1648L41.3184 31.4905C41.9008 32.0139 42.1287 32.8326 41.8586 33.567C41.4872 34.5715 41.0399 35.5337 40.525 36.4622L40.1283 37.1459C39.5712 38.0744 38.9465 38.9523 38.2628 39.7795C37.7648 40.3873 36.9376 40.5898 36.1948 40.3535L31.4932 38.8595C30.3621 39.7289 29.1129 40.4548 27.7792 41.0034L26.7241 45.8232C26.5553 46.5913 25.9644 47.1991 25.1878 47.3257C24.023 47.5198 22.8244 47.6211 21.6005 47.6211C20.3765 47.6211 19.1779 47.5198 18.0131 47.3257C17.2365 47.1991 16.6456 46.5913 16.4768 45.8232L15.4217 41.0034C14.088 40.4548 12.8388 39.7289 11.7077 38.8595L7.01456 40.3619C6.27176 40.5983 5.44455 40.3873 4.94654 39.788C4.26283 38.9607 3.6382 38.0829 3.0811 37.1544L2.68438 36.4707C2.16948 35.5422 1.72211 34.5799 1.35071 33.5754C1.0806 32.8411 1.30851 32.0223 1.89093 31.499L5.54584 28.1733C5.45299 27.4642 5.40235 26.7467 5.40235 26.0208C5.40235 25.2949 5.45299 24.5774 5.54584 23.8768L1.89093 20.5511C1.30851 20.0278 1.0806 19.209 1.35071 18.4747C1.72211 17.4702 2.16948 16.5079 2.68438 15.5794L3.0811 14.8957C3.6382 13.9672 4.26283 13.0894 4.94654 12.2622C5.44455 11.6544 6.27176 11.4518 7.01456 11.6882L11.7161 13.1822C12.8472 12.3128 14.0965 11.5869 15.4301 11.0382L16.4853 6.21846C16.6541 5.45034 17.2449 4.8426 18.0215 4.71598C19.1864 4.5134 20.385 4.41211 21.6089 4.41211C22.8328 4.41211 24.0314 4.5134 25.1963 4.70754C25.9728 4.83415 26.5637 5.4419 26.7325 6.21002L27.7876 11.0298C29.1213 11.5784 30.3706 12.3044 31.5016 13.1738L36.2032 11.6797C36.946 11.4434 37.7732 11.6544 38.2713 12.2537C38.955 13.0809 39.5796 13.9588 40.1367 14.8873L40.5334 15.571C41.0483 16.4995 41.4957 17.4618 41.8671 18.4662L41.8586 18.4747ZM21.6089 32.7736C23.3998 32.7736 25.1174 32.0621 26.3838 30.7957C27.6502 29.5293 28.3616 27.8118 28.3616 26.0208C28.3616 24.2299 27.6502 22.5123 26.3838 21.2459C25.1174 19.9796 23.3998 19.2681 21.6089 19.2681C19.818 19.2681 18.1004 19.9796 16.834 21.2459C15.5676 22.5123 14.8562 24.2299 14.8562 26.0208C14.8562 27.8118 15.5676 29.5293 16.834 30.7957C18.1004 32.0621 19.818 32.7736 21.6089 32.7736Z" fill="#D1CB28"/>
</g>
<defs>
<clipPath id="clip0_2172_3500">
<rect width="43.2175" height="43.2174" fill="white" transform="translate(0 4.41211)"/>
</clipPath>
</defs>
</svg>
