<svg width="61" height="52" viewBox="0 0 61 52" fill="none" xmlns="http://www.w3.org/2000/svg">
<path d="M11.6056 15.823C14.9428 12.1487 17.6125 7.83291 21.3891 4.63559M10.9946 20.173C16.9315 14.3071 21.542 7.83236 23.2852 3.07746M11.1349 21.9979C15.0646 14.9796 19.3964 10.8823 26.2916 4.38768M11.0673 23.203C16.5429 16.2108 21.9798 10.9849 27.1962 3.60945M9.854 26.1683C18.6823 15.986 26.0665 7.55129 31.0903 2.24855M10.7293 26.794C16.1156 19.923 21.7975 12.9986 31.7688 1.62114M11.5167 28.302C17.8261 20.7879 24.3816 10.6665 32.2555 0.804688M11.8764 29.863C21.2279 19.4127 29.7231 8.20022 33.9335 0.9565M12.0153 32.3485C16.1896 23.9159 22.6469 17.3619 35.3206 1.45288M12.6819 32.7137C19.8208 22.4042 29.3983 12.3215 38.6925 1.46067M13.2568 34.7647C21.7465 22.5566 32.6445 10.7121 38.1205 1.94765M13.6086 35.917C20.7179 25.4978 27.3354 17.0774 40.9753 1.32121M13.6255 37.0185C21.4581 25.2077 30.287 16.2132 40.2821 1.47362M13.0092 37.4612C22.7848 26.2529 30.4428 16.5862 41.6611 3.6608M14.9949 38.1511C20.6723 31.6433 25.9492 25.2573 44.4314 3.05192M15.7668 39.0779C25.3061 28.0662 37.1527 14.3363 46.0583 3.84559M17.0081 40.4552C27.479 26.4436 36.8482 14.7926 46.5283 5.24081M16.1978 42.4058C27.7176 27.6509 40.7338 12.039 46.3374 3.91987M18.182 41.3081C25.0579 33.8469 32.4544 25.0878 47.7488 4.63141M18.9398 42.9424C30.1039 30.6145 39.4132 18.4872 48.9448 6.33325M18.8509 42.8716C29.2684 33.7841 38.8485 22.4131 49.5615 7.32527M20.0484 43.7757C32.1754 31.3563 42.4405 18.2968 51.101 7.00182M21.2814 44.5637C33.9766 31.6542 45.1451 15.8917 51.9119 8.00184M20.9725 45.8292C27.9846 36.3789 37.1107 27.729 52.3486 8.0306M22.7726 45.8392C30.7763 36.6661 38.1601 28.2277 53.36 8.78835M24.725 47.0602C33.8798 36.6159 44.0177 23.0086 54.5984 11.8172M24.8656 49.0406C33.6438 38.1304 40.5309 27.5099 54.7888 11.0624M26.3552 47.9982C32.4994 38.9918 41.944 30.7609 55.1887 13.0657M26.6355 49.2863C35.5406 36.6015 45.3356 26.9357 55.0929 12.8478M28.6485 48.9984C38.5216 37.2406 49.8539 23.3784 56.862 14.7408M29.9731 48.6596C34.6638 42.4857 42.2738 35.5463 57.0492 16.7269M30.3338 49.5813C38.8722 39.427 49.2246 26.7568 57.8044 16.5175M32.6105 50.1003C41.7248 37.4467 49.6483 26.6483 57.3181 19.6796M33.2697 50.7745C41.4078 41.6624 48.474 33.2757 57.5579 20.1037M34.3436 50.9481C41.2587 43.2951 45.6172 35.7631 59.1669 21.99M36.6545 49.7486C45.1745 41.0756 52.4844 33.1222 58.2908 21.5031M37.7107 49.8913C43.5767 40.737 50.0163 32.5605 58.073 25.1913M39.4192 48.9746C47.6865 40.5463 53.6951 32.008 58.3303 26.0868M42.1572 49.1388C47.59 40.7204 53.7312 33.626 59.9974 28.8727M43.9839 48.8348C48.6492 42.1721 55.3643 35.2811 59.3358 29.3334M46.1939 46.3233C50.871 41.4403 53.7444 37.5786 58.3232 34.2597M48.3371 45.0561C51.1999 42.5082 54.4638 38.1047 57.5613 35.7403M17.3754 8.31958V8.31958Z" stroke="#454545" stroke-opacity="0.5" stroke-width="0.250191" stroke-linecap="round"/>
<g clip-path="url(#clip0_2168_14300)">
<path d="M6.48262 23.2496C8.86633 23.2496 10.8044 21.0532 10.8044 18.3516C10.8044 15.6501 8.86633 13.4536 6.48262 13.4536C4.09891 13.4536 2.16087 15.6501 2.16087 18.3516C2.16087 21.0532 4.09891 23.2496 6.48262 23.2496ZM36.7348 23.2496C39.1185 23.2496 41.0566 21.0532 41.0566 18.3516C41.0566 15.6501 39.1185 13.4536 36.7348 13.4536C34.3511 13.4536 32.4131 15.6501 32.4131 18.3516C32.4131 21.0532 34.3511 23.2496 36.7348 23.2496ZM38.8957 25.6986H34.574C33.3855 25.6986 32.3118 26.242 31.5285 27.1221C34.2498 28.8134 36.1811 31.867 36.5998 35.4945H41.0566C42.2518 35.4945 43.2175 34.4001 43.2175 33.0456V30.5966C43.2175 27.895 41.2794 25.6986 38.8957 25.6986ZM21.6087 25.6986C25.7887 25.6986 29.1718 21.8644 29.1718 17.1271C29.1718 12.3899 25.7887 8.55566 21.6087 8.55566C17.4288 8.55566 14.0457 12.3899 14.0457 17.1271C14.0457 21.8644 17.4288 25.6986 21.6087 25.6986ZM26.7948 28.1476H26.2343C24.8298 28.9129 23.2699 29.3721 21.6087 29.3721C19.9476 29.3721 18.3944 28.9129 16.9831 28.1476H16.4226C12.1279 28.1476 8.64349 32.0966 8.64349 36.9639V39.168C8.64349 41.1961 10.0953 42.8415 11.8848 42.8415H31.3327C33.1221 42.8415 34.574 41.1961 34.574 39.168V36.9639C34.574 32.0966 31.0896 28.1476 26.7948 28.1476ZM11.689 27.1221C10.9057 26.242 9.83197 25.6986 8.64349 25.6986H4.32175C1.93803 25.6986 0 27.895 0 30.5966V33.0456C0 34.4001 0.96564 35.4945 2.16087 35.4945H6.61092C7.03634 31.867 8.96762 28.8134 11.689 27.1221Z" fill="#D1CB28"/>
</g>
<defs>
<clipPath id="clip0_2168_14300">
<rect width="43.2175" height="43.2174" fill="white" transform="translate(0 4.2168)"/>
</clipPath>
</defs>
</svg>
