<svg width="290" height="92" viewBox="0 0 290 92" fill="none" xmlns="http://www.w3.org/2000/svg">
<path d="M258.119 16.8996C243.874 16.8996 229.349 12.5067 215.768 9.69939C209.074 8.3156 202.508 7.70693 195.639 6.99933C191.016 6.52302 184.633 5.67431 180.079 6.39931C167.377 8.42156 154.063 4.46078 141.439 5.96596C133.918 6.86274 125.449 6.0993 117.837 6.0993C110 6.0993 102.743 7.25883 94.9958 7.76601C81.9792 8.61819 68.5206 8.3288 55.6425 9.9994C46.7104 11.1581 37.0824 12.6673 30.6125 17.1996C26.7461 19.908 21.164 20.6278 17.4313 23.5331C13.2597 26.78 10.2001 30.6739 5.96316 33.9C0.443974 38.1025 2.28742 44.2 1.93299 49.7997C0.313408 53.6896 1.0458 55.9243 2.28742 59.5C3.68943 63.5376 3.89754 65.0737 7.1528 68.3676C10.187 71.4377 12.1247 74.6953 16.7651 76.9011C21.421 79.1143 27.3571 80.8728 32.849 81.8346C52.0365 85.1949 72.2917 85.1266 91.9028 85.9347C113.438 86.8221 134.614 89.5015 156.239 89.5015C163.583 89.5015 170.927 89.5015 178.271 89.5015C182.943 89.5015 187.495 90.1015 192.166 90.1015C196.502 90.1015 200.677 89.5015 205.014 89.5015C220.636 89.5015 236.021 87.7014 251.6 87.7014C265.101 87.7014 282.608 81.5954 284.862 71.7677C286.233 65.7927 286.385 59.0965 286.385 53.0338C286.385 47.9619 284.78 42.4566 282.102 37.7668C275.557 26.3041 262.768 15.4519 245.795 11.2328C224.595 5.96315 200.458 6.38121 178.461 8.83271C170.251 9.74767 162.945 12.0995 154.668 12.0995C141.609 12.0995 129.111 10.525 115.934 11.6328C105.597 12.5017 94.5752 12.4784 84.4318 13.8995C72.1982 15.6135 58.9125 15.3277 47.4102 19.2996M6.29626 67.9009C12.1016 75.5824 22.6126 84.1046 34.5621 86.7681C46.2973 89.3837 60.0771 88.6554 72.1548 89.5015C84.0461 90.3345 96.6744 91.8425 108.605 90.4015C116.053 89.5019 123.801 89.8184 131.351 89.0348C139.537 88.1853 148.574 87.7014 156.857 87.7014C170.765 87.7014 184.834 87.1014 198.828 87.1014C210.745 87.1014 222.571 87.7014 234.564 87.7014C245.952 87.7014 257.125 85.6509 268.35 84.668C275.199 84.0683 282.105 80.2286 284.482 75.5678C286.448 71.7102 285.804 68.2676 286.433 64.3008C287.275 58.9909 289.477 53.3193 288.907 47.9337C287.777 37.2444 280.32 28.0049 268.398 21.233C254.646 13.4221 237.651 4.59021 219.765 2.63255C191.978 -0.408941 161.633 1.11699 134.016 4.59926C120.041 6.3614 106.03 9.06658 91.9504 10.2994C81.5556 11.2096 71.0747 12.2214 60.6866 13.2995C53.1397 14.0827 42.2283 14.9538 35.609 17.6329" stroke="url(#paint0_linear_2168_14148)" stroke-width="1.1223" stroke-linecap="round"/>
<defs>
<linearGradient id="paint0_linear_2168_14148" x1="30.592" y1="12.88" x2="95.9205" y2="121.296" gradientUnits="userSpaceOnUse">
<stop stop-color="#3CA0D2"/>
<stop offset="1" stop-color="#48DCA6"/>
</linearGradient>
</defs>
</svg>
