<svg width="49" height="50" viewBox="0 0 49 50" fill="none" xmlns="http://www.w3.org/2000/svg">
<path d="M41.5898 49.082C37.482 46.1351 31.9665 45.2512 26.9878 44.1578C24.4627 43.5911 21.8918 43.1939 19.3764 42.7434C16.8336 42.3349 14.3251 41.7756 11.868 41.0692C13.9523 42.5161 16.4755 43.4161 18.9556 44.1384C21.4356 44.8607 23.9827 45.4098 26.4983 45.9575C31.5984 47.042 36.6667 47.4352 41.5898 49.082Z" fill="#363636"/>
<path d="M9.99491 32.352C17.1592 28.2053 23.409 22.9606 30.0158 18.2214C36.6705 13.373 44.0993 8.50079 48.6074 1.89266L48.1894 2.24132C48.0261 2.42163 47.8869 2.61791 47.7747 2.82628C47.9616 2.67188 48.0887 2.45483 48.2889 2.34728L48.1782 2.25475C45.252 4.98105 42.0918 7.50484 38.7257 9.80374C35.3894 12.1488 31.9788 14.4076 28.6663 16.7999C22.0638 21.6551 16.1422 27.0568 9.99491 32.352Z" fill="#363636"/>
<path d="M1.10415 26.5C3.51277 22.7091 4.28249 18.2953 5.07343 14.0768C5.86437 9.85834 6.52516 5.4169 5.48331 1.16027C4.92775 4.80493 4.11758 8.59195 3.32291 12.1851C2.3133 16.9595 2.04081 21.7133 1.1094 26.5002L1.10415 26.5Z" fill="#363636"/>
</svg>
