<svg width="157" height="156" viewBox="0 0 157 156" fill="none" xmlns="http://www.w3.org/2000/svg">
<path d="M17.7663 34.4499C20.7179 29.7538 27.8098 25.2807 31.9077 18.0592M13.6331 41.965C18.7052 34.9603 23.1218 32.3179 34.5457 14.4734M6.95015 45.9807C17.3632 39.1839 28.6702 25.6834 40.6727 13.4754M7.43073 53.181C19.1099 39.6636 27.828 28.9737 41.7893 12.8915M7.33536 52.3641C17.7812 41.7535 29.0658 30.8718 45.2852 8.36939M5.41141 55.3799C25.6598 36.7905 40.3205 17.5415 49.1538 9.09853M4.22203 62.8565C21.0649 40.6292 37.7107 24.7045 54.2113 7.74702M5.06315 61.0273C17.2514 44.6181 32.4666 31.1796 54.0142 8.37849M4.13935 67.5987C19.4197 48.8498 40.2385 29.3899 58.8506 4.94327M3.65062 68.5548C17.0388 49.8662 32.7001 32.6034 59.0664 3.47022M4.21758 68.3895C19.687 51.8782 34.538 41.0528 63.8308 7.32213M6.4141 70.4002C18.4399 53.7756 30.3867 39.5175 61.537 3.68537M6.57537 75.9723C26.0348 45.9568 51.3962 21.5401 67.6584 4.82141M0.999023 74.9963C18.4177 59.6877 33.3853 45.7847 67.2274 2.49269M3.12421 77.9528C17.5952 62.3136 33.2001 48.3315 70.484 4.87517M3.92014 80.2972C31.0772 51.3622 54.0206 27.2063 69.8969 1.00098M4.83172 84.2333C19.3891 61.5961 39.2454 45.0433 71.0644 2.35887M4.66939 83.4017C29.1249 53.5398 56.1944 27.9676 74.6972 5.20887M4.39135 88.8563C24.5144 66.233 42.906 42.478 76.4352 3.38545M3.09171 89.0804C19.3246 69.2705 37.9132 53.9965 77.6565 1.64272M4.58865 91.0276C18.9463 71.8861 40.4196 48.7445 82.4054 4.51802M6.57422 93.1762C31.2605 59.5761 63.3894 25.705 79.8616 4.90348M4.37565 94.3824C26.8406 73.3206 48.4018 46.7866 84.1557 5.24653M3.8509 94.6284C24.3305 76.7616 38.8181 57.7903 87.6123 2.54217M5.06548 95.0585C31.2395 67.8553 57.9549 35.9801 88.9048 4.04448M8.9344 97.3052C23.7405 74.8818 45.0277 55.4275 86.7616 3.33517M7.36555 96.7931C32.7804 75.8737 55.9441 48.6324 88.6616 4.44717M7.53275 98.3959C27.7166 76.1399 46.0025 53.7057 90.8339 6.22415M10.1896 104.637C26.2647 79.7703 45.0237 59.2432 96.1988 2.90126M11.2436 102.131C37.3469 70.8385 63.3679 38.9528 93.8305 7.34052M10.6398 104.019C26.3079 82.3653 48.9578 59.7771 97.9907 6.48547M7.37322 106.99C44.6522 72.8417 74.6241 31.3958 98.9623 3.58385M12.6771 108.233C34.6353 82.0072 61.3583 53.1003 98.7121 4.642M10.1281 110.863C39.6769 79.9144 63.7174 46.9238 98.6735 4.16746M12.9047 112.141C34.2151 85.9272 57.4295 59.4312 101.95 5.35697M13.1098 114.077C39.6049 78.5768 62.7538 49.6322 101.526 7.83491M11.4416 114.262C47.0714 75.5434 85.1598 33.2703 105.614 9.98915M12.293 113.419C33.5407 93.6795 54.9229 69.8043 105.356 7.43113M12.2356 118.044C38.9313 88.374 60.7352 62.2679 106.184 9.61663M12.7575 115.29C41.6478 82.2501 67.7395 55.4233 109.201 7.11019M16.0965 115.862C45.0655 84.8257 74.0275 48.9873 108.51 7.79781M17.6255 118.124C41.5259 89.8758 69.651 55.2365 111.223 11.784M17.2553 121.082C41.875 90.1772 68.5265 62.7611 114.015 12.3911M16.3158 122.978C52.6778 81.2311 86.8255 43.2672 115.786 10.3251M17.7715 121.706C45.2767 90.0274 75.2635 60.2753 115.295 12.839M18.7111 122.721C45.8848 97.3187 70.1432 68.719 116.81 13.2341M21.1638 126.63C51.1943 93.0377 78.9114 56.8567 116.37 12.0867M23.757 126.047C60.9428 82.7969 101.49 35.3007 116.161 16.0575M21.9759 128.383C57.9 89.2847 89.3752 47.8662 118.333 12.5363M23.6196 129.546C63.6972 85.1597 97.69 41.5124 121.859 15.8591M22.0217 130.719C44.1687 102.099 64.2044 81.9151 121.578 17.36M23.5479 128.427C60.5943 90.1504 97.39 47.2739 122.931 15.891M26.4843 131.89C56.1571 93.6867 91.3559 55.6775 125.437 16.4837M27.055 132.061C62.2566 91.0313 97.3246 50.9419 126.537 19.5611M25.5714 133.056C60.4491 94.7646 96.4189 54.8639 123.747 18.7413M26.6287 135.734C52.7865 102.071 79.5581 73.5834 127.827 22.0068M30.5377 132.378C68.8164 92.7279 108.954 46.1012 128.252 22.4766M29.2995 135.158C61.8677 95.9897 97.689 55.4262 127.074 20.6572M30.3897 136.289C70.8291 91.678 111.631 48.0939 127.991 22.8804M32.8819 139.444C57.8276 106.293 84.5971 73.44 133.046 23.6332M32.4092 139.696C62.7365 108.214 87.741 76.169 130.178 26.8642M34.9373 136.437C74.0975 97.3126 106.284 54.6217 132.775 27.4284M35.1479 140.386C54.3024 119.664 78.144 95.7167 133.687 25.5822M38.9407 138.928C64.6594 106.405 94.9033 68.3209 134.303 27.5218M36.9375 139.206C72.9523 102.998 104.95 68.9783 134.297 29.3113M41.8836 139.312C71.7829 104.931 107.214 63.0828 136.372 29.0761M40.7174 141.514C77.0752 100.052 115.486 57.8199 137.031 31.4693M40.9263 142.029C76.1273 99.7938 115.923 53.8214 138.49 31.5135M44.5298 143.159C63.1724 114.986 89.5258 90.065 140.353 34.4506M44.9033 145.425C72.1146 115.232 100.976 81.9728 142.268 31.8283M46.7519 146.161C83.7018 104.582 117.846 63.1533 138.865 33.3063M45.5058 146.924C67.0417 123.125 89.4513 96.8135 141.059 39.1091M47.7467 146.193C80.0043 107.805 113.22 68.2147 140.125 38.2093M50.3769 148.647C71.3405 115.928 96.9964 87.7507 141.909 41.3504M50.8483 147.593C79.9185 116.498 110.243 83.1544 144.179 40.8993M50.6019 145.471C76.0827 117.362 100.159 90.1943 144.169 40.795M55.2282 149.056C75.6767 122.706 97.1108 99.463 146.383 43.3497M53.198 148.135C76.0373 125.642 98.4237 100.203 147.668 42.0699M57.0298 146.711C83.0686 115.587 114.81 79.2297 144.168 45.1895M58.8571 147.4C93.6147 111.332 123.722 71.3367 147.507 45.4108M59.6598 148.806C92.5887 108.515 127.832 69.4562 147.845 46.6396M59.5093 152.726C94.5204 112.183 129.462 72.7146 146.929 47.0924M60.2824 152.922C80.9874 126.859 104.349 98.9423 147.758 51.9672M60.539 149.956C99.4678 112.103 133.342 71.9531 151.801 51.9503M65.4623 153.708C85.1566 128.347 100.779 108.368 150.971 55.6979M67.756 151.241C88.4053 121.902 113.862 91.6323 150.387 55.0314M69.4721 154.865C91.615 124.654 111.532 99.9916 151.388 54.217M71.2841 150.757C92.4901 122.362 114.914 96.7118 153.52 58.8058M72.4699 149.889C98.7968 126.542 118.625 96.0696 153.638 57.1173M70.0805 151.454C90.7675 132.17 113.163 110.644 151.353 62.2359M72.3143 150.578C98.493 129.51 118.61 102.875 150.171 63.0585M74.7904 150.561C92.2956 133.713 104.932 118.242 150.794 62.9748M75.6931 153.436C91.8865 134.026 109.491 109.702 151.947 68.7092M81.1903 151.161C103.017 127.56 126.123 97.5048 153.378 66.2331M80.5279 154.102C101.296 120.881 129.441 93.516 154.817 70.569M82.8531 153.707C105.233 129.238 120.312 108.225 151.877 71.2965M84.8903 153.264C102.408 131.432 118.887 111.827 151.555 71.6064M88.2272 152.157C111.23 124.441 138.937 93.078 151.308 74.7703M86.1963 150.176C106.319 131.272 119.439 117.297 152.789 79.4551M89.5868 150.046C106.552 133.256 119.637 119.625 155.999 80.3825M92.5565 149.876C112.172 129.021 128.891 109.74 154.683 81.0998M94.9471 150.477C117.27 126.37 141.95 101.476 153.965 82.8917M98.8479 148.754C118.368 128.554 139.819 100.589 152.705 82.8163M97.4278 152.368C116.371 127.621 136.526 103.914 155.516 85.0253M101.043 148.67C115.919 136.001 126.158 121.137 152.955 92.211M101.981 149.8C124.279 130.25 139.089 109.991 152.693 91.009M104.484 146.226C115.826 136.777 123.976 125.883 152.798 95.3251M106.145 147.677C120.554 136.413 129.628 124.628 151.572 100.391M112.942 148.271C126.194 129.402 140.464 111.996 150.943 99.5798M115.448 145.497C125.642 126.968 137.925 115.116 150.968 106.334M118.838 136.914C129.691 129.822 135.42 118.919 151.076 109.433M124.212 136.797C135.846 128.837 139.888 119.391 148.009 112.009M25.3242 24.1945V24.1945Z" stroke="url(#paint0_linear_2168_14160)" stroke-width="0.332333" stroke-linecap="round"/>
<defs>
<linearGradient id="paint0_linear_2168_14160" x1="0.999023" y1="86.6752" x2="156.006" y2="87.0159" gradientUnits="userSpaceOnUse">
<stop stop-color="#D1CB28"/>
<stop offset="1" stop-color="#48DCA6"/>
</linearGradient>
</defs>
</svg>
