<svg width="157" height="156" viewBox="0 0 157 156" fill="none" xmlns="http://www.w3.org/2000/svg">
<path d="M17.7673 34.4499C20.7189 29.7538 27.8108 25.2807 31.9087 18.0592M13.6341 41.965C18.7062 34.9603 23.1228 32.3179 34.5467 14.4734M6.95113 45.9807C17.3642 39.1839 28.6711 25.6834 40.6737 13.4754M7.4317 53.181C19.1109 39.6636 27.829 28.9737 41.7903 12.8915M7.33634 52.3641C17.7822 41.7535 29.0668 30.8718 45.2862 8.36939M5.41238 55.3799C25.6607 36.7905 40.3215 17.5415 49.1548 9.09853M4.22301 62.8565C21.0659 40.6292 37.7117 24.7045 54.2122 7.74702M5.06413 61.0273C17.2524 44.6181 32.4676 31.1796 54.0152 8.37849M4.14033 67.5987C19.4206 48.8498 40.2395 29.3899 58.8516 4.94327M3.6516 68.5548C17.0397 49.8662 32.7011 32.6034 59.0674 3.47022M4.21856 68.3895C19.688 51.8782 34.539 41.0528 63.8318 7.32213M6.41508 70.4002C18.4409 53.7756 30.3876 39.5175 61.538 3.68537M6.57635 75.9723C26.0358 45.9568 51.3972 21.5401 67.6594 4.82141M1 74.9963C18.4187 59.6877 33.3863 45.7847 67.2283 2.49269M3.12519 77.9528C17.5962 62.3136 33.2011 48.3315 70.485 4.87517M3.92112 80.2972C31.0782 51.3622 54.0216 27.2063 69.8979 1.00098M4.8327 84.2333C19.3901 61.5961 39.2464 45.0433 71.0654 2.35887M4.67036 83.4017C29.1259 53.5398 56.1954 27.9676 74.6982 5.20887M4.39233 88.8563C24.5154 66.233 42.907 42.478 76.4362 3.38545M3.09269 89.0804C19.3256 69.2705 37.9141 53.9965 77.6575 1.64272M4.58962 91.0276C18.9473 71.8861 40.4205 48.7445 82.4064 4.51802M6.5752 93.1762C31.2615 59.5761 63.3904 25.705 79.8626 4.90348M4.37662 94.3824C26.8415 73.3206 48.4028 46.7866 84.1566 5.24653M3.85188 94.6284C24.3315 76.7616 38.819 57.7903 87.6133 2.54217M5.06646 95.0585C31.2405 67.8553 57.9559 35.9801 88.9058 4.04448M8.93537 97.3052C23.7414 74.8818 45.0287 55.4275 86.7626 3.33517M7.36652 96.7931C32.7813 75.8737 55.9451 48.6324 88.6626 4.44717M7.53372 98.3959C27.7175 76.1399 46.0035 53.7057 90.8348 6.22415M10.1906 104.637C26.2657 79.7703 45.0246 59.2432 96.1997 2.90126M11.2445 102.131C37.3479 70.8385 63.3689 38.9528 93.8315 7.34052M10.6407 104.019C26.3089 82.3653 48.9588 59.7771 97.9916 6.48547M7.3742 106.99C44.6532 72.8417 74.6251 31.3958 98.9633 3.58385M12.6781 108.233C34.6362 82.0072 61.3592 53.1003 98.7131 4.642M10.129 110.863C39.6779 79.9144 63.7184 46.9238 98.6745 4.16746M12.9056 112.141C34.216 85.9272 57.4304 59.4312 101.951 5.35697M13.1107 114.077C39.6059 78.5768 62.7548 49.6322 101.527 7.83491M11.4426 114.262C47.0724 75.5434 85.1608 33.2703 105.615 9.98915M12.294 113.419C33.5417 93.6795 54.9239 69.8043 105.357 7.43113M12.2366 118.044C38.9323 88.374 60.7362 62.2679 106.185 9.61663M12.7584 115.29C41.6488 82.2501 67.7404 55.4233 109.201 7.11019M16.0975 115.862C45.0665 84.8257 74.0285 48.9873 108.511 7.79781M17.6265 118.124C41.5269 89.8758 69.652 55.2365 111.224 11.784M17.2563 121.082C41.876 90.1772 68.5275 62.7611 114.016 12.3911M16.3168 122.978C52.6787 81.2311 86.8265 43.2672 115.787 10.3251M17.7725 121.706C45.2777 90.0274 75.2645 60.2753 115.296 12.839M18.7121 122.721C45.8858 97.3187 70.1442 68.719 116.811 13.2341M21.1647 126.63C51.1952 93.0377 78.9124 56.8567 116.371 12.0867M23.7579 126.047C60.9438 82.7969 101.491 35.3007 116.162 16.0575M21.9769 128.383C57.901 89.2847 89.3761 47.8662 118.334 12.5363M23.6206 129.546C63.6982 85.1597 97.691 41.5124 121.86 15.8591M22.0226 130.719C44.1696 102.099 64.2054 81.9151 121.579 17.36M23.5489 128.427C60.5953 90.1504 97.391 47.2739 122.932 15.891M26.4853 131.89C56.1581 93.6867 91.3569 55.6775 125.438 16.4837M27.0559 132.061C62.2575 91.0313 97.3256 50.9419 126.538 19.5611M25.5724 133.056C60.4501 94.7646 96.4199 54.8639 123.748 18.7413M26.6297 135.734C52.7875 102.071 79.5591 73.5834 127.828 22.0068M30.5387 132.378C68.8174 92.7279 108.955 46.1012 128.253 22.4766M29.3005 135.158C61.8686 95.9897 97.69 55.4262 127.075 20.6572M30.3906 136.289C70.8301 91.678 111.632 48.0939 127.992 22.8804M32.8829 139.444C57.8285 106.293 84.598 73.44 133.047 23.6332M32.4102 139.696C62.7375 108.214 87.7419 76.169 130.179 26.8642M34.9383 136.437C74.0985 97.3126 106.285 54.6217 132.776 27.4284M35.1489 140.386C54.3034 119.664 78.145 95.7167 133.688 25.5822M38.9417 138.928C64.6604 106.405 94.9043 68.3209 134.304 27.5218M36.9385 139.206C72.9533 102.998 104.951 68.9783 134.298 29.3113M41.8845 139.312C71.7839 104.931 107.215 63.0828 136.373 29.0761M40.7184 141.514C77.0762 100.052 115.487 57.8199 137.032 31.4693M40.9273 142.029C76.1282 99.7938 115.924 53.8214 138.491 31.5135M44.5308 143.159C63.1734 114.986 89.5268 90.065 140.354 34.4506M44.9043 145.425C72.1155 115.232 100.977 81.9728 142.269 31.8283M46.7528 146.161C83.7028 104.582 117.847 63.1533 138.866 33.3063M45.5068 146.924C67.0427 123.125 89.4523 96.8135 141.06 39.1091M47.7476 146.193C80.0052 107.805 113.221 68.2147 140.126 38.2093M50.3778 148.647C71.3415 115.928 96.9974 87.7507 141.91 41.3504M50.8492 147.593C79.9195 116.498 110.244 83.1544 144.18 40.8993M50.6029 145.471C76.0837 117.362 100.16 90.1943 144.17 40.795M55.2292 149.056C75.6777 122.706 97.1118 99.463 146.384 43.3497M53.1989 148.135C76.0383 125.642 98.4247 100.203 147.669 42.0699M57.0308 146.711C83.0696 115.587 114.811 79.2297 144.169 45.1895M58.8581 147.4C93.6156 111.332 123.723 71.3367 147.508 45.4108M59.6608 148.806C92.5896 108.515 127.833 69.4562 147.846 46.6396M59.5103 152.726C94.5214 112.183 129.463 72.7146 146.93 47.0924M60.2834 152.922C80.9884 126.859 104.35 98.9423 147.759 51.9672M60.5399 149.956C99.4687 112.103 133.343 71.9531 151.802 51.9503M65.4632 153.708C85.1575 128.347 100.78 108.368 150.972 55.6979M67.757 151.241C88.4063 121.902 113.863 91.6323 150.388 55.0314M69.4731 154.865C91.616 124.654 111.533 99.9916 151.389 54.217M71.2851 150.757C92.4911 122.362 114.915 96.7118 153.521 58.8058M72.4709 149.889C98.7978 126.542 118.626 96.0696 153.639 57.1173M70.0815 151.454C90.7685 132.17 113.164 110.644 151.354 62.2359M72.3153 150.578C98.494 129.51 118.611 102.875 150.172 63.0585M74.7914 150.561C92.2966 133.713 104.933 118.242 150.795 62.9748M75.6941 153.436C91.8875 134.026 109.492 109.702 151.948 68.7092M81.1913 151.161C103.018 127.56 126.124 97.5048 153.379 66.2331M80.5289 154.102C101.297 120.881 129.442 93.516 154.818 70.569M82.8541 153.707C105.234 129.238 120.313 108.225 151.878 71.2965M84.8913 153.264C102.409 131.432 118.888 111.827 151.556 71.6064M88.2282 152.157C111.231 124.441 138.938 93.078 151.309 74.7703M86.1973 150.176C106.32 131.272 119.44 117.297 152.79 79.4551M89.5878 150.046C106.553 133.256 119.638 119.625 156 80.3825M92.5575 149.876C112.173 129.021 128.892 109.74 154.684 81.0998M94.948 150.477C117.271 126.37 141.951 101.476 153.966 82.8917M98.8489 148.754C118.369 128.554 139.82 100.589 152.706 82.8163M97.4288 152.368C116.372 127.621 136.527 103.914 155.517 85.0253M101.044 148.67C115.92 136.001 126.159 121.137 152.956 92.211M101.982 149.8C124.28 130.25 139.09 109.991 152.694 91.009M104.485 146.226C115.827 136.777 123.977 125.883 152.799 95.3251M106.146 147.677C120.555 136.413 129.629 124.628 151.573 100.391M112.943 148.271C126.195 129.402 140.465 111.996 150.944 99.5798M115.449 145.497C125.643 126.968 137.926 115.116 150.969 106.334M118.839 136.914C129.692 129.822 135.421 118.919 151.077 109.433M124.213 136.797C135.847 128.837 139.889 119.391 148.01 112.009M25.3252 24.1945V24.1945Z" stroke="url(#paint0_linear_2168_14153)" stroke-width="0.332333" stroke-linecap="round"/>
<defs>
<linearGradient id="paint0_linear_2168_14153" x1="16.9262" y1="21.311" x2="120.617" y2="75.4835" gradientUnits="userSpaceOnUse">
<stop stop-color="#3CA0D2"/>
<stop offset="1" stop-color="#48DCA6"/>
</linearGradient>
</defs>
</svg>
