<svg width="41" height="35" viewBox="0 0 41 35" fill="none" xmlns="http://www.w3.org/2000/svg">
<path d="M5.77422 9.02785C7.93164 6.46545 10.4558 4.04338 10.9269 2.00362M4.17792 11.22C7.19321 7.59049 10.3848 4.37225 12.9721 1.73246M4.07031 11.5309C7.61873 8.56697 10.0595 5.09425 13.1915 1.48226M4.14137 13.4772C7.13738 9.28119 10.0516 5.49032 14.0306 1.35441M2.58466 14.6085C7.70368 9.78091 11.8827 4.47915 14.9471 1.3205M2.96973 15.7867C6.91279 10.8975 10.9001 6.2908 15.2563 1.77722M2.64831 16.8405C5.40443 13.3825 7.89536 9.93441 15.5325 1.70293M1.56552 17.7421C5.7752 13.5656 9.17673 9.06466 16.487 2.04368M1.93166 19.2962C6.16769 14.441 9.53187 10.0544 13.3412 6.16696M1.77146 19.7868C4.65937 16.6504 7.76119 13.2989 10.7941 10.1848M1.60477 21.1801C3.9176 18.3728 4.96647 16.6068 10.3094 10.9698M1.98492 21.4571C3.65367 18.3291 6.45831 15.7913 9.19971 12.7499M1.26422 22.6106C3.71593 19.3512 6.36803 16.6462 9.32445 13.8297M1.00979 23.4309C3.06274 20.6338 4.86196 19.4593 9.36319 14.0908M1.19228 23.9631C2.73702 21.7607 5.34093 20.0976 8.67906 14.8095M1 24.4457C3.30642 22.5519 4.47732 21.3597 9.05551 15.8525M1.2579 25.2277C2.82584 23.0586 4.76066 21.4784 8.38054 16.6123M1.79073 25.6294C3.01201 23.8562 4.80997 21.6471 8.1753 18.3337M1.87443 26.8729C4.24526 23.6055 6.61 20.0274 8.83417 18.1504M1.79747 27.2648C4.27829 23.9289 7.49575 21.0467 10.489 17.647M1.26557 28.3242C4.59934 23.8242 8.57543 20.3234 11.1876 17.4297M2.17586 28.1046C5.08453 24.7146 7.79498 21.7078 11.2919 17.0782M2.23081 29.104C5.51923 24.4955 9.81689 20.6121 12.2675 17.4405M2.78979 29.0973C5.84194 24.7248 9.52034 20.8342 12.0494 17.73M2.51772 29.7077C5.20603 26.2049 8.46286 22.5308 13.3475 17.7179M2.81321 30.393C6.21622 25.7506 10.3493 21.7773 13.0983 18.0496M3.45409 30.3746C5.7936 28.2004 7.49956 25.0959 13.8168 18.6531M3.24675 30.8976C7.54039 25.7385 11.4046 21.3618 14.9545 18.4716M3.52983 31.4134C6.10715 29.163 8.56367 26.0688 14.809 18.5386M4.23228 31.5585C6.53417 28.8816 9.77852 26.3889 15.449 19.4244M4.68852 32.2509C7.56381 29.5861 10.5287 25.7613 15.6805 19.5801M4.70421 32.6424C7.90067 28.315 12.0359 24.4168 15.957 19.6625M4.89949 32.8417C8.67156 28.8902 12.5971 24.5729 15.9169 19.4179M5.7609 32.6843C9.13476 29.4702 11.4236 25.9123 16.6088 20.0881M6.61379 32.7098C8.73938 29.677 11.3091 27.0629 16.6183 20.2847M6.13947 33.1862C8.90401 30.5835 12.4233 26.8702 17.3816 20.8789M7.36169 33.8254C9.91076 30.9818 11.4747 27.6395 17.9125 21.7983M7.73451 33.8863C10.8535 29.9275 13.9393 26.5584 17.4721 21.6062M8.69117 33.3283C12.1548 30.1588 14.4683 26.3846 18.1644 22.3242M8.88609 34.0722C12.0884 29.8188 15.8353 25.3625 18.0712 23.236M9.74738 33.986C11.122 31.4597 12.7497 29.056 17.982 23.032M10.1149 33.8569C12.7394 29.8576 15.6415 26.6858 18.7825 24.3391M10.4086 33.575C12.65 31.5827 14.3915 28.8444 18.3751 24.3686M11.4148 34.501C13.4273 31.3948 15.9671 29.1962 18.5892 25.6591M11.7831 34.0997C14.4808 31.0088 16.8252 27.9823 18.1045 26.3795M12.2575 33.6565C14.8069 31.1771 16.0802 28.9242 17.8177 27.5446M13.4954 33.246C15.4605 31.1056 17.4001 29.245 17.8681 28.2311M16.2195 31.2666C16.5049 31.0129 16.5835 30.2685 16.823 29.7057M4.12296 10.7901C5.88526 8.79723 8.36181 7.0655 10.9725 1.78343M4.38671 12.0911C7.3789 8.41681 10.4565 4.51363 12.898 1.82099M4.00624 13.098C6.43142 10.3842 8.63682 7.26974 12.9968 1.55495M2.56855 14.6461C6.34543 10.5621 9.30584 6.71815 13.8768 1.09622M2.52472 16.3879C5.90823 11.1306 10.52 7.18957 14.8761 1.54164M1.95291 16.6398C5.58755 13.0882 8.97881 9.5113 14.9019 1.38769M1.94209 18.0835C7.7118 12.158 12.3593 6.31457 15.1982 1.86471M1.47372 18.7106C4.95686 15.2188 8.2045 11.4957 15.9387 1.44M1.67006 19.6504C4.04496 16.4585 6.8841 13.4128 13.5199 5.92921M1.34084 20.7656C3.29278 18.1994 5.48284 16.1307 10.7662 9.63773M1.7845 21.2407C4.4567 17.9455 6.59402 15.4907 9.93186 11.5991M1.08595 22.0003C3.01144 19.9749 5.37561 17.4664 9.09903 12.7113M1.42857 23.437C3.98915 19.8614 6.69746 16.5474 9.31439 14.083M1.77279 23.8239C3.26502 21.3363 4.90372 20.063 9.37768 14.1954M1.63939 24.461C2.80111 22.2588 4.96019 20.2223 9.44981 15.1799M1.67511 25.3103C3.53475 23.2079 5.31069 21.0471 9.21481 15.8996M1.76007 26.3772C4.49454 22.0738 7.11177 18.5227 8.48949 16.6087M1.85784 26.3845C3.9385 23.9214 6.16034 21.8207 8.8447 18.2926M1.5886 27.4493C4.74757 23.9538 6.6828 21.6272 9.09781 17.4092M2.18909 27.5847C4.35016 24.301 7.01949 21.6048 9.88752 17.4277M1.71311 27.9888C4.79769 24.9115 8.35144 21.1379 11.2425 17.6692M2.21853 28.5083C6.08587 23.9066 9.91524 20.2424 11.4387 17.6984M2.60765 29.0792C6.12439 25.4943 9.1556 20.5074 11.7694 17.6614M2.66704 29.5514C5.15667 26.7378 7.98662 22.4437 12.3048 18.1603M2.99733 30.2291C6.41867 26.2896 9.00184 22.7877 12.7519 17.7158M2.91492 30.5877C7.05301 26.5249 11.0227 21.1456 13.1628 17.943M3.4604 31.5801C6.70826 27.0222 9.31629 22.8449 14.4482 18.1889M4.04256 31.0686C7.79852 27.117 11.3249 22.0677 14.9147 17.9664M3.66544 31.3962C6.78644 28.8824 9.04953 25.5399 14.5071 18.8282M4.65151 32.4587C7.07647 28.0635 9.75939 24.9197 15.0921 19.3098M4.38131 32.4172C9.24211 27.9653 13.5382 22.3649 16.0091 19.1693M4.8659 32.7611C7.29142 30.1148 9.39311 26.9948 16.3688 19.603M5.97961 32.938C8.87853 29.2356 12.1521 25.5911 15.9151 19.8455M6.64156 32.6393C10.0889 27.3699 14.7454 23.0657 16.8461 19.8488M6.88253 33.2797C9.61444 30.3701 12.0795 26.9449 16.9096 20.187M6.7871 33.6402C10.1361 30.0455 13.955 25.1172 17.2595 21.4972M7.576 33.5271C10.5189 29.7338 14.1483 25.8132 17.2502 21.232M7.958 34.0297C10.3382 31.2604 12.2506 28.479 17.469 22.079M8.83246 34.0181C11.0404 31.6414 12.697 29.1531 18.0084 22.7049M8.99302 33.4318C12.7098 30.2157 14.931 26.6153 18.6609 22.7093M9.94868 33.8391C12.9841 30.9644 15.1543 28.3867 18.5337 23.3087M10.2125 33.7245C12.2601 31.5208 14.7976 28.819 18.8623 23.5738M11.1677 33.9743C13.6371 30.771 16.5394 26.8644 18.9259 24.9631M12.1848 33.4865C13.912 31.9035 15.167 29.6455 18.3355 25.0757M12.3572 33.1311C14.9451 31.5502 16.78 28.4217 17.8996 25.8641M14.0511 33.2249C15.2777 30.9046 17.4681 28.9592 17.7107 27.4208M26.7429 8.40417C29.0475 6.24309 30.7202 3.94894 32.2992 2.24054M25.7971 11.0049C27.2443 8.56276 29.9605 6.48673 34.1071 1.13227M25.4531 11.4263C28.1696 9.02182 30.9043 6.05749 34.2999 1.25073M25.1351 12.7843C27.7429 10.4194 29.998 7.67785 35.4031 1.362M23.9226 14.5656C27.2277 11.1497 30.4685 7.33073 35.3084 1M23.973 15.9106C27.6376 11.5044 32.3405 6.16635 36.3038 1.44681M23.7105 17.2633C27.4007 13.0415 31.0318 8.47489 36.9538 1.54712M22.7763 18.1891C29.1913 11.5154 34.7123 5.5056 37.5029 1.90533M22.9213 18.9618C27.8138 13.5722 32.3578 8.75033 34.6599 5.45347M22.7707 19.6664C25.0657 16.5571 27.776 13.8302 31.6515 10.2964M23.0507 20.8053C25.4558 16.6707 29.1418 13.6518 31.3138 11.4973M22.4492 21.5205C24.3883 19.6379 27.1789 16.7516 30.1977 12.2353M22.8196 22.0408C25.2252 19.2225 28.8313 15.94 29.9966 13.9949M23.0121 22.9096C25.8363 19.598 28.6504 15.9811 29.8238 14.3149M22.9429 23.7032C24.5409 21.3829 25.9392 19.1647 30.1976 15.4649M22.5009 25.0025C25.5372 21.7496 28.2609 18.8251 30.1786 15.8601M22.3319 24.8568C25.2684 22.4912 26.6859 19.9961 29.5318 17.1633M22.3764 26.1473C24.9775 23.7138 27.5823 20.778 29.6235 18.4824M22.6245 26.8859C23.812 24.6142 25.9085 23.1908 30.0046 17.8421M22.6148 27.4438C25.4743 24.2673 28.5517 20.5354 31.4948 17.2101M22.4554 27.8829C24.9002 24.7669 27.7746 21.9047 32.0965 17.0673M22.6478 28.2761C25.4354 25.6537 27.4803 23.5037 32.7215 17.9752M23.3112 28.9512C26.3235 25.7727 29.2302 22.0478 32.9721 17.7667M23.2718 28.9806C25.8092 26.6553 27.0872 24.7112 33.7919 18.1026M23.9937 30.263C26.9923 26.1459 29.4909 22.2855 34.1434 17.85M23.579 30.2438C27.2852 26.7549 31.8321 22.4114 34.3895 18.1512M24.2125 31.0947C26.2464 28.4173 29.4374 25.6094 35.0108 18.286M24.2891 30.9551C28.4165 26.9721 31.5966 22.3881 35.738 18.6667M24.3778 31.238C26.482 29.5713 29.2676 26.6087 36.2443 18.2969M24.9742 32.0044C28.0415 28.4046 31.4271 24.6357 36.1367 18.56M25.1646 32.0003C29.0346 28.2668 33.291 23.7937 37.1281 18.8671M25.7437 32.4964C28.1799 30.1537 30.7356 26.5925 37.4394 19.9024M26.2812 32.7315C31.2531 27.3078 35.3394 23.008 37.3035 19.7828M26.4557 33.1117C30.2369 29.0218 33.3422 25.1135 37.7452 20.3926M27.4454 32.7358C30.5215 29.0556 34.0095 25.2835 37.9336 20.3763M28.0513 33.1439C30.061 29.9309 33.1755 27.7687 38.0095 21.1722M28.4473 33.1541C30.6567 30.7965 33.0794 28.0098 38.5632 21.3516M28.9556 33.7559C31.3134 30.6061 34.5331 26.9282 38.5047 22.1784M29.0197 33.5748C32.9696 29.7789 35.7938 26.7856 39.4256 22.4829M29.9613 33.6371C33.6699 29.2228 36.7186 25.4219 38.9774 23.1811M30.3624 33.8441C32.7088 30.8803 35.8602 28.3418 39.2919 23.2698M31.1418 33.3121C33.9638 30.5409 36.9431 26.7777 39.7692 23.7784M32.0481 34.0664C33.3916 31.9585 36.119 29.7171 39.6867 24.6164M31.9427 33.6725C33.9435 31.6486 36.5216 28.6567 39.5212 25.7177M32.5679 33.3713C34.3473 32.3531 35.6367 30.122 39.4263 26.8337M34.1855 33.7537C35.5047 30.9968 38.1241 28.498 39.7379 27.3473M35.1132 32.6663C36.7483 31.4112 38.1961 30.0335 39.2574 28.3407M37.3745 31.4774C37.501 30.6003 37.7087 30.5219 37.953 30.1048M25.6178 10.4389C28.2465 7.55879 30.5285 4.78811 32.1873 2.5226M25.5828 12.2216C28.3406 8.95111 30.3413 5.8063 33.8504 1.37638M24.8643 12.7032C28.3044 9.35506 31.4651 5.0126 34.7465 1.80591M24.3816 14.9316C28.0466 10.6008 31.9055 5.14412 35.3336 1.11745M23.7039 15.7048C27.6536 11.4605 30.8003 6.13181 35.3202 1.48669M23.1638 17.1424C26.9919 11.5172 31.5502 7.02856 35.8581 1.62873M22.7027 18.5198C27.7185 12.0655 32.888 6.7013 36.8191 1.92498M22.7257 18.5295C26.9097 13.4158 32.2384 7.91653 36.775 1.78676M22.4126 20.0459C25.8007 15.5699 29.1183 11.7223 34.3283 6.07305M23.1143 20.5644C25.6838 16.8946 28.5086 13.3473 31.1872 9.55314M22.5487 21.1861C25.0697 19.3373 26.5164 16.0201 31.0753 11.1167M22.3174 22.7596C24.7113 19.8092 26.5306 17.8587 30.8098 12.524M22.3227 23.4745C24.6126 19.9519 27.3752 17.2144 30.4613 13.2854M22.3252 24.3217C24.2085 22.1084 26.3192 19.6729 29.9075 14.4766M22.5001 24.8261C24.0049 22.0319 25.8166 20.1155 29.7048 14.9638M22.7678 24.9264C25.194 21.9459 27.694 19.4269 30.0304 15.9215M22.6199 25.9052C24.4181 24.2569 25.8916 22.3162 29.8272 17.0044M22.5303 26.5513C24.4778 23.8486 26.2561 22.1894 29.6369 18.1401M22.7443 26.8978C24.8599 25.5673 25.8054 23.0594 30.5824 18.2658M22.9225 27.7462C25.4308 24.9456 27.8877 21.6194 31.4274 17.8221M22.6849 28.871C26.1335 24.0173 29.5408 20.3193 32.1465 17.9621M23.5627 29.279C27.0046 25.0296 29.4782 21.0904 32.191 17.5716M23.8805 29.3451C26.1404 26.4132 28.5283 23.4656 33.5394 17.9323M24.034 29.9096C26.3862 26.0289 30.0368 22.6762 33.5436 17.8648M24.1632 30.2368C27.2831 26.2212 30.8944 22.1294 34.0353 17.9785M23.8165 30.7711C26.0545 27.5352 29.3011 24.8754 35.0816 18.2435M24.1488 31.5989C27.7242 26.9038 31.705 22.4559 35.5416 18.5639M25.2185 31.1114C28.1541 27.1665 30.7772 23.3419 36.0649 18.7345M25.1631 32.1296C27.3638 28.8772 29.0312 26.1439 36.0969 19.0791M25.3139 32.2439C28.5418 28.5026 31.908 24.3301 36.3875 18.6052M26.0146 32.1207C29.8832 27.8799 33.4451 23.9167 36.6064 19.6926M26.7073 32.6103C29.1593 29.6769 32.0942 25.9749 36.8295 19.3005M26.9439 33.2359C29.7281 29.5003 31.828 26.7223 37.5286 20.0756M27.2566 33.4498C29.9794 29.5689 32.7469 26.5293 37.9656 20.3968M27.9836 33.5953C30.7075 29.1114 34.2543 25.0709 37.6558 20.3774M28.2553 33.2774C30.9237 30.1537 33.1722 27.4072 38.6794 21.4901M29.118 33.7672C32.2942 29.5891 34.9681 25.3567 38.8379 21.629M29.1718 33.7571C33.421 28.9433 36.9948 23.979 38.7766 21.4925M30.3649 34.0302C33.5707 28.9253 36.43 24.5823 39.2259 22.7299M30.7342 33.4559C32.2452 30.8291 34.7791 28.3685 39.4313 23.1498M31.3432 33.7859C34.286 29.4049 37.72 26.0301 39.4471 23.3922M31.3892 33.8262C34.3307 29.6887 38.2659 26.3717 39.7843 24.3181M31.7863 34.0758C34.6425 31.9941 36.1069 29.2323 40 24.5775M33.3866 34.1991C34.3672 32.1177 36.7634 29.5108 39.5511 25.1793M34.2915 33.3967C34.6991 32.0817 36.5635 30.7797 39.9197 26.0054M35.1858 33.2064C36.2347 30.7467 38.0439 29.3655 38.9494 27.2631M7.18912 6.25462V6.25462ZM28.2776 6.29547V6.29547Z" stroke="#3CA0D2" stroke-width="0.0576685" stroke-linecap="round"/>
</svg>
