<svg width="52" height="55" viewBox="0 0 52 55" fill="none" xmlns="http://www.w3.org/2000/svg">
<path d="M41.6777 4.38867C40.299 9.07962 41.0388 14.61 41.4573 19.6761C41.6594 22.2485 42.0166 24.8226 42.314 27.3567C42.6543 29.9066 42.8581 32.4612 42.924 35.0031C43.5828 32.635 43.6623 29.9811 43.6036 27.4131C43.5448 24.8452 43.322 22.256 43.1066 19.6975C42.6478 14.5168 41.6148 9.53953 41.6777 4.38867Z" fill="white"/>
<path d="M36.0781 38.9852C30.6529 33.1249 24.5482 28.4194 18.7735 23.2438C12.8939 18.0495 6.78582 12.1159 0.000432982 9.42778L0.406952 9.74302C0.602942 9.85516 0.805904 9.94006 1.01182 9.99606C0.831312 9.85472 0.614075 9.78657 0.469491 9.62072L0.421298 9.75047C3.5078 11.886 6.48657 14.2973 9.33118 16.9632C12.2067 19.5887 15.0294 22.3074 17.9384 24.8982C23.8096 30.0406 29.9584 34.391 36.0781 38.9852Z" fill="white"/>
<path d="M33.5376 49.0077C29.6929 47.6365 25.7641 47.9987 21.9944 48.2916C18.2247 48.5846 14.302 49.0585 10.9935 51.1253C14.2161 50.7492 17.6272 50.5826 20.8708 50.4495C25.1681 50.2282 29.2496 49.3024 33.5364 49.0026L33.5376 49.0077Z" fill="white"/>
</svg>
