<svg width="36" height="85" viewBox="0 0 36 85" fill="none" xmlns="http://www.w3.org/2000/svg">
<g clip-path="url(#clip0_2168_14477)">
<path d="M9.43833 1.82802C22.2481 3.8613 26.7185 8.9257 28.3802 21.6733C29.2844 27.5674 30.0269 33.4612 29.3428 39.5378C28.8689 43.426 28.253 47.3298 27.3807 51.1897C24.9345 62.7687 18.5556 73.3845 10.7451 82.0812C14.7012 75.3598 18.5418 68.651 21.1149 61.4428C23.688 54.2345 24.8908 46.6547 25.7888 39.0813C26.6155 31.6774 25.5611 23.8321 24.5463 16.4316C23.5319 10.3519 20.294 6.53653 14.8256 4.016C13.121 3.05209 11.1082 2.88556 9.44706 1.90793L9.43833 1.82802Z" fill="white"/>
<path d="M8.9103 64.052C10.6092 66.4451 10.7885 69.7319 11.3722 72.4445C11.9003 75.3877 11.7243 78.2192 12.144 81.0754C12.1547 81.1731 12.144 81.0754 12.0271 80.8276C11.9346 80.6725 11.8063 80.5418 11.653 80.4462C11.5229 80.3515 11.3711 80.2909 11.2115 80.2698C11.025 80.2902 11.0783 80.2844 11.1316 80.2785C12.2269 80.0242 13.3378 79.3368 14.4982 79.1023C17.217 78.3292 20.1655 78.1779 22.7319 77.1609C23.6887 76.6251 24.965 76.6295 25.9413 76.1904C25.2569 77.1636 24.2858 77.4853 23.4793 78.3281C21.1783 80.3764 18.2317 81.1204 15.5043 82.2269C14.3062 82.6093 13.2897 83.4211 11.8224 83.7251C11.4087 83.8493 10.9704 83.8677 10.5478 83.7786C10.1251 83.6895 9.73156 83.4958 9.40318 83.2152C9.07481 82.9345 8.82211 82.576 8.66825 82.1723C8.51439 81.7687 8.46428 81.3329 8.52252 80.9049C8.10732 78.2548 8.56256 75.3479 8.53095 72.7548C8.48055 69.6605 9.15134 66.9997 8.85703 64.0578L8.9103 64.052Z" fill="white"/>
</g>
<defs>
<clipPath id="clip0_2168_14477">
<rect width="26.3306" height="81.6981" fill="white" transform="translate(0 2.85938) rotate(-6.23237)"/>
</clipPath>
</defs>
</svg>
