<svg width="10" height="32" viewBox="0 0 10 32" fill="none" xmlns="http://www.w3.org/2000/svg">
<g clip-path="url(#clip0_2545_17781)">
<path d="M3.60648 0C8.35886 1.29579 9.83783 3.39213 9.93959 8.2734C10.038 10.536 10.0753 12.7917 9.56646 15.0577C9.22724 16.5061 8.83376 17.9545 8.34529 19.3758C6.94434 23.6465 4.09834 27.3914 0.791016 30.3528C2.56171 27.9783 4.2883 25.6038 5.55696 22.9885C6.82561 20.3731 7.59224 17.5611 8.24352 14.7388C8.86089 11.9776 8.78627 8.97218 8.70825 6.13636C8.57595 3.79919 7.51083 2.22524 5.55017 1.04817C4.94637 0.613975 4.19332 0.468114 3.60648 0.0305292V0Z" fill="#454545"/>
<path d="M0.84099 23.4707C1.38373 24.4442 1.31589 25.6925 1.42444 26.7407C1.50246 27.8737 1.31928 28.9354 1.35999 30.0311C1.35999 30.0684 1.35999 30.0311 1.32606 29.9327C1.29752 29.8703 1.25449 29.8157 1.20056 29.7733C1.15532 29.7322 1.10051 29.703 1.04113 29.6885C0.969891 29.6885 0.990244 29.6885 1.0106 29.6885C1.43461 29.6376 1.88237 29.4239 2.33014 29.3832C3.38848 29.2034 4.50788 29.2679 5.51874 28.9897C5.90205 28.8269 6.38373 28.8811 6.77043 28.7556C6.47193 29.0949 6.09201 29.1763 5.75279 29.4612C4.79961 30.1396 3.65646 30.2991 2.58115 30.6044C2.11304 30.6993 1.69581 30.9639 1.12932 31.0182C0.968005 31.048 0.801781 31.0369 0.645878 30.9858C0.489976 30.9348 0.349382 30.8454 0.236978 30.7259C0.124574 30.6064 0.0439546 30.4606 0.00250692 30.3019C-0.0389408 30.1432 -0.0398914 29.9766 -0.000257814 29.8174C-0.0477476 28.7997 0.243976 27.721 0.338955 26.7407C0.447503 25.5704 0.810461 24.5935 0.820638 23.4707H0.84099Z" fill="#454545"/>
</g>
<defs>
<clipPath id="clip0_2545_17781">
<rect width="10" height="31.0278" fill="white"/>
</clipPath>
</defs>
</svg>
