<svg id="dog" width="322" height="172" viewBox="0 0 322 172" fill="none" xmlns="http://www.w3.org/2000/svg">
<style>
@keyframes tiltAnimation {
  0% {
    transform: rotate(0deg);
  }
  50% {
    transform: rotate(0deg);
  }
  100% {
    transform: rotate(0deg);
  }
}

#tail {
  animation: tiltAnimation 2s ease-in-out infinite;
}
</style>
<path id="tail" d="M102.375 54.5458C102.79 55.0001 102.338 54.5139 102.261 54.4156C102.109 54.2363 101.938 54.0411 101.786 53.8618C101.463 53.47 101.139 53.0782 100.832 52.6852C100.161 51.8167 99.5043 50.9125 98.8981 49.9872C98.2919 49.0619 97.7547 48.1315 97.2334 47.1826C97.0909 46.8986 97.3177 47.3842 97.0909 46.8986C96.9471 46.5974 96.8047 46.3134 96.6781 46.0109C96.45 45.508 96.2392 45.0038 96.0455 44.4984C95.6583 43.4874 95.3386 42.4542 95.0707 41.417C94.9236 40.8388 95.0784 41.5204 95.0183 41.1783C94.9818 40.9211 94.928 40.6652 94.8903 40.3907C94.8173 39.8762 94.7615 39.3605 94.7389 38.825C94.7158 38.5148 94.7272 38.202 94.7213 37.8905C94.702 37.632 94.7262 37.4916 94.7174 37.8388C94.7453 37.2822 94.8248 36.7217 94.9388 36.1587C94.9898 35.9123 95.0395 35.6486 95.1077 35.4009C95.1198 35.3307 95.3575 34.5678 95.2441 34.9055C95.1306 35.2432 95.4041 34.495 95.4335 34.4235C95.5508 34.1375 95.7026 33.8489 95.8372 33.5616L89.8851 33.2253C90.0499 33.5769 90.1224 34.3167 90.0306 33.3184C90.0563 33.6631 90.0805 33.5227 90.102 32.8799C90.0389 33.1965 90.0976 33.0535 90.2754 32.4164C90.5458 31.859 91.3186 31.2989 91.5892 31.2094C92.08 31.0515 92.4075 31.0271 92.7956 31.1195C93.1295 31.1813 93.4884 31.3452 93.8402 31.6482C94.5254 32.2383 94.8744 33.2001 94.7158 34.0957C94.6419 34.4998 94.494 34.8401 94.2228 35.1549C94.4315 34.9314 94.3491 34.9895 93.9771 35.3465C94.0301 35.3599 94.6861 34.8604 94.7697 34.8196L89.8864 33.2425C89.9414 33.5157 90.0136 33.7876 90.0686 34.0608C90.0725 34.1125 90.2036 34.7092 90.1512 34.4705C90.0949 34.1801 90.2586 34.9824 90.265 35.0686C90.3162 35.29 90.3514 35.53 90.4026 35.7515C90.6239 36.8614 90.8108 37.9739 90.9977 39.0864C91.3887 41.3101 91.7465 43.5536 92.1375 45.7774C92.938 50.2407 93.8272 54.7321 95.4607 58.9775C96.0851 60.6119 97.9214 61.5322 99.5929 60.9397C101.265 60.3473 102.18 58.4421 101.555 56.8077C99.943 52.6128 99.2072 48.7858 98.4604 44.5784C97.6733 40.062 96.9896 35.538 95.9625 31.0568C95.4534 28.8766 92.6732 28.5465 91.0791 29.4798C89.4849 30.4131 88.2261 31.8932 88.2652 33.8139C88.31 35.5782 89.7074 37.1204 91.4138 37.4611C92.9083 37.7483 94.5212 37.2989 95.5063 36.0991C96.6828 34.677 96.7075 32.6823 95.9465 31.0753C95.3728 29.8877 94.4787 29.0532 93.0858 28.9663C91.7976 28.889 90.5659 29.57 89.9944 30.739C85.0369 40.7263 91.3933 52.0714 98.1318 59.4716C99.303 60.7707 101.645 60.3362 102.699 59.1313C103.959 57.6684 103.547 55.8621 102.359 54.5643L102.375 54.5458Z" fill="#EA7D23"/>
<path id="body" d="M31.9545 126.789L14.0142 133.724C13.1718 134.046 12.1544 134.347 11.4398 133.829C10.7796 133.341 10.693 132.411 10.6671 131.599L10.2472 118.754C10.1257 115.263 10.8087 110.706 14.2408 110.017C16.7512 109.518 18.985 111.587 21.4742 112.199C23.3633 112.665 25.326 112.259 27.2198 111.857L68.2668 103.132C69.41 102.891 70.6367 102.609 71.4209 101.736C72.5572 100.473 72.3285 98.5664 72.2889 96.871C72.1385 88.8067 75.3381 78.9504 81.3292 73.5304C90.8286 64.9549 102.275 57.6207 115.041 56.6002C127.825 55.5956 142.746 63.963 154.973 67.8003C168.619 72.0862 182.857 74.5432 197.16 75.0718C198.439 72.4637 195.878 69.5005 193.15 68.4734C190.422 67.4463 187.311 67.3315 184.965 65.6174C183.077 64.2331 181.994 62.0263 181.07 59.8596C178.844 54.636 177.139 49.2003 175.979 43.6372C175.066 39.2863 174.554 34.5068 176.726 30.6364C178.929 26.7117 183.403 24.6454 187.773 23.5226C195.646 21.4976 203.897 21.7493 212.01 22.0113C231.19 22.6443 250.757 23.3525 268.773 29.9989C277.114 33.0859 284.991 37.4032 292.065 42.7855C294.012 44.2694 295.934 45.8764 297.266 47.9261C302.104 55.4158 297.199 65.6419 290.366 71.3846C283.531 77.1101 274.863 80.5633 268.819 87.131C271.379 87.5295 272.622 90.4869 272.883 93.0668C273.145 95.6468 272.974 98.4669 274.531 100.534C275.726 102.144 277.707 102.914 279.305 104.13C285.446 108.854 283.847 119.267 278.138 124.51C272.429 129.77 264.307 131.242 256.633 132.455C246.904 133.994 236.436 135.381 227.662 130.905C221.597 131.6 222.926 142.695 217.209 144.82C215.591 145.425 213.782 145.11 212.077 144.786C199.815 142.563 187.348 141.551 174.886 141.769C151.018 142.179 126.385 146.978 103.755 139.358C102.137 138.803 100.427 138.185 98.7377 138.536C97.1158 138.865 95.8153 140.019 94.6183 141.165C88.1404 147.263 81.3597 154.18 72.5331 155.271C65.5098 156.141 58.6801 153.097 51.7674 151.498C44.8547 149.899 36.4127 150.337 32.3017 156.102C30.1205 159.159 29.5938 163.253 27.0435 166.008C24.0772 169.227 18.5819 169.671 15.1381 166.947C9.06151 162.149 11.6905 152.543 14.8543 145.462L20.9912 131.765" fill="white"/>
<path d="M80.1252 78.5415C87.1679 81.1881 95.9302 77.6065 98.142 87.7527C99.8779 95.699 95.6586 106.29 90.3353 111.833C86.9095 115.399 82.827 117.592 80.0584 121.836C77.9137 125.15 73.5394 130.172 69.7802 125.773C64.4281 119.535 67.8295 108.433 69.5942 101.647C70.3755 98.6425 75.8454 75.0653 81.3441 79.3172" fill="#EA7D23"/>
<path d="M159.675 67.4157C154.337 66.2538 148.026 65.9789 143.664 62.3355C141.43 62.5886 139.261 63.0102 137.604 63.5669L140.736 63.0389C131.141 66.6132 133.01 78.8993 141.337 82.7325C145.931 84.8509 148.13 82.7288 152.552 82.0701C156.512 81.4804 160.19 83.8578 164.105 84.0686C165.914 84.1591 169.065 83.6471 170.291 82.2039C172.458 79.651 169.375 78.0438 167.993 76.0152C170.598 73.0657 175.645 76.6061 178.886 75.2036C180.8 74.3851 181.116 73.2698 180.599 72.1472C173.397 71.7828 166.685 68.921 159.674 67.3985L159.675 67.4157Z" fill="#EA7D23"/>
<path d="M193.643 76.0275C193.218 79.8544 193.037 83.715 193.763 87.4041C194.426 91.1845 196.341 94.5597 197.478 98.1836C199.258 103.7 200.992 109.065 204.721 113.518C205.906 115.006 207.223 116.399 208.764 117.549C207.021 116.708 205.487 115.436 204.103 114.066C199.813 109.984 197.629 104.168 195.872 98.7364C194.747 95.0251 192.84 91.528 192.443 87.6064C191.943 83.6753 192.514 79.7162 193.626 76.0288L193.643 76.0275Z" fill="#464546"/>
<path d="M219.053 119.555C219.73 117.945 221.196 116.692 223.018 116.955C222.467 118.625 220.865 119.923 219.053 119.555Z" fill="#464546"/>
<path d="M205.423 120.848C205.449 116.773 208.134 115.603 211.403 115.74C215.175 115.892 217.502 117.816 220.025 121.908C222.076 125.239 223.692 130.179 221.678 132.46C220.079 134.26 215.526 134.565 212.72 132.954C211.128 132.051 204.168 120.976 206.011 120.37" fill="white"/>
<path d="M205.423 120.847C204.91 114.89 212.367 114.265 216.201 116.873C220.742 119.897 227.83 132.92 218.751 134.342C216.644 134.672 214.406 134.406 212.54 133.332C210.484 131.544 209.293 129.051 207.929 126.795C207.413 125.69 204.769 121.139 206.01 120.353C204.891 121.147 207.816 125.521 208.376 126.519C209.763 128.617 211.081 130.962 212.969 132.572C214.681 133.449 216.71 133.697 218.591 133.366C226.324 132.253 219.384 120.05 215.748 117.531C213.346 115.769 208.638 115.149 206.483 117.632C205.769 118.517 205.511 119.697 205.44 120.846L205.423 120.847Z" fill="#464546"/>
<path d="M216.509 125.897C216.823 125.457 216.99 124.908 216.997 124.301C217.004 123.694 216.868 123.028 216.611 122.371C216.267 121.478 215.663 120.587 214.904 119.934C214.145 119.28 213.212 118.864 212.261 118.883L212.209 118.887L210.647 119.09C209.429 119.25 208.962 120.671 209.583 122.254L212.365 129.359C212.514 129.729 212.849 130.034 213.143 130.029C213.489 130.021 213.619 129.665 213.466 129.243L210.664 122.104C210.512 121.699 210.484 121.32 210.584 121.035C210.684 120.751 210.894 120.544 211.203 120.504L212.713 120.305C212.713 120.305 212.731 120.303 212.748 120.302C213.441 120.302 213.998 120.573 214.444 120.973C214.907 121.372 215.278 121.933 215.511 122.505C215.681 122.926 215.765 123.353 215.759 123.734C215.753 124.116 215.657 124.452 215.45 124.71L215.419 124.747C215.419 124.747 215.404 124.783 215.371 124.803L216.472 125.865L216.509 125.897Z" fill="#464546"/>
<path d="M215.408 124.835L216.509 125.897L215.408 124.835L212.082 121.6L215.408 124.835Z" fill="#464546"/>
<path d="M213.023 125.151C212.731 125.19 212.602 125.546 212.752 125.934C212.902 126.321 213.27 126.606 213.58 126.583C213.58 126.583 215.159 126.378 215.417 126.342L214.07 125.021C213.487 125.099 213.024 125.168 213.024 125.168L213.023 125.151Z" fill="#464546"/>
<path d="M218.981 128.364C218.923 128.282 218.865 128.2 218.789 128.119L216.509 125.897L215.408 124.835L212.082 121.6C211.895 121.423 211.699 121.351 211.527 121.364C211.424 121.372 211.324 121.431 211.263 121.54C211.171 121.702 211.189 121.944 211.275 122.163C211.315 122.246 211.358 122.347 211.433 122.428C211.47 122.46 211.508 122.509 211.545 122.541L214.067 124.987L215.413 126.308L218.235 129.061C218.235 129.061 218.328 129.141 218.382 129.171C218.437 129.202 218.474 129.234 218.527 129.247C218.617 129.292 218.721 129.302 218.79 129.297C218.842 129.293 218.892 129.272 218.942 129.234C218.991 129.195 219.023 129.158 219.053 129.104C219.116 129.013 219.123 128.874 219.114 128.753C219.103 128.615 219.041 128.481 218.98 128.347L218.981 128.364Z" fill="#464546"/>

<path d="M107.814 58.699C98.7178 54.074 95.9271 42.6711 95.8133 33.235C98.4133 42.3126 100.381 52.1998 107.814 58.699Z" fill="#464546"/>
<path d="M97.6687 17.6731C88.9202 26.5566 91.609 40.0812 94.4978 50.9395C95.5438 54.7434 96.794 58.4974 98.0455 62.2687C91.4435 49.9541 84.1587 27.7778 97.6859 17.6718L97.6687 17.6731Z" fill="#464546"/>
<path d="M86.5253 17.6715C81.4691 31.2187 80.3572 46.0664 83.7114 60.148C83.9371 61.0843 84.1629 62.0206 84.3714 62.9582C83.7674 61.1316 83.1965 59.2852 82.7265 57.3966C79.3873 44.2151 80.8053 29.9858 86.524 17.6543L86.5253 17.6715Z" fill="#464546"/>
<path d="M106.579 34.4423C105.684 38.9454 106.269 43.7714 108.393 47.8589C105.174 44.4249 104.464 38.6204 106.579 34.4423Z" fill="#464546"/>
<path d="M23.8062 130.707C22.4031 133.74 19.6103 136.496 16.035 136.658C12.4566 137.012 9.03622 133.905 8.96512 130.392C12.7153 137.46 18.9727 135.382 23.8049 130.69L23.8062 130.707Z" fill="#464546"/>
<path d="M20.7933 123.532C19.2519 130.058 11.3537 128.723 9.25122 123.3C10.2582 124.022 11.2084 124.679 12.2012 125.212C15.5131 127.096 18.3183 126.367 20.7933 123.532Z" fill="#464546"/>
<path d="M67.209 107.786C60.6017 108.192 51.1726 109.57 44.5323 110.464C40.7548 110.936 36.9402 111.376 33.1051 111.54C29.3752 111.489 25.9615 113.355 22.5535 115.065C24.8495 113.317 27.2898 111.644 30.0835 110.76C34.7742 109.752 39.5598 109.552 44.3031 108.782C51.8581 107.838 59.5721 106.934 67.1905 107.77L67.209 107.786Z" fill="#464546"/>
<path d="M22.4688 113.927C22.1124 113.33 21.5856 113.005 21.0122 112.753C19.2948 112.032 17.3496 111.744 15.5156 111.551C12.5433 111.201 11.1757 112.152 9.66904 114.725C9.70385 114.029 9.84464 113.36 10.0888 112.683C10.8207 110.411 13.4975 109.587 15.6495 109.86C17.9911 110.119 22.1414 111.161 22.4675 113.91L22.4688 113.927Z" fill="#464546"/>
<path d="M9.9578 113.941C10.351 116.893 10.4173 119.643 10.1358 122.61C8.1055 120.249 8.0419 116.372 9.9578 113.941Z" fill="#464546"/>
<path d="M9.88647 127.411C10.6546 129.347 11.1213 130.959 11.465 133.012C9.16924 132.438 8.22686 129.095 9.88647 127.411Z" fill="#464546"/>
<path d="M109.332 118.84C104.379 132.137 92.2351 148.951 78.5672 154.146C70.7436 157.068 62.415 153.911 54.9434 151.556C47.7936 149.334 38.495 148.276 33.0309 154.489C38.0511 147.668 47.9712 148.229 55.3003 150.299C62.7277 152.293 70.4441 155.375 77.9983 152.559C91.0293 147.654 103.461 131.218 109.315 118.842L109.332 118.84Z" fill="#464546"/>
<path d="M62.5175 121.098C61.1568 124.7 57.5288 126.946 53.9079 127.892C46.4898 129.744 39.0479 126.625 31.6525 127.852C23.4119 128.899 20.7531 136.012 18.3649 143.035C17.084 146.544 15.8376 150.051 14.5209 153.546C13.972 155.25 12.0448 159.622 11.8273 161.354C11.3058 164.356 14.8274 165.567 17.1262 164.321C18.7466 163.507 19.9697 162.012 21.1449 160.573C20.1165 162.123 19.0403 163.728 17.3453 164.703C14.5762 166.383 10.4455 164.906 10.8665 161.252C11.0157 159.3 12.7239 155.014 13.2746 153.101C14.4311 149.549 15.659 146.027 16.8512 142.489C19.2844 134.908 22.3433 127.35 31.4125 126.258C38.9693 125.106 46.3086 128.475 53.7256 127.074C57.2981 126.409 60.8446 124.464 62.5175 121.098Z" fill="#464546"/>
<path d="M23.4928 164.176C23.3084 165.888 21.9009 167.466 20.1941 167.818C21.476 166.648 22.4529 165.57 23.4928 164.176Z" fill="#464546"/>
<path d="M29.1837 162.175C29.7493 166.743 25.3084 171.337 20.7179 170.899C24.4686 168.904 27.3016 165.989 29.1837 162.175Z" fill="#464546"/>
<path d="M15.6566 166.233C17.6822 167.832 19.5511 168.958 21.9013 170.031C19.3237 171.488 15.5647 169.186 15.6566 166.233Z" fill="#464546"/>
<path d="M65.1666 116.188C66.7938 111.977 70.6269 102.714 72.1266 98.6515C73.9637 92.6052 74.6931 86.3468 76.9158 80.3585C83.6894 65.9035 103.956 56.2311 119.447 56.2032C132.245 56.7746 143.551 64.077 155.708 66.7411C172.106 70.0422 188.346 74.7068 205.138 75.3964C213.492 75.8657 221.895 75.6035 230.28 75.3253C213.544 76.7977 196.558 76.7637 180.046 73.3324C171.77 71.8175 163.635 69.8589 155.386 68.238C142.988 65.592 132.03 58.5409 119.375 57.7856C104.501 57.7328 84.7113 67.0577 77.8958 80.7187C75.6245 86.5201 74.7477 92.8934 72.7292 98.8318C71.0917 102.905 66.9381 112.053 65.164 116.153L65.1666 116.188Z" fill="#464546"/>
<path d="M107.898 139.83C112.542 142.378 117.926 142.063 123.058 141.871C128.246 141.71 133.433 141.549 138.622 141.422C154.158 140.819 169.74 141.322 185.24 140.236C200.693 138.773 216.009 135.69 230.73 130.677C215.09 137.076 198.328 140.751 181.483 142.145C167.202 142.845 152.907 142.645 138.619 142.774C133.42 142.78 128.238 142.768 123.052 142.721C117.935 142.652 112.342 142.722 107.881 139.831L107.898 139.83Z" fill="#464546"/>
<path d="M296.908 44.2965C290.702 36.1288 279.946 33.8803 271.169 29.5954C267.985 28.0304 264.819 26.4813 261.443 25.3638C257.694 24.1182 253.708 23.4274 249.865 22.5527C241.808 20.7096 233.727 20.1853 225.485 20.0543C221.893 19.9927 218.506 19.6559 214.999 18.8774C211.546 18.1123 208.154 17.2559 204.615 16.9651C197.763 16.4186 190.956 17.6363 184.771 20.6793C181.98 22.0657 179.479 23.8636 177.192 25.9577C176.678 26.2732 176.242 26.7043 175.936 27.247C175.217 28.2884 175.145 29.4201 175.515 30.4323C176.131 37.7688 176.007 45.4031 179.417 52.0981C180.004 53.2328 180.753 54.442 180.935 55.7282C181.118 57.0143 180.75 58.3587 180.795 59.6551C180.907 63.2513 183.21 66.0257 186.232 67.7414C188.386 68.9673 190.873 69.3192 193.305 69.1553C194.184 69.0898 195.043 68.9912 195.924 68.9601C195.942 68.9588 195.976 68.9563 196.01 68.9537C196.062 68.9499 196.098 68.9645 196.151 68.9779C197.784 70.4332 197.432 74.9998 198.135 77.4602C198.913 80.2269 200.618 82.1794 200.711 85.0492C200.904 90.4416 200.443 95.6402 202.506 100.772C204.185 104.927 206.883 108.573 210.527 111.196C217.888 116.487 227.464 117.542 236.103 115.096C246.081 112.255 253.492 104.719 256.52 94.8929C257.345 92.232 257.994 88.8564 260.301 87.0208C262.232 85.4906 264.923 86.0179 267.231 85.8286C274.364 85.2625 279.774 79.9551 284.883 75.4846C289.893 71.0908 296.125 67.5071 298.765 61.0718C301.038 55.5302 300.559 49.102 296.889 44.2633L296.908 44.2965Z" fill="white"/>
<path d="M201.901 86.139C200.266 89.3109 201.838 92.9715 202.869 96.1007L204.686 100.956C207.981 108.665 215.611 114.768 224.111 115.348C230.885 116.004 237.84 114.221 243.645 110.721C248.055 108.036 252.406 105.025 254.612 100.217C255.33 98.6902 256.194 97.0314 255.928 95.3183C256.334 97.0384 255.563 98.7941 254.918 100.367C252.987 105.381 248.486 108.714 244.174 111.548C238.255 115.369 231.024 117.172 223.997 116.604C215.159 115.911 207.056 109.496 203.944 101.237L202.277 96.3008C201.396 93.0911 199.999 89.2267 201.901 86.139Z" fill="#464546"/>
<path d="M250.789 81.4737C252.134 81.3735 251.994 79.2697 250.633 79.3712C249.271 79.4726 249.428 81.5752 250.789 81.4737Z" fill="#EA7E00"/>
<path d="M292.843 56.73C293.007 53.5811 289.855 50.3501 288.214 47.6303C285.723 43.5009 278.658 31.0301 272.971 36.5662C273.19 39.0453 270.532 39.8846 269.7 41.9741C269.628 42.1701 269.574 42.3821 269.519 42.5768C269.751 40.5666 269.827 38.568 269.512 36.6679C268.797 32.4235 266.048 30.4102 262.616 29.2448C261.788 28.596 260.794 28.0463 259.567 27.6351C254.979 26.0707 249.842 24.8072 245.034 24.0044C241.964 23.5053 239.128 23.1274 236.223 22.98C235.418 22.6414 234.63 22.3015 233.794 22.0172C231.233 21.1336 228.644 20.5813 225.944 20.4013C221.137 20.0836 216.288 21.5194 212.216 24.0929C212.182 24.0955 212.167 24.1313 212.151 24.1498C210.873 21.4203 205.197 23.3856 203.064 23.5965C195.596 24.3262 188.016 23.7647 181.421 28.2939L182.331 27.7062C178.279 29.1519 180.486 38.3107 181.138 41.2428C182.389 46.8683 184.989 52.2201 186.643 57.6769C187.749 61.355 188.131 69.2635 193.435 65.5583C197.536 62.688 198.738 59.7391 200.597 55.3894C201.35 53.635 202.213 51.959 202.949 50.2059C203.063 51.2718 203.193 52.3193 203.373 53.3284C203.493 54.0126 203.731 54.6533 204.068 55.2174C203.396 58.0576 202.674 60.9361 203.337 63.7807C205.155 71.6688 210.656 75.9552 218.57 77.4971C226.133 78.9785 228.518 65.8729 230.761 60.6281C232.382 56.7988 233.987 53.6812 234.178 49.4906C234.274 47.5252 234.621 45.4371 234.688 43.5432C234.734 41.8415 233.648 39.3576 235.984 38.6117C239.047 41.5721 240.715 43.0248 241.28 47.3498C241.803 51.3486 240.658 54.8304 239.127 58.4625C236.857 63.8132 234.553 70.8126 237.351 76.4962C239.352 80.5582 243.773 84.7691 248.517 84.4676C251.949 86.3434 257.566 84.036 259.81 81.356C260.86 80.0993 261.376 78.6571 261.783 77.1365C261.753 79.7555 262.337 82.71 264.812 83.3747C268.684 84.4032 273.537 78.5828 275.919 76.3604C279.531 72.972 283.479 69.6797 286.867 66.0654C289.468 63.2895 292.637 60.9391 292.861 56.7287L292.843 56.73ZM266.918 63.0288C266.534 64.6171 265.792 66.0587 264.998 67.487C265.083 67.238 265.185 66.9705 265.27 66.7215C267.026 61.2185 267.734 55.3604 268.468 49.6389C268.676 48.0117 268.983 46.3079 269.252 44.5722C269.211 46.1176 269.437 47.7471 269.585 49.0358C270.14 54.1587 268.143 58.0679 266.934 63.0103L266.918 63.0288Z" fill="#EA7D23"/>
<path d="M196.565 66.8506C197.972 68.9985 197.699 71.8436 197.964 74.2327C198.101 76.7699 199.377 78.7718 200.362 81.0724C195.117 76.2644 197.233 72.7968 196.565 66.8506Z" fill="#464546"/>
<path d="M210.136 20.124C206.157 17.8904 201.766 20.1239 197.592 20.4002C193.493 20.7403 188.912 20.891 184.988 22.1886C177.349 24.3347 175.462 26.6935 175.291 34.6259C175.142 36.3526 174.333 38.0591 174.598 39.755C174.998 41.8568 176.281 43.4942 176.96 45.6271C177.722 48.4124 178.556 51.0016 179.774 53.6316C181.78 57.9878 182.913 63.1889 186.502 66.474C189.075 68.2059 193.343 68.737 195.567 66.2491C196.843 64.7677 196.526 62.1399 197.622 60.3426C199.691 57.3984 200.274 53.837 201.658 50.5452C202.781 47.9315 204.226 45.467 204.728 42.6741C204.99 41.3029 205.074 39.8756 205.246 38.4591C205.407 35.5011 206.735 32.8547 208.578 30.6032C209.857 28.9309 210.574 26.6939 212.427 25.5161C213.039 25.1239 213.713 24.8657 214.412 24.7097C213.733 24.8989 213.06 25.1743 212.484 25.5812C210.707 26.8573 210.091 29.0521 208.85 30.7735C207.099 33.0875 205.933 35.5832 205.856 38.5003C205.669 41.339 205.371 44.3245 204.163 46.9447C203.009 49.5955 201.859 52.0726 201.149 54.8809C200.596 56.759 199.911 58.7336 198.806 60.4103C197.916 61.7244 197.841 63.2723 197.47 64.8076C196.184 69.877 189.413 69.9483 185.81 67.4094C182.912 65.0432 181.628 61.2918 180.207 58.0357C178.644 54.0451 176.826 50.1081 175.822 45.9372C175.209 43.99 173.818 42.0661 173.466 39.9087C173.214 38.3852 173.729 36.9258 174.021 35.5003C174.56 32.0289 174.163 27.8647 176.927 25.1807C179.037 23.0306 181.971 22.1707 184.756 21.4086C187.522 20.6134 190.422 20.224 193.272 20.0982L197.539 19.9189C201.687 19.7658 206.245 17.6759 210.101 20.1093L210.136 20.124Z" fill="#464546"/>
<path d="M273.31 32.0523C277.675 30.618 281.793 34.0197 284.966 36.6079C288.392 39.316 292.268 41.332 295.365 44.5152C299.347 48.6548 302.249 55.2665 299.913 60.8993C297.076 66.0843 292.519 70.0458 288.012 73.7608C285.684 75.5459 283.246 77.01 280.955 78.827C277.414 81.3091 274.161 84.6361 270.109 86.3071C267.781 87.1564 264.806 86.7716 263.931 84.0987C263.474 83.0929 263.216 81.9511 262.947 80.8967C261.691 76.8312 264.178 72.7641 265.187 69.1016C266.089 66.3137 265.527 63.4269 266.04 60.5466C266.276 59.056 266.97 57.67 267.708 56.4192C270.108 52.8091 270.784 48.3917 271.179 44.1512C271.33 41.2979 270.657 38.3153 268.775 36.0814C272.948 40.6748 271.415 47.3222 270.229 52.8001C269.434 55.6148 267.221 57.7899 266.83 60.6784C266.399 63.5006 266.991 66.5584 266.125 69.361C265.225 73.1019 262.863 76.7439 264.036 80.625C264.298 81.5932 264.558 82.7522 264.971 83.6399C265.949 86.5304 269.537 85.6046 271.554 84.3105C274.542 82.3029 277.317 80.0165 280.187 77.8271C282.446 76.0472 284.985 74.5409 287.266 72.8113C291.631 69.2974 296.158 65.3902 298.909 60.4542C301.056 55.3034 298.437 48.9999 294.783 45.0785C291.864 41.9514 287.941 39.7828 284.666 36.9942C281.589 34.3121 277.693 30.8593 273.294 32.0708L273.31 32.0523Z" fill="#464546"/>
<path d="M228.571 90.3036C227.578 89.3032 222.805 87.5793 222.462 89.7191C222.517 90.4601 223.493 90.7686 224.133 90.9809C226.312 91.6157 228.903 91.7346 230.895 90.5637C231.045 90.4832 231.119 90.3044 231.091 90.3931C230.799 90.2069 230.133 90.1006 229.697 90.0638C227.842 89.8207 225.218 90.6574 228.45 91.699C229.854 91.941 231.667 92.0831 232.92 91.4526C232.92 91.4526 232.892 91.5413 232.893 91.5585C232.893 91.5585 232.798 91.4443 232.67 91.3499C232.173 90.971 231.389 90.9081 230.66 90.8931C229.709 90.9293 228.535 90.9822 227.834 91.5716C227.848 91.5359 227.825 91.451 227.885 91.5678C228.977 92.4916 231.095 92.3164 232.42 91.9577C232.573 91.9117 232.724 91.8484 232.805 91.7731C232.905 91.7136 232.85 91.683 232.843 91.8222C232.852 91.9428 232.845 91.8394 232.752 91.7597C232.677 91.6786 232.53 91.5683 232.386 91.4924C231.248 90.8839 229.475 90.8081 228.149 90.9242C227.77 90.9525 226.868 91.1757 226.762 91.3742C226.854 91.6793 227.481 91.9618 227.889 92.0874C230.099 92.6679 232.741 93.0082 234.978 92.3217C235.08 92.2967 235.071 92.1761 234.953 92.4621C234.929 92.6026 234.973 92.7206 234.974 92.7379C234.975 92.7551 234.974 92.7379 234.937 92.706C233.675 91.8122 231.862 91.6701 230.335 91.6452C229.382 91.6469 228.129 91.5843 227.341 91.9376C227.374 91.9178 227.389 91.882 227.419 91.8278C227.465 91.7378 227.49 91.6145 227.468 91.5469C227.443 91.4448 227.468 91.5469 227.559 91.6094C229.128 92.8962 231.609 93.6298 233.624 93.9302C234.324 94.0167 235.103 94.0106 235.524 93.8406C235.742 93.7378 235.723 93.7218 235.737 93.6688C235.745 93.5469 235.746 93.5641 235.668 93.4486C235.459 93.2043 234.744 92.9109 234.059 92.7887C232.337 92.4665 230.322 92.4086 228.617 92.7783C228.329 92.8691 227.741 93.1209 227.594 93.2358C227.756 93.0851 227.72 92.6026 227.607 92.4896C227.531 92.3914 227.607 92.4896 227.715 92.5336C229.819 93.3299 232.647 93.6044 234.728 92.6869C234.811 92.646 234.774 92.6141 234.731 92.7386C234.605 92.904 234.716 93.225 234.714 93.2078C234.269 92.8078 233.641 92.5253 232.922 92.4056C230.978 92.1345 228.587 91.9141 226.776 92.7249C226.664 92.8545 226.921 92.5755 226.798 92.3247C226.662 92.1268 226.835 92.3566 227.084 92.442C228.473 92.945 230.758 93.1387 232.233 92.4742C232.249 92.4557 232.119 92.5693 232.1 92.7787C232.081 92.9881 232.208 93.0653 232.097 92.9696C230.524 92.3243 228.079 92.5411 226.542 93.3142C226.476 93.3538 226.496 93.3869 226.57 93.2254C226.666 93.1143 226.618 92.702 226.58 92.6528C226.58 92.6528 226.638 92.7352 226.851 92.8059C228.116 93.2662 230.307 92.6697 231.128 92.054C231.081 92.1268 231.15 92.347 231.11 92.2806C230.781 91.8199 229.922 91.6933 229.152 91.5947C228.107 91.5166 226.659 91.6245 225.832 92.154L225.543 90.3733C226.259 90.9091 227.298 91.1263 228.361 90.9778C229.083 90.8894 229.845 90.6592 230.384 90.2205C230.533 90.1227 230.559 89.9995 230.499 90.1253C230.471 90.2141 230.519 90.4011 230.542 90.4687C229.018 89.5598 226.432 89.5099 224.792 90.2906C224.89 90.214 224.958 89.9663 224.947 89.8112C224.94 89.725 224.881 89.6254 224.898 89.6242C225.737 90.4108 228.178 90.3849 229.199 89.6676C229.15 89.7059 229.157 89.7921 229.199 89.6676C229.209 89.5629 229.217 89.6663 229.238 89.7167C227.849 88.9884 225.201 89.2723 223.774 89.8813C224.1 89.6143 224.15 88.8828 223.795 88.5453C224.92 88.9814 227.302 89.3237 228.724 88.8712C228.626 88.9478 228.477 89.0455 228.378 89.3475C228.282 89.6839 228.357 89.9903 228.508 90.1524C228.508 90.1524 228.452 90.1045 228.361 90.042C227.355 89.3371 225.865 89.3442 224.684 89.5362C224.477 89.5516 224.351 89.717 224.545 89.5292C224.688 89.3625 224.757 88.8895 224.59 88.746C225.248 89.1995 226.985 89.2607 227.706 88.9297C227.756 88.9086 227.772 88.8901 227.706 88.9297C227.657 88.968 227.565 89.1308 227.577 89.2859C227.57 89.4251 227.626 89.4902 227.588 89.4411C227.068 88.7347 225.32 88.7782 224.536 89.1832C224.438 89.2599 224.458 89.2931 224.498 89.1341L223.87 87.6905C224.721 88.1817 226.065 88.3068 226.88 87.8475C226.88 87.8475 226.814 87.8871 226.744 88.1176C226.676 88.3653 226.788 88.7035 226.862 88.7673C227.012 88.9121 226.826 88.7526 226.649 88.6966C226.062 88.4977 224.99 88.3003 224.476 88.3733C224.303 88.3861 224.259 88.4933 224.468 88.2698C224.613 88.1204 224.64 87.7891 224.58 87.6723C224.62 87.7559 224.95 87.9913 225.263 88.0027C225.667 88.0765 226.239 87.8433 226.562 87.5247C226.309 87.8554 226.424 88.4707 226.756 88.7406C226.921 88.8669 226.918 88.8152 226.849 88.8203C226.109 88.6674 224.546 88.8532 223.843 89.1829C223.877 89.1803 223.843 89.1829 223.924 89.1076C224.228 88.7729 224.213 88.0983 223.845 87.8137C224.188 87.9961 224.593 88.0872 224.983 88.1969C225.212 88.2491 225.421 88.2682 225.49 88.263C225.507 88.2617 225.49 88.263 225.341 88.3607C225.193 88.4585 225.075 88.7445 225.086 88.8824C225.106 89.1581 225.149 89.0336 225.077 89.0043C224.547 88.6279 224.03 89.1343 223.585 89.6701L223.392 88.0207C223.722 88.2561 224.643 88.2915 225.083 88.1547C225.034 88.193 224.85 88.2761 224.741 88.6827C224.66 88.9834 224.785 89.2687 224.882 89.4001C224.903 89.4505 224.956 89.4639 224.92 89.4493C224.883 89.4174 224.883 89.4174 224.866 89.4186C224.289 89.3576 222.767 90.7881 222.344 91.3915C222.237 91.5901 222.284 91.5173 222.268 91.5358C222.27 91.5703 222.408 91.7853 222.647 91.9754C226.457 94.7242 232.25 97.1173 236.717 94.9648C236.867 94.8843 237.018 94.8211 237.117 94.7444C237.217 94.7022 237.309 94.5394 237.155 94.7935C237.124 94.8478 237.1 94.9883 237.122 95.0559C237.129 95.1421 237.146 95.1408 237.128 95.1248C237.105 95.0572 236.974 94.9283 236.791 94.5607C236.576 94.2302 236.641 93.4801 236.891 93.1149C237.045 92.8608 237.172 92.6954 237.265 92.5498C237.375 92.403 237.386 92.3155 237.346 92.4745C237.334 92.3194 237.392 92.1591 237.364 92.0225C237.34 89.5982 232.766 88.6913 230.877 87.7576C227.102 86.4099 224.107 85.2814 221.444 89.0844C220.664 90.2516 220.113 90.9859 221.489 92.0098C224.439 93.9215 228.308 95.6087 231.858 95.3442C233.352 95.1635 234.613 94.1685 236.108 93.7625L235.678 94.505C234.292 89.6347 224.979 91.1778 220.969 91.0781L221.155 90.319C222.82 91.2694 224.639 91.9656 226.558 92.1345C228.479 92.3207 230.441 92.1399 232.411 92.0624L232.215 92.4582C230.905 90.2336 228.424 90.8865 226.588 92.063L226.568 91.8045C228.491 92.4931 230.485 93.1937 232.566 93.2119C233.223 93.1976 234.044 93.0498 234.268 92.3399C234.172 92.6763 233.916 92.9554 233.596 93.0832C231.235 93.727 228.752 92.7336 226.486 92.088C226.378 92.044 226.35 91.8902 226.466 91.8295C227.427 91.238 228.459 90.6586 229.664 90.5514C230.886 90.443 232.035 91.2066 232.68 92.181C232.794 92.3284 232.691 92.5614 232.501 92.5755C228.596 92.9705 224.332 93.1843 220.81 91.0379C220.45 90.8568 220.595 90.2567 220.996 90.2789C225.197 90.1391 229.679 89.3546 233.812 90.8662C235.274 91.4158 236.614 92.6503 236.957 94.2364C237.033 94.56 236.85 94.8856 236.545 94.9777C235.055 95.4526 233.747 96.5032 232.099 96.7126C230.4 96.9432 228.752 96.6847 227.193 96.229C224.866 95.4666 222.59 94.7004 220.576 93.2562C217.563 91.1932 219.844 88.0772 221.876 86.2795C223.15 85.0061 225.146 84.5801 226.865 84.8506C230.087 85.3037 233.043 86.5911 235.994 87.8269C237.605 88.5041 239.485 90.0103 239.41 92.0261C239.429 92.2846 239.394 92.5125 239.376 92.7391C239.243 93.5115 238.943 93.6725 238.698 94.1067C238.669 94.1782 238.683 94.1424 238.698 94.1067C238.736 93.9133 238.674 93.7792 238.674 93.7792C240.495 96.1217 237.028 97.2811 235.224 97.7274C231.075 98.5565 226.878 97.119 223.284 95.1686C221.923 94.3515 219.728 93.2674 220.025 91.2004C220.168 90.3405 220.792 89.6355 221.309 89.1291C222.499 87.8967 224.462 86.3294 226.27 87.5637C227.285 88.1639 227.373 89.5784 226.396 90.1884C225.984 90.479 225.473 90.5865 225.026 90.6371C223.871 90.7232 222.967 90.6865 221.906 89.9338C221.391 89.5389 221.301 88.8004 221.714 88.2845C222.694 86.7904 225.079 85.7636 226.695 87.2201C227.501 87.8013 228.024 89.4779 226.907 90.3063C225.57 91.203 224.174 90.5966 222.873 90.1217C221.819 89.6976 221.287 88.3683 222.157 87.4889C222.947 86.7022 224.218 86.5382 225.143 86.3999C226.177 86.3229 227.323 86.1162 228.402 86.8677C229.117 87.4035 229.099 88.5487 228.587 89.124C227.076 90.9349 223.997 91.251 222.484 89.0935C221.469 87.5575 222.685 85.9765 224.186 85.882C225.755 85.7652 226.881 85.9932 228.228 86.6379C228.893 86.9523 229.575 87.9587 229.308 88.793C228.421 91.3199 224.524 91.1078 222.657 90.0164C220.85 88.7821 223.052 86.7117 224.511 86.5164C226.39 86.1511 228.41 86.2779 229.766 87.9618C230.322 88.6828 230.437 89.9913 229.71 90.704C228.114 92.3132 224.182 92.1037 222.659 90.5016C221.773 89.5451 222.003 87.9856 223.187 87.3602C224.574 86.6676 226.105 86.7442 227.576 86.9465C228.841 87.1815 230.268 87.7337 230.9 89.0036C231.72 91.4033 228.493 91.8171 226.912 91.7616C225.278 91.6928 222.008 91.5378 221.464 89.5855C221.307 88.8693 221.626 88.2737 222.115 87.856C224.222 86.3646 229.975 85.884 231.561 88.3305C232.01 89.0076 232.027 89.9421 231.753 90.6731C230.698 93.0391 227.038 93.2252 224.859 92.5904C223.287 92.1877 221.499 90.2933 222.766 88.6913C224.634 86.5419 230.349 86.7225 232.432 88.6295C234.791 91.2092 231.025 93.4654 228.713 93.603C226.049 94.1308 220.61 91.8499 225.292 89.5602C227.881 88.4835 234.256 88.6843 233.676 92.7652C232.758 95.3291 228.303 96.0077 226.024 95.1897C223.214 93.9954 223.825 91.2638 226.616 90.5879C228.942 89.9294 234.656 89.3996 234.618 93.0763C234.137 96.1621 227.355 95.6104 225.465 94.2089C223.493 92.6229 224.966 90.5376 226.985 90.1792C229.133 89.7072 231.271 89.7905 233.448 90.1655C234.342 90.3068 235.38 90.7493 236.117 91.3356C236.759 91.8077 237.338 92.8389 236.902 93.7207C235.523 96.3881 227.682 95.8114 225.97 93.7727C224.687 91.6675 227.97 90.6084 229.525 90.5445C232.009 90.394 238.418 90.3497 237.733 94.1786C236.554 97.8884 228.261 94.7458 226.386 92.8406C225.009 91.3488 226.39 90.1022 227.977 90.0013C230.788 89.8265 233.799 89.7581 236.166 91.5226C237.285 92.583 236.386 93.7764 235.068 93.9959C232.974 94.4986 225.128 94.338 225.477 91.1061C226.078 88.7045 231.568 89.3525 233.222 90.3903C233.701 90.7705 234.17 91.0129 234.231 91.8401C234.022 93.9179 229.079 93.6277 227.749 92.7564C227.242 92.4649 226.653 91.7809 226.969 91.1335C227.891 89.5571 232.052 89.5763 233.359 90.6053C233.686 90.8063 234.187 91.4795 233.79 91.9596C233.361 92.4941 232.638 92.548 232.107 92.6396C230.852 92.7678 229.619 92.7383 228.383 92.4318C226.883 92.0757 225.135 90.473 227.358 89.6141C228.629 89.2248 229.87 89.3577 231.108 89.6986C231.377 89.8173 231.625 89.8854 231.755 90.2397C231.82 90.6507 231.556 90.8264 231.309 91.0007C229.827 91.8044 228.129 92.0521 226.5 91.8097C225.307 91.6213 224.06 91.4022 223.007 90.7529C222.678 90.5347 222.288 90.1826 222.304 89.6962C222.322 89.2442 222.639 88.8394 223.042 88.6707C224.947 88.1822 227.195 89.0544 228.655 90.2627L228.571 90.3036Z" fill="#464546"/>
<path d="M226.985 86.9209C229.632 86.8623 232.105 88.1857 234.663 88.567L234.523 89.236C232.572 88.8787 230.498 88.9467 228.403 88.5135L228.737 87.4142C230.333 87.9018 232.038 88.2253 233.732 88.8616C234.107 89.007 234.294 89.4263 234.149 89.801C234.033 90.1043 233.751 90.2812 233.439 90.2699L233.37 90.275L232.258 90.2366L232.422 88.7167L235.183 89.2561C235.64 89.3434 235.933 89.7894 235.844 90.2292C235.768 90.5989 235.476 90.8632 235.131 90.8889C234.289 90.9863 233.36 91.0729 232.449 90.9501L232.696 89.1468C233.799 89.2899 234.982 89.3577 236.216 89.6297C236.744 89.7463 237.077 90.2587 236.961 90.7873C236.871 91.2099 236.495 91.5152 236.081 91.546L234.999 91.6786L235.13 89.7106C235.921 89.8596 236.693 89.9927 237.388 90.0103L237.249 92.1001C236.882 92.0582 236.247 92.1402 235.886 92.1844L236.27 90.1282C236.551 90.1766 236.672 90.1676 237.061 90.2772C237.628 90.4429 237.967 91.0415 237.802 91.6084C237.705 91.9448 237.464 92.1881 237.178 92.3134C236.925 92.4016 236.71 92.5389 236.646 92.613L235.827 90.6984C236.086 90.6791 236.226 90.7033 236.367 90.7275C237.053 90.867 237.837 90.6873 238.216 91.3523C239.246 92.8525 239.254 95.0527 237.278 95.9798C235.837 96.6417 234.574 96.6665 233.33 96.7245C229.606 96.7421 226.088 96.0511 222.585 94.8565C220.368 94.1725 217.22 92.1716 219.061 89.4349C220.258 87.8207 222.301 87.0966 223.686 86.1443L223.318 87.9566C223.318 87.9566 223.318 87.9566 223.356 87.9885C223.393 88.0204 223.448 88.0683 223.448 88.0683C222.639 87.678 222.161 86.8471 222.671 86.012C222.957 85.4361 224.054 85.2677 224.574 85.0384C225.484 84.6933 226.243 85.5725 226.305 86.3997C226.317 86.3295 226.164 85.9077 226.09 85.8439C225.938 85.6646 225.976 85.7137 225.976 85.7137L226.069 85.7935C226.804 86.3625 226.686 87.5671 225.869 87.9919C225.635 88.1133 225.42 88.2506 225.255 88.3668C225.091 88.4831 225.014 88.6102 225.107 88.4646C225.181 88.3031 225.086 88.1888 225.173 88.425C225.381 88.8947 225.567 89.5221 225.794 90.0077C226.37 91.0045 226.4 92.562 225.01 92.9775C224.247 93.2076 223.519 92.9673 222.881 92.7895L224.57 91.7279C224.57 91.7279 224.537 91.7477 224.571 91.7451C225.05 92.3506 226.107 92.5838 226.973 92.8139C228.367 93.1432 229.852 93.3098 231.351 93.4234L230.96 95.8441C229.698 95.4182 224.162 94.8602 226.432 92.5249C227.442 91.8951 228.264 91.7645 229.349 91.6664L229.433 93.9649C228.914 93.969 228.491 93.8792 228.104 93.804L227.08 93.5511L226.786 91.4588C226.786 91.4588 226.869 91.4179 227.094 91.1759C227.302 90.9524 227.696 90.6458 228.135 90.4918L227.897 92.4158C227.045 91.6821 223.479 90.1109 224.98 88.63C225.849 87.9587 226.771 87.7687 227.702 87.474L227.337 89.0955C227.113 88.8697 226.747 88.6196 226.349 88.3893C225.97 88.1923 224.832 87.5666 224.453 87.3695C223.532 86.8663 224.295 85.4751 225.215 85.9611L225.249 85.9585C225.642 85.8773 225.891 85.4948 226.518 85.3094L226.251 86.837L225.521 86.3541L226.236 86.4049C223.752 87.4911 224.686 92.1178 221.566 92.5756L221.596 91.3602C225.063 91.6045 228.706 91.1771 232.154 90.7122C233.027 90.5605 233.918 90.4248 234.762 90.1193C235.014 90.0139 235.351 89.8848 235.365 89.6065C235.364 89.5892 235.361 89.5548 235.395 89.5522L235.413 89.5509L235.56 89.6613C235.56 89.6613 235.669 89.7397 235.672 89.7742C235.66 89.8444 235.339 89.7297 235.254 89.7533C235.375 89.7443 235.496 89.7353 235.619 89.7608C235.709 89.8061 235.383 89.6224 235.366 89.6237L235.415 89.5854C235.408 90.1924 234.436 90.4035 233.984 90.6105C230.531 91.7169 226.907 92.1603 223.296 92.5333C222.686 92.4921 220.801 93.0138 220.822 91.9031C220.854 91.6235 221.046 91.4186 221.302 91.3648C221.799 91.2931 222.088 90.977 222.357 90.4024C222.891 89.2015 223.063 87.785 223.767 86.5368C224.147 85.8154 225.325 84.4106 226.347 84.8716L227.308 85.4412L227.04 86.9688C227.04 86.9688 226.841 87.0876 226.645 87.2409C226.431 87.3955 226.169 87.6056 225.694 87.7449L225.914 86.0476C226.852 86.5323 227.885 86.9059 228.722 87.6753C229.242 88.1391 229.05 89.0545 228.391 89.277C227.682 89.5377 226.832 89.757 226.31 90.1945L226.463 88.7621C227.143 89.5086 228.235 89.9817 229.167 90.6228C229.913 91.1044 229.738 92.2439 228.929 92.5468C228.598 92.7621 228.469 93.1183 227.853 93.4588L227.559 91.3665L228.616 91.5997C228.932 91.6627 229.212 91.6939 229.42 91.6957C230.058 91.6482 230.597 92.1452 230.628 92.7842C230.674 93.4046 230.194 93.9429 229.556 93.9904C229.057 94.0276 228.203 94.1953 227.824 94.4661L227.675 92.4669C228.843 93.0211 230.29 93.1386 231.633 93.489C232.288 93.6656 232.684 94.3292 232.525 94.9823C232.377 95.5651 231.817 95.9535 231.242 95.9097C229.659 95.837 228.072 95.6953 226.434 95.3495C224.536 94.9884 221.694 93.8311 222.015 91.3983C222.019 90.7568 222.535 90.2332 223.194 90.2361C223.541 90.2449 224.061 90.4834 224.338 90.4801C224.338 90.4801 224.426 90.4909 224.39 90.4762C224.356 90.4788 224.39 90.4762 224.253 90.5037C223.932 90.6143 223.582 91.0217 223.593 91.4021C223.604 91.5572 223.602 91.5228 223.578 91.4379C222.446 88.8015 221.609 87.3389 224.623 85.6932L224.441 87.9076L224.276 87.7813C224.185 87.7188 223.847 87.38 223.775 87.1081C223.712 86.9569 223.682 86.7858 223.678 86.7341C223.67 86.6307 223.682 86.7858 223.686 86.8375C223.73 86.9728 223.749 86.9888 223.75 87.006L225.254 87.6564L224.327 88.0028L224.602 85.6428L224.929 85.8437C225.834 86.3655 226.21 87.6892 225.255 88.3668C223.94 89.314 222.06 89.9047 221.195 91.0955C221.475 91.5945 222.749 92.1755 223.496 92.4318C226.608 93.4996 230.062 94.2646 233.341 94.3149C234.553 94.2939 235.8 94.2876 236.57 93.693C236.618 93.6375 236.636 93.6362 236.629 93.55C236.671 93.4083 236.534 92.9679 236.296 92.5697L237.256 93.1221C236.716 93.093 236.363 92.998 235.977 92.9401L235.141 91.0268C235.481 90.7069 235.949 90.4641 236.372 90.3286L236.421 92.3871C236.421 92.3871 236.262 92.347 236.105 92.3241C235.822 92.2584 235.719 92.2661 235.379 92.1182C234.359 91.6916 234.657 90.1098 235.745 90.0633C236.262 90.0248 236.986 89.9709 237.495 90.0542C238.826 90.2324 238.643 92.2042 237.303 92.1308C236.364 92.0795 235.517 91.8826 234.724 91.6991C234.178 91.5838 233.842 91.0369 233.976 90.5071C234.168 89.5917 235.252 89.7188 235.94 89.6502L235.788 91.5678C234.763 91.2976 233.611 91.1928 232.416 90.9699C231.238 90.7457 231.542 89.0075 232.716 89.18C233.436 89.2996 234.129 89.3 234.939 89.2396L234.802 90.8961L232.189 90.2417L232.1 90.2137C231.199 89.9862 231.445 88.6335 232.351 88.7046L233.555 88.8055L233.192 90.2189C231.705 89.5672 230.027 89.1377 228.383 88.4804C228.064 88.3828 227.899 88.0312 228.015 87.728C228.117 87.4605 228.418 87.3167 228.7 87.3823C229.639 87.6589 230.638 87.8098 231.639 87.9779C232.656 88.1446 233.689 88.2757 234.715 88.5631C234.893 88.6192 235.01 88.8011 234.955 88.9958C234.899 89.1732 234.733 89.2723 234.54 89.2347C231.915 88.6677 229.67 87.1368 226.983 86.9037L226.985 86.9209Z" fill="#464546"/>
<path d="M226.815 106.967C231.073 107.36 235.226 106.115 239.241 104.88C242.242 103.98 244.345 101.276 245.378 98.3919C245.773 97.4093 246.043 96.3841 246.312 95.3416C246.074 99.5878 243.916 104.358 239.508 105.674C235.458 106.912 231.035 108.021 226.832 106.966L226.815 106.967Z" fill="#464546"/>
<path d="M268.578 94.6354C266.996 95.741 264.309 95.7333 263.477 93.6291C263.091 92.6355 263.495 91.5482 263.932 90.6665C264.405 89.7995 264.855 88.8648 265.731 88.297C270.241 86.02 273.5 91.1493 271.555 95.0548C271.981 93.3247 271.83 91.3084 270.703 89.902C269.651 88.5767 267.555 88.1264 266.181 88.9913C265.5 89.3886 265.095 90.2332 264.634 91.0128C264.189 91.7911 263.87 92.6294 264.083 93.3933C264.65 95.188 267.032 95.2878 268.575 94.601L268.578 94.6354Z" fill="#464546"/>
<path d="M263.681 90.3217C261.363 92.2447 258.653 91.2163 259.319 88.0646C259.816 86.5893 260.82 85.1801 262.423 84.8353C264.016 84.578 265.384 85.4985 266.527 86.4185C267.027 86.8491 267.802 87.4845 267.546 88.2314C267.593 87.4654 266.838 87.1058 266.276 86.7664C264.69 85.7235 262.422 84.8181 261.05 86.636C258.719 89.3224 260.26 92.0843 263.648 90.3415L263.681 90.3217Z" fill="#464546"/>
<path d="M260.408 90.6001C258.967 90.1009 257.54 90.7099 256.208 91.2077C255.99 91.3106 255.851 91.3036 255.796 91.4983C255.512 93.2698 255.603 94.7187 257.676 95.1014C258.732 95.3173 260.421 95.8847 260.383 97.2392C259.679 95.2295 257.141 96.2851 255.731 95.0384C254.897 94.3207 254.796 93.2018 254.897 92.2238C254.964 91.7336 254.944 90.99 255.477 90.7076C257.01 90.1082 258.966 89.6158 260.41 90.6173L260.408 90.6001Z" fill="#464546"/>
<path d="M243.941 133.203C254.317 133.565 264.723 131.628 274.248 127.496C274.876 127.214 275.522 126.931 276.151 126.649C275.547 126.997 274.944 127.346 274.341 127.694C265.136 132.641 254.29 134.682 243.939 133.186L243.941 133.203Z" fill="#464546"/>
<path d="M261.137 98.0148C261.296 102.474 261.509 106.721 261.978 111.157C260.352 107.015 260.125 102.336 261.137 98.0148Z" fill="#464546"/>
<path d="M227.142 127.877C227.904 129.033 229.303 129.206 230.498 129.654C231.742 130.082 232.99 130.543 234.222 131.023C236.321 131.751 239.325 133.693 241.623 132.898C239.164 134.329 236.298 132.602 233.916 131.809C232.074 131.045 230.237 130.35 228.467 129.39C227.904 129.033 227.33 128.539 227.142 127.877Z" fill="#464546"/>
<path d="M239.821 112.427C246.611 110.292 254.524 109.737 260.268 114.716C261.046 115.386 261.774 116.094 262.406 116.896C261.645 116.225 260.87 115.59 260.032 115.045C253.972 110.697 246.799 111.422 239.838 112.426L239.821 112.427Z" fill="#464546"/>
<path d="M272.777 97.459C277.655 106.869 284.835 112.053 281.9 123.831C281.949 122.631 282.05 121.428 282.049 120.25C282.662 111.505 275.42 105.251 272.795 97.4577L272.777 97.459Z" fill="#464546"/>
<path d="M216.32 128.926C213.671 127.806 211.285 126.719 209.209 124.673C207.226 122.706 205.453 120.551 203.437 118.604C195.876 111.335 186.684 105.66 176.819 102.114C171.744 100.292 166.499 98.9841 161.16 98.2728C160.537 97.1235 158.808 96.4725 157.617 97.705C153.128 102.355 156.314 108.824 156.941 114.218C157.294 117.329 157.917 120.107 159.789 122.671C161.375 124.875 163.425 126.802 165.511 128.518C174.206 135.668 185.364 139.585 196.327 141.576C203.144 142.818 210.108 143.252 217.031 142.892C218.55 142.814 219.153 141.365 218.866 140.07C218.863 140.035 218.843 140.002 218.822 139.951C219.407 139.197 219.79 138.285 219.876 137.343C220.79 136.824 221.503 135.922 221.69 134.712C222.196 131.503 218.679 129.894 216.299 128.875L216.32 128.926Z" fill="white"/>
<path d="M156.115 97.7822C177.12 97.0836 195.588 110.022 210.127 123.963C212.186 126.01 214.264 128.316 215.1 131.165C213.911 128.464 211.8 126.42 209.585 124.593C194.222 111.7 176.78 99.275 156.134 97.7982L156.115 97.7822Z" fill="#464546"/>
<path d="M216.435 131.17C220.821 128.867 225.814 134.474 219.557 136.326L219.084 134.854C220.771 134.243 222.319 136.173 221.748 137.81C221.227 139.2 219.817 139.808 218.465 139.804L218.887 138.265C221.68 140.397 219.159 143.999 216.507 144.231C214.11 144.617 212.068 143.262 210.304 141.92C212.758 142.985 216.618 144.326 218.279 141.499C218.601 140.938 218.549 140.006 218.04 139.68L215.329 138.184L218.462 138.141C219.463 138.084 220.65 137.493 220.059 136.549C219.869 136.321 219.726 136.262 219.641 136.286L219.167 134.813C219.934 134.635 220.674 134.337 221.044 133.946C221.46 133.481 221.261 132.907 220.862 132.434C219.823 131.281 218.02 130.809 216.451 131.151L216.435 131.17Z" fill="#464546"/>
<path d="M159.688 120.616C174.011 134.678 193.696 142.777 213.772 142.875C193.619 145.243 172.342 136.466 159.688 120.616Z" fill="#464546"/>
<path d="M207.521 56.9014C208.445 54.649 209.561 52.1744 211.746 50.7985C212.492 50.3444 213.182 50.0677 213.929 49.6307C214.663 49.2468 215.5 48.8551 216.435 48.8375C218.26 48.9094 219.642 49.7769 221.177 50.6156C221.854 51.0851 222.571 51.6382 222.839 52.4501C222.389 51.7558 221.683 51.3578 220.948 51.0313C219.575 50.5097 217.94 49.7305 216.486 49.7522C215.042 49.9117 213.579 50.9739 212.237 51.5764C210.144 52.7895 208.952 54.9405 207.539 56.9001L207.521 56.9014Z" fill="#464546"/>
<path d="M245.576 65.2424C247.186 65.2091 249.158 65.1661 250.409 66.3726C250.633 66.5813 250.936 66.2294 250.712 66.0208C249.367 64.7173 247.272 64.7348 245.542 64.7771C245.231 64.8002 245.282 65.247 245.576 65.2424Z" fill="#464546"/>
<path d="M245.657 64.9249C247.209 64.3587 248.85 64.0458 250.5 64.0962C252.045 64.137 254.151 64.4827 255.183 65.7748C256.043 66.8544 255.596 69.4526 253.874 69.3729C253.039 69.3311 252.264 68.6957 251.783 68.0557C251.264 67.3665 251.145 66.4742 250.626 65.7851C250.451 65.5381 250.056 65.8102 250.23 66.0572C250.731 66.7304 250.847 67.5882 251.349 68.2787C251.754 68.8376 252.293 69.3174 252.939 69.6159C254.141 70.1675 255.3 69.6652 255.817 68.4656C256.346 67.1958 256.105 65.8274 254.985 64.9751C253.864 64.1228 252.207 63.7437 250.781 63.6767C248.989 63.5849 247.193 63.9093 245.506 64.5203C245.219 64.6283 245.373 65.0674 245.66 64.9594L245.657 64.9249Z" fill="#464546"/>
<path d="M247.617 64.2588C247.531 64.2652 247.479 64.269 247.497 64.2678L247.408 64.7076C249.264 64.5 251.052 65.2332 252.885 65.4086C253.182 65.4385 253.273 65.0331 252.972 64.9515C251.963 64.6628 250.86 64.745 249.876 64.3331L249.736 64.7768C251.056 65.0596 252.427 65.0788 253.696 65.5908L253.836 65.1471C252.631 65.0289 251.434 64.7716 250.201 64.7421C249.923 64.7282 249.936 65.1431 250.167 65.2126C251.616 65.5898 253.124 65.5987 254.574 65.9759L254.661 65.5189C253.378 65.2852 252.001 64.9373 250.702 65.19C250.497 65.2226 250.382 65.5431 250.614 65.6298C251.881 66.1246 253.254 66.1782 254.559 66.4796C254.858 66.5439 254.946 66.0868 254.646 66.0225C253.694 65.7989 252.658 65.6161 251.664 65.7768C251.424 65.812 251.376 66.0929 251.576 66.2166C252.338 66.6797 253.336 66.8133 254.224 66.8685C254.468 66.8849 254.649 66.5249 254.364 66.4248C253.794 66.2074 253.18 66.1144 252.588 66.0719C251.995 66.0294 251.334 65.9921 250.74 66.1576C250.57 66.205 250.536 66.4501 250.666 66.5617C251.569 67.2916 252.902 67.0363 253.947 67.3397L254.035 66.8826C253.337 66.8306 252.655 66.7428 251.972 66.8803C251.768 66.9302 251.79 67.2232 251.952 67.315C252.691 67.6932 253.61 67.6941 254.424 67.6854L254.389 67.2201C253.62 67.3641 252.852 67.0574 252.09 67.3047C251.905 67.3706 251.875 67.6674 252.071 67.7394C252.712 67.9689 253.395 68.074 254.069 68.0411C254.345 68.0206 254.35 67.6216 254.103 67.5707C253.54 67.4566 252.706 67.4321 252.29 67.8964C252.177 68.0088 252.243 68.1945 252.369 68.2544C253.02 68.6218 253.775 68.5136 254.504 68.5286C254.764 68.5266 254.8 68.0906 254.538 68.0581C253.821 67.9729 252.964 67.8635 252.357 68.3246C252.259 68.4013 252.217 68.543 252.295 68.6585C252.793 69.2972 253.687 69.196 254.383 69.0055C254.553 68.9582 254.587 68.713 254.457 68.6014C254.034 68.269 253.596 68.4403 253.182 68.6964C253.016 68.7954 253.067 69.0169 253.213 69.11C253.612 69.3575 254.107 69.2513 254.429 68.9154C254.524 68.8043 254.492 68.5988 254.35 68.5574C253.938 68.3801 253.495 68.4824 253.192 68.8343C253.08 68.9639 253.149 69.1841 253.325 69.2229C253.994 69.3637 254.983 68.9088 255.228 68.2493C255.486 67.5196 254.798 66.895 254.139 67.36C254.041 67.4366 254.017 67.5771 254.078 67.6939C254.412 68.2235 255.646 68.2702 255.763 67.5163C255.88 66.7624 254.756 66.5689 254.256 66.8314C254.089 66.9132 254.05 67.0894 254.182 67.2355C254.503 67.5928 255.502 67.7437 255.539 67.0651C255.584 66.2819 254.529 66.3085 254.013 66.3643C253.824 66.3784 253.705 66.6472 253.87 66.7735C254.327 67.0861 255.469 67.2956 255.279 66.3739C255.139 65.6565 254.056 65.5466 253.483 65.7626C253.332 65.8259 253.292 65.9848 253.371 66.1175C253.651 66.6166 254.184 66.5595 254.66 66.4374C254.779 66.4112 254.854 66.2497 254.81 66.1316C254.565 65.63 254.005 65.3251 253.463 65.2615C253.288 65.2399 253.126 65.3906 253.192 65.5763C253.363 66.0141 254.503 66.6571 254.636 65.8846C254.711 65.4978 254.324 65.1801 254.003 65.0653C253.594 64.9225 253.09 64.9081 252.709 65.1444C252.559 65.2249 252.58 65.5006 252.74 65.558C253.078 65.6715 253.718 65.6584 253.522 65.1185C253.303 64.5109 252.395 64.4226 251.859 64.428C251.6 64.4472 251.589 64.76 251.77 64.8678C252.114 65.0674 252.479 65.0749 252.874 65.0282C253.046 65.0153 253.169 64.7982 253.055 64.6681C252.555 64.0121 251.575 63.8772 250.832 64.1405C250.646 64.2064 250.615 64.486 250.812 64.5752C251.316 64.815 251.892 64.876 252.441 64.8005C252.682 64.7825 252.728 64.4672 252.529 64.3606C251.931 64.0066 251.194 63.8882 250.504 63.9224C250.366 63.9327 250.24 64.098 250.302 64.232C250.53 64.7349 251.12 64.743 251.606 64.7587C251.814 64.7605 251.896 64.4599 251.749 64.3495C250.866 63.6701 249.568 63.9228 248.533 63.9826C247.998 64.0224 247.464 64.0622 246.935 64.171C246.644 64.2273 246.13 64.3003 246.017 64.638C245.959 64.7982 246.043 64.9999 246.249 64.9673C247.607 64.8141 249.092 64.7381 250.377 65.2488L250.466 64.809C249.893 64.7997 249.316 64.7214 248.74 64.6776C248.444 64.6478 248.339 65.1061 248.653 65.1347C249.354 65.2384 250.027 65.4309 250.715 65.5876L250.749 65.1172C250.35 65.1123 249.964 65.0543 249.563 65.0149C249.266 64.9851 249.175 65.3904 249.475 65.472C249.971 65.6084 250.492 65.6216 250.976 65.8454L251.065 65.4056C250.772 65.4274 250.496 65.4479 250.212 65.5904C250.01 65.6748 250.016 65.9863 250.246 66.0385C250.827 66.1685 251.393 66.3169 251.958 66.4654L251.925 66.0173C251.466 66.1382 251.005 65.9992 250.549 66.1545C250.363 66.2204 250.332 66.5 250.529 66.5892C251.101 66.8239 251.696 66.9009 252.294 67.0123L252.328 66.5418C251.911 66.521 251.509 66.4816 251.123 66.649C250.938 66.732 250.906 66.9944 251.103 67.0837C251.624 67.3222 252.189 67.4707 252.763 67.4972C253.059 67.5098 253.165 67.0687 252.85 67.0401C252.293 66.9951 251.756 67.0004 251.275 67.2962C251.142 67.3754 251.141 67.5835 251.25 67.6619C251.709 68.009 252.28 67.9838 252.819 68.0129C253.115 68.0256 253.222 67.6017 252.906 67.5559C252.432 67.4699 252.004 67.5365 251.57 67.7594C251.402 67.8412 251.456 68.0972 251.6 68.1731C252.318 68.5008 253.126 68.406 253.889 68.4184L253.854 67.9531C253.423 67.9852 252.994 68.0346 252.61 68.2364C252.443 68.3182 252.376 68.5831 252.591 68.6711C252.948 68.8178 253.293 68.7921 253.66 68.8341L253.576 68.4071C253.461 68.485 253.381 68.5776 253.265 68.6555C253.134 68.752 253.117 68.9958 253.296 69.0691C253.509 69.1399 253.702 69.1602 253.927 69.1608C254.237 69.1377 254.525 69.0469 254.768 69.2887C254.842 69.3525 254.982 69.3595 255.047 69.3026C255.903 68.7016 255.737 67.8648 255.345 67.0275C255.263 66.8603 255.183 66.7104 255.084 66.5445C254.966 66.3626 254.927 66.2962 254.93 66.1054C254.922 66.002 254.985 65.9107 254.977 65.8073C254.945 65.3764 254.479 65.1685 254.108 65.0749C253.808 65.0105 253.721 65.4676 254.021 65.5319C254.232 65.5854 254.48 65.6536 254.499 65.9122C254.508 66.0328 254.433 66.1771 254.442 66.2977C254.465 66.6079 254.703 66.7808 254.844 67.0476C255.169 67.6819 255.502 68.4369 254.793 68.9229L255.071 68.9369C254.585 68.4532 254.043 68.8575 253.492 68.6733L253.523 69.0869C253.638 69.009 253.718 68.9164 253.834 68.8385C253.982 68.7407 253.959 68.4305 253.75 68.4115C253.436 68.3829 253.092 68.4258 252.788 68.2925L252.768 68.7272C253.119 68.5452 253.498 68.5169 253.893 68.4701C254.203 68.447 254.152 68.0002 253.858 68.0048C253.181 67.986 252.444 68.0929 251.816 67.8104L251.847 68.224C252.164 68.0617 252.491 68.0373 252.825 68.0991L252.913 67.642C252.478 67.6224 251.91 67.6821 251.56 67.3962L251.535 67.762C251.916 67.5257 252.334 67.5465 252.752 67.5847L252.84 67.1276C252.3 67.0985 251.772 66.9819 251.286 66.7408L251.266 67.1755C251.619 67.0279 251.986 67.0699 252.352 67.0946C252.613 67.1098 252.633 66.6751 252.386 66.6242C251.824 66.5274 251.265 66.4651 250.746 66.2438L250.727 66.6785C251.166 66.5245 251.644 66.6621 252.103 66.5413C252.34 66.4716 252.264 66.148 252.069 66.0932C251.502 65.9275 250.937 65.779 250.356 65.6663L250.39 66.1144C250.625 66.0102 250.865 65.975 251.106 65.957C251.33 65.9404 251.409 65.6052 251.195 65.5172C250.674 65.2787 250.119 65.2681 249.588 65.1171L249.5 65.5741C249.938 65.6282 250.375 65.6823 250.808 65.6846C251.087 65.6985 251.073 65.2836 250.843 65.2142C250.154 65.0402 249.481 64.8477 248.781 64.7612L248.694 65.2183C249.305 65.2768 249.917 65.3525 250.541 65.3579C250.767 65.3585 250.843 64.9888 250.63 64.9181C249.254 64.3621 247.699 64.426 246.255 64.5855L246.488 64.9148C246.559 64.7016 247.249 64.6674 247.438 64.6361C247.85 64.588 248.279 64.5387 248.694 64.5251C249.556 64.4609 250.751 64.2159 251.487 64.7849L251.629 64.3757C251.421 64.3739 250.903 64.3952 250.799 64.1603L250.597 64.47C251.217 64.4238 251.849 64.5326 252.393 64.856L252.482 64.4162C252.019 64.4853 251.53 64.4351 251.1 64.2419L251.08 64.6766C251.603 64.4817 252.387 64.5445 252.752 65.0199L252.933 64.6598C252.623 64.6829 252.347 64.7035 252.074 64.5332L251.986 64.973C252.21 64.9563 252.454 64.9728 252.667 65.0436C252.809 65.085 252.935 65.145 253.063 65.2394C253.195 65.3855 253.194 65.3682 253.06 65.2049L253.091 65.6185C253.407 65.439 254.035 65.4962 254.249 65.8095C254.289 65.8759 254.355 65.8362 254.252 65.844C254.2 65.8478 254.129 65.8185 254.076 65.8051C253.933 65.7464 253.804 65.652 253.741 65.5008L253.47 65.8156C253.82 65.8588 254.3 66.031 254.465 66.3826L254.616 66.0768C254.344 66.149 254.039 66.2411 253.86 65.9424L253.748 66.2974C254.035 66.1894 254.47 66.209 254.724 66.3633C254.905 66.4711 255.005 66.6543 254.749 66.708C254.611 66.7183 254.377 66.5971 254.269 66.5359L254.126 66.9451C254.384 66.9258 254.744 66.8644 254.978 66.9856C255.177 67.0921 255.133 67.1993 254.923 67.1803C254.784 67.1733 254.657 67.0961 254.563 66.9992L254.489 67.4032C254.672 67.3029 255.172 67.2657 255.325 67.4622C255.539 67.7756 254.711 67.82 254.553 67.5545L254.491 67.8884C254.72 67.7153 254.94 67.8722 254.892 68.1531C254.855 68.3637 254.675 68.4985 254.51 68.6148C254.23 68.8089 253.843 68.9591 253.509 68.8973L253.642 69.286C253.784 69.1021 254.004 69.0337 254.236 69.1204L254.157 68.7624C253.981 68.9488 253.722 68.9681 253.505 68.8456L253.536 69.2592C253.735 69.1404 254.016 68.9635 254.237 69.1377L254.311 68.7336C253.852 68.8544 253.119 69.013 252.774 68.5708L252.712 68.9047C253.221 68.5202 253.957 68.6386 254.534 68.6996L254.568 68.2292C253.927 68.225 253.258 68.3268 252.678 67.9887L252.757 68.3468C253.046 68.0307 253.744 68.1 254.131 68.1751L254.165 67.7047C253.577 67.7139 252.964 67.6382 252.412 67.4367L252.392 67.8714C253.103 67.6451 253.854 67.9531 254.572 67.813C254.862 67.7567 254.849 67.3418 254.537 67.3477C253.809 67.3499 252.978 67.3599 252.294 67.0123L252.274 67.447C252.871 67.3159 253.486 67.426 254.095 67.4673C254.391 67.4799 254.483 67.0918 254.183 67.0102C253.226 66.7349 251.911 66.9888 251.117 66.3375L251.043 66.7416C251.587 66.5971 252.195 66.6211 252.755 66.6834C253.261 66.7323 253.82 66.7946 254.302 66.984L254.442 66.5403C253.606 66.4813 252.645 66.3796 251.919 65.9312L251.83 66.371C252.773 66.2314 253.756 66.4008 254.673 66.6097L254.76 66.1527C253.491 65.866 252.153 65.827 250.922 65.3469L250.833 65.7867C252.098 65.5538 253.423 65.8884 254.67 66.1074C254.968 66.1545 255.057 65.7147 254.757 65.6503C253.308 65.2731 251.801 65.2814 250.35 64.8869L250.316 65.3574C251.497 65.3907 252.642 65.6347 253.812 65.7554C254.057 65.7891 254.221 65.4303 253.952 65.3117C252.648 64.7851 251.241 64.7512 249.885 64.4537C249.621 64.4041 249.494 64.7948 249.745 64.8974C250.781 65.3227 251.903 65.2565 252.965 65.5586L253.053 65.1015C251.184 64.9115 249.362 64.1808 247.454 64.3922C247.23 64.4089 247.15 64.7269 247.365 64.8321C247.51 64.908 247.577 64.8856 247.733 64.874C248.043 64.8509 248.008 64.3856 247.698 64.4087L247.617 64.2588Z" fill="#464546"/>
<path d="M211.466 59.6047C213.075 59.5714 215.048 59.5284 216.299 60.7349C216.522 60.9436 216.825 60.5917 216.602 60.3831C215.257 59.0796 213.161 59.0971 211.431 59.1394C211.121 59.1625 211.172 59.6093 211.466 59.6047Z" fill="#464546"/>
<path d="M211.547 59.2872C213.099 58.721 214.739 58.4081 216.39 58.4585C217.935 58.4993 220.04 58.845 221.073 60.1371C221.933 61.2167 221.485 63.8149 219.764 63.7352C218.929 63.6934 218.153 63.058 217.672 62.418C217.153 61.7289 217.035 60.8365 216.515 60.1474C216.341 59.9004 215.945 60.1725 216.12 60.4195C216.621 61.0927 216.736 61.9505 217.239 62.641C217.644 63.1999 218.182 63.6797 218.829 63.9782C220.031 64.5298 221.189 64.0276 221.706 62.8279C222.236 61.5581 221.995 60.1897 220.874 59.3374C219.754 58.4851 218.096 58.106 216.67 58.039C214.878 57.9472 213.083 58.2716 211.395 58.8826C211.109 58.9906 211.263 59.4297 211.549 59.3217L211.547 59.2872Z" fill="#464546"/>
<path d="M213.507 58.6211C213.421 58.6275 213.369 58.6313 213.386 58.6301L213.298 59.0699C215.154 58.8623 216.942 59.5955 218.774 59.7709C219.071 59.8008 219.162 59.3954 218.862 59.3138C217.852 59.0251 216.749 59.1073 215.766 58.6954L215.625 59.1391C216.946 59.4219 218.317 59.4411 219.585 59.9531L219.726 59.5094C218.521 59.3912 217.323 59.1339 216.091 59.1044C215.812 59.0905 215.826 59.5054 216.056 59.5749C217.506 59.9521 219.014 59.961 220.463 60.3382L220.55 59.8812C219.268 59.6475 217.89 59.2996 216.592 59.5523C216.386 59.5849 216.272 59.9054 216.503 59.9921C217.771 60.4869 219.144 60.5405 220.449 60.8419C220.748 60.9062 220.835 60.4492 220.536 60.3848C219.583 60.1612 218.547 59.9784 217.554 60.1391C217.314 60.1743 217.266 60.4552 217.466 60.5789C218.228 61.042 219.226 61.1756 220.114 61.2308C220.358 61.2473 220.539 60.8872 220.254 60.7871C219.683 60.5697 219.07 60.4767 218.477 60.4342C217.885 60.3917 217.224 60.3544 216.629 60.5199C216.46 60.5673 216.426 60.8124 216.555 60.924C217.459 61.6539 218.792 61.3986 219.837 61.702L219.924 61.2449C219.227 61.1929 218.545 61.1051 217.862 61.2426C217.657 61.2925 217.679 61.5855 217.842 61.6773C218.581 62.0555 219.499 62.0564 220.313 62.0477L220.279 61.5824C219.509 61.7264 218.741 61.4197 217.98 61.667C217.794 61.7329 217.764 62.0297 217.96 62.1017C218.601 62.3312 219.285 62.4363 219.958 62.4034C220.234 62.3829 220.239 61.9839 219.993 61.933C219.43 61.819 218.596 61.7944 218.18 62.2587C218.067 62.3711 218.133 62.5568 218.259 62.6167C218.91 62.9841 219.664 62.8759 220.393 62.8909C220.653 62.8889 220.69 62.4529 220.428 62.4204C219.711 62.3352 218.853 62.2258 218.247 62.6869C218.148 62.7636 218.107 62.9053 218.185 63.0208C218.683 63.6595 219.577 63.5583 220.273 63.3678C220.443 63.3205 220.476 63.0753 220.347 62.9637C219.923 62.6313 219.486 62.8026 219.071 63.0587C218.906 63.1577 218.957 63.3792 219.102 63.4723C219.502 63.7198 219.997 63.6136 220.318 63.2777C220.414 63.1666 220.381 62.9611 220.24 62.9197C219.828 62.7424 219.385 62.8447 219.082 63.1966C218.97 63.3262 219.038 63.5464 219.215 63.5853C219.884 63.726 220.872 63.2711 221.118 62.6116C221.375 61.8819 220.688 61.2573 220.029 61.7223C219.931 61.7989 219.907 61.9394 219.967 62.0562C220.301 62.5858 221.535 62.6325 221.652 61.8786C221.77 61.1247 220.646 60.9312 220.146 61.1937C219.978 61.2755 219.94 61.4517 220.072 61.5978C220.393 61.9551 221.392 62.106 221.428 61.4274C221.474 60.6442 220.419 60.6708 219.903 60.7266C219.713 60.7407 219.595 61.0095 219.76 61.1358C220.217 61.4484 221.359 61.6579 221.169 60.7362C221.029 60.0188 219.946 59.9089 219.373 60.1249C219.222 60.1882 219.181 60.3471 219.261 60.4798C219.54 60.9789 220.073 60.9218 220.55 60.7997C220.669 60.7735 220.744 60.612 220.7 60.4939C220.455 59.9923 219.895 59.6874 219.353 59.6238C219.178 59.6022 219.016 59.7529 219.082 59.9386C219.253 60.3764 220.393 61.0194 220.526 60.2469C220.601 59.8601 220.213 59.5424 219.893 59.4276C219.483 59.2848 218.98 59.2704 218.599 59.5067C218.449 59.5872 218.469 59.8629 218.63 59.9203C218.967 60.0338 219.608 60.0207 219.411 59.4808C219.193 58.8732 218.285 58.7849 217.748 58.7903C217.49 58.8095 217.478 59.1223 217.66 59.2301C218.004 59.4297 218.368 59.4372 218.763 59.3905C218.936 59.3776 219.058 59.1605 218.945 59.0304C218.445 58.3744 217.465 58.2395 216.722 58.5028C216.536 58.5687 216.505 58.8483 216.702 58.9375C217.205 59.1773 217.782 59.2383 218.331 59.1628C218.572 59.1448 218.618 58.8295 218.419 58.7229C217.821 58.3689 217.084 58.2505 216.393 58.2847C216.256 58.295 216.129 58.4603 216.191 58.5944C216.419 59.0972 217.009 59.1053 217.496 59.121C217.704 59.1228 217.785 58.8222 217.638 58.7118C216.756 58.0324 215.458 58.2851 214.422 58.3449C213.888 58.3847 213.354 58.4245 212.825 58.5333C212.534 58.5896 212.02 58.6626 211.906 59.0003C211.849 59.1605 211.933 59.3622 212.139 59.3296C213.496 59.1764 214.981 59.1004 216.267 59.6112L216.356 59.1713C215.783 59.162 215.205 59.0837 214.63 59.0399C214.333 59.0101 214.229 59.4684 214.543 59.497C215.244 59.6008 215.917 59.7932 216.604 59.9499L216.638 59.4795C216.239 59.4746 215.854 59.4166 215.452 59.3772C215.156 59.3474 215.064 59.7527 215.365 59.8343C215.861 59.9707 216.381 59.9839 216.866 60.2077L216.955 59.7679C216.662 59.7897 216.386 59.8102 216.102 59.9527C215.9 60.0371 215.906 60.3486 216.135 60.4008C216.717 60.5308 217.282 60.6792 217.848 60.8277L217.815 60.3796C217.356 60.5005 216.895 60.3615 216.438 60.5168C216.253 60.5827 216.222 60.8623 216.419 60.9515C216.991 61.1862 217.586 61.2632 218.183 61.3746L218.218 60.9041C217.8 60.8833 217.399 60.8439 217.013 61.0113C216.828 61.0943 216.796 61.3567 216.993 61.446C217.513 61.6845 218.079 61.833 218.653 61.8595C218.948 61.8721 219.054 61.431 218.74 61.4024C218.182 61.3574 217.645 61.3627 217.165 61.6585C217.032 61.7377 217.03 61.9458 217.14 62.0242C217.599 62.3713 218.169 62.3461 218.709 62.3752C219.004 62.3879 219.111 61.964 218.796 61.9182C218.322 61.8322 217.893 61.8988 217.459 62.1217C217.292 62.2035 217.346 62.4595 217.49 62.5354C218.208 62.8631 219.015 62.7683 219.779 62.7807L219.744 62.3154C219.313 62.3475 218.884 62.3969 218.5 62.5987C218.333 62.6805 218.266 62.9454 218.48 63.0334C218.838 63.1801 219.183 63.1544 219.55 63.1964L219.466 62.7694C219.35 62.8473 219.271 62.9399 219.155 63.0178C219.024 63.1143 219.007 63.3581 219.186 63.4314C219.399 63.5022 219.591 63.5225 219.817 63.5231C220.127 63.5 220.415 63.4092 220.658 63.651C220.732 63.7148 220.871 63.7218 220.936 63.6649C221.793 63.0639 221.626 62.2271 221.235 61.3898C221.153 61.2226 221.072 61.0727 220.973 60.9068C220.856 60.7249 220.816 60.6585 220.819 60.4677C220.812 60.3643 220.874 60.273 220.867 60.1696C220.834 59.7387 220.368 59.5308 219.997 59.4372C219.698 59.3728 219.611 59.8299 219.91 59.8942C220.122 59.9478 220.37 60.0159 220.389 60.2745C220.398 60.3951 220.322 60.5394 220.331 60.66C220.354 60.9702 220.592 61.1431 220.734 61.4099C221.058 62.0442 221.392 62.7992 220.683 63.2852L220.961 63.2992C220.474 62.8155 219.933 63.2198 219.382 63.0356L219.413 63.4492C219.528 63.3713 219.608 63.2787 219.723 63.2008C219.872 63.103 219.849 62.7928 219.639 62.7738C219.325 62.7452 218.982 62.7881 218.677 62.6548L218.658 63.0895C219.008 62.9075 219.387 62.8792 219.782 62.8324C220.093 62.8093 220.042 62.3625 219.748 62.3671C219.071 62.3483 218.333 62.4552 217.706 62.1727L217.736 62.5863C218.054 62.424 218.381 62.3996 218.715 62.4614L218.802 62.0043C218.368 61.9847 217.8 62.0444 217.45 61.7585L217.425 62.1243C217.806 61.888 218.223 61.9088 218.642 61.947L218.729 61.4899C218.19 61.4608 217.661 61.3442 217.175 61.1031L217.156 61.5378C217.509 61.3902 217.876 61.4322 218.242 61.4569C218.503 61.4721 218.522 61.0374 218.276 60.9865C217.714 60.8897 217.155 60.8274 216.636 60.6061L216.616 61.0408C217.055 60.8868 217.533 61.0245 217.992 60.9036C218.23 60.8339 218.154 60.5103 217.959 60.4555C217.392 60.2898 216.826 60.1413 216.246 60.0286L216.28 60.4767C216.514 60.3725 216.754 60.3373 216.996 60.3194C217.22 60.3027 217.299 59.9675 217.084 59.8795C216.564 59.641 216.008 59.6304 215.477 59.4794L215.39 59.9364C215.827 59.9905 216.265 60.0446 216.698 60.0469C216.976 60.0608 216.963 59.646 216.732 59.5765C216.043 59.4025 215.371 59.21 214.671 59.1235L214.584 59.5806C215.195 59.6391 215.807 59.7148 216.431 59.7202C216.656 59.7208 216.733 59.3512 216.52 59.2804C215.144 58.7244 213.589 58.7883 212.145 58.9478L212.377 59.2771C212.448 59.0639 213.139 59.0298 213.327 58.9984C213.739 58.9503 214.169 58.901 214.584 58.8874C215.446 58.8232 216.641 58.5782 217.376 59.1472L217.519 58.738C217.311 58.7362 216.793 58.7575 216.688 58.5226L216.486 58.8323C217.107 58.7861 217.739 58.895 218.283 59.2183L218.371 58.7785C217.909 58.8476 217.42 58.7974 216.989 58.6042L216.97 59.0389C217.492 58.844 218.277 58.9068 218.642 59.3822L218.823 59.0221C218.512 59.0453 218.237 59.0658 217.964 58.8955L217.876 59.3353C218.1 59.3186 218.343 59.3351 218.557 59.4059C218.698 59.4473 218.824 59.5073 218.953 59.6017C219.085 59.7478 219.083 59.7305 218.95 59.5672L218.981 59.9808C219.297 59.8013 219.925 59.8585 220.139 60.1718C220.178 60.2382 220.245 60.1986 220.141 60.2063C220.09 60.2101 220.018 60.1808 219.965 60.1674C219.822 60.1087 219.694 60.0143 219.631 59.8631L219.359 60.1779C219.709 60.2211 220.19 60.3933 220.355 60.7449L220.505 60.4391C220.233 60.5113 219.928 60.6034 219.75 60.3047L219.638 60.6597C219.924 60.5517 220.359 60.5713 220.613 60.7256C220.795 60.8334 220.895 61.0166 220.639 61.0703C220.501 61.0806 220.267 60.9594 220.158 60.8982L220.015 61.3074C220.274 61.2881 220.633 61.2267 220.868 61.3479C221.066 61.4544 221.022 61.5616 220.813 61.5426C220.674 61.5356 220.547 61.4584 220.453 61.3615L220.379 61.7656C220.562 61.6653 221.062 61.628 221.215 61.8245C221.429 62.1379 220.601 62.1823 220.442 61.9168L220.38 62.2507C220.61 62.0776 220.83 62.2345 220.781 62.5154C220.745 62.7261 220.564 62.8608 220.4 62.9771C220.12 63.1712 219.732 63.3214 219.398 63.2596L219.531 63.6483C219.674 63.4644 219.894 63.396 220.126 63.4827L220.047 63.1247C219.87 63.3111 219.612 63.3304 219.395 63.2079L219.425 63.6215C219.624 63.5027 219.906 63.3258 220.127 63.5L220.201 63.0959C219.742 63.2167 219.008 63.3753 218.664 62.9331L218.602 63.267C219.11 62.8825 219.847 63.0009 220.423 63.0619L220.458 62.5915C219.816 62.5873 219.148 62.6891 218.568 62.351L218.647 62.7091C218.935 62.393 219.634 62.4623 220.02 62.5374L220.055 62.067C219.466 62.0762 218.854 62.0005 218.302 61.799L218.282 62.2337C218.993 62.0074 219.744 62.3154 220.461 62.1753C220.752 62.119 220.738 61.7041 220.427 61.71C219.699 61.7122 218.868 61.7222 218.183 61.3746L218.164 61.8093C218.761 61.6782 219.375 61.7883 219.985 61.8296C220.281 61.8422 220.373 61.4541 220.072 61.3725C219.116 61.0972 217.8 61.3512 217.007 60.6998L216.933 61.1039C217.477 60.9594 218.085 60.9834 218.644 61.0457C219.15 61.0946 219.71 61.1569 220.192 61.3463L220.332 60.9026C219.496 60.8436 218.535 60.7419 217.808 60.2935L217.72 60.7333C218.663 60.5937 219.646 60.7631 220.562 60.972L220.65 60.515C219.38 60.2283 218.043 60.1893 216.812 59.7092L216.723 60.149C217.988 59.9161 219.313 60.2507 220.56 60.4697C220.858 60.5168 220.946 60.077 220.647 60.0126C219.198 59.6354 217.691 59.6437 216.24 59.2492L216.206 59.7197C217.387 59.753 218.531 59.997 219.702 60.1177C219.947 60.1515 220.111 59.7926 219.842 59.674C218.537 59.1474 217.131 59.1135 215.774 58.816C215.511 58.7664 215.384 59.1571 215.634 59.2597C216.671 59.685 217.793 59.6188 218.855 59.9209L218.942 59.4638C217.074 59.2738 215.252 58.5431 213.344 58.7545C213.12 58.7712 213.039 59.0892 213.255 59.1944C213.399 59.2703 213.467 59.2479 213.622 59.2364C213.932 59.2132 213.898 58.7479 213.587 58.771L213.507 58.6211Z" fill="#464546"/>
<path d="M260.943 66.8012C260.234 64.4972 259.793 62.0693 258.202 60.247C257.105 59.2542 256.076 57.7713 254.765 57.1584C253.393 56.6541 251.607 56.8739 250.121 56.9326C249.329 56.9917 248.526 57.1554 247.889 57.6708C248.393 56.9921 249.254 56.6853 250.052 56.4698C251.763 56.1691 253.364 55.7899 255.101 56.3189C255.975 56.6523 256.647 57.2955 257.211 57.8774C257.779 58.5282 258.352 59.0054 258.904 59.6747C260.527 61.6853 260.796 64.3687 260.943 66.8012Z" fill="#464546"/>
<path d="M296.607 33.973C307.456 39.7845 314.446 54.5137 307.519 65.7568C305.511 69.2684 302.427 72.7734 298.25 73.4659C302.279 72.4205 305.055 68.9731 306.925 65.4545C313.341 54.3361 306.603 40.4373 296.607 33.973Z" fill="#464546"/>
<path d="M314.538 56.6731C316.444 62.7177 313.189 71.6077 306.739 73.4227C306.295 73.5078 305.847 73.5412 305.417 73.5905C312.053 71.935 315.294 62.8727 314.555 56.6718L314.538 56.6731Z" fill="#464546"/>
</svg>
