		<svg class="svg-body" xmlns="http://www.w3.org/2000/svg" viewBox="0 0 550.78 319.38">
						<defs>
							<style>
								.cls-1 {
									fill: #fff;
								}

								.cls-2 {
									fill: #464545;
								}

								.cls-3 {
									fill: #e97d00;
								}

								.cls-4 {
									fill: #e97d22;
								}
									@keyframes eyes {
		0% {
			fill: none;
			opacity: 0;
		
		}
	
		100% {
			fill: black;
			opacity: 1;

		}
	}

	.svg-body .eyes{
		animation: eyes 7s linear infinite;
	}
							</style>
						</defs>
						<path class="cls-1"
							d="M41.95,214.31l-32.6,9.89c-1.53,.46-3.36,.87-4.57-.16-1.1-.94-1.13-2.6-1.07-4.05l.96-22.76c.26-6.19,2.04-14.14,8.19-14.89,4.49-.55,8.17,3.4,12.48,4.79,3.26,1.06,6.79,.61,10.19,.14l73.65-10.02c2.05-.28,4.25-.63,5.75-2.06,2.16-2.07,2.01-5.48,2.18-8.47,.8-14.27,7.75-31.26,19.04-40.03,17.92-13.91,39.09-25.35,61.77-25.46,22.72-.11,47.95,16.64,69.06,25.04,23.55,9.37,48.35,15.57,73.54,18.39,2.6-4.44-1.54-10.02-6.2-12.19-4.66-2.18-10.16-2.78-14.08-6.11-3.16-2.69-4.78-6.74-6.11-10.68-3.23-9.52-5.53-19.35-6.85-29.32-1.03-7.8-1.31-16.32,3.04-22.87,4.41-6.65,12.59-9.71,20.44-11.12,14.16-2.54,28.71-1.02,43.01,.52,33.8,3.63,68.27,7.47,99.19,21.58,14.32,6.54,27.67,15.21,39.46,25.64,3.25,2.88,6.44,5.96,8.52,9.77,7.55,13.87-2.45,31.29-15.27,40.51-12.82,9.22-28.6,14.19-40.13,24.98,4.46,1.03,6.27,6.44,6.38,11.02,.12,4.58-.55,9.54,1.92,13.4,1.91,2.99,5.31,4.62,7.95,6.98,10.24,9.16,6.02,27.33-4.75,35.85-10.77,8.53-25.32,10.06-39.02,11.2-17.37,1.45-36.07,2.5-50.97-6.54-10.8,.42-9.92,20.19-20.29,23.21-2.94,.86-6.08,.05-9.05-.72-21.36-5.53-43.25-8.95-65.28-10.21-42.21-2.41-86.36,2.83-125.31-13.61-2.8-1.18-5.73-2.5-8.75-2.12-2.9,.37-5.36,2.25-7.63,4.09-12.24,9.92-25.12,21.23-40.85,22-12.53,.61-24.2-5.66-36.17-9.38-11.98-3.72-26.98-4.08-34.98,5.58-4.25,5.12-5.74,12.27-10.59,16.82-5.66,5.3-15.43,5.34-21.14,.1-10.11-9.28-4.19-25.9,2.33-37.97l12.66-23.4" />
						<path class="cls-4"
							d="M133.37,135.42c12.1,5.59,28.04,.44,30.61,18.65,2.01,14.27-6.84,32.42-16.95,41.5-6.51,5.84-14.03,9.17-19.47,16.32-4.24,5.57-12.61,13.85-18.68,5.6-8.62-11.73-1.17-30.89,2.84-42.65,1.77-5.21,14.53-46.13,23.69-37.9" />
						<path class="cls-4"
							d="M275.3,126.26c-9.27-2.76-20.39-4.07-27.59-11.08-3.97,.17-7.87,.61-10.85,1.38l5.61-.51c-17.41,5.06-15.74,26.99-1.53,34.88,7.84,4.35,11.99,.89,19.88,.29,7.06-.54,13.25,4.17,20.15,5.06,3.18,.41,8.8-.09,11.16-2.48,4.16-4.22-1.07-7.48-3.26-11.24,4.98-4.88,13.44,2.05,19.34,0,3.48-1.21,4.18-3.11,3.44-5.17-12.66-1.61-24.14-7.52-36.34-11.14Z" />
						<path class="cls-2"
							d="M334.19,145.93c-1.26,6.72-2.08,13.49-1.29,20.1,.67,6.76,3.62,12.98,5.16,19.54,2.41,9.97,4.76,19.68,10.77,28.02,1.89,2.78,4.03,5.41,6.61,7.66-2.98-1.72-5.51-4.16-7.78-6.77-7.04-7.78-10.12-18.34-12.5-28.17-1.51-6.71-4.41-13.14-4.58-20.1-.38-7.02,1.17-13.92,3.61-20.29h0Z" />
						<path class="cls-2" d="M373.32,226.15c1.39-2.75,4.17-4.76,7.34-4.08-1.2,2.88-4.19,4.97-7.34,4.08h0Z" />
						<g>
							<g>
								<path class="cls-1"
									d="M349.09,226.66c.57-7.18,5.48-8.91,11.24-8.24,6.63,.78,10.49,4.47,14.41,12.04,3.18,6.14,5.39,15.1,1.53,18.84-3.06,2.96-11.13,2.91-15.89-.31-2.69-1.82-13.53-22.29-10.19-23.11" />
								<path class="cls-2"
									d="M349.09,226.66c-.12-10.6,13.12-10.72,19.57-5.62,7.63,5.95,18.42,29.86,2.2,31.2-3.77,.29-7.69-.46-10.84-2.59-3.39-3.43-5.17-8-7.29-12.17-.77-2.03-4.84-10.4-2.53-11.62-2.08,1.25,2.51,9.36,3.37,11.21,2.17,3.9,4.19,8.2,7.3,11.31,2.9,1.77,6.47,2.47,9.83,2.14,13.81-.93,3.14-23.43-2.95-28.35-4.01-3.43-12.25-5.15-16.38-1.05-1.38,1.46-1.98,3.52-2.28,5.53h0Z" />
							</g>
							<g>
								<path class="cls-2"
									d="M367.99,237.03l.03-.03c.63-.69,.97-1.65,1.07-2.71,.1-1.08-.06-2.27-.42-3.45-.5-1.63-1.42-3.27-2.69-4.53-1.26-1.27-2.85-2.11-4.54-2.21h-.09l-2.77,.16c-2.16,.13-3.19,2.57-2.3,5.46l3.99,12.91c.21,.67,.76,1.25,1.29,1.29,.6,.04,.9-.59,.66-1.35h0l-4.01-12.97c-.23-.74-.21-1.4,0-1.91,.21-.5,.61-.83,1.16-.86l2.7-.16s.04,0,.06,0c1.21,.1,2.16,.65,2.92,1.4,.77,.77,1.36,1.8,1.69,2.86,.24,.76,.33,1.54,.27,2.21-.06,.68-.27,1.25-.66,1.68l-.05,.06h-.01s-.04,.06-.08,.1h0l1.79,2.03Z" />
								<polygon class="cls-2"
									points="366.2 235 367.99 237.03 367.99 237.03 366.2 235 366.2 235 360.75 228.85 366.2 235" />
								<path class="cls-2"
									d="M361.93,235.24h0c-.53,.03-.79,.63-.57,1.34,.22,.71,.83,1.27,1.36,1.24,0,0,2.82-.16,3.28-.19l-2.21-2.5c-1.04,.06-1.85,.11-1.86,.11Z" />
								<path class="cls-2"
									d="M372.03,241.7c-.08-.16-.18-.32-.3-.46l-3.73-4.21-1.8-2.03-5.45-6.15c-.3-.33-.65-.5-.94-.48-.2,.01-.37,.1-.49,.28-.19,.28-.2,.7-.06,1.11,.06,.17,.14,.33,.24,.48,.05,.08,.11,.15,.17,.22l4.13,4.66,2.21,2.5,4.63,5.23c.07,.08,.15,.16,.23,.22,.08,.06,.16,.11,.24,.15,.16,.08,.32,.12,.47,.11,.1,0,.19-.03,.28-.08,.08-.05,.16-.11,.22-.2,.11-.17,.16-.39,.15-.62,0-.24-.08-.49-.2-.74Z" />
							</g>
						</g>
						<g>
							<g>
								<path class="cls-2"
									d="M27.02,220.16c-2.89,5.16-8.17,9.67-14.49,9.5-6.38,.15-11.99-5.78-11.66-11.99,5.7,12.98,17.02,10.13,26.16,2.49h0Z" />
								<path class="cls-2"
									d="M22.66,207.09c-3.57,11.34-17.34,7.92-20.36-1.92,1.69,1.42,3.29,2.7,4.97,3.76,5.61,3.75,10.64,2.85,15.4-1.85h0Z" />
								<path class="cls-2"
									d="M106.7,185.4c-11.71-.15-28.56,1.05-40.4,1.75-6.75,.34-13.53,.6-20.32,.4-6.57-.57-12.85,2.26-19.1,4.83,4.27-2.78,8.81-5.43,13.87-6.61,8.43-1.15,16.89-.88,25.39-1.62,13.47-.66,27.21-1.25,40.56,1.24h0Z" />
								<path class="cls-2"
									d="M26.88,190.37c-.55-1.1-1.44-1.74-2.4-2.26-2.94-1.51-6.35-2.26-9.56-2.84-5.19-1.02-7.76,.48-10.75,4.82,.14-1.21,.48-2.39,1-3.54,1.6-3.91,6.43-5.03,10.21-4.24,4.09,.77,11.29,3.14,11.5,8.06h0Z" />
							</g>
							<path class="cls-2" d="M4.78,188.71c.3,5.27,.05,10.13-.83,15.34-3.27-4.43-2.88-11.28,.83-15.34h0Z" />
							<path class="cls-2" d="M2.89,212.51c1.1,3.52,1.73,6.43,2.06,10.11-3.98-1.33-5.2-7.33-2.06-10.11h0Z" />
						</g>
						<path class="cls-2"
							d="M179.63,210.45c-10.51,22.85-34.16,50.92-58.99,58.31-14.21,4.15-28.49-2.55-41.37-7.68-12.33-4.86-28.63-7.97-39.07,2.28,9.78-11.4,27.22-9.1,39.88-4.48,12.85,4.5,26.07,10.95,39.8,6.98,23.65-6.95,47.79-34.36,59.76-55.42h0Z" />
						<path class="cls-2"
							d="M96.65,208.3c-2.89,6.19-9.58,9.67-16.1,10.85-13.34,2.3-26.07-4.2-39.3-3.01-14.68,.77-20.34,12.99-25.47,25.07-2.72,6.02-5.4,12.07-8.17,18.07-1.2,2.93-5.17,10.42-5.78,13.44-1.33,5.22,4.76,7.84,8.97,5.95,2.98-1.21,5.33-3.69,7.58-6.08-2.01,2.59-4.13,5.29-7.26,6.8-5.12,2.62-12.22-.55-10.99-6.96,.51-3.44,4.1-10.78,5.33-14.09,2.52-6.11,5.14-12.18,7.72-18.27,5.3-13.07,11.69-26,27.84-26.75,13.51-1.04,26.01,5.87,39.3,4.39,6.4-.72,12.91-3.67,16.31-9.41h0Z" />
						<path class="cls-2" d="M22.08,279.23c-.56,3.01-3.26,5.6-6.3,6,2.4-1.91,4.28-3.69,6.3-6h0Z" />
						<path class="cls-2" d="M32.39,276.44c.39,8.13-8.06,15.66-16.09,14.3,6.89-3.03,12.28-7.8,16.09-14.3h0Z" />
						<path class="cls-2" d="M7.95,281.82c3.38,3.09,6.51,5.32,10.52,7.53-4.74,2.23-11.09-2.33-10.52-7.53h0Z" />
						<path class="cls-2"
							d="M101.97,199.95c3.43-7.22,11.41-23.07,14.6-30.04,4.03-10.44,6.15-21.39,10.85-31.68,13.88-24.64,50.92-39.06,78.29-37.06,22.53,2.69,41.55,17.08,62.67,23.4,28.54,8,56.6,18.37,86.17,21.8,14.71,1.93,29.57,2.57,44.41,3.19-29.75,.41-59.75-1.91-88.46-10.13-14.41-3.78-28.53-8.29-42.89-12.24-21.55-6.31-39.96-20.2-62.22-23.19-26.28-2.05-62.43,11.8-76.27,35.05-4.77,9.94-7.15,21.08-11.5,31.3-3.44,6.96-11.96,22.58-15.64,29.6h0Z" />
						<path class="cls-2"
							d="M174.34,247.33c7.86,5.1,17.43,5.25,26.49,5.6,9.19,.38,18.37,.79,27.55,1.25,27.51,.98,54.98,3.93,82.5,4.04,27.49-.54,54.93-3.98,81.61-10.89-28.46,9.24-58.56,13.54-88.48,13.77-25.3-.64-50.54-2.87-75.77-4.53-9.17-.67-18.33-1.39-27.5-2.13-9.02-.81-18.93-1.41-26.4-7.11h0Z" />
						<g>
							<g>
								<path class="cls-1"
									d="M520.74,103.49c-9.88-15.24-28.58-20.62-43.51-29.34-5.43-3.17-10.79-6.33-16.62-8.74-6.46-2.68-13.4-4.44-20.09-6.5-13.99-4.3-28.18-6.31-42.73-7.63-6.32-.57-12.28-1.61-18.37-3.45-5.99-1.81-11.87-3.77-18.07-4.73-12.03-1.86-24.22-.63-35.53,3.94-5.12,2.07-9.76,4.91-14.08,8.31-.96,.5-1.78,1.21-2.4,2.13-1.42,1.76-1.67,3.75-1.17,5.58,.11,13.05-1.11,26.5,4.05,38.78,.88,2.08,2.06,4.31,2.2,6.62,.14,2.3-.66,4.62-.76,6.91-.27,6.38,3.44,11.56,8.55,15.01,3.63,2.45,8,3.39,12.32,3.43,1.55,.01,3.09-.07,4.64,0,.03,0,.09,0,.15,.02,.09,.02,.17,.05,.24,.07h0c2.69,2.77,1.47,10.82,2.38,15.25,1.02,4.98,3.76,8.67,3.56,13.75-.38,9.54-1.88,18.69,1.1,28.02,2.41,7.55,6.71,14.35,12.8,19.46,12.31,10.32,29.09,13.45,44.65,10.24,18.01-3.71,32.07-16.03,38.73-33,1.8-4.58,3.38-10.46,7.7-13.4,3.62-2.46,8.29-1.17,12.39-1.19,12.67-.06,22.91-8.71,32.53-15.96,9.42-7.09,20.91-12.61,26.42-23.63,4.75-9.48,4.74-20.91-1.11-29.93Z" />
								<path class="cls-2"
									d="M347.44,164.88c-3.29,5.39-1.02,12.06,.4,17.72l2.59,8.82c4.81,14.04,17.48,25.84,32.42,27.96,11.88,2.04,24.39-.18,35.11-5.59,8.14-4.16,16.21-8.92,20.76-17.1,1.46-2.59,3.21-5.4,2.96-8.49,.5,3.09-1.09,6.1-2.44,8.78-4.07,8.59-12.45,13.91-20.46,18.32-10.96,5.98-23.98,8.22-36.3,6.28-15.52-2.38-28.99-14.79-33.4-29.78l-2.29-8.94c-1.12-5.78-3.1-12.81,.66-17.99h0Z" />
								<path class="cls-3" d="M434.39,163.09c2.4,0,2.41-3.73,0-3.73s-2.41,3.73,0,3.73h0Z" />
								<path class="cls-4"
									d="M511.92,124.9c.71-5.53-4.45-11.67-6.98-16.68-3.84-7.63-14.69-30.57-25.47-21.56,.05,4.42-4.75,5.53-6.49,9.12-.16,.33-.29,.69-.41,1.05,.67-3.52,1.08-7.04,.77-10.43-.72-7.59-5.29-11.51-11.19-14.01-1.39-1.25-3.07-2.35-5.19-3.25-7.89-3.36-16.8-6.28-25.2-8.32-5.34-1.3-10.32-2.32-15.42-2.98-1.36-.71-2.74-1.4-4.16-2.01-4.41-1.89-8.9-3.22-13.65-3.89-8.46-1.19-17.2,.72-24.72,4.71-.05,.03-.09,.06-.14,.08-1.91-5-12.19-2.27-15.99-2.18-13.27,.3-26.6-1.69-38.84,5.46l1.69-.93c-7.33,2.03-4.65,18.49-3.88,23.76,1.47,10.1,5.36,19.91,7.55,29.75,1.48,6.63,1.1,20.66,10.95,14.81,7.61-4.52,10.15-9.57,14-17.01,1.55-3,3.3-5.83,4.84-8.84,.05,1.9,.16,3.78,.34,5.58,.12,1.22,.47,2.37,.97,3.42-1.55,4.92-3.22,9.91-2.43,15.03,2.18,14.17,11.32,22.48,25.09,26.24,13.17,3.6,19.11-19.22,23.75-28.18,3.38-6.54,6.61-11.86,7.51-19.22,.43-3.46,1.33-7.09,1.68-10.44,.31-3-1.27-7.54,2.93-8.55,5.01,5.63,7.77,8.43,8.21,16.12,.41,7.13-2.09,13.14-5.28,19.33-4.72,9.16-9.7,21.22-5.52,31.62,2.99,7.43,10.25,15.46,18.66,15.55,5.82,3.78,16.03,.44,20.36-4.02,2.01-2.07,3.12-4.57,4.05-7.18-.4,4.61,.23,9.91,4.54,11.42,6.71,2.34,16.05-7.31,20.54-10.94,6.81-5.52,14.24-10.81,20.69-16.75,4.95-4.56,10.86-8.31,11.81-15.7Zm-46.61,7.71c-.89,2.76-2.39,5.22-3.97,7.62,.19-.44,.4-.87,.58-1.32,3.83-9.49,5.85-19.75,7.88-29.74,.58-2.84,1.35-5.82,2.04-8.84-.28,2.72-.1,5.64-.03,7.93,.29,9.13-3.72,15.75-6.51,24.35Z" />
								<path class="cls-2"
									d="M340.54,130.13c2.22,3.98,1.34,8.96,1.5,13.21-.09,4.5,1.9,8.21,3.33,12.4-8.62-9.17-4.44-15.04-4.84-25.61h0Z" />
								<path class="cls-2"
									d="M370.65,49.39c-6.74-4.48-14.77-1.11-22.18-1.16-7.3,.06-15.41-.27-22.49,1.5-13.78,2.79-17.4,6.71-18.75,20.69-.49,3.03-2.15,5.93-1.91,8.97,.42,3.76,2.47,6.84,3.39,10.67,.98,5.03,2.12,9.72,3.91,14.51,2.97,7.95,4.28,17.3,10.19,23.58,4.32,3.39,11.78,4.91,16.03,.8,2.46-2.44,2.24-7.14,4.41-10.16,4.05-4.91,5.55-11.15,8.43-16.77,2.32-4.45,5.21-8.62,6.45-13.5,.64-2.39,.99-4.89,1.47-7.38,.68-5.2,3.37-9.7,6.91-13.43,2.47-2.77,4.05-6.63,7.48-8.48,1.12-.61,2.36-.96,3.61-1.15-1.24,.24-2.45,.65-3.52,1.3-3.32,2.02-4.68,5.8-7.1,8.7-3.38,3.85-5.78,8.1-6.3,13.26-.7,4.99-1.61,10.22-4.09,14.7-2.39,4.52-4.75,8.77-6.38,13.63-1.22,3.26-2.68,6.65-4.87,9.46-1.75,2.21-2.07,4.92-2.95,7.61-2.93,8.78-14.9,8.01-20.93,3.06-4.79-4.57-6.59-11.36-8.65-17.3-2.22-7.24-4.93-14.45-6.14-21.95-.81-3.53-3.02-7.11-3.35-10.97-.24-2.73,.86-5.25,1.57-7.73,1.4-6.06,1.25-13.47,6.49-17.86,4.01-3.5,9.3-4.64,14.33-5.63,4.98-1.05,10.15-1.34,15.2-1.19l7.57,.23c7.36,.27,15.66-2.82,22.17,2h0Z" />
								<path class="cls-2"
									d="M480.66,78.75c7.91-1.96,14.73,4.6,20,9.59,5.69,5.24,12.28,9.31,17.32,15.34,6.48,7.82,10.74,19.89,5.86,29.54-5.69,8.8-14.26,15.19-22.73,21.14-4.34,2.84-8.86,5.11-13.12,8.02-6.58,3.92-12.77,9.35-20.15,11.77-4.22,1.19-9.42,.13-10.62-4.71-.67-1.84-.98-3.89-1.31-5.79-1.67-7.34,3.25-14.2,5.51-20.53,1.95-4.79,1.36-9.99,2.64-15.01,.62-2.6,2.01-4.97,3.49-7.06,4.73-6.06,6.49-13.78,7.74-21.21,.64-5.01-.14-10.37-3.18-14.58,6.77,8.65,3.17,20.22,.36,29.72-1.77,4.86-5.98,8.4-7.03,13.47-1.12,4.92-.5,10.41-2.38,15.24-2.07,6.48-6.74,12.61-5.18,19.63,.33,1.73,.65,3.82,1.26,5.44,1.35,5.22,7.81,4.07,11.54,2.05,5.53-3.14,10.73-6.82,16.11-10.32,4.23-2.85,8.91-5.19,13.17-7.93,8.17-5.64,16.68-11.93,22.2-20.29,4.48-8.82,.68-20.29-5.27-27.71-4.75-5.92-11.39-10.24-16.81-15.61-5.09-5.15-11.52-11.76-19.42-10.21h0Z" />
							</g>
							<g>
								<path class="cls-2"
									d="M393.99,175.74c-1.61-1.9-9.81-5.57-10.7-1.83,.01,1.33,1.69,1.98,2.78,2.44,3.78,1.42,8.32,1.97,12.01,.15,.28-.12,.44-.43,.37-.27-.5-.38-1.67-.64-2.43-.76-3.25-.67-7.97,.47-2.4,2.73,2.44,.62,5.65,1.09,7.94,.15,0,0-.07,.16-.05,.18,.02,.03-.15-.22-.37-.39-.84-.73-2.19-.96-3.5-1.08-1.67-.06-3.77-.12-5.09,.82,.04-.07-.01-.2,.09-.02,1.79,1.77,5.56,1.73,7.95,1.29,.28-.07,.55-.17,.7-.26,.19-.11,.1-.15,.06,.08,.02,.2,.01,.04-.16-.12-.14-.16-.37-.35-.6-.53-1.92-1.21-5.06-1.6-7.41-1.56-.68-.02-2.3,.27-2.5,.61,.14,.55,1.19,1.12,1.89,1.4,3.83,1.32,8.46,2.26,12.47,1.35,.19-.04,.17-.24-.07,.26-.06,.25-.01,.45,.02,.48,.01,.04,0,0-.07-.06-2.12-1.73-5.28-2.22-7.99-2.49-1.68-.12-3.9-.39-5.32,.14,.07-.04,.09-.08,.16-.17,.09-.15,.15-.38,.11-.5-.04-.19,0-.02,.14,.13,2.6,2.49,6.88,4.09,10.4,4.89,1.23,.25,2.59,.35,3.37,.1,.39-.15,.38-.19,.39-.26,.04-.22,.04-.18-.09-.39-.34-.47-1.56-1.07-2.74-1.38-3.01-.8-6.54-1.15-9.61-.73-.52,.11-1.58,.48-1.87,.69,.32-.24,.3-1.12,.12-1.3-.13-.17,0,0,.18,.09,3.6,1.7,8.58,2.55,12.37,1.19,.15-.07,.11-.13,0,.1-.25,.27-.09,.85-.09,.83-.74-.76-1.81-1.36-3.07-1.64-3.39-.73-7.58-1.44-10.89-.25-.21,.21,.29-.25,.1-.71-.21-.35,.07,.06,.49,.23,2.39,1.06,6.39,1.72,9.08,.74,.03-.03-.22,.16-.29,.52-.07,.36,.16,.52-.04,.33-2.68-1.35-7.04-1.27-9.85-.13-.12,.06-.09,.13,.07-.15,.19-.19,.16-.92,.09-1-.03,0,.1,.15,.46,.31,2.16,.97,6.13,.22,7.64-.77-.09,.13-.01,.52-.07,.39-.54-.86-2.03-1.2-3.37-1.45-1.84-.29-4.4-.28-5.95,.54l-.27-3.17c1.19,1.04,3.01,1.55,4.88,1.45,1.29-.08,2.68-.37,3.68-1.07,.26-.16,.34-.38,.23-.14-.07,.15-.02,.48,.04,.61,.03,.03,.03,.02,0,0-2.58-1.81-7.13-2.24-10.13-1.06,.17-.12,.32-.56,.34-.82,.02-.15-.08-.34-.05-.33,1.37,1.5,5.69,1.76,7.6,.64-.08,.08-.09,.21-.03,0,.03-.18,.03-.01,.06,.08-2.36-1.47-7.09-1.33-9.68-.43,.61-.43,.8-1.7,.2-2.36,1.93,.93,6.09,1.83,8.65,1.21-.2,.12-.45,.29-.66,.81-.22,.59-.11,1.14,.11,1.44-.01,0-.08-.1-.24-.21-1.69-1.38-4.32-1.57-6.42-1.37-.36,.02-.61,.28-.25-.04,.29-.27,.45-1.1,.17-1.38,1.1,.88,4.17,1.24,5.47,.74,.09-.03,.13-.07,.02,.01-.09,.07-.26,.35-.29,.62-.05,.24,.05,.38-.02,.29-.83-1.31-3.93-1.48-5.34-.85-.19,.11-.15,.18-.07-.08l-.91-2.64c1.44,.99,3.79,1.39,5.3,.66,.03,0-.13,.05-.28,.47-.17,.43,.01,1.04,.12,1.15,.25,.27-.06-.04-.37-.16-1-.44-2.89-.93-3.79-.87-.31-.02-.4,.18-.01-.18,.27-.23,.38-.82,.27-1.03,.05,.15,.61,.62,1.15,.69,.71,.18,1.74-.17,2.35-.67-.48,.56-.37,1.66,.2,2.16,.27,.26,.28,.17,.14,.15-1.3-.36-4.08-.26-5.37,.25,.07-.03,0-.01,.14-.11,.59-.55,.66-1.74,.04-2.28,.57,.36,1.3,.59,1.97,.81,.39,.13,.78,.17,.89,.17,.04,0,0-.02-.28,.14-.27,.15-.53,.64-.52,.9,.02,.5,.08,.28-.04,.21-.89-.73-1.87,.1-2.72,.99l-.13-2.93c.56,.46,2.19,.66,2.96,.46-.09,.06-.43,.2-.68,.88-.17,.52,0,1.05,.16,1.3,.04,.09,.13,.13,.06,.09-.06-.05-.06-.06-.1-.06-1.02-.18-3.89,2.14-4.71,3.16-.21,.34-.11,.22-.14,.24-.01,.06,.22,.46,.6,.83,6.37,5.37,16.29,10.33,24.47,7.13,.28-.11,.54-.23,.74-.33,.19-.06,.36-.32,.06,.09-.05,.1-.12,.34-.09,.47,.02,.15,.04,.16,.02,.12-.04-.12-.25-.37-.51-1.05-.33-.6-.13-1.94,.37-2.54,.29-.43,.55-.72,.74-.95,.21-.23,.25-.39,.16-.13,.03-.26,.11-.54,.1-.78,.28-4.28-7.68-6.5-10.91-8.38-6.48-2.87-11.63-5.25-16.84,1.09-1.53,1.96-2.6,3.19-.31,5.16,4.95,3.76,11.56,7.25,17.88,7.24,2.66-.13,5.03-1.71,7.73-2.23l-.85,1.27c-1.8-8.78-18.45-7.28-25.53-7.98l.43-1.33c2.83,1.91,5.94,3.36,9.31,3.91,3.36,.57,6.86,.53,10.34,.65l-.4,.67c-2.02-4.1-6.48-3.29-9.9-1.44v-.47c3.3,1.48,6.75,2.96,10.39,3.27,1.16,.06,2.62-.1,3.12-1.32-.22,.58-.7,1.03-1.3,1.22-4.25,.83-8.52-1.24-12.44-2.69-.2-.08-.21-.37-.02-.47,1.77-.93,3.67-1.82,5.8-1.83,2.17-.04,4.1,1.46,5.12,3.29,.18,.28-.05,.68-.38,.67-6.96,.19-14.51-.02-20.44-4.24-.62-.37-.28-1.4,.43-1.33,7.45,.31,15.45-.49,22.55,2.71,2.5,1.15,4.71,3.53,5.13,6.36,.1,.58-.27,1.12-.83,1.26-2.7,.63-5.15,2.33-8.09,2.47-3.04,.18-5.92-.49-8.61-1.5-4-1.65-7.92-3.29-11.3-6.12-5.05-4.03-.6-9.26,3.22-12.14,2.42-2.08,6-2.58,8.98-1.88,5.64,1.24,10.68,3.88,15.75,6.45,2.76,1.41,5.87,4.32,5.47,7.86,0,.45-.09,.84-.15,1.27-.33,1.34-.9,1.58-1.37,2.34-.04,.05-.06,.14,0-.01,.09-.34,0-.59,0-.59,2.9,4.39-3.36,5.95-6.62,6.51-7.43,.93-14.65-2.17-20.74-6.09-2.3-1.63-6.03-3.84-5.23-7.44,.37-1.51,1.56-2.65,2.56-3.48,2.26-2.02,5.93-4.53,8.96-2.13,1.71,1.19,1.67,3.71-.13,4.64-.77,.45-1.67,.57-2.47,.61-2.05-.02-3.64-.18-5.43-1.66-.86-.76-.92-2.09-.13-2.93,1.93-2.52,6.29-4,8.94-1.22,1.34,1.14,2.04,4.15-.03,5.47-2.47,1.41-4.88,.17-7.1-.85-1.8-.88-2.57-3.29-.93-4.73,1.5-1.29,3.76-1.41,5.43-1.54,1.83,.02,3.87-.22,5.7,1.25,1.2,1.05,1.02,3.06,.04,4-2.91,3.01-8.38,3.15-10.77-.85-1.58-2.83,.76-5.47,3.44-5.46,2.8,.02,4.74,.54,7.05,1.85,1.14,.65,2.2,2.5,1.62,3.95-1.9,4.35-8.76,3.46-11.91,1.3-3.04-2.41,1.14-5.79,3.74-5.92,3.37-.41,6.91,.08,9.09,3.26,.89,1.36,.92,3.68-.46,4.83-3.02,2.63-9.94,1.74-12.42-1.28-1.44-1.8-.82-4.54,1.36-5.48,2.55-1.03,5.22-.69,7.8-.14,2.2,.58,4.65,1.76,5.6,4.06,1.14,4.33-4.61,4.65-7.4,4.33-2.88-.35-8.64-1.04-9.34-4.57-.19-1.27,.47-2.31,1.38-2.96,3.91-2.34,14.13-2.44,16.62,2.08,.72,1.26,.6,2.91,.05,4.16-2.17,4.05-8.65,3.89-12.41,2.48-2.71-.92-5.65-4.49-3.2-7.17,3.58-3.55,13.66-2.47,17.07,1.16,3.83,4.86-3.11,8.36-7.22,8.3-4.76,.57-14.09-4.17-5.52-7.59,4.71-1.57,15.95-.37,14.38,6.77-1.95,4.42-9.92,5.02-13.84,3.29-4.82-2.47-3.38-7.22,1.65-8.05,4.21-.86,14.37-1.04,13.79,5.44-1.26,5.37-13.15,3.53-16.31,.79-3.27-3.05-.41-6.56,3.23-6.92,3.87-.55,7.63-.12,11.4,.82,1.55,.36,3.33,1.27,4.57,2.42,1.08,.91,1.96,2.82,1.06,4.31-2.78,4.52-16.56,2.49-19.32-1.36-2-3.9,3.95-5.33,6.69-5.23,4.42,.05,15.74,.82,14.02,7.51-2.56,6.39-16.8-.25-19.87-3.87-2.23-2.81,.37-4.84,3.18-4.81,5,.07,10.32,.35,14.27,3.76,1.84,2.01,.08,4.02-2.26,4.23-3.76,.61-17.61-.7-16.55-6.35,1.39-4.16,10.99-2.31,13.77-.25,.81,.74,1.6,1.21,1.6,2.69-.63,3.65-9.32,2.48-11.57,.77-.85-.57-1.82-1.85-1.16-2.96,1.83-2.65,9.17-2.1,11.36-.09,.56,.41,1.36,1.67,.59,2.45-.82,.88-2.1,.88-3.07,.98-2.24,.07-4.42-.15-6.55-.84-2.61-.83-5.47-3.89-1.43-5.12,2.31-.51,4.46-.13,6.61,.65,.46,.24,.9,.39,1.07,1.05,.07,.72-.44,1-.88,1.28-2.74,1.22-5.74,1.45-8.6,.81-2.09-.48-4.25-1.03-6.02-2.32-.57-.43-1.18-1.1-1.09-1.96,.09-.81,.7-1.47,1.44-1.7,3.44-.62,7.29,1.22,9.71,3.57h0Z" />
								<path  class="cls-2"
									d="M391.61,169.57c4.68,.24,8.89,2.91,13.35,3.91l-.34,1.18c-3.39-.9-7.06-1.04-10.7-2.09l.72-1.89c2.76,1.08,5.72,1.85,8.62,3.23,.65,.31,.93,1.08,.62,1.73-.24,.51-.77,.79-1.3,.74h-.13l-1.95-.21,.49-2.67,4.82,1.31c.79,.21,1.25,1.03,1.03,1.81-.17,.63-.73,1.06-1.35,1.09-1.48,.07-3.14,.08-4.76-.23l.69-3.14c1.92,.39,4.01,.66,6.15,1.31,.91,.28,1.43,1.24,1.15,2.15-.23,.75-.92,1.23-1.66,1.23l-1.94,.09,.48-3.46c1.38,.37,2.71,.71,3.95,.82l-.53,3.66c-.63-.11-1.78-.06-2.43-.04l.95-3.57c-.11-.06-.05-.03,.02-.01,.5,.13,.69,.13,1.38,.37,.99,.36,1.5,1.46,1.14,2.46-.21,.57-.67,.99-1.21,1.16-.45,.12-.86,.32-.97,.44l-1.21-3.49c.47,.01,.7,.07,.95,.11,1.21,.33,2.61,.12,3.17,1.36,1.64,2.8,1.36,6.69-2.26,8.04-2.63,.99-4.86,.86-7.07,.79-6.58-.46-12.7-2.14-18.75-4.71-3.83-1.49-9.12-5.44-5.5-10.04,2.34-2.69,6.04-3.71,8.6-5.21l-.89,3.15s0,0,.05,.07c.06,.07,.16,.16,.14,.14-1.37-.8-2.11-2.32-1.09-3.73,.58-.97,2.54-1.12,3.48-1.46,1.66-.49,2.87,1.16,2.87,2.63,.04-.12-.19-.9-.3-1-.23-.34-.18-.23-.18-.24,.02,.01,.14,.13,.15,.14,1.21,1.11,.86,3.2-.63,3.87-.42,.19-.84,.4-1.12,.58-.32,.17-.45,.39-.29,.14,.15-.28,.01-.5,.13-.07,.3,.86,.56,1.99,.88,2.87,.87,1.82,.73,4.6-1.76,5.15-1.37,.3-2.62-.22-3.72-.62l3.12-1.65c.08,.02-.05,.04,.02,.04,.76,1.13,2.59,1.69,4.1,2.2,2.4,.76,5.02,1.26,7.65,1.65l-1.02,4.22c-2.17-.91-11.88-2.62-7.57-6.46,1.87-.99,3.32-1.1,5.27-1.13l-.14,4.08c-.92-.06-1.65-.27-2.33-.47l-1.79-.59-.24-3.75s.16-.08,.59-.45c.41-.36,1.15-.86,1.91-1.06l-.68,3.37c-1.42-1.4-7.49-4.65-4.65-7.08,1.63-1.07,3.27-1.28,4.95-1.7l-.87,2.81c-.36-.44-.98-.92-1.66-1.37-.65-.41-2.58-1.65-3.21-2.05-1.55-1-.04-3.38,1.52-2.39l.06,.04c.69-.15,1.19-.76,2.31-1.02l-.67,2.68-1.23-.96,1.25,.2c-4.52,1.58-3.5,9.9-9.05,10.27l.22-2.15c6.09,.89,12.58,.63,18.74,.24,1.57-.14,3.16-.26,4.67-.71,.46-.15,1.08-.35,1.12-.82,0-.04,.03-.08,.07-.08,.01,0,.02,0,.03,.01l.26,.2s.19,.14,.19,.2c-.04,.13-.58-.13-.75-.09,.22-.02,.44,.03,.65,.06,.14,.09-.4-.26-.42-.27l.1-.06c-.08,1.08-1.85,1.32-2.68,1.63-6.25,1.49-12.71,1.82-19.12,1.99-1.08-.16-4.48,.53-4.29-1.44,.08-.48,.47-.83,.93-.88,.88-.06,1.42-.6,1.99-1.56,1.11-2.06,1.59-4.53,2.98-6.65,.78-1.21,3.04-3.56,4.79-2.6l1.61,1.14-.67,2.68s-.35,.19-.73,.44c-.41,.24-.89,.58-1.74,.76l.61-2.97c1.58,.98,3.38,1.78,4.73,3.25,.87,.89,.41,2.48-.79,2.79-1.28,.37-2.82,.66-3.79,1.34l.45-2.52c1.11,1.42,2.97,2.39,4.53,3.63,1.26,.94,.78,2.94-.68,3.37-.62,.34-.9,.96-2.02,1.46l-.24-3.75,1.84,.55c.54,.15,1.05,.26,1.4,.26,1.13,.03,2.02,.96,1.99,2.09-.02,1.11-.93,1.99-2.04,1.99-.9-.01-2.43,.19-3.11,.62l.03-3.55c1.95,1.14,4.49,1.52,6.82,2.32,1.14,.39,1.75,1.62,1.37,2.76-.34,1.02-1.36,1.61-2.38,1.46-2.78-.35-5.57-.8-8.4-1.63-3.32-.89-8.17-3.3-7.29-7.57,.09-1.14,1.09-1.99,2.23-1.9,.6,.05,1.49,.54,1.98,.6,.03,0,.16,.04,.09,.02-.05,0,.02,0-.26,.03-.6,.14-1.25,.81-1.28,1.49-.03,.28,.02,.22-.04,.07-1.66-4.79-2.94-7.51,2.6-10.02l-.61,3.88-.26-.25c-.16-.13-.69-.75-.81-1.26-.09-.28-.11-.57-.11-.66,0-.19,0,.09,.02,.18,.05,.25,.08,.28,.09,.31l2.57,1.35-1.69,.5,.81-4.13,.56,.41c1.53,1.05,2.02,3.44,.23,4.49-2.45,1.51-5.83,2.3-7.54,4.29,.43,.93,2.61,2.1,3.9,2.67,5.34,2.31,11.35,4.09,17.15,4.62,2.16,.11,4.35,.28,5.78-.68,.09-.09,.12-.09,.13-.24,.09-.25-.1-1.03-.46-1.77l1.63,1.1c-.95-.11-1.55-.33-2.25-.48l-1.21-3.49c.66-.54,1.51-.87,2.26-1.07l-.18,3.65s-.28-.09-.55-.16c-.49-.15-.69-.17-1.25-.46-1.75-.9-1-3.64,.93-3.57,.93,.01,2.19,0,3.1,.21,2.32,.48,1.75,3.94-.6,3.65-1.65-.23-3.11-.68-4.51-1.11-.93-.28-1.46-1.27-1.18-2.21,.45-1.59,2.35-1.22,3.58-1.26l-.51,3.38c-1.78-.63-3.8-.96-5.89-1.49-2.04-.55-1.27-3.59,.78-3.12,1.25,.31,2.49,.39,3.92,.4l-.47,2.9-4.54-1.5-.14-.05c-1.56-.51-.96-2.89,.64-2.62l2.11,.33-.81,2.45c-2.54-1.36-5.45-2.34-8.26-3.7-.54-.22-.8-.86-.54-1.39,.23-.47,.78-.68,1.26-.51,1.62,.6,3.36,1.02,5.11,1.43,1.77,.42,3.58,.8,5.36,1.43,.32,.11,.48,.46,.37,.78-.11,.31-.44,.47-.75,.38-4.57-1.35-8.31-4.33-13.04-5.1h0Z" />
							</g>
							<path class="cls-2"
								d="M388.68,204.96c7.46,1.25,14.96-.38,22.22-2.06,5.41-1.18,9.48-5.69,11.68-10.65,.83-1.68,1.45-3.46,2.04-5.26-.98,7.48-5.43,15.62-13.37,17.36-7.31,1.65-15.28,3.02-22.57,.61h0Z" />
						</g>
						<g>
							<path class="cls-2"
								d="M464.07,188.67c-2.93,1.75-7.69,1.37-8.88-2.44-.55-1.82,.3-3.67,1.2-5.16,.95-1.47,1.86-3.05,3.49-3.94,8.28-3.42,13.34,6.05,9.4,12.71,.98-3.01,.99-6.57-.83-9.2-1.69-2.47-5.33-3.55-7.85-2.19-1.25,.61-2.09,2.05-3.01,3.38-.88,1.31-1.56,2.75-1.28,4.13,.77,3.25,4.97,3.74,7.77,2.72h0Z" />
							<path class="cls-2"
								d="M456.01,180.4c-4.35,3.1-8.99,.91-7.39-4.58,1.06-2.54,3.03-4.88,5.92-5.29,2.84-.26,5.15,1.55,7.03,3.34,.82,.83,2.13,2.04,1.57,3.33,.17-1.33-1.1-2.08-2.04-2.77-2.65-2.06-6.55-3.96-9.2-.93-4.48,4.45-2.12,9.5,4.12,6.89h0Z" />
							<path class="cls-2"
								d="M450.17,180.47c-2.47-1.08-5.09-.2-7.5,.51-.39,.15-.65,.11-.76,.45-.73,3.09-.78,5.65,2.84,6.61,1.84,.53,4.75,1.75,4.49,4.14-.98-3.65-5.61-2.12-7.94-4.49-1.39-1.39-1.4-3.36-1.09-5.08,.18-.84,.23-2.17,1.24-2.62,2.78-.85,6.29-1.46,8.73,.48h0Z" />
						</g>
						<path class="cls-2"
							d="M415.72,254.55c18.17,2.75,36.88,1.46,54.48-3.85,1.17-.38,2.34-.74,3.52-1.09-1.12,.5-2.25,.99-3.39,1.47-17.2,6.84-36.7,8.21-54.61,3.47h0Z" />
						<path class="cls-2" d="M450.48,193.65c-.31,7.89-.49,15.42-.24,23.32-2.32-7.53-2.11-15.82,.24-23.32h0Z" />
						<path class="cls-2"
							d="M386.51,241.92c1.19,2.13,3.63,2.63,5.7,3.6,2.16,.91,4.27,1.9,6.38,2.9,3.6,1.55,8.66,5.37,12.81,4.27-4.52,2.22-9.37-1.21-13.47-2.93-3.16-1.59-6.32-3.06-9.3-5-.95-.71-1.89-1.66-2.14-2.84h0Z" />
						<path class="cls-2"
							d="M410.94,216.32c12.28-2.88,26.33-2.8,35.81,6.72,1.28,1.28,2.48,2.64,3.47,4.14-1.26-1.28-2.55-2.51-3.96-3.59-10.12-8.46-22.89-8.15-35.33-7.27h0Z" />
						<path class="cls-2"
							d="M471.12,194.21c7.38,17.26,19.39,27.36,12.63,47.79,.24-2.11,.57-4.21,.73-6.31,2.23-15.37-9.73-27.36-13.36-41.48h0Z" />
						<g>
							<path class="cls-1"
								d="M367.25,242.37c-4.53-2.33-8.62-4.55-11.98-8.45-3.23-3.74-6.09-7.78-9.39-11.47-12.41-13.84-27.87-25.06-44.84-32.62-8.73-3.89-17.8-6.88-27.15-8.84-.95-2.11-3.91-3.49-6.18-1.46-8.52,7.62-3.75,19.48-3.38,29.09,.22,5.53,.96,10.52,3.91,15.31,2.52,4.09,5.88,7.77,9.35,11.08,14.42,13.76,33.61,22.16,52.7,27.13,11.87,3.09,24.12,4.77,36.38,5.04,2.68,.06,3.94-2.43,3.61-4.74-.01-.07-.04-.14-.05-.21,1.15-1.25,1.92-2.81,2.21-4.47,1.68-.79,3.07-2.31,3.56-4.4,1.33-5.59-4.68-8.92-8.74-11.01Z" />
							<path class="cls-2"
								d="M265.02,179.42c37.17,1.53,68.09,26.82,91.94,53.35,3.37,3.89,6.75,8.22,7.82,13.36-1.74-4.92-5.2-8.82-8.89-12.35-25.44-24.78-54.61-49.02-90.88-54.37h0Z" />
							<path class="cls-2"
								d="M367.18,246.33c8.05-3.5,16.13,7.06,4.82,9.51l-.64-2.66c3.07-.86,5.55,2.76,4.3,5.58-1.09,2.38-3.68,3.27-6.05,3.1l.95-2.66c4.66,4.14-.29,10.16-5,10.24-4.28,.37-7.71-2.28-10.64-4.91,4.2,2.22,10.84,5.07,14.14,.31,.63-.96,.68-2.62-.2-3.24l-4.58-3,5.53,.34c1.76,.04,3.95-.86,3.02-2.6-.3-.43-.55-.56-.72-.52l-.64-2.66c1.37-.2,2.73-.63,3.43-1.27,.8-.76,.53-1.81-.11-2.71-1.68-2.19-4.8-3.24-7.62-2.84h0Z" />
							<path class="cls-2"
								d="M268.33,220.22c23.46,26.74,57.14,43.61,92.59,46.43-35.89,1.52-72.34-16.77-92.59-46.43h0Z" />
						</g>
						<path class="cls-2"
							d="M361.22,113.98c1.93-3.87,4.23-8.07,8.26-10.21,1.37-.71,2.65-1.09,4.01-1.76,1.34-.57,2.86-1.15,4.52-1.08,3.2,.35,5.55,2.09,8.13,3.76,1.14,.91,2.34,2,2.69,3.45-.71-1.28-1.9-2.09-3.15-2.75-2.36-1.1-5.15-2.71-7.72-2.84-2.58,.09-5.29,1.78-7.75,2.65-3.86,1.87-6.24,5.52-9,8.78h0Z" />
						<g>
							<path class="cls-2"
								d="M427.32,133.71c2.86,.14,6.35,.32,8.39,2.62,.36,.4,.94-.19,.59-.59-2.2-2.47-5.9-2.71-8.98-2.86-.54-.03-.53,.81,0,.83h0Z" />
							<path class="cls-2 eyes"
								d="M427.51,133.18c2.8-.79,5.74-1.12,8.65-.83,2.73,.27,6.41,1.16,8.05,3.57,1.37,2.02,.24,6.56-2.77,6.17-1.47-.19-2.76-1.4-3.53-2.6-.83-1.29-.92-2.87-1.74-4.17-.29-.45-1.01-.03-.72,.42,.8,1.25,.89,2.79,1.67,4.06,.65,1.05,1.54,1.97,2.63,2.57,2.06,1.13,4.17,.41,5.24-1.67,1.12-2.18,.86-4.62-1-6.28-1.94-1.73-4.74-2.53-7.27-2.85-3.15-.4-6.38-.06-9.42,.8-.52,.14-.3,.95,.22,.8h0Z" />
							<path class="cls-2 eyes" 
								d="M431.05,132.26c-.16,0-.24-.03-.21-.01l-.21,.78c3.3-.11,6.37,1.39,9.57,1.96,.53,.09,.73-.62,.22-.8-1.75-.65-3.7-.66-5.39-1.5l-.32,.76c2.28,.68,4.73,.89,6.88,1.97l.32-.76c-2.12-.38-4.2-.97-6.35-1.18-.49-.05-.53,.67-.11,.82,2.5,.86,5.17,1.07,7.68,1.92l.22-.8c-2.23-.58-4.61-1.38-6.94-1.11-.36,.04-.63,.58-.21,.78,2.17,1.04,4.58,1.33,6.87,2.01,.52,.15,.73-.64,.22-.8-1.66-.53-3.47-.97-5.22-.83-.42,.03-.55,.53-.21,.78,1.3,.93,3.04,1.27,4.58,1.49,.42,.06,.79-.54,.32-.76-.97-.46-2.05-.69-3.1-.86s-2.19-.29-3.26-.08c-.31,.06-.4,.49-.18,.7,1.51,1.41,3.88,1.12,5.71,1.79l.22-.8c-1.22-.18-2.41-.44-3.65-.27-.38,.05-.38,.59-.1,.76,1.27,.77,2.88,.89,4.33,.99v-.83c-1.38,.16-2.71-.48-4.08-.16-.33,.08-.43,.61-.1,.76,1.09,.49,2.29,.75,3.48,.81,.48,.02,.56-.69,.11-.82-.99-.28-2.44-.42-3.26,.33-.21,.19-.13,.51,.08,.65,1.11,.75,2.45,.66,3.73,.77,.46,.04,.57-.73,.11-.82-1.26-.24-2.74-.55-3.89,.2-.18,.12-.28,.37-.15,.57,.78,1.19,2.39,1.13,3.63,.88,.3-.06,.41-.49,.18-.7-.7-.64-1.51-.41-2.28-.02-.3,.15-.24,.55,0,.72,.69,.49,1.55,.36,2.16-.18,.19-.17,.15-.54-.08-.65-.72-.37-1.51-.26-2.07,.34-.22,.23-.12,.61,.18,.7,1.17,.34,2.97-.33,3.48-1.48,.56-1.26-.59-2.45-1.8-1.71-.2,.12-.26,.37-.15,.57,.53,.98,2.7,1.21,2.99-.09,.29-1.3-1.65-1.81-2.57-1.42-.31,.13-.39,.43-.18,.7,.52,.68,2.27,1.06,2.43-.12,.18-1.37-1.7-1.48-2.61-1.45-.33,.01-.59,.47-.29,.71,.76,.61,2.76,1.13,2.55-.52-.16-1.28-2.06-1.64-3.08-1.33-.28,.08-.36,.37-.25,.61,.43,.93,1.37,.88,2.25,.72,.21-.04,.37-.32,.29-.51-.36-.93-1.32-1.52-2.27-1.72-.3-.06-.61,.19-.51,.51,.23,.78,2.16,2.09,2.52,.75,.18-.66-.46-1.28-1-1.53-.7-.32-1.6-.39-2.3-.04-.26,.13-.28,.6,0,.72,.59,.26,1.7,.32,1.42-.67-.31-1.1-1.9-1.38-2.85-1.43-.45-.02-.52,.56-.21,.78,.57,.41,1.23,.46,1.92,.44,.3,0,.54-.35,.36-.63-.78-1.22-2.51-1.6-3.85-1.21-.34,.1-.42,.58-.1,.76,.86,.49,1.86,.68,2.85,.61,.42-.03,.55-.54,.21-.78-1.02-.71-2.3-1.02-3.53-1.03-.25,0-.49,.27-.4,.53,.33,.92,1.39,1.03,2.24,1.1,.36,.03,.55-.48,.29-.71-1.46-1.31-3.8-1.05-5.62-1.06-.95,0-1.91,0-2.86,.11-.53,.06-1.43,.13-1.7,.7-.12,.27,.02,.64,.36,.63,2.43-.09,5.04-.04,7.26,1.05l.21-.78c-1.02-.1-2.02-.31-3.02-.47-.52-.08-.75,.69-.22,.8,1.22,.26,2.39,.69,3.57,1.09l.11-.82c-.7-.07-1.39-.22-2.08-.35-.53-.1-.72,.61-.22,.8,.85,.32,1.79,.4,2.59,.84l.21-.78c-.53-.01-1.02,.03-1.52,.2-.38,.13-.41,.68,0,.8,1,.3,1.98,.63,2.96,.99v-.8c-.82,.16-1.62-.16-2.44,.06-.33,.09-.42,.6-.1,.76,.96,.5,2.01,.7,3.05,.97l.11-.82c-.73-.08-1.43-.21-2.14,.04-.33,.11-.43,.57-.1,.76,.89,.5,1.87,.82,2.88,.96,.52,.07,.76-.71,.22-.8-.98-.17-1.92-.22-2.82,.24-.23,.12-.28,.48-.08,.65,.75,.69,1.77,.7,2.73,.83,.51,.07,.76-.68,.22-.8-.84-.2-1.61-.16-2.4,.18-.29,.13-.25,.58,0,.72,1.22,.67,2.65,.6,4,.74v-.83c-.75,.02-1.53,.04-2.24,.32-.3,.12-.45,.59-.1,.76,.61,.3,1.21,.32,1.87,.42l-.1-.76c-.2,.12-.38,.28-.58,.41-.24,.15-.3,.59,0,.72,.37,.16,.71,.23,1.11,.24,.54,.01,1.07-.13,1.48,.32,.12,.14,.35,.15,.5,.07,1.6-.93,1.39-2.44,.82-3.97-.12-.31-.24-.59-.39-.88-.18-.33-.25-.45-.21-.8,.02-.18,.12-.34,.12-.53-.02-.78-.8-1.19-1.44-1.4-.51-.17-.73,.64-.22,.8,.37,.12,.8,.29,.79,.73,0,.22-.15,.45-.16,.68-.03,.56,.41,.89,.61,1.37,.5,1.16,.98,2.53-.34,3.3l.5,.07c-.8-.9-1.8-.26-2.76-.69v.72c.2-.13,.38-.29,.58-.41,.28-.17,.27-.71-.1-.76-.56-.08-1.15-.08-1.67-.33l-.1,.76c.65-.26,1.33-.27,2.01-.29,.54-.02,.53-.78,0-.83-1.19-.12-2.5-.03-3.58-.62v.72c.58-.25,1.16-.24,1.76-.1l.22-.8c-.76-.1-1.76-.07-2.37-.62l-.08,.65c.69-.35,1.44-.29,2.18-.16l.22-.8c-.94-.13-1.85-.41-2.68-.88l-.1,.76c.63-.22,1.27-.08,1.92,0,.47,.05,.56-.7,.11-.82-.97-.25-1.95-.42-2.85-.88l-.1,.76c.8-.21,1.62,.1,2.44-.06,.44-.09,.35-.67,0-.8-.98-.36-1.96-.69-2.96-.99v.8c.44-.15,.84-.19,1.3-.17,.41,.01,.57-.58,.21-.78-.88-.48-1.87-.58-2.79-.93l-.22,.8c.77,.14,1.53,.3,2.3,.38,.49,.05,.53-.68,.11-.82-1.18-.4-2.35-.82-3.57-1.09l-.22,.8c1.08,.17,2.15,.4,3.25,.5,.41,.04,.57-.6,.21-.78-2.36-1.16-5.1-1.26-7.68-1.17l.36,.63c.17-.37,1.39-.33,1.73-.36,.75-.05,1.5-.05,2.25-.04,1.52,0,3.68-.28,4.89,.81l.29-.71c-.36-.03-1.28-.05-1.44-.49l-.4,.53c1.09,0,2.21,.28,3.11,.92l.21-.78c-.84,.05-1.69-.08-2.43-.5l-.1,.76c.96-.28,2.33-.07,2.91,.83l.36-.63c-.54,.01-1.04,0-1.5-.33l-.21,.78c.41,.02,.81,.07,1.2,.22,.25,.09,.47,.21,.67,.38,.22,.27,.22,.26-.02-.05v.72c.58-.28,1.69-.1,2.01,.5,.07,.13,.17,.06,.01,.06-.1,0-.22-.06-.31-.1-.25-.12-.47-.3-.55-.57l-.51,.51c.62,.13,1.44,.5,1.69,1.14l.29-.51c-.49,.09-1.05,.21-1.31-.34l-.25,.61c.52-.16,1.27-.07,1.73,.23,.3,.2,.47,.56,0,.6-.25,.02-.64-.23-.83-.38l-.29,.71c.45-.02,1.1-.08,1.51,.17,.34,.21,.26,.39-.13,.34-.23-.03-.47-.18-.61-.36l-.18,.7c.35-.14,1.23-.16,1.47,.22,.35,.57-1.13,.54-1.38,.07l-.15,.57c.44-.27,.79,.04,.67,.53-.09,.35-.44,.59-.74,.77-.52,.3-1.21,.53-1.81,.36l.18,.7c.28-.3,.67-.4,1.06-.21l-.08-.65c-.35,.31-.78,.31-1.15,.05v.72c.37-.19,.88-.47,1.27-.12l.18-.7c-.83,.17-2.15,.32-2.69-.5l-.15,.57c.94-.61,2.22-.3,3.25-.11l.11-.82c-1.13-.1-2.33,0-3.31-.66l.08,.65c.56-.52,1.78-.31,2.45-.12l.11-.82c-1.03-.05-2.11-.27-3.06-.7l-.1,.76c1.27-.3,2.56,.33,3.86,.19,.53-.06,.54-.79,0-.83-1.3-.09-2.77-.19-3.91-.88l-.1,.76c1.07-.15,2.15,.12,3.2,.27,.52,.08,.73-.61,.22-.8-1.65-.61-3.99-.32-5.34-1.58l-.18,.7c.98-.2,2.06-.05,3.04,.12,.9,.15,1.85,.34,2.68,.74l.32-.76c-1.48-.21-3.15-.52-4.38-1.41l-.21,.78c1.69-.14,3.4,.29,5,.8l.22-.8c-2.21-.66-4.57-.92-6.67-1.93l-.21,.78c2.27-.26,4.56,.52,6.72,1.08,.52,.14,.73-.63,.22-.8-2.51-.85-5.18-1.05-7.68-1.92l-.11,.82c2.07,.2,4.08,.78,6.13,1.15,.43,.08,.77-.54,.32-.76-2.22-1.11-4.72-1.35-7.08-2.05-.44-.13-.75,.55-.32,.76,1.76,.88,3.76,.9,5.59,1.58l.22-.8c-3.28-.58-6.41-2.1-9.79-1.99-.41,.01-.57,.56-.21,.78,.24,.14,.36,.13,.63,.12,.54,0,.54-.84,0-.83h0Z" />
						</g>
						<g>
							<path class="cls-2"
								d="M367.81,119.27c2.86,.14,6.35,.32,8.39,2.62,.36,.4,.94-.19,.59-.59-2.2-2.47-5.9-2.71-8.98-2.86-.54-.03-.53,.81,0,.83h0Z" />
							<path class="cls-2 eyes" 
								d="M368.01,118.73c2.8-.79,5.74-1.12,8.65-.83,2.73,.27,6.41,1.16,8.05,3.57,1.37,2.02,.24,6.56-2.77,6.17-1.47-.19-2.76-1.4-3.53-2.6-.83-1.29-.92-2.87-1.74-4.17-.29-.45-1.01-.03-.72,.42,.8,1.25,.89,2.79,1.67,4.06,.65,1.05,1.54,1.97,2.63,2.57,2.06,1.13,4.17,.41,5.24-1.67,1.12-2.18,.86-4.62-1-6.28-1.94-1.73-4.74-2.53-7.27-2.85-3.15-.4-6.38-.06-9.42,.8-.52,.14-.3,.95,.22,.8h0Z" />
							<path class="cls-2 eyes" 
								d="M371.55,117.81c-.16,0-.24-.03-.21-.01l-.21,.78c3.3-.11,6.37,1.39,9.57,1.96,.53,.09,.73-.62,.22-.8-1.75-.65-3.7-.66-5.39-1.5l-.32,.76c2.28,.68,4.73,.89,6.88,1.97l.32-.76c-2.12-.38-4.2-.97-6.35-1.18-.49-.05-.53,.67-.11,.82,2.5,.86,5.17,1.07,7.68,1.92l.22-.8c-2.23-.58-4.61-1.38-6.94-1.11-.36,.04-.63,.58-.21,.78,2.17,1.04,4.58,1.33,6.87,2.01,.52,.15,.73-.64,.22-.8-1.66-.53-3.47-.97-5.22-.83-.42,.03-.55,.53-.21,.78,1.3,.93,3.04,1.27,4.58,1.49,.42,.06,.79-.54,.32-.76-.97-.46-2.05-.69-3.1-.86s-2.19-.29-3.26-.08c-.31,.06-.4,.49-.18,.7,1.51,1.41,3.88,1.12,5.71,1.79l.22-.8c-1.22-.18-2.41-.44-3.65-.27-.38,.05-.38,.59-.1,.76,1.27,.77,2.88,.89,4.33,.99v-.83c-1.38,.16-2.71-.48-4.08-.16-.33,.08-.43,.61-.1,.76,1.09,.49,2.29,.75,3.48,.81,.48,.02,.56-.69,.11-.82-.99-.28-2.44-.42-3.26,.33-.21,.19-.13,.51,.08,.65,1.11,.75,2.45,.66,3.73,.77,.46,.04,.57-.73,.11-.82-1.26-.24-2.74-.55-3.89,.2-.18,.12-.28,.37-.15,.57,.78,1.19,2.39,1.13,3.63,.88,.3-.06,.41-.49,.18-.7-.7-.64-1.51-.41-2.28-.02-.3,.15-.24,.55,0,.72,.69,.49,1.55,.36,2.16-.18,.19-.17,.15-.54-.08-.65-.72-.37-1.51-.26-2.07,.34-.22,.23-.12,.61,.18,.7,1.17,.34,2.97-.33,3.48-1.48,.56-1.26-.59-2.45-1.8-1.71-.2,.12-.26,.37-.15,.57,.53,.98,2.7,1.21,2.99-.09s-1.65-1.81-2.57-1.42c-.31,.13-.39,.43-.18,.7,.52,.68,2.27,1.06,2.43-.12,.18-1.37-1.7-1.48-2.61-1.45-.33,.01-.59,.47-.29,.71,.76,.61,2.76,1.13,2.55-.52-.16-1.28-2.06-1.64-3.08-1.33-.28,.08-.36,.37-.25,.61,.43,.93,1.37,.88,2.25,.72,.21-.04,.37-.32,.29-.51-.36-.93-1.32-1.52-2.27-1.72-.3-.06-.61,.19-.51,.51,.23,.78,2.16,2.09,2.52,.75,.18-.66-.46-1.28-1-1.53-.7-.32-1.6-.39-2.3-.04-.26,.13-.28,.6,0,.72,.59,.26,1.7,.32,1.42-.67-.31-1.1-1.9-1.38-2.85-1.43-.45-.02-.52,.56-.21,.78,.57,.41,1.23,.46,1.92,.44,.3,0,.54-.35,.36-.63-.78-1.22-2.51-1.6-3.85-1.21-.34,.1-.42,.58-.1,.76,.86,.49,1.86,.68,2.85,.61,.42-.03,.55-.54,.21-.78-1.02-.71-2.3-1.02-3.53-1.03-.25,0-.49,.27-.4,.53,.33,.92,1.39,1.03,2.24,1.1,.36,.03,.55-.48,.29-.71-1.46-1.31-3.8-1.05-5.62-1.06-.95,0-1.91,0-2.86,.11-.53,.06-1.43,.13-1.7,.7-.12,.27,.02,.64,.36,.63,2.43-.09,5.04-.04,7.26,1.05l.21-.78c-1.02-.1-2.02-.31-3.02-.47-.52-.08-.75,.69-.22,.8,1.22,.26,2.39,.69,3.57,1.09l.11-.82c-.7-.07-1.39-.22-2.08-.35-.53-.1-.72,.61-.22,.8,.85,.32,1.79,.4,2.59,.84l.21-.78c-.53-.01-1.02,.03-1.52,.2-.38,.13-.41,.68,0,.8,1,.3,1.98,.63,2.96,.99v-.8c-.82,.16-1.62-.16-2.44,.06-.33,.09-.42,.6-.1,.76,.96,.5,2.01,.7,3.05,.97l.11-.82c-.73-.08-1.43-.21-2.14,.04-.33,.11-.43,.57-.1,.76,.89,.5,1.87,.82,2.88,.96,.52,.07,.76-.71,.22-.8-.98-.17-1.92-.22-2.82,.24-.23,.12-.28,.48-.08,.65,.75,.69,1.77,.7,2.73,.83,.51,.07,.76-.68,.22-.8-.84-.2-1.61-.16-2.4,.18-.29,.13-.25,.58,0,.72,1.22,.67,2.65,.6,4,.74v-.83c-.75,.02-1.53,.04-2.24,.32-.3,.12-.45,.59-.1,.76,.61,.3,1.21,.32,1.87,.42l-.1-.76c-.2,.12-.38,.28-.58,.41-.24,.15-.3,.59,0,.72,.37,.16,.71,.23,1.11,.24,.54,.01,1.07-.13,1.48,.32,.12,.14,.35,.15,.5,.07,1.6-.93,1.39-2.44,.82-3.97-.12-.31-.24-.59-.39-.88-.18-.33-.25-.45-.21-.8,.02-.18,.12-.34,.12-.53-.02-.78-.8-1.19-1.44-1.4-.51-.17-.73,.64-.22,.8,.37,.12,.8,.29,.79,.73,0,.22-.15,.45-.16,.68-.03,.56,.41,.89,.61,1.37,.5,1.16,.98,2.53-.34,3.3l.5,.07c-.8-.9-1.8-.26-2.76-.69v.72c.2-.13,.38-.29,.58-.41,.28-.17,.27-.71-.1-.76-.56-.08-1.15-.08-1.67-.33l-.1,.76c.65-.26,1.33-.27,2.01-.29,.54-.02,.53-.78,0-.83-1.19-.12-2.5-.03-3.58-.62v.72c.58-.25,1.16-.24,1.76-.1l.22-.8c-.76-.1-1.76-.07-2.37-.62l-.08,.65c.69-.35,1.44-.29,2.18-.16l.22-.8c-.94-.13-1.85-.41-2.68-.88l-.1,.76c.63-.22,1.27-.08,1.92,0,.47,.05,.56-.7,.11-.82-.97-.25-1.95-.42-2.85-.88l-.1,.76c.8-.21,1.62,.1,2.44-.06,.44-.09,.35-.67,0-.8-.98-.36-1.96-.69-2.96-.99v.8c.44-.15,.84-.19,1.3-.17,.41,.01,.57-.58,.21-.78-.88-.48-1.87-.58-2.79-.93l-.22,.8c.77,.14,1.53,.3,2.3,.38,.49,.05,.53-.68,.11-.82-1.18-.4-2.35-.82-3.57-1.09l-.22,.8c1.08,.17,2.15,.4,3.25,.5,.41,.04,.57-.6,.21-.78-2.36-1.16-5.1-1.26-7.68-1.17l.36,.63c.17-.37,1.39-.33,1.73-.36,.75-.05,1.5-.05,2.25-.04,1.52,0,3.68-.28,4.89,.81l.29-.71c-.36-.03-1.28-.05-1.44-.49l-.4,.53c1.09,0,2.21,.28,3.11,.92l.21-.78c-.84,.05-1.69-.08-2.43-.5l-.1,.76c.96-.28,2.33-.07,2.91,.83l.36-.63c-.54,.01-1.04,0-1.5-.33l-.21,.78c.41,.02,.81,.07,1.2,.22,.25,.09,.47,.21,.67,.38,.22,.27,.22,.26-.02-.05v.72c.58-.28,1.69-.1,2.01,.5,.07,.13,.17,.06,.01,.06-.1,0-.22-.06-.31-.1-.25-.12-.47-.3-.55-.57l-.51,.51c.62,.13,1.44,.5,1.69,1.14l.29-.51c-.49,.09-1.05,.21-1.31-.34l-.25,.61c.52-.16,1.27-.07,1.73,.23,.3,.2,.47,.56,0,.6-.25,.02-.64-.23-.83-.38l-.29,.71c.45-.02,1.1-.08,1.51,.17,.34,.21,.26,.39-.13,.34-.23-.03-.47-.18-.61-.36l-.18,.7c.35-.14,1.23-.16,1.47,.22,.35,.57-1.13,.54-1.38,.07l-.15,.57c.44-.27,.79,.04,.67,.53-.09,.35-.44,.59-.74,.77-.52,.3-1.21,.53-1.81,.36l.18,.7c.28-.3,.67-.4,1.06-.21l-.08-.65c-.35,.31-.78,.31-1.15,.05v.72c.37-.19,.88-.47,1.27-.12l.18-.7c-.83,.17-2.15,.32-2.69-.5l-.15,.57c.94-.61,2.22-.3,3.25-.11l.11-.82c-1.13-.1-2.33,0-3.31-.66l.08,.65c.56-.52,1.78-.31,2.45-.12l.11-.82c-1.03-.05-2.11-.27-3.06-.7l-.1,.76c1.27-.3,2.56,.33,3.86,.19,.53-.06,.54-.79,0-.83-1.3-.09-2.77-.19-3.91-.88l-.1,.76c1.07-.15,2.15,.12,3.2,.27,.52,.08,.73-.61,.22-.8-1.65-.61-3.99-.32-5.34-1.58l-.18,.7c.98-.2,2.06-.05,3.04,.12,.9,.15,1.85,.34,2.68,.74l.32-.76c-1.48-.21-3.15-.52-4.38-1.41l-.21,.78c1.69-.14,3.4,.29,5,.8l.22-.8c-2.21-.66-4.57-.92-6.67-1.93l-.21,.78c2.27-.26,4.56,.52,6.72,1.08,.52,.14,.73-.63,.22-.8-2.51-.85-5.18-1.05-7.68-1.92l-.11,.82c2.07,.2,4.08,.78,6.13,1.15,.43,.08,.77-.54,.32-.76-2.22-1.11-4.72-1.35-7.08-2.05-.44-.13-.75,.55-.32,.76,1.76,.88,3.76,.9,5.59,1.58l.22-.8c-3.28-.58-6.41-2.1-9.79-1.99-.41,.01-.57,.56-.21,.78,.24,.14,.36,.13,.63,.12,.54,0,.54-.84,0-.83h0Z" />
						</g>
						<path class="cls-2"
							d="M454.24,138.5c-.96-4.16-1.4-8.49-3.97-11.92-1.79-1.9-3.42-4.65-5.67-5.91-2.35-1.06-5.56-.91-8.16-1.01-1.4,.01-2.84,.19-4.06,1,.98-1.13,2.55-1.55,3.97-1.83,3.05-.3,5.94-.77,8.94,.39,1.51,.7,2.6,1.91,3.53,3.03,.9,1.22,1.86,2.14,2.76,3.4,2.6,3.75,2.72,8.54,2.66,12.86h0Z" />
						<path class="cls-2"
							d="M521.57,85.21c18.38,11.68,28.8,38.64,15.08,57.59-4.02,5.93-9.91,11.72-17.37,12.38,7.25-1.31,12.62-7.05,16.38-13.02,12.79-18.78,2.73-44.24-14.09-56.95h0Z" />
						<path class="cls-2"
							d="M550.25,127.65c2.57,10.93-4.33,26.19-15.99,28.56-.79,.1-1.59,.09-2.37,.12,11.95-2.05,18.84-17.62,18.35-28.68h0Z" />
					</svg>