<?xml version="1.0" encoding="UTF-8"?><svg id="_лой_1" xmlns="http://www.w3.org/2000/svg" viewBox="0 0 81 130"><defs><style>.cls-1{fill:#464545;}.cls-2{fill:#e97d22;}</style></defs><path class="cls-2" d="M55.81,91.61c.68,.87-.05-.07-.18-.25-.26-.35-.52-.7-.77-1.05-.52-.73-1.03-1.46-1.52-2.2-1.08-1.63-2.1-3.31-3.05-5.02s-1.78-3.42-2.57-5.18c-.23-.51,.13,.37-.22-.51-.21-.54-.43-1.08-.63-1.63-.33-.91-.64-1.83-.92-2.75-.56-1.83-.97-3.69-1.3-5.58-.19-1.05,0,.2-.06-.43-.04-.46-.09-.93-.12-1.39-.06-.92-.08-1.85-.06-2.77,.01-.55,.05-1.1,.09-1.65,.03-.46,.06-.72-.02-.11,.13-.99,.35-1.97,.61-2.93,.12-.44,.25-.88,.4-1.31,.04-.12,.54-1.44,.3-.86s.35-.71,.41-.83c.26-.5,.54-.99,.82-1.48l-10.47-1.37c.24,.63,.29,1.95,.25,.18,0,.62,.06,.37,.17-.77-.15,.56-.03,.29,.36-.8,.55-.95,1.98-1.83,2.47-1.95,.89-.22,1.47-.2,2.15-.02,.58,.16,1.2,.49,1.78,1.07,1.14,1.14,1.63,2.88,1.22,4.45-.17,.69-.5,1.29-1,1.8,.4-.38,.25-.28-.46,.3,.08,.04,1.33-.76,1.47-.83l-8.42-3.42c.08,.49,.15,.98,.22,1.47,.01,.1,.16,1.17,.1,.74-.07-.53,.12,.93,.13,1.06,.05,.41,.1,.82,.15,1.23,.23,1.99,.43,3.98,.63,5.98,.39,3.99,.73,7.99,1.14,11.98,.82,7.98,1.8,16.04,4.12,23.75,.89,2.96,4.01,4.83,7.05,4,2.94-.81,4.9-4.07,4-7.05-2.29-7.61-3.09-14.48-3.84-22-.8-8.08-1.41-16.18-2.64-24.21-.61-3.93-5.47-4.87-8.42-3.42-2.91,1.42-5.36,3.89-5.53,7.28-.16,3.11,2.11,6.03,5.09,6.84,2.6,.71,5.51,.11,7.42-1.87,2.26-2.35,2.57-5.86,1.43-8.82-.84-2.18-2.33-3.78-4.76-4.1-2.26-.3-4.53,.74-5.71,2.74-10.06,16.99-.33,37.86,10.59,51.81,1.91,2.44,6.1,2,8.1,0,2.41-2.41,1.91-5.66,0-8.1h0Z"/><path class="cls-1" d="M64.85,99.65c-15.45-9.36-18.89-29.87-17.85-46.57,3.39,16.38,5.58,34.1,17.85,46.57h0Z"/><path class="cls-1" d="M52.34,25.87c-16.61,14.54-13.66,38.78-9.98,58.32,1.36,6.84,3.07,13.64,4.76,20.49-10.05-22.61-19.97-62.74,5.22-78.81h0Z"/><path class="cls-1" d="M32.67,24.4c-10.71,23.27-14.64,49.35-10.56,74.66,.28,1.68,.54,3.37,.79,5.06-.84-3.31-1.59-6.66-2.16-10.04-4.18-23.72,.21-48.68,11.94-69.69h0Z"/><path class="cls-1" d="M65.88,56.65c-2.18,7.83-1.78,16.43,1.43,23.92-5.22-6.49-5.71-16.83-1.43-23.92h0Z"/></svg>