<svg width="263" height="66" viewBox="0 0 263 66" fill="none" xmlns="http://www.w3.org/2000/svg">
<path fill-rule="evenodd" clip-rule="evenodd" d="M261.505 63.6466C263.499 61.6465 263.499 58.4037 261.505 56.4036L237.753 32.5733L261.505 8.74307C263.499 6.74295 263.499 3.50013 261.505 1.50002C259.511 -0.500087 256.279 -0.500087 254.286 1.50002L226.924 28.9518C224.93 30.9519 224.93 34.1947 226.924 36.1949L254.286 63.6466C256.279 65.6468 259.511 65.6468 261.505 63.6466Z" fill="#50A8D6" fill-opacity="0.05"/>
<path fill-rule="evenodd" clip-rule="evenodd" d="M223.933 63.6466C225.927 61.6465 225.927 58.4037 223.933 56.4036L200.181 32.5733L223.933 8.74307C225.927 6.74295 225.927 3.50013 223.933 1.50002C221.94 -0.500087 218.707 -0.500087 216.714 1.50002L189.352 28.9518C187.359 30.9519 187.359 34.1947 189.352 36.1949L216.714 63.6466C218.707 65.6468 221.94 65.6468 223.933 63.6466Z" fill="#50A8D6" fill-opacity="0.25"/>
<path fill-rule="evenodd" clip-rule="evenodd" d="M186.362 63.6466C188.355 61.6465 188.355 58.4037 186.362 56.4036L162.61 32.5733L186.362 8.74307C188.355 6.74295 188.355 3.50013 186.362 1.50002C184.368 -0.500087 181.136 -0.500087 179.143 1.50002L151.781 28.9518C149.787 30.9519 149.787 34.1947 151.781 36.1949L179.143 63.6466C181.136 65.6468 184.368 65.6468 186.362 63.6466Z" fill="#3FA0D2" fill-opacity="0.45"/>
<path fill-rule="evenodd" clip-rule="evenodd" d="M148.791 63.6466C150.784 61.6465 150.784 58.4037 148.791 56.4036L125.038 32.5733L148.791 8.74307C150.784 6.74295 150.784 3.50013 148.791 1.50002C146.797 -0.500087 143.565 -0.500087 141.571 1.50002L114.21 28.9518C112.216 30.9519 112.216 34.1947 114.21 36.1949L141.571 63.6466C143.565 65.6468 146.797 65.6468 148.791 63.6466Z" fill="#3FA0D2" fill-opacity="0.65"/>
<path fill-rule="evenodd" clip-rule="evenodd" d="M111.219 63.6466C113.212 61.6465 113.212 58.4037 111.219 56.4036L87.4667 32.5733L111.219 8.74307C113.212 6.74295 113.212 3.50013 111.219 1.50002C109.225 -0.500087 105.993 -0.500087 104 1.50002L76.6377 28.9518C74.6442 30.9519 74.6442 34.1947 76.6377 36.1949L104 63.6466C105.993 65.6468 109.225 65.6468 111.219 63.6466Z" fill="url(#paint0_linear_909_4790)" fill-opacity="0.85"/>
<path fill-rule="evenodd" clip-rule="evenodd" d="M73.6476 63.6466C75.6411 61.6465 75.6411 58.4037 73.6476 56.4036L49.8954 32.5733L73.6476 8.74307C75.6411 6.74295 75.6411 3.50013 73.6476 1.50002C71.654 -0.500087 68.4218 -0.500087 66.4283 1.50002L39.0665 28.9518C37.0729 30.9519 37.0729 34.1947 39.0665 36.1949L66.4283 63.6466C68.4218 65.6468 71.654 65.6468 73.6476 63.6466Z" fill="#48DCA6"/>
<path fill-rule="evenodd" clip-rule="evenodd" d="M36.0763 63.6466C38.0698 61.6465 38.0698 58.4037 36.0763 56.4036L12.3241 32.5733L36.0763 8.74307C38.0698 6.74295 38.0698 3.50013 36.0763 1.50002C34.0827 -0.500087 30.8505 -0.500087 28.857 1.50002L1.49516 28.9518C-0.498391 30.9519 -0.498391 34.1947 1.49516 36.1949L28.857 63.6466C30.8505 65.6468 34.0827 65.6468 36.0763 63.6466Z" fill="url(#paint1_linear_909_4790)"/>
<defs>
<linearGradient id="paint0_linear_909_4790" x1="75.7296" y1="46.9056" x2="112.714" y2="46.9056" gradientUnits="userSpaceOnUse">
<stop stop-color="#48DCA6"/>
<stop offset="1" stop-color="#50A8D6"/>
</linearGradient>
<linearGradient id="paint1_linear_909_4790" x1="0.587052" y1="46.9056" x2="37.5714" y2="46.9056" gradientUnits="userSpaceOnUse">
<stop stop-color="#48DCA6"/>
<stop offset="1" stop-color="#48DCA6"/>
</linearGradient>
</defs>
</svg>
