<svg width="263" height="66" viewBox="0 0 263 66" fill="none" xmlns="http://www.w3.org/2000/svg">
<path fill-rule="evenodd" clip-rule="evenodd" d="M1.49503 63.6466C-0.498527 61.6465 -0.498527 58.4037 1.49503 56.4036L25.2472 32.5733L1.49503 8.74307C-0.498522 6.74295 -0.498522 3.50013 1.49503 1.50002C3.48858 -0.500087 6.72078 -0.500087 8.71433 1.50002L36.0761 28.9518C38.0697 30.9519 38.0697 34.1947 36.0761 36.1949L8.71432 63.6466C6.72077 65.6468 3.48858 65.6468 1.49503 63.6466Z" fill="#50A8D6" fill-opacity="0.05"/>
<path fill-rule="evenodd" clip-rule="evenodd" d="M39.0668 63.6466C37.0733 61.6465 37.0733 58.4037 39.0668 56.4036L62.819 32.5733L39.0668 8.74307C37.0733 6.74295 37.0733 3.50013 39.0668 1.50002C41.0604 -0.500087 44.2926 -0.500087 46.2861 1.50002L73.6479 28.9518C75.6415 30.9519 75.6415 34.1947 73.6479 36.1949L46.2861 63.6466C44.2925 65.6468 41.0604 65.6468 39.0668 63.6466Z" fill="#50A8D6" fill-opacity="0.25"/>
<path fill-rule="evenodd" clip-rule="evenodd" d="M76.6381 63.6466C74.6445 61.6465 74.6445 58.4037 76.6381 56.4036L100.39 32.5733L76.6381 8.74307C74.6445 6.74295 74.6445 3.50013 76.6381 1.50002C78.6317 -0.500087 81.8638 -0.500087 83.8574 1.50002L111.219 28.9518C113.213 30.9519 113.213 34.1947 111.219 36.1949L83.8574 63.6466C81.8638 65.6468 78.6316 65.6468 76.6381 63.6466Z" fill="#3FA0D2" fill-opacity="0.45"/>
<path fill-rule="evenodd" clip-rule="evenodd" d="M114.209 63.6466C112.216 61.6465 112.216 58.4037 114.209 56.4036L137.962 32.5733L114.209 8.74307C112.216 6.74295 112.216 3.50013 114.209 1.50002C116.203 -0.500087 119.435 -0.500087 121.429 1.50002L148.79 28.9518C150.784 30.9519 150.784 34.1947 148.79 36.1949L121.429 63.6466C119.435 65.6468 116.203 65.6468 114.209 63.6466Z" fill="#3FA0D2" fill-opacity="0.65"/>
<path fill-rule="evenodd" clip-rule="evenodd" d="M151.781 63.6466C149.788 61.6465 149.788 58.4037 151.781 56.4036L175.533 32.5733L151.781 8.74307C149.788 6.74295 149.788 3.50013 151.781 1.50002C153.775 -0.500087 157.007 -0.500087 159 1.50002L186.362 28.9518C188.356 30.9519 188.356 34.1947 186.362 36.1949L159 63.6466C157.007 65.6468 153.775 65.6468 151.781 63.6466Z" fill="url(#paint0_linear_909_4789)" fill-opacity="0.85"/>
<path fill-rule="evenodd" clip-rule="evenodd" d="M189.352 63.6466C187.359 61.6465 187.359 58.4037 189.352 56.4036L213.105 32.5733L189.352 8.74307C187.359 6.74295 187.359 3.50013 189.352 1.50002C191.346 -0.500087 194.578 -0.500087 196.572 1.50002L223.934 28.9518C225.927 30.9519 225.927 34.1947 223.934 36.1949L196.572 63.6466C194.578 65.6468 191.346 65.6468 189.352 63.6466Z" fill="#48DCA6"/>
<path fill-rule="evenodd" clip-rule="evenodd" d="M226.924 63.6466C224.93 61.6465 224.93 58.4037 226.924 56.4036L250.676 32.5733L226.924 8.74307C224.93 6.74295 224.93 3.50013 226.924 1.50002C228.917 -0.500087 232.149 -0.500087 234.143 1.50002L261.505 28.9518C263.498 30.9519 263.498 34.1947 261.505 36.1949L234.143 63.6466C232.149 65.6468 228.917 65.6468 226.924 63.6466Z" fill="url(#paint1_linear_909_4789)"/>
<defs>
<linearGradient id="paint0_linear_909_4789" x1="187.27" y1="46.9056" x2="150.286" y2="46.9056" gradientUnits="userSpaceOnUse">
<stop stop-color="#48DCA6"/>
<stop offset="1" stop-color="#50A8D6"/>
</linearGradient>
<linearGradient id="paint1_linear_909_4789" x1="262.413" y1="46.9056" x2="225.429" y2="46.9056" gradientUnits="userSpaceOnUse">
<stop stop-color="#48DCA6"/>
<stop offset="1" stop-color="#48DCA6"/>
</linearGradient>
</defs>
</svg>
