<svg width="187" height="132" viewBox="0 0 187 132" fill="none" xmlns="http://www.w3.org/2000/svg">
<path fill-rule="evenodd" clip-rule="evenodd" d="M152.075 0.0623192C152.052 0.0616669 152.03 0.0610071 152.007 0.0603395L152 0C152.025 0.0208393 152.05 0.0416123 152.075 0.0623192ZM175.072 18.0565C174.915 22.2578 175.387 26.4752 176.493 30.5669C177.031 33.1075 177.441 35.6034 177.864 38.3181C180.382 33.4837 181.135 28.0006 181.883 22.5564C182.531 17.8396 183.175 13.1519 184.96 8.94059L186.223 5.59215C177.654 0.0127206 168.318 0.0588087 158.863 0.105483C156.604 0.116634 154.339 0.127819 152.075 0.0623192C156.345 3.59944 162.011 5.21054 167.558 6.78793C168.801 7.14117 170.037 7.49271 171.25 7.86382C156.523 18.2554 141.547 28.3966 126.554 38.549C98.0524 57.8486 69.4908 77.1891 42.4637 98.3681C38.7628 101.267 35.0868 104.19 31.4128 107.112C21.0948 115.316 10.793 123.508 0 131.123C11.765 123.724 23.0857 115.597 34.3811 107.488C37.6205 105.163 40.8578 102.839 44.1029 100.534C72.2052 80.7696 101.457 63.0358 130.774 45.2628C145.57 36.2927 160.382 27.3127 175.072 18.0565Z" fill="url(#paint0_linear_276_811)"/>
<defs>
<linearGradient id="paint0_linear_276_811" x1="1.41989e-08" y1="73.0118" x2="186.23" y2="73.5889" gradientUnits="userSpaceOnUse">
<stop stop-color="#3CA0D2"/>
<stop offset="1" stop-color="#48DCA6"/>
</linearGradient>
</defs>
</svg>
