<svg width="19" height="48" viewBox="0 0 19 48" fill="none" xmlns="http://www.w3.org/2000/svg">
<g clip-path="url(#clip0_1191_5338)">
<path d="M7.10714 0.349121C15.5992 2.33913 18.242 5.55856 18.4238 13.055C18.5996 16.5297 18.6663 19.9939 17.757 23.4738C17.1509 25.6983 16.4478 27.9227 15.5749 30.1055C13.0716 36.6642 7.98605 42.4154 2.07617 46.9632C5.24023 43.3166 8.32549 39.67 10.5925 35.6535C12.8594 31.637 14.2293 27.3184 15.3931 22.9842C16.4963 18.7437 16.3629 14.1281 16.2235 9.77301C15.9871 6.1837 14.0838 3.76652 10.5803 1.95884C9.5014 1.29203 8.15577 1.06802 7.10714 0.396006V0.349121Z" fill="#454545"/>
<path d="M2.16645 36.3931C3.13627 37.8882 3.01505 39.8053 3.20901 41.415C3.34842 43.1549 3.02111 44.7855 3.09384 46.4681C3.09384 46.5254 3.09384 46.4681 3.03323 46.3171C2.98222 46.2213 2.90533 46.1373 2.80896 46.0722C2.72813 46.009 2.63019 45.9643 2.52407 45.942C2.39678 45.942 2.43315 45.942 2.46952 45.942C3.2272 45.8638 4.0273 45.5356 4.82741 45.4731C6.71857 45.197 8.71884 45.296 10.5251 44.8688C11.2101 44.6188 12.0708 44.7021 12.7618 44.5094C12.2284 45.0303 11.5495 45.1553 10.9434 45.5929C9.24012 46.6348 7.19742 46.8797 5.27595 47.3485C4.43948 47.4944 3.69392 47.9007 2.68167 47.9841C2.39341 48.0299 2.09638 48.0128 1.8178 47.9344C1.53922 47.856 1.28799 47.7187 1.08714 47.5352C0.886281 47.3517 0.742222 47.1278 0.668158 46.884C0.594095 46.6403 0.592397 46.3844 0.663218 46.1399C0.578358 44.5771 1.09964 42.9205 1.26936 41.415C1.46332 39.6177 2.1119 38.1174 2.13008 36.3931H2.16645Z" fill="#454545"/>
</g>
<defs>
<clipPath id="clip0_1191_5338">
<rect width="17.869" height="47.6508" fill="white" transform="translate(0.664062 0.349121)"/>
</clipPath>
</defs>
</svg>
