<svg width="24" height="65" viewBox="0 0 24 65" fill="none" xmlns="http://www.w3.org/2000/svg">
<g clip-path="url(#clip0_1191_4596)">
<path d="M15.3464 0.304199C3.94069 2.97699 0.391169 7.30103 0.146935 17.3695C-0.0891571 22.0364 -0.178711 26.6892 1.04246 31.3631C1.85657 34.3508 2.80094 37.3384 3.97326 40.2701C7.33554 49.0791 14.1659 56.8036 22.1035 62.9118C17.8539 58.014 13.71 53.1163 10.6653 47.7217C7.62048 42.3272 5.78058 36.5268 4.21749 30.7054C2.73581 25.01 2.91491 18.8108 3.10216 12.9615C3.41966 8.14065 5.97597 4.89412 10.6815 2.46622C12.1307 1.57063 13.938 1.26976 15.3464 0.367171V0.304199Z" fill="#454545"/>
<path d="M21.9806 48.7153C20.6781 50.7234 20.8409 53.2983 20.5804 55.4603C20.3931 57.7972 20.8327 59.9872 20.7351 62.2472C20.7351 62.3242 20.7351 62.2472 20.8165 62.0443C20.885 61.9156 20.9882 61.8029 21.1177 61.7154C21.2263 61.6306 21.3578 61.5705 21.5003 61.5405C21.6713 61.5405 21.6224 61.5405 21.5736 61.5405C20.556 61.4356 19.4813 60.9948 18.4067 60.9108C15.8667 60.54 13.1801 60.6729 10.7541 60.0992C9.83411 59.7633 8.67807 59.8753 7.74998 59.6164C8.4664 60.3161 9.37821 60.484 10.1923 61.0717C12.48 62.4711 15.2235 62.7999 17.8043 63.4297C18.9277 63.6256 19.9291 64.1713 21.2887 64.2833C21.6758 64.3448 22.0747 64.3219 22.4489 64.2165C22.8231 64.1112 23.1605 63.9269 23.4303 63.6804C23.7 63.4339 23.8935 63.1332 23.993 62.8058C24.0925 62.4784 24.0948 62.1348 23.9996 61.8064C24.1136 59.7073 23.4135 57.4824 23.1855 55.4603C22.925 53.0464 22.0539 51.0313 22.0295 48.7153H21.9806Z" fill="#454545"/>
</g>
<defs>
<clipPath id="clip0_1191_4596">
<rect width="24" height="64" fill="white" transform="matrix(-1 0 0 1 24 0.304199)"/>
</clipPath>
</defs>
</svg>
