<svg width="77" height="20" viewBox="0 0 77 20" fill="none" xmlns="http://www.w3.org/2000/svg">
<path fill-rule="evenodd" clip-rule="evenodd" d="M76.5644 0.999549C77.1426 1.57772 77.1426 2.51512 76.5644 3.0933L69.6758 9.98191L76.5644 16.8705C77.1426 17.4487 77.1426 18.3861 76.5644 18.9643C75.9863 19.5425 75.0489 19.5425 74.4707 18.9643L66.5352 11.0288C65.957 10.4506 65.957 9.51321 66.5352 8.93504L74.4707 0.999549C75.0489 0.421376 75.9863 0.421377 76.5644 0.999549Z" fill="white" fill-opacity="0.05"/>
<path fill-rule="evenodd" clip-rule="evenodd" d="M65.6699 0.999549C66.2481 1.57772 66.2481 2.51512 65.6699 3.0933L58.7813 9.98191L65.6699 16.8705C66.2481 17.4487 66.2481 18.3861 65.6699 18.9643C65.0917 19.5425 64.1543 19.5425 63.5762 18.9643L55.6407 11.0288C55.0625 10.4506 55.0625 9.51321 55.6407 8.93504L63.5762 0.999549C64.1543 0.421376 65.0917 0.421377 65.6699 0.999549Z" fill="white" fill-opacity="0.25"/>
<path fill-rule="evenodd" clip-rule="evenodd" d="M54.7754 0.999549C55.3535 1.57772 55.3535 2.51512 54.7754 3.0933L47.8867 9.98191L54.7754 16.8705C55.3535 17.4487 55.3535 18.3861 54.7754 18.9643C54.1972 19.5425 53.2598 19.5425 52.6816 18.9643L44.7461 11.0288C44.168 10.4506 44.168 9.51321 44.7461 8.93504L52.6816 0.999549C53.2598 0.421376 54.1972 0.421377 54.7754 0.999549Z" fill="white" fill-opacity="0.45"/>
<path fill-rule="evenodd" clip-rule="evenodd" d="M43.8808 0.999549C44.459 1.57772 44.459 2.51512 43.8808 3.0933L36.9922 9.98191L43.8808 16.8705C44.459 17.4487 44.459 18.3861 43.8808 18.9643C43.3027 19.5425 42.3653 19.5425 41.7871 18.9643L33.8516 11.0288C33.2734 10.4506 33.2734 9.51321 33.8516 8.93504L41.7871 0.999549C42.3653 0.421376 43.3027 0.421377 43.8808 0.999549Z" fill="white" fill-opacity="0.65"/>
<path fill-rule="evenodd" clip-rule="evenodd" d="M32.9824 0.999549C33.5606 1.57772 33.5606 2.51512 32.9824 3.0933L26.0938 9.98191L32.9824 16.8705C33.5606 17.4487 33.5606 18.3861 32.9824 18.9643C32.4042 19.5425 31.4668 19.5425 30.8887 18.9643L22.9532 11.0288C22.375 10.4506 22.375 9.51321 22.9532 8.93504L30.8887 0.999549C31.4668 0.421376 32.4042 0.421377 32.9824 0.999549Z" fill="white" fill-opacity="0.85"/>
<path fill-rule="evenodd" clip-rule="evenodd" d="M22.0879 0.999549C22.666 1.57772 22.666 2.51512 22.0879 3.0933L15.1992 9.98191L22.0879 16.8705C22.666 17.4487 22.666 18.3861 22.0879 18.9643C21.5097 19.5425 20.5723 19.5425 19.9941 18.9643L12.0586 11.0288C11.4805 10.4506 11.4805 9.51321 12.0586 8.93504L19.9941 0.999549C20.5723 0.421376 21.5097 0.421377 22.0879 0.999549Z" fill="white"/>
<path fill-rule="evenodd" clip-rule="evenodd" d="M11.1894 0.999549C11.7676 1.57772 11.7676 2.51512 11.1894 3.0933L4.30081 9.98191L11.1894 16.8705C11.7676 17.4487 11.7676 18.3861 11.1894 18.9643C10.6113 19.5425 9.67385 19.5425 9.09568 18.9643L1.16019 11.0288C0.582018 10.4506 0.582018 9.51321 1.16019 8.93504L9.09568 0.999549C9.67386 0.421376 10.6113 0.421377 11.1894 0.999549Z" fill="white"/>
</svg>
