<svg width="8" height="21" viewBox="0 0 8 21" fill="none" xmlns="http://www.w3.org/2000/svg">
<g clip-path="url(#clip0_1191_4106)">
<path d="M3.06052 0.294434C6.7298 1.15428 7.8717 2.54535 7.95027 5.78442C8.02622 7.28578 8.05503 8.78265 7.66218 10.2863C7.40027 11.2474 7.09646 12.2085 6.71932 13.1517C5.63766 15.9856 3.44028 18.4706 0.886719 20.4356C2.25386 18.86 3.58695 17.2844 4.56647 15.5489C5.54599 13.8134 6.13789 11.9474 6.64075 10.0747C7.11741 8.24242 7.0598 6.24811 6.99956 4.36634C6.89742 2.81546 6.07504 1.77104 4.56123 0.989967C4.09504 0.70185 3.51362 0.60506 3.06052 0.314692V0.294434Z" fill="#454545"/>
<path d="M0.927802 15.8687C1.34685 16.5147 1.29447 17.343 1.37828 18.0385C1.43851 18.7903 1.29709 19.4949 1.32852 20.2219C1.32852 20.2467 1.32852 20.2219 1.30232 20.1566C1.28028 20.1153 1.24706 20.079 1.20542 20.0509C1.17049 20.0236 1.12818 20.0042 1.08233 19.9946C1.02733 19.9946 1.04304 19.9946 1.05875 19.9946C1.38613 19.9608 1.73185 19.819 2.07756 19.792C2.8947 19.6727 3.75898 19.7155 4.53946 19.5309C4.83541 19.4229 5.20731 19.4589 5.50588 19.3756C5.27541 19.6007 4.98208 19.6547 4.72017 19.8438C3.98422 20.294 3.10161 20.3997 2.27137 20.6023C1.90994 20.6654 1.5878 20.8409 1.15042 20.8769C1.02587 20.8967 0.897529 20.8894 0.777158 20.8555C0.656787 20.8216 0.548235 20.7623 0.461448 20.683C0.374662 20.6037 0.312416 20.507 0.280415 20.4016C0.248413 20.2963 0.247679 20.1858 0.27828 20.0801C0.241614 19.4048 0.466851 18.6891 0.540184 18.0385C0.623994 17.262 0.904231 16.6137 0.912088 15.8687H0.927802Z" fill="#454545"/>
</g>
<defs>
<clipPath id="clip0_1191_4106">
<rect width="7.72093" height="20.5891" fill="white" transform="translate(0.277344 0.294434)"/>
</clipPath>
</defs>
</svg>
