<svg width="375" height="701" viewBox="0 0 375 701" fill="none" xmlns="http://www.w3.org/2000/svg">
<path d="M-236.259 37.8598C-231.475 32.2249 -231 31.0029 -225.014 25.5402M-236.997 45.4875C-229.814 32.8518 -223.281 19.6932 -216.44 13.4039M-237.445 48.008C-232.621 37.2354 -224.146 24.2142 -211.451 11.4158M-239.741 54.0781C-225.577 36.8524 -214.282 23.672 -208.634 10.5646M-239.212 58.9905C-230.215 42.0945 -217.956 28.8701 -199.048 4.46377M-240.134 60.3639C-227.158 45.2566 -214.837 29.239 -198.422 4.47693M-238.355 64.3879C-227.466 43.6131 -208.791 25.2854 -192.199 1.01242M-239.677 68.2273C-223.455 43.9444 -208.756 23.3503 -189.711 2.126M-241.393 72.0162C-219.816 49.4401 -204.714 22.4831 -188.584 4.16425M-238.455 74.8151C-215.482 49.7074 -199.352 20.3122 -185.364 1.58575M-236.012 79.9462C-223.051 58.6749 -205.696 32.6533 -183.319 1.13505M-236.589 81.8769C-221.372 60.2607 -209.263 43.9925 -177.37 4.24484M-236.577 84.1901C-225.011 65.6886 -210.618 48.6636 -176.282 2.51674M-233.304 84.3766C-214.929 58.2439 -194.397 31.6963 -173.239 3.58454M-234.745 88.9097C-220.563 69.218 -207.085 50.8586 -172.018 2.48706M-229.572 92.256C-218.508 70.7288 -206.695 57.3334 -167.83 4.72739M-232.469 91.4715C-210.564 63.7945 -190.407 34.5368 -165.527 3.55513M-228.214 94.3594C-203.875 60.4788 -180.341 23.5739 -165.679 5.7877M-226.749 95.3539C-213.062 73.5418 -194.93 52.0138 -162.662 3.50539M-224.596 96.7118C-214.789 77.5361 -197.662 57.5016 -160.545 7.38594M-223.669 98.3138C-208.145 74.1128 -192.978 49.8872 -159.343 7.16897M-224.924 104.189C-204.601 73.7287 -183.548 46.7086 -156.622 5.83116M-224.076 102.543C-206.166 80.4702 -189.129 54.8865 -155.792 8.97382M-221.3 106.516C-202.9 80.3666 -183.165 55.9008 -149.881 8.34049M-218.195 105.896C-200.437 85.4523 -183.039 59.113 -150.136 12.6881M-219.69 108.607C-200.498 82.4073 -180.504 59.306 -147.668 11.0058M-214.572 112.061C-189.621 74.1979 -164.019 40.4677 -146.33 14.7632M-214.616 112.115C-196.088 90.6943 -177.978 65.9781 -145.715 13.9758M-212.055 114.86C-199.025 94.1504 -182.052 73.2481 -143.926 16.227M-211.2 116.06C-188.843 84.6495 -170.977 55.4731 -139.967 15.8233M-211.034 119.733C-190.646 91.291 -169.988 61.8213 -137.75 19.2724M-207.035 120.711C-185.321 81.4713 -157.074 46.8715 -136.515 22.501M-208.665 120.469C-191.44 100.706 -177.629 78.2334 -135.161 24.2174M-204.085 123.398C-183.432 93.9522 -159.573 61.9483 -133.918 23.3903M-205.763 123.932C-184.718 94.2955 -163.518 67.2143 -133.065 25.3336M-201.724 128.212C-179.377 92.5896 -154.665 60.9317 -130.884 29.4171M-198.923 129.685C-186.242 109.765 -170.733 87.3018 -128.244 30.1423M-198.125 131.51C-176.192 98.6872 -152.846 67.2603 -128.233 32.9929M-197.034 130.766C-175.836 104.024 -155.738 76.5853 -125.941 33.5173M-194.542 131.402C-174.467 104.573 -152.544 73.9255 -124.038 37.5087M-192.719 135.012C-168.474 94.7152 -142.379 57.0188 -123.824 39.7509M-190.879 136.945C-171.609 104.97 -148.574 75.2341 -121.766 39.2746M-188.602 136.987C-166.393 105.66 -145.429 76.1766 -122.924 42.7933M-190.716 141.038C-172.545 121.08 -157.823 98.7927 -121.396 44.2408M-188.64 139.537C-166.083 109.476 -146.64 81.7304 -118.349 46.1623M-185.476 143.777C-164.804 113.181 -147.548 84.6657 -114.344 47.0717M-185.074 142.163C-156.037 106.989 -129.524 68.4371 -115.029 47.2302M-180.864 147.323C-166.228 126.592 -149.62 106.157 -114.543 48.8154M-178.802 147.59C-158.681 117.47 -137.709 86.3825 -109.568 52.8127M-179.984 147.593C-155.791 117.356 -136.846 89.4099 -109.371 51.5194M-177.238 149.269C-162.181 130.01 -147.134 109.319 -106.542 54.6245M-175.572 151.876C-155.017 124.046 -134.623 96.5714 -106.064 56.095M-171.619 154.306C-160.228 134.918 -148.064 116.162 -102.728 58.4852M-173.616 153.239C-150.132 127.757 -131.645 100.367 -103.198 59.9071M-171.617 156.464C-145.698 126.698 -125.658 93.2213 -100.871 60.8965M-169.307 158.572C-145.914 127.512 -124.375 93.0334 -99.9747 62.7502M-165.169 157.895C-149.398 135.623 -132.284 113.72 -98.9931 64.3419M-164.061 161.382C-143.718 134.846 -125.163 108.395 -96.066 62.9443M-163.814 162.101C-145.224 137.401 -129.317 109.838 -95.4558 65.206M-161.231 162.523C-141.138 137.786 -120.309 110.41 -92.9614 68.0519M-161.16 163.147C-141.453 138.737 -125.407 112.523 -89.0956 69.0362M-158.19 166.412C-135.669 130.127 -107.771 93.7518 -90.8549 69.321M-154.139 169.266C-132.741 133.559 -107.014 99.5588 -88.7603 69.8469M-153.193 170.08C-139.332 149.439 -126.135 126.751 -85.2661 73.4805M-150.306 169.84C-131.077 142.396 -113.691 114.91 -83.6153 73.1831M-149.893 169.419C-129.105 142.099 -108.216 116.894 -79.7852 75.2445M-150.425 171.928C-127.287 143.466 -101.717 113.636 -81.3006 76.3265M-146.692 175.439C-131.665 150.233 -110.768 126.217 -77.0826 77.1151M-144.195 176.751C-126.247 151.626 -108.931 125.256 -76.9513 81.3286M-141.09 175.721C-115.236 140.858 -91.343 106.862 -76.1018 79.8245M-142.239 178.498C-126.522 157.669 -111.583 134.301 -70.7142 81.073M-138.539 178.849C-114.322 147.305 -94.5034 112.739 -68.4347 83.1775M-137.076 179.878C-123.026 157.694 -105.606 137.766 -67.1442 85.9495M-134.191 180.828C-114.537 153.351 -94.3491 124.504 -67.1002 86.3783M-134.08 185.005C-111.01 149.796 -87.1348 116.824 -64.8939 89.4631M-131.967 183.405C-114.821 163.993 -99.9366 143.417 -63.4962 87.657M-128.04 183.836C-113.256 162.764 -98.7663 139.38 -62.7511 90.4974M-129.011 185.807C-101.837 149.291 -73.3742 113.189 -59.2624 90.5081M-127.394 186.8C-107.388 157.579 -86.7312 131.178 -55.6235 92.3519M-124.898 190.447C-108.962 162.705 -90.9272 140.481 -56.4392 93.8291M-123.867 190.884C-106.083 166.334 -86.9945 144.258 -52.7891 94.8712M-120.037 193.524C-102.863 167.173 -84.4205 141.247 -49.881 98.5412M-120.024 194.417C-90.7422 157.928 -63.9095 121.475 -50.4003 96.7855M-116.741 194.042C-99.2535 166.863 -79.8049 137.869 -48.062 99.5811M-113.041 194.962C-86.5401 157.576 -60.1025 117.92 -48.152 98.732M-112.19 195.735C-93.6892 166.094 -71.1963 139.51 -45.3969 102.191M-111.422 197.973C-86.1894 164.681 -60.9213 133.164 -41.7492 100.991M-108.486 200.682C-88.4405 170.157 -67.415 142.414 -41.1378 102.509M-107.39 201.379C-90.7687 180.844 -71.4955 157.289 -39.9746 105.21M-104.701 200.474C-91.3281 181.53 -74.562 158.461 -36.2189 105.492M-102.136 204.025C-88.3745 181.254 -76.3654 161.215 -34.3301 105.749M-99.2687 202.727C-81.1101 175.498 -59.231 147.8 -31.3315 109.49M-100.808 203.734C-78.1924 177.806 -58.8952 147.091 -28.5958 111.013M-95.3025 206.262C-78.3588 178.65 -56.66 148.315 -28.1614 109.784M-95.0417 208.137C-68.5414 173.068 -42.9367 137.967 -25.4284 113.712M-92.5215 207.015C-68.9976 171.665 -43.0697 136.063 -26.0963 111.702M-89.526 209.401C-73.8083 187.392 -57.1189 164.562 -20.7855 115.457M-90.9445 209.565C-74.4601 189.771 -60.4027 168.917 -22.1782 115.816M-89.506 211.021C-58.968 173.992 -35.9935 140.215 -18.8214 118.072M-86.467 214.495C-66.2531 188.921 -45.8064 160.953 -16.8051 118.268M-83.5669 214.506C-66.7494 195.086 -54.8664 173.91 -14.7523 120.595M-82.1699 215.599C-62.1831 183.781 -37.8336 152.694 -12.1517 119.297M-78.5107 216.965C-62.7102 192.079 -42.4797 164.461 -12.4529 122.527M-76.625 216.406C-58.6526 194.801 -41.0657 168.856 -7.89798 124.067M-75.8031 218.591C-49.861 188.787 -30.2058 157.549 -5.66536 123.447M-74.0687 220.03C-46.0248 186.138 -18.637 148.541 -6.93075 124.835M-74.0257 220.607C-55.4915 201.465 -41.4175 184.348 -3.7103 125.401M-70.1934 222.71C-54.5423 204.779 -40.118 182.718 -2.03215 125.52M-68.2266 224.249C-46.4611 190.75 -24.1625 160.166 -1.04928 127.279M-66.9217 226.042C-39.9658 187.362 -14.508 149.174 2.44709 128.57M-64.5746 225.812C-45.5374 200.577 -30.2154 177.146 6.35312 130.109M-64.0083 227.726C-41.0503 199.544 -18.2144 165.934 8.43454 130.458M-59.1429 227.828C-41.8857 205.229 -20.0512 175.573 9.73122 132.99M-59.9384 229.237C-36.5235 202.169 -14.743 169.517 11.5388 133.758M-56.983 229.418C-33.6194 199.24 -9.09443 164.999 12.897 134.762M-55.8728 233.014C-37.0323 207.116 -18.2976 184.797 14.982 138.303M-52.2346 234.613C-30.1021 203.607 -7.90953 169.648 16.0585 135.779M-50.0448 234.264C-33.8296 211.507 -18.2874 191.052 17.1677 140.34M-47.9463 234.246C-34.0282 214.259 -17.2149 189.994 21.3219 140.081M-46.3927 235.162C-26.9575 212.074 -8.68444 187.153 20.4569 141.837M-45.7026 240.413C-19.4312 205.566 7.57774 170.454 23.3225 143.24M-44.5633 239.688C-13.0597 200.765 11.7059 164.357 27.6385 141.635M-41.4034 240.651C-25.0542 216.767 -7.67566 193.676 28.3642 146.946M-38.8091 243.642C-16.9341 212.519 2.04742 185.11 32.3272 147.118M-35.0887 244.212C-14.3941 215.609 8.5282 182.076 32.3874 145.176M-33.7807 243.078C-20.2735 222.317 -4.13275 200.186 34.8636 149.491M-33.2789 243.58C-13.2044 221.494 3.53019 195.42 35.6226 148.706M-29.435 245.667C-5.00832 214.564 16.8723 182.474 38.3923 151.214M-29.8789 249.085C-7.42778 212.244 15.2653 180.627 38.391 151.39M-25.6809 247.076C-13.5926 229.421 2.03238 209.174 43.8815 152.936M-23.4882 249.08C-1.54314 213.804 25.9906 180.136 42.4372 153.72M-22.5484 252.99C-7.93623 230.109 8.14396 206.547 43.9961 155.65M-22.1744 250.956C-3.35808 221.85 19.7133 193.867 46.5989 157.387M-17.4742 251.497C1.31991 225.9 21.5916 199.697 48.6187 156.346M-16.7898 254.153C3.29844 224.557 23.6039 200.087 52.0239 157.118M-16.0922 254.462C2.15542 231.746 22.584 205.65 51.8301 158.147M-13.205 257.12C1.67005 238.027 15.2928 214.864 56.8006 160.328M-12.479 259.222C4.72278 233.595 25.5286 209.724 57.1655 162.934M-10.8867 258.765C15.574 224.71 38.5028 193.79 58.2216 163.112M-6.21285 260.105C13.5224 226.441 40.1471 194.508 62.6772 164.272M-243.272 592.486C-239.396 582.099 -231.04 572.351 -225.081 569.785M-6.67945 262.291C13.5804 233.344 35.3726 208.208 61.8425 167.552M-245.718 599.858C-240.031 589.304 -228.325 578.359 -219.848 566.302M-5.13724 264.817C16.4627 230.746 41.1298 202.371 63.7266 167.549M-246.314 605.369C-237.421 593.855 -230.058 581.087 -214.102 562.195M-0.443747 264.553C25.799 229.104 53.5886 188.483 65.9383 168.268M-246.44 608.687C-235.843 595.407 -224.171 576.022 -213.274 561.37M0.992004 265.804C22.6523 235.356 40.9537 208.775 69.1669 171.483M-248.069 617.316C-236.98 595.915 -221.484 581.536 -207.095 561.866M2.30199 267.475C24.2308 236.672 46.8368 204.2 70.4681 171.506M-247.752 618.767C-231.686 599.348 -216.122 578.926 -203.325 558.087M5.14603 268.662C28.3763 236.286 52.516 202.119 71.6773 171.261M-246.875 623.993C-228.295 597.722 -211.55 576.039 -202.291 560.273M5.0185 270.212C31.0259 229.667 59.2168 194.318 76.4647 173.582M-248.7 624.849C-230.597 603.691 -212.839 581.401 -197.567 560.095M9.34986 268.719C33.0253 233.596 58.5737 198.636 77.7933 175.71M-245.496 631.038C-235.652 611.827 -219.769 593.098 -195.416 559.775M8.0661 269.962C34.2604 237.102 55.3849 207.01 80.6583 176.432M-246.056 634.494C-234.467 615.988 -219.158 596.234 -191.25 557M10.0876 272.53C34.0003 239.227 55.7317 210.138 82.6045 176.755M-246.938 633.972C-231.903 616.76 -217.69 596.923 -190.337 557.008M14.502 271.707C36.2959 242.442 58.5617 212.377 83.5197 178.082M-242.564 638.892C-225.412 609.088 -202.258 576.956 -186.724 556.958M17.851 273.116C39.6055 245.466 62.266 216.487 85.5934 177.235M-243.344 640.352C-228.656 617.325 -212.174 599.346 -185.397 557.639M15.9304 276.288C41.7995 242.852 62.5251 209.304 88.2588 179.532M-240.463 642.595C-223.872 615.593 -204.059 593.181 -182.003 558.322M18.7777 275.667C34.5364 257.337 53.0828 238.017 88.818 180M-241.076 644.985C-226.011 621.005 -208.136 602.399 -180.421 560.781M23.4927 276.462C42.8004 252.771 60.3894 225.308 90.8533 183.546M-240.395 647.13C-224.807 621.184 -207.399 599.465 -177.998 558.841M22.5862 280.537C47.1354 244.99 71.08 213.894 92.6829 182.598M-238.186 647.384C-212.913 614.73 -189.285 580.978 -172.818 558.725M23.8717 279.937C46.3526 249.791 68.4945 219.873 93.1666 183.382M-237.375 650.373C-218.723 625.646 -197.233 598.077 -172.766 559.781M25.876 282.259C49.7535 244.7 76.5534 210.417 97.1103 187.58M-237.155 653.842C-211.451 614.809 -184.717 581.199 -171.558 559.168M30.468 284.898C55.8077 249.04 77.3166 214.755 97.632 185.983M-235.558 653.3C-217.923 633.174 -202.926 613.754 -168.478 560.791M30.8126 284.061C55.4894 248.97 83.3233 215.287 99.1381 187.93M-234.254 657.63C-216.972 633.799 -197.809 608.728 -166.869 563.976M33.4066 286.812C54.5471 253.411 77.3358 223.993 101.862 190.318M-231.513 658.776C-205.262 621.941 -179.121 584.188 -161.027 564.737M36.7223 287.817C57.2986 254.948 81.6092 222.392 103.458 191.669M-228.666 660.213C-207.582 630.087 -187.81 604.117 -161.388 563.759M38.8708 286.009C67.2232 249.77 91.1549 209.752 105.2 192.752M-225.873 660.549C-202.981 624.666 -175.686 591.638 -158.359 564.922M41.091 288.393C63.5632 257.07 86.3845 222.251 109.969 190.699M-225.22 663.328C-209.851 639.275 -195.009 619.259 -155.455 563.945M40.0522 289.109C66.0589 259.387 86.2164 226.443 110.33 194.308M-222.576 663.004C-204.12 637.113 -184.113 611.129 -152.455 566.147M44.7655 289.936C70.7571 257.621 96.6484 220.633 113.751 194.857M-220.994 665.839C-203.725 640.809 -187.645 616.461 -150.106 566.203M46.1101 293.604C58.9324 267.764 79.4598 246.292 115.309 194.875M-221.664 666.861C-196.798 638.438 -176.196 607.399 -150.078 567.086M47.76 295.231C71.9038 258.686 99.211 220.678 114.627 197.957M-217.436 669.042C-196.327 637.045 -176.861 608.583 -145.576 566.69M49.0046 293.556C65.3192 269.963 84.3362 246.949 118.196 197.413M-218.359 668.272C-201.579 642.406 -184.043 618.629 -144.502 567.275M50.8909 296.944C65.8587 273.033 82.523 252.809 120.066 198.063M-214.79 670.612C-193.08 641.333 -175.556 611.913 -143.372 569.071M51.0579 296.805C74.7398 270.517 91.1772 245.144 120.805 202.097M-212.175 672.537C-189.41 640.755 -171.862 612.73 -137.537 570.258M55.99 299.771C73.9192 270.057 92.7756 242.916 122.72 203.48M-209.375 669.727C-183.477 637.041 -158.564 600.166 -138.293 570.261M56.7129 298.899C72.2773 274.263 91.6264 248.248 126.049 203.931M-208.479 674.291C-186.923 647.244 -170.117 618.22 -133.77 571.128M60.2179 299.023C80.292 275.029 99.7403 244.737 127.076 203.768M-203.341 672.819C-189.847 649.179 -173.282 625.645 -131.178 571.969M60.7116 300.418C85.2714 266.81 110.803 227.53 131.647 207.718M-203.096 675.526C-178.028 635.803 -148.062 599.013 -127.378 571.792M63.3634 302.728C86.4986 270.135 105.216 241.456 130.885 205.558M-202.779 675.717C-180.846 643.222 -161.077 617.921 -125.969 569.436M65.8671 302.351C78.0377 282.103 95.6506 260.496 132.843 208.521M-199.869 675.739C-176.289 647.536 -157.759 616.518 -123.056 571.945M66.9546 305.657C92.9952 268.792 123.284 229.026 134.608 207.78M-195.883 675.837C-177.251 648.698 -156.094 617.922 -121.639 574.092M68.1897 307.455C86.8685 275.548 109.482 247.627 136.431 209.61M-194.329 675.815C-177.366 654.455 -158.984 625.453 -120.321 572.362M68.8162 307.462C99.3672 266.478 125.35 229.5 140.053 212.552M-192.147 677.411C-174.905 656.285 -159.507 635.629 -118.092 575.219M74.077 309.11C101.522 271.116 126.829 234.131 142.982 212.075M-189.441 679.532C-174.998 653.469 -157.083 634.54 -115.074 574.272M73.0521 311.9C100.394 276.225 125.438 239.769 144.859 215.565M-187.879 679.174C-159.806 636.995 -128.368 597.067 -113.389 575.187M76.6422 312.745C90.0899 292.396 103.262 270.534 145.858 214.248M-182.676 680.309C-161.483 647.563 -136.069 613.507 -111.461 573.341M78.1252 312.686C95.0653 290.39 109.083 270.398 145.704 214.908M-181.123 681.017C-161.93 655.643 -141.022 628.043 -105.743 577.069M78.5608 315.31C95.3083 293.826 108.698 271.555 148.89 216.381M-181.189 680.96C-160.205 656.833 -142.141 631.182 -105.297 574.692M80.9247 313.551C96.7502 292.698 110.128 272.03 151.97 216.881M-179.605 680.014C-160.049 654.25 -142.068 628.3 -101.191 576.892M83.8727 316.835C105.378 284.524 130.778 256.318 152.148 218.771M-173.816 682.157C-158.917 655.575 -142.005 634.27 -98.9969 576.193M85.4523 317.58C110.878 278.873 140.936 241.266 153.477 221.634M-174.097 681.401C-152.101 651.355 -129.532 619.305 -98.4382 576.265M89.5737 316.824C103.702 296.547 117.964 271.336 157.84 220.845M-171.923 681.669C-153.832 660.442 -135.676 635.367 -94.9312 578.172M90.4417 318.707C112.534 285.285 139.591 253.476 158.633 225.32M-169.929 684.048C-144.111 651.61 -121.855 620.668 -93.1579 578.504M90.931 322.159C118.088 282.085 148.045 245.677 160.118 225.801M-166.547 682.569C-148.425 656.218 -127.915 630.739 -89.6112 579.485M93.3872 320.88C119.6 284.126 150.123 247.398 162.157 223.891M-164.977 685.087C-148.49 661.598 -130.196 636.187 -86.2086 576.542M96.9281 324.01C109.843 300.682 127.059 277.778 162.824 225.56M-161.629 686.372C-140.71 657.209 -121.654 632.724 -83.8935 578.504M95.8047 322.862C123.858 291.946 149.225 254.764 168.528 229.454M-157.77 686.989C-128.88 646.548 -102.803 608.115 -80.4165 578.731M101.44 325.999C121.903 296.388 146.487 263.169 168.425 228.951M-158.28 687.465C-131.439 655.109 -110.452 619.906 -78.4751 580.959M100.966 325.496C122.196 297.101 144.794 270.271 172.033 230.808M-154.112 688.362C-133.445 657.151 -115.941 631.938 -77.122 578.366M104.489 327.93C123.734 303.482 138.431 276.863 174.7 233.104M-150.999 688.353C-127.752 654.997 -104.991 619.05 -72.8799 578.073M105.068 327.382C128.232 298.035 151.854 265.745 174.342 232.068M-149.878 687.482C-127.66 660.04 -109.086 630.728 -73.2922 578.546M106.114 329.905C132.571 292.975 156.235 258.254 176.922 233.753M-148.287 688.073C-131.58 662.417 -112.329 640.144 -67.9992 580.846M110.224 331.844C126.475 311.29 141.79 287.138 177.271 234.049M-144.113 687.386C-120.295 659.051 -101.679 631.266 -67.6684 582.029M111.941 333.379C133.622 298.331 157.995 270.683 180.889 237.157M-142.795 689.264C-119.144 654.315 -93.5668 623.43 -61.9338 582.438M112.037 335.175C136.853 300.755 158.509 269.769 181.093 236.973M-138.152 688.609C-108.331 649.287 -77.9706 610.091 -62.441 579.974M115.601 335.983C138.491 304.558 156.548 275.07 184.749 239.891M-138.373 689.687C-108.663 649.719 -81.5687 613.018 -57.355 580.957M118.465 333.701C141.031 306.138 160.218 276.462 187.007 240.742M-135.434 691.945C-106.843 651.744 -77.0044 614.014 -55.9694 582.155M119.001 336.075C146.363 303.676 171.321 266.335 190.142 238.73M-133.133 691.781C-99.6975 648.396 -71.7023 607.356 -52.3202 582.333M120.168 336.781C140.036 310.015 160.703 282.033 189.064 241.005M-127.592 692.532C-105.485 662.699 -84.8769 630.503 -52.0346 580.311M122.472 339.042C138.387 319.416 151.544 296.344 191.711 243.908M-128.528 693.192C-110.159 668.394 -94.3597 642.225 -47.2332 581.292M124.909 339.174C149.248 306.29 171.808 271.792 193.134 242.45M-125.159 690.658C-104.08 667.003 -88.1834 639.785 -44.523 582.759M126.747 340.724C145.504 318.478 161.763 289.599 198.728 246.452M-120.79 693.241C-103.224 669.126 -87.1587 643.117 -43.1202 580.308M128.125 342.516C148.801 316.738 167.555 290.823 198.847 247.195M-118.494 693.851C-99.2237 667.384 -81.436 642.788 -38.4396 581.492M131.044 342.981C150.506 316.782 171.295 287.47 200.303 246.909M-114.567 690.971C-87.8133 650.573 -58.7862 613.183 -37.574 582.269M133.655 343.871C155.187 315.876 173.827 288.25 203.187 249.511M-114.488 691.952C-83.1937 649.553 -50.8696 607.781 -34.846 582.727M137.023 347.107C149.392 323.64 162.274 303.552 204.14 249.728M-112.122 693.178C-93.3467 672.252 -77.867 646.246 -29.7216 581.122M136.411 348.257C154.667 317.261 175.494 288.285 208.568 250.839M-109.408 692.467C-89.4675 669.674 -74.6698 644.989 -27.6361 581.799M137.925 346.33C165.772 314.595 188.143 281.553 210.55 250.002M-104.568 695.071C-89.7337 668.932 -73.7424 641.609 -25.1853 579.522M143.015 347.621C161.879 318.688 181.47 290.402 209.329 251.9M-104.421 694.616C-86.0124 673.558 -69.0595 647.175 -22.5078 578.66M142.423 350.498C164.416 326.783 182.719 299.254 213.401 254.029M-100.843 695.038C-74.2483 661.673 -51.2599 629.04 -17.1549 579.136M145.961 352.174C167.987 323.482 185.972 294.54 214.442 253.267M-96.1819 694.173C-70.7897 653.568 -38.4845 612.226 -14.404 577.77M147.192 353.163C171.378 319.768 196.878 285.92 215.978 256.522M-93.7503 693.69C-77.6716 669.619 -58.9028 645.067 -12.4064 579.584M148.342 353.104C163.611 330.356 179.273 311.766 219.199 255.916M-93.405 694.984C-59.6993 650.941 -28.8148 604.995 -10.3862 579.716M153.574 354.403C168.954 329.305 188.961 300.775 220.03 259.077M-89.0701 695.393C-71.0673 668.324 -48.7424 635.016 -8.88774 579.22M153.302 353.773C169.644 333.175 182.721 314.913 222.009 258.174M-89.1199 694.665C-63.1103 656.411 -33.9759 619.617 -3.78517 580.712M154.704 355.416C180.63 323.675 208.052 289.493 224.735 259.451M-84.2397 694.699C-56.4475 655.828 -24.1773 615.091 -1.58454 579.486M159.607 357.623C180.959 322.869 205.368 290.37 228.943 261.182M-83.6928 697.817C-58.5043 667.099 -38.8742 633.79 2.41493 579.496M159.939 357.143C177.866 330.962 195.615 306.828 230.677 262.156M-80.5877 696.9C-62.8575 669.393 -42.3637 640.606 4.81714 579.749M160.803 358.207C191.135 322.228 218.08 283.347 232.343 264.189M-78.0594 695.523C-53.5759 665.049 -31.6423 629.501 6.64034 577.274M163.996 359.383C181.067 333.057 199.291 305.89 232.818 263.197M-74.8309 697.577C-56.4556 668.53 -35.2732 640.245 8.92087 577.255M166.878 360.905C190.538 329.586 216.106 296.042 233.462 263.601M-71.3579 696.631C-57.0956 673.318 -37.45 648.321 12.6529 578.877M165.872 362.058C189.56 331.209 211.882 297.802 238.217 266.354M-70.8808 699.468C-41.9211 658.43 -12.7942 615.238 18.3702 577.218M168.39 362.664C197.191 327.767 224.718 287.952 239.628 266.978M-66.4722 696.927C-39.251 658.089 -8.95464 614.877 19.4461 575.909M170.089 364.895C185.724 343.723 200.853 326.725 243.619 268.405M-65.9011 699.692C-43.5515 674.414 -25.3591 648.775 22.0121 577.294M174.043 364.315C200.119 330.71 223.114 295.568 242.404 270.817M-59.7583 699.846C-39.5261 669.076 -20.5324 641.215 26.7545 577.272M174.35 366.044C189.33 347.887 205.246 326.297 247.013 270.862M-58.9027 700.352C-34.6881 664.368 -10.5514 633.979 30.174 576.408M178.749 369.162C205.746 329.913 235.344 291.612 247.239 269.718M-57.9082 698.837C-24.5594 652.111 8.49418 605.97 31.3781 576.508M179.865 367.709C207.959 331.252 234.033 295.08 249.526 270.388M-52.9923 700.003C-25.6027 663.733 -0.617124 627.855 36.9768 575.421M183.576 368.844C203.534 343.362 224.543 312.251 250.841 270.79M-49.9343 696.891C-16.0924 651.506 16.4199 608.383 38.0903 574.251M185.528 370.307C202.302 348.337 216.319 325.029 255.691 274.194M-48.9787 697.742C-25.4006 662.181 1.58192 627.997 43.5487 573.78M186.673 373.709C206.099 339.996 232.136 310.705 258.107 274.493M-44.8544 699.837C-15.2849 652.377 15.8053 607.97 46.0874 572.272M189.807 373.229C207.683 346.283 230.266 316.093 258.373 276.317M-43.4933 699.203C-17.5847 664.261 8.86535 631.027 48.082 572.375M189.983 375.547C208.764 346.973 226.295 323.4 260.61 276.078M-40.6284 700.558C-9.01587 655.448 19.0582 614.636 52.7136 569.877M193.594 373.995C214.902 345.603 237.12 312.863 261.693 277.736M-36.4529 697.622C-9.08516 655.228 22.0739 613.934 55.9035 570.37M192.836 374.913C212.296 348.302 230.273 324.623 264.491 278.514M-34.3557 698.082C-7.20095 664.598 16.5864 626.093 57.6595 571.575M197.046 376.4C213.125 354.972 228.954 329.294 267.872 280.265M-31.4129 698.072C-11.8141 668.525 7.66485 643.107 60.2644 571.248M199.321 378.922C221.774 348.74 241.855 318.63 271.018 280.706M-27.811 698.764C0.386113 658.281 27.9545 622.034 64.2199 570.567M200.193 380.671C218.483 354.158 233.109 332.507 269.69 281.446M-24.2533 699.402C-6.61598 673.135 15.0971 644.857 67.8222 568.523M202.9 380.723C226.281 345.711 248.875 312.477 271.629 282.05M-24.0292 700.102C4.26679 661.472 33.7266 621.413 71.3407 567.663M206.949 379.788C224.663 352.119 243.819 322.917 274.147 284.12M-18.902 699.807C7.66872 662.791 34.3439 626.145 74.4383 567.735M206.975 382.043C231.219 347.257 258.603 317.419 275.924 285.862M-15.7538 697.169C11.5 660.652 41.5521 622.055 79.3298 566.457M207.641 382.445C236.803 346.377 262.773 308.505 281.098 284.64M-13.8245 700.067C10.9974 664.211 35.6759 627.083 81.6224 565.137M210.723 385.927C233.652 353.829 254.535 322.392 283.022 286.169M-10.6643 698.239C14.889 663.668 39.4395 626.605 87.125 562.836M212.367 385.308C233.121 356.199 253.311 329.617 282.439 288.354M-9.58962 700.198C19.3829 660.045 48.5464 622.367 89.4637 564.16M160.829 464.754C164.568 457.496 170.406 452.27 177.091 442.097M216.854 384.961C244.565 348.492 269.969 310.127 285.526 286.441M-6.15195 698.613C32.8841 648.758 69.8487 598.135 93.7649 560.315M156.901 474.473C160.345 464.516 167.347 453.361 182.47 436.569M215.844 388.92C244.411 348.531 272.134 313.633 286.356 288.881M-2.86962 697.946C30.9985 652.386 67.4022 602.1 97.7081 560.255M149.581 486.454C158.229 472.606 166.19 461.013 188.9 432.083M219.297 388.467C247.818 349.73 273.495 311.477 292.348 290.605M-0.866914 699.086C20.0349 668.888 40.941 643.414 100.487 559.348M151.562 488.727C163.249 473.626 173.509 457.814 190.372 428.872M221.053 390.506C243.389 360.478 263.323 332.83 293.61 291.381M3.02273 696.108C31.3263 657.498 61.9581 616.24 104.761 558.669M148.121 495.168C159.652 477.938 169.964 465.68 196.699 428.48M223.865 388.593C246.586 360.67 269.979 329.478 292.958 292.092M4.49143 695.965C34.323 657.802 61.4354 617.484 107.713 556.583M149.577 496.061C164.92 477.594 176.384 459.275 200.975 427.483M224.665 391.121C241.34 370.721 255.154 352.675 295.02 294.032M9.52243 695.268C34.6988 658.342 58.9998 623.369 112.095 554.512M148.58 500.041C170.61 469.619 193.988 442.524 207.764 424.092M228.032 391.441C254.497 351.623 282.692 313.202 296.446 296.792M11.9159 697.996C48.9747 646.655 83.0535 598.066 116.542 551.344M149.096 505.454C167.449 480.449 185.806 455.124 210.913 422.285M232.394 394.546C252.428 364.61 270.811 334.899 299.423 296.296M16.3655 694.822C42.9251 653.577 72.6634 611.481 119.796 552.537M148.461 510.287C173.249 473.007 198.406 442.968 214.204 422.856M233.729 395.2C254.031 360.737 273.37 333.779 302.356 297.681M18.9921 695.601C49.3292 651.563 79.1051 611.559 122.508 549.734M151.465 511.882C173.024 483.159 193.881 452.956 216.104 422.611M235.944 393.76C250.826 373.249 267.474 352.605 301.992 297.775M19.9112 694.545C54.6609 648.28 90.1378 600.441 126.975 546.595M151.145 515.715C170.109 488.029 191.246 461.444 218.746 421.256M235.422 394.98C261.583 362.981 283.794 334.24 303.881 300.101M25.8126 696.136C54.594 649.429 87.4609 605.422 132.1 545.462M151.531 518.449C167.138 495.244 182.343 473.683 220.935 420.162M239.641 397.547C264.341 360.343 289.283 326.895 309.47 302.269M26.613 693.831C59.8945 651.286 91.0184 605.139 134.492 543.838M152.176 519.22C174.624 489.184 194.9 460.706 227.022 420.519M240.115 396.565C256.708 375.646 269.211 352.644 311.152 299.942M29.989 693.992C62.8372 649.388 98.6665 603.231 139.164 544.655M155.538 524.248C176.682 489.934 198.463 457.373 229.572 417.518M241.506 398.308C259.31 375.876 275.452 353.75 311.93 302.554M33.8088 695.052C55.7661 662.457 83.3664 628.214 144.025 541.623M155.366 527C169.767 501.909 189.184 479.394 230.952 417.364M243.12 401.833C266.585 370.619 289.43 338.141 311.99 302.717M37.3623 693.218C75.6035 638.881 118.4 584.339 147.028 539.41M154.199 526.773C177.082 494.682 199.007 463.937 235.421 418.644M246.471 401.196C268.013 368.223 291.549 339.045 314.219 304.367M38.3894 695.341C74.418 644.825 109.683 595.568 152.204 538.089M156.264 531.495C188.658 486.201 217.356 443.314 238.869 415.908M248.046 404.435C267.968 378.803 285.7 352.115 317.555 308.401M41.4448 692.598C68.2302 661.133 90.7602 626.287 156.287 534.221M157.488 532.009C185.542 493.198 211.485 452.5 241.383 414.876M249.353 402.837C266.333 379.933 284.132 352.564 319.298 309.158M45.4093 693.525C116.412 593.939 188.484 493.006 244.978 417.01M251.004 404.596C271.665 374.571 293.709 346.053 319.169 309.049M49.4093 692.484C91.1966 637.015 132.713 577.705 246.739 416.563M255.774 407.621C270.968 381.319 288.897 358.407 324.492 309.412M52.4186 692.543C128.632 586.339 204.319 481.083 249.753 415.334M254.511 410.351C281.629 370.945 307.431 333.428 323.738 311.321M55.7863 691.154C162.968 540.128 271.45 389.614 326.292 313.866M59.3208 690.706C112.327 617.021 166.082 539.729 327.646 316.061M62.2391 690.107C136.836 586.502 211.589 480.893 329.888 316.876M64.5379 689.187C132.646 594.481 201.367 497.376 331.553 317.96M69.2968 689.162C155.014 567.532 244.154 446.818 333.372 319.345M72.5301 686.938C151.76 575.753 231.087 467.009 333.957 322.305M74.3941 687.168C179.635 542.385 282.775 396.936 335.55 323.24M78.1884 685.545C131.354 614.188 182.56 541.505 337.627 325.316M81.5377 685.202C180.819 549.681 280.147 410.892 339.522 327.183M84.7338 684.978C179.406 554.686 272.068 424.97 340.12 328.004M88.4538 683.748C163.29 579.352 236.919 475.1 342.057 330.857M91.2725 684.129C190.009 546.577 288.457 408.431 343.097 331.043M95.1538 683.378C146.461 609.389 200.321 533.096 344.564 333.113M99.1988 680.701C173.514 573.463 249.807 468.206 346.759 335.372M102.16 680.569C194.48 553.536 284.174 428.032 348.579 337.112M105.44 678.838C170.619 589.076 236.065 497.811 350.622 338.347M108.578 678.773C209.227 543.432 305.83 407.949 351.664 341.432M112.819 676.615C168.457 600.492 225.233 520.783 352.351 343.621M117.191 676.149C192.375 568.356 269.24 461.299 354.261 345.248M119.708 674.446C208.659 549.542 297.5 424.452 355.459 346.913M124.14 674.194C217.277 545.197 309.646 415.874 357.011 348.993M126.57 673.885C185.873 592.356 243.971 511.21 356.855 351.168M130.166 672.09C216.695 551.671 301.29 432.454 359.201 354.26M134.401 670.507C207.247 569.212 279.638 469.674 360.666 355.244M136.978 670.499C188.199 597.408 242.419 522.656 362.067 359.036M141.604 668.474C231.373 548.222 319.146 424.067 362.301 361.422M144.267 668.592C193.722 596.505 244.043 526.801 363.27 363.246M149.546 666.231C210.074 579.425 271.154 493.121 364.85 365.602M152.658 664.532C217.487 571.223 283.199 480.802 365.228 366.635M157.245 662.873C214.151 583.969 271.182 504.521 367.624 370.698M160.665 662.184C240.9 550.213 320.801 436.75 368.483 373.252M164.61 660.013C215.34 590.608 267.148 520.397 368.415 374.541M169.405 658.85C216.033 588.51 265.343 521.385 369.222 377.536M173.297 656.531C232.913 569.563 295.578 483.113 369.75 381.887M177.152 653.789C231.503 574.112 288.236 495.883 371.544 384.772M179.625 652.582C222.069 598.677 262.689 542.601 371.723 386.479M185.362 651.719C237.574 578.215 290.319 506.031 372 389.421M188.662 649.847C250.853 561.661 312.869 475.505 372.069 393.821M191.93 648.923C262.092 549.859 331.192 451.496 373.066 395.682M196.061 647.379C250.067 573.062 301.505 500.015 374.224 400.517M199.168 647.279C267.988 549.628 335.716 453.042 373.448 403.44M203.285 643.674C247.072 582.908 290.912 522.804 372.772 407.71M207.916 641.642C255.802 571.633 304.977 503.315 374.211 412.037M213.573 639.987C241.185 602.803 267.856 563.723 294.919 526.681M294.546 525.241C323.631 483.912 352.66 443.827 372.051 414.748M216.717 638.068C238.225 602.61 263.77 572.262 292.593 531.941M296.191 522.754C320.29 491.899 342.899 459.832 373.434 418.735M223.359 635.894C250.236 597.096 276.202 555.941 295.111 534.213M303.787 522.009C320.049 499.771 339.432 473.402 372.891 422.383M225.665 632.928C245.799 606.212 264.112 583.274 293.227 538.868M306.544 521.075C328.926 491.097 351.871 457.508 373.521 428.809M233.269 630.109C255.395 598.338 274.627 571.606 293.522 540.227M311.794 516.56C331.008 491.357 355.182 459.367 368.117 434.752M235.869 624.42C259.104 592.254 282.056 561.309 293.604 542.886M315.715 514.982C328.679 494.304 343.801 473.911 367.065 441.271M242.161 621.903C254.257 606.054 268.642 583.167 293.453 547.589M319.777 513.972C328.749 499.271 340.851 484.46 367.866 448.964M247.603 620.129C259.771 599.144 275.619 581.935 292.66 555.223M326.828 507.835C335.603 493.406 349.355 475.377 364.066 457.21M253.945 616.883C262.205 602.243 268.683 589.777 291.032 561.018M334.93 497.156C343.593 491.928 350.057 482.874 357.933 470.215M255.405 613.217C265.492 601.242 273.356 593.229 290.123 566.331M263.502 605.183C271.115 595.256 277.237 591.636 288.455 573.49M-231.961 28.2843V28.2843ZM-241.086 586.317V586.317ZM165.269 452.368V452.368Z" stroke="#48DCA6" stroke-width="0.5" stroke-linecap="round"/>
</svg>
