<svg width="277" height="701" viewBox="0 0 277 701" fill="none" xmlns="http://www.w3.org/2000/svg">
<path d="M610.923 37.8598C606.139 32.2249 605.664 31.0029 599.678 25.5402M611.661 45.4875C604.478 32.8518 597.945 19.6932 591.104 13.4039M612.109 48.008C607.285 37.2354 598.811 24.2142 586.115 11.4158M614.405 54.0781C600.241 36.8524 588.946 23.672 583.298 10.5646M613.876 58.9905C604.879 42.0945 592.62 28.8701 573.712 4.46377M614.798 60.3639C601.822 45.2566 589.501 29.239 573.086 4.47693M613.019 64.3879C602.13 43.6131 583.455 25.2854 566.863 1.01242M614.341 68.2273C598.119 43.9444 583.42 23.3503 564.375 2.126M616.057 72.0162C594.48 49.4401 579.378 22.4831 563.248 4.16425M613.119 74.8151C590.146 49.7074 574.016 20.3122 560.028 1.58575M610.676 79.9462C597.715 58.6749 580.36 32.6533 557.983 1.13505M611.253 81.8769C596.036 60.2607 583.927 43.9925 552.034 4.24484M611.241 84.1901C599.675 65.6886 585.282 48.6636 550.946 2.51674M607.968 84.3766C589.593 58.2439 569.061 31.6963 547.903 3.58454M609.409 88.9097C595.227 69.218 581.749 50.8586 546.682 2.48706M604.236 92.256C593.172 70.7288 581.359 57.3334 542.494 4.72739M607.133 91.4715C585.228 63.7945 565.071 34.5368 540.191 3.55513M602.878 94.3594C578.539 60.4788 555.005 23.5739 540.344 5.7877M601.413 95.3539C587.726 73.5418 569.594 52.0138 537.326 3.50539M599.26 96.7118C589.453 77.5361 572.326 57.5016 535.209 7.38594M598.333 98.3138C582.809 74.1128 567.642 49.8872 534.007 7.16897M599.588 104.189C579.265 73.7287 558.212 46.7086 531.286 5.83116M598.74 102.543C580.83 80.4702 563.794 54.8865 530.456 8.97382M595.964 106.516C577.564 80.3666 557.829 55.9008 524.545 8.34049M592.859 105.896C575.101 85.4523 557.703 59.113 524.801 12.6881M594.354 108.607C575.162 82.4073 555.168 59.306 522.332 11.0058M589.236 112.061C564.285 74.1979 538.683 40.4677 520.994 14.7632M589.28 112.115C570.752 90.6943 552.642 65.9781 520.38 13.9758M586.719 114.86C573.689 94.1504 556.716 73.2481 518.59 16.227M585.864 116.06C563.507 84.6495 545.641 55.4731 514.631 15.8233M585.698 119.733C565.31 91.291 544.652 61.8213 512.414 19.2724M581.699 120.711C559.985 81.4713 531.738 46.8715 511.179 22.501M583.329 120.469C566.104 100.706 552.293 78.2334 509.825 24.2174M578.749 123.398C558.096 93.9522 534.237 61.9483 508.582 23.3903M580.427 123.932C559.382 94.2955 538.182 67.2143 507.729 25.3336M576.388 128.212C554.041 92.5896 529.329 60.9317 505.548 29.4171M573.587 129.685C560.906 109.765 545.397 87.3018 502.908 30.1423M572.789 131.51C550.856 98.6872 527.51 67.2603 502.897 32.9929M571.698 130.766C550.5 104.024 530.402 76.5853 500.605 33.5173M569.206 131.402C549.131 104.573 527.208 73.9255 498.702 37.5087M567.384 135.012C543.138 94.7152 517.043 57.0188 498.488 39.7509M565.543 136.945C546.273 104.97 523.238 75.2341 496.43 39.2746M563.266 136.987C541.057 105.66 520.093 76.1766 497.588 42.7933M565.38 141.038C547.209 121.08 532.487 98.7927 496.06 44.2408M563.304 139.537C540.747 109.476 521.304 81.7304 493.013 46.1623M560.141 143.777C539.468 113.181 522.212 84.6657 489.008 47.0717M559.738 142.163C530.701 106.989 504.188 68.4371 489.693 47.2302M555.528 147.323C540.892 126.592 524.284 106.157 489.207 48.8154M553.466 147.59C533.345 117.47 512.373 86.3825 484.233 52.8127M554.648 147.593C530.455 117.356 511.51 89.4099 484.035 51.5194M551.902 149.269C536.845 130.01 521.798 109.319 481.206 54.6245M550.236 151.876C529.681 124.046 509.287 96.5714 480.728 56.095M546.284 154.306C534.892 134.918 522.728 116.162 477.392 58.4852M548.28 153.239C524.796 127.757 506.31 100.367 477.862 59.9071M546.281 156.464C520.362 126.698 500.322 93.2213 475.535 60.8965M543.971 158.572C520.578 127.512 499.039 93.0334 474.639 62.7502M539.833 157.895C524.062 135.623 506.948 113.72 473.657 64.3419M538.725 161.382C518.382 134.846 499.827 108.395 470.73 62.9443M538.478 162.101C519.888 137.401 503.981 109.838 470.12 65.206M535.895 162.523C515.802 137.786 494.973 110.41 467.625 68.0519M535.824 163.147C516.117 138.737 500.071 112.523 463.76 69.0362M532.855 166.412C510.333 130.127 482.435 93.7518 465.519 69.321M528.803 169.266C507.405 133.559 481.678 99.5588 463.424 69.8469M527.857 170.08C513.996 149.439 500.799 126.751 459.93 73.4805M524.97 169.84C505.741 142.396 488.355 114.91 458.279 73.1831M524.557 169.419C503.769 142.099 482.88 116.894 454.449 75.2445M525.089 171.928C501.951 143.466 476.381 113.636 455.965 76.3265M521.356 175.439C506.329 150.233 485.432 126.217 451.747 77.1151M518.859 176.751C500.911 151.626 483.595 125.256 451.615 81.3286M515.754 175.721C489.9 140.858 466.007 106.862 450.766 79.8245M516.904 178.498C501.186 157.669 486.247 134.301 445.378 81.073M513.203 178.849C488.986 147.305 469.167 112.739 443.099 83.1775M511.74 179.878C497.69 157.694 480.27 137.766 441.808 85.9495M508.855 180.828C489.201 153.351 469.013 124.504 441.764 86.3783M508.744 185.005C485.674 149.796 461.799 116.824 439.558 89.4631M506.631 183.405C489.485 163.993 474.601 143.417 438.16 87.657M502.704 183.836C487.921 162.764 473.43 139.38 437.415 90.4974M503.675 185.807C476.502 149.291 448.038 113.189 433.927 90.5081M502.058 186.8C482.052 157.579 461.395 131.178 430.288 92.3519M499.563 190.447C483.626 162.705 465.591 140.481 431.103 93.8291M498.531 190.884C480.747 166.334 461.659 144.258 427.453 94.8712M494.701 193.524C477.527 167.173 459.085 141.247 424.545 98.5412M494.688 194.417C465.406 157.928 438.574 121.475 425.064 96.7855M491.405 194.042C473.918 166.863 454.469 137.869 422.726 99.5811M487.705 194.962C461.204 157.576 434.767 117.92 422.816 98.732M486.854 195.735C468.353 166.094 445.86 139.51 420.061 102.191M486.086 197.973C460.853 164.681 435.585 133.164 416.413 100.991M483.15 200.682C463.105 170.157 442.079 142.414 415.802 102.509M482.054 201.379C465.433 180.844 446.16 157.289 414.639 105.21M479.365 200.474C465.992 181.53 449.226 158.461 410.883 105.492M476.8 204.025C463.039 181.254 451.029 161.215 408.994 105.749M473.933 202.727C455.774 175.498 433.895 147.8 405.996 109.49M475.472 203.734C452.856 177.806 433.559 147.091 403.26 111.013M469.967 206.262C453.023 178.65 431.324 148.315 402.825 109.784M469.706 208.137C443.205 173.068 417.601 137.967 400.092 113.712M467.186 207.015C443.662 171.665 417.734 136.063 400.76 111.702M464.19 209.401C448.472 187.392 431.783 164.562 395.45 115.457M465.609 209.565C449.124 189.771 435.067 168.917 396.842 115.816M464.17 211.021C433.632 173.992 410.658 140.215 393.485 118.072M461.131 214.495C440.917 188.921 420.47 160.953 391.469 118.268M458.231 214.506C441.413 195.086 429.53 173.91 389.416 120.595M456.834 215.599C436.847 183.781 412.498 152.694 386.816 119.297M453.175 216.965C437.374 192.079 417.144 164.461 387.117 122.527M451.289 216.406C433.317 194.801 415.73 168.856 382.562 124.067M450.467 218.591C424.525 188.787 404.87 157.549 380.329 123.447M448.733 220.03C420.689 186.138 393.301 148.541 381.595 124.835M448.69 220.607C430.156 201.465 416.082 184.348 378.374 125.401M444.857 222.71C429.206 204.779 414.782 182.718 376.696 125.52M442.891 224.249C421.125 190.75 398.827 160.166 375.713 127.279M441.586 226.042C414.63 187.362 389.172 149.174 372.217 128.57M439.239 225.812C420.201 200.577 404.879 177.146 368.311 130.109M438.672 227.726C415.714 199.544 392.878 165.934 366.23 130.458M433.807 227.828C416.55 205.229 394.715 175.573 364.933 132.99M434.602 229.237C411.188 202.169 389.407 169.517 363.125 133.758M431.647 229.418C408.283 199.24 383.758 164.999 361.767 134.762M430.537 233.014C411.696 207.116 392.962 184.797 359.682 138.303M426.899 234.613C404.766 203.607 382.574 169.648 358.606 135.779M424.709 234.264C408.494 211.507 392.951 191.052 357.496 140.34M422.61 234.246C408.692 214.259 391.879 189.994 353.342 140.081M421.057 235.162C401.622 212.074 383.349 187.153 354.207 141.837M420.367 240.413C394.095 205.566 367.086 170.454 351.342 143.24M419.227 239.688C387.724 200.765 362.958 164.357 347.026 141.635M416.067 240.651C399.718 216.767 382.34 193.676 346.3 146.946M413.473 243.642C391.598 212.519 372.617 185.11 342.337 147.118M409.753 244.212C389.058 215.609 366.136 182.076 342.277 145.176M408.445 243.078C394.938 222.317 378.797 200.186 339.8 149.491M407.943 243.58C387.868 221.494 371.134 195.42 339.041 148.706M404.099 245.667C379.672 214.564 357.792 182.474 336.272 151.214M404.543 249.085C382.092 212.244 359.399 180.627 336.273 151.39M400.345 247.076C388.257 229.421 372.632 209.174 330.783 152.936M398.152 249.08C376.207 213.804 348.674 180.136 332.227 153.72M397.212 252.99C382.6 230.109 366.52 206.547 330.668 155.65M396.838 250.956C378.022 221.85 354.951 193.867 328.065 157.387M392.138 251.497C373.344 225.9 353.073 199.697 326.045 156.346M391.454 254.153C371.366 224.557 351.06 200.087 322.64 157.118M390.756 254.462C372.509 231.746 352.08 205.65 322.834 158.147M387.869 257.12C372.994 238.027 359.371 214.864 317.863 160.328M387.143 259.222C369.941 233.595 349.135 209.724 317.499 162.934M385.551 258.765C359.09 224.71 336.161 193.79 316.442 163.112M380.877 260.105C361.142 226.441 334.517 194.508 311.987 164.272M617.936 592.486C614.06 582.099 605.704 572.351 599.745 569.785M381.344 262.291C361.084 233.344 339.291 208.208 312.822 167.552M620.382 599.858C614.695 589.304 602.99 578.359 594.512 566.302M379.801 264.817C358.201 230.746 333.534 202.371 310.938 167.549M620.978 605.369C612.085 593.855 604.722 581.087 588.766 562.195M375.108 264.553C348.865 229.104 321.075 188.483 308.726 168.268M621.104 608.687C610.507 595.407 598.835 576.022 587.939 561.37M373.672 265.804C352.012 235.356 333.71 208.775 305.497 171.483M622.733 617.316C611.644 595.915 596.148 581.536 581.759 561.866M372.362 267.475C350.433 236.672 327.827 204.2 304.196 171.506M622.416 618.767C606.35 599.348 590.786 578.926 577.989 558.087M369.518 268.662C346.288 236.286 322.148 202.119 302.987 171.261M621.539 623.993C602.959 597.722 586.214 576.039 576.955 560.273M369.646 270.212C343.638 229.667 315.447 194.318 298.199 173.582M623.364 624.849C605.261 603.691 587.503 581.401 572.231 560.095M365.314 268.719C341.639 233.596 316.09 198.636 296.871 175.71M620.16 631.038C610.316 611.827 594.433 593.098 570.08 559.775M366.598 269.962C340.404 237.102 319.279 207.01 294.006 176.432M620.72 634.494C609.131 615.988 593.822 596.234 565.914 557M364.576 272.53C340.664 239.227 318.932 210.138 292.06 176.755M621.603 633.972C606.567 616.76 592.354 596.923 565.001 557.008M360.162 271.707C338.368 242.442 316.102 212.377 291.144 178.082M617.228 638.892C600.076 609.088 576.922 576.956 561.388 556.958M356.813 273.116C335.059 245.466 312.398 216.487 289.071 177.235M618.008 640.352C603.321 617.325 586.838 599.346 560.061 557.639M358.734 276.288C332.865 242.852 312.139 209.304 286.405 179.532M615.127 642.595C598.536 615.593 578.723 593.181 556.667 558.322M355.886 275.667C340.128 257.337 321.581 238.017 285.846 180M615.74 644.985C600.675 621.005 582.801 602.399 555.085 560.781M351.171 276.462C331.864 252.771 314.275 225.308 283.811 183.546M615.059 647.13C599.471 621.184 582.063 599.465 552.662 558.841M352.078 280.537C327.529 244.99 303.584 213.894 281.981 182.598M612.85 647.384C587.577 614.73 563.949 580.978 547.482 558.725M350.792 279.937C328.311 249.791 306.17 219.873 281.497 183.382M612.039 650.373C593.387 625.646 571.897 598.077 547.43 559.781M348.788 282.259C324.911 244.7 298.111 210.417 277.554 187.58M611.819 653.842C586.115 614.809 559.381 581.199 546.222 559.168M344.196 284.898C318.856 249.04 297.347 214.755 277.032 185.983M610.223 653.3C592.587 633.174 577.59 613.754 543.142 560.791M343.851 284.061C319.175 248.97 291.341 215.287 275.526 187.93M608.918 657.63C591.636 633.799 572.473 608.728 541.533 563.976M341.257 286.812C320.117 253.411 297.328 223.993 272.802 190.318M606.177 658.776C579.926 621.941 553.785 584.188 535.691 564.737M337.942 287.817C317.365 254.948 293.055 222.392 271.206 191.669M603.33 660.213C582.246 630.087 562.474 604.117 536.052 563.759M335.793 286.009C307.441 249.77 283.509 209.752 269.464 192.752M600.537 660.549C577.645 624.666 550.35 591.638 533.023 564.922M333.573 288.393C311.101 257.07 288.28 222.251 264.695 190.699M599.884 663.328C584.515 639.275 569.673 619.259 530.119 563.945M334.612 289.109C308.605 259.387 288.448 226.443 264.334 194.308M597.24 663.004C578.784 637.113 558.778 611.129 527.119 566.147M329.899 289.936C303.907 257.621 278.016 220.633 260.913 194.857M595.658 665.839C578.389 640.809 562.309 616.461 524.77 566.203M328.554 293.604C315.732 267.764 295.204 246.292 259.355 194.875M596.328 666.861C571.462 638.438 550.86 607.399 524.742 567.086M326.904 295.231C302.76 258.686 275.453 220.678 260.037 197.957M592.1 669.042C570.991 637.045 551.525 608.583 520.24 566.69M325.659 293.556C309.345 269.963 290.328 246.949 256.468 197.413M593.023 668.272C576.243 642.406 558.707 618.629 519.166 567.275M323.773 296.944C308.805 273.033 292.141 252.809 254.598 198.063M589.454 670.612C567.744 641.333 550.22 611.913 518.036 569.071M323.606 296.805C299.924 270.517 283.487 245.144 253.859 202.097M586.839 672.537C564.074 640.755 546.526 612.73 512.201 570.258M318.674 299.771C300.745 270.057 281.888 242.916 251.944 203.48M584.039 669.727C558.141 637.041 533.228 600.166 512.957 570.261M317.951 298.899C302.387 274.263 283.038 248.248 248.615 203.931M583.143 674.291C561.587 647.244 544.781 618.22 508.434 571.128M314.446 299.023C294.372 275.029 274.924 244.737 247.588 203.768M578.005 672.819C564.511 649.179 547.946 625.645 505.842 571.969M313.952 300.418C289.393 266.81 263.861 227.53 243.017 207.718M577.76 675.526C552.692 635.803 522.726 599.013 502.042 571.792M311.301 302.728C288.165 270.135 269.448 241.456 243.779 205.558M577.444 675.717C555.51 643.222 535.741 617.921 500.633 569.436M308.797 302.351C296.626 282.103 279.013 260.496 241.821 208.521M574.533 675.739C550.953 647.536 532.423 616.518 497.72 571.945M307.709 305.657C281.669 268.792 251.38 229.026 240.056 207.78M570.547 675.837C551.916 648.698 530.758 617.922 496.303 574.092M306.474 307.455C287.796 275.548 265.182 247.627 238.234 209.61M568.993 675.815C552.03 654.455 533.648 625.453 494.985 572.362M305.848 307.462C275.297 266.478 249.314 229.5 234.611 212.552M566.811 677.411C549.569 656.285 534.171 635.629 492.756 575.219M300.587 309.11C273.142 271.116 247.835 234.131 231.683 212.075M564.105 679.532C549.662 653.469 531.747 634.54 489.738 574.272M301.612 311.9C274.27 276.225 249.226 239.769 229.805 215.565M562.543 679.174C534.47 636.995 503.032 597.067 488.053 575.187M298.022 312.745C284.574 292.396 271.402 270.534 228.806 214.248M557.34 680.309C536.147 647.563 510.733 613.507 486.125 573.341M296.539 312.686C279.599 290.39 265.582 270.398 228.96 214.908M555.787 681.017C536.594 655.643 515.686 628.043 480.407 577.069M296.103 315.31C279.356 293.826 265.966 271.555 225.774 216.381M555.853 680.96C534.869 656.833 516.805 631.182 479.961 574.692M293.739 313.551C277.914 292.698 264.537 272.03 222.694 216.881M554.269 680.014C534.713 654.25 516.732 628.3 475.855 576.892M290.791 316.835C269.286 284.524 243.886 256.318 222.516 218.771M548.48 682.157C533.581 655.575 516.669 634.27 473.661 576.193M289.212 317.58C263.786 278.873 233.728 241.266 221.187 221.634M548.761 681.401C526.766 651.355 504.196 619.305 473.102 576.265M285.09 316.824C270.962 296.547 256.7 271.336 216.824 220.845M546.587 681.669C528.496 660.442 510.34 635.367 469.595 578.172M284.222 318.707C262.13 285.285 235.073 253.476 216.032 225.32M544.593 684.048C518.775 651.61 496.519 620.668 467.822 578.504M283.733 322.159C256.576 282.085 226.619 245.677 214.546 225.801M541.211 682.569C523.089 656.218 502.579 630.739 464.275 579.485M281.277 320.88C255.064 284.126 224.541 247.398 212.507 223.891M539.641 685.087C523.154 661.598 504.86 636.187 460.873 576.542M277.736 324.01C264.821 300.682 247.605 277.778 211.84 225.56M536.293 686.372C515.374 657.209 496.318 632.724 458.558 578.504M278.859 322.862C250.806 291.946 225.439 254.764 206.136 229.454M532.434 686.989C503.544 646.548 477.467 608.115 455.081 578.731M273.225 325.999C252.761 296.388 228.177 263.169 206.239 228.951M532.945 687.465C506.103 655.109 485.116 619.906 453.139 580.959M273.698 325.496C252.468 297.101 229.87 270.271 202.631 230.808M528.776 688.362C508.109 657.151 490.605 631.938 451.786 578.366M270.176 327.93C250.93 303.482 236.233 276.863 199.964 233.104M525.663 688.353C502.416 654.997 479.655 619.05 447.544 578.073M269.596 327.382C246.432 298.035 222.81 265.745 200.322 232.068M524.542 687.482C502.324 660.04 483.75 630.728 447.956 578.546M268.55 329.905C242.093 292.975 218.429 258.254 197.742 233.753M522.951 688.073C506.244 662.417 486.993 640.144 442.663 580.846M264.44 331.844C248.189 311.29 232.874 287.138 197.393 234.049M518.777 687.386C494.959 659.051 476.343 631.266 442.332 582.029M262.723 333.379C241.042 298.331 216.67 270.683 193.775 237.157M517.459 689.264C493.808 654.315 468.231 623.43 436.598 582.438M262.627 335.175C237.811 300.755 216.155 269.769 193.571 236.973M512.816 688.609C482.995 649.287 452.635 610.091 437.105 579.974M259.063 335.983C236.173 304.558 218.116 275.07 189.915 239.891M513.037 689.687C483.327 649.719 456.233 613.018 432.019 580.957M256.199 333.701C233.633 306.138 214.446 276.462 187.657 240.742M510.098 691.945C481.507 651.744 451.668 614.014 430.634 582.155M255.663 336.075C228.301 303.676 203.343 266.335 184.522 238.73M507.797 691.781C474.362 648.396 446.366 607.356 426.984 582.333M254.496 336.781C234.628 310.015 213.961 282.033 185.6 241.005M502.256 692.532C480.149 662.699 459.541 630.503 426.699 580.311M252.192 339.042C236.277 319.416 223.12 296.344 182.953 243.908M503.192 693.192C484.823 668.394 469.024 642.225 421.897 581.292M249.755 339.174C225.416 306.29 202.856 271.792 181.53 242.45M499.823 690.658C478.744 667.003 462.847 639.785 419.187 582.759M247.918 340.724C229.16 318.478 212.901 289.599 175.936 246.452M495.454 693.241C477.888 669.126 461.823 643.117 417.784 580.308M246.539 342.516C225.863 316.738 207.109 290.823 175.817 247.195M493.158 693.851C473.888 667.384 456.1 642.788 413.104 581.492M243.62 342.981C224.158 316.782 203.369 287.47 174.361 246.909M489.231 690.971C462.477 650.573 433.45 613.183 412.238 582.269M241.009 343.871C219.477 315.876 200.837 288.25 171.477 249.511M489.152 691.952C457.858 649.553 425.534 607.781 409.51 582.727M237.641 347.107C225.272 323.64 212.39 303.552 170.524 249.728M486.786 693.178C468.011 672.252 452.531 646.246 404.386 581.122M238.253 348.257C219.997 317.261 199.17 288.285 166.096 250.839M484.072 692.467C464.132 669.674 449.334 644.989 402.3 581.799M236.739 346.33C208.892 314.595 186.522 281.553 164.114 250.002M479.232 695.071C464.398 668.932 448.406 641.609 399.849 579.522M231.649 347.621C212.785 318.688 193.194 290.402 165.335 251.9M479.085 694.616C460.676 673.558 443.724 647.175 397.172 578.66M232.241 350.498C210.249 326.783 191.945 299.254 161.263 254.029M475.507 695.038C448.912 661.673 425.924 629.04 391.819 579.136M228.703 352.174C206.677 323.482 188.692 294.54 160.222 253.267M470.846 694.173C445.454 653.568 413.149 612.226 389.068 577.77M227.473 353.163C203.286 319.768 177.786 285.92 158.686 256.522M468.414 693.69C452.336 669.619 433.567 645.067 387.07 579.584M226.322 353.104C211.053 330.356 195.391 311.766 155.465 255.916M468.069 694.984C434.363 650.941 403.479 604.995 385.05 579.716M221.09 354.403C205.71 329.305 185.703 300.775 154.634 259.077M463.734 695.393C445.731 668.324 423.406 635.016 383.552 579.22M221.362 353.773C205.02 333.175 191.944 314.913 152.655 258.174M463.784 694.665C437.774 656.411 408.64 619.617 378.449 580.712M219.96 355.416C194.035 323.675 166.612 289.493 149.929 259.451M458.904 694.699C431.112 655.828 398.841 615.091 376.249 579.486M215.057 357.623C193.705 322.869 169.296 290.37 145.721 261.182M458.357 697.817C433.168 667.099 413.538 633.79 372.249 579.496M214.725 357.143C196.798 330.962 179.049 306.828 143.987 262.156M455.252 696.9C437.522 669.393 417.028 640.606 369.847 579.749M213.861 358.207C183.529 322.228 156.584 283.347 142.321 264.189M452.723 695.523C428.24 665.049 406.306 629.501 368.024 577.274M210.668 359.383C193.597 333.057 175.373 305.89 141.846 263.197M449.495 697.577C431.12 668.53 409.937 640.245 365.743 577.255M207.786 360.905C184.126 329.586 158.558 296.042 141.202 263.601M446.022 696.631C431.76 673.318 412.114 648.321 362.011 578.877M208.792 362.058C185.104 331.209 162.782 297.802 136.447 266.354M445.545 699.468C416.585 658.43 387.458 615.238 356.294 577.218M206.274 362.664C177.473 327.767 149.946 287.952 135.036 266.978M441.136 696.927C413.915 658.089 383.619 614.877 355.218 575.909M204.575 364.895C188.94 343.723 173.811 326.725 131.045 268.405M440.565 699.692C418.216 674.414 400.023 648.775 352.652 577.294M200.621 364.315C174.545 330.71 151.55 295.568 132.26 270.817M434.422 699.846C414.19 669.076 395.196 641.215 347.91 577.272M200.315 366.044C185.334 347.887 169.418 326.297 127.651 270.862M433.567 700.352C409.352 664.368 385.215 633.979 344.49 576.408M195.915 369.162C168.918 329.913 139.32 291.612 127.425 269.718M432.572 698.837C399.223 652.111 366.17 605.97 343.286 576.508M194.8 367.709C166.705 331.252 140.632 295.08 125.138 270.388M427.656 700.003C400.267 663.733 375.281 627.855 337.687 575.421M191.088 368.844C171.13 343.362 150.121 312.251 123.823 270.79M424.598 696.891C390.756 651.506 358.244 608.383 336.574 574.251M189.136 370.307C172.362 348.337 158.345 325.029 118.973 274.194M423.643 697.742C400.065 662.181 373.082 627.997 331.115 573.78M187.991 373.709C168.565 339.996 142.528 310.705 116.557 274.493M419.518 699.837C389.949 652.377 358.859 607.97 328.577 572.272M184.857 373.229C166.981 346.283 144.398 316.093 116.291 276.317M418.157 699.203C392.249 664.261 365.799 631.027 326.582 572.375M184.681 375.547C165.9 346.973 148.369 323.4 114.054 276.078M415.292 700.558C383.68 655.448 355.606 614.636 321.951 569.877M181.07 373.995C159.762 345.603 137.544 312.863 112.971 277.736M411.117 697.622C383.749 655.228 352.59 613.934 318.761 570.37M181.828 374.913C162.368 348.302 144.391 324.623 110.173 278.514M409.02 698.082C381.865 664.598 358.078 626.093 317.005 571.575M177.618 376.4C161.539 354.972 145.71 329.294 106.792 280.265M406.077 698.072C386.478 668.525 366.999 643.107 314.4 571.248M175.343 378.922C152.89 348.74 132.809 318.63 103.646 280.706M402.475 698.764C374.278 658.281 346.71 622.034 310.444 570.567M174.471 380.671C156.181 354.158 141.555 332.507 104.974 281.446M398.917 699.402C381.28 673.135 359.567 644.857 306.842 568.523M171.764 380.723C148.383 345.711 125.789 312.477 103.035 282.05M398.693 700.102C370.397 661.472 340.937 621.413 303.323 567.663M167.716 379.788C150.001 352.119 130.845 322.917 100.517 284.12M393.566 699.807C366.995 662.791 340.32 626.145 300.226 567.735M167.689 382.043C143.445 347.257 116.061 317.419 98.7401 285.862M390.418 697.169C363.164 660.652 333.112 622.055 295.334 566.457M167.023 382.445C137.861 346.377 111.891 308.505 93.5663 284.64M388.489 700.067C363.667 664.211 338.988 627.083 293.042 565.137M163.942 385.927C141.012 353.829 120.129 322.392 91.6424 286.169M385.328 698.239C359.775 663.668 335.225 626.605 287.539 562.836M162.297 385.308C141.543 356.199 121.353 329.617 92.2255 288.354M384.254 700.198C355.281 660.045 326.118 622.367 285.2 564.16M213.836 464.754C210.096 457.496 204.258 452.27 197.573 442.097M157.81 384.961C130.099 348.492 104.695 310.127 89.1381 286.441M380.816 698.613C341.78 648.758 304.815 598.135 280.899 560.315M217.763 474.473C214.319 464.516 207.317 453.361 192.194 436.569M158.82 388.92C130.253 348.531 102.53 313.633 88.3081 288.881M377.534 697.946C343.666 652.386 307.262 602.1 276.956 560.255M225.083 486.454C216.435 472.606 208.474 461.013 185.764 432.083M155.367 388.467C126.846 349.73 101.169 311.477 82.3157 290.605M375.531 699.086C354.629 668.888 333.723 643.414 274.177 559.348M223.102 488.727C211.415 473.626 201.155 457.814 184.292 428.872M153.611 390.506C131.275 360.478 111.341 332.83 81.0545 291.381M371.641 696.108C343.338 657.498 312.706 616.24 269.903 558.669M226.543 495.168C215.012 477.938 204.7 465.68 177.965 428.48M150.8 388.593C128.079 360.67 104.685 329.478 81.7059 292.092M370.173 695.965C340.341 657.802 313.229 617.484 266.951 556.583M225.087 496.061C209.744 477.594 198.28 459.275 173.689 427.483M149.999 391.121C133.324 370.721 119.51 352.675 79.6439 294.032M365.142 695.268C339.965 658.342 315.664 623.369 262.569 554.512M226.084 500.041C204.054 469.619 180.676 442.524 166.9 424.092M146.632 391.441C120.167 351.623 91.9717 313.202 78.218 296.792M362.748 697.996C325.689 646.655 291.611 598.066 258.122 551.344M225.568 505.454C207.215 480.449 188.858 455.124 163.751 422.285M142.27 394.546C122.236 364.61 103.853 334.899 75.2406 296.296M358.299 694.822C331.739 653.577 302.001 611.481 254.869 552.537M226.203 510.287C201.415 473.007 176.258 442.968 160.46 422.856M140.935 395.2C120.633 360.737 101.294 333.779 72.3082 297.681M355.672 695.601C325.335 651.563 295.559 611.559 252.156 549.734M223.199 511.882C201.64 483.159 180.783 452.956 158.56 422.611M138.72 393.76C123.838 373.249 107.19 352.605 72.6716 297.775M354.753 694.545C320.003 648.28 284.526 600.441 247.689 546.595M223.519 515.715C204.555 488.029 183.418 461.444 155.919 421.256M139.242 394.98C113.081 362.981 90.8697 334.24 70.7833 300.101M348.851 696.136C320.07 649.429 287.203 605.422 242.564 545.462M223.133 518.449C207.526 495.244 192.321 473.683 153.729 420.162M135.023 397.547C110.324 360.343 85.3807 326.895 65.1939 302.269M348.051 693.831C314.77 651.286 283.646 605.139 240.172 543.838M222.488 519.22C200.04 489.184 179.764 460.706 147.642 420.519M134.549 396.565C117.956 375.646 105.453 352.644 63.5119 299.942M344.675 693.992C311.827 649.388 275.998 603.231 235.5 544.655M219.126 524.248C197.982 489.934 176.201 457.373 145.092 417.518M133.158 398.308C115.354 375.876 99.2126 353.75 62.7343 302.554M340.855 695.052C318.898 662.457 291.298 628.214 230.639 541.623M219.298 527C204.897 501.909 185.48 479.394 143.712 417.364M131.544 401.833C108.079 370.619 85.2336 338.141 62.6746 302.717M337.302 693.218C299.061 638.881 256.264 584.339 227.636 539.41M220.465 526.773C197.582 494.682 175.657 463.937 139.243 418.644M128.193 401.196C106.651 368.223 83.1146 339.045 60.4446 304.367M336.275 695.341C300.246 644.825 264.981 595.568 222.46 538.089M218.4 531.495C186.006 486.201 157.308 443.314 135.795 415.908M126.618 404.435C106.696 378.803 88.9643 352.115 57.1087 308.401M333.219 692.598C306.434 661.133 283.904 626.287 218.377 534.221M217.176 532.009C189.122 493.198 163.179 452.5 133.281 414.876M125.311 402.837C108.331 379.933 90.5324 352.564 55.3657 309.158M329.255 693.525C258.252 593.939 186.181 493.006 129.686 417.01M123.66 404.596C102.999 374.571 80.9547 346.053 55.4952 309.049M325.255 692.484C283.467 637.015 241.951 577.705 127.925 416.563M118.89 407.621C103.697 381.319 85.7675 358.407 50.1725 309.412M322.245 692.543C246.032 586.339 170.345 481.083 124.911 415.334M120.153 410.351C93.0348 370.945 67.2336 333.428 50.9256 311.321M318.878 691.154C211.696 540.128 103.214 389.614 48.3719 313.866M315.343 690.706C262.337 617.021 208.582 539.729 47.0185 316.061M312.425 690.107C237.828 586.502 163.075 480.893 44.7759 316.876M310.126 689.187C242.018 594.481 173.297 497.376 43.1108 317.96M305.367 689.162C219.65 567.532 130.51 446.818 41.2916 319.345M302.134 686.938C222.904 575.753 143.577 467.009 40.7066 322.305M300.27 687.168C195.029 542.385 91.8889 396.936 39.1139 323.24M296.476 685.545C243.31 614.188 192.104 541.505 37.0376 325.316M293.126 685.202C193.845 549.681 94.5175 410.892 35.1421 327.183M289.93 684.978C195.258 554.686 102.596 424.97 34.5437 328.004M286.21 683.748C211.374 579.352 137.745 475.1 32.6067 330.857M283.392 684.129C184.655 546.577 86.2071 408.431 31.5669 331.043M279.51 683.378C228.203 609.389 174.343 533.096 30.1 333.113M275.465 680.701C201.15 573.463 124.857 468.206 27.9052 335.372M272.504 680.569C180.185 553.536 90.49 428.032 26.0851 337.112M269.224 678.838C204.045 589.076 138.6 497.811 24.0424 338.347M266.086 678.773C165.437 543.432 68.8342 407.949 22.9999 341.432M261.845 676.615C206.207 600.492 149.431 520.783 22.3133 343.621M257.473 676.149C182.289 568.356 105.424 461.299 20.4028 345.248M254.956 674.446C166.005 549.542 77.164 424.452 19.2054 346.913M250.524 674.194C157.387 545.197 65.0179 415.874 17.653 348.993M248.094 673.885C188.791 592.356 130.693 511.21 17.8095 351.168M244.498 672.09C157.969 551.671 73.3736 432.454 15.4628 354.26M240.263 670.507C167.417 569.212 95.0258 469.674 13.9984 355.244M237.686 670.499C186.465 597.408 132.245 522.656 12.5973 359.036M233.06 668.474C143.291 548.222 55.5183 424.067 12.3627 361.422M230.397 668.592C180.942 596.505 130.621 526.801 11.3942 363.246M225.119 666.231C164.59 579.425 103.51 493.121 9.81382 365.602M222.006 664.532C157.177 571.223 91.4646 480.802 9.43558 366.635M217.419 662.873C160.514 583.969 103.482 504.521 7.03983 370.698M213.999 662.184C133.764 550.213 53.8628 436.75 6.18096 373.252M210.054 660.013C159.324 590.608 107.516 520.397 6.24874 374.541M205.259 658.85C158.631 588.51 109.321 521.385 5.44189 377.536M201.367 656.531C141.751 569.563 79.0857 483.113 4.91453 381.887M197.513 653.789C143.161 574.112 86.4285 495.883 3.11972 384.772M195.039 652.582C152.595 598.677 111.975 542.601 2.94141 386.479M189.303 651.719C137.09 578.215 84.3456 506.031 2.66374 389.421M186.002 649.847C123.811 561.661 61.7952 475.505 2.59546 393.821M182.734 648.923C112.572 549.859 43.4722 451.496 1.59785 395.682M178.603 647.379C124.597 573.062 73.1591 500.015 0.439864 400.517M175.496 647.279C106.676 549.628 38.9485 453.042 1.21599 403.44M171.379 643.674C127.592 582.908 83.7519 522.804 1.89233 407.71M166.748 641.642C118.863 571.633 69.687 503.315 0.452804 412.037M161.091 639.987C133.479 602.803 106.808 563.723 79.7452 526.681M80.1185 525.241C51.0331 483.912 22.0044 443.827 2.61257 414.748M157.948 638.068C136.439 602.61 110.894 572.262 82.0708 531.941M78.4731 522.754C54.3741 491.899 31.7652 459.832 1.22956 418.735M151.305 635.894C124.428 597.096 98.462 555.941 79.5529 534.213M70.8769 522.009C54.6153 499.771 35.2317 473.402 1.77287 422.383M148.999 632.928C128.865 606.212 110.552 583.274 81.4376 538.868M68.1198 521.075C45.7379 491.097 22.7929 457.508 1.14311 428.809M141.395 630.109C119.269 598.338 100.037 571.606 81.1422 540.227M62.8699 516.56C43.6556 491.357 19.4822 459.367 6.54692 434.752M138.795 624.42C115.56 592.254 92.6083 561.309 81.0604 542.886M58.9487 514.982C45.985 494.304 30.8636 473.911 7.59917 441.271M132.503 621.903C120.407 606.054 106.022 583.167 81.2112 547.589M54.8875 513.972C45.915 499.271 33.8127 484.46 6.79834 448.964M127.061 620.129C114.893 599.144 99.0453 581.935 82.0043 555.223M47.8361 507.835C39.0615 493.406 25.3091 475.377 10.5977 457.21M120.719 616.883C112.459 602.243 105.981 589.777 83.6322 561.018M39.7341 497.156C31.0712 491.928 24.6073 482.874 16.7315 470.215M119.259 613.217C109.172 601.242 101.309 593.229 84.5409 566.331M111.162 605.183C103.549 595.256 97.4268 591.636 86.2093 573.49M606.625 28.2843V28.2843ZM615.75 586.317V586.317ZM209.395 452.368V452.368Z" stroke="#48DCA6" stroke-width="0.5" stroke-linecap="round"/>
</svg>
