<svg width="60" height="60" viewBox="0 0 60 60" fill="none" xmlns="http://www.w3.org/2000/svg">
<g clip-path="url(#clip0_1404_2832)">
<rect x="0.814229" y="0.814229" width="57.8103" height="57.8103" rx="13.5952" fill="url(#paint0_linear_1404_2832)" stroke="url(#paint1_linear_1404_2832)" stroke-width="1.62846"/>
<path d="M30 42.5C36.9036 42.5 42.5 36.9036 42.5 30C42.5 23.0964 36.9036 17.5 30 17.5C23.0964 17.5 17.5 23.0964 17.5 30C17.5 36.9036 23.0964 42.5 30 42.5Z" stroke="white" stroke-width="2" stroke-linecap="round" stroke-linejoin="round"/>
<path d="M25 32.5C25 32.5 26.875 35 30 35C33.125 35 35 32.5 35 32.5" stroke="white" stroke-width="2" stroke-linecap="round" stroke-linejoin="round"/>
<path d="M26.25 26.25H26.2625" stroke="white" stroke-width="2" stroke-linecap="round" stroke-linejoin="round"/>
<path d="M33.75 26.25H33.7625" stroke="white" stroke-width="2" stroke-linecap="round" stroke-linejoin="round"/>
</g>
<defs>
<linearGradient id="paint0_linear_1404_2832" x1="5.5" y1="65" x2="33.6781" y2="-7.50881" gradientUnits="userSpaceOnUse">
<stop stop-color="#3CA0D2"/>
<stop offset="1" stop-color="#48DCA6"/>
</linearGradient>
<linearGradient id="paint1_linear_1404_2832" x1="7.69529e-07" y1="5.29249" x2="29.7194" y2="59.4387" gradientUnits="userSpaceOnUse">
<stop stop-color="#8DCBE8"/>
<stop offset="1" stop-color="#96EECF"/>
</linearGradient>
<clipPath id="clip0_1404_2832">
<rect width="59.4387" height="59.4387" fill="white"/>
</clipPath>
</defs>
</svg>
