<svg width="60" height="60" viewBox="0 0 60 60" fill="none" xmlns="http://www.w3.org/2000/svg">
<g clip-path="url(#clip0_1364_5430)">
<rect x="0.814229" y="0.814229" width="57.8103" height="57.8103" rx="13.5952" fill="url(#paint0_linear_1364_5430)" stroke="url(#paint1_linear_1364_5430)" stroke-width="1.62846"/>
<path fill-rule="evenodd" clip-rule="evenodd" d="M32.8153 19.0645C33.332 18.5478 34.1697 18.5478 34.6864 19.0645L40.9364 25.3145C41.4532 25.8312 41.4532 26.669 40.9364 27.1857C40.4197 27.7024 39.582 27.7024 39.0653 27.1857L33.7509 21.8713L28.4364 27.1857C27.9197 27.7024 27.082 27.7024 26.5653 27.1857C26.0486 26.669 26.0486 25.8312 26.5653 25.3145L32.8153 19.0645Z" fill="white"/>
<path fill-rule="evenodd" clip-rule="evenodd" d="M33.7509 18.677C34.4816 18.677 35.074 19.2694 35.074 20.0001V35.0001C35.074 36.6771 34.4078 38.2854 33.222 39.4712C32.0362 40.6571 30.4279 41.3232 28.7509 41.3232H20.0009C19.2701 41.3232 18.6777 40.7309 18.6777 40.0001C18.6777 39.2694 19.2701 38.677 20.0009 38.677H28.7509C29.726 38.677 30.6613 38.2896 31.3508 37.6001C32.0403 36.9105 32.4277 35.9753 32.4277 35.0001V20.0001C32.4277 19.2694 33.0201 18.677 33.7509 18.677Z" fill="white"/>
</g>
<defs>
<linearGradient id="paint0_linear_1364_5430" x1="5.5" y1="65" x2="33.6781" y2="-7.50881" gradientUnits="userSpaceOnUse">
<stop stop-color="#3CA0D2"/>
<stop offset="1" stop-color="#48DCA6"/>
</linearGradient>
<linearGradient id="paint1_linear_1364_5430" x1="7.69529e-07" y1="5.29249" x2="29.7194" y2="59.4387" gradientUnits="userSpaceOnUse">
<stop stop-color="#8DCBE8"/>
<stop offset="1" stop-color="#96EECF"/>
</linearGradient>
<clipPath id="clip0_1364_5430">
<rect width="59.4387" height="59.4387" fill="white"/>
</clipPath>
</defs>
</svg>
