<svg width="942" height="1058" viewBox="0 0 942 1058" fill="none" xmlns="http://www.w3.org/2000/svg">
<path opacity="0.5" d="M19.2996 56.6374C26.5234 48.1293 27.2406 46.2843 36.2786 38.0363M18.185 68.1541C29.0313 49.0759 38.8951 29.2081 49.2246 19.712M17.5086 71.9597C24.7925 55.6945 37.5882 36.0343 56.7569 16.7102M14.0426 81.1249C35.4277 55.1162 52.4817 35.2156 61.0104 15.4251M14.8414 88.542C28.425 63.0312 46.9356 43.0641 75.4836 6.21362M13.4489 90.6156C33.0417 67.8055 51.6441 43.621 76.4287 6.2335M16.1358 96.6914C32.576 65.3241 60.7725 37.6517 85.8253 1.00254M14.1388 102.488C38.6329 65.8242 60.8264 34.7299 89.5816 2.6839M11.5489 108.209C44.1273 74.1221 66.9287 33.4204 91.2835 5.76139M15.9849 112.435C50.6704 74.5257 75.0254 30.1427 96.1446 1.86819M19.6724 120.182C39.2425 88.0654 65.4459 48.7762 99.2331 1.18769M18.8014 123.097C41.7769 90.4597 60.0609 65.8969 108.215 5.88306M18.8193 126.59C36.2836 98.6552 58.0152 72.9497 109.857 3.27386M23.7615 126.872C51.5057 87.4147 82.506 47.3312 114.452 4.8861M21.586 133.716C42.9991 103.984 63.3491 76.2638 116.296 3.22905M29.3962 138.769C46.1012 106.265 63.9379 86.0399 122.619 6.61166M25.0229 137.584C58.0968 95.7953 88.5312 51.62 126.096 4.8417M31.4466 141.944C68.1953 90.7891 103.728 35.0674 125.866 8.21258M33.6582 143.446C54.3243 110.513 81.702 78.0081 130.422 4.7666M36.9099 145.496C51.7173 116.543 77.5761 86.2939 133.619 10.6257M38.3088 147.915C61.7489 111.375 84.6482 74.7972 135.433 10.2981M36.4147 156.786C67.0992 110.795 98.8868 69.9979 139.541 8.27821M37.694 154.3C64.7365 120.974 90.4594 82.3454 140.795 13.0232M41.886 160.299C69.668 120.817 99.4653 83.8768 149.72 12.067M46.5742 159.363C73.3863 128.496 99.6559 88.7269 149.334 18.6312M44.3175 163.457C73.2941 123.898 103.482 89.0184 153.061 16.0913M52.0446 168.671C89.7169 111.503 128.373 60.5749 155.082 21.7644M51.9785 168.753C79.9528 136.411 107.297 99.0923 156.009 20.5755M55.8444 172.897C75.518 141.629 101.146 110.069 158.711 23.9745M57.1354 174.71C90.8919 127.284 117.867 83.2311 164.688 23.3651M57.3857 180.255C88.1697 137.312 119.36 92.8161 168.036 28.5727M63.424 181.732C96.2097 122.485 138.859 70.2438 169.9 33.4475M60.9627 181.366C86.9707 151.527 107.823 117.596 171.945 36.039M67.8789 185.789C99.0623 141.33 135.086 93.0079 173.822 34.7902M65.3456 186.596C97.1208 141.848 129.13 100.959 175.109 37.7244M71.443 193.058C105.184 139.272 142.496 91.4728 178.403 43.8899M75.6721 195.282C94.8191 165.205 118.236 131.288 182.389 44.9849M76.8768 198.037C109.994 148.479 145.243 101.028 182.405 49.2889M78.5252 196.913C110.531 156.537 140.876 115.108 185.866 50.0807M82.2873 197.874C112.598 157.365 145.699 111.092 188.739 56.1073M85.0389 203.325C121.646 142.482 161.046 85.5649 189.062 59.4926M87.8183 206.243C116.913 157.965 151.693 113.068 192.17 58.7734M91.2555 206.307C124.788 159.007 156.441 114.491 190.421 64.0862M88.0639 212.424C115.499 182.289 137.728 148.638 192.728 66.2718M91.1987 210.156C125.257 164.769 154.613 122.876 197.329 69.173M95.975 216.558C127.188 170.363 153.242 127.308 203.376 70.5461M96.5823 214.122C140.425 161.013 180.456 102.805 202.341 70.7854M102.939 221.913C125.038 190.612 150.114 159.757 203.075 73.1789M106.053 222.316C136.432 176.838 168.097 129.9 210.586 79.2142M104.267 222.32C140.796 176.667 169.401 134.471 210.885 77.2616M108.415 224.85C131.148 195.772 153.868 164.531 215.155 81.9498M110.93 228.788C141.965 186.767 172.757 145.284 215.878 84.1701M116.897 232.457C134.097 203.183 152.464 174.864 220.914 87.779M113.882 230.845C149.34 192.371 177.253 151.015 220.205 89.926M116.901 235.714C156.036 190.771 186.294 140.226 223.719 91.4198M120.389 238.898C155.71 192 188.23 139.942 225.072 94.2186M126.636 237.875C150.449 204.247 176.288 171.176 226.554 96.6219M128.31 243.14C159.024 203.073 187.041 163.136 230.973 94.5116M128.683 244.226C156.751 206.931 180.769 165.315 231.895 97.9265M132.583 244.863C162.92 207.513 194.37 166.178 235.661 102.223M132.69 245.804C162.445 208.949 186.672 169.369 241.498 103.71M137.173 250.734C171.177 195.948 213.3 141.027 238.841 104.14M143.291 255.043C175.599 201.13 214.443 149.795 242.004 104.934M144.719 256.273C165.647 225.108 185.573 190.851 247.28 110.42M149.077 255.91C178.111 214.474 204.362 172.973 249.772 109.971M149.701 255.274C181.088 214.025 212.629 175.968 255.555 113.083M148.898 259.063C183.834 216.089 222.441 171.05 253.267 114.717M154.535 264.364C177.223 226.307 208.775 190.045 259.636 115.908M158.304 266.346C185.404 228.41 211.548 188.594 259.834 122.27M162.992 264.79C202.03 212.151 238.104 160.822 261.117 119.999M161.257 268.982C184.989 237.534 207.545 202.251 269.251 121.884M166.844 269.513C203.409 221.885 233.332 169.695 272.693 125.061M169.053 271.066C190.267 237.571 216.57 207.482 274.641 129.247M173.409 272.501C203.085 231.014 233.565 187.459 274.708 129.894M173.577 278.808C208.41 225.647 244.458 175.864 278.039 134.552M176.768 276.392C202.656 247.082 225.129 216.015 280.149 131.825M182.697 277.043C205.018 245.226 226.896 209.92 281.274 136.113M181.231 280.018C222.259 224.884 265.235 170.375 286.542 136.13M183.673 281.517C213.878 237.398 245.068 197.536 292.036 138.913M187.44 287.024C211.503 245.137 238.732 211.582 290.805 141.144M188.997 287.684C215.849 250.617 244.67 217.284 296.316 142.717M194.78 291.671C220.711 251.884 248.556 212.739 300.707 148.258M194.8 293.018C239.012 237.925 279.525 182.885 299.922 145.607M199.757 292.452C226.16 251.416 255.525 207.639 303.453 149.828M205.343 293.842C245.356 237.394 285.273 177.519 303.317 148.546M206.628 295.008C234.562 250.255 268.523 210.116 307.477 153.769M207.787 298.388C245.886 248.12 284.037 200.534 312.985 151.958M212.22 302.478C242.487 256.389 274.233 214.501 313.908 154.249M213.876 303.53C238.971 272.524 268.071 236.96 315.664 158.328M217.936 302.163C238.127 273.56 263.442 238.729 321.335 158.753M221.808 307.526C242.586 273.143 260.719 242.888 324.186 159.141M226.137 305.565C253.555 264.454 286.589 222.633 328.714 164.79M223.814 307.085C257.96 267.938 287.096 221.563 332.844 167.089M232.126 310.903C257.709 269.212 290.471 223.41 333.5 165.234M232.52 313.734C272.532 260.784 311.192 207.787 337.627 171.164M236.325 312.041C271.843 258.665 310.991 204.911 336.618 168.13M240.848 315.642C264.579 282.411 289.778 247.942 344.637 173.799M238.706 315.89C263.595 286.004 284.82 254.516 342.534 174.341M240.878 318.088C286.986 262.179 321.675 211.18 347.603 177.748M245.467 323.333C275.987 284.721 306.859 242.492 350.647 178.043M249.845 323.35C275.237 294.029 293.179 262.055 353.746 181.557M251.954 325C282.132 276.96 318.897 230.023 357.673 179.597M257.479 327.063C281.336 289.488 311.882 247.789 357.218 184.474M260.327 326.22C287.463 293.598 314.017 254.425 364.096 186.8M261.568 329.519C300.737 284.518 330.414 237.352 367.466 185.863M264.186 331.69C306.529 280.518 347.881 223.752 365.556 187.958M264.251 332.562C292.235 303.66 313.485 277.816 370.418 188.813M270.037 335.737C293.669 308.663 315.448 275.355 372.952 188.993M273.007 338.061C305.87 287.482 339.538 241.304 374.436 191.648M274.977 340.768C315.677 282.366 354.115 224.707 379.715 193.597M278.521 340.421C307.265 302.32 330.399 266.941 385.613 195.921M279.376 343.311C314.04 300.759 348.519 250.013 388.756 196.449M286.722 343.464C312.779 309.343 345.746 264.567 390.713 200.272M285.521 345.593C320.875 304.724 353.76 255.423 393.443 201.431M289.984 345.866C325.259 300.301 362.289 248.602 395.493 202.947M291.66 351.296C320.107 312.192 348.393 278.493 398.641 208.294M297.153 353.709C330.57 306.894 364.078 255.621 400.267 204.483M300.459 353.182C324.942 318.822 348.409 287.937 401.941 211.369M303.628 353.156C324.642 322.977 350.028 286.341 408.214 210.978M305.973 354.538C335.318 319.678 362.908 282.051 406.908 213.629M307.015 362.466C346.682 309.853 387.462 256.838 411.234 215.747M308.736 361.372C356.302 302.603 393.695 247.632 417.751 213.325M313.507 362.825C338.192 326.765 364.431 291.899 418.847 221.343M317.424 367.341C350.452 320.35 379.112 278.967 424.83 221.603M323.041 368.203C354.287 325.016 388.897 274.385 424.921 218.671M325.016 366.491C345.41 335.144 369.781 301.729 428.66 225.187M325.774 367.248C356.084 333.901 381.351 294.533 429.806 224.001M331.577 370.399C368.459 323.438 401.495 274.986 433.988 227.788M330.907 375.56C364.805 319.935 399.069 272.198 433.986 228.053M337.246 372.526C355.497 345.87 379.089 315.299 442.276 230.388M340.556 375.553C373.691 322.29 415.263 271.456 440.095 231.571M341.975 381.456C364.038 346.908 388.317 311.334 442.449 234.486M342.54 378.385C370.95 334.439 405.785 292.187 446.379 237.108M349.637 379.202C378.013 340.553 408.621 300.99 449.428 235.536M350.67 383.212C381.001 338.526 411.659 301.579 454.57 236.702M351.723 383.678C379.275 349.381 410.119 309.98 454.277 238.255M356.083 387.692C378.542 358.864 399.111 323.891 461.782 241.549M357.179 390.866C383.151 352.172 414.565 316.13 462.333 245.484M359.583 390.176C399.535 338.757 434.155 292.072 463.928 245.751M366.64 392.199C396.438 341.371 436.637 293.156 470.655 247.503M8.71184 894.051C14.5638 878.369 27.1797 863.65 36.1776 859.776M365.935 395.5C396.525 351.794 429.428 313.842 469.395 252.456M5.01843 905.182C13.6052 889.247 31.2785 872.721 44.0778 854.517M368.264 399.314C400.877 347.871 438.121 305.028 472.239 252.451M4.11766 913.503C17.5457 896.118 28.6622 876.84 52.7546 848.316M375.35 398.915C414.974 345.391 456.932 284.059 475.579 253.537M3.92801 918.513C19.9276 898.462 37.5507 869.193 54.0036 847.07M377.518 400.803C410.223 354.831 437.855 314.698 480.454 258.39M1.46878 931.541C18.211 899.228 41.6086 877.518 63.3336 847.82M379.496 403.326C412.606 356.819 446.738 307.789 482.418 258.426M1.94714 933.732C26.2051 904.412 49.7042 873.577 69.0262 842.112M383.79 405.119C418.865 356.236 455.313 304.648 484.244 258.056M3.27074 941.623C31.3242 901.958 56.6071 869.219 70.5874 845.414M383.598 407.459C422.865 346.241 465.43 292.869 491.472 261.56M0.515862 942.916C27.8489 910.97 54.6612 877.315 77.7203 845.145M390.138 405.204C425.884 352.173 464.459 299.389 493.478 264.773M5.35288 952.259C20.2165 923.253 44.1983 894.975 80.9676 844.662M388.199 407.082C427.749 357.468 459.645 312.032 497.804 265.863M4.50807 957.478C22.0056 929.537 45.1205 899.71 87.2578 840.471M391.251 410.959C427.356 360.676 460.168 316.755 500.743 266.351M3.17529 956.69C25.8773 930.701 47.3367 900.751 88.6358 840.484M397.917 409.717C430.823 365.53 464.441 320.136 502.124 268.354M9.77982 964.118C35.6782 919.118 70.637 870.603 94.0917 840.408M402.973 411.843C435.82 370.096 470.034 326.341 505.255 267.076M8.60298 966.323C30.7787 931.555 55.6658 904.409 96.0956 841.437M400.073 416.633C439.132 366.149 470.425 315.496 509.28 270.545M12.9529 969.71C38.0032 928.939 67.9173 895.101 101.219 842.468M404.372 415.696C428.166 388.019 456.169 358.849 510.124 271.251M12.0265 973.318C34.7724 937.111 61.7613 909.018 103.608 846.18M411.491 416.896C440.644 381.125 467.201 339.661 513.197 276.605M13.0555 976.557C36.5912 937.382 62.8755 904.589 107.266 843.251M410.123 423.048C447.189 369.377 483.342 322.427 515.96 275.173M16.3906 976.94C54.5494 927.637 90.2246 876.675 115.088 843.076M412.064 422.143C446.007 376.627 479.438 331.453 516.69 276.357M17.6149 981.453C45.7771 944.119 78.2247 902.493 115.166 844.671M415.09 425.649C451.142 368.94 491.606 317.176 522.645 282.695M17.947 986.69C56.757 927.755 97.1212 877.01 116.99 843.746M422.023 429.633C460.283 375.492 492.758 323.726 523.432 280.285M20.3577 985.872C46.9853 955.486 69.6288 926.163 121.641 846.196M422.544 428.369C459.802 375.387 501.828 324.53 525.706 283.224M22.3269 992.41C48.4213 956.429 77.3544 918.575 124.07 851.005M426.46 432.524C458.379 382.092 492.787 337.675 529.819 286.83M26.4656 994.141C66.1019 938.524 105.571 881.522 132.89 852.153M431.466 434.04C462.534 384.413 499.24 335.257 532.229 288.869M30.7639 996.31C62.5984 950.824 92.4521 911.613 132.346 850.677M434.71 431.311C477.519 376.594 513.653 316.173 534.859 290.505M34.9814 996.818C69.5449 942.639 110.757 892.771 136.919 852.433M438.063 434.91C471.993 387.616 506.45 335.045 542.06 287.405M35.9679 1001.01C59.173 964.697 81.5822 934.476 141.304 850.958M436.494 435.991C475.761 391.114 506.196 341.373 542.605 292.853M39.9597 1000.52C67.8263 961.432 98.0329 922.2 145.834 854.283M443.611 437.241C482.855 388.448 521.947 332.602 547.77 293.682M42.3485 1004.8C68.4225 967.013 92.7008 930.25 149.379 854.368M445.641 442.779C465.001 403.763 495.995 371.343 550.123 293.709M41.3366 1006.35C78.8812 963.433 109.987 916.569 149.422 855.701M448.132 445.235C484.586 390.057 525.816 332.669 549.093 298.363M47.72 1009.64C79.5926 961.33 108.983 918.356 156.22 855.102M450.011 442.706C474.644 407.084 503.357 372.336 554.481 297.542M46.3267 1008.48C71.6624 969.423 98.1395 933.524 157.842 855.986M452.859 447.821C475.459 411.719 500.619 381.183 557.305 298.523M51.7154 1012.01C84.4949 967.803 110.954 923.384 159.547 858.697M453.111 447.61C488.868 407.92 513.686 369.61 558.42 304.614M55.6631 1014.92C90.0364 966.932 116.531 924.618 168.358 860.49M460.558 452.09C487.629 407.225 516.1 366.246 561.312 306.702M59.8916 1010.68C98.9937 961.324 136.609 905.648 167.216 860.494M461.65 450.773C485.15 413.576 514.364 374.296 566.338 307.383M61.2436 1017.57C93.7909 976.729 119.167 932.907 174.046 861.804M466.942 450.96C497.251 414.733 526.615 368.995 567.889 307.137M69.002 1015.34C89.3754 979.65 114.387 944.117 177.958 863.073M467.687 453.067C504.769 402.323 543.319 343.015 574.79 313.102M69.3719 1019.43C107.221 959.455 152.467 903.906 183.696 862.806M471.691 456.553C506.622 407.342 534.882 364.041 573.64 309.84M69.8497 1019.72C102.967 970.656 132.814 932.454 185.823 859.249M475.471 455.985C493.847 425.413 520.44 392.789 576.596 314.314M74.2445 1019.75C109.846 977.169 137.824 930.336 190.223 863.038M477.113 460.976C516.431 405.316 562.163 345.274 579.261 313.194M80.2619 1019.9C108.394 978.924 140.339 932.457 192.362 866.279M478.978 463.691C507.181 415.517 541.324 373.359 582.013 315.958M82.609 1019.87C108.22 987.616 135.975 943.827 194.351 863.667M479.924 463.702C526.052 401.821 565.283 345.99 587.482 320.4M85.9031 1022.28C111.937 990.38 135.185 959.191 197.717 867.98M487.867 466.19C529.305 408.825 567.515 352.981 591.904 319.681M89.9889 1025.48C111.797 986.127 138.846 957.548 202.274 866.55M486.32 470.402C527.602 416.538 565.415 361.495 594.739 324.95M92.3475 1024.94C134.734 961.254 182.201 900.968 204.818 867.931M491.74 471.679C512.044 440.955 531.933 407.945 596.247 322.961M100.203 1026.65C132.201 977.211 170.575 925.79 207.729 865.145M493.979 471.59C519.557 437.926 540.721 407.74 596.015 323.957M102.548 1027.72C131.527 989.41 163.095 947.738 216.362 870.774M494.637 475.551C519.924 443.114 540.14 409.487 600.825 326.182M102.449 1027.64C134.132 991.207 161.407 952.478 217.036 867.185M498.206 472.896C522.101 441.41 542.299 410.205 605.475 326.936M104.84 1026.21C134.368 987.307 161.516 948.126 223.235 870.506M502.657 477.854C535.128 429.069 573.478 386.482 605.744 329.79M113.581 1029.44C136.076 989.308 161.611 957.14 226.548 869.451M505.042 478.978C543.431 420.536 588.815 363.754 607.752 334.113M113.157 1028.3C146.367 982.935 180.445 934.545 227.391 869.56M511.265 477.837C532.598 447.222 554.131 409.156 614.339 332.921M116.439 1028.71C143.754 996.655 171.168 958.797 232.687 872.439M512.576 480.68C545.932 430.218 586.784 382.19 615.535 339.677M119.45 1032.3C158.431 983.322 192.036 936.603 235.364 872.94M513.315 485.893C554.318 425.386 599.549 370.415 617.779 340.405M124.556 1030.06C151.917 990.279 182.885 951.808 240.719 874.422M517.023 483.961C556.601 428.467 602.687 373.013 620.857 337.521M126.927 1033.87C151.82 998.401 179.441 960.035 245.857 869.978M522.369 488.688C541.869 453.465 567.863 418.883 621.864 340.041M131.981 1035.81C163.566 991.775 192.339 954.806 249.352 872.94M520.673 486.954C563.03 440.275 601.331 384.135 630.475 345.92M137.808 1036.74C181.428 975.677 220.801 917.649 254.602 873.282M529.181 491.691C560.078 446.982 597.197 396.825 630.321 345.161M137.037 1037.46C177.564 988.604 209.252 935.452 257.533 876.648M528.466 490.931C560.521 448.059 594.641 407.549 635.767 347.964M143.332 1038.81C174.536 991.687 200.965 953.619 259.576 872.732M533.785 494.607C562.843 457.693 585.034 417.502 639.795 351.431M148.032 1038.8C183.131 988.435 217.497 934.16 265.981 872.289M534.659 493.779C569.634 449.468 605.3 400.715 639.255 349.867M149.723 1037.48C183.271 996.05 211.315 951.792 265.359 873.003M536.239 497.588C576.185 441.829 611.915 389.404 643.15 352.411M152.127 1038.38C177.351 999.637 206.419 966.008 273.35 876.477M542.445 500.516C566.981 469.481 590.104 433.015 643.676 352.858M158.429 1037.34C194.391 994.556 222.499 952.604 273.85 878.262M545.037 502.833C577.772 449.916 614.572 408.17 649.139 357.551M160.418 1040.17C196.129 987.405 234.747 940.773 282.508 878.88M545.182 505.545C582.652 453.575 615.348 406.79 649.447 357.273M167.429 1039.18C212.455 979.814 258.295 920.632 281.743 875.159M550.563 506.765C585.124 459.317 612.388 414.794 654.968 361.678M167.096 1040.81C211.954 980.466 252.862 925.052 289.422 876.643M554.888 503.32C588.96 461.703 617.929 416.895 658.377 362.963M171.533 1044.22C214.701 983.523 259.754 926.556 291.514 878.452M555.696 506.904C597.01 457.985 634.693 401.605 663.11 359.926M175.007 1043.97C225.49 978.468 267.759 916.503 297.024 878.721M557.459 507.97C587.457 467.556 618.661 425.307 661.483 363.361M183.373 1045.11C216.751 1000.06 247.867 951.452 297.455 875.668M560.938 511.383C584.967 481.75 604.832 446.915 665.479 367.743M181.96 1046.1C209.695 1008.66 233.55 969.151 304.705 877.15M564.617 511.583C601.365 461.932 635.429 409.845 667.629 365.542M187.047 1042.28C218.873 1006.56 242.875 965.467 308.796 879.365M567.391 513.924C595.713 480.335 620.261 436.731 676.074 371.584M193.643 1046.18C220.166 1009.77 244.422 970.497 310.915 875.664M569.473 516.629C600.691 477.708 629.008 438.58 676.253 372.706M197.11 1047.1C226.205 1007.14 253.063 970 317.982 877.451M573.88 517.331C603.265 477.774 634.654 433.517 678.453 372.274M203.04 1042.75C243.434 981.754 287.261 925.301 319.289 878.625M577.822 518.675C610.333 476.406 638.477 434.694 682.807 376.203M203.158 1044.23C250.409 980.215 299.214 917.144 323.408 879.316M582.908 523.561C601.583 488.129 621.033 457.798 684.246 376.532M206.731 1046.08C235.079 1014.49 258.451 975.222 331.145 876.893M581.983 525.297C609.547 478.498 640.994 434.748 690.931 378.208M210.829 1045.01C240.936 1010.6 263.279 973.324 334.293 877.915M584.27 522.388C626.315 474.471 660.091 424.582 693.924 376.944M218.136 1048.94C240.534 1009.47 264.679 968.221 337.994 874.477M591.955 524.336C620.437 480.652 650.016 437.944 692.08 379.81M218.358 1048.25C246.153 1016.46 271.75 976.625 342.037 873.176M591.061 528.681C624.267 492.874 651.902 451.309 698.229 383.025M223.76 1048.89C263.915 998.515 298.625 949.244 350.119 873.895M596.403 531.211C629.659 487.889 656.814 444.191 699.8 381.874M230.798 1047.59C269.137 986.277 317.914 923.856 354.272 871.832M598.261 532.704C634.779 482.282 673.281 431.176 702.12 386.789M234.47 1046.86C258.746 1010.51 287.085 973.443 357.288 874.571M599.998 532.615C623.052 498.269 646.7 470.2 706.982 385.875M234.991 1048.81C285.882 982.311 332.514 912.938 360.339 874.77M607.898 534.577C631.12 496.682 661.327 453.606 708.237 390.647M241.536 1049.43C268.718 1008.56 302.426 958.266 362.601 874.021M607.487 533.626C632.161 502.525 651.905 474.952 711.226 389.283M241.461 1048.33C280.732 990.57 324.721 935.016 370.305 876.274M609.603 536.106C648.748 488.182 690.151 436.57 715.341 391.212M248.829 1048.38C290.792 989.689 339.516 928.182 373.628 874.423M617.006 539.438C649.245 486.965 686.1 437.896 721.695 393.825M249.655 1053.09C287.687 1006.71 317.325 956.416 379.667 874.438M617.508 538.713C644.576 499.184 671.375 462.745 724.313 395.296M254.343 1051.7C281.114 1010.17 312.057 966.706 383.294 874.82M618.813 540.321C664.61 485.997 705.293 427.291 726.828 398.365M258.161 1049.62C295.128 1003.61 328.245 949.938 386.047 871.084M623.633 542.096C649.408 502.346 676.924 461.329 727.545 396.868M263.035 1052.72C290.78 1008.87 322.762 966.161 389.49 871.055M627.985 544.395C663.709 497.107 702.313 446.459 728.518 397.477M268.279 1051.3C289.813 1016.1 319.476 978.355 395.125 873.503M626.466 546.135C662.231 499.556 695.935 449.117 735.697 401.634M269 1055.58C312.725 993.618 356.703 928.404 403.757 870.999M630.267 547.05C673.754 494.359 715.316 434.245 737.828 402.576M275.656 1051.74C316.757 993.104 362.5 927.859 405.382 869.022M632.833 550.419C656.44 518.451 679.283 492.787 743.854 404.731M276.518 1055.92C310.263 1017.75 337.731 979.04 409.256 871.114M638.803 549.542C678.174 498.803 712.894 445.743 742.019 408.373M285.793 1056.15C316.341 1009.69 345.019 967.626 416.416 871.08M639.266 552.153C661.884 524.739 685.916 492.141 748.978 408.441M287.085 1056.92C323.646 1002.58 360.089 956.7 421.579 869.776M645.908 556.86C686.671 497.601 731.36 439.771 749.32 406.713M288.587 1054.63C338.939 984.077 388.846 914.41 423.397 869.926M647.593 554.668C690.012 499.622 729.379 445.006 752.773 407.725M296.009 1056.39C337.364 1001.62 375.089 947.454 431.851 868.285M653.197 556.381C683.33 517.906 715.052 470.933 754.758 408.332M300.626 1051.69C351.723 983.163 400.812 918.053 433.532 866.52M656.144 558.589C681.471 525.417 702.635 490.226 762.081 413.471M302.069 1052.97C337.669 999.281 378.409 947.669 441.773 865.808M657.873 563.726C687.203 512.824 726.515 468.598 765.728 413.923M308.296 1056.14C352.942 984.479 399.884 917.431 445.607 863.53M662.605 563.001C689.594 522.317 723.692 476.734 766.131 416.676M310.351 1055.18C349.47 1002.42 389.406 952.243 448.618 863.686M662.87 566.501C691.227 523.359 717.697 487.766 769.508 416.316M314.677 1057.23C362.408 989.115 404.796 927.495 455.611 859.915M668.322 564.158C700.495 521.289 734.042 471.857 771.144 418.819M320.981 1052.79C362.303 988.784 409.349 926.434 460.428 860.659M667.178 565.544C696.56 525.365 723.703 489.613 775.368 419.994M324.148 1053.49C365.148 1002.93 401.064 944.794 463.079 862.478M673.534 567.789C697.812 535.436 721.711 496.665 780.473 422.637M328.591 1053.47C358.183 1008.86 387.593 970.483 467.012 861.985M676.969 571.598C710.87 526.026 741.19 480.564 785.222 423.303M334.029 1054.52C376.603 993.393 418.228 938.665 472.984 860.956M678.285 574.238C705.901 534.207 727.985 501.517 783.218 424.42M339.401 1055.48C366.031 1015.82 398.815 973.124 478.423 857.87M682.373 574.316C717.676 521.452 751.79 471.274 786.145 425.333M339.74 1056.54C382.463 998.211 426.943 937.727 483.736 856.571M688.486 572.905C715.232 531.128 744.156 487.037 789.947 428.459M347.481 1056.09C387.599 1000.2 427.875 944.872 488.413 856.681M688.526 576.309C725.131 523.787 766.478 478.735 792.63 431.089M352.234 1052.11C393.384 996.972 438.759 938.696 495.798 854.75M689.531 576.916C733.562 522.458 772.773 465.276 800.442 429.243M355.147 1056.48C392.625 1002.35 429.886 946.289 499.26 852.758M694.184 582.174C728.805 533.711 760.335 486.244 803.347 431.552M359.919 1053.72C398.501 1001.53 435.569 945.567 507.568 849.283M696.667 581.239C728.004 537.288 758.487 497.153 802.466 434.851M361.541 1056.68C405.286 996.057 449.319 939.167 511.099 851.282M618.851 701.193C624.496 690.234 633.312 682.343 643.405 666.983M703.443 580.715C745.282 525.652 783.639 467.726 807.128 431.962M366.732 1054.29C425.671 979.015 481.483 902.58 517.593 845.478M612.921 715.866C618.121 700.832 628.693 683.991 651.526 658.637M701.917 586.693C745.05 525.711 786.907 473.02 808.381 435.647M371.688 1053.28C422.824 984.492 477.789 908.567 523.547 845.386M601.869 733.957C614.926 713.048 626.945 695.544 661.235 651.863M707.13 586.009C750.193 527.521 788.962 469.764 817.429 438.25M374.712 1055C406.271 1009.41 437.836 970.946 527.743 844.018M604.859 737.388C622.505 714.588 637.997 690.715 663.458 647.015M709.782 589.087C743.507 543.749 773.605 502.004 819.333 439.421M380.584 1050.51C423.319 992.21 469.569 929.916 534.196 842.991M599.665 747.113C617.074 721.099 632.644 702.591 673.01 646.424M714.027 586.199C748.333 544.039 783.654 496.943 818.349 440.495M382.802 1050.29C427.844 992.67 468.78 931.796 538.654 839.842M601.862 748.462C625.029 720.579 642.337 692.92 679.467 644.918M715.236 590.017C740.413 559.215 761.27 531.967 821.463 443.425M390.398 1049.24C428.411 993.485 465.103 940.681 545.269 836.715M600.358 754.471C633.619 708.538 668.917 667.628 689.717 639.798M720.319 590.499C760.278 530.379 802.849 472.368 823.616 447.591M394.012 1053.36C449.966 975.839 501.421 902.476 551.984 831.932M601.136 762.644C628.847 724.89 656.563 686.653 694.472 637.069M726.905 595.187C757.153 549.987 784.911 505.129 828.111 446.843M400.73 1048.57C440.832 986.292 485.733 922.732 556.896 833.734M600.178 769.941C637.605 713.654 675.589 668.299 699.441 637.932M728.922 596.175C759.575 544.141 788.773 503.437 832.539 448.933M404.696 1049.74C450.501 983.249 495.459 922.849 560.991 829.501M604.713 772.35C637.264 728.982 668.756 683.379 702.31 637.562M732.266 594.001C754.736 563.032 779.872 531.863 831.99 449.075M406.084 1048.15C458.551 978.293 512.117 906.063 567.737 824.762M604.229 778.137C632.864 736.335 664.778 696.195 706.298 635.517M731.478 595.843C770.977 547.528 804.513 504.133 834.841 452.588M414.994 1050.55C458.45 980.028 508.075 913.583 575.474 823.05M604.813 782.265C628.377 747.229 651.334 714.674 709.604 633.865M737.847 599.719C775.14 543.546 812.801 493.043 843.28 455.861M416.203 1047.07C466.453 982.832 513.446 913.156 579.087 820.6M605.787 783.429C639.681 738.079 670.294 695.081 718.794 634.404M738.563 598.237C763.616 566.651 782.494 531.921 845.82 452.347M421.3 1047.31C470.897 979.966 524.994 910.275 586.14 821.832M610.863 791.021C642.787 739.211 675.675 690.048 722.644 629.872M740.663 600.868C767.546 566.999 791.917 533.591 846.994 456.291M427.067 1048.91C460.22 999.699 501.893 947.995 593.48 817.255M610.603 795.176C632.346 757.292 661.664 723.297 724.728 629.639M743.1 606.19C778.529 559.061 813.023 510.023 847.084 456.537M432.433 1046.14C490.172 964.102 554.789 881.75 598.014 813.914M608.84 794.834C643.391 746.38 676.495 699.958 731.476 631.572M748.159 605.229C780.685 555.443 816.222 511.388 850.451 459.029M433.984 1049.35C488.382 973.077 541.628 898.705 605.829 811.919M611.959 801.963C660.869 733.575 704.199 668.82 736.682 627.442M750.537 610.118C780.617 571.418 807.39 531.122 855.488 465.119M438.597 1045.21C479.039 997.699 513.057 945.087 611.994 806.079M613.807 802.739C656.165 744.14 695.336 682.69 740.478 625.883M752.511 607.705C778.149 573.123 805.022 531.799 858.12 466.263M444.583 1046.61C551.787 896.245 660.606 743.85 745.905 629.105M755.004 610.362C786.2 565.028 819.484 521.969 857.924 466.099M450.622 1045.03C513.716 961.285 576.401 871.734 748.564 628.431M762.207 614.929C785.146 575.216 812.217 540.622 865.961 466.647M455.166 1045.12C570.238 884.77 684.516 725.848 753.116 626.574M760.299 619.051C801.244 559.553 840.201 502.908 864.824 469.528M460.251 1043.03C622.081 814.997 785.875 587.741 868.679 473.372M465.587 1042.35C545.62 931.096 626.782 814.395 870.723 476.685M469.993 1041.45C582.625 885.016 695.493 725.56 874.109 477.916M473.464 1040.06C576.299 897.063 680.059 750.448 876.623 479.553M480.65 1040.02C610.072 856.374 744.661 674.111 879.37 481.644M485.531 1036.66C605.158 868.787 724.932 704.598 880.253 486.112M488.346 1037.01C647.246 818.406 802.974 598.796 882.658 487.525M494.075 1034.56C574.349 926.818 651.663 817.076 885.793 490.659M499.132 1034.04C649.034 829.421 799.006 619.868 888.655 493.478M503.958 1033.7C646.901 836.979 786.808 641.124 889.558 494.718M509.574 1031.84C622.567 874.22 733.737 716.814 892.483 499.025M513.83 1032.42C662.91 824.735 811.553 616.152 894.053 499.306M519.69 1031.29C597.158 919.573 678.479 804.381 896.268 502.431M525.798 1027.24C638.004 865.329 753.196 706.404 899.582 505.843M530.269 1027.04C669.659 835.241 805.087 645.746 902.33 508.469M535.221 1024.43C633.634 888.903 732.447 751.104 905.414 510.334M539.959 1024.33C691.927 819.986 837.784 615.425 906.988 514.992M546.362 1021.07C630.368 906.139 716.093 785.79 908.025 518.297M552.964 1020.37C666.482 857.619 782.537 695.975 910.909 520.754M556.764 1017.8C691.068 829.212 825.207 640.342 912.717 523.268M563.456 1017.42C704.08 822.651 843.546 627.39 915.061 526.408M567.124 1016.95C656.664 893.855 744.385 771.335 914.825 529.693M572.555 1014.24C703.202 832.426 830.93 652.423 918.368 534.361M578.948 1011.85C688.937 858.911 798.238 708.622 920.579 535.846M582.84 1011.84C660.177 901.483 742.042 788.617 922.694 541.572M589.824 1008.78C725.364 827.219 857.889 639.76 923.049 545.174M593.845 1008.96C668.515 900.12 744.493 794.875 924.511 547.928M601.815 1005.4C693.205 874.332 785.427 744.023 926.897 551.485M606.514 1002.83C704.398 861.947 803.615 725.422 927.468 553.045M613.441 1000.33C699.36 881.191 785.47 761.236 931.086 559.181M618.604 999.287C739.749 830.224 860.389 658.911 932.382 563.037M624.561 996.008C701.156 891.216 779.379 785.205 932.28 564.983M631.8 994.253C702.202 888.047 776.653 786.698 933.498 569.504M637.676 990.751C727.69 859.441 822.306 728.912 934.294 576.074M643.496 986.611C725.56 866.308 811.219 748.193 937.004 580.429M647.23 984.789C711.316 903.399 772.647 818.731 937.274 583.008M655.892 983.486C734.727 872.504 814.364 763.515 937.693 587.45M660.876 980.659C754.777 847.509 848.412 717.425 937.796 594.093M665.81 979.263C771.745 829.69 876.077 681.175 939.302 596.903M672.048 976.932C753.59 864.723 831.254 754.432 941.051 604.202M676.739 976.782C780.648 829.341 882.908 683.508 939.879 608.616M682.955 971.339C749.067 879.589 815.26 788.841 938.858 615.064M689.946 968.271C762.248 862.566 836.496 759.414 941.031 621.597M698.488 965.772C740.178 909.628 780.449 850.622 821.31 794.694M820.746 792.52C864.661 730.119 908.491 669.595 937.77 625.69M703.234 962.874C735.709 909.337 774.279 863.516 817.798 802.636M823.231 788.766C859.617 742.177 893.753 693.761 939.858 631.71M713.264 959.591C753.845 901.012 793.05 838.873 821.6 806.067M834.7 787.64C859.253 754.063 888.519 714.25 939.038 637.217M716.746 955.114C747.146 914.775 774.795 880.142 818.755 813.095M838.863 786.23C872.656 740.967 907.3 690.252 939.989 646.921M728.227 950.857C761.634 902.887 790.672 862.525 819.201 815.147M846.789 779.413C875.8 741.36 912.299 693.059 931.83 655.893M732.153 942.267C767.234 893.702 801.888 846.979 819.324 819.162M852.71 777.03C872.283 745.81 895.115 715.018 930.241 665.736M741.652 938.467C759.916 914.537 781.635 879.981 819.096 826.263M858.842 775.505C872.389 753.308 890.662 730.946 931.45 677.352M749.869 935.788C768.241 904.104 792.169 878.12 817.899 837.789M869.488 766.239C882.737 744.454 903.501 717.231 925.714 689.801M759.445 930.887C771.916 908.784 781.698 889.96 815.441 846.539M881.721 750.115C894.801 742.222 904.561 728.551 916.452 709.437M761.649 925.353C776.879 907.272 788.752 895.173 814.069 854.561M773.874 913.222C785.369 898.233 794.613 892.768 811.55 865.37M25.79 42.1795V42.1795ZM12.0112 884.737V884.737ZM625.556 682.491V682.491Z" stroke="url(#paint0_linear_1355_4936)" stroke-width="0.857165" stroke-linecap="round"/>
<defs>
<linearGradient id="paint0_linear_1355_4936" x1="537" y1="109.5" x2="704.508" y2="1070.26" gradientUnits="userSpaceOnUse">
<stop stop-color="#38DCE8"/>
<stop offset="1" stop-color="#48DCA6"/>
</linearGradient>
</defs>
</svg>
