<svg width="115" height="29" viewBox="0 0 115 29" fill="none" xmlns="http://www.w3.org/2000/svg">
<path d="M112.769 26.7525L100.805 14.7883L112.769 2.82398" fill="url(#paint0_linear_909_4426)"/>
<path fill-rule="evenodd" clip-rule="evenodd" d="M114.345 1.24558C115.216 2.11728 115.216 3.5306 114.345 4.4023L103.959 14.7882L114.345 25.1741C115.216 26.0458 115.216 27.4592 114.345 28.3309C113.473 29.2026 112.06 29.2026 111.188 28.3309L99.2236 16.3666C98.3519 15.4949 98.3519 14.0816 99.2236 13.2099L111.188 1.24558C112.06 0.373873 113.473 0.373873 114.345 1.24558Z" fill="#454545" fill-opacity="0.05"/>
<path d="M96.3388 26.7525L84.3745 14.7883L96.3388 2.82398" fill="url(#paint1_linear_909_4426)"/>
<path fill-rule="evenodd" clip-rule="evenodd" d="M97.9183 1.24558C98.79 2.11728 98.79 3.5306 97.9183 4.4023L87.5324 14.7882L97.9183 25.1741C98.79 26.0458 98.79 27.4592 97.9183 28.3309C97.0466 29.2026 95.6333 29.2026 94.7616 28.3309L82.7973 16.3666C81.9256 15.4949 81.9256 14.0816 82.7973 13.2099L94.7616 1.24558C95.6333 0.373873 97.0466 0.373873 97.9183 1.24558Z" fill="#454545" fill-opacity="0.25"/>
<path d="M79.9086 26.7525L67.9443 14.7883L79.9086 2.82398" fill="url(#paint2_linear_909_4426)"/>
<path fill-rule="evenodd" clip-rule="evenodd" d="M81.4882 1.24558C82.3599 2.11728 82.3599 3.5306 81.4882 4.4023L71.1022 14.7882L81.4882 25.1741C82.3599 26.0458 82.3599 27.4592 81.4882 28.3309C80.6165 29.2026 79.2031 29.2026 78.3314 28.3309L66.3672 16.3666C65.4954 15.4949 65.4955 14.0816 66.3672 13.2099L78.3314 1.24558C79.2031 0.373873 80.6165 0.373873 81.4882 1.24558Z" fill="#454545" fill-opacity="0.45"/>
<path d="M63.4823 26.7525L51.5181 14.7883L63.4823 2.82398" fill="url(#paint3_linear_909_4426)"/>
<path fill-rule="evenodd" clip-rule="evenodd" d="M65.0614 1.24558C65.9331 2.11728 65.9331 3.5306 65.0614 4.4023L54.6755 14.7882L65.0614 25.1741C65.9331 26.0458 65.9331 27.4592 65.0614 28.3309C64.1897 29.2026 62.7764 29.2026 61.9047 28.3309L49.9404 16.3666C49.0687 15.4949 49.0687 14.0816 49.9404 13.2099L61.9047 1.24558C62.7764 0.373873 64.1897 0.373873 65.0614 1.24558Z" fill="#454545" fill-opacity="0.65"/>
<path d="M47.0522 26.7525L35.0879 14.7883L47.0522 2.82398" fill="url(#paint4_linear_909_4426)"/>
<path fill-rule="evenodd" clip-rule="evenodd" d="M48.6317 1.24558C49.5034 2.11728 49.5034 3.5306 48.6317 4.4023L38.2458 14.7882L48.6317 25.1741C49.5034 26.0458 49.5034 27.4592 48.6317 28.3309C47.76 29.2026 46.3467 29.2026 45.475 28.3309L33.5107 16.3666C32.639 15.4949 32.639 14.0816 33.5107 13.2099L45.475 1.24558C46.3467 0.373873 47.76 0.373873 48.6317 1.24558Z" fill="url(#paint5_linear_909_4426)" fill-opacity="0.85"/>
<path d="M30.6254 26.7525L18.6611 14.7883L30.6254 2.82398" fill="url(#paint6_linear_909_4426)"/>
<path fill-rule="evenodd" clip-rule="evenodd" d="M32.205 1.24558C33.0767 2.11728 33.0767 3.5306 32.205 4.4023L21.819 14.7882L32.205 25.1741C33.0767 26.0458 33.0767 27.4592 32.205 28.3309C31.3333 29.2026 29.9199 29.2026 29.0482 28.3309L17.084 16.3666C16.2122 15.4949 16.2122 14.0816 17.084 13.2099L29.0482 1.24558C29.9199 0.373873 31.3333 0.373873 32.205 1.24558Z" fill="#454545"/>
<path d="M14.1952 26.7525L2.23095 14.7883L14.1952 2.82398" fill="url(#paint7_linear_909_4426)"/>
<path fill-rule="evenodd" clip-rule="evenodd" d="M15.7748 1.24558C16.6465 2.11728 16.6465 3.5306 15.7748 4.4023L5.38887 14.7882L15.7748 25.1741C16.6465 26.0458 16.6465 27.4592 15.7748 28.3309C14.9031 29.2026 13.4898 29.2026 12.6181 28.3309L0.653777 16.3666C-0.217929 15.4949 -0.217929 14.0816 0.653777 13.2099L12.6181 1.24558C13.4898 0.373873 14.9031 0.373873 15.7748 1.24558Z" fill="url(#paint8_linear_909_4426)"/>
<defs>
<linearGradient id="paint0_linear_909_4426" x1="101.53" y1="5.23469" x2="112.175" y2="5.26086" gradientUnits="userSpaceOnUse">
<stop stop-color="white"/>
<stop offset="1" stop-color="white" stop-opacity="0"/>
</linearGradient>
<linearGradient id="paint1_linear_909_4426" x1="85.0993" y1="5.23469" x2="95.745" y2="5.26086" gradientUnits="userSpaceOnUse">
<stop stop-color="white"/>
<stop offset="1" stop-color="white" stop-opacity="0"/>
</linearGradient>
<linearGradient id="paint2_linear_909_4426" x1="68.6692" y1="5.23469" x2="79.3149" y2="5.26086" gradientUnits="userSpaceOnUse">
<stop stop-color="white"/>
<stop offset="1" stop-color="white" stop-opacity="0"/>
</linearGradient>
<linearGradient id="paint3_linear_909_4426" x1="52.2429" y1="5.23469" x2="62.8886" y2="5.26086" gradientUnits="userSpaceOnUse">
<stop stop-color="white"/>
<stop offset="1" stop-color="white" stop-opacity="0"/>
</linearGradient>
<linearGradient id="paint4_linear_909_4426" x1="35.8127" y1="5.23469" x2="46.4584" y2="5.26086" gradientUnits="userSpaceOnUse">
<stop stop-color="white"/>
<stop offset="1" stop-color="white" stop-opacity="0"/>
</linearGradient>
<linearGradient id="paint5_linear_909_4426" x1="33.1136" y1="8.54179" x2="49.2855" y2="8.5418" gradientUnits="userSpaceOnUse">
<stop stop-color="#454545"/>
<stop offset="1" stop-color="#454545"/>
</linearGradient>
<linearGradient id="paint6_linear_909_4426" x1="19.3859" y1="5.23469" x2="30.0317" y2="5.26086" gradientUnits="userSpaceOnUse">
<stop stop-color="white"/>
<stop offset="1" stop-color="white" stop-opacity="0"/>
</linearGradient>
<linearGradient id="paint7_linear_909_4426" x1="2.95577" y1="5.23469" x2="13.6015" y2="5.26086" gradientUnits="userSpaceOnUse">
<stop stop-color="white"/>
<stop offset="1" stop-color="white" stop-opacity="0"/>
</linearGradient>
<linearGradient id="paint8_linear_909_4426" x1="0.256695" y1="8.54179" x2="16.4286" y2="8.5418" gradientUnits="userSpaceOnUse">
<stop stop-color="#454545"/>
<stop offset="1" stop-color="#454545"/>
</linearGradient>
</defs>
</svg>
