<svg width="49" height="56" viewBox="0 0 49 56" fill="none" xmlns="http://www.w3.org/2000/svg">
<path d="M43.582 53.9747C39.2102 50.9821 33.6304 50.4406 28.5657 49.6175C25.9958 49.1863 23.3964 48.9506 20.8471 48.6501C18.2746 48.3994 15.722 47.9751 13.2067 47.3802C15.4203 48.844 18.0198 49.6525 20.5595 50.2634C23.0991 50.8744 25.6892 51.2839 28.2478 51.6945C33.4326 52.4974 38.5205 52.5209 43.582 53.9747Z" fill="white"/>
<path d="M10.5168 37.6728C17.2649 32.3854 22.9979 25.9318 29.1345 20.0204C35.3084 13.9816 42.2515 7.85148 46.1202 0.000132464L45.7366 0.429371C45.5909 0.646951 45.4707 0.880595 45.3785 1.12568C45.5502 0.935452 45.6564 0.679309 45.8458 0.54098L45.7267 0.4455C43.068 3.77337 40.157 6.89157 37.0195 9.77246C33.9162 12.7031 30.7306 15.5422 27.6554 18.5244C21.5342 24.5666 16.143 31.1705 10.5168 37.6728Z" fill="white"/>
<path d="M1.10452 31.7908C3.14693 27.3014 3.49733 22.2436 3.88731 17.405C4.27728 12.5664 4.51651 7.48639 3.07644 2.75702C2.86687 6.92683 2.41699 11.2789 1.96427 15.4103C1.40886 20.8961 1.58607 26.2972 1.10976 31.7906L1.10452 31.7908Z" fill="white"/>
</svg>
