<svg width="39" height="45" viewBox="0 0 39 45" fill="none" xmlns="http://www.w3.org/2000/svg">
<path d="M34.6333 42.8926C31.1592 40.5144 26.725 40.0841 22.7002 39.43C20.658 39.0873 18.5923 38.9001 16.5665 38.6612C14.5222 38.462 12.4937 38.1248 10.4949 37.6521C12.254 38.8153 14.3197 39.4578 16.3379 39.9433C18.3561 40.4289 20.4144 40.7542 22.4476 41.0805C26.5678 41.7186 30.611 41.7372 34.6333 42.8926Z" fill="#454545"/>
<path d="M8.35747 29.9381C13.72 25.7364 18.2758 20.6079 23.1524 15.9103C28.0587 11.1114 33.5762 6.23997 36.6505 0.000713851L36.3456 0.34182C36.2298 0.514724 36.1344 0.700396 36.0611 0.895162C36.1975 0.74399 36.2819 0.540438 36.4324 0.430511L36.3378 0.354637C34.225 2.9992 31.9117 5.47715 29.4184 7.76652C26.9523 10.0955 24.4208 12.3516 21.977 14.7215C17.1126 19.523 12.8284 24.771 8.35747 29.9381Z" fill="#454545"/>
<path d="M0.877604 25.2629C2.50066 21.6954 2.77911 17.676 3.08901 13.831C3.39892 9.98587 3.58902 5.9489 2.44463 2.1906C2.27809 5.50423 1.92059 8.96268 1.56083 12.2458C1.11946 16.6052 1.26028 20.8973 0.881772 25.2628L0.877604 25.2629Z" fill="#454545"/>
</svg>
