<svg width="88" height="51" viewBox="0 0 88 51" fill="none" xmlns="http://www.w3.org/2000/svg">
<path d="M22.8199 11.5248C24.4382 9.5467 25.1771 8.33706 28.1758 5.8372M20.221 15.7244C23.4833 12.5383 26.0139 9.07929 31.1513 3.98274M19.8628 18.4902C23.219 13.9617 25.5786 10.7382 33.3813 2.51671M18.2284 20.4978C23.8232 14.9034 27.1798 9.94802 34.2331 2.06573M18.7771 22.6389C24.9889 14.5895 29.6299 7.88073 36.369 1.96066M18.7708 24.3039C25.4562 15.3175 33.8624 7.74483 36.5667 1.17616M17.2363 25.2932C24.7213 17.3306 31.4504 9.298 39.239 1.69699M18.2432 26.2384C24.476 17.9663 32.5752 9.57174 40.1782 1.62495M18.4924 27.3859C24.2384 19.7204 29.8498 14.2894 41.1043 0.751959M18.413 28.7524C23.0569 21.4653 30.731 14.3089 42.1762 1.46951M17.9125 30.7064C27.2358 19.9391 36.2298 8.64254 42.9723 0.325195M19.1141 31.4632C27.3223 21.8183 35.4216 10.6216 43.5499 0.411308M19.0453 30.9424C25.8195 24.145 33.2013 15.504 45.7029 0.92209M19.7916 33.3623C28.7321 21.915 37.1011 10.2863 47.0495 1.8146M19.7803 33.9176C28.7962 22.6117 38.8019 12.4515 47.5738 2.35328M19.9791 33.9881C30.0696 22.9934 40.2608 9.95257 48.1965 2.35774M20.9522 35.8219C31.7522 22.4952 43.0957 9.02723 48.4949 1.57165M21.1271 36.2639C27.8044 28.5709 35.1462 21.4884 49.5051 2.31092M21.2799 37.5686C31.8402 24.794 43.7758 12.1934 51.0412 2.72482M21.3855 38.3361C28.3867 30.0163 35.6526 22.2168 52.5495 2.62504M22.27 38.0146C27.8543 31.3006 34.4663 23.4973 52.0099 3.83853M22.9405 39.5524C34.0339 26.1199 45.8824 12.2288 54.0475 3.20605M22.4648 40.1407C33.5013 28.2768 44.8495 14.5575 54.3585 4.56739M23.198 40.7061C35.0967 27.5882 47.3699 14.1864 54.7688 4.24969M24.1956 42.0285C36.1579 27.5487 47.5928 13.5938 55.8189 5.05991M24.5268 42.7309C37.2445 28.3818 48.0919 15.5685 56.4247 4.79178M24.4265 42.0519C35.3038 30.9426 46.0773 18.5209 56.5133 6.69688M25.4282 43.9825C33.9644 32.6471 42.0185 23.3462 57.3901 6.73898M26.5133 43.4691C38.0863 29.4251 49.8041 15.099 58.2029 7.73642M26.8438 44.9861C34.4386 36.2077 41.4242 28.2105 59.6361 8.22362M28.2311 45.1518C39.036 31.9294 51.3046 17.7652 59.4311 8.1901M28.7187 45.0548C40.2157 32.0178 52.0028 19.1545 60.7024 9.10767M28.477 46.5659C37.1417 36.7533 45.5987 28.6123 61.4053 9.70409M30.1888 46.24C41.8858 32.6507 55.0331 17.9925 61.6458 10.833M30.9614 47.5738C38.7909 39.0488 45.8978 30.7742 62.4006 11.3392M31.6586 47.1858C43.814 33.7082 56.2384 20.0063 62.2679 11.6851M31.3853 48.09C41.6815 36.2799 51.3798 26.6005 63.0061 11.8664M32.1274 48.557C39.4691 40.6962 44.6816 33.3507 63.5211 12.3251M34.0018 49.0335C45.5474 34.6715 57.0201 21.0592 63.1681 13.4503M34.0659 49.0953C42.9351 37.6581 51.6023 27.8348 63.8945 14.1592M35.9979 48.389C42.795 40.4506 48.6163 33.7869 64.8729 15.3255M36.0757 48.6339C44.961 37.7145 53.9556 28.39 65.8409 15.5238M37.5347 50.0463C49.4925 37.0015 60.6523 23.9756 65.5563 16.9034M38.5507 49.9886C45.3584 41.8175 50.7415 34.9039 66.3877 18.8264M38.6389 48.9917C48.1294 39.9116 56.8282 30.2634 65.995 18.755M40.3726 48.942C47.5406 41.2344 55.7267 33.3033 66.5849 19.2061M41.5349 50.3033C46.9405 42.7564 53.2513 37.4447 66.7131 20.9547M41.9799 49.9919C47.1183 44.3056 52.8798 37.7865 67.274 22.0828M43.3592 49.1216C51.4238 40.7992 59.5513 32.3932 67.232 23.6691M44.3699 50.0666C51.7724 41.4113 58.344 34.2764 67.0282 24.7386M45.371 50.014C50.0995 44.2891 55.231 38.5793 66.8 25.0786M47.0387 50.0219C52.4392 44.4085 55.283 39.6653 66.1338 26.4645M48.4178 49.1322C55.0152 42.3715 61.8265 35.621 67.2862 29.1736M50.297 47.9988C54.3263 43.7656 60.2025 37.5778 65.739 30.7774M52.7705 47.4544C57.5629 41.6726 63.0957 35.8133 65.4646 31.7696M54.254 47.2661C58.5124 42.5243 63.336 37.1442 64.6742 33.8641M55.9996 46.0807C59.3763 41.955 63.5153 38.447 66.0291 35.2614M19.5521 15.527C21.7072 13.2212 25.1962 10.2167 27.7538 6.01212M19.1426 18.518C22.8361 14.6074 25.3141 11.8301 31.2851 3.16984M18.6494 20.0134C22.6404 15.7549 26.2031 11.6413 31.8691 3.1435M18.8265 22.2579C21.5035 17.045 25.3069 12.5118 33.8353 2.83221M17.728 23.4553C22.5745 18.1949 26.5012 14.0771 36.1458 1.14636M18.1058 24.8249C22.9394 19.2244 27.8711 13.4292 37.5715 0.727983M18.589 27.2494C24.3011 19.0377 29.8811 11.0039 37.9171 1.70591M18.3971 28.4244C23.2842 21.1845 29.406 15.1805 39.0938 1.01366M17.4208 28.3962C24.8609 21.3956 29.0853 14.5312 40.193 1.91961M18.3343 30.0783C26.9958 20.238 36.581 8.59753 42.0299 0.344181M18.3753 31.201C23.2497 24.0612 29.2259 17.2533 42.9464 1.06357M18.4741 31.8627C26.2936 21.9851 35.5735 12.5562 44.4929 1.63442M19.63 32.5904C29.4457 23.2551 37.1042 11.5476 45.1952 1.13378M19.1395 33.068C28.0575 23.9485 37.5431 12.3987 45.7397 1.21151M19.648 33.9894C31.5892 21.6403 42.8356 7.80834 47.1936 1.7692M20.8659 35.799C30.538 22.7816 41.478 10.1859 47.8898 2.46737M21.2526 36.2065C31.1927 23.194 40.3814 11.7987 48.9973 2.11188M20.697 36.5405C31.127 24.8448 41.8917 13.0928 49.9826 2.14705M21.2765 37.1547C28.1835 28.3024 36.1591 18.6485 51.4789 2.28678M21.3373 38.8561C32.5448 25.462 43.1033 13.5112 51.8903 3.10598M21.9719 39.6171C29.7337 31.767 36.6225 22.2262 52.9828 3.40827M22.9772 40.0798C33.9153 26.1736 45.4697 14.0039 53.7585 3.47922M23.8663 40.6692C35.9676 25.1247 48.5603 11.0127 54.3663 3.76007M24.2155 41.9829C33.2 30.1945 42.929 17.7264 55.5487 5.27078M24.3362 42.0258C36.8208 27.7333 48.2153 12.9692 56.0548 4.54536M25.0477 42.8008C32.1547 35.6954 38.6423 27.3877 55.884 5.46163M26.2758 43.8387C37.0964 30.1799 48.8998 17.8012 56.804 5.92463M25.7242 44.118C32.8079 34.8426 40.1895 26.6524 57.4693 6.95404M27.0725 43.9495C34.9837 35.8386 41.8699 26.2137 58.8284 7.0432M27.9186 44.9974C35.4086 37.1892 42.3197 27.4446 58.5974 7.73605M28.2426 45.2591C41.0428 30.5936 52.9682 15.4892 59.9694 8.29376M29.5399 46.2317C41.383 32.5098 52.2997 18.3285 60.7024 8.1478M29.2502 46.2684C37.6652 36.1442 46.2662 26.7992 61.4056 10.147M30.6965 46.5727C42.4239 33.0099 54.2911 18.2911 61.5195 10.0788M30.8862 47.2513C42.2979 35.6782 52.8359 22.7147 61.7406 10.5719M32.7681 47.2617C37.9507 39.7005 43.7113 32.3364 61.8695 11.7649M33.2569 47.6577C40.2917 39.5819 46.5892 30.8176 63.6333 12.0342M34.431 48.2672C44.6498 36.4504 55.5463 23.526 63.0437 13.075M34.4305 48.5599C43.3402 37.8317 53.2747 25.5757 63.1389 13.247M36.0669 49.4241C44.1276 37.5193 53.6858 27.1586 63.553 15.2506M36.9069 49.0476C43.2155 39 52.3761 29.6068 64.2103 15.5774M36.8258 48.877C45.8378 39.4054 56.2473 27.1245 64.4974 16.3103M37.838 49.9941C47.7584 37.49 57.5174 25.9732 65.2096 17.1631M39.9407 49.9862C46.0912 42.1306 53.3775 34.207 65.237 18.4252M40.3109 49.3975C50.5728 37.6783 61.0665 26.0823 65.5599 19.0607M42.3582 50.3908C51.057 38.8003 60.3821 28.4638 66.9513 20.809M42.4846 49.7139C48.9663 41.0007 55.474 34.5221 66.5237 20.1699M43.0716 49.0537C52.6789 40.0704 60.6218 28.1683 66.6426 22.5608M45.0686 50.4986C52.1883 40.4831 60.0173 31.5318 67.7175 23.5939M46.6061 48.9179C52.7253 42.053 56.9941 36.6876 66.8218 24.824M47.8768 49.5275C54.5898 41.3665 60.1115 34.2398 67.2063 25.3223M49.6048 49.4394C53.0328 45.1129 56.5892 39.9682 66.7865 27.132M50.8471 48.843C56.0275 41.0392 62.8359 33.9373 66.9045 28.4335M51.1241 48.2418C56.0123 41.6507 61.0304 36.4599 66.1988 31.1122M54.9811 46.2034C58.5864 40.956 62.9426 35.1547 66.325 32.6216M55.4012 45.9904C58.9667 42.6287 60.2177 40.1144 65.768 34.1595M24.9327 8.00213V8.00213Z" stroke="#D1CB28" stroke-width="0.114535" stroke-linecap="round"/>
<circle cx="53.4803" cy="36.1145" r="11.8787" fill="#3CA0D2"/>
<ellipse cx="40.6812" cy="24.2358" rx="17.6265" ry="17.6265" fill="#48DCA6"/>
<ellipse cx="56.621" cy="21.7069" rx="3.52529" ry="3.7552" fill="#FFB953"/>
<ellipse cx="31.7948" cy="21.7069" rx="3.52529" ry="3.7552" fill="#FFB953"/>
<ellipse cx="45.1269" cy="36.8812" rx="3.52529" ry="3.7552" fill="#FFB953"/>
<path d="M76.4673 2.88099C69.7191 2.56224 65.7098 6.41951 65.5433 12.2765M76.4673 2.88099V2.88099ZM65.5098 11.5683C66.1361 14.454 68.1146 16.8764 69.8155 18.6224M70.7622 18.2418C70.3785 19.7741 70.4343 20.7604 69.4737 22.8535M69.4601 22.7788C69.0623 22.8262 68.8555 23.1084 69.1259 23.0831M69.4666 22.9287C70.1056 22.8489 69.5635 23.0433 69.8161 22.7942M69.5554 23.0497C69.5446 23.1422 69.7083 23.5097 69.4588 23.1183M69.6964 23.101C69.8172 23.7449 69.4301 23.7515 70.1456 22.6826M70.1461 22.9703C71.2134 22.3738 72.6517 21.3187 74.7689 20.1585M74.7815 20.1321C75.0867 20.2434 76.1209 20.9129 77.1045 20.4115M76.4673 20.2445C82.2811 19.9712 87.4708 16.8589 87.2231 11.674M87.4248 11.5683C88.093 7.22303 82.666 2.38813 76.2442 2.16455" stroke="#454545" stroke-width="0.13227" stroke-linecap="round" stroke-linejoin="round"/>
<path d="M76.4208 13.0915C77.6122 13.7906 78.4387 12.0636 77.4335 11.0511M76.4208 13.0915V13.0915ZM77.9437 11.5687C78.6275 11.0081 77.7878 9.95278 75.9085 10.1671M76.4208 10.0459C76.293 10.2657 74.6954 10.5423 75.5487 11.577M74.898 11.5687C74.3071 11.8057 75.8451 13.383 77.0794 13.7369" stroke="#454545" stroke-width="0.13227" stroke-linecap="round" stroke-linejoin="round"/>
<path d="M81.8942 13.0913C82.5462 13.3147 83.6672 12.1517 83.8637 11.3304M81.8942 13.0913V13.0913ZM83.417 11.5685C82.9529 11.0005 82.9307 10.3138 81.8572 9.48438M81.8942 10.0457C80.49 10.5665 79.799 10.721 80.5549 11.9597M80.3713 11.5685C80.8313 12.3363 80.4732 13.0169 81.9036 12.7926" stroke="#454545" stroke-width="0.13227" stroke-linecap="round" stroke-linejoin="round"/>
<path d="M70.9466 13.0917C72.0548 12.6001 72.7249 12.4784 71.7419 12.2233M70.9466 13.0917V13.0917ZM72.4695 11.5689C72.6671 10.4931 72.0033 10.7722 70.3256 10.0078M70.9466 10.0461C69.8734 9.85049 69.3613 11.3084 70.1251 10.9902M69.4238 11.5689C69.7313 12.0451 70.3023 12.419 70.6266 13.3112" stroke="#454545" stroke-width="0.13227" stroke-linecap="round" stroke-linejoin="round"/>
<path d="M76.4673 2.90004C69.9571 2.6095 65.3683 6.50144 65.7166 11.4281M76.4673 2.90004V2.90004ZM65.5098 11.5874C65.6374 14.2947 67.0827 17.5786 70.245 19.2159M70.4215 18.6102C69.9372 20.2048 69.9933 21.189 69.4172 22.7337M69.4601 22.7978C69.4425 23.1529 69.5122 23.325 69.6204 22.6835M69.4666 22.9477C69.7212 23.0466 69.7022 23.3137 69.6438 23.4789M69.5554 23.0688C70.0315 22.7454 69.694 23.1854 69.6473 22.9328M69.6964 23.1201C69.9032 23.5342 70.0473 22.9341 69.9151 23.2178M69.4849 23.0841C72.0441 21.937 73.5676 21.3669 75.156 19.8943M74.7815 20.1511C75.6936 20.3193 75.7839 20.0527 76.1999 19.8156M76.4673 20.2635C82.9238 20.2315 87.4021 16.2446 87.8877 11.8601M87.4248 11.5874C87.5968 7.27253 82.8603 2.44057 76.2583 3.26554" stroke="#454545" stroke-width="0.13227" stroke-linecap="round" stroke-linejoin="round"/>
<path d="M76.4101 13.1101C77.0973 12.8804 78.1199 12.4091 78.331 11.9338M76.4101 13.1101V13.1101ZM77.9329 11.5873C78.3132 11.1748 77.6369 10.3251 76.2434 10.4422M76.4101 10.0645C75.8237 10.3661 74.8354 10.7331 75.0344 11.7324M74.8873 11.5873C74.6339 12.4129 75.7767 12.8125 76.801 13.4495" stroke="#454545" stroke-width="0.13227" stroke-linecap="round" stroke-linejoin="round"/>
<path d="M81.8937 13.1106C82.5948 13.2895 83.6929 11.9714 83.4825 11.884M81.8937 13.1106V13.1106ZM83.4165 11.5878C83.4436 10.9827 82.5924 9.95394 81.548 9.90967M81.8937 10.065C81.1121 10.1118 80.0286 10.315 79.9648 11.9095M80.3708 11.5878C80.7855 12.8425 80.9937 13.0983 82.1651 13.5796" stroke="#454545" stroke-width="0.13227" stroke-linecap="round" stroke-linejoin="round"/>
<path d="M70.9467 13.1103C71.6289 13.2311 72.0901 12.3852 72.4956 11.4005M70.9467 13.1103V13.1103ZM72.4696 11.5875C72.0242 10.5803 71.6274 10.3549 71.142 10.001M70.9467 10.0647C70.0779 10.1423 69.3554 11.1951 69.5886 11.6133M69.4239 11.5875C69.4115 12.2741 70.5485 13.1754 70.7466 13.0667" stroke="#454545" stroke-width="0.13227" stroke-linecap="round" stroke-linejoin="round"/>
<path d="M11.9487 24.1857C18.6969 23.8669 22.7062 27.7242 22.8727 33.5812M11.9487 24.1857V24.1857ZM22.9062 32.873C22.2799 35.7587 20.3014 38.1811 18.6006 39.9271M17.6538 39.5465C18.0375 41.0788 17.9817 42.0651 18.9423 44.1582M18.9559 44.0834C19.3538 44.1309 19.5605 44.4131 19.2901 44.3878M18.9494 44.2334C18.3104 44.1536 18.8525 44.3479 18.5999 44.0989M18.8606 44.3544C18.8715 44.4468 18.7078 44.8144 18.9572 44.423M18.7196 44.4057C18.5988 45.0496 18.9859 45.0562 18.2704 43.9873M18.27 44.275C17.2026 43.6785 15.7643 42.6233 13.6472 41.4632M13.6345 41.4368C13.3293 41.5481 12.2951 42.2176 11.3115 41.7162M11.9487 41.5492C6.1349 41.2759 0.945227 38.1636 1.19287 32.9787M0.991176 32.873C0.322975 28.5277 5.75001 23.6928 12.1718 23.4692" stroke="#454545" stroke-width="0.13227" stroke-linecap="round" stroke-linejoin="round"/>
<path d="M11.9932 34.3957C10.8019 35.0948 9.97532 33.3678 10.9806 32.3553M11.9932 34.3957V34.3957ZM10.4704 32.8729C9.78658 32.3123 10.6263 31.257 12.5056 31.4713M11.9932 31.3501C12.1211 31.5699 13.7187 31.8465 12.8653 32.8812M13.516 32.8729C14.107 33.1099 12.5689 34.6871 11.3346 35.0411" stroke="#454545" stroke-width="0.13227" stroke-linecap="round" stroke-linejoin="round"/>
<path d="M6.52772 34.396C5.8757 34.6193 4.7547 33.4564 4.55819 32.6351M6.52772 34.396V34.396ZM5.0049 32.8732C5.46898 32.3052 5.4912 31.6185 6.56469 30.7891M6.52772 31.3503C7.93183 31.8712 8.62289 32.0257 7.86698 33.2644M8.05054 32.8732C7.59058 33.6409 7.94868 34.3216 6.51832 34.0973" stroke="#454545" stroke-width="0.13227" stroke-linecap="round" stroke-linejoin="round"/>
<path d="M17.4674 34.3959C16.3592 33.9043 15.6892 33.7826 16.6722 33.5275M17.4674 34.3959V34.3959ZM15.9446 32.8731C15.747 31.7973 16.4108 32.0764 18.0885 31.312M17.4674 31.3503C18.5407 31.1547 19.0527 32.6126 18.289 32.2944M18.9902 32.8731C18.6827 33.3493 18.1118 33.7232 17.7875 34.6154" stroke="#454545" stroke-width="0.13227" stroke-linecap="round" stroke-linejoin="round"/>
<path d="M11.9487 24.2052C18.4589 23.9147 23.0477 27.8066 22.6994 32.7333M11.9487 24.2052V24.2052ZM22.9062 32.8926C22.7786 35.5999 21.3333 38.8837 18.1711 40.5211M17.9945 39.9154C18.4788 41.51 18.4227 42.4941 18.9988 44.0389M18.9559 44.103C18.9735 44.4581 18.9039 44.6302 18.7956 43.9886M18.9494 44.2529C18.6948 44.3518 18.7138 44.6189 18.7722 44.7841M18.8606 44.3739C18.3845 44.0505 18.722 44.4906 18.7687 44.2379M18.7196 44.4252C18.5128 44.8394 18.3687 44.2393 18.5009 44.523M18.9311 44.3893C16.3719 43.2422 14.8484 42.6721 13.26 41.1995M13.6345 41.4563C12.7224 41.6245 12.6321 41.3579 12.2161 41.1208M11.9487 41.5687C5.49221 41.5367 1.01396 37.5498 0.528273 33.1653M0.991174 32.8926C0.819224 28.5777 5.55569 23.7457 12.1577 24.5707" stroke="#454545" stroke-width="0.13227" stroke-linecap="round" stroke-linejoin="round"/>
<path d="M11.9942 34.4153C11.307 34.1855 10.2844 33.7143 10.0733 33.239M11.9942 34.4153V34.4153ZM10.4714 32.8924C10.0911 32.48 10.7674 31.6303 12.1609 31.7473M11.9942 31.3696C12.5806 31.6713 13.5689 32.0382 13.3699 33.0376M13.517 32.8924C13.7704 33.7181 12.6275 34.1176 11.6033 34.7547" stroke="#454545" stroke-width="0.13227" stroke-linecap="round" stroke-linejoin="round"/>
<path d="M6.52626 34.4153C5.82515 34.5942 4.72706 33.2761 4.93743 33.1887M6.52626 34.4153V34.4153ZM5.00344 32.8925C4.97627 32.2874 5.82749 31.2586 6.87196 31.2144M6.52626 31.3696C7.30783 31.4165 8.39131 31.6197 8.45508 33.2141M8.04907 32.8925C7.63445 34.1472 7.42619 34.403 6.25479 34.8843" stroke="#454545" stroke-width="0.13227" stroke-linecap="round" stroke-linejoin="round"/>
<path d="M17.4673 34.415C16.7852 34.5358 16.324 33.6899 15.9185 32.7052M17.4673 34.415V34.415ZM15.9445 32.8922C16.3898 31.8849 16.7866 31.6596 17.2721 31.3057M17.4673 31.3694C18.3362 31.447 19.0587 32.4998 18.8255 32.918M18.9901 32.8922C19.0025 33.5788 17.8655 34.4801 17.6675 34.3714" stroke="#454545" stroke-width="0.13227" stroke-linecap="round" stroke-linejoin="round"/>
<path d="M37.0805 41.5285C35.043 39.8952 33.4686 37.7078 32.5859 35.195M54.707 41.5285C56.7445 39.8952 58.3188 37.7078 59.2015 35.195M53.0209 18.3501C50.9296 17.1227 48.4939 16.4189 45.8937 16.4189C43.2936 16.4189 40.8578 17.1227 38.7665 18.3501" stroke="#454545" stroke-width="1.32288" stroke-linecap="round"/>
<path d="M45.8222 40.6797C47.4428 40.6797 48.7563 39.3662 48.7563 37.7456C48.7563 36.125 47.4428 34.8115 45.8222 34.8115C44.2015 34.8115 42.8881 36.125 42.8881 37.7456C42.8881 39.3662 44.2015 40.6797 45.8222 40.6797ZM44.7746 41.78C42.5167 41.78 40.6875 43.6092 40.6875 45.8671C40.6875 46.243 40.9924 46.5479 41.3683 46.5479H50.276C50.652 46.5479 50.9568 46.243 50.9568 45.8671C50.9568 43.6092 49.1276 41.78 46.8697 41.78H44.7746Z" stroke="#454545" stroke-width="1.32288"/>
<path d="M33.4042 25.5059C35.0248 25.5059 36.3383 24.1924 36.3383 22.5718C36.3383 20.9512 35.0248 19.6377 33.4042 19.6377C31.7836 19.6377 30.4701 20.9512 30.4701 22.5718C30.4701 24.1924 31.7836 25.5059 33.4042 25.5059ZM32.3566 26.6062C30.0988 26.6062 28.2695 28.4354 28.2695 30.6933C28.2695 31.0692 28.5744 31.3741 28.9503 31.3741H37.8581C38.234 31.3741 38.5389 31.0692 38.5389 30.6933C38.5389 28.4354 36.7096 26.6062 34.4518 26.6062H32.3566Z" stroke="#454545" stroke-width="1.32288"/>
<path d="M58.2323 25.5059C59.853 25.5059 61.1664 24.1924 61.1664 22.5718C61.1664 20.9512 59.853 19.6377 58.2323 19.6377C56.6117 19.6377 55.2982 20.9512 55.2982 22.5718C55.2982 24.1924 56.6117 25.5059 58.2323 25.5059ZM57.1848 26.6062C54.9269 26.6062 53.0977 28.4354 53.0977 30.6933C53.0977 31.0692 53.4025 31.3741 53.7785 31.3741H62.6862C63.0621 31.3741 63.367 31.0692 63.367 30.6933C63.367 28.4354 61.5378 26.6062 59.2799 26.6062H57.1848Z" stroke="#454545" stroke-width="1.32288"/>
</svg>
