<svg width="73" height="40" viewBox="0 0 73 40" fill="none" xmlns="http://www.w3.org/2000/svg">
<path opacity="0.7" d="M42.3269 32.4787C42.5075 32.327 42.6096 31.7034 43.9801 29.6035M41.3709 34.0866C43.2485 32.3042 43.7271 30.7526 44.8472 30.2842M43.0048 34.9738C42.7679 34.3656 43.1948 33.5923 46.2925 30.8179M43.99 34.7763C43.3007 34.5664 44.0761 34.2981 45.766 31.7345M43.4337 35.8875C45.284 33.9385 45.0266 32.8033 46.7891 31.6661M41.4082 34.0408C42.4518 32.5644 44.2657 30.9001 44.0876 29.8026M42.3062 34.5145C42.9612 33.8497 44.2677 31.1887 45.143 30.8032M42.4187 34.9633C44.1363 34.1925 44.2838 33.2318 44.9218 30.0401M44.2149 35.6647C43.7666 34.6561 44.3361 33.6214 45.4127 31.625M58.2815 33.0274C58.0638 31.9755 59.0218 30.5489 59.8538 30.6674M57.7 32.9552C58.7214 32.9525 58.7378 31.4891 60.1176 31.3305M58.407 34.8774C59.6726 33.2276 60.2724 31.8561 61.2121 30.6042M58.6904 34.1648C59.5595 34.473 61.0878 32.1762 62.8276 31.2626M60.527 35.6693C60.1473 33.9122 60.488 34.2027 62.4711 32.9977M57.5332 34.0408C58.6582 32.1253 58.9192 31.2316 59.0175 30.9063M58.9348 34.4807C59.1022 33.6568 59.9002 31.7469 60.5879 30.404M59.9286 34.6354C59.9212 33.0833 60.5396 32.5324 61.856 30.9532M60.6303 35.1241C60.8978 35.1643 60.5312 33.0276 61.6301 31.4705M37.535 11.6423C37.4993 10.9925 38.4307 10.2709 38.7707 9.89349M37.3613 12.3365C38.6368 11.4587 38.3941 10.5012 39.9927 9.94233M38.1091 12.3285C38.6426 12.4819 39.1664 11.9868 41.4256 10.2014M38.3993 13.7831C39.3952 12.5066 40.7486 11.5816 42.3287 10.3821M37.7915 14.3981C40.9515 12.8268 41.0767 11.1777 43.1363 9.612M39.3023 15.2002C40.9981 14.7917 41.2987 11.5275 43.5347 10.2963M38.1266 16.5853C40.5345 14.7705 43.0145 12.3023 45.8552 10.0279M39.3001 17.6747C41.2989 15.2632 43.04 14.2694 45.6504 9.6605M38.7022 18.565C41.2345 16.2453 44.0415 14.1872 48.0843 9.69493M40.0871 18.9699C42.2857 17.194 44.8607 14.4555 48.5183 9.02074M39.5471 20.9346C42.3437 16.4847 46.393 14.0049 50.001 9.78295M41.0056 22.0732C43.5396 18.3011 47.8543 14.0692 51.2407 8.99549M40.5602 22.3301C43.2065 19.0367 46.7534 15.1115 52.3654 10.3579M40.884 23.0641C43.0085 20.3588 46.9432 17.3443 52.519 10.2486M40.8307 24.3337C45.8244 19.588 49.3788 15.4417 53.2282 9.70553M41.2139 25.2169C45.3003 21.6267 48.4727 17.0416 54.4679 9.4887M41.9048 25.6434C45.7276 22.7406 47.5983 19.9645 56.8387 9.08965M42.1138 25.9874C46.0587 22.3765 48.2244 20.2212 57.4047 9.77366M42.8173 27.353C48.0403 21.4154 54.6432 14.7679 57.6815 9.10046M43.2894 27.0133C47.4699 22.5825 52.9809 15.8613 59.4542 9.61789M44.8557 27.104C51.1267 22.0594 56.5339 15.508 60.3581 9.77461M46.5348 28.5338C52.3988 20.1233 58.8299 12.6271 61.5398 10.0578M46.4016 27.3102C51.9815 21.8608 57.7038 16.3021 63.3561 9.7565M66.3832 5.70587C66.5091 5.2093 67.1373 5.00471 67.412 4.36494M47.5093 27.0424C54.7302 21.5757 60.7224 14.4531 64.2219 9.15043M66.3639 7.11987C66.7736 6.71435 67.7574 5.24383 68.4571 4.74787M49.8892 27.7376C55.617 20.6376 61.6388 13.5073 69.7902 4.21599M49.5491 28.128C55.6052 20.5643 61.4597 14.507 69.6896 6.67188M68.7451 6.13663C69.1784 6.30266 70.0475 5.37005 71.1421 3.1084M50.6384 27.1439C56.9984 20.8695 64.3657 12.9757 67.5436 8.55086M69.7057 6.90704C70.0376 5.3202 71.6142 4.9394 71.9914 3.85917M53.1282 28.0574C57.1525 22.6609 63.3234 16.268 67.9736 10.917M53.4798 27.8092C56.8503 23.409 62.0426 19.0199 67.9874 11.9072M53.7028 27.0352C57.5921 25.1305 60.1051 22.7824 66.475 14.0868M55.2199 28.0606C59.8073 23.0322 64.4276 19.6298 66.4903 15.9536M56.3832 28.1368C58.5999 24.731 60.3564 22.6707 65.9803 18.0938M57.3989 27.0423C60.496 23.9909 63.7537 21.6799 65.5781 19.4736M59.3848 28.1383C59.8132 25.5938 61.6026 24.8052 64.1126 20.491M59.8367 28.2743C60.8175 26.3711 63.0328 25.0273 63.8644 23.9265M37.522 11.6458C38.1162 11.7504 38.2427 11.1121 38.6642 9.21575M37.8292 12.9094C37.769 12.9214 38.6869 11.9205 39.0468 10.2227M38.5291 14.6639C38.9489 12.8675 39.8918 12.347 39.9982 10.6294M38.4369 15.3376C40.1771 12.938 40.362 11.1865 41.9873 9.4373M38.4644 16.0207C40.4035 13.446 40.5222 12.8116 43.1627 9.31882M39.2458 16.9175C40.0202 14.981 42.0955 12.5887 44.7489 9.97293M38.5684 17.6668C41.1724 14.692 44.7303 11.834 45.5592 9.75989M38.7033 19.3715C41.3538 17.2248 43.3634 14.1561 45.6657 9.67453M39.9097 19.2569C42.8609 16.4365 45.2231 13.4225 47.1313 10.1918M40.0933 20.745C42.8606 18.0572 45.7116 14.4801 48.2064 9.84241M40.2814 22.4714C42.4442 19.0546 45.5117 15.2722 48.9219 9.69829M40.197 21.886C43.0685 18.8859 45.5703 15.3714 49.8384 9.4726M40.5901 24.2218C45.8396 17.17 49.9149 12.7331 51.7723 9.83546M41.4892 24.5683C44.7453 20.4538 49.0324 15.5746 52.4782 10.159M40.696 24.6141C46.2483 19.0687 49.693 13.943 54.4576 9.2436M41.5277 25.4727C44.7223 22.5687 48.1636 17.5701 55.3043 9.2768M43.0375 26.7491C48.3248 19.9518 52.5186 13.7652 55.8831 10.0556M42.6685 27.6956C48.8136 20.4668 53.2679 14.8606 56.4791 10.1153M44.4799 27.7601C48.6752 21.6197 52.84 16.2169 58.095 9.51143M45.217 28.477C48.4389 23.5513 51.5118 18.7409 59.2252 10.325M46.2986 27.4601C49.176 23.7307 52.7374 19.728 59.9758 9.4651M47.4692 27.3459C52.3562 22.6451 56.1587 15.6214 61.3347 10.1133M48.1723 27.9904C53.815 21.8293 58.1967 15.0232 67.9973 3.76417M49.1975 28.4044C56.9656 18.9871 63.3675 9.86148 69.233 3.65935M50.0964 28.5947C56.324 19.6582 62.7437 10.8151 69.6051 4.51487M50.9674 27.7076C59.1195 18.8688 65.725 10.7507 71.1729 3.53436M52.7222 27.3675C57.0808 22.9602 62.161 17.1285 72.0958 3.75872M54.3146 27.3059C58.7829 21.3874 64.6241 14.3226 67.7685 9.68216M55.3224 27.1733C57.76 23.2308 60.8549 19.8335 67.1004 12.6258M56.1941 28.0482C59.5334 23.3448 61.6426 20.4219 66.8297 13.9118M56.5856 28.0359C59.0201 23.722 62.6481 19.3497 66.7265 14.9815M58.2903 27.9079C59.7196 25.1885 62.4822 21.633 65.6378 17.2878M59.3585 27.9715C61.506 25.0913 62.6209 21.903 64.9388 18.896M58.9145 28.0386C60.6799 27.3091 61.5412 24.2628 65.1466 21.2911M42.3552 30.8647V30.8647ZM58.1102 30.9416V30.9416ZM37.3845 9.92888V9.92888Z" stroke="#454545" stroke-width="0.169999" stroke-linecap="round"/>
<rect opacity="0.7" x="0.976562" y="0.0249023" width="40.7017" height="28.3678" rx="4.31922" fill="#FFB953"/>
<path opacity="0.7" d="M39.0032 37.5405C39.0032 38.0219 39.146 38.4925 39.4134 38.8928C39.6809 39.2931 40.061 39.6051 40.5058 39.7893C40.9506 39.9736 41.44 40.0218 41.9122 39.9278C42.3844 39.8339 42.8181 39.6021 43.1585 39.2617C43.4989 38.9213 43.7307 38.4875 43.8247 38.0154C43.9186 37.5432 43.8704 37.0538 43.6861 36.609C43.5019 36.1642 43.1899 35.7841 42.7896 35.5166C42.3893 35.2491 41.9187 35.1064 41.4373 35.1064C40.7917 35.1064 40.1726 35.3628 39.7161 35.8193C39.2596 36.2758 39.0032 36.8949 39.0032 37.5405ZM57.2591 35.1064C57.7405 35.1064 58.2111 35.2491 58.6114 35.5166C59.0117 35.7841 59.3237 36.1642 59.5079 36.609C59.6922 37.0538 59.7404 37.5432 59.6464 38.0154C59.5525 38.4875 59.3207 38.9213 58.9803 39.2617C58.6399 39.6021 58.2061 39.8339 57.734 39.9278C57.2618 40.0218 56.7724 39.9736 56.3276 39.7893C55.8828 39.6051 55.5027 39.2931 55.2352 38.8928C54.9677 38.4925 54.825 38.0219 54.825 37.5405C54.825 36.8949 55.0814 36.2758 55.5379 35.8193C55.9944 35.3628 56.6135 35.1064 57.2591 35.1064ZM34.7283 14.9032C34.8424 14.7529 34.9896 14.6308 35.1584 14.5464C35.3272 14.462 35.5132 14.4175 35.7019 14.4164H62.0817L63.314 10.0958C63.4617 9.5882 63.7697 9.14203 64.192 8.82396C64.6143 8.50588 65.1281 8.33297 65.6568 8.33105H68.2126C68.5354 8.33105 68.845 8.45928 69.0732 8.68752C69.3015 8.91577 69.4297 9.22533 69.4297 9.54811C69.4297 9.8709 69.3015 10.1805 69.0732 10.4087C68.845 10.6369 68.5354 10.7652 68.2126 10.7652H65.6568L64.1659 15.9529V15.9833L60.1496 30.0252C59.9291 30.7872 59.4673 31.4571 58.8337 31.9344C58.2 32.4117 57.4286 32.6706 56.6353 32.6723H42.0611C41.2678 32.6706 40.4964 32.4117 39.8627 31.9344C39.2291 31.4571 38.7673 30.7872 38.5468 30.0252L34.5305 15.9681C34.479 15.7874 34.4701 15.5972 34.5044 15.4124C34.5387 15.2277 34.6153 15.0534 34.7283 14.9032Z" fill="#48DCA6"/>
<path d="M44.4388 2.28613H12.3982C12.0948 2.28648 11.804 2.40715 11.5895 2.62168C11.3749 2.8362 11.2543 3.12706 11.2539 3.43044V29.7495C11.2543 30.0529 11.3749 30.3437 11.5895 30.5583C11.804 30.7728 12.0948 30.8935 12.3982 30.8938H20.7836L19.4105 35.471H18.6919C18.5402 35.471 18.3946 35.5313 18.2873 35.6386C18.18 35.7459 18.1197 35.8914 18.1197 36.0432C18.1197 36.1949 18.18 36.3405 18.2873 36.4478C18.3946 36.5551 18.5402 36.6153 18.6919 36.6153H38.1451C38.2969 36.6153 38.4424 36.5551 38.5497 36.4478C38.657 36.3405 38.7173 36.1949 38.7173 36.0432C38.7173 35.8914 38.657 35.7459 38.5497 35.6386C38.4424 35.5313 38.2969 35.471 38.1451 35.471H37.4265L36.0534 30.8938H44.4388C44.7422 30.8935 45.033 30.7728 45.2476 30.5583C45.4621 30.3437 45.5828 30.0529 45.5831 29.7495V3.43044C45.5828 3.12706 45.4621 2.8362 45.2476 2.62168C45.033 2.40715 44.7422 2.28648 44.4388 2.28613ZM44.4388 3.43044L44.4393 25.1723H12.3982V3.43044H44.4388ZM36.232 35.471H20.6051L21.9782 30.8938H34.8586L36.232 35.471ZM35.2843 29.7495H12.3982V26.3166H44.4393V29.7495H35.2843Z" fill="#454545"/>
<path d="M16.4002 21.7393H28.9875C29.2909 21.7389 29.5818 21.6182 29.7963 21.4037C30.0108 21.1892 30.1315 20.8983 30.1318 20.595V8.00759C30.1315 7.70421 30.0108 7.41335 29.7963 7.19883C29.5818 6.9843 29.2909 6.86363 28.9875 6.86328H16.4002C16.0968 6.86363 15.8059 6.9843 15.5914 7.19883C15.3769 7.41335 15.2562 7.70421 15.2559 8.00759V20.595C15.2562 20.8983 15.3769 21.1892 15.5914 21.4037C15.8059 21.6182 16.0968 21.7389 16.4002 21.7393ZM20.9774 20.595V16.0177H24.4103V20.595H20.9774ZM25.5546 20.595V15.4456C25.5546 15.2938 25.4943 15.1483 25.387 15.041C25.2797 14.9337 25.1342 14.8734 24.9825 14.8734H20.4052C20.2535 14.8734 20.108 14.9337 20.0007 15.041C19.8934 15.1483 19.8331 15.2938 19.8331 15.4456V20.595H16.4002V13.1423C16.6989 13.3726 17.0408 13.5406 17.4056 13.6365C17.7705 13.7323 18.1508 13.7541 18.5242 13.7005C18.8975 13.6469 19.2564 13.5189 19.5795 13.3243C19.9025 13.1296 20.1833 12.8722 20.4052 12.5671C20.6684 12.9272 21.0128 13.2201 21.4105 13.422C21.8082 13.6239 22.2479 13.7291 22.6939 13.7291C23.1398 13.7291 23.5795 13.6239 23.9772 13.422C24.3749 13.2201 24.7193 12.9272 24.9825 12.5671C25.2044 12.8722 25.4852 13.1296 25.8082 13.3243C26.1313 13.5189 26.4902 13.6469 26.8635 13.7005C27.2369 13.7541 27.6172 13.7323 27.9821 13.6365C28.3469 13.5406 28.6888 13.3726 28.9875 13.1423V20.595H25.5546ZM28.9875 10.2962V10.8684C28.9875 11.3236 28.8067 11.7602 28.4848 12.0821C28.1629 12.404 27.7263 12.5848 27.2711 12.5848C26.8158 12.5848 26.3793 12.404 26.0574 12.0821C25.7355 11.7602 25.5546 11.3236 25.5546 10.8684V8.00759H28.9875V10.2962ZM24.4103 10.8684C24.4103 11.3236 24.2295 11.7602 23.9076 12.0821C23.5857 12.404 23.1491 12.5848 22.6939 12.5848C22.2386 12.5848 21.802 12.404 21.4801 12.0821C21.1582 11.7602 20.9774 11.3236 20.9774 10.8684V8.00759H24.4103V10.8684ZM16.4002 8.00759H19.8331V10.8684C19.8331 11.3236 19.6522 11.7602 19.3303 12.0821C19.0084 12.404 18.5719 12.5848 18.1166 12.5848C17.6614 12.5848 17.2248 12.404 16.9029 12.0821C16.581 11.7602 16.4002 11.3236 16.4002 10.8684V8.00759Z" fill="#454545"/>
<path d="M33.5682 10.2962H41.0062C41.158 10.2962 41.3035 10.2359 41.4108 10.1286C41.5181 10.0213 41.5784 9.87576 41.5784 9.72401C41.5784 9.57227 41.5181 9.42674 41.4108 9.31944C41.3035 9.21214 41.158 9.15186 41.0062 9.15186H33.5682C33.4165 9.15186 33.271 9.21214 33.1637 9.31944C33.0564 9.42674 32.9961 9.57227 32.9961 9.72401C32.9961 9.87576 33.0564 10.0213 33.1637 10.1286C33.271 10.2359 33.4165 10.2962 33.5682 10.2962Z" fill="#454545"/>
<path d="M33.5682 14.8738H41.0062C41.158 14.8738 41.3035 14.8135 41.4108 14.7062C41.5181 14.5989 41.5784 14.4534 41.5784 14.3016C41.5784 14.1499 41.5181 14.0044 41.4108 13.8971C41.3035 13.7898 41.158 13.7295 41.0062 13.7295H33.5682C33.4165 13.7295 33.271 13.7898 33.1637 13.8971C33.0564 14.0044 32.9961 14.1499 32.9961 14.3016C32.9961 14.4534 33.0564 14.5989 33.1637 14.7062C33.271 14.8135 33.4165 14.8738 33.5682 14.8738Z" fill="#454545"/>
<path d="M33.5682 19.4509H41.0062C41.158 19.4509 41.3035 19.3907 41.4108 19.2834C41.5181 19.1761 41.5784 19.0305 41.5784 18.8788C41.5784 18.727 41.5181 18.5815 41.4108 18.4742C41.3035 18.3669 41.158 18.3066 41.0062 18.3066H33.5682C33.4165 18.3066 33.271 18.3669 33.1637 18.4742C33.0564 18.5815 32.9961 18.727 32.9961 18.8788C32.9961 19.0305 33.0564 19.1761 33.1637 19.2834C33.271 19.3907 33.4165 19.4509 33.5682 19.4509Z" fill="#454545"/>
</svg>
