<svg width="94" height="45" viewBox="0 0 94 45" fill="none" xmlns="http://www.w3.org/2000/svg">
<path opacity="0.7" d="M0.545468 39.422C-0.768633 37.7257 0.440376 35.2598 2.58616 35.2598H87.3066C87.9847 35.2598 88.6356 35.5266 89.1186 36.0026L93.2254 40.0498C94.8699 41.6705 93.7223 44.4698 91.4134 44.4698H5.72146C4.92312 44.4698 4.16969 44.1004 3.68077 43.4693L0.545468 39.422Z" fill="#3CA0D2"/>
<rect opacity="0.86" x="11.3789" y="0.674805" width="37.1078" height="25.0598" rx="2.8028" fill="#D1CB28"/>
<circle opacity="0.86" cx="34.4171" cy="34.1085" r="5.54208" fill="#D1CB28"/>
<circle opacity="0.86" cx="57.5499" cy="34.1085" r="5.54208" fill="#D1CB28"/>
<path d="M61.7695 24.4385V17.5079C61.7695 16.2757 62.5742 15.1881 63.7525 14.8277L69.2915 13.1334C70.7868 12.676 72.3671 13.5306 72.803 15.0322L75.307 23.657C75.8276 25.4501 74.4824 27.2413 72.6154 27.2413H64.5723C63.0244 27.2413 61.7695 25.9864 61.7695 24.4385Z" fill="#48DCA6"/>
<path d="M37.0672 38.6867C38.3454 38.6867 39.5712 38.179 40.4749 37.2752C41.3787 36.3715 41.8865 35.1457 41.8865 33.8675C41.8865 32.5894 41.3787 31.3636 40.4749 30.4599C39.5712 29.5561 38.3454 29.0483 37.0672 29.0483C35.7891 29.0483 34.5633 29.5561 33.6596 30.4599C32.7558 31.3636 32.248 32.5894 32.248 33.8675C32.248 35.1457 32.7558 36.3715 33.6596 37.2752C34.5633 38.179 35.7891 38.6867 37.0672 38.6867ZM61.1633 38.6867C62.4414 38.6867 63.6672 38.179 64.571 37.2752C65.4747 36.3715 65.9825 35.1457 65.9825 33.8675C65.9825 32.5894 65.4747 31.3636 64.571 30.4599C63.6672 29.5561 62.4414 29.0483 61.1633 29.0483C59.8851 29.0483 58.6593 29.5561 57.7556 30.4599C56.8518 31.3636 56.3441 32.5894 56.3441 33.8675C56.3441 35.1457 56.8518 36.3715 57.7556 37.2752C58.6593 38.179 59.8851 38.6867 61.1633 38.6867Z" stroke="#454545" stroke-width="2.24224" stroke-miterlimit="1.5" stroke-linecap="round" stroke-linejoin="round"/>
<path d="M42.0061 33.8674H53.9336V8.80758C53.9336 8.42414 53.7813 8.0564 53.5102 7.78527C53.2391 7.51414 52.8713 7.36182 52.4879 7.36182H20.1992M31.4039 33.8674H26.4642C26.2743 33.8674 26.0863 33.83 25.9109 33.7574C25.7355 33.6847 25.5761 33.5782 25.4419 33.444C25.3076 33.3097 25.2011 33.1503 25.1285 32.9749C25.0558 32.7995 25.0184 32.6115 25.0184 32.4217V20.6146" stroke="#454545" stroke-width="2.24224" stroke-linecap="round"/>
<path d="M22.6094 14.5903H32.2478" stroke="#454545" stroke-width="2.24224" stroke-linecap="round" stroke-linejoin="round"/>
<path d="M53.9336 14.5908H67.4515C67.7309 14.5909 68.0044 14.6719 68.2387 14.8242C68.4731 14.9764 68.6583 15.1933 68.7719 15.4486L73.0851 25.1545C73.1673 25.3388 73.21 25.5383 73.2104 25.74V32.4219C73.2104 32.6117 73.173 32.7997 73.1004 32.9751C73.0277 33.1505 72.9212 33.3099 72.787 33.4442C72.6527 33.5784 72.4933 33.6849 72.3179 33.7576C72.1425 33.8302 71.9545 33.8676 71.7646 33.8676H67.1864M53.9336 33.8676H56.3432" stroke="#454545" stroke-width="2.24224" stroke-linecap="round"/>
</svg>
