<svg width="91" height="48" viewBox="0 0 91 48" fill="none" xmlns="http://www.w3.org/2000/svg">
<rect x="0.349609" y="43.3657" width="90.0833" height="4.13426" rx="2.06713" fill="#3CA0D2"/>
<ellipse cx="37.1719" cy="43.3067" rx="2.80281" ry="2.8028" fill="#D1CB28"/>
<ellipse cx="55.5177" cy="43.3067" rx="2.80281" ry="2.80281" fill="#D1CB28"/>
<path d="M33.9544 32.596L31.0866 18.8413C30.909 17.9893 31.5593 17.1895 32.4295 17.1895H62.9729C63.8741 17.1895 64.5305 18.0436 64.2985 18.9144L60.6341 32.6691C60.4741 33.2698 59.9302 33.6878 59.3086 33.6878H35.2973C34.6476 33.6878 34.087 33.232 33.9544 32.596Z" fill="#30BF98"/>
<rect opacity="0.7" x="39.3809" y="0.5" width="20.0941" height="22.7961" rx="1.37182" transform="rotate(12.7055 39.3809 0.5)" fill="#3CA0D2"/>
<path d="M18.1895 3.17529L24.6282 7.40814C24.912 7.59472 25.1165 7.87995 25.2021 8.20862L26.7949 14.3228M30.9932 30.439L29.1936 31.9386C28.8808 32.1993 28.7 32.5854 28.7 32.9925V34.609C28.7 35.3667 29.3142 35.9809 30.0718 35.9809H61.3145M30.9932 30.439L26.7949 14.3228M30.9932 30.439H56.6995C57.3181 30.439 57.8602 30.0249 58.0229 29.4281L61.67 16.0556C61.908 15.1829 61.251 14.3228 60.3465 14.3228H26.7949" stroke="#454545" stroke-width="1.09746" stroke-linecap="round"/>
<ellipse cx="35.6427" cy="41.9053" rx="2.80281" ry="2.8028" stroke="#454545" stroke-width="1.09746"/>
<ellipse cx="53.9884" cy="41.9053" rx="2.80281" ry="2.8028" stroke="#454545" stroke-width="1.09746"/>
</svg>
