<svg width="47" height="48" viewBox="0 0 47 48" fill="none" xmlns="http://www.w3.org/2000/svg">
<g opacity="0.2">
<path d="M11.2642 11.5544C11.2539 13.5051 11.7324 15.4214 12.6483 17.1311C12.9247 17.6472 12.7944 18.3025 12.3057 18.6248C11.8168 18.9472 11.1553 18.814 10.8714 18.3018C9.72802 16.2392 9.12965 13.912 9.14214 11.5419C9.15462 9.17234 9.77715 6.85219 10.9416 4.80206C11.2312 4.29219 11.8952 4.16612 12.381 4.49463C12.8657 4.8225 12.9887 5.47902 12.707 5.99195C11.773 7.69212 11.2744 9.60353 11.2642 11.5544Z" fill="#3CA0D2"/>
<path d="M2.75866 12.238C2.86249 15.623 3.81462 18.9219 5.52018 21.8347C5.81508 22.3383 5.68383 22.9921 5.1975 23.3148C4.70866 23.6391 4.04699 23.5057 3.74801 23.001C1.82813 19.7598 0.755961 16.0802 0.63952 12.3034C0.523087 8.52689 1.3664 4.78852 3.0827 1.43543C3.35026 0.912701 4.00301 0.738478 4.51156 1.0321C5.01799 1.32449 5.1897 1.97034 4.92576 2.49216C3.40264 5.50349 2.65486 8.85375 2.75866 12.238Z" fill="#3CA0D2"/>
</g>
<g opacity="0.2">
<path d="M35.8726 11.5544C35.8828 13.5051 35.4044 15.4214 34.4884 17.1311C34.212 17.6472 34.3424 18.3025 34.831 18.6248C35.3199 18.9472 35.9814 18.814 36.2653 18.3018C37.4087 16.2392 38.0071 13.912 37.9946 11.5419C37.9821 9.17234 37.3596 6.85219 36.1951 4.80206C35.9055 4.29219 35.2415 4.16612 34.7558 4.49463C34.271 4.8225 34.148 5.47902 34.4298 5.99195C35.3637 7.69212 35.8623 9.60353 35.8726 11.5544Z" fill="#3CA0D2"/>
<path d="M44.3781 12.238C44.2742 15.623 43.3221 18.9219 41.6165 21.8347C41.3216 22.3383 41.4529 22.9921 41.9392 23.3148C42.4281 23.6391 43.0897 23.5057 43.3887 23.001C45.3086 19.7598 46.3808 16.0802 46.4972 12.3034C46.6136 8.52689 45.7703 4.78852 44.054 1.43543C43.7865 0.912701 43.1337 0.738478 42.6252 1.0321C42.1187 1.32449 41.947 1.97034 42.211 2.49216C43.7341 5.50349 44.4819 8.85375 44.3781 12.238Z" fill="#3CA0D2"/>
</g>
<ellipse cx="20.8582" cy="7.84553" rx="4.25276" ry="4.25276" fill="#48DCA6"/>
<path d="M5.47938 36.0729L12.3069 22.296C13.8213 19.24 17.3277 17.7323 20.5876 18.7353L20.9626 18.8507C22.4818 19.3181 23.7951 20.2916 24.6841 21.6091L33.9023 35.2706C37.0206 39.892 33.7095 46.1205 28.1345 46.1205H11.7138C6.55213 46.1205 3.18738 40.6978 5.47938 36.0729Z" fill="#48DCA6"/>
<path d="M38.9008 20.8963C38.6539 21.3001 38.1187 21.4004 37.7278 21.1335C37.3384 20.8676 37.2397 20.3379 37.4838 19.9344C38.8554 17.6673 39.6556 15.0958 39.809 12.4419C39.9789 9.50367 39.3496 6.5743 37.988 3.96506C37.8287 3.67501 37.9325 3.31083 38.2206 3.14824L38.6269 2.91901C38.9373 2.74389 39.331 2.85769 39.5 3.1714C41.0066 6.05487 41.7036 9.29274 41.5169 12.5407C41.3466 15.5028 40.4442 18.3724 38.9008 20.8963ZM41.6364 46.012C42.0473 46.012 42.3805 46.3451 42.3805 46.756C42.3805 47.167 42.0473 47.5001 41.6364 47.5001H5.49406C5.08312 47.5001 4.75 47.167 4.75 46.756C4.75 46.3451 5.08313 46.012 5.49406 46.012H11.7017C12.6118 46.012 13.3986 45.3771 13.5909 44.4876L18.5604 21.5008C18.6426 21.1182 18.8535 20.7754 19.1579 20.5295C19.4623 20.2835 19.8419 20.1495 20.2332 20.1496H20.7806C21.8481 20.1496 22.7134 19.2842 22.7134 18.2168V16.8852C22.7134 15.9863 22.0544 15.2446 21.3238 14.7209C21.0359 14.5145 20.7755 14.2685 20.5512 13.9882C20.0038 13.3043 19.7026 12.456 19.6961 11.5801C19.6806 11.0508 19.7714 10.5237 19.9632 10.0301C20.155 9.53645 20.444 9.08636 20.8129 8.70643C21.1818 8.3265 21.6232 8.02447 22.111 7.81822C22.5987 7.61197 23.1229 7.5057 23.6525 7.5057C24.182 7.5057 24.7062 7.61197 25.194 7.81822C25.6817 8.02447 26.1231 8.3265 26.4921 8.70643C26.861 9.08636 27.1499 9.53645 27.3417 10.0301C27.5335 10.5237 27.6244 11.0508 27.6088 11.5801C27.6013 12.4842 27.2798 13.3576 26.6995 14.0509C26.4661 14.3297 26.1967 14.5724 25.9001 14.7738C25.1306 15.2964 24.4273 16.0549 24.4273 16.985V18.2202C24.4273 19.2877 25.2926 20.153 26.3601 20.153H26.8938C27.2853 20.1519 27.6653 20.2852 27.9703 20.5305C28.2754 20.7758 28.4871 21.1183 28.5701 21.5008L33.5331 44.4871C33.7252 45.3768 34.5121 46.012 35.4223 46.012H41.6364ZM27.1354 31.0664C26.9425 30.1776 26.156 29.5435 25.2465 29.5435H21.8849C20.975 29.5435 20.1883 30.1782 19.9959 31.0676L19.7272 32.3095C19.4667 33.5137 20.3842 34.651 21.6163 34.651H25.516C26.7486 34.651 27.6663 33.5128 27.4049 32.3083L27.1354 31.0664ZM20.4075 36.3615C19.4974 36.3615 18.7105 36.9965 18.5183 37.8861L18.2485 39.1348C17.9884 40.3389 18.9059 41.4758 20.1377 41.4758H26.9893C28.2211 41.4758 29.1386 40.3389 28.8785 39.1348L28.6087 37.8861C28.4165 36.9964 27.6297 36.3615 26.7195 36.3615H20.4075ZM23.1704 23.5739C22.2608 23.5739 21.4743 24.2082 21.2815 25.0971L21.1962 25.4906C20.935 26.6951 21.8526 27.833 23.0851 27.833H24.0404C25.2723 27.833 26.1898 26.6961 25.9296 25.4921L25.8446 25.0985C25.6524 24.2089 24.8655 23.5739 23.9554 23.5739H23.1704ZM17.1295 44.3032C16.9399 45.1841 17.6113 46.0154 18.5124 46.0154H28.6126C29.5144 46.0154 30.1859 45.1829 29.9951 44.3016C29.8543 43.6507 29.2785 43.1863 28.6126 43.1863H18.5124C17.8458 43.1863 17.2697 43.6516 17.1295 44.3032ZM14.9942 17.2263C15.3881 16.9665 15.4931 16.4382 15.2703 16.0223C14.5321 14.6442 14.1465 13.0996 14.1547 11.5273C14.163 9.95487 14.5648 8.41423 15.3176 7.04386C15.5448 6.63042 15.4456 6.10125 15.0549 5.83698C14.6634 5.57219 14.1282 5.6738 13.8947 6.08477C12.9561 7.73723 12.4544 9.60733 12.4443 11.5172C12.4342 13.4276 12.9165 15.3034 13.8381 16.9659C14.067 17.3787 14.6002 17.4861 14.9942 17.2263ZM34.6833 11.5801C34.6852 9.69467 34.2066 7.84477 33.2991 6.20275C33.0704 5.78899 32.5364 5.68089 32.1414 5.94073C31.7466 6.20051 31.6408 6.72958 31.8634 7.14649C32.5991 8.52383 32.9827 10.0669 32.9735 11.6373C32.9642 13.2078 32.5623 14.7463 31.8104 16.1149C31.583 16.5288 31.6832 17.0586 32.0752 17.3218C32.4656 17.584 32.9976 17.4825 33.2306 17.074C34.1825 15.4047 34.6857 13.5115 34.6833 11.5801ZM9.26483 21.0065C9.65682 20.7464 9.76261 20.2194 9.52491 19.8135C8.15019 17.4657 7.38275 14.8067 7.29906 12.0783C7.21539 9.35054 7.81812 6.65014 9.0458 4.22293C9.25854 3.80233 9.12013 3.28176 8.71194 3.04609C8.30204 2.80942 7.7759 2.94985 7.56024 3.37118C6.17686 6.07385 5.49713 9.08708 5.59098 12.131C5.68483 15.1753 6.54903 18.1411 8.0965 20.7536C8.33748 21.1604 8.87081 21.2679 9.26483 21.0065Z" fill="#454545"/>
</svg>
