<svg width="94" height="36" viewBox="0 0 94 36" fill="none" xmlns="http://www.w3.org/2000/svg">
<path d="M58.1556 3.24413C57.3314 2.33453 56.3528 1.61297 55.2757 1.12068C54.1987 0.628385 53.0442 0.375 51.8783 0.375C50.7125 0.375 49.558 0.628385 48.4809 1.12068C47.4039 1.61297 46.4253 2.33453 45.6011 3.24413L43.8906 5.13097L42.18 3.24413C40.5152 1.40766 38.2572 0.375952 35.9028 0.375952C33.5483 0.375952 31.2904 1.40766 29.6255 3.24413C27.9607 5.08059 27.0254 7.57136 27.0254 10.1685C27.0254 12.7657 27.9607 15.2564 29.6255 17.0929L31.336 18.9797L43.8906 32.8285L56.4451 18.9797L58.1556 17.0929C58.9802 16.1837 59.6343 15.1042 60.0806 13.9161C60.5269 12.728 60.7566 11.4546 60.7566 10.1685C60.7566 8.88244 60.5269 7.60898 60.0806 6.42088C59.6343 5.23277 58.9802 4.15329 58.1556 3.24413Z" fill="#8DCBE8"/>
<path d="M55.4502 2.94288C57.3664 2.20498 59.6379 2.55386 61.2292 3.86164L61.1821 3.7482C61.1821 3.89535 61.1442 4.08263 61.249 4.19768C61.4631 4.43044 61.699 4.63753 61.9051 4.87832C62.3025 5.34561 62.6475 5.85503 62.934 6.39746C63.5181 7.5138 63.8873 8.72994 64.0224 9.9826C64.3264 12.6795 63.5944 15.3534 62.3149 17.7185C61.5589 19.1188 60.6251 20.4164 59.5929 21.6247C59.5683 21.65 59.5526 21.6826 59.5481 21.7176C59.5436 21.7526 59.5505 21.7882 59.5678 21.8189L60.4774 23.0759L60.5026 22.8811C59.0478 24.7361 57.5108 26.5219 55.8916 28.2385C54.2814 29.9454 52.5962 31.5767 50.8361 33.1324C50.3416 33.5691 49.8422 33.9995 49.3378 34.4236C49.0831 34.6377 48.8027 34.8362 48.5635 35.0657C48.4645 35.1599 48.4565 35.3263 48.4212 35.4548L48.6887 35.3836C46.0766 33.3499 43.6129 31.1326 41.3162 28.7484C40.1711 27.5619 39.069 26.3349 38.0098 25.0675C36.9696 23.8207 35.962 22.5418 35.0614 21.1891C33.2876 18.5254 31.9327 15.5021 31.8691 12.253C31.8386 10.6895 32.1104 9.10665 32.7787 7.68436C33.3711 6.421 34.273 5.32771 35.4007 4.50589C36.4966 3.71127 37.8011 3.181 39.1608 3.10983C40.7811 3.02475 42.3179 3.63048 43.7375 4.34536C44.1046 4.52997 44.4679 4.72261 44.8302 4.91578C44.8638 4.93561 44.9036 4.94247 44.942 4.93508C44.9804 4.92768 45.0147 4.90654 45.0386 4.87561C45.0625 4.84468 45.0743 4.8061 45.0718 4.76709C45.0693 4.72808 45.0526 4.69134 45.0249 4.66375L44.9495 4.58616L44.7552 4.83819C46.8455 6.43296 48.2753 8.74165 48.7717 11.3235L48.8129 11.1678L48.053 12.123L48.3206 12.1936L48.1205 11.5269C48.0632 11.3359 47.9797 11.1384 47.954 10.941C47.9337 10.7804 47.8117 10.6515 47.7245 10.5204C47.5998 10.3326 47.4751 10.1458 47.3499 9.95852C46.8838 9.26771 46.4028 8.58653 45.8805 7.93746C44.8483 6.65323 43.624 5.48512 42.1199 4.77719C40.7222 4.12009 39.1036 3.83381 37.5983 4.26992C36.1953 4.67659 35.07 5.68952 34.315 6.9165C32.5802 9.73538 32.6198 13.4934 33.8644 16.4872C34.5601 18.1626 35.6121 19.6518 36.6325 21.1399C37.7248 22.7334 38.8171 24.3269 39.9094 25.9204C40.9293 27.4042 41.9765 28.8859 43.2505 30.1653C44.457 31.3749 45.8534 32.3788 47.3842 33.1373C47.747 33.3171 48.1172 33.4808 48.4923 33.6328C48.5197 33.6407 48.5487 33.6411 48.5762 33.6338C48.6037 33.6266 48.6287 33.612 48.6486 33.5916C49.3367 32.9109 50.0703 32.2715 50.7815 31.6149L53.1964 29.3868C54.5593 28.1293 55.9195 26.867 57.2214 25.5464C59.7898 22.9421 62.1705 20.0675 63.6816 16.7093C64.5013 14.89 65.0809 12.9224 65.0948 10.9115C65.1065 9.112 64.6373 7.27287 63.5928 5.79012C62.5894 4.36677 61.0837 3.38647 59.3987 2.96803C57.7084 2.55851 55.9315 2.69969 54.327 3.37095C52.7143 4.03715 51.3171 5.15015 50.2657 6.53872C49.1644 7.99365 48.4527 9.73003 48.113 11.5151C48.0696 11.7425 48.0327 11.9715 48.0011 12.2006C47.9894 12.2883 47.9476 12.4103 47.9744 12.4959C47.9951 12.5444 48.0253 12.5882 48.0632 12.6249C48.1295 12.7062 48.2671 12.6741 48.3152 12.5923C49.4288 10.6857 50.5947 8.72191 52.3033 7.2809C53.1782 6.53224 54.2096 5.98886 55.3218 5.69059C56.5932 5.35776 57.9288 5.34332 59.228 5.50331C60.791 5.69595 62.3101 6.14115 63.8175 6.57939C63.9732 6.62487 64.085 6.42368 63.9737 6.31184L61.4839 3.78833L61.1297 3.42928L60.9349 3.68131C63.4927 4.8109 65.0905 7.473 65.3843 10.194C65.7406 13.4971 64.4403 16.7146 62.6344 19.4142C61.6027 20.9569 60.3982 22.3727 59.1675 23.7581C59.0278 23.9154 59.2355 24.1139 59.3944 23.985L59.8599 23.6072L59.633 23.3803L50.8403 32.1056L48.35 34.5767C48.3276 34.5991 48.3123 34.6277 48.3061 34.6588C48.3 34.6899 48.3031 34.7222 48.3153 34.7515C48.3274 34.7808 48.348 34.8059 48.3743 34.8235C48.4007 34.8412 48.4317 34.8506 48.4635 34.8506L48.8782 34.8699C49.0446 34.8774 49.0863 34.6521 48.959 34.5702C47.1925 33.439 45.5113 32.1798 43.9291 30.8026C42.3443 29.4219 40.8601 27.9298 39.4878 26.3378C38.117 24.7489 36.8613 23.0643 35.7303 21.2967C34.602 19.5336 33.6018 17.6917 32.7375 15.7852C32.302 14.822 31.9028 13.8449 31.54 12.8539C31.1622 11.8201 30.7652 10.6718 30.961 9.55613C31.0097 9.27673 31.0998 9.00619 31.2286 8.75348L30.9353 8.62934L30.8438 8.89689C30.786 9.06651 31.0653 9.18905 31.137 9.02049C32.3325 6.22408 33.8468 2.84228 37.1012 2.02519C38.7697 1.60621 40.52 2.10224 42.0353 2.81285C44.9111 4.16581 47.2705 6.41498 48.7594 9.22276L48.7428 9.09915L48.5127 9.78087C48.4629 9.92748 48.6791 10.0613 48.7802 9.93711C50.5102 7.8283 52.4435 5.78745 54.8803 4.49626C57.064 3.33885 59.6962 2.90221 62.0827 3.67649C62.6657 3.86385 63.2204 4.12993 63.7313 4.46737C64.1027 4.71458 64.5024 4.99497 64.7411 5.38131C64.9016 5.64297 64.9931 5.9865 65.0905 6.27759C65.2055 6.61792 65.3045 6.96466 65.3853 7.31461C65.5472 8.01166 65.6473 8.72163 65.6844 9.43627C65.8391 12.3071 65.0605 15.1554 63.7233 17.6805C62.399 20.181 60.5737 22.377 58.5901 24.3793C58.3444 24.6269 58.0964 24.872 57.8464 25.1146L58.0984 25.3093L59.7984 21.9425L62.5049 16.583L63.1219 15.3619L62.8281 15.2383C62.1887 17.4905 61.0735 19.5726 59.7085 21.469C58.2744 23.4585 56.5627 25.2312 54.7765 26.9055C53.7454 27.8719 52.6864 28.8073 51.6275 29.7415C51.4702 29.8807 51.697 30.0963 51.8544 29.9684L53.7518 28.4343C54.7813 27.6017 55.8884 26.8745 56.9549 26.09C60.0242 23.833 62.9934 21.279 64.9209 17.94C66.7937 14.6973 67.5717 10.6001 66.0595 7.0599C65.4294 5.5788 64.4189 4.29063 63.1304 3.32601C61.7681 2.31404 60.1093 1.78106 58.4125 1.81008C54.5924 1.87269 51.4295 4.36035 49.1478 7.22364C48.8749 7.5661 48.6104 7.91463 48.3543 8.26922L48.6315 8.42975L48.792 8.07391C48.8135 8.03572 48.8315 7.99559 48.8455 7.95405C48.8707 7.83419 48.7626 7.71005 48.7058 7.61212C48.44 7.15899 48.1424 6.72519 47.8155 6.31398C47.1538 5.47953 46.3775 4.74274 45.5097 4.12544C44.0178 3.07063 42.2897 2.39849 40.4771 2.16812C38.6646 1.93775 36.8233 2.15621 35.115 2.80429L35.3124 2.91666L35.2632 2.78556C35.2511 2.745 35.2238 2.71067 35.187 2.68974C35.1502 2.6688 35.1068 2.66288 35.0657 2.67319C32.7338 3.3945 30.9139 5.32994 30.3713 7.71486C30.2086 8.42755 30.1595 9.16147 30.2258 9.88949C30.2376 10.019 30.397 10.1121 30.4998 10.0029L32.4566 7.91606L35.5789 4.58883L36.2997 3.82097C36.3244 3.79584 36.3401 3.76328 36.3445 3.7283C36.3489 3.69333 36.3416 3.6579 36.3238 3.62746C36.306 3.59703 36.2787 3.57329 36.2461 3.55991C36.2135 3.54653 36.1774 3.54425 36.1434 3.55342C32.7723 4.3673 30.435 7.57199 30.0043 10.9094C29.4809 14.9611 31.4009 18.8898 34.0646 21.8253C35.5965 23.513 37.3854 24.9449 39.2379 26.2666C39.385 26.3736 39.5707 26.1329 39.4321 26.0146L37.8327 24.6421C37.7005 24.5286 37.4811 24.6726 37.5807 24.8369C39.5455 28.0931 42 31.0273 44.858 33.5364C45.6638 34.2421 46.4991 34.912 47.3638 35.5463C47.382 35.557 47.4021 35.564 47.4231 35.5669C47.444 35.5698 47.4652 35.5686 47.4857 35.5632C47.5061 35.5579 47.5253 35.5486 47.5421 35.5359C47.5589 35.5232 47.5731 35.5072 47.5838 35.489C48.075 34.5451 48.7315 33.6889 49.3298 32.8103C49.3504 32.7733 49.3558 32.7297 49.3451 32.6887C49.3343 32.6478 49.3081 32.6125 49.272 32.5904C46.3584 30.5624 43.4287 28.5237 40.856 26.0622C38.3773 23.7037 36.3329 20.9274 34.8164 17.8603C34.4407 17.0965 34.1001 16.3176 33.7943 15.5235C33.4733 14.6829 33.1731 13.8262 32.9885 12.9433C32.8012 12.0507 32.7434 11.1197 32.9467 10.2239C33.1322 9.44041 33.4746 8.70263 33.9533 8.05518C34.9362 6.69978 36.4083 5.77781 37.9494 5.17851C39.5851 4.54281 41.4516 4.14203 43.1799 4.63539C44.3967 4.98266 45.3652 5.94476 46.0839 6.94753C46.8236 7.97103 47.3718 9.12006 47.702 10.339C47.7661 10.5789 47.8166 10.8222 47.8534 11.0678C47.8743 11.2069 48.0857 11.2197 48.1472 11.1058C49.6583 8.30561 51.7484 5.55254 54.8862 4.51552C56.3941 4.01735 58.0497 3.95902 59.5415 4.55512C61.0334 5.15122 62.1822 6.33003 62.8356 7.778C64.2573 10.9281 63.2332 14.4704 61.6514 17.3455C59.9391 20.4582 57.5467 23.1245 55.256 25.8188C54.045 27.2416 52.848 28.6783 51.6173 30.0845C51.0571 30.7267 50.4759 31.35 49.8338 31.9098C49.6685 32.0542 49.4994 32.1944 49.3255 32.3282C49.1965 32.4272 49.0488 32.5133 48.9284 32.6214C48.7973 32.7386 48.6807 32.8783 48.5592 33.0051L48.235 33.3411H48.4618L44.5021 29.3279C43.9633 28.7816 43.4319 28.2272 42.8803 27.6953L40.0978 25.0129L36.145 21.2068L33.5931 18.7496C33.5036 18.663 33.4246 18.5662 33.3577 18.4612C32.8996 17.784 32.493 17.0734 32.1414 16.3353C31.7868 15.5906 31.49 14.8197 31.2537 14.0295C31.1365 13.6378 30.991 13.2189 30.9401 12.8122C30.9433 12.84 30.9316 12.8331 30.9359 12.7961C30.9414 12.7648 30.9485 12.7337 30.9573 12.703L31.0327 12.3739L31.1306 11.9459L30.8213 11.8602C30.4414 14.1684 30.7394 16.5373 31.6791 18.6795C31.7626 18.8679 32.0392 18.7047 31.9563 18.519C31.0512 16.4543 30.7617 14.1722 31.1226 11.9469C31.1552 11.7473 30.8599 11.6564 30.8133 11.8613L30.7063 12.3236C30.6726 12.4703 30.5993 12.6447 30.6025 12.7945C30.6025 12.9743 30.6849 13.1841 30.7277 13.358C30.7809 13.572 30.8381 13.7845 30.8995 13.9953C31.0133 14.3877 31.142 14.7755 31.2858 15.1586C31.5755 15.927 31.9216 16.673 32.3212 17.3905C32.5238 17.7572 32.7409 18.1155 32.9724 18.4655C33.0623 18.6019 33.1463 18.7544 33.2582 18.8743C33.469 19.1006 33.7071 19.3066 33.9297 19.5212L35.3809 20.9183L39.3379 24.7288L42.4415 27.7189C44.0826 29.2996 45.6558 30.9546 47.2573 32.577L48.235 33.568C48.2651 33.5981 48.3059 33.615 48.3484 33.615C48.3909 33.615 48.4317 33.5981 48.4618 33.568C48.6957 33.3251 48.9188 33.0436 49.1794 32.8317C49.5122 32.5615 49.8601 32.3175 50.18 32.0291C50.5 31.7407 50.8147 31.4319 51.1143 31.1157C51.7409 30.4532 52.3274 29.7512 52.9224 29.0555L54.8134 26.8333C57.1871 24.0449 59.7026 21.3009 61.5717 18.1337C63.2872 15.2271 64.5297 11.6906 63.3985 8.34146C62.8896 6.83623 61.9168 5.51776 60.5432 4.69692C59.1402 3.85843 57.483 3.63529 55.8879 3.92745C52.5601 4.538 50.1356 7.11181 48.4672 9.90019C48.2621 10.2437 48.0659 10.5919 47.8786 10.9447L48.1718 10.9827C47.9931 9.77819 47.489 8.60312 46.8731 7.55808C46.2059 6.42796 45.3176 5.33422 44.1522 4.69104C42.6828 3.87983 40.8458 4.00076 39.2737 4.41065C37.6053 4.84568 35.9561 5.60872 34.6756 6.77951C33.4588 7.89198 32.6075 9.41861 32.5149 11.0822C32.4122 12.9267 33.1255 14.7658 33.8275 16.4375C35.1844 19.6667 37.1134 22.6244 39.5215 25.1681C42.0407 27.8259 45.0148 29.9957 48.0038 32.0885L49.1184 32.866L49.0606 32.646C48.4624 33.5252 47.8063 34.3814 47.3146 35.3247L47.5345 35.2669C44.5022 33.0387 41.8311 30.3567 39.6151 27.3154C38.9926 26.4593 38.4083 25.5783 37.8621 24.6726L37.6101 24.8674L39.2084 26.2372L39.4027 25.9852C36.237 23.7297 33.1763 21.0553 31.4875 17.4771C30.6571 15.7178 30.1755 13.7695 30.252 11.8174C30.313 10.0923 30.8637 8.42011 31.8396 6.99623C32.8868 5.48084 34.4258 4.30042 36.2306 3.86431L36.0744 3.59676L34.1175 5.68364L30.9952 9.01033L30.2745 9.77873L30.5484 9.89217C30.3285 7.49601 31.4383 5.125 33.4481 3.79207C33.9748 3.4429 34.5487 3.17081 35.1524 2.98408L34.955 2.87171L35.0047 3.00281C35.0331 3.07826 35.1149 3.14835 35.2022 3.11518C37.2404 2.3412 39.4631 2.19217 41.5864 2.6871C43.0513 3.04037 44.4268 3.69433 45.6255 4.60748C46.8242 5.52063 47.82 6.67302 48.5496 7.99151V7.83098L48.3559 8.26815C48.338 8.30466 48.3345 8.34662 48.3464 8.38555C48.3582 8.42447 48.3843 8.45746 48.4195 8.47785C48.4547 8.49824 48.4964 8.5045 48.536 8.49537C48.5756 8.48624 48.6103 8.46241 48.6331 8.42868C50.7451 5.5199 53.5479 2.81499 57.2385 2.2312C58.9363 1.96365 60.6797 2.22745 62.1769 3.08735C63.5489 3.87287 64.6635 5.07256 65.4131 6.45846C67.1977 9.75625 66.691 13.8257 65.0332 17.063C63.3209 20.4084 60.5031 23.0132 57.5419 25.2542C56.759 25.8471 55.9612 26.4207 55.1596 26.9879C54.7391 27.286 54.311 27.5717 53.9102 27.8976L51.8014 29.603L51.6253 29.7453L51.8522 29.9722C53.7598 28.2872 55.6717 26.6011 57.4113 24.7373C59.0391 22.9951 60.5181 21.0944 61.6434 18.9861C62.2699 17.8228 62.7702 16.5958 63.1358 15.3261C63.1845 15.1548 62.926 15.0371 62.8425 15.2025L61.1425 18.5677L58.4339 23.9261L57.8196 25.1494C57.7393 25.3099 57.9368 25.4752 58.0716 25.3441C60.1585 23.3193 62.1127 21.1169 63.5831 18.5934C65.06 16.0586 66.006 13.1948 66.0237 10.2427C66.0323 8.7904 65.8097 7.32906 65.3179 5.96189C65.2264 5.70825 65.1445 5.40164 64.9861 5.18172C64.878 5.02278 64.7524 4.87649 64.6116 4.74562C64.1505 4.33812 63.6347 3.99717 63.0791 3.73268C60.8135 2.65179 58.0636 2.77807 55.7755 3.72626C53.1578 4.8109 51.0501 6.79236 49.2265 8.91348C48.9996 9.1771 48.7759 9.44358 48.5555 9.71291L48.823 9.86916L49.0103 9.31373C49.0339 9.24524 49.0692 9.17621 49.0531 9.10237C49.0371 9.02852 48.9697 8.93755 48.9301 8.86532C48.8717 8.7583 48.8113 8.65128 48.7503 8.54426C48.3314 7.82516 47.853 7.14248 47.32 6.5034C46.2613 5.23283 45.0007 4.14523 43.5887 3.28427C42.0755 2.36069 40.3246 1.60032 38.5283 1.55163C36.7721 1.50615 35.1829 2.31521 33.9661 3.54486C32.501 5.02494 31.6652 6.96947 30.8593 8.85783L31.1526 8.98197L31.2446 8.71442C31.3024 8.54319 31.0343 8.42868 30.9508 8.59081C30.4227 9.62087 30.5629 10.7997 30.8722 11.8742C31.1729 12.9176 31.5924 13.9348 32.0151 14.9338C32.8497 16.9046 33.8284 18.8111 34.9432 20.638C36.0542 22.4602 37.2945 24.2003 38.6546 25.845C40.0176 27.495 41.4985 29.0439 43.0857 30.4794C44.6688 31.9114 46.3552 33.2248 48.1312 34.4092C48.3516 34.5565 48.5735 34.7015 48.7968 34.8442L48.8782 34.5451L48.4635 34.5258L48.5769 34.7998L57.3696 26.0777L59.8594 23.6067C60.0098 23.4579 59.7898 23.2524 59.6325 23.3798L59.167 23.7576L59.3939 23.9844C61.6257 21.4727 63.8116 18.8015 64.9663 15.6011C66.0317 12.6484 66.1334 9.28162 64.4971 6.51464C63.7019 5.17048 62.5333 4.03822 61.0965 3.40359C60.936 3.33403 60.7648 3.51704 60.9023 3.65563L63.3916 6.1786L63.7458 6.53765L63.902 6.2701C61.2554 5.50064 58.4788 4.71833 55.7092 5.27161C54.5311 5.50943 53.4225 6.01228 52.4676 6.74206C51.5777 7.41949 50.8238 8.24835 50.1522 9.13875C49.3662 10.1811 48.6957 11.3048 48.038 12.4312L48.2901 12.3986L48.2425 12.3408L48.2895 12.4542C48.7176 8.96538 50.583 5.61194 53.7818 3.97294C55.2752 3.20721 56.9849 2.88188 58.6511 3.14407C60.3174 3.40627 61.8767 4.20998 62.9683 5.50171C64.0968 6.83944 64.6736 8.59188 64.7625 10.3229C64.8625 12.2835 64.3772 14.2291 63.6307 16.0297C62.2662 19.3195 60.0328 22.1592 57.5868 24.7127C56.3561 25.9969 55.0687 27.217 53.7668 28.4247C52.2789 29.8052 50.7874 31.182 49.2923 32.5551C49.0012 32.8226 48.7037 33.087 48.4233 33.3657L48.5796 33.3245C47.038 32.6999 45.6082 31.8286 44.3464 30.7448C43.0365 29.6179 41.9556 28.2652 40.9571 26.8622C39.8939 25.3682 38.8735 23.8416 37.8364 22.3294C36.823 20.8504 35.7496 19.3933 34.8742 17.825C34.0276 16.3048 33.4695 14.6561 33.3358 12.9155C33.2148 11.3321 33.4042 9.70167 34.0105 8.22641C34.5376 6.94218 35.4018 5.74678 36.617 5.03992C37.9429 4.26831 39.5257 4.23192 40.9689 4.67284C42.5094 5.14373 43.8113 6.1176 44.8976 7.28625C45.4469 7.88624 45.9574 8.52073 46.4258 9.18584C46.6645 9.5192 46.8967 9.85738 47.1257 10.1982C47.2327 10.3595 47.3408 10.5213 47.45 10.6836C47.5035 10.767 47.5714 10.8511 47.6196 10.9388C47.6137 10.9281 47.6266 10.9147 47.6357 10.942C47.6413 10.9703 47.6451 10.9989 47.6469 11.0276C47.6795 11.2256 47.7539 11.4209 47.8138 11.6162L48.014 12.283C48.0455 12.39 48.2034 12.4531 48.2815 12.3536L48.9354 11.5322C48.9686 11.491 49.0044 11.4509 49.0344 11.4081C49.1125 11.2968 49.0767 11.2026 49.0504 11.0758C48.9772 10.7249 48.8863 10.3779 48.7781 10.0361C48.3391 8.6551 47.6356 7.37272 46.7067 6.26047C46.1767 5.62764 45.5768 5.0568 44.9184 4.55887C44.7686 4.44489 44.6038 4.68354 44.7237 4.8109L44.7975 4.88956L44.9923 4.63753C43.5133 3.85254 41.9872 3.0499 40.3022 2.83586C38.9002 2.6566 37.4817 2.96268 36.2354 3.61389C34.9972 4.26947 33.9388 5.21906 33.1533 6.37926C32.2886 7.64744 31.8038 9.1425 31.6251 10.66C31.2387 13.9407 32.3003 17.1839 33.9351 19.9926C34.7618 21.4128 35.7314 22.7436 36.7518 24.0294C37.8006 25.3511 38.8981 26.6321 40.0443 27.8725C42.3463 30.3698 44.8285 32.6947 47.4708 34.8287C47.798 35.093 48.1274 35.3542 48.4592 35.6121C48.5496 35.6822 48.6946 35.6693 48.7267 35.5409L48.7647 35.3922C48.7705 35.36 48.7787 35.3283 48.7893 35.2974C48.8198 35.2263 48.7808 35.2846 48.8369 35.253C48.9536 35.1872 49.0595 35.07 49.1623 34.9855L49.5112 34.6949C49.9589 34.32 50.4023 33.9401 50.8414 33.5552C51.7111 32.7921 52.5635 32.01 53.3986 31.2088C55.0753 29.5992 56.6779 27.9167 58.2065 26.1612C59.073 25.1659 59.9131 24.1493 60.7268 23.1112C60.768 23.0577 60.7963 22.9785 60.7519 22.9169L59.8423 21.66L59.8171 21.8548C61.5899 19.7775 63.108 17.4183 63.8838 14.7808C64.5961 12.3627 64.6175 9.72843 63.7132 7.35581C63.2225 6.07158 62.4674 4.89063 61.4524 3.95528L61.4995 4.06872C61.5053 3.96428 61.5053 3.85959 61.4995 3.75515C61.4791 3.57536 61.1848 3.42393 61.0468 3.32708C60.6567 3.05752 60.236 2.83515 59.7936 2.66463C58.8918 2.31422 57.921 2.17759 56.9576 2.26545C56.4112 2.31452 55.8742 2.43895 55.3619 2.6352C55.1709 2.70904 55.2549 3.0194 55.447 2.94502L55.4502 2.94288Z" fill="#454545"/>
<path fill-rule="evenodd" clip-rule="evenodd" d="M93.8187 19.1574C93.8598 19.1551 93.9008 19.1528 93.9412 19.1485C93.9516 19.1741 93.962 19.1993 93.9726 19.2247C93.9819 19.2469 93.9912 19.2693 94.0006 19.2924C93.9436 19.3206 93.8871 19.3512 93.8307 19.3818C93.706 19.4494 93.5812 19.5171 93.4502 19.5588C91.3251 20.2245 89.1438 20.3863 86.9415 20.1937C85.7737 20.0913 84.6121 19.8918 83.4576 19.6821C82.9777 19.595 82.7086 19.7308 82.5384 20.1568C82.4768 20.3112 82.4159 20.466 82.355 20.6208C82.1724 21.0852 81.9897 21.5496 81.7859 22.0043C81.7313 22.1263 81.6255 22.225 81.5195 22.3239C81.4704 22.3697 81.4212 22.4155 81.3771 22.4637C81.3353 22.4083 81.285 22.3544 81.2347 22.3005C81.1256 22.1836 81.0166 22.0668 80.9942 21.935C80.7961 20.7721 80.6196 19.6054 80.443 18.4389C80.3882 18.0766 80.3333 17.7144 80.2779 17.3523L79.933 15.0998L79.7728 15.0922C79.7291 15.3747 79.6859 15.6573 79.6428 15.94C79.5385 16.6241 79.4341 17.3082 79.321 17.991C79.1071 19.2847 78.892 20.5781 78.6458 21.8658C78.6171 22.0164 78.5144 22.1528 78.4116 22.2891C78.3643 22.3519 78.317 22.4147 78.2769 22.479C78.2251 22.418 78.1654 22.3595 78.1057 22.3011C77.9757 22.1737 77.8456 22.0463 77.7966 21.8932C77.6529 21.4446 77.5376 20.9871 77.4222 20.5294C77.3557 20.2656 77.2892 20.0018 77.2173 19.7396C77.1692 19.5645 77.1025 19.3949 77.0359 19.2253C77.0049 19.1464 76.9739 19.0676 76.9447 18.9882L76.7925 18.9795C76.7631 19.1039 76.7323 19.2282 76.7014 19.3526C76.6318 19.6329 76.562 19.9135 76.5093 20.1975C76.3854 20.8745 76.2646 21.5521 76.1438 22.2296C75.9486 23.3249 75.7534 24.4202 75.5448 25.5129C75.5039 25.7278 75.4024 25.9314 75.3009 26.1348C75.2541 26.2286 75.2073 26.3224 75.1665 26.4173L74.9419 26.3849C74.9182 26.3056 74.8899 26.2267 74.8616 26.1478C74.8012 25.9791 74.7407 25.8106 74.7257 25.6381C74.5323 23.3752 74.3458 21.1117 74.1662 18.8478C73.9403 15.92 73.712 12.992 73.4811 10.0637C73.4698 9.93716 73.4454 9.8115 73.4209 9.68588C73.4097 9.62826 73.3985 9.57064 73.3886 9.51294L73.2298 9.49848C73.1905 9.69536 73.1485 9.89188 73.1065 10.0884C73.0136 10.5229 72.9207 10.9575 72.8564 11.3963C72.6436 12.8524 72.4388 14.3098 72.2339 15.7674C72.09 16.7912 71.9461 17.8151 71.7994 18.8386C71.6674 19.759 71.6521 19.815 70.7691 19.7354C70.0668 19.6718 69.7288 19.9489 69.5199 20.5678C69.3326 21.1235 69.1001 21.6652 68.8595 22.2003C68.7861 22.3633 68.6798 22.5114 68.5735 22.6596C68.5253 22.7267 68.4771 22.7938 68.4321 22.8622L68.2379 22.8569C68.2065 22.7618 68.17 22.6675 68.1334 22.573C68.0576 22.3771 67.9818 22.181 67.9509 21.9781C67.7717 20.7977 67.6041 19.6157 67.4366 18.4336C67.3652 17.9293 67.2937 17.4249 67.2213 16.9207C67.1828 16.652 67.1337 16.3844 66.9602 16.1016C66.9258 16.27 66.8904 16.4383 66.8549 16.6065C66.7761 16.9806 66.6973 17.3548 66.6306 17.731C66.5279 18.3114 66.4288 18.8925 66.3297 19.4737C66.1951 20.263 66.0605 21.0523 65.9169 21.8399C65.8755 22.0667 65.799 22.2873 65.7225 22.5078C65.6872 22.6097 65.6519 22.7115 65.62 22.8139L65.4232 22.8444C65.3852 22.7825 65.343 22.722 65.3009 22.6615C65.2085 22.5289 65.1162 22.3963 65.0673 22.2494C64.9626 21.9343 64.8677 21.6158 64.7728 21.2973C64.724 21.1335 64.6751 20.9697 64.625 20.8064V19.7733C64.6283 19.7803 64.6314 19.7872 64.6342 19.794C64.7814 20.157 64.885 20.5379 64.9885 20.919C65.0341 21.0866 65.0797 21.2543 65.129 21.4204C65.1813 21.5964 65.2369 21.7713 65.2925 21.946C65.3166 22.0219 65.3407 22.0978 65.3646 22.1737L65.529 22.1718C65.5932 21.8101 65.6568 21.4483 65.7203 21.0865C65.8617 20.2814 66.0031 19.4762 66.1517 18.6723C66.2092 18.361 66.2563 18.047 66.3035 17.7329C66.4311 16.8824 66.5588 16.0314 66.8924 15.2322L67.1151 15.2128C67.1416 15.2873 67.1721 15.3612 67.2026 15.4351C67.2687 15.5954 67.3349 15.7558 67.361 15.9223C67.5437 17.1338 67.7194 18.3465 67.895 19.5592C67.9831 20.1676 68.0713 20.776 68.1603 21.3843C68.1885 21.5766 68.2285 21.7674 68.2685 21.9585C68.2868 22.0461 68.3052 22.1338 68.3224 22.2216L68.4789 22.2468C68.5574 22.0583 68.6363 21.87 68.7151 21.6816C68.8872 21.2703 69.0593 20.859 69.2287 20.4468L69.2394 20.4208C69.6547 19.4107 69.6636 19.389 70.7672 19.4267C71.2316 19.4423 71.4188 19.3087 71.4832 18.8333C71.8516 16.1365 72.2346 13.442 72.6323 10.75C72.7127 10.2478 72.8338 9.75305 72.9942 9.27048C73.0322 9.15122 73.1371 9.05334 73.2421 8.95548C73.2898 8.91093 73.3376 8.86638 73.379 8.81982C73.4097 8.86984 73.4465 8.91895 73.4834 8.96807C73.563 9.07406 73.6427 9.18012 73.6596 9.29561C73.672 9.38002 73.6846 9.46442 73.6971 9.54883C73.8227 10.3946 73.9482 11.2402 74.0105 12.0909C74.1566 14.0953 74.2918 16.1006 74.427 18.1059C74.5303 19.6374 74.6336 21.1689 74.7417 22.7001C74.7893 23.375 74.8581 24.0484 74.9269 24.7218C74.9587 25.0335 74.9906 25.3453 75.0203 25.6572H75.2296C75.3054 25.2183 75.3808 24.7793 75.4562 24.3405C75.6489 23.219 75.8415 22.0979 76.0404 20.9781C76.0442 20.9565 76.0481 20.9348 76.0519 20.9131C76.1542 20.3373 76.2569 19.7592 76.4183 19.1991C76.4675 19.0282 76.5919 18.8791 76.7163 18.73C76.7729 18.6622 76.8294 18.5945 76.8789 18.5246C76.9328 18.5936 76.9938 18.6601 77.0548 18.7267C77.1891 18.8732 77.3235 19.0196 77.3813 19.1919C77.5235 19.6137 77.6312 20.0471 77.739 20.4805C77.792 20.6935 77.8449 20.9065 77.902 21.1182C77.9778 21.3987 78.0714 21.6747 78.2785 21.9674C78.3003 21.8847 78.3244 21.8025 78.3484 21.7203C78.4006 21.542 78.4528 21.3637 78.4825 21.1814C78.6208 20.3366 78.7561 19.4914 78.8914 18.6463C79.075 17.5003 79.2585 16.3544 79.4493 15.2098C79.4868 14.9859 79.5627 14.7682 79.6386 14.5506C79.6735 14.4504 79.7085 14.3502 79.7397 14.2494L79.9711 14.2453C80.0021 14.3355 80.0372 14.425 80.0723 14.5145C80.1514 14.7161 80.2304 14.9176 80.2623 15.1264C80.4255 16.2027 80.5799 17.2804 80.7344 18.358C80.8493 19.1603 80.9643 19.9626 81.0829 20.7642C81.1392 21.1838 81.2659 21.591 81.4574 21.9685C81.6011 21.5945 81.7442 21.2202 81.8868 20.8457C81.909 20.7873 81.9303 20.7284 81.9516 20.6695C81.9903 20.5624 82.029 20.4553 82.0737 20.3509C82.5205 19.3038 82.7017 19.2041 83.8025 19.4282C87.0736 20.0947 90.3298 20.2005 93.5606 19.1926C93.6424 19.1672 93.7306 19.1623 93.8187 19.1574Z" fill="#454545"/>
<path fill-rule="evenodd" clip-rule="evenodd" d="M31.3122 19.3459C33.3382 19.741 35.3788 19.966 37.4368 19.5701L37.4372 19.9074C35.4126 20.256 33.3984 20.0786 31.3955 19.698C30.8166 19.5884 30.4961 19.7281 30.297 20.2488C30.2362 20.407 30.1764 20.5657 30.1166 20.7243C29.9556 21.152 29.7946 21.5795 29.6119 21.9974C29.5586 22.1193 29.4524 22.218 29.346 22.3168C29.2967 22.3626 29.2473 22.4085 29.2031 22.4568C29.1614 22.4009 29.111 22.3466 29.0605 22.2922C28.9524 22.1757 28.8443 22.0591 28.8225 21.9281C28.577 20.4562 28.3518 18.981 28.1266 17.5056C28.1009 17.337 28.0751 17.1684 28.0494 16.9998H28.3465C28.425 17.5347 28.5025 18.0698 28.58 18.6049C28.6861 19.3367 28.7921 20.0685 28.9005 20.7999C28.9535 21.2038 29.0691 21.597 29.2431 21.9654C29.2694 21.9087 29.2964 21.8524 29.3234 21.7961C29.3833 21.6708 29.4433 21.5457 29.4958 21.4173C29.5748 21.2236 29.6509 21.0287 29.7271 20.8338C29.8431 20.5366 29.9592 20.2394 30.0854 19.9466C30.3187 19.4045 30.7009 19.2272 31.3122 19.3459ZM27 16.8052C26.9393 17.1921 26.8791 17.579 26.819 17.966C26.6929 18.7772 26.5668 19.5884 26.4356 20.3987C26.3776 20.7562 26.2982 21.1104 26.2188 21.4646C26.1819 21.6294 26.1449 21.7941 26.1101 21.9593L25.9579 21.9528C25.8911 21.7056 25.8264 21.4577 25.7617 21.2098C25.595 20.5715 25.4283 19.9333 25.2271 19.3063C25.1636 19.1092 25.0192 18.938 24.8747 18.7668C24.8087 18.6885 24.7426 18.6102 24.6843 18.5295C24.6314 18.6124 24.5692 18.6935 24.5071 18.7746C24.3722 18.9505 24.2373 19.1265 24.1964 19.3219C24.0211 20.1621 23.873 21.0077 23.725 21.8534C23.6502 22.2804 23.5754 22.7075 23.4972 23.1339C23.3939 23.6953 23.284 24.2552 23.1741 24.8152C23.122 25.0811 23.0698 25.3469 23.0183 25.6129L22.8573 25.5988C22.8482 25.5401 22.8378 25.4814 22.8274 25.4228C22.8051 25.2978 22.7829 25.1729 22.7736 25.0469C22.665 23.5841 22.5575 22.1212 22.45 20.6584C22.2475 17.9027 22.0451 15.147 21.835 12.3919C21.7588 11.3973 21.6412 10.4047 21.5034 9.41655C21.4829 9.27039 21.3834 9.13546 21.2839 9.00041C21.2381 8.93817 21.1922 8.8759 21.154 8.8125C21.1115 8.87426 21.0636 8.93428 21.0157 8.99426C20.91 9.12652 20.8045 9.25863 20.7574 9.40894C20.6185 9.85802 20.5152 10.3173 20.4483 10.7826C20.052 13.4747 19.6663 16.1683 19.2912 18.8637C19.2364 19.2607 19.1215 19.5027 18.6784 19.4152C17.7528 19.2325 17.2557 19.6622 17.0014 20.5213C16.8962 20.8767 16.7452 21.2189 16.5945 21.5605C16.5472 21.6677 16.4999 21.7749 16.4541 21.8824C16.4197 21.9635 16.3705 22.0384 16.3004 22.1453C16.2609 22.2054 16.2148 22.2756 16.161 22.3628C16.132 22.2121 16.105 22.0797 16.0804 21.9589C16.0349 21.7358 15.9976 21.5527 15.9707 21.3682C15.8853 20.7657 15.8017 20.1629 15.7181 19.5601C15.5623 18.4369 15.4064 17.3135 15.2395 16.1917C15.2054 15.9623 15.1269 15.7396 15.0485 15.5168C15.0121 15.4135 14.9757 15.3102 14.9437 15.2062L14.664 15.2207C14.3352 16.3925 14.1301 17.5931 13.9246 18.7962C13.7325 19.9208 13.54 21.0476 13.2458 22.1553C12.9563 21.4072 12.7047 20.645 12.4921 19.8716C12.3882 19.5046 12.2029 19.3265 11.7918 19.3151C11.4646 19.306 11.1386 19.2616 10.8125 19.2171C10.5945 19.1874 10.3764 19.1577 10.1578 19.1385C9.60074 19.0896 9.04388 19.0353 8.487 18.9811C7.01942 18.8381 5.55174 18.6951 4.08107 18.6501C2.78466 18.6121 1.51755 18.9752 0.441906 19.7875C0.328767 19.8715 0.231667 19.979 0.134237 20.0869C0.0900673 20.1358 0.0458299 20.1847 0 20.2316L0.116091 20.369C0.15388 20.3478 0.192804 20.328 0.231742 20.3081C0.316345 20.265 0.401014 20.2219 0.474259 20.1643C1.26368 19.54 2.16119 19.132 3.15577 19.0696C4.38252 18.9935 5.62298 18.9421 6.84555 19.0365C7.79768 19.1102 8.74442 19.2446 9.69146 19.3791C10.3345 19.4704 10.9777 19.5617 11.6228 19.6341C12.0076 19.6767 12.1667 19.8194 12.2569 20.1669C12.4347 20.8486 12.6215 21.5296 12.8484 22.1961C12.899 22.3448 13.0136 22.472 13.1281 22.599C13.1805 22.6572 13.233 22.7155 13.2793 22.7757C13.3181 22.7113 13.3638 22.6482 13.4095 22.5852C13.5077 22.4496 13.6058 22.3143 13.6344 22.1667C13.8584 20.994 14.0676 19.8194 14.2769 18.644C14.3696 18.1237 14.4622 17.6032 14.5563 17.0827C14.598 16.8524 14.6493 16.6238 14.7006 16.3953C14.7237 16.2923 14.7468 16.1894 14.769 16.0863C14.9879 16.6694 15.0827 17.2411 15.1645 17.8147C15.2302 18.275 15.2941 18.7357 15.358 19.1963C15.4931 20.1707 15.6282 21.145 15.7807 22.1157C15.8066 22.2819 15.9026 22.437 15.9986 22.5922C16.0441 22.6655 16.0895 22.7389 16.1275 22.8134C16.1819 22.7541 16.2417 22.6972 16.3015 22.6404C16.4334 22.515 16.5655 22.3895 16.6402 22.236C16.9191 21.675 17.1613 21.0965 17.3653 20.5042C17.5636 19.9134 17.8982 19.6938 18.5342 19.7357C19.4795 19.7979 19.4857 19.7546 19.6242 18.7809L19.6254 18.7723C20.0144 16.0592 20.4051 13.3464 20.7974 10.6338C20.8375 10.3601 20.903 10.0909 20.9685 9.82109C20.9999 9.69204 21.0313 9.56284 21.06 9.43292C21.1891 9.57231 21.2658 9.75218 21.277 9.94182C21.3741 11.1815 21.4693 12.4216 21.5645 13.6617C21.6986 15.4091 21.8328 17.1564 21.9724 18.9021C22.15 21.127 22.3374 23.351 22.5345 25.5741C22.5505 25.7551 22.6097 25.9322 22.6771 26.1337C22.7108 26.2347 22.7466 26.3419 22.7801 26.4587C23.2893 26.1171 23.3659 25.6723 23.4372 25.258C23.4463 25.2051 23.4553 25.1527 23.4652 25.101C23.6664 24.0347 23.8551 22.9662 24.0437 21.8977C24.1716 21.1736 24.2994 20.4496 24.4312 19.7262C24.4628 19.5529 24.5231 19.3847 24.5834 19.2165C24.6095 19.1435 24.6357 19.0704 24.6596 18.9969L24.8141 19.0056C24.8834 19.2592 24.951 19.5133 25.0186 19.7673C25.1965 20.4357 25.3744 21.104 25.5826 21.7629C25.64 21.944 25.775 22.1005 25.9101 22.2571C25.972 22.329 26.034 22.4008 26.0884 22.475C26.1309 22.4042 26.1755 22.3344 26.2202 22.2645C26.3257 22.0994 26.4312 21.9344 26.5071 21.7568C26.5754 21.5998 26.6008 21.4218 26.6257 21.2475C26.6314 21.2071 26.6372 21.1669 26.6434 21.1273C26.7216 20.6272 26.798 20.1276 26.8744 19.6282C26.9607 19.0634 27.047 18.4988 27.1359 17.9342C27.185 17.6226 27.235 17.3111 27.2855 16.9998H27V16.8052Z" fill="#454545"/>
</svg>
