<svg width="75" height="54" viewBox="0 0 75 54" fill="none" xmlns="http://www.w3.org/2000/svg">
<rect opacity="0.6" x="14.2754" y="10.4404" width="60.7246" height="43.466" rx="8.73582" fill="#8DCBE8"/>
<rect opacity="0.8" width="60.7246" height="43.466" rx="8.73582" fill="#D1CB28"/>
<rect x="6.60441" y="5.75284" width="58.5939" height="41.3353" rx="7.67047" stroke="#454545" stroke-width="2.13069"/>
<path d="M44.0575 21.4011C45.2151 22.0695 45.2151 23.7403 44.0575 24.4087L28.0131 33.6719C26.8555 34.3402 25.4085 33.5048 25.4085 32.1681L25.4085 13.6417C25.4085 12.305 26.8555 11.4696 28.0131 12.1379L44.0575 21.4011Z" fill="white"/>
<path d="M28.2956 16.0804C28.5455 15.7594 28.9217 15.3334 29.1831 15.0929M28.3751 17.3961C28.7265 16.9477 29.1192 16.4689 29.7375 15.2901M28.3263 19.1092C28.5573 18.2933 29.1481 17.6257 30.7447 16.0175M28.4027 20.0537C28.6915 19.3856 29.7459 17.5418 31.3787 16.1857M28.1509 21.4757C29.2443 20.061 30.1521 18.3157 31.8899 16.707M28.0931 22.3859C29.0754 21.4737 30.7826 19.7505 32.7148 17.2296M28.3672 23.7427C30.1033 21.7162 31.3621 20.1912 33.7838 17.3019M27.9681 25.2361C29.7398 23.329 31.7753 21.2724 34.9802 17.8692M27.8026 26.6119C30.5625 23.782 32.3762 21.2838 35.0513 18.5227M28.1174 28.2441C30.7768 24.5032 33.7279 21.6836 36.0372 18.9946M27.5475 29.4414C30.8315 25.993 34.3351 21.878 36.8386 19.4491M27.4844 31.1238C30.0752 28.4705 32.786 25.2261 37.2717 19.4026M28.0269 32.165C31.6829 27.6531 35.4382 23.5537 38.6061 20.3078M27.8552 33.7466C31.6473 28.9565 34.831 25.3244 39.0635 20.3004M28.1708 35.028C32.0045 29.2639 36.6674 24.5117 39.746 20.8024M28.3769 35.9176C31.8301 31.9554 35.2909 27.6844 41.0571 20.8263M28.6701 35.8435C32.3764 32.1047 36.5129 27.7758 41.4926 21.8277M29.7456 36.6168C32.8195 32.8284 36.1196 29.0863 42.4439 21.9221M30.3703 36.8799C35.8213 31.569 40.8548 25.2636 43.2635 22.478M33.3204 35.5644C36.3363 31.5298 39.9134 27.854 44.1035 22.9201M35.0794 34.3861C39.0339 30.6999 42.0451 26.1961 45.0267 23.0455M37.6763 32.8815C39.8023 30.3953 42.5531 27.8262 45.5693 23.2213M39.8364 31.9908C40.91 29.8556 42.4615 27.7971 46.5982 23.6391M42.3489 30.3078C43.218 28.2383 45.1165 27.0511 46.1529 24.9932M44.3471 28.5989C45.3082 28.2667 45.6029 27.4327 46.0687 26.7297M28.0185 17.2699C28.379 16.8636 28.9344 16.1505 29.1188 15.2276M28.1748 19.0211C28.5938 18.1183 29.473 16.8692 30.013 15.4435M28.3979 19.7564C29.0881 19.3143 29.0807 17.6171 30.9044 15.8876M27.8907 21.1126C28.6384 19.8435 29.7035 18.3266 31.1314 16.666M28.047 22.4098C29.8137 20.7225 31.0406 18.2732 32.269 17.0534M28.3419 23.8894C29.2843 21.5422 30.669 20.178 33.4172 16.9077M28.4899 25.8441C30.3027 22.9261 32.1143 20.0716 34.1518 17.9143M28.3572 26.666C29.8657 24.901 31.1518 22.5937 35.005 17.7662M28.1907 28.2284C30.9459 23.9765 33.8654 20.494 35.6959 18.5316M27.6708 29.7323C30.6406 26.3677 33.3503 23.0942 36.1261 18.5364M27.8416 30.683C31.1249 26.3953 34.3566 22.7646 36.8732 19.1295M27.8536 32.1999C30.0627 29.4208 31.9058 27.0193 37.3152 19.2531M27.6026 33.224C31.7879 28.2796 36.1399 23.5961 38.1146 19.9019M27.9849 34.9899C30.609 31.3173 33.0776 28.2378 39.0097 20.6627M27.6684 35.496C31.0211 31.931 33.7178 29.1482 40.0492 20.4235M29.1952 35.8307C31.8352 32.2037 35.4777 28.2349 40.4621 21.096M29.8065 36.1799C32.957 31.7087 36.6059 27.453 41.6952 21.595M30.4403 37.1322C34.8157 31.7614 38.3199 26.6966 42.5829 21.7804M33.1323 35.4739C35.3628 31.7195 38.4489 28.1119 42.7578 22.7533M35.1881 34.5045C37.1761 31.3195 38.8705 28.7575 43.7853 22.4834M37.2043 32.3678C39.1769 30.4096 41.3763 28.0604 44.857 22.8577M39.5934 31.4478C40.9307 29.377 42.8437 27.4025 45.1298 23.8539M41.6191 30.1882C42.8079 28.4443 44.0291 26.8123 46.2781 23.749M44.3653 28.9272C45.1221 27.9567 45.5628 26.4623 46.3685 25.6008M28.3742 14.7017V14.7017Z" stroke="#454545" stroke-width="0.1" stroke-linecap="round"/>
</svg>
