<svg width="92" height="48" viewBox="0 0 92 48" fill="none" xmlns="http://www.w3.org/2000/svg">
<path d="M4.9841 25.2757C5.44076 24.1315 5.61594 23.2475 5.49064 22.3484M5.3429 28.9732C5.01237 28.0523 5.49052 26.8685 6.29352 24.1228M5.49254 33.7905C6.11672 30.6431 6.14812 27.4726 6.47951 25.402M4.81651 37.5716C5.56566 34.8379 6.27294 31.5043 7.08549 26.8528M5.94588 39.2348C5.98417 36.5665 6.4845 34.6291 7.55632 28.7359M6.97016 38.5276C7.53248 37.0302 7.81403 35.1112 8.11418 29.9746M7.43682 38.9888C7.98956 36.1986 8.45678 33.6658 9.4463 30.8114M9.10371 37.9272C9.30998 35.7272 9.51593 32.9629 10.1438 29.7797M9.83099 36.5829C9.80717 34.4695 10.5646 31.6547 11.0491 28.9401M10.305 35.8372C10.79 34.5569 10.6894 32.4465 12.1265 27.6202M11.4208 35.0041C11.9536 32.3135 12.1385 30.4368 13.0543 26.815M12.7077 33.5334C12.9506 31.0903 13.5188 28.848 13.693 25.5514M13.8761 32.2743C14.0941 30.4901 15.0392 27.6037 15.3004 24.7458M14.2841 32.147C15.2738 29.5631 15.2767 28.1469 15.7828 24.5249M15.1848 34.0294C15.8316 31.7526 15.3164 29.603 16.5036 23.9006M15.4598 36.4097C15.9886 32.9056 16.5852 30.4111 17.9028 24.4321M16.0695 38.4178C16.7352 35.7454 16.8407 33.7288 17.8332 28.1139M16.3259 41.0075C17.044 37.5556 17.4895 33.6914 18.2029 31.3801M17.1458 40.6339C17.5277 39.3879 17.9645 38.7403 18.0965 35.5448M5.16531 29.1724C4.93662 27.2168 5.15421 24.9547 5.32927 22.7265M5.20043 33.6479C5.60431 30.305 5.70898 27.764 5.73885 24.323M5.78048 37.7883C6.01238 32.7799 6.04201 27.9178 6.59413 25.6554M6.36506 38.7858C6.3109 34.5525 6.93424 29.3595 7.18214 26.9946M7.03798 39.037C7.00635 34.7479 7.44339 31.6189 7.52709 28.4662M7.41507 38.5336C7.58534 36.8325 8.08084 34.1742 8.5722 29.6299M8.47646 37.6372C8.3357 35.425 9.08527 32.9056 9.07137 30.7916M10.1906 36.9382C9.38022 34.6994 10.2575 32.5824 9.93855 29.9377M10.5437 36.2425C10.6535 33.7219 10.9886 30.802 11.329 28.6339M11.5575 35.1571C11.5091 32.4562 12.1328 30.1844 11.6648 27.956M12.78 34.0019C12.6323 32.0443 13.0828 30.6417 13.2728 26.6353M13.7053 32.9652C13.6124 30.6887 13.7197 28.9941 14.1029 25.9251M14.5902 31.9726C14.868 29.9427 15.0333 28.2333 15.1523 24.4816M15.4228 34.3054C14.9804 30.308 15.5496 26.6886 16.0496 23.8035M15.6987 36.3587C15.9213 33.3245 15.8849 31.5664 16.4164 24.1858M16.1402 37.7483C16.4743 34.4103 17.2634 30.7252 17.8982 24.2344M16.4896 41.6211C16.4449 38.2237 16.8714 35.7747 17.6703 27.5275M17.6555 41.2079C17.0384 37.6523 17.7113 34.0063 17.5496 31.594" stroke="#454545" stroke-width="0.101682" stroke-linecap="round"/>
<ellipse cx="52.4427" cy="28.325" rx="19.1751" ry="19.1751" fill="#FFB953"/>
<path d="M21.9929 5.96735C22.2282 3.09188 24.9703 1.10202 27.777 1.7699L50.1582 7.09574C52.2799 7.60064 53.7775 9.49631 53.7775 11.6773V27.5695C53.7775 29.9914 51.9406 32.0184 49.5305 32.2563L25.2164 34.6561C22.292 34.9447 19.8203 32.5141 20.06 29.5852L21.9929 5.96735Z" fill="#D1CB28" fill-opacity="0.46"/>
<path d="M41.084 14.7651C41.084 14.2134 41.5312 13.7661 42.083 13.7661H43.3908C43.9425 13.7661 44.3897 14.2134 44.3897 14.7651V17.5389C44.3897 17.6965 44.262 17.8243 44.1043 17.8243H41.3694C41.2118 17.8243 41.084 17.6965 41.084 17.5389V14.7651Z" fill="#454545"/>
<path d="M49.0527 14.7651C49.0527 14.2134 49.5 13.7661 50.0517 13.7661H51.3595C51.9112 13.7661 52.3585 14.2134 52.3585 14.7651V17.5389C52.3585 17.6965 52.2307 17.8243 52.0731 17.8243H49.3382C49.1805 17.8243 49.0527 17.6965 49.0527 17.5389V14.7651Z" fill="#454545"/>
<path d="M39.4928 27.1431V19.8102H54.0369V27.1431C54.0369 29.4074 52.2013 31.243 49.9371 31.243H43.5926C41.3283 31.243 39.4928 29.4074 39.4928 27.1431Z" stroke="#454545" stroke-width="1.79025"/>
<path d="M39.7518 42.2709C32.6307 39.4711 27.5898 32.5336 27.5898 24.4188C27.5898 13.8286 36.1748 5.24365 46.7649 5.24365C57.3551 5.24365 65.94 13.8286 65.94 24.4188C65.94 33.9933 58.9227 41.9288 49.7505 43.3628C48.1152 43.6185 46.7649 42.2521 46.7649 40.5969V31.5206" stroke="#454545" stroke-width="1.79025" stroke-linecap="round"/>
<path d="M79.9937 2.9963C81.2139 2.59719 82.0379 2.14683 82.6733 1.44605M77.2762 5.75318C77.792 4.87365 79.0581 4.46532 81.7905 3.27343M73.5234 9.09075C76.4576 7.48754 79.0142 5.39479 80.8917 4.27666M70.0477 11.0758C72.7345 9.8489 75.8731 8.18775 80.1361 5.73046M69.472 13.0901C71.6316 11.3383 73.5153 10.4443 78.9446 7.36488M70.7218 13.4369C72.295 12.8863 74.0178 11.8297 78.3265 8.6385M70.6646 14.1182C73.2654 12.6964 75.6032 11.3782 78.5471 10.2629M72.6272 14.7422C74.5245 13.4376 76.8728 11.7558 79.8382 10.1316M74.1882 14.4258C75.8625 12.9951 78.6197 11.7205 81.1143 10.2948M75.1012 14.3068C76.449 13.8395 78.0698 12.3493 82.8897 10.2747M76.5128 14.6427C79.0206 13.2716 80.6451 12.1658 84.1534 10.4789M78.5487 14.6896C80.6649 13.2519 82.8377 12.2084 85.5907 10.1457M80.3361 14.783C81.9088 13.7655 84.8486 12.5932 87.3088 10.8931M80.7105 15.0243C83.4382 14.0898 84.5727 13.1461 87.8076 11.1313M79.8067 17.002C82.0596 15.9984 83.4347 14.1505 88.7885 11.2908M78.0867 18.812C81.2424 16.8942 83.6359 15.7051 89.298 12.7649M76.8879 20.641C79.4699 19.3883 81.1532 18.1256 86.3069 15.1686M74.9879 22.576C78.2284 20.8444 81.6165 18.6196 83.9415 17.6461M75.8344 22.9821C77.0861 22.4553 77.8958 22.372 80.5396 20.343M76.9983 5.74417C78.4096 4.25497 80.3641 2.91795 82.2631 1.56955M73.4423 8.76187C76.3857 6.8519 78.4878 5.23824 81.2598 2.96355M70.5184 11.9915C74.6789 8.83143 78.5873 5.60732 80.7655 4.53764M70.1111 13.1254C73.4606 10.2543 78.0303 7.28392 80.0873 5.90247M70.3597 13.8314C73.7689 10.941 76.5634 9.2004 79.1407 7.16135M71.0142 13.7967C72.4885 12.7965 74.9455 11.4171 78.9082 8.77454M72.4401 14.0468C74.1154 12.4565 76.631 11.373 78.3125 9.9498M74.1441 14.9508C75.3934 12.8072 77.6725 12.0947 79.5747 10.073M74.9365 14.7685C77.0257 13.1726 79.5848 11.4901 81.5463 10.3141M76.4817 14.8543C78.6096 13.0114 80.8431 11.9927 82.3127 10.1298M78.2223 15.0603C79.6892 13.6346 81.1119 13.058 84.4432 10.5337M79.6695 15.1079C81.4281 13.5129 82.8551 12.4667 85.5656 10.7231M81.0545 15.1525C82.8635 14.0187 84.341 13.0091 87.4211 10.5982M79.7449 17.3767C82.6464 14.3526 85.9214 12.3902 88.5628 10.8629M78.287 18.969C80.8625 17.1202 82.2442 15.9167 88.5021 11.4116M77.4705 20.2503C80.3634 18.2877 83.8378 16.4573 89.4531 12.6292M74.6066 23.1167C77.2939 20.8116 79.5374 19.5168 86.667 14.6467M75.7159 23.7732C78.1473 20.9045 81.5128 19.0073 83.3341 17.2665" stroke="#454545" stroke-width="0.111891" stroke-linecap="round"/>
</svg>
