<svg width="71" height="49" viewBox="0 0 71 49" fill="none" xmlns="http://www.w3.org/2000/svg">
<circle cx="24.0954" cy="23.8454" r="23.3454" fill="#8DCBE8"/>
<path d="M70.4027 10.674C70.8761 11.4636 70.6216 12.4804 69.8348 12.9431L65.341 15.6378C64.8982 15.9033 64.6234 16.3782 64.6138 16.8945L64.4483 25.8339C64.4409 26.229 64.2313 26.5928 63.8931 26.7972C63.2268 27.2 62.3612 26.8386 62.1792 26.0816L60.8614 20.6023C60.625 19.6192 59.5023 19.1481 58.6351 19.6681L55.81 21.3621C55.4044 21.6053 55.1375 22.0258 55.0901 22.4963L54.9352 24.0318C54.9062 24.3192 54.7426 24.5757 54.4941 24.7231C53.9752 25.031 53.3058 24.7577 53.1505 24.1746L52.5386 21.8767C52.4663 21.6054 52.3193 21.3599 52.1142 21.1681L50.3668 19.5344C49.9247 19.1211 49.9979 18.4002 50.514 18.0841C50.7639 17.9311 51.0718 17.9068 51.3426 18.0188L52.792 18.6183C53.2301 18.7995 53.7281 18.7626 54.1346 18.5188L56.9236 16.8464C57.7891 16.3274 57.904 15.1183 57.1518 14.4456L52.9334 10.6731C52.3529 10.1539 52.4432 9.22038 53.1126 8.82219C53.4531 8.61965 53.8737 8.60605 54.2266 8.78616L62.1888 12.8503C62.6486 13.085 63.197 13.0663 63.6398 12.8008L68.1336 10.1061C68.8883 9.63535 69.9587 9.90322 70.4027 10.674Z" fill="#DFDFDF"/>
<path d="M43.8366 8.90932C41.0534 7.48659 37.9006 6.68408 34.5602 6.68408C23.2893 6.68408 14.1523 15.821 14.1523 27.092C14.1523 38.363 23.2893 47.4999 34.5602 47.4999C44.0138 47.4999 51.966 41.0721 54.2848 32.3486" stroke="#454545" stroke-width="1.79719" stroke-linecap="round"/>
<path d="M24.2009 20.9076L25.0987 20.945L24.2009 20.9076ZM26.3654 29.4109L26.1727 28.5332L26.3654 29.4109ZM32.7042 25.3912H33.6028C33.6028 25.2733 33.5796 25.1566 33.5345 25.0476L32.7042 25.3912ZM32.7042 19.6708L33.2027 20.4185L32.7042 19.6708ZM35.7963 37.9142L35.4476 37.086L35.7963 37.9142ZM46.9279 35.5951L47.5032 34.9048L46.9279 35.5951ZM44.9372 26.6914C45.3992 26.5101 45.6266 25.9885 45.4453 25.5266C45.2639 25.0646 44.7424 24.8372 44.2804 25.0186L44.9372 26.6914ZM16.5234 18.5579C17.781 18.4839 19.6346 18.555 21.1223 18.9775C21.8684 19.1894 22.4472 19.4691 22.8185 19.7984C23.1607 20.102 23.3212 20.4363 23.3031 20.8702L25.0987 20.945C25.1425 19.8946 24.6961 19.0617 24.0112 18.454C23.3553 17.8722 22.4866 17.4967 21.6133 17.2487C19.862 16.7513 17.7885 16.6832 16.4179 16.7638L16.5234 18.5579ZM23.3031 20.8702C23.2694 21.6782 23.0203 22.6624 22.7166 23.7571C22.4272 24.8004 22.083 25.9597 21.9566 26.9599C21.8365 27.9104 21.8571 29.1056 22.7441 29.8713C23.6071 30.6163 24.9408 30.6436 26.5581 30.2886L26.1727 28.5332C24.6205 28.874 24.0797 28.6501 23.9184 28.5109C23.7812 28.3924 23.6278 28.0705 23.7396 27.1851C23.8452 26.3494 24.1387 25.3538 24.4484 24.2375C24.7438 23.1724 25.0551 21.9922 25.0987 20.945L23.3031 20.8702ZM26.5581 30.2886C29.1823 29.7126 30.9065 28.8819 31.9958 28.0154C33.0588 27.17 33.6028 26.2114 33.6028 25.3912H31.8056C31.8056 25.4471 31.7158 25.9418 30.8771 26.6089C30.0647 27.255 28.6196 27.9961 26.1727 28.5332L26.5581 30.2886ZM33.5345 25.0476C33.2478 24.3546 32.9074 23.2607 32.8102 22.2551C32.7615 21.7522 32.779 21.3213 32.8622 20.9923C32.9435 20.6711 33.07 20.5069 33.2027 20.4185L32.2058 18.9231C31.5963 19.3294 31.2745 19.9408 31.12 20.5515C30.9674 21.1543 30.9617 21.8115 31.0213 22.4281C31.1406 23.6617 31.5422 24.9333 31.8739 25.7348L33.5345 25.0476ZM33.2027 20.4185C34.0899 19.827 35.272 19.0917 36.1411 18.4045C36.5742 18.062 36.9984 17.6798 37.2841 17.2792C37.5498 16.9065 37.8746 16.2523 37.5277 15.5584L35.9202 16.3621C35.8052 16.1321 35.9754 16.019 35.8208 16.2357C35.6862 16.4245 35.4243 16.6801 35.0264 16.9947C34.2335 17.6217 33.1738 18.2778 32.2058 18.9231L33.2027 20.4185ZM37.5277 15.5584C37.3338 15.1705 36.9812 14.812 36.6988 14.5388C36.3521 14.2036 36.0832 13.9714 35.7553 13.6435C35.4522 13.3405 35.2253 13.0743 35.0898 12.8385C34.957 12.6073 34.962 12.4937 34.9729 12.4447L33.2185 12.0548C33.0748 12.7015 33.273 13.2837 33.5315 13.7337C33.7874 14.1791 34.1499 14.5797 34.4845 14.9143C34.7944 15.2242 35.2116 15.6007 35.4495 15.8308C35.7516 16.123 35.8823 16.2862 35.9202 16.3621L37.5277 15.5584ZM34.9729 12.4447C35.061 12.0482 35.1275 11.4562 35.201 10.9169C35.2798 10.3391 35.375 9.74083 35.5227 9.20205C35.674 8.65017 35.8583 8.2474 36.0645 8.0035C36.2369 7.79965 36.4067 7.7181 36.6642 7.73526L36.7837 5.94205C35.8816 5.88191 35.1818 6.26416 34.6923 6.84298C34.2366 7.38176 33.9667 8.08052 33.7895 8.72681C33.6087 9.3862 33.501 10.0827 33.4203 10.6741C33.3344 11.304 33.285 11.7556 33.2185 12.0548L34.9729 12.4447ZM34.8662 46.8828C34.2221 45.8093 33.5501 44.1092 33.5603 42.5079C33.5653 41.7213 33.7342 40.9918 34.1179 40.3666C34.4972 39.7488 35.1227 39.1728 36.145 38.7424L35.4476 37.086C34.1199 37.6451 33.1839 38.4529 32.5863 39.4265C31.9931 40.3927 31.7697 41.4625 31.7631 42.4964C31.7501 44.5361 32.5778 46.5619 33.3251 47.8075L34.8662 46.8828ZM36.145 38.7424C39.0729 37.5096 40.403 36.7136 41.11 35.9578C41.4904 35.5512 41.669 35.1799 41.8086 34.8769C41.9401 34.5917 42.0275 34.3923 42.226 34.137L40.8074 33.0336C40.4649 33.474 40.301 33.8543 40.1764 34.1247C40.06 34.3774 39.9777 34.5375 39.7976 34.73C39.3837 35.1724 38.3948 35.8451 35.4476 37.086L36.145 38.7424ZM42.226 34.137C42.3923 33.9232 42.5076 33.884 42.5782 33.872C42.6763 33.8553 42.8693 33.8642 43.2196 34.0199C43.9522 34.3455 44.9344 35.1036 46.3526 36.2855L47.5032 34.9048C46.1385 33.7676 44.9562 32.825 43.9495 32.3776C43.4302 32.1468 42.8598 32.0011 42.2767 32.1003C41.666 32.2043 41.1822 32.5517 40.8074 33.0336L42.226 34.137ZM46.3526 36.2855C48.7987 38.3239 51.2227 38.3575 52.314 37.9937L51.7457 36.2887C51.291 36.4403 49.5097 36.577 47.5032 34.9048L46.3526 36.2855ZM44.2804 25.0186C35.882 28.3161 24.5512 32.1181 17.3145 32.9869C15.5084 33.2038 14.0195 33.2293 12.9206 33.0463C11.7916 32.8582 11.2947 32.4911 11.1108 32.1357C10.9281 31.7825 10.8737 31.0903 11.5115 29.7957C12.1363 28.5276 13.3365 26.8714 15.2768 24.763L13.9544 23.546C11.9677 25.7047 10.635 27.5081 9.89934 29.0015C9.17665 30.4685 8.93431 31.8398 9.51462 32.9615C10.0937 34.0809 11.3109 34.6001 12.6253 34.819C13.9699 35.043 15.6539 34.9964 17.5287 34.7713C25.0155 33.8724 36.5352 29.9904 44.9372 26.6914L44.2804 25.0186Z" fill="#454545"/>
<path d="M65.766 13.7663C66.2394 14.5558 65.9849 15.5726 65.1981 16.0354L60.7043 18.7301C60.2615 18.9956 59.9867 19.4705 59.9771 19.9868L59.8115 28.9262C59.8042 29.3213 59.5946 29.6851 59.2564 29.8895V29.8895C58.5901 30.2923 57.7245 29.9309 57.5425 29.1739L56.2247 23.6946C55.9882 22.7115 54.8655 22.2403 53.9983 22.7604L51.1732 24.4544C50.7677 24.6976 50.5008 25.1181 50.4534 25.5886L50.2985 27.1241C50.2695 27.4114 50.1058 27.668 49.8574 27.8154V27.8154C49.3385 28.1232 48.6691 27.85 48.5138 27.2669L47.9019 24.969C47.8296 24.6977 47.6826 24.4522 47.4775 24.2604L45.7301 22.6267C45.288 22.2134 45.3612 21.4925 45.8773 21.1764V21.1764C46.1272 21.0234 46.4351 20.9991 46.7059 21.1111L48.1553 21.7106C48.5934 21.8917 49.0914 21.8548 49.4979 21.611L52.2869 19.9386C53.1524 19.4196 53.2673 18.2106 52.515 17.5379L48.2967 13.7654C47.7161 13.2462 47.8065 12.3127 48.4759 11.9145V11.9145C48.8164 11.7119 49.237 11.6983 49.5899 11.8784L57.552 15.9426C58.0119 16.1773 58.5603 16.1586 59.0031 15.8931L63.4969 13.1984C64.2516 12.7276 65.3219 12.9955 65.766 13.7663Z" stroke="#454545" stroke-width="1.79719"/>
</svg>
