<svg width="93" height="51" viewBox="0 0 93 51" fill="none" xmlns="http://www.w3.org/2000/svg">
<ellipse cx="47.6122" cy="43.0797" rx="31.7626" ry="7.61873" fill="#96EECF"/>
<path d="M42.4634 8.20508C38.5846 8.20508 35.3067 10.7776 34.2426 14.3095C33.8419 15.6395 35.005 16.7896 36.3941 16.7896H48.5327C49.9218 16.7896 51.0849 15.6395 50.6842 14.3095C49.6201 10.7776 46.3422 8.20508 42.4634 8.20508Z" fill="#D1CB28"/>
<path d="M51.4042 17.3932C51.1825 17.3802 50.9543 17.3736 50.7261 17.3736H42.3799C41.4671 17.3736 40.5803 17.491 39.7392 17.7127C35.9182 18.7103 32.9449 21.8206 32.1559 25.7198L31.9987 26.8201C31.9645 27.0598 31.9511 27.302 31.9586 27.544L31.9995 28.8495C32.2207 31.0969 33.1578 33.1365 34.5813 34.7363C35.458 35.7215 36.1203 36.9284 36.1203 38.2472V40.3254C36.1203 41.4796 37.0528 42.412 38.2069 42.412H40.2934C41.4475 42.412 42.3799 41.4796 42.3799 40.3254C42.3799 39.1731 43.3141 38.2389 44.4665 38.2389H48.6395C49.7919 38.2389 50.7261 39.1731 50.7261 40.3254C50.7261 41.4796 51.6585 42.412 52.8126 42.412H54.8991C56.0532 42.412 56.9856 41.4796 56.9856 40.3254V37.6326C56.9856 36.7006 57.4432 35.8415 58.1023 35.1825C58.7613 34.5235 59.6204 34.0659 60.5524 34.0659H61.1587C62.3128 34.0659 63.2452 33.1334 63.2452 31.9793V25.7198C63.2452 24.5656 62.3128 23.6332 61.1587 23.6332C60.6319 23.6332 60.1617 23.3175 59.9106 22.8544C59.6918 22.4508 59.4468 22.0629 59.1784 21.6931C58.4473 20.6862 58.0337 19.4354 58.3359 18.2283L58.7461 16.5896C58.9117 15.9281 58.4114 15.2871 57.7295 15.2871H56.9856C55.3792 15.2871 53.912 15.8952 52.8034 16.8882C52.42 17.2315 51.9174 17.4299 51.4042 17.3932Z" fill="#FFB953"/>
<path d="M53.3729 18.0734C53.1512 18.0603 52.923 18.0538 52.6948 18.0538H44.3487C43.4358 18.0538 42.5491 18.1712 41.7079 18.3929C37.887 19.3905 34.9137 22.5007 34.1247 26.3999L33.9675 27.5003C33.9332 27.74 33.9198 27.9822 33.9274 28.2242L33.9682 29.5297C34.1895 31.7771 35.1266 33.8167 36.5501 35.4165C37.4268 36.4017 38.0891 37.6086 38.0891 38.9273V41.0056C38.0891 42.1597 39.0215 43.0922 40.1756 43.0922H42.2622C43.4163 43.0922 44.3487 42.1597 44.3487 41.0056C44.3487 39.8533 45.2829 38.9191 46.4352 38.9191H50.6083C51.7606 38.9191 52.6948 39.8533 52.6948 41.0056C52.6948 42.1597 53.6272 43.0922 54.7813 43.0922H56.8679C58.022 43.0922 58.9544 42.1597 58.9544 41.0056V38.3128C58.9544 37.3808 59.412 36.5217 60.071 35.8627C60.73 35.2036 61.5892 34.746 62.5212 34.746H63.1274C64.2816 34.746 65.214 33.8136 65.214 32.6595V26.3999C65.214 25.2458 64.2816 24.3134 63.1274 24.3134C62.6006 24.3134 62.1305 23.9977 61.8794 23.5346C61.6605 23.1309 61.4156 22.7431 61.1471 22.3733C60.416 21.3664 60.0025 20.1156 60.3046 18.9085L60.7149 17.2698C60.8805 16.6083 60.3802 15.9673 59.6982 15.9673H58.9544C57.3479 15.9673 55.8807 16.5754 54.7721 17.5683C54.3888 17.9116 53.8862 18.11 53.3729 18.0734Z" stroke="#454545" stroke-width="2.01212"/>
<circle cx="56.6289" cy="26.5185" r="1.00606" fill="#454545" stroke="#454545" stroke-width="0.491716"/>
<path d="M41.4297 15.3412C41.4297 12.2298 43.952 9.70752 47.0633 9.70752C50.1747 9.70752 52.697 12.2298 52.697 15.3412" stroke="#454545" stroke-width="2.01212" stroke-linecap="round"/>
<path d="M33.3184 28.3459C31.2829 28.8914 29.1907 27.6834 28.6453 25.6479C28.0998 23.6124 29.3078 21.5201 31.3433 20.9747" stroke="#454545" stroke-width="2.01212" stroke-linecap="round"/>
<path fill-rule="evenodd" clip-rule="evenodd" d="M8.97781 3.17294C8.98085 3.10977 8.93211 3.05609 8.86894 3.05305C8.80577 3.05 8.75209 3.09874 8.74905 3.16191C8.73819 3.3871 8.70109 3.62443 8.65216 3.86318C8.63627 3.89169 8.61981 3.92028 8.60288 3.94887C8.53862 4.05746 8.46977 4.16288 8.40442 4.26125L8.36451 4.32116C8.3144 4.3963 8.2671 4.46723 8.2286 4.5293C8.19526 4.58304 8.21181 4.65364 8.26555 4.68697C8.31929 4.72031 8.38989 4.70377 8.42322 4.65002C8.44362 4.61714 8.4666 4.58168 8.49165 4.54368C8.42184 4.82101 8.35536 5.08585 8.3218 5.30878C8.31239 5.37132 8.35546 5.42965 8.41799 5.43906C8.48053 5.44847 8.53886 5.40541 8.54828 5.34287C8.58027 5.13034 8.64357 4.87872 8.71322 4.60186L8.71323 4.60182L8.71324 4.6018C8.73491 4.51564 8.7572 4.42704 8.77936 4.33641C8.81071 4.20813 8.8416 4.07644 8.86943 3.94349C8.97424 3.75098 9.06312 3.54329 9.08615 3.34665C9.09351 3.28383 9.04855 3.22695 8.98573 3.21959C8.98222 3.21918 8.97873 3.21894 8.97527 3.21885C8.97622 3.20351 8.97707 3.18821 8.97781 3.17294ZM9.5427 3.35004C9.56048 3.28935 9.5257 3.22573 9.465 3.20795C9.40431 3.19017 9.3407 3.22495 9.32291 3.28565C9.17614 3.78663 9.06203 4.19787 8.96367 4.55233C8.76964 5.25157 8.63692 5.72989 8.4357 6.24039C8.4125 6.29923 8.4414 6.36572 8.50024 6.38892C8.55908 6.41211 8.62557 6.38321 8.64877 6.32437C8.85442 5.80263 8.9918 5.30767 9.18847 4.59912L9.18847 4.59909L9.18849 4.59904C9.28655 4.24574 9.39935 3.83934 9.5427 3.35004ZM9.91673 3.2546C9.931 3.19299 9.89262 3.13148 9.83101 3.11721C9.76939 3.10294 9.70788 3.14132 9.69361 3.20293C9.50134 4.03318 9.27896 4.67868 9.07196 5.25951L9.01814 5.41018L9.01814 5.41019C8.83208 5.93051 8.66062 6.40999 8.54315 6.93137C8.52925 6.99307 8.56799 7.05435 8.62969 7.06826C8.69139 7.08216 8.75267 7.04341 8.76657 6.98171C8.88082 6.47466 9.04757 6.00823 9.23445 5.48548L9.23446 5.48546L9.2877 5.33639C9.49553 4.75323 9.72145 4.09787 9.91673 3.2546ZM10.5433 3.3454C10.564 3.28565 10.5324 3.22041 10.4726 3.19968C10.4128 3.17896 10.3476 3.21059 10.3269 3.27035C10.1488 3.7838 9.94135 4.299 9.73669 4.80728L9.73665 4.80738C9.6372 5.05438 9.53841 5.29974 9.44396 5.54247C9.18088 6.2186 8.95219 6.87286 8.84996 7.46472C8.82594 7.53993 8.80179 7.63759 8.7879 7.77175C8.78139 7.83466 8.8271 7.89093 8.89001 7.89745C8.91559 7.90009 8.94007 7.89411 8.96056 7.88184C8.48763 8.94406 8.07145 9.93405 7.68077 10.8776C7.73425 10.8556 7.78846 10.835 7.84336 10.8158L8.23334 10.6797C8.90972 8.92882 9.58222 7.13097 10.2363 5.3333C10.1288 5.78485 10.0086 6.24813 9.8778 6.72163C9.48234 8.0588 9.03838 9.33419 8.54752 10.57L8.98243 10.4181C9.39482 9.16346 9.77754 7.9447 10.0979 6.78486C10.3066 6.07906 10.5019 5.35608 10.6835 4.61274C10.6933 4.57259 10.6807 4.53221 10.6536 4.50486C10.6549 4.45529 10.6238 4.40993 10.5765 4.39364C10.6398 4.21812 10.7028 4.04268 10.7656 3.86736C10.787 3.80783 10.756 3.74227 10.6965 3.72093C10.6369 3.69959 10.5714 3.73056 10.55 3.79009C10.0711 5.12643 9.57983 6.46984 9.08218 7.80081C9.05718 7.79841 9.03227 7.80438 9.01126 7.81726C9.01342 7.81024 9.01492 7.80291 9.01571 7.79533C9.01878 7.76571 9.02239 7.73828 9.02641 7.71278C9.04001 7.6967 9.04934 7.67668 9.05238 7.65427C9.05839 7.60992 9.06524 7.56511 9.07288 7.51985C9.08058 7.49677 9.08823 7.47612 9.0954 7.45709L9.10205 7.43968L9.10205 7.43967C9.12666 7.37572 9.15646 7.29824 9.13678 7.20471C9.25085 6.71694 9.43971 6.185 9.6574 5.62551C9.74978 5.38809 9.84745 5.1455 9.94635 4.89985C10.1522 4.38856 10.3634 3.86403 10.5433 3.3454ZM9.10943 10.3738L9.45444 10.2534C9.46681 10.219 9.47926 10.1843 9.49179 10.1495C9.50028 10.1259 9.50053 10.1013 9.49401 10.0789C9.76499 9.48615 10.0564 8.87974 10.3722 8.25902C10.1499 8.9273 9.94469 9.55099 9.75348 10.1365C9.73788 10.1141 9.71428 10.0972 9.68563 10.0905C9.62405 10.0761 9.56246 10.1143 9.54807 10.1759C9.54427 10.1922 9.54046 10.2084 9.53663 10.2247L9.63011 10.192L9.80918 10.705C10.1618 9.62054 10.5627 8.40268 11.033 7.0066C11.2302 6.64597 11.436 6.28066 11.651 5.91056C11.6828 5.85588 11.6642 5.78579 11.6095 5.75402C11.5549 5.72224 11.4848 5.74081 11.453 5.79549L11.4298 5.83554L11.5533 5.47331C11.5738 5.41346 11.5419 5.34837 11.482 5.32792C11.4222 5.30747 11.3571 5.3394 11.3366 5.39925C11.1563 5.92701 10.9851 6.43149 10.8223 6.91454C10.1649 8.11818 9.60268 9.27004 9.10943 10.3738ZM9.82362 10.7463L10.0086 11.2762C10.0291 11.2345 10.05 11.1928 10.071 11.151C10.0538 11.2038 10.0368 11.2562 10.0198 11.3084L10.1448 11.6664C10.5478 10.4144 11.0298 8.98795 11.6191 7.34656C11.6283 7.32096 11.6278 7.29424 11.6196 7.2704C11.666 7.16963 11.7126 7.06897 11.7592 6.96843C11.7858 6.91106 11.7609 6.84298 11.7035 6.81637C11.6461 6.78977 11.578 6.81471 11.5514 6.87209C10.9587 8.15026 10.3776 9.44824 9.82362 10.7463ZM10.1895 11.7945L10.3121 12.1456C10.4693 11.6874 10.6291 11.1994 10.7849 10.6807C10.803 10.6201 10.7687 10.5563 10.7081 10.5381C10.6475 10.5199 10.5837 10.5543 10.5655 10.6149C10.4416 11.0277 10.3151 11.4206 10.1895 11.7945ZM10.334 12.2082L10.5787 12.9093C10.7027 12.4803 10.8333 12.0029 10.9672 11.4692C10.9777 11.4276 10.9639 11.3856 10.9348 11.3581C11.0173 11.1627 11.1008 10.9668 11.1856 10.7703C10.9938 11.5305 10.7974 12.2542 10.5913 12.9454L10.7902 13.515C10.8114 13.468 10.8327 13.4212 10.854 13.3745C10.8576 13.4881 10.859 13.6001 10.8585 13.7107L11.066 14.305C11.0781 14.1243 11.0854 13.9402 11.0872 13.7521C11.1795 13.4556 11.2715 13.1609 11.3638 12.868C11.5538 12.2651 11.7451 11.6695 11.9421 11.0813C12.0437 10.8731 12.1434 10.6695 12.2408 10.4709L12.2408 10.4708C12.2722 10.4066 12.3034 10.3429 12.3344 10.2798L12.155 9.76611C12.0094 10.172 11.8682 10.5812 11.7299 10.9937C11.4888 11.4879 11.2368 12.0092 10.9813 12.5538C10.9726 12.5447 10.9624 12.5371 10.9509 12.5312C11.2153 11.6068 11.4647 10.6269 11.7103 9.58347C12.0785 8.77086 12.4722 7.9436 12.9015 7.09287C12.93 7.03641 12.9073 6.96754 12.8508 6.93905C12.7944 6.91056 12.7255 6.93324 12.697 6.9897C12.4391 7.50081 12.194 8.00355 11.9595 8.49977C12.088 7.92793 12.2166 7.33778 12.3469 6.72813C12.3601 6.66629 12.3207 6.60543 12.2589 6.59222C12.197 6.579 12.1362 6.61842 12.123 6.68027C11.9104 7.67492 11.7025 8.61632 11.4923 9.5098C11.0787 10.4237 10.6972 11.3191 10.334 12.2082ZM12.0828 9.3358L12.627 9.14583C12.9244 8.35592 13.2423 7.58001 13.5926 6.8181C13.6191 6.76064 13.5939 6.69264 13.5364 6.66622C13.479 6.6398 13.411 6.66497 13.3846 6.72243L13.3796 6.73315C13.3599 6.73925 13.3415 6.75077 13.327 6.76754C13.214 6.89789 13.1319 7.0716 13.0596 7.25995C13.0151 7.37584 12.9717 7.50495 12.9268 7.63829L12.9268 7.63834L12.9268 7.63844C12.8993 7.72 12.8714 7.80315 12.8423 7.88582C12.6859 8.33047 12.4839 8.80441 12.099 9.196C12.0614 9.2342 12.0561 9.29205 12.0828 9.3358ZM12.6643 9.13281L12.6897 9.12392C12.6809 9.12587 12.6724 9.12886 12.6643 9.13281ZM13.014 12.2267L13.118 12.5244C13.0201 12.711 12.9125 12.9112 12.7978 13.1245L12.7978 13.1245C12.5282 13.626 12.22 14.1994 11.9103 14.8352C11.9178 14.8369 11.9253 14.8394 11.9326 14.8428C11.9901 14.8691 12.0153 14.9371 11.9889 14.9946C11.8262 15.3494 11.6912 15.5908 11.5804 15.7785L11.3433 15.0996C11.3481 15.0392 11.3536 14.9793 11.3598 14.9201C11.3462 14.9564 11.3325 14.9928 11.3188 15.0293L11.161 14.5771C11.2266 14.4644 11.2963 14.3478 11.3708 14.226C11.9015 12.7546 12.2799 11.5083 12.481 10.6997L12.6168 11.0888C12.6026 11.1416 12.5879 11.1957 12.5726 11.2511C12.581 11.272 12.5833 11.2955 12.5779 11.3191C12.2997 12.5407 12.0553 13.576 11.8375 14.4647C12.1089 13.9204 12.3743 13.4268 12.6083 12.9917C12.7588 12.7118 12.8963 12.4561 13.014 12.2267ZM10.7478 16.4859L10.2518 16.659C10.2455 16.6805 10.2392 16.7021 10.233 16.7239C10.2155 16.7847 10.2506 16.8481 10.3114 16.8656C10.3213 16.8685 10.3313 16.8699 10.3412 16.8701C10.0408 17.588 9.71435 18.3258 9.36396 19.0663C9.64883 18.2637 9.91311 17.4712 10.1652 16.6893L9.92328 16.7737C9.91352 16.7771 9.90375 16.7805 9.89396 16.7838C9.61894 17.6326 9.32906 18.4932 9.01329 19.366C8.99985 19.4031 9.00681 19.4427 9.02842 19.4724C9.16437 19.4689 9.3003 19.4606 9.43592 19.4473C9.82566 18.6372 10.1872 17.8276 10.518 17.0407C10.5596 17.0316 10.5945 16.9996 10.6051 16.9555C10.628 16.8595 10.651 16.7633 10.6736 16.6668C10.6985 16.6064 10.7232 16.546 10.7478 16.4859ZM11.4067 18.9295L11.2702 18.9771C11.2694 18.9768 11.2685 18.9765 11.2677 18.9762C11.2088 18.9532 11.1795 18.8869 11.2025 18.8279C11.6215 17.7503 11.9667 16.6557 12.3478 15.4045C11.6723 16.67 11.3171 17.6534 11.0533 18.7743C11.0389 18.8359 10.9772 18.874 10.9156 18.8596C10.8541 18.8451 10.8159 18.7834 10.8304 18.7219C10.9985 18.0075 11.2033 17.3485 11.4997 16.6428C11.4411 16.6458 11.3889 16.6036 11.3806 16.5445C11.3717 16.4815 11.3638 16.4187 11.357 16.3561C11.0858 17.3804 10.8622 18.1427 10.6617 18.78C10.6427 18.8403 10.5784 18.8738 10.5181 18.8549C10.4846 18.8443 10.4593 18.8198 10.4468 18.7897C10.4141 18.9275 10.3832 19.0666 10.3542 19.207C10.3415 19.2689 10.2809 19.3088 10.219 19.296C10.157 19.2832 10.1172 19.2226 10.1299 19.1607C10.3317 18.1824 10.6288 17.2598 10.9634 16.4106L11.5718 16.1982C11.5781 16.2722 11.5859 16.3465 11.5952 16.421C11.8658 15.8074 12.2077 15.1518 12.6554 14.3901C12.7121 14.203 12.7701 14.0122 12.8296 13.8172C12.9396 13.4572 13.0547 13.0833 13.1769 12.6933L13.3036 13.0561C13.2468 13.239 13.1915 13.4182 13.1375 13.5941C13.2109 13.476 13.2867 13.3552 13.3649 13.2318L13.4614 13.5081C13.2442 13.8534 13.0468 14.1769 12.8667 14.4827L12.7709 14.7989C12.3048 16.3376 11.9115 17.6364 11.4159 18.9109C11.4134 18.9175 11.4103 18.9237 11.4067 18.9295ZM12.2693 18.6283L11.9461 18.7412C12.831 17.1872 13.3166 15.0919 13.4615 13.8866C13.4678 13.8341 13.5087 13.7942 13.5587 13.7869L13.6657 14.0934C13.503 15.2744 13.0551 17.1442 12.2693 18.6283ZM7.86638 19.3825C7.77316 19.3655 7.6803 19.3462 7.58788 19.3246C7.68611 19.0709 7.78299 18.8191 7.8788 18.5689C8.02781 18.0677 8.18019 17.5207 8.35158 16.9049C8.48028 16.9269 8.61014 16.9409 8.74038 16.9468C8.52902 17.5053 8.3152 18.0698 8.09561 18.6432C8.066 18.7427 8.03653 18.8404 8.00706 18.9365C8.40841 18.3037 8.76979 17.6414 9.1005 16.9426C9.23134 16.9335 9.36185 16.9163 9.49128 16.8909C9.46832 17.0126 9.44921 17.1388 9.43443 17.2708C9.42739 17.3336 9.37073 17.3789 9.30788 17.3718C9.28228 17.369 9.2596 17.3579 9.24218 17.3415C9.00063 18.0354 8.77765 18.7452 8.58253 19.4663C8.50489 19.4622 8.42735 19.4565 8.34993 19.4492C8.46453 19.023 8.58886 18.6007 8.72101 18.1832C8.54963 18.4912 8.37051 18.7923 8.1827 19.0872C8.14872 19.1405 8.07794 19.1562 8.02459 19.1222C7.99646 19.1043 7.9788 19.0761 7.97337 19.0457C7.93782 19.1601 7.90223 19.2723 7.86638 19.3825ZM7.83099 16.7694C7.72714 16.7326 7.62484 16.6903 7.52452 16.6425C7.34081 17.1722 7.16623 17.6965 7.00196 18.214C6.9891 18.2545 6.99995 18.2969 7.02676 18.3261C6.96525 18.4893 6.90266 18.653 6.83871 18.8178C6.81583 18.8767 6.84508 18.9431 6.90404 18.9659C6.963 18.9888 7.02934 18.9596 7.05222 18.9006C7.32937 18.1865 7.58128 17.4923 7.83099 16.7694ZM7.04289 16.3577C6.96324 16.3005 6.88646 16.2397 6.81275 16.1756C6.62505 16.7503 6.44084 17.3256 6.26286 17.8998L6.21712 18.0293C6.21236 18.0427 6.21026 18.0565 6.21056 18.07C6.19702 18.128 6.23055 18.1875 6.2884 18.2053C6.34884 18.2239 6.41293 18.19 6.43155 18.1296L6.48031 17.9718C6.6145 17.591 6.74909 17.2035 6.88616 16.8087L6.88626 16.8085C6.93808 16.6592 6.99025 16.509 7.04289 16.3577ZM6.39553 15.7355C6.21532 15.5046 6.06688 15.248 5.95599 14.9723C5.65295 15.6494 5.33616 16.3223 4.99048 17.0033C4.96185 17.0597 4.98437 17.1286 5.04076 17.1573C5.09716 17.1859 5.16608 17.1634 5.19471 17.107C5.3921 16.7181 5.58032 16.3313 5.76209 15.9446C5.72893 16.1083 5.69757 16.2727 5.66823 16.4376C5.57428 16.6603 5.48058 16.8809 5.3872 17.0993C5.34855 17.1678 5.30976 17.2363 5.27081 17.3048C5.23955 17.3597 5.25878 17.4297 5.31376 17.4609C5.36873 17.4922 5.43864 17.473 5.46991 17.418L5.5531 17.2713C5.5637 17.261 5.57248 17.2485 5.57865 17.2341L5.59284 17.2009L5.636 17.1243C5.64713 17.1301 5.65941 17.1342 5.67255 17.1361C5.73512 17.1453 5.79329 17.102 5.80246 17.0394C5.81691 16.9408 5.8322 16.8424 5.84825 16.7441C6.03433 16.4083 6.21677 16.0723 6.39553 15.7355ZM6.94498 11.3051C6.56527 11.6007 6.25456 11.9821 6.04151 12.4237C5.8349 12.8519 5.72975 13.3168 5.72807 13.7834C5.70358 13.8292 5.67912 13.8748 5.65468 13.9202L5.57085 14.1161L5.57085 14.1161C5.26496 14.8303 4.98711 15.4791 4.72695 16.2704C4.7072 16.3305 4.64248 16.3631 4.5824 16.3434C4.52232 16.3236 4.48963 16.2589 4.50938 16.1988C4.56198 16.0389 4.61537 15.8844 4.66958 15.7341C4.54972 15.9588 4.43135 16.1845 4.31484 16.4133C4.28614 16.4697 4.21718 16.4921 4.16083 16.4634C4.10447 16.4347 4.08205 16.3658 4.11075 16.3094C4.40126 15.7389 4.70132 15.1903 5.00608 14.633L5.00611 14.633C5.1527 14.3649 5.30038 14.0949 5.4486 13.8195C5.53712 13.6124 5.6276 13.3993 5.72014 13.1758C6.16931 12.0909 6.67309 10.7465 7.25067 8.61487C7.26721 8.55382 7.3301 8.51775 7.39114 8.53429C7.45219 8.55083 7.48826 8.61372 7.47172 8.67476C7.1613 9.82042 6.87186 10.7405 6.60051 11.5159C6.9911 10.6527 7.37575 9.69025 7.74443 8.56566C7.75442 8.53519 7.77597 8.51175 7.80263 8.49861C7.82431 8.39211 7.84456 8.28647 7.86325 8.18172C7.87436 8.11945 7.93384 8.07799 7.9961 8.08909C8.05836 8.1002 8.09983 8.15968 8.08872 8.22194C7.93164 9.10241 7.66611 10.0432 7.36732 11.0275C7.26526 11.0834 7.1666 11.1448 7.07176 11.2113C7.14798 10.9626 7.22234 10.7171 7.2937 10.475C7.17828 10.7623 7.06194 11.0384 6.94498 11.3051ZM12.5678 25.2082L12.8499 25.1097C12.717 25.4614 12.5919 25.7933 12.4746 26.1108L12.5914 25.9223C12.6956 25.7543 12.8049 25.5781 12.9184 25.3928C12.9514 25.3389 13.0219 25.322 13.0759 25.355C13.1298 25.388 13.1467 25.4585 13.1137 25.5125C12.9982 25.701 12.8878 25.879 12.7831 26.0479C12.5457 26.4306 12.3377 26.7661 12.1662 27.0694C12.1341 27.1263 12.1033 27.1819 12.074 27.2362C11.9139 27.7104 11.7747 28.1637 11.6564 28.6197C11.6406 28.6809 11.5781 28.7176 11.5169 28.7018C11.4556 28.6859 11.4189 28.6234 11.4347 28.5622C11.4612 28.4602 11.4887 28.3583 11.5172 28.2563C11.4802 28.2314 11.4597 28.186 11.4688 28.1394C11.5284 27.8339 11.6679 27.5086 11.8634 27.1443C12.0661 26.5454 12.3013 25.9146 12.5678 25.2082ZM13.8739 22.3483L13.7536 22.0038C14.103 21.0197 14.4839 19.8993 14.8958 18.5968C14.5967 19.4441 14.3304 20.156 14.1 20.7105C14.0758 20.7689 14.0088 20.7966 13.9503 20.7723C13.8919 20.748 13.8643 20.681 13.8885 20.6226C14.1828 19.9143 14.537 18.9446 14.9452 17.7585L15.3036 18.7851C14.9607 19.8302 14.5393 20.9806 13.9445 22.1506C13.9208 22.2171 13.8973 22.283 13.8739 22.3483ZM13.6389 24.8342C13.6251 24.872 13.6113 24.9098 13.5975 24.9476C13.5503 24.9531 13.5097 24.9877 13.4988 25.0366C13.4608 25.2078 13.4224 25.3699 13.3838 25.5232C13.1219 26.2205 12.8504 26.9124 12.5699 27.5906C12.5631 27.607 12.5605 27.6242 12.5614 27.6408L12.5507 27.6526C12.5074 27.6987 12.5097 27.7711 12.5558 27.8144C12.6019 27.8577 12.6744 27.8554 12.7177 27.8094C12.8439 27.6749 13.0049 27.394 13.1776 26.9552C13.3137 26.6094 13.4596 26.1589 13.6028 25.5916C13.7095 25.3073 13.8146 25.0222 13.9181 24.7368L13.6389 24.8342ZM14.3161 23.615L14.1943 23.2662C14.6632 21.9029 15.0925 20.5537 15.4768 19.2813L15.6049 19.6481C15.5939 19.684 15.583 19.7199 15.572 19.7558C15.5878 19.7335 15.6036 19.7114 15.6193 19.6895L15.712 19.9549C15.6977 19.9754 15.6835 19.9961 15.6693 20.0169C15.6337 20.0692 15.5624 20.0827 15.5102 20.047C15.502 20.0414 15.4947 20.035 15.4885 20.0279C15.2891 20.6747 15.0787 21.3379 14.8581 22.0098C15.1921 21.4288 15.4884 20.7864 15.7661 20.1099L16.0001 20.7804C15.3391 23.1724 14.5549 25.3744 13.3771 27.4858C13.3463 27.541 13.2766 27.5608 13.2213 27.53C13.1661 27.4992 13.1463 27.4294 13.1771 27.3742C13.6952 26.4453 14.1366 25.4987 14.5247 24.525L14.6219 24.4911L14.5826 24.3785C15.0604 23.1601 15.4572 21.8986 15.8188 20.5757C15.4765 21.3711 15.0996 22.1169 14.6563 22.7626C14.6404 22.7858 14.6175 22.8013 14.5923 22.8082C14.5018 23.0764 14.4097 23.3455 14.3161 23.615ZM16.1294 21.1505C15.1222 23.7088 14.3825 25.7037 13.6716 27.7075C13.6504 27.7671 13.6816 27.8326 13.7412 27.8537C13.8008 27.8749 13.8663 27.8437 13.8874 27.7841C13.9553 27.5927 14.0235 27.4013 14.0922 27.2096C14.1038 27.2357 14.1252 27.2575 14.1539 27.2691C14.2125 27.2928 14.2792 27.2645 14.3029 27.2058C14.6838 26.2634 15.0446 25.2307 15.511 23.8959C15.6275 23.5626 15.7505 23.2104 15.8821 22.8361C15.9521 22.637 16.0246 22.4315 16.0997 22.2192C16.083 22.2718 16.1062 22.3302 16.1569 22.356C16.2133 22.3847 16.2822 22.3623 16.3109 22.306C16.3543 22.2207 16.3985 22.1353 16.4432 22.0495L16.3398 21.7533C16.2609 21.9032 16.1829 22.0526 16.1068 22.202C16.1051 22.2055 16.1035 22.209 16.1021 22.2126C16.167 22.0295 16.2338 21.8413 16.3029 21.6477L16.1294 21.1505ZM16.535 22.3125C15.8302 24.0494 15.046 25.9012 14.177 27.7629C14.1502 27.8202 14.175 27.8884 14.2323 27.9151C14.2896 27.9419 14.3578 27.9171 14.3845 27.8598C15.2155 26.0795 15.9689 24.3088 16.6492 22.6397L16.535 22.3125ZM16.7247 22.8558C16.1489 24.2416 15.5367 25.644 14.8821 26.9175C14.8531 26.9738 14.8753 27.0428 14.9316 27.0717C14.9878 27.1006 15.0568 27.0785 15.0858 27.0222C15.3884 26.4335 15.6819 25.8176 15.9668 25.189C15.7291 25.8577 15.4861 26.5137 15.2348 27.1491C15.2116 27.2079 15.2404 27.2745 15.2992 27.2977C15.358 27.321 15.4245 27.2922 15.4478 27.2334C15.9469 25.9714 16.4134 24.6283 16.869 23.2694L16.7247 22.8558ZM17.1149 23.6208C16.6846 24.7276 16.2219 25.8189 15.7432 26.8376C15.7163 26.8948 15.7409 26.963 15.7981 26.9899C15.8554 27.0168 15.9236 26.9922 15.9505 26.935C16.4574 25.8563 16.9466 24.6962 17.3988 23.5217L17.1149 23.6208ZM17.4894 23.49C17.4387 23.7167 17.3914 23.9479 17.3483 24.1837C17.3438 24.2084 17.3476 24.2327 17.3577 24.2537C17.0046 25.0911 16.6241 25.9394 16.2088 26.7883C16.181 26.8451 16.2045 26.9137 16.2613 26.9415C16.3182 26.9693 16.3867 26.9457 16.4145 26.8889C17.0031 25.6858 17.5219 24.4844 17.9915 23.3147L17.4894 23.49ZM18.024 23.3034C18.0064 23.3784 17.9896 23.4525 17.9737 23.5257C17.6026 24.6591 17.2599 25.7951 16.914 26.9516C16.7788 27.2899 16.6397 27.6305 16.4953 27.9749C16.4708 28.0333 16.4983 28.1004 16.5566 28.1248L16.5625 28.1271L16.4995 28.3372C16.4813 28.3977 16.5156 28.4616 16.5762 28.4798C16.6368 28.498 16.7006 28.4637 16.7188 28.4031C16.8176 28.0744 16.9151 27.748 17.012 27.4236L17.1306 27.0268C17.558 25.9573 17.9472 24.9115 18.3427 23.8488L18.3428 23.8485C18.436 23.5981 18.5296 23.3468 18.624 23.0939L18.3429 23.1921C18.2929 23.3262 18.2431 23.46 18.1934 23.5933L18.1949 23.5863C18.2372 23.4572 18.2799 23.3281 18.323 23.199L18.024 23.3034ZM18.8648 23.0089C18.8599 23.0255 18.8549 23.042 18.8499 23.0585C18.8315 23.119 18.8656 23.183 18.9262 23.2014C18.9867 23.2197 19.0506 23.1856 19.069 23.1251C19.0925 23.0477 19.115 22.9699 19.1367 22.8917C19.0483 22.9348 18.9576 22.974 18.8648 23.0089ZM19.3281 22.79C18.9723 23.9309 18.575 25.1181 18.1399 26.3211L18.1335 26.3184C18.0746 26.2953 18.0082 26.3242 17.9851 26.3831C17.8025 26.8478 17.6752 27.2599 17.5629 27.6234L17.5629 27.6234L17.518 27.7682C17.3936 28.1684 17.2828 28.5017 17.1255 28.7903C17.1006 28.836 17.11 28.8911 17.1451 28.9261L17.0791 29.0893C17.0553 29.1479 17.0835 29.2146 17.1421 29.2384C17.2007 29.2622 17.2675 29.234 17.2913 29.1754C17.6594 28.2684 18.0079 27.3572 18.3351 26.4546C18.3903 26.4719 18.4508 26.445 18.4743 26.3907C18.8379 25.5497 19.1939 24.7063 19.532 23.8777C18.9845 25.5779 18.4655 27.2972 18.0183 28.9471C17.9169 29.1052 17.7997 29.2634 17.6653 29.4218C17.6244 29.47 17.6303 29.5423 17.6786 29.5832C17.7268 29.6241 17.7991 29.6182 17.84 29.57L17.8575 29.5492L17.8143 29.7142C17.7983 29.7754 17.835 29.838 17.8962 29.8539C17.9574 29.8699 18.0199 29.8332 18.0359 29.772C18.099 29.5299 18.1638 29.286 18.2303 29.0405C18.4858 28.6341 18.6457 28.2241 18.7278 27.8077C18.7401 27.7457 18.6997 27.6855 18.6377 27.6732C18.6292 27.6716 18.6207 27.6709 18.6124 27.6711C19.2002 25.6239 19.8777 23.508 20.5667 21.4841C20.3471 21.9167 20.0328 22.289 19.6516 22.5762C19.6431 22.5853 19.6345 22.5944 19.6258 22.6033C19.6269 22.5999 19.6279 22.5965 19.629 22.5931C19.5327 22.6642 19.4323 22.73 19.3281 22.79ZM20.8507 20.6568C21.3333 19.2624 21.8163 17.9236 22.2729 16.6953C22.295 16.6361 22.2648 16.5701 22.2055 16.5481C22.1462 16.5261 22.0803 16.5562 22.0582 16.6155C21.9859 16.8102 21.9128 17.0076 21.8392 17.2077C21.8757 17.052 21.9087 16.9012 21.938 16.7557C21.9505 16.6936 21.9103 16.6333 21.8483 16.6208C21.7863 16.6083 21.7259 16.6485 21.7135 16.7105C21.5469 17.5392 21.2576 18.541 20.8826 19.6527C20.9257 19.9873 20.9148 20.3263 20.8507 20.6568ZM20.6769 18.8697C20.8439 18.2089 20.9902 17.5861 21.1145 17.0106C21.16 16.9119 21.206 16.8127 21.2525 16.7128C21.2775 16.6593 21.2575 16.5964 21.2081 16.5665C21.2373 16.4243 21.2649 16.2855 21.2911 16.1501L21.3135 16.108C21.3432 16.0521 21.322 15.9828 21.2662 15.9531C21.2104 15.9234 21.141 15.9446 21.1113 16.0004L21.1033 16.0154C21.0882 16.0308 21.0773 16.0505 21.0727 16.0731C20.8234 16.544 20.5888 17.0093 20.3669 17.4702C20.3783 17.4174 20.351 17.3624 20.2994 17.3406C20.2758 17.3307 20.2508 17.3292 20.2277 17.3349C20.4535 16.7381 20.6752 16.1756 20.898 15.6543C20.9228 15.5961 20.8958 15.5288 20.8377 15.504C20.7795 15.4791 20.7122 15.5061 20.6874 15.5643C20.409 16.2156 20.1323 16.9313 19.8477 17.6961C20.0104 17.8405 20.1577 18.0014 20.2873 18.176C20.4823 17.7534 20.6877 17.3273 20.9048 16.8969L20.896 16.9377C20.6939 17.3769 20.5028 17.8045 20.3208 18.2221C20.3739 18.2965 20.4239 18.3733 20.4705 18.4523C20.5257 18.325 20.5816 18.1967 20.6385 18.0675C20.6011 18.2237 20.5624 18.3825 20.5225 18.5437C20.5799 18.6489 20.6315 18.7577 20.6769 18.8697ZM19.5455 17.4591C19.5581 17.3892 19.5693 17.32 19.5793 17.2513C19.5883 17.1887 19.5449 17.1306 19.4823 17.1216C19.4699 17.1198 19.4577 17.1201 19.4461 17.1221C19.4625 17.055 19.4786 16.9884 19.4944 16.9224C19.7374 16.4407 19.9723 16.0305 20.1999 15.7117C20.2367 15.6602 20.2248 15.5887 20.1733 15.5519C20.1218 15.5152 20.0503 15.5271 20.0135 15.5786C19.9031 15.7332 19.7913 15.9082 19.678 16.1015C19.7582 15.7152 19.8234 15.3545 19.872 15.0247C19.8758 14.9993 19.8708 14.9746 19.8595 14.9536C19.8813 14.9049 19.9032 14.8564 19.9252 14.8082C19.8147 14.7625 19.7031 14.7203 19.5905 14.6818C19.3003 15.3377 18.9786 16.1289 18.6245 17.0234C18.7398 17.0565 18.8535 17.0963 18.9652 17.1427C19.1446 16.6665 19.3273 16.2018 19.5145 15.7522C19.4484 16.0941 19.369 16.4594 19.2777 16.8437C19.2193 16.9598 19.1606 17.0797 19.1014 17.2032C19.109 17.2068 19.1166 17.2105 19.1242 17.2141C19.2717 17.2853 19.4124 17.3673 19.5455 17.4591ZM18.0778 16.9174C18.384 16.1684 18.7105 15.3745 19.0604 14.5289C18.9848 14.511 18.9089 14.4947 18.8328 14.48C18.7664 14.6405 18.7008 14.7991 18.6361 14.9559C18.5946 14.9599 18.5567 14.9866 18.5405 15.0282C18.282 15.6881 18.0407 16.3114 17.815 16.9013C17.9028 16.903 17.9905 16.9084 18.0778 16.9174ZM17.1888 16.9515C17.4183 16.3315 17.6546 15.7218 17.911 15.14C17.9365 15.0821 17.9103 15.0145 17.8524 14.989C17.7945 14.9635 17.7269 14.9898 17.7014 15.0476C17.4407 15.6392 17.2001 16.261 16.9669 16.8913C17.0611 16.4848 17.1556 16.0725 17.2516 15.6541L17.2517 15.6535C17.3372 15.2809 17.4238 14.9033 17.5122 14.5205C17.5258 14.4617 17.4914 14.4029 17.4346 14.3854C17.4075 14.3869 17.3803 14.3886 17.3532 14.3905C17.3219 14.4048 17.2974 14.4329 17.2891 14.469C17.2011 14.8498 17.115 15.2253 17.03 15.5956C16.9139 16.1018 16.8 16.5985 16.6864 17.0863L16.7132 17.077C16.8692 17.0225 17.0282 16.9807 17.1888 16.9515ZM16.3209 17.2139C16.5489 16.4117 16.7538 15.6636 16.9339 14.9902C16.9503 14.9291 16.914 14.8664 16.8529 14.85C16.7918 14.8337 16.729 14.8699 16.7127 14.931C16.5212 15.6469 16.3017 16.4468 16.0565 17.3062L16.3209 17.2139ZM15.7364 17.418C16.0405 16.4457 16.3036 15.6402 16.6353 15.0793C16.6675 15.0249 16.6495 14.9547 16.595 14.9225C16.5406 14.8903 16.4704 14.9083 16.4382 14.9627C16.1289 15.4856 15.8789 16.2072 15.6124 17.0483C15.8217 16.3511 16.0381 15.608 16.2614 14.8139C16.2786 14.753 16.2431 14.6897 16.1822 14.6726C16.1213 14.6555 16.0581 14.691 16.041 14.7519C15.999 14.901 15.9573 15.0484 15.9158 15.194C15.8582 15.1798 15.7985 15.2122 15.7797 15.2695C15.4908 16.1481 15.2206 16.9568 14.9703 17.6854L15.7364 17.418ZM15.0594 14.9807L15.3675 14.8731C14.4874 16.6372 14.2654 17.7005 14.0707 18.6333C13.9884 19.0278 13.9109 19.3988 13.7906 19.7897C13.772 19.8501 13.7079 19.8841 13.6475 19.8655C13.587 19.8469 13.5531 19.7828 13.5717 19.7223C13.6842 19.3567 13.7592 18.9985 13.84 18.6118C14.029 17.7085 14.2504 16.6502 15.0594 14.9807ZM14.0083 15.0748L14.0932 15.318L14.138 15.3024C14.0275 15.7006 13.8769 16.0958 13.7269 16.4893L13.7269 16.4893C13.6582 16.6695 13.5896 16.8494 13.5251 17.029C13.3066 17.6374 13.129 18.256 13.1196 18.9249C13.1187 18.9881 13.0668 19.0386 13.0035 19.0378C12.9403 19.0369 12.8897 18.9849 12.8906 18.9217C12.9005 18.2147 13.0883 17.5677 13.3096 16.9516C13.3775 16.7625 13.448 16.5774 13.5178 16.3945L13.5178 16.3944C13.6774 15.9758 13.8326 15.5687 13.9414 15.1516C13.9508 15.1156 13.9764 15.088 14.0083 15.0748ZM14.8765 8.3605C15.0976 7.74861 15.3368 7.10379 15.5972 6.42222C15.6198 6.36314 15.5902 6.29695 15.5311 6.27438C15.4721 6.2518 15.4059 6.2814 15.3833 6.34047L15.3345 6.46837C15.2856 6.46979 15.2412 6.50274 15.2275 6.5524C15.1367 6.88126 15.038 7.11626 14.9383 7.33207C14.915 7.38258 14.8913 7.43255 14.8675 7.48277L14.8675 7.48278C14.7903 7.64595 14.7118 7.81171 14.639 8.00688C14.617 8.06614 14.6471 8.13209 14.7063 8.15419L14.7075 8.15461C14.6705 8.25654 14.6341 8.35757 14.5981 8.45771L14.8765 8.3605ZM15.3792 19.0018L15.31 18.8034C15.3048 18.813 15.2995 18.8225 15.2941 18.8321C15.2631 18.8873 15.2827 18.9571 15.3378 18.988C15.351 18.9955 15.3651 19 15.3792 19.0018ZM10.6503 9.41749C10.5152 9.7234 10.3814 10.0297 10.249 10.3361C10.306 10.2366 10.3648 10.1364 10.4257 10.0356C10.4324 10.0245 10.4408 10.0148 10.4503 10.0069C10.5152 9.8141 10.5818 9.61765 10.6503 9.41749ZM11.0672 13.048C11.0646 13.0088 11.0617 12.9694 11.0586 12.9299C11.1055 12.8288 11.1524 12.7285 11.1991 12.6289L11.1454 12.7992L11.0672 13.048ZM10.5831 18.258C10.6366 18.0641 10.6933 17.8728 10.7528 17.6844C10.694 17.8876 10.6376 18.078 10.5831 18.258ZM6.93842 8.72883C6.96518 8.67153 6.94043 8.60338 6.88312 8.57662C6.82582 8.54986 6.75767 8.57462 6.73091 8.63192C6.06779 10.0518 5.58187 11.26 5.1436 12.3497L5.14359 12.3497L5.0473 12.589C4.58318 13.7416 4.16376 14.7635 3.62675 15.7778C3.59716 15.8337 3.61848 15.903 3.67437 15.9326C3.73026 15.9622 3.79956 15.9409 3.82916 15.885C4.37244 14.8589 4.79585 13.8267 5.25975 12.6746L5.35583 12.4358L5.35583 12.4358C5.7942 11.3458 6.27802 10.1429 6.93842 8.72883ZM13.8388 8.38054C13.8237 8.37905 13.8095 8.37467 13.7968 8.36801C13.7918 8.45118 13.7898 8.53508 13.7905 8.62011C13.7911 8.68335 13.7403 8.73508 13.677 8.73566C13.6138 8.73623 13.5621 8.68542 13.5615 8.62218C13.5554 7.95159 13.7154 7.34924 14.0816 6.66155L14.0813 6.65427C14.0786 6.59108 14.1276 6.53765 14.1908 6.53492C14.2463 6.53252 14.2943 6.57003 14.307 6.62199C14.3212 6.64992 14.3237 6.68326 14.3123 6.71395C14.319 7.09431 14.2435 7.38279 14.1605 7.62636C14.139 7.68936 14.1169 7.74949 14.096 7.8065L14.0951 7.80902C14.0738 7.86722 14.0538 7.92189 14.0358 7.9754C13.9998 8.08237 13.9737 8.1798 13.964 8.27783C13.9578 8.34076 13.9017 8.38675 13.8388 8.38054ZM5.38709 9.83736C5.41754 9.78193 5.39729 9.71231 5.34185 9.68186C5.28642 9.65141 5.2168 9.67167 5.18636 9.7271C4.7487 10.5239 4.5778 11.1667 4.44647 11.7422C4.43085 11.8107 4.41583 11.8779 4.40102 11.9442C4.29107 12.4365 4.19323 12.8745 3.95431 13.3378C3.92532 13.394 3.94739 13.463 4.00359 13.492C4.0598 13.521 4.12887 13.499 4.15786 13.4427C4.41118 12.9516 4.51544 12.4839 4.62478 11.9933C4.63956 11.9271 4.65442 11.8604 4.66976 11.7932C4.79891 11.2272 4.96401 10.6076 5.38709 9.83736ZM16.148 6.46004C16.1627 6.39853 16.1248 6.33673 16.0633 6.322C16.0018 6.30727 15.94 6.34519 15.9252 6.4067C15.7899 6.97192 15.7261 7.2038 15.6472 7.42209C15.6257 7.48157 15.6565 7.54721 15.716 7.56871C15.7755 7.59021 15.8411 7.55942 15.8626 7.49994C15.9464 7.26828 16.0126 7.0251 16.148 6.46004ZM17.0371 6.39437C17.0608 6.33572 17.0324 6.26899 16.9738 6.24531C16.9151 6.22164 16.8484 6.24999 16.8247 6.30864C16.7161 6.57778 16.6516 6.7429 16.6507 6.89983C16.6503 6.96308 16.7013 7.01463 16.7646 7.01498C16.8278 7.01534 16.8794 6.96436 16.8797 6.90111C16.8803 6.79773 16.9224 6.67846 17.0371 6.39437ZM19.6821 22.8653L19.6984 22.8509C19.4649 23.4397 19.2199 24.0402 18.9671 24.6459C19.1691 24.0459 19.3609 23.4537 19.542 22.8733C19.5841 22.9023 19.6419 22.9003 19.6821 22.8653ZM18.6304 30.4204C19.2511 27.8768 19.791 26.0337 20.8682 22.6572C20.566 23.4314 20.3067 24.0805 20.0699 24.6733L20.0699 24.6734C19.9558 24.959 19.8469 25.2316 19.7409 25.4988C19.7176 25.5576 19.6511 25.5864 19.5923 25.5631C19.5335 25.5398 19.5047 25.4732 19.528 25.4144C19.6341 25.147 19.743 24.8742 19.8572 24.5885C20.4377 23.1353 21.1526 21.3455 22.3035 18.2054L22.4102 17.8757L22.5736 17.3711C22.5931 17.3109 22.6576 17.2779 22.7178 17.2974C22.7765 17.3164 22.8093 17.3782 22.7929 17.437C22.8048 17.4634 22.8068 17.4942 22.7962 17.5235C22.7014 17.7841 22.6094 18.0362 22.52 18.2801C20.3938 24.8472 19.6991 27.0069 18.8529 30.4747C18.8379 30.5361 18.7759 30.5738 18.7145 30.5588C18.653 30.5438 18.6154 30.4818 18.6304 30.4204ZM23.1296 18.1733C23.1521 18.1142 23.1224 18.0481 23.0633 18.0256C23.0042 18.0031 22.938 18.0327 22.9155 18.0919C22.4884 19.2141 22.1137 20.4432 21.7527 21.6432L21.6852 21.8677L21.6851 21.8678C21.3476 22.9905 21.0202 24.0797 20.6694 25.0305C20.6475 25.0899 20.6779 25.1557 20.7372 25.1776C20.7966 25.1995 20.8624 25.1691 20.8843 25.1098C21.2377 24.152 21.567 23.0563 21.9038 21.9358L21.972 21.7092C22.3332 20.5084 22.7057 19.2868 23.1296 18.1733ZM23.4523 18.467C23.4683 18.4058 23.4316 18.3433 23.3704 18.3273C23.3092 18.3113 23.2467 18.348 23.2307 18.4092C22.6514 20.6311 22.1389 22.0758 21.2308 24.2213C21.2062 24.2795 21.2334 24.3467 21.2916 24.3714C21.3499 24.396 21.4171 24.3688 21.4417 24.3106C21.5084 24.1531 21.5729 23.9994 21.6355 23.8488C21.5965 24.0168 21.56 24.198 21.5261 24.3976C21.5156 24.46 21.5575 24.5191 21.6199 24.5297C21.6822 24.5402 21.7414 24.4983 21.7519 24.4359C21.902 23.551 22.1011 23.0497 22.3588 22.4011L22.3589 22.4009C22.4297 22.2226 22.505 22.0332 22.5848 21.8216C22.6071 21.7625 22.5773 21.6964 22.5181 21.6741C22.5067 21.6698 22.4951 21.6674 22.4835 21.6668C22.8367 20.6721 23.1346 19.6853 23.4523 18.467ZM11.6696 25.7071C11.6811 25.6449 11.6401 25.5852 11.5779 25.5736C11.5157 25.5621 11.4559 25.6032 11.4444 25.6653C11.2773 26.5659 11.047 27.2265 10.4807 28.5173C10.4553 28.5753 10.4817 28.6428 10.5396 28.6682C10.5975 28.6936 10.6651 28.6673 10.6905 28.6094C11.2598 27.3117 11.4979 26.6327 11.6696 25.7071ZM9.86589 26.5124C9.88603 26.4525 9.85376 26.3875 9.79381 26.3674C9.73386 26.3473 9.66893 26.3795 9.64879 26.4395C9.54769 26.7404 9.38817 27.1025 9.21236 27.4934L9.15285 27.6255C8.99512 27.9755 8.82945 28.3431 8.68898 28.6993C8.66578 28.7581 8.69467 28.8246 8.7535 28.8478C8.81234 28.871 8.87884 28.8421 8.90204 28.7833C9.04036 28.4325 9.20364 28.0702 9.36166 27.7196L9.42123 27.5873C9.59621 27.1983 9.76058 26.8259 9.86589 26.5124ZM11.0435 26.3486C11.0819 26.2983 11.0724 26.2265 11.0221 26.188C10.9719 26.1496 10.9 26.1592 10.8616 26.2094C10.5647 26.5975 10.1942 27.3446 9.6976 28.3485C9.66956 28.4052 9.69278 28.4739 9.74946 28.5019C9.80615 28.53 9.87484 28.5068 9.90288 28.4501C10.4054 27.4344 10.7638 26.7142 11.0435 26.3486ZM18.7892 29.5473C18.8047 29.486 18.7676 29.4237 18.7063 29.4082C18.645 29.3927 18.5827 29.4298 18.5672 29.4911C18.5426 29.5881 18.5059 29.6778 18.4674 29.7717C18.4499 29.8145 18.4319 29.8583 18.4146 29.904C18.3643 30.0372 18.3171 30.194 18.3639 30.3454C18.3825 30.4058 18.4466 30.4396 18.5071 30.421C18.5675 30.4023 18.6013 30.3382 18.5827 30.2778C18.5611 30.208 18.5786 30.1181 18.6289 29.985C18.6416 29.9513 18.6567 29.9144 18.6727 29.8754C18.7137 29.7752 18.7605 29.6606 18.7892 29.5473Z" fill="#454545"/>
<path fill-rule="evenodd" clip-rule="evenodd" d="M86.8918 13.3094C86.9371 13.2853 86.9542 13.229 86.9301 13.1838C86.906 13.1385 86.8497 13.1213 86.8045 13.1455C86.6431 13.2314 86.4623 13.3042 86.2757 13.3693C86.2492 13.37 86.2225 13.3705 86.1955 13.3705C86.0932 13.3709 85.9912 13.3667 85.8955 13.362L85.8372 13.3591C85.764 13.3554 85.695 13.352 85.6357 13.3509C85.5845 13.35 85.5422 13.3909 85.5413 13.4422C85.5404 13.4934 85.5812 13.5357 85.6325 13.5366C85.6639 13.5372 85.6981 13.5385 85.735 13.5401C85.5128 13.6067 85.3007 13.6704 85.1315 13.7396C85.084 13.7591 85.0613 13.8133 85.0807 13.8608C85.1001 13.9082 85.1543 13.931 85.2018 13.9116C85.3631 13.8456 85.5647 13.7851 85.7865 13.7186L85.7866 13.7186C85.8556 13.6979 85.9266 13.6767 85.9989 13.6545C86.1013 13.623 86.2058 13.5898 86.31 13.554C86.4877 13.547 86.6693 13.5227 86.8158 13.457C86.8626 13.4361 86.8836 13.3811 86.8626 13.3343C86.8614 13.3317 86.8602 13.3291 86.8588 13.3267L86.8918 13.3094ZM87.0031 13.7765C87.0528 13.7636 87.0826 13.713 87.0698 13.6633C87.057 13.6137 87.0063 13.5838 86.9566 13.5966C86.5467 13.7025 86.2128 13.7938 85.925 13.8725C85.3574 14.0278 84.969 14.1341 84.5298 14.206C84.4792 14.2142 84.4449 14.262 84.4532 14.3126C84.4614 14.3632 84.5092 14.3976 84.5598 14.3893C85.0087 14.3158 85.4106 14.2059 85.9858 14.0486L85.9859 14.0486C86.2727 13.9701 86.6027 13.8799 87.0031 13.7765ZM87.2249 13.9974C87.2738 13.9817 87.3007 13.9294 87.285 13.8806C87.2694 13.8317 87.2171 13.8048 87.1683 13.8205C86.51 14.0314 85.968 14.1447 85.4774 14.2417L85.3501 14.2668L85.3501 14.2668C84.9103 14.3534 84.5051 14.4331 84.0931 14.5678C84.0444 14.5838 84.0178 14.6362 84.0337 14.685C84.0497 14.7337 84.1021 14.7603 84.1509 14.7444C84.5515 14.6133 84.9457 14.5358 85.3875 14.4488L85.5135 14.424C86.006 14.3265 86.5564 14.2116 87.2249 13.9974ZM87.422 14.4715C87.4722 14.4612 87.5045 14.412 87.4941 14.3618C87.4837 14.3116 87.4346 14.2792 87.3844 14.2896C86.9527 14.3789 86.5076 14.4484 86.0685 14.5169L86.0685 14.5169C85.8551 14.5503 85.6432 14.5834 85.4348 14.6184C84.8545 14.716 84.3038 14.8285 83.849 15.0031C83.7867 15.0176 83.7086 15.0414 83.6094 15.0874C83.5628 15.109 83.5426 15.1642 83.5642 15.2108C83.573 15.2297 83.5873 15.2443 83.6044 15.2534C82.6671 15.3653 81.8037 15.4868 80.9834 15.6067C81.0215 15.6352 81.0589 15.6648 81.0956 15.6954L81.3511 15.9094C82.8524 15.6532 84.3849 15.3747 85.9097 15.0835C85.5505 15.1962 85.1778 15.3048 84.7937 15.4104C83.6971 15.6906 82.6235 15.9113 81.5579 16.0827L81.8445 16.3227C82.8906 16.0887 83.8993 15.8488 84.841 15.5901C85.4194 15.4423 86.0041 15.278 86.5974 15.0957C86.6294 15.0859 86.6523 15.0603 86.6601 15.03C86.6952 15.0104 86.7138 14.9698 86.7056 14.9301C86.8541 14.9013 87.0025 14.8723 87.1507 14.8433C87.2011 14.8334 87.2339 14.7846 87.224 14.7343C87.2141 14.6839 87.1653 14.6511 87.115 14.661C85.9852 14.8825 84.8452 15.0983 83.7114 15.3045C83.7027 15.2861 83.6881 15.2712 83.6705 15.2619C83.6762 15.2605 83.682 15.2585 83.6876 15.2559C83.7095 15.2457 83.7301 15.2369 83.7495 15.2291C83.7664 15.2319 83.7842 15.2301 83.8011 15.2229C83.8345 15.2086 83.8685 15.1948 83.9032 15.1813C83.9225 15.1771 83.9401 15.1738 83.9563 15.1709L83.9712 15.1683C84.026 15.1589 84.0923 15.1475 84.1493 15.0949C84.5365 14.9718 84.9855 14.8824 85.4656 14.8016C85.6694 14.7673 85.8789 14.7346 86.0911 14.7014L86.0912 14.7014L86.0912 14.7014C86.5329 14.6324 86.986 14.5617 87.422 14.4715ZM81.9279 16.3926L82.1553 16.583C82.1851 16.5772 82.2152 16.5714 82.2454 16.5655C82.2654 16.5616 82.2826 16.5515 82.2955 16.5377C82.821 16.4802 83.3645 16.4313 83.928 16.3935C83.3702 16.5162 82.8505 16.6323 82.3632 16.7423C82.3723 16.7222 82.3743 16.6987 82.367 16.676C82.3515 16.6271 82.2993 16.6001 82.2504 16.6156C82.2368 16.62 82.2232 16.6243 82.2097 16.6286L82.2737 16.6822L81.9936 17.0166C82.8946 16.8119 83.9085 16.5855 85.075 16.3335C85.4081 16.3211 85.7481 16.3127 86.0952 16.3088C86.1465 16.3082 86.1876 16.2661 86.187 16.2148C86.1864 16.1636 86.1444 16.1224 86.0931 16.123L86.0556 16.1235L86.3592 16.0591C86.4094 16.0485 86.4415 15.9992 86.4309 15.949C86.4203 15.8988 86.371 15.8667 86.3208 15.8774C85.8782 15.9709 85.4557 16.0613 85.0516 16.1486C83.9391 16.1906 82.9024 16.2775 81.9279 16.3926ZM81.9705 17.0441L81.6781 17.3933C81.7147 17.3904 81.7514 17.3876 81.7884 17.385C81.7456 17.3947 81.703 17.4043 81.6607 17.414L81.4633 17.6497C82.502 17.4106 83.6949 17.154 85.0816 16.8831C85.1033 16.8788 85.1217 16.8674 85.1349 16.8517L85.4032 16.8236C85.4542 16.8183 85.4913 16.7726 85.486 16.7216C85.4807 16.6706 85.4351 16.6335 85.384 16.6388C84.2485 16.7568 83.1039 16.891 81.9705 17.0441ZM81.3926 17.7341L81.1989 17.9654C81.5824 17.8847 81.9877 17.7936 82.4125 17.6869C82.4622 17.6744 82.4924 17.6239 82.4799 17.5742C82.4675 17.5244 82.417 17.4942 82.3672 17.5067C82.0294 17.5916 81.7043 17.6665 81.3926 17.7341ZM81.1642 18.0068L80.7778 18.4682C81.1272 18.3765 81.5129 18.2695 81.939 18.1415C81.9723 18.1315 81.9959 18.1044 82.0029 18.0727C82.1733 18.049 82.3444 18.0258 82.5165 18.0033C81.9086 18.1851 81.3239 18.3486 80.7578 18.492L80.4433 18.8676C80.4838 18.863 80.5243 18.8585 80.5647 18.854C80.4889 18.9026 80.4132 18.9491 80.3376 18.9937L80.0092 19.3859C80.1386 19.3199 80.2684 19.2493 80.3986 19.1733C80.6434 19.1145 80.8869 19.0562 81.1293 18.9988C81.6282 18.8807 82.1226 18.7665 82.6141 18.6594C82.8014 18.6437 82.9846 18.6286 83.1633 18.6139L83.1634 18.6139C83.2222 18.6091 83.2805 18.6043 83.3383 18.5995L83.6219 18.2608C83.2776 18.3281 82.9329 18.4 82.587 18.4752C82.1426 18.5126 81.6748 18.5536 81.1893 18.6018C81.192 18.592 81.1931 18.5817 81.1924 18.5712C81.9462 18.3714 82.7324 18.1381 83.5613 17.8758C84.2803 17.7947 85.0201 17.7253 85.791 17.671C85.8422 17.6673 85.8808 17.6229 85.8771 17.5718C85.8735 17.5206 85.8291 17.4821 85.778 17.4857C85.3148 17.5183 84.8628 17.5564 84.4197 17.5992C84.8714 17.4512 85.336 17.2956 85.8148 17.1331C85.8633 17.1167 85.8893 17.0639 85.8729 17.0153C85.8564 16.9668 85.8036 16.9408 85.7551 16.9572C84.9739 17.2223 84.2318 17.4686 83.522 17.6933C82.7147 17.7847 81.9334 17.8907 81.1642 18.0068ZM83.8877 18.034L84.2446 18.3329C84.9192 18.2118 85.5925 18.1108 86.2696 18.0383C86.3206 18.0328 86.3575 17.987 86.352 17.936C86.3465 17.885 86.3008 17.8481 86.2498 17.8536L86.2402 17.8546C86.2278 17.8434 86.2121 17.8354 86.1944 17.8322C86.0567 17.8077 85.9016 17.8226 85.7403 17.8505C85.6411 17.8677 85.5331 17.891 85.4216 17.9152C85.3533 17.93 85.2838 17.945 85.2141 17.9591C84.8394 18.0349 84.4253 18.091 83.9926 17.9856C83.9498 17.9751 83.9067 17.9962 83.8877 18.034ZM84.2625 18.3479L84.2949 18.375C84.2863 18.3637 84.2752 18.3544 84.2625 18.3479ZM82.2643 19.8817L82.1001 20.0778C81.9287 20.0872 81.7436 20.0955 81.5463 20.1043L81.5463 20.1043L81.5463 20.1043C81.085 20.1248 80.5575 20.1482 79.986 20.1966C79.9879 20.2026 79.9893 20.2088 79.99 20.2153C79.9955 20.2663 79.9586 20.3121 79.9076 20.3176C79.5944 20.3514 79.3708 20.3578 79.1945 20.3586L79.5708 19.9093C79.6134 19.8883 79.6558 19.868 79.6981 19.8484C79.6682 19.8538 79.6383 19.8593 79.6082 19.8647L79.8571 19.5674C79.9621 19.5663 80.0714 19.5665 80.1862 19.5677C81.434 19.3258 82.4608 19.0712 83.1073 18.8752L82.8927 19.1315C82.8489 19.1439 82.8039 19.1565 82.7578 19.1692C82.7467 19.1837 82.7313 19.1951 82.7126 19.2011C81.7461 19.5147 80.9234 19.7745 80.2138 19.992C80.7057 19.9549 81.1598 19.9348 81.5601 19.9171C81.8187 19.9056 82.0549 19.8951 82.2643 19.8817ZM78.3508 20.0728L78.0244 19.7995C78.0076 19.8038 77.9906 19.8083 77.9735 19.8128C77.9239 19.8258 77.8943 19.8766 77.9074 19.9262C77.9095 19.9343 77.9127 19.9419 77.9167 19.9489C77.2918 20.0378 76.6422 20.1169 75.9808 20.1804C76.6575 20.0456 77.3186 19.9007 77.9673 19.7517L77.8092 19.6192C77.8024 19.6135 77.7956 19.6078 77.7888 19.602C77.084 19.7628 76.3648 19.9182 75.6264 20.0606C75.5942 20.0668 75.5692 20.0889 75.5578 20.1172C75.6163 20.2099 75.6782 20.3005 75.7434 20.389C76.4702 20.3239 77.1851 20.2394 77.8712 20.1429C77.8948 20.1681 77.9316 20.1791 77.9668 20.1681C78.0432 20.1443 78.1197 20.1203 78.1963 20.096C78.248 20.0883 78.2995 20.0806 78.3508 20.0728ZM76.9218 21.5465L76.8354 21.4741C76.835 21.4725 76.8347 21.4708 76.8344 21.4691C76.8259 21.4185 76.86 21.3706 76.9106 21.3621C77.8353 21.2063 78.7412 20.9922 79.7711 20.7378C78.609 20.793 77.7764 20.9541 76.886 21.2359C76.8371 21.2514 76.7849 21.2243 76.7694 21.1754C76.7539 21.1265 76.781 21.0743 76.8299 21.0589C77.3973 20.8792 77.9415 20.7481 78.5562 20.6615C78.5298 20.6219 78.5375 20.568 78.5752 20.5376C78.6154 20.5053 78.6559 20.4737 78.6967 20.443C77.8705 20.6795 77.2466 20.8405 76.7193 20.9655C76.6694 20.9773 76.6194 20.9464 76.6075 20.8965C76.601 20.8688 76.6076 20.841 76.6233 20.8198C76.5137 20.8543 76.404 20.8905 76.2942 20.9287C76.2458 20.9455 76.1928 20.9199 76.176 20.8714C76.1592 20.823 76.1848 20.77 76.2332 20.7532C76.9977 20.4876 77.763 20.3115 78.4929 20.1918L78.8944 20.5281C78.8459 20.5629 78.7979 20.5988 78.7504 20.6358C79.2902 20.5695 79.8889 20.5353 80.6055 20.5308C80.7594 20.4926 80.9164 20.4537 81.077 20.4142C81.3745 20.341 81.6838 20.2656 82.0075 20.1884L81.8073 20.4274C81.6552 20.464 81.5063 20.5002 81.3603 20.5359C81.4739 20.538 81.5903 20.5407 81.7097 20.544L81.5573 20.7259C81.2256 20.718 80.9174 20.7148 80.6288 20.7164L80.3687 20.781C79.1033 21.0955 78.0351 21.361 76.9414 21.5453C76.9348 21.5464 76.9283 21.5468 76.9218 21.5465ZM77.4902 22.0225L77.2772 21.8441C78.7279 21.8157 80.3907 21.2832 81.2911 20.8832C81.331 20.8654 81.3767 20.8781 81.4022 20.9111L81.236 21.1096C80.3456 21.4874 78.8532 21.9538 77.4902 22.0225ZM75.1371 19.2688C75.1102 19.1968 75.0851 19.1241 75.0618 19.0507C75.2798 19.0137 75.4959 18.9765 75.7104 18.9392C76.121 18.8349 76.565 18.714 77.0645 18.5777C77.1026 18.6765 77.1467 18.7727 77.1966 18.8659C76.7203 18.9505 76.2388 19.036 75.7487 19.1211C75.6671 19.1418 75.5868 19.1619 75.5076 19.1813C76.1145 19.198 76.7253 19.1747 77.3489 19.1149C77.4096 19.2024 77.4758 19.2864 77.5474 19.3661C77.4536 19.4005 77.3583 19.4394 77.2609 19.4837C77.2142 19.5049 77.1591 19.4842 77.1379 19.4375C77.1293 19.4185 77.1276 19.398 77.1318 19.3791C76.5475 19.4992 75.96 19.6388 75.3761 19.8026C75.3467 19.7468 75.3185 19.6904 75.2914 19.6335C75.6364 19.5361 75.9827 19.4472 76.3289 19.3657C76.0432 19.3743 75.759 19.3746 75.4756 19.3662C75.4243 19.3647 75.384 19.3219 75.3855 19.2706C75.3863 19.2436 75.3986 19.2196 75.4175 19.2032C75.3226 19.2261 75.2292 19.248 75.1371 19.2688ZM76.9429 18.1587C76.9254 18.0711 76.9124 17.9822 76.9041 17.8924C76.4592 17.9844 76.0217 18.0805 75.5934 18.181C75.5598 18.1889 75.5348 18.214 75.5256 18.2448C75.3864 18.2698 75.2463 18.2942 75.105 18.3181C75.0544 18.3266 75.0203 18.3746 75.0289 18.4251C75.0375 18.4757 75.0854 18.5098 75.136 18.5012C75.7482 18.3977 76.336 18.2849 76.9429 18.1587ZM76.9027 17.4386C76.9095 17.3593 76.9199 17.2806 76.934 17.2026C76.456 17.3105 75.9789 17.4211 75.5053 17.5356L75.396 17.5575C75.3847 17.5598 75.3742 17.5641 75.365 17.5699C75.3189 17.5845 75.2914 17.6326 75.303 17.6803C75.3152 17.7301 75.3654 17.7607 75.4152 17.7486L75.5454 17.717C75.8665 17.6523 76.1924 17.585 76.5244 17.5165L76.5244 17.5165C76.6496 17.4907 76.7757 17.4647 76.9027 17.4386ZM77.0676 16.729C77.1538 16.5075 77.2711 16.2975 77.4173 16.1057C76.8197 16.1759 76.2193 16.2348 75.6012 16.2769C75.55 16.2804 75.5113 16.3247 75.5148 16.3759C75.5183 16.427 75.5626 16.4657 75.6138 16.4622C75.9667 16.4382 76.3143 16.4086 76.6592 16.3746C76.5314 16.4195 76.4039 16.4659 76.2768 16.514C76.0827 16.541 75.8901 16.5674 75.6991 16.5931C75.6354 16.5946 75.5715 16.5961 75.5076 16.5974C75.4564 16.5984 75.4156 16.6409 75.4167 16.6922C75.4178 16.7434 75.4602 16.7842 75.5115 16.7831L75.6482 16.7801C75.6598 16.7832 75.6721 16.7841 75.6848 16.7825L75.7138 16.7786L75.7851 16.7768C75.7856 16.787 75.7879 16.7972 75.792 16.8072C75.8116 16.8546 75.8659 16.8771 75.9133 16.8575C75.988 16.8266 76.063 16.7964 76.1381 16.7667C76.4492 16.7569 76.7589 16.7444 77.0676 16.729ZM80.3788 15.2718C80.0159 15.1309 79.6221 15.0732 79.227 15.1082C78.8439 15.142 78.4774 15.2614 78.1523 15.4531C78.1097 15.4551 78.0672 15.457 78.0248 15.4589L77.8535 15.4818C77.2289 15.5654 76.6616 15.6414 76.0023 15.7888C75.9522 15.8 75.9026 15.7685 75.8914 15.7185C75.8802 15.6684 75.9117 15.6188 75.9617 15.6076C76.095 15.5777 76.2248 15.5508 76.3521 15.5261C76.1457 15.5359 75.9393 15.5473 75.7315 15.5611C75.6803 15.5646 75.6361 15.5258 75.6327 15.4747C75.6292 15.4235 75.668 15.3792 75.7191 15.3758C76.2372 15.3412 76.7441 15.3223 77.2589 15.3031L77.2589 15.3031C77.5065 15.2939 77.7559 15.2846 78.0093 15.2735C78.1904 15.2491 78.3764 15.2236 78.5705 15.1952C79.5129 15.0574 80.6586 14.8499 82.3835 14.3668C82.4329 14.353 82.4841 14.3818 82.498 14.4312C82.5118 14.4806 82.483 14.5318 82.4336 14.5457C81.5066 14.8053 80.7454 14.9859 80.0926 15.119C80.8561 15.0325 81.6863 14.9007 82.6229 14.6903C82.6483 14.6846 82.6735 14.6899 82.6938 14.703C82.777 14.6739 82.859 14.6441 82.9397 14.6136C82.9877 14.5955 83.0413 14.6197 83.0594 14.6677C83.0775 14.7157 83.0533 14.7693 83.0053 14.7874C82.326 15.044 81.5595 15.25 80.7488 15.4509C80.6673 15.403 80.5835 15.3598 80.4977 15.3214C80.7035 15.271 80.9064 15.2206 81.1056 15.1695C80.8562 15.2086 80.6143 15.2424 80.3788 15.2718ZM73.031 24.964L73.2167 25.1195C72.9174 25.1729 72.6349 25.2235 72.3657 25.2736L72.5455 25.2766C72.7058 25.2794 72.874 25.2824 73.0502 25.2844C73.1015 25.2851 73.1426 25.3271 73.142 25.3784C73.1414 25.4297 73.0993 25.4708 73.048 25.4702C72.8688 25.4681 72.6989 25.4651 72.5378 25.4623L72.5377 25.4623C72.1725 25.4559 71.8524 25.4504 71.5699 25.4569C71.5169 25.4582 71.4654 25.4598 71.4154 25.462C71.0186 25.5474 70.6449 25.6387 70.2782 25.7458C70.229 25.7601 70.1774 25.7319 70.163 25.6826C70.1486 25.6334 70.1769 25.5818 70.2262 25.5675C70.3082 25.5435 70.3905 25.5204 70.4734 25.4979C70.4754 25.4617 70.4986 25.4286 70.5348 25.4156C70.7724 25.3302 71.057 25.2922 71.3919 25.2771C71.8927 25.1696 72.4291 25.0716 73.031 24.964ZM75.5711 24.6848L75.7612 24.4578C76.591 24.2926 77.5288 24.0927 78.6058 23.8389C77.8913 23.9825 77.2848 24.0927 76.8028 24.1626C76.752 24.1699 76.7049 24.1347 76.6976 24.084C76.6902 24.0332 76.7254 23.9861 76.7762 23.9787C77.3925 23.8894 78.2162 23.7331 79.2135 23.5244L78.6472 24.2005C77.776 24.396 76.7984 24.5807 75.735 24.6524C75.6799 24.6634 75.6253 24.6741 75.5711 24.6848ZM73.7364 25.5548C73.7051 25.5607 73.6738 25.5667 73.6425 25.5726C73.6191 25.542 73.5781 25.528 73.5395 25.5408C73.4044 25.5854 73.2756 25.626 73.1528 25.6628C72.5582 25.77 71.9634 25.8683 71.3745 25.9547C71.3602 25.9568 71.3472 25.962 71.336 25.9696L71.3234 25.967C71.2733 25.956 71.2237 25.9877 71.2127 26.0378C71.2017 26.0879 71.2334 26.1374 71.2835 26.1484C71.4296 26.1805 71.6921 26.176 72.0695 26.114C72.367 26.0652 72.7414 25.9797 73.1961 25.8438C73.4377 25.8002 73.6792 25.7551 73.9203 25.7088L73.7364 25.5548ZM74.8725 25.519L75.0649 25.2892C76.2095 25.0494 77.3277 24.788 78.3736 24.5271L78.1713 24.7687C78.1407 24.7763 78.11 24.7838 78.0793 24.7914C78.1022 24.7932 78.125 24.7951 78.1476 24.797L78.0012 24.9718C77.9802 24.9703 77.9591 24.9689 77.9378 24.9676C77.8866 24.9645 77.8476 24.9205 77.8507 24.8693C77.8512 24.8612 77.8527 24.8535 77.8551 24.8462C77.3217 24.976 76.7723 25.1049 76.2126 25.2304C76.757 25.2217 77.3286 25.1611 77.9163 25.0732L77.5469 25.5143C75.6047 26.0479 73.744 26.4167 71.7828 26.4734C71.7316 26.4749 71.6888 26.4345 71.6873 26.3833C71.6858 26.332 71.7262 26.2892 71.7775 26.2877C72.639 26.2628 73.4809 26.1772 74.3197 26.0433L74.3865 26.0992L74.4512 26.0219C75.4974 25.8486 76.54 25.6012 77.6107 25.3039C76.9144 25.3958 76.2383 25.4431 75.6044 25.4025C75.5816 25.4011 75.5613 25.3915 75.546 25.3769C75.3226 25.425 75.098 25.4724 74.8725 25.519ZM77.3423 25.7585C75.1403 26.1198 73.4427 26.4334 71.7507 26.7706C71.7004 26.7807 71.6677 26.8296 71.6777 26.8799C71.6878 26.9302 71.7367 26.9628 71.787 26.9528C71.9485 26.9206 72.1102 26.8886 72.2723 26.8568C72.2589 26.8758 72.2526 26.8997 72.2564 26.9245C72.2643 26.9752 72.3117 27.0099 72.3624 27.002C73.1771 26.8759 74.0464 26.6982 75.17 26.4687L75.17 26.4687C75.4506 26.4113 75.747 26.3508 76.0624 26.287C76.2302 26.253 76.4034 26.2181 76.5825 26.1823C76.5389 26.1924 76.5079 26.2329 76.5109 26.279C76.5144 26.3301 76.5586 26.3689 76.6098 26.3654C76.6881 26.3602 76.7669 26.3554 76.8462 26.3509L77.0095 26.1558C76.8714 26.1632 76.7341 26.171 76.5974 26.1801C76.5943 26.1803 76.5912 26.1807 76.5881 26.1812C76.7436 26.1501 76.9035 26.1183 77.0682 26.0858L77.3423 25.7585ZM76.7013 26.5238C75.1978 26.7545 73.581 26.9776 71.922 27.1457C71.871 27.1509 71.8338 27.1965 71.839 27.2475C71.8442 27.2985 71.8897 27.3357 71.9408 27.3305C73.5272 27.1697 75.0747 26.9589 76.5209 26.7393L76.7013 26.5238ZM76.4017 26.8816C75.1961 27.0564 73.9639 27.2127 72.8038 27.2857C72.7526 27.2889 72.7137 27.333 72.717 27.3842C72.7202 27.4354 72.7643 27.4743 72.8155 27.4711C73.3513 27.4374 73.9023 27.386 74.4585 27.3233C73.894 27.4355 73.336 27.5388 72.789 27.6276C72.7384 27.6359 72.704 27.6836 72.7122 27.7342C72.7205 27.7848 72.7682 27.8192 72.8188 27.811C73.9063 27.6343 75.0368 27.4011 76.1738 27.1537L76.4017 26.8816ZM76.0256 27.472C75.0765 27.6319 74.125 27.7627 73.2172 27.8524C73.1662 27.8574 73.1289 27.9029 73.1339 27.9539C73.139 28.005 73.1844 28.0423 73.2355 28.0372C74.1967 27.9423 75.2073 27.8013 76.2126 27.6286L76.0256 27.472ZM76.2725 27.6789C76.0942 27.7375 75.9142 27.8004 75.7327 27.8681C75.7136 27.8752 75.6983 27.8879 75.6878 27.9037C74.9578 28.0055 74.2088 28.0929 73.445 28.1562C73.3939 28.1605 73.3558 28.2053 73.3601 28.2565C73.3643 28.3076 73.4092 28.3456 73.4603 28.3413C74.5421 28.2516 75.5937 28.1141 76.6029 27.9556L76.2725 27.6789ZM76.6246 27.9738C76.5657 27.9924 76.5078 28.0113 76.4509 28.0304C75.5071 28.2427 74.5735 28.4758 73.6241 28.7153C73.3323 28.7616 73.0372 28.8063 72.7374 28.8487C72.6866 28.8559 72.6512 28.9029 72.6584 28.9537L72.6593 28.9588L72.4868 29.0021C72.437 29.0146 72.4068 29.0651 72.4193 29.1148C72.4318 29.1646 72.4822 29.1948 72.532 29.1823C72.802 29.1146 73.0698 29.0469 73.3361 28.9797L73.6617 28.8974C74.5844 28.7509 75.4746 28.5876 76.3793 28.4216C76.5917 28.3827 76.8049 28.3436 77.0195 28.3045L76.8344 28.1494C76.7209 28.1702 76.6078 28.1909 76.495 28.2116L76.5005 28.2097C76.6073 28.1857 76.7142 28.1619 76.8213 28.1385L76.6246 27.9738ZM77.1788 28.437C77.166 28.4403 77.1531 28.4435 77.1402 28.4467C77.0904 28.459 77.0601 28.5094 77.0724 28.5592C77.0847 28.6089 77.1351 28.6393 77.1849 28.627C77.2478 28.6114 77.3105 28.595 77.3733 28.5778C77.3065 28.5341 77.2416 28.4872 77.1788 28.437ZM77.5234 28.6689C76.5816 28.8947 75.5904 29.1109 74.5726 29.3073L74.5718 29.3018C74.5635 29.2512 74.5157 29.2169 74.4651 29.2253C74.0655 29.2911 73.7256 29.3736 73.4257 29.4464L73.3062 29.4753C72.9757 29.5549 72.6975 29.6161 72.4312 29.6264C72.389 29.628 72.3545 29.6575 72.3447 29.6965L72.2036 29.7183C72.1529 29.7261 72.1181 29.7735 72.1259 29.8242C72.1337 29.8749 72.1811 29.9097 72.2318 29.9019C73.0165 29.7816 73.796 29.6458 74.5607 29.4988C74.5715 29.5445 74.6154 29.5754 74.663 29.5692C75.3999 29.4732 76.1353 29.3708 76.8529 29.2622C75.4411 29.587 74.0279 29.9396 72.6928 30.3135C72.5405 30.3085 72.3817 30.2926 72.2155 30.2648C72.1649 30.2563 72.117 30.2905 72.1086 30.3411C72.1001 30.3917 72.1342 30.4395 72.1848 30.448L72.2065 30.4516L72.0736 30.49C72.0244 30.5043 71.9961 30.5559 72.0104 30.6051C72.0247 30.6544 72.0762 30.6827 72.1255 30.6684C72.3203 30.6118 72.5172 30.5556 72.7158 30.4999C73.105 30.5092 73.457 30.4502 73.7812 30.3345C73.8295 30.3172 73.8547 30.2641 73.8375 30.2158C73.8351 30.2092 73.8321 30.203 73.8285 30.1973C75.4955 29.7572 77.2473 29.351 78.9402 28.9907C78.5474 29.0161 78.1575 28.9504 77.7994 28.8027C77.7928 28.8012 77.7862 28.7997 77.7796 28.7981C77.7815 28.7977 77.7834 28.7972 77.7852 28.7968C77.6958 28.7592 77.6083 28.7166 77.5234 28.6689ZM79.6519 28.8413C80.8211 28.5988 81.9517 28.3797 82.9948 28.188C83.0452 28.1787 83.0786 28.1303 83.0693 28.0798C83.06 28.0294 83.0116 27.996 82.9612 28.0053C82.7955 28.0357 82.6276 28.0669 82.4577 28.0987C82.5813 28.0595 82.7 28.0198 82.8136 27.9797C82.862 27.9626 82.8874 27.9096 82.8703 27.8612C82.8532 27.8128 82.8002 27.7875 82.7518 27.8045C82.1056 28.0326 81.2881 28.2471 80.3584 28.4476C80.1451 28.6156 79.9065 28.7484 79.6519 28.8413ZM80.8174 27.9793C81.347 27.8212 81.8415 27.6644 82.294 27.512C82.3816 27.5027 82.4698 27.4935 82.5587 27.4844C82.6064 27.4796 82.6419 27.4395 82.6422 27.3927C82.7533 27.354 82.8615 27.3156 82.9667 27.2776L83.0054 27.2756C83.0566 27.2731 83.0961 27.2296 83.0936 27.1784C83.0911 27.1271 83.0476 27.0876 82.9963 27.0901L82.9826 27.0908C82.9656 27.0866 82.9473 27.0872 82.9296 27.0934C82.4981 27.1154 82.0764 27.1452 81.6632 27.1821C81.7047 27.1681 81.7317 27.1262 81.7255 27.0812C81.7226 27.0607 81.7132 27.0427 81.6997 27.0289C82.2092 26.9383 82.6931 26.8591 83.1488 26.7977C83.1997 26.7909 83.2353 26.7441 83.2285 26.6933C83.2217 26.6424 83.1749 26.6068 83.1241 26.6136C82.5545 26.6903 81.9407 26.7949 81.2895 26.9144C81.2566 27.0877 81.2058 27.2571 81.1381 27.4199C81.5137 27.3802 81.8959 27.3462 82.286 27.3186L82.254 27.3295C81.864 27.3711 81.4866 27.4156 81.12 27.4624C81.0903 27.5303 81.0576 27.597 81.022 27.6622C81.1337 27.6478 81.2463 27.6335 81.36 27.6194C81.2356 27.6583 81.1089 27.6973 80.98 27.7364C80.9306 27.8201 80.8764 27.9012 80.8174 27.9793ZM81.3289 26.6056C81.3831 26.5852 81.4363 26.5642 81.4886 26.5425C81.5359 26.5228 81.5583 26.4684 81.5386 26.4211C81.5347 26.4117 81.5295 26.4033 81.5232 26.396C81.5768 26.3796 81.6299 26.3632 81.6824 26.3467C82.1189 26.3159 82.5023 26.3091 82.8189 26.3353C82.87 26.3395 82.9149 26.3015 82.9191 26.2504C82.9233 26.1993 82.8853 26.1544 82.8342 26.1502C82.6806 26.1375 82.5122 26.1323 82.3306 26.1337C82.633 26.0291 82.9113 25.9246 83.1612 25.8215C83.1805 25.8136 83.1956 25.7999 83.2055 25.7832C83.2481 25.7783 83.2906 25.7735 83.333 25.7688C83.3189 25.6728 83.3019 25.5776 83.2819 25.4832C82.7043 25.5535 82.0196 25.6581 81.2494 25.7829C81.2743 25.877 81.2939 25.9728 81.3079 26.0698C81.7146 25.9969 82.1146 25.9311 82.5059 25.8747C82.2403 25.9707 81.9529 26.0671 81.6472 26.1631C81.5418 26.1707 81.4335 26.1796 81.3224 26.1898C81.3232 26.197 81.3238 26.2043 81.3245 26.2116C81.3361 26.3435 81.3375 26.4752 81.3289 26.6056ZM81.0959 25.3581C81.7449 25.2602 82.4336 25.1579 83.1681 25.0504C83.1491 24.9903 83.1289 24.9307 83.1076 24.8716L82.6957 24.932C82.6757 24.9047 82.6414 24.8895 82.6057 24.8954C82.038 24.9895 81.503 25.0805 80.9979 25.1684C81.0332 25.2302 81.0659 25.2935 81.0959 25.3581ZM80.7024 24.7531C81.2303 24.6553 81.7539 24.5665 82.2663 24.5034C82.3172 24.4971 82.3534 24.4507 82.3471 24.3998C82.3409 24.3489 82.2945 24.3127 82.2436 24.319C81.7232 24.3831 81.1901 24.4738 80.6542 24.5732C80.9761 24.47 81.3022 24.3648 81.6332 24.2579L81.6343 24.2576C81.9295 24.1623 82.2287 24.0657 82.5322 23.9682C82.5774 23.9537 82.6038 23.9078 82.595 23.8623C82.5812 23.8418 82.5672 23.8214 82.553 23.801C82.5306 23.7871 82.5025 23.7827 82.4754 23.7914C82.1738 23.8882 81.8768 23.9841 81.5837 24.0787L81.5829 24.0789L81.5828 24.079C81.1813 24.2086 80.7874 24.3357 80.3998 24.4594L80.4185 24.4751C80.5208 24.5608 80.6157 24.6538 80.7024 24.7531ZM80.159 24.2578C80.8133 24.0831 81.4202 23.9149 81.9648 23.7605C82.0141 23.7465 82.0428 23.6952 82.0288 23.6458C82.0148 23.5965 81.9634 23.5678 81.9141 23.5818C81.3353 23.7459 80.6862 23.9256 79.9849 24.1119L80.159 24.2578ZM79.774 23.9353C80.5786 23.743 81.2497 23.5914 81.7786 23.5895C81.8299 23.5893 81.8714 23.5476 81.8712 23.4963C81.871 23.445 81.8293 23.4036 81.778 23.4038C81.2852 23.4055 80.6788 23.5311 79.9821 23.6948C80.5548 23.5511 81.1623 23.3931 81.8083 23.2188C81.8578 23.2054 81.8871 23.1544 81.8737 23.1049C81.8604 23.0554 81.8094 23.0261 81.7599 23.0394C81.6385 23.0722 81.5185 23.1044 81.3999 23.136C81.3859 23.0899 81.3385 23.0618 81.2908 23.0725C80.5578 23.2364 79.8815 23.3842 79.2694 23.5127L79.774 23.9353ZM81.1902 22.451L81.3931 22.6209C79.8003 22.7407 78.9679 23.0276 78.2376 23.2793C77.9286 23.3858 77.638 23.486 77.3157 23.5645C77.2659 23.5767 77.2156 23.5461 77.2035 23.4963C77.1913 23.4465 77.2219 23.3962 77.2717 23.3841C77.5732 23.3106 77.8538 23.214 78.1567 23.1097C78.8641 22.8662 79.6928 22.581 81.1902 22.451ZM80.6922 21.7588L80.5568 21.9205L80.5838 21.9431C80.2612 22.0312 79.924 22.0903 79.5883 22.1492L79.5883 22.1492L79.5882 22.1492C79.4342 22.1762 79.2805 22.2031 79.1285 22.2328C78.6139 22.3333 78.1093 22.4665 77.6394 22.7379C77.595 22.7635 77.5382 22.7483 77.5126 22.7039C77.4869 22.6595 77.5021 22.6027 77.5465 22.577C78.0431 22.2902 78.5719 22.1523 79.0929 22.0505C79.2529 22.0192 79.4111 21.9915 79.5675 21.9641L79.5675 21.9641C79.9255 21.9014 80.2735 21.8404 80.6093 21.7429C80.639 21.7343 80.6695 21.7412 80.6922 21.7588ZM85.7262 19.5738C86.2449 19.4735 86.7942 19.3721 87.378 19.2702C87.4285 19.2614 87.4624 19.2133 87.4535 19.1628C87.4447 19.1123 87.3966 19.0784 87.3461 19.0873L87.2367 19.1064C87.2154 19.0729 87.174 19.0557 87.1337 19.0668C86.867 19.1401 86.6623 19.169 86.4705 19.1892C86.4257 19.1939 86.3811 19.1982 86.3362 19.2025L86.3361 19.2025C86.1904 19.2165 86.0423 19.2307 85.8761 19.261C85.8257 19.2703 85.7922 19.3186 85.8014 19.3691L85.8016 19.3701C85.7145 19.3868 85.6282 19.4035 85.5428 19.4202L85.7262 19.5738ZM78.5254 24.346L78.6366 24.2131C78.6269 24.2135 78.6171 24.2138 78.6073 24.2141C78.556 24.2154 78.5155 24.258 78.5168 24.3093C78.5172 24.3224 78.5202 24.3348 78.5254 24.346ZM83.2366 17.0684C82.9674 17.1014 82.6984 17.1354 82.43 17.1705C82.523 17.1688 82.6171 17.1682 82.7127 17.1687C82.7233 17.1688 82.7334 17.1706 82.7429 17.1739C82.9042 17.1391 83.0687 17.1039 83.2366 17.0684ZM80.8807 18.8669C80.9069 18.8488 80.9331 18.8305 80.9594 18.8119C81.0493 18.8026 81.1387 18.7935 81.2274 18.7848L81.0865 18.818L80.8807 18.8669ZM77.0503 20.6939C77.2076 20.6506 77.3644 20.6107 77.5203 20.5738C77.3544 20.6173 77.1983 20.6571 77.0503 20.6939ZM82.1744 14.1966C82.2254 14.1915 82.2626 14.1459 82.2575 14.0949C82.2523 14.0439 82.2067 14.0067 82.1557 14.0118C80.8911 14.1397 79.8477 14.3031 78.9065 14.4504L78.9065 14.4504L78.6998 14.4828C77.7041 14.6383 76.818 14.7706 75.8884 14.8178C75.8372 14.8204 75.7978 14.8641 75.8004 14.9153C75.803 14.9665 75.8466 15.0059 75.8978 15.0033C76.8383 14.9555 77.7332 14.8217 78.7285 14.6663L78.9347 14.634C79.8761 14.4867 80.915 14.324 82.1744 14.1966ZM85.2834 18.8588C85.2781 18.8476 85.2753 18.8359 85.2747 18.8243C85.2147 18.8554 85.1554 18.8888 85.0965 18.9247C85.0526 18.9513 84.9955 18.9374 84.9688 18.8936C84.9422 18.8498 84.9561 18.7927 84.9999 18.766C85.4645 18.4832 85.9506 18.3445 86.5817 18.3139L86.5867 18.3107C86.6296 18.2825 86.6871 18.2945 86.7153 18.3373C86.74 18.375 86.7338 18.424 86.7029 18.4544C86.6893 18.4759 86.6672 18.4916 86.641 18.4963C86.3789 18.659 86.1466 18.7263 85.9424 18.7696C85.8895 18.7808 85.8385 18.7904 85.7901 18.7996L85.788 18.7999C85.7386 18.8093 85.6922 18.818 85.6475 18.8277C85.558 18.8471 85.4793 18.8694 85.407 18.9033C85.3605 18.9252 85.3052 18.9052 85.2834 18.8588ZM80.7578 13.5765C80.809 13.5746 80.8491 13.5316 80.8473 13.4803C80.8455 13.4291 80.8025 13.389 80.7512 13.3908C80.0144 13.4169 79.4956 13.5649 79.0401 13.7125C78.986 13.73 78.9329 13.7475 78.8806 13.7647L78.8805 13.7647C78.4919 13.8926 78.1462 14.0064 77.7242 14.0324C77.673 14.0356 77.6341 14.0796 77.6372 14.1308C77.6404 14.182 77.6844 14.221 77.7356 14.2178C78.183 14.1903 78.5521 14.0686 78.9392 13.941L78.9393 13.941C78.9916 13.9238 79.0442 13.9064 79.0974 13.8892C79.5453 13.7441 80.0455 13.6017 80.7578 13.5765ZM87.5804 19.6696C87.6294 19.6543 87.6567 19.6022 87.6414 19.5533C87.6261 19.5043 87.574 19.477 87.5251 19.4923C87.0751 19.6328 86.8871 19.6847 86.7023 19.7204C86.6519 19.7302 86.619 19.7789 86.6287 19.8292C86.6384 19.8796 86.6872 19.9125 86.7375 19.9028C86.9337 19.8649 87.1306 19.8101 87.5804 19.6696ZM87.9955 20.2617C88.0462 20.2538 88.0809 20.2064 88.0731 20.1557C88.0652 20.105 88.0177 20.0703 87.967 20.0781C87.7344 20.1143 87.5926 20.1379 87.4829 20.2025C87.4387 20.2285 87.424 20.2854 87.45 20.3297C87.476 20.3739 87.533 20.3886 87.5772 20.3626C87.6494 20.32 87.75 20.2998 87.9955 20.2617ZM77.6206 28.9462L77.6373 28.9515C77.1302 29.0335 76.6101 29.1122 76.0832 29.1878C76.5851 29.0792 77.0773 28.9668 77.5568 28.8519C77.5541 28.8932 77.5794 28.9327 77.6206 28.9462ZM71.9208 31.3519C73.9505 30.7277 75.4587 30.3381 78.2582 29.686C77.5934 29.7971 77.0335 29.8861 76.5221 29.9674L76.5218 29.9674C76.2755 30.0066 76.0405 30.0439 75.8104 30.0811C75.7598 30.0893 75.7121 30.0549 75.7039 30.0042C75.6958 29.9536 75.7302 29.9059 75.7808 29.8977C76.0112 29.8605 76.2465 29.8231 76.493 29.7839C77.7464 29.5846 79.2901 29.3392 81.9556 28.8365L82.2295 28.7739L82.6489 28.6781C82.6989 28.6667 82.7487 28.698 82.7602 28.748C82.7713 28.7967 82.7419 28.8453 82.6941 28.8583C82.6807 28.8775 82.6601 28.8917 82.6352 28.8965C82.4143 28.9387 82.2005 28.9793 81.9935 29.0184C76.5355 30.2652 74.7425 30.6784 71.9754 31.5294C71.9263 31.5445 71.8744 31.517 71.8593 31.4679C71.8442 31.4189 71.8717 31.3669 71.9208 31.3519ZM82.321 29.3987C82.3716 29.3898 82.4053 29.3416 82.3964 29.2911C82.3876 29.2406 82.3394 29.2068 82.2889 29.2157C81.3297 29.3843 80.3178 29.6339 79.332 29.8809L79.1476 29.9271C78.2252 30.1584 77.3305 30.3828 76.5224 30.5334C76.4719 30.5428 76.4387 30.5912 76.4481 30.6417C76.4575 30.6921 76.506 30.7254 76.5564 30.716C77.3704 30.5643 78.2705 30.3385 79.191 30.1077L79.3771 30.061C80.3637 29.8139 81.3693 29.566 82.321 29.3987ZM82.2505 29.7455C82.2998 29.7312 82.3281 29.6797 82.3138 29.6304C82.2995 29.5811 82.248 29.5528 82.1987 29.5671C80.4103 30.0865 79.191 30.3296 77.3193 30.5883C77.2685 30.5953 77.233 30.6422 77.24 30.693C77.247 30.7438 77.2939 30.7793 77.3447 30.7723C77.4821 30.7533 77.616 30.7344 77.7469 30.7155C77.6136 30.7581 77.4722 30.8079 77.3191 30.8672C77.2713 30.8858 77.2475 30.9396 77.2661 30.9874C77.2846 31.0352 77.3384 31.059 77.3862 31.0404C78.065 30.7774 78.497 30.7079 79.0558 30.6179L79.056 30.6179C79.2096 30.5932 79.3728 30.5669 79.5533 30.5347C79.6038 30.5257 79.6374 30.4774 79.6284 30.4269C79.6267 30.4172 79.6235 30.4081 79.6191 30.3998C80.4587 30.2326 81.2699 30.0303 82.2505 29.7455ZM72.3125 24.5451C72.3607 24.5273 72.3852 24.4739 72.3674 24.4258C72.3496 24.3776 72.2962 24.3531 72.2481 24.3709C71.5513 24.6286 70.9955 24.7426 69.8611 24.8843C69.8102 24.8906 69.7741 24.9371 69.7804 24.9879C69.7868 25.0388 69.8332 25.075 69.8841 25.0686C71.0245 24.9261 71.5964 24.81 72.3125 24.5451ZM71.0023 23.6231C71.0525 23.6123 71.0843 23.5628 71.0734 23.5127C71.0625 23.4626 71.0131 23.4307 70.963 23.4416C70.7113 23.4962 70.3929 23.5355 70.0475 23.5754L69.9308 23.5888C69.6214 23.6243 69.2966 23.6616 68.9901 23.7117C68.9394 23.72 68.9051 23.7677 68.9134 23.8184C68.9217 23.869 68.9694 23.9033 69.02 23.895C69.3218 23.8457 69.642 23.8089 69.9519 23.7733L70.0688 23.7599C70.4125 23.7202 70.7402 23.68 71.0023 23.6231ZM71.6056 24.3754C71.6566 24.3813 71.7027 24.3448 71.7086 24.2938C71.7145 24.2429 71.678 24.1968 71.627 24.1909C71.2334 24.1453 70.559 24.1976 69.6534 24.2686C69.6023 24.2726 69.564 24.3173 69.5681 24.3685C69.5721 24.4196 69.6168 24.4578 69.6679 24.4538C70.5842 24.3819 71.2348 24.3324 71.6056 24.3754ZM72.5949 31.0998C72.6441 31.0852 72.672 31.0334 72.6574 30.9843C72.6427 30.9351 72.591 30.9072 72.5418 30.9218C72.4641 30.945 72.3863 30.9567 72.305 30.9689C72.2678 30.9744 72.2299 30.9801 72.1908 30.9871C72.0772 31.0073 71.9483 31.0396 71.8623 31.135C71.8279 31.1732 71.831 31.2319 71.8691 31.2662C71.9072 31.3006 71.9659 31.2975 72.0003 31.2594C72.04 31.2154 72.1098 31.1902 72.2234 31.17C72.2522 31.1648 72.2841 31.16 72.318 31.1549C72.4048 31.1419 72.504 31.1269 72.5949 31.0998Z" fill="#454545"/>
</svg>
