<svg width="94" height="39" viewBox="0 0 94 39" fill="none" xmlns="http://www.w3.org/2000/svg">
<path d="M14.3774 31.3878C14.5128 31.3209 14.6617 31.2861 14.8127 31.2861H89.7909C90.8306 31.2861 91.1583 32.6897 90.2262 33.1501L79.6226 38.3876C79.4872 38.4544 79.3383 38.4892 79.1873 38.4892H4.20908C3.16939 38.4892 2.84165 37.0856 3.77383 36.6252L14.3774 31.3878Z" fill="#30BF98"/>
<path opacity="0.61" d="M11.8983 22.4456C11.098 18.4401 13.7076 14.5476 17.7168 13.7664L79.5613 1.71589C83.7632 0.897137 87.7764 3.81801 88.2891 8.06813L89.9458 21.8006C90.4753 26.1898 87.0487 30.0546 82.6277 30.0546H19.4626C15.9484 30.0546 12.9229 27.5738 12.2344 24.1276L11.8983 22.4456Z" fill="#D1CB28"/>
<path opacity="0.61" d="M12.0978 18.7098C12.6965 18.2646 12.8171 17.8595 15.0258 15.6352M11.2188 21.3363C12.8652 18.9358 13.2289 18.1853 16.5105 13.4679M12.5182 21.9896C13.3594 19.521 15.9608 16.9973 17.1865 13.9477M12.7946 23.3121C13.6351 20.9907 16.154 17.4192 18.728 13.9052M13.1605 24.0504C15.1885 21.3805 16.3823 17.7931 19.7198 13.1259M12.3106 25.5877C14.4531 22.6762 16.4963 20.4533 20.6046 13.7704M13.1198 26.4254C14.3118 23.3603 16.0877 21.0402 22.0957 12.2484M12.9107 26.1832C17.189 22.3643 19.9455 17.4612 22.8313 12.8199M14.1701 28.3554C18.1824 22.6468 21.9711 17.3518 24.6288 13.6202M14.7433 28.8122C18.5977 22.6605 22.1208 16.7648 25.2101 13.0785M14.7371 29.0845C18.5374 23.0465 22.3891 17.4209 26.0337 11.7978M15.9089 29.3221C19.4744 22.699 23.3248 17.4235 27.9055 11.8819M15.3811 30.3678C20.6427 22.3565 25.3326 16.2407 28.147 12.0657M17.1281 29.9526C21.305 22.8135 24.7788 17.2868 30.1286 11.7954M18.27 29.5988C20.3132 25.4275 24.5088 20.8042 31.3903 10.6732M19.2794 30.2033C23.0281 25.1359 26.3652 18.4897 32.5694 10.512M18.8224 30.6563C24.8571 23.6249 28.7454 16.7895 32.5393 11.2649M20.2418 29.5219C24.3803 22.8994 29.4271 17.5094 33.7169 11.0599M21.1806 30.3961C27.6419 22.2463 33.0886 15.0459 34.766 10.3468M21.7788 30.7449C25.9082 26.0255 28.8951 21.8933 36.586 11.1775M22.9602 30.3339C28.8609 22.4269 33.3654 16.4941 36.7815 9.34555M24.2985 29.4692C28.1211 25.0687 31.0004 19.4024 38.3205 9.67476M25.0811 30.1619C30.4543 24.0462 34.8742 15.9139 39.4998 9.78656M25.6411 29.7253C31.8601 21.0078 37.09 13.5027 40.1287 9.39598M27.0175 30.905C32.9984 22.8599 38.3859 14.537 41.9394 8.80872M28.5153 30.728C31.6126 25.8885 34.1178 22.5999 43.623 8.49056M28.4729 30.1963C32.8257 25.7526 35.7219 21.7879 44.1003 9.05992M30.3835 29.9048C33.9491 24.4748 37.645 20.0326 45.6014 8.67764M30.4951 29.4934C36.4802 24.0526 41.0756 17.3017 45.7975 7.9687M32.3686 30.6344C34.7614 24.5104 38.7443 21.2686 47.0684 7.58596M33.4557 29.8776C37.1641 23.9712 40.6281 18.4342 48.448 7.34538M33.7284 29.381C39.4124 22.7118 46.0503 14.4606 48.8917 8.63028M34.2832 30.7069C39.2803 23.5749 42.6704 19.2199 50.7873 7.97698M36.5075 30.1881C41.622 22.8922 47.9054 13.9743 51.7386 6.90868M36.6579 30.1383C41.5627 23.383 46.9767 16.7519 52.2238 7.9926M37.5883 30.1307C42.6391 21.8975 48.6121 14.8878 53.4841 7.75435M38.5786 30.4064C44.6989 22.9812 49.7903 14.0604 54.8431 6.17138M39.7439 30.6984C43.679 23.8275 48.7557 15.948 55.7444 5.90505M41.0051 30.1989C45.7362 23.0904 50.4546 16.2245 57.5921 6.55M41.8501 30.1605C46.4147 22.5684 51.6494 15.858 58.6517 6.96866M42.8627 30.0269C48.7808 21.2646 55.568 11.2973 59.393 6.42244M43.3209 30.4106C48.9337 22.6381 54.1675 14.1287 61.3143 6.05878M44.4446 30.1982C48.6657 23.8877 52.2305 18.9728 61.1762 4.85526M44.8229 30.5873C50.2039 23.298 53.6029 18.2557 62.7758 5.44667M46.6222 30.7256C52.2789 21.3886 58.1354 13.4009 63.3728 4.75287M47.8861 29.5026C51.6061 22.7314 57.1657 14.3956 65.2925 5.26805M48.8267 30.0981C53.5282 23.0181 59.0265 15.6598 65.6224 4.82163M48.5111 30.9708C55.761 20.7632 62.4262 11.0282 67.2094 5.31022M50.4 30.5279C55.2025 22.8861 60.9784 14.9683 68.9373 3.51907M51.4844 30.8389C55.0884 24.6794 58.887 17.1991 69.3732 3.46215M51.9762 29.1491C58.8884 20.4848 64.9634 12.9437 70.5409 3.27854M52.508 30.7729C58.4393 22.6857 63.3472 14.5018 71.5619 2.94045M54.6855 30.3449C57.9162 24.8904 62.3333 19.2908 72.2718 3.96897M55.2452 30.1764C59.6765 23.9044 63.3684 19.0465 74.0835 3.55353M55.1777 29.3948C61.0815 22.8253 66.0262 15.4016 74.6655 3.35108M56.6802 30.0455C61.6618 22.4314 67.3942 13.8556 76.4051 1.92405M57.8735 29.811C62.7742 22.2379 69.0215 14.249 76.4976 1.98852M58.316 30.7134C67.2967 19.5711 74.775 8.74773 78.0264 2.78354M59.4109 29.5313C65.0319 21.989 69.2125 15.8092 79.3568 2.54545M60.7393 30.8748C66.5776 21.9806 71.0042 15.2137 79.7696 1.24902M61.3905 30.2679C67.055 23.9768 71.0114 16.727 81.1724 1.29039M61.9232 30.8157C67.9587 24.1735 72.383 16.7721 82.9606 1.48993M63.8913 30.222C68.0454 23.6628 72.4253 17.0264 83.1353 1.89908M63.962 30.526C70.1088 20.5047 77.5267 12.5025 84.9544 2.73589M65.9779 29.7071C71.6199 22.885 75.9906 14.6793 85.4755 2.41834M66.4315 29.3052C71.2917 22.7839 75.4585 18.1476 85.2938 2.59188M66.6812 30.9941C75.1308 19.5562 82.1809 9.47653 86.2427 2.32337M68.8492 30.7935C74.0107 22.7005 78.754 15.6314 86.2478 3.60969M69.46 29.4017C72.2829 25.1709 76.6033 19.274 86.724 4.15763M70.8116 29.3268C76.4676 21.0738 84.3167 9.58655 87.6392 5.82919M71.2003 29.5092C76.414 23.8468 80.2941 17.245 88.5482 5.10267M71.6473 30.2688C76.6091 22.9358 82.3579 15.8625 88.4696 7.27967M72.4505 30.0644C75.9264 25.0901 79.2874 20.3688 87.9239 7.584M73.3773 29.6879C79.2395 21.9559 85.0005 14.3469 89.1788 8.78311M75.3949 29.3839C79.2633 24.5573 83.2292 18.7039 89.2603 9.78442M75.7891 30.0706C80.8598 22.1089 85.6564 14.4429 89.3486 11.0346M76.9033 29.4747C79.8379 25.4924 83.1124 21.3941 89.7056 13.2429M77.3414 29.1375C82.5105 23.3465 85.6203 17.6282 89.5179 13.5828M78.6776 30.9481C80.5649 25.8722 83.362 24.3648 89.3356 15.3771M79.3012 29.9647C81.6296 26.8245 83.9124 23.5279 89.5104 17.1036M80.1991 29.3253C82.2847 26.9475 84.9695 25.0281 89.8817 18.3464M82.0968 29.3875C83.0713 26.8481 85.0481 23.7445 89.1865 18.7765M82.5764 29.8969C84.8806 26.3786 87.5167 23.976 89.4227 20.0288M82.9114 30.2063C84.4384 27.8066 86.1814 26.5096 90.2635 21.3724M84.3124 30.5431C86.4375 27.143 87.604 24.7426 89.8798 22.4349M85.6877 31.331C86.4154 28.6217 88.1104 25.0563 89.8414 23.8184M86.7252 30.7234C87.6578 28.04 88.4643 26.352 90.4433 24.0655M11.8972 20.4314C12.9909 18.8674 13.9187 18.1114 14.0957 15.7494M11.9387 21.4387C13.7418 18.4645 15.5498 17.2303 16.8737 14.2511M12.5799 23.2265C13.8603 20.2241 14.1274 19.6293 17.6208 13.5262M12.8089 24.1902C14.3995 21.1599 16.9704 16.5732 18.4399 14.654M12.915 24.3201C14.9886 20.2145 17.4993 17.5507 19.7022 13.3938M12.9655 26.0105C15.5155 22.2514 17.2364 18.8706 21.4268 14.0195M12.9159 26.2698C16.4375 20.9556 20.271 16.3024 21.8211 12.7075M13.0795 28.3722C17.3358 22.5231 21.3325 16.1852 23.2183 12.7985M14.2338 28.9912C17.7277 23.5269 21.5353 17.2457 24.6152 12.6026M14.2695 29.445C16.9545 24.4637 19.3818 20.279 24.8761 12.9586M14.9612 29.5242C19.2248 24.6229 21.7732 19.7433 26.7572 12.8777M15.249 29.3541C18.7114 24.574 22.7122 20.81 27.9207 11.458M16.8292 30.3132C19.4103 24.2851 23.4031 19.7325 28.6847 12.5753M17.3501 29.663C21.773 23.8788 26.5824 16.1236 30.3965 11.9434M18.2687 30.1037C20.707 26.8241 23.1754 22.6362 31.3108 11.3919M18.8945 29.7705C22.4561 26.0048 26.4287 19.9798 31.31 11.1741M20.4809 30.4475C24.738 21.5998 30.6019 14.3773 33.2922 11.3203M21.356 30.223C24.7325 25.0303 27.1005 21.0024 34.8393 10.9847M22.5389 29.7663C25.1443 24.5725 29.7892 19.2631 35.4667 10.8752M23.59 30.8364C27.6795 23.5722 31.7431 18.6381 36.8762 10.3316M24.2037 30.7837C28.1448 24.2271 33.0775 17.5949 37.556 9.61515M24.887 29.3865C29.0476 26.2382 31.8389 20.9328 38.1567 9.54474M26.5422 29.1779C30.3588 24.8247 34.4592 18.1113 39.4198 10.4043M26.8233 30.6369C30.505 25.0093 33.7353 19.0114 41.0865 10.2772M28.5996 29.67C30.9956 26.8197 34.3367 21.4928 42.2391 8.44989M28.5274 30.0684C33.5279 24.1223 36.707 18.1138 42.6122 9.84496M30.0859 30.4881C33.1823 24.5713 36.6206 19.7082 43.4116 8.72334M31.4513 30.0455C34.1748 24.4362 36.9347 18.9327 45.6612 7.92166M31.9838 29.636C38.0434 21.8918 42.681 14.4762 46.1281 9.01735M32.2403 29.2513C39.3873 21.2852 44.5518 12.4734 47.5887 8.39405M34.6097 29.6741C37.3862 25.3784 40.6671 21.4674 48.1918 7.33354M35.3633 29.7786C40.7706 22.1695 44.9359 13.7764 50.121 7.99079M36.2644 29.1722C40.545 23.6009 44.5872 18.5817 50.9416 8.24947M36.3055 30.1609C40.9874 23.5208 43.546 17.751 51.9732 6.68388M38.3025 29.1009C41.7683 22.7515 45.8543 16.0176 53.3795 7.40596M38.9034 30.7027C44.3316 21.6224 50.6233 11.1754 53.6781 7.84757M39.8415 30.2774C45.9245 22.0242 51.5181 12.8701 55.618 6.71356M40.6956 30.3053C46.6174 20.8469 52.7446 10.8457 55.86 5.83705M41.2942 30.0553C45.0638 24.4375 49.5985 17.9457 57.0436 6.27928M43.0258 30.568C48.4881 20.3663 55.169 11.387 59.0356 7.03294M43.6023 31.0015C46.9056 24.6997 50.2553 19.8651 59.9444 6.27073M44.9671 29.9653C49.938 21.7785 56.6179 12.7674 60.3991 5.80714M45.6593 30.1058C49.3373 24.0387 52.8264 18.9057 61.9032 5.46225M47.0164 30.8907C52.4868 20.0596 58.6396 12.1107 62.5471 5.28514M46.6671 30.1534C53.1122 20.1359 59.8412 11.6216 63.4842 4.37754M48.4559 30.2573C51.9624 24.1986 55.6569 18.6305 64.4526 4.21826M49.4815 29.4202C53.5394 23.7701 58.1797 16.7344 65.9504 4.38073M50.6072 30.1528C55.1702 23.3925 59.0123 16.9789 67.8525 3.77956M51.5241 29.2583C55.6731 22.72 60.3863 14.0551 67.9149 4.88656M52.1799 29.6185C56.9866 22.8536 60.5866 15.3163 69.7781 4.63906M52.9101 30.8063C59.8384 20.1185 65.7581 9.19549 70.8815 3.59873M54.5556 30.4043C57.925 24.4763 62.765 17.8325 72.1017 3.11548M55.3417 30.7282C61.5512 19.0157 69.8258 9.29212 72.4737 3.14815M56.5054 30.2501C61.8035 20.4073 69.3176 10.1182 73.6013 3.32382M56.4321 30.7152C62.7631 21.9353 68.0838 13.2744 74.9437 3.08315M58.3306 29.7814C63.2829 23.5525 68.1073 16.1639 76.1257 2.87731M58.8673 29.8205C64.4467 22.5179 68.5613 13.1861 77.1312 2.03621M59.4949 30.2592C63.4249 24.974 66.8106 19.5135 77.9517 1.76125M60.9334 30.1709C67.1172 19.5508 74.3637 9.48262 78.6086 2.55851M61.2075 30.0399C66.2732 22.284 72.2888 13.2399 80.0665 2.11832M62.7941 30.1021C68.7965 20.6967 73.3157 13.0007 81.1909 1.62348M63.6871 31.0031C69.725 20.4465 76.0722 11.3296 83.2615 2.0339M64.4152 30.2129C70.6 20.9726 77.037 12.2947 83.543 1.83882M65.0962 30.8426C70.7463 22.9009 75.4528 14.7494 84.6273 2.61888M66.1969 29.7668C69.7852 24.4142 73.783 19.4412 85.3767 1.84394M66.9493 29.9163C72.8275 20.2557 79.8418 10.5963 85.7662 1.84818M68.4186 29.3814C71.6501 24.1887 75.3082 20.3012 86.8124 2.83615M69.4994 30.0554C74.4128 23.5738 78.3012 17.035 87.3695 3.16002M69.4812 30.7909C73.7565 24.8635 77.5514 18.898 87.5157 5.16003M71.5074 30.5414C74.7796 23.9171 80.0914 17.1158 87.5081 5.04406M71.4883 30.5536C78.4383 21.4463 83.6999 12.7324 87.7744 5.95363M73.668 29.913C76.8099 24.1885 80.2127 19.6258 88.1982 7.79752M73.6714 30.1931C78.3205 21.92 83.4413 15.0196 88.0572 7.42602M75.2515 29.7015C79.3959 23.0565 83.6564 17.5603 87.828 8.58651M76.3986 29.9139C79.7554 25.5911 82.5393 19.1452 88.3411 11.1427M77.5353 30.5938C80.2333 24.4186 83.7103 20.4266 88.6365 10.7034M77.4356 30.4343C80.7857 24.5141 84.5886 19.6735 88.3843 12.8749M79.2494 29.3176C81.4134 26.1822 84.5318 21.9729 89.4633 13.2289M79.9536 30.3083C82.1093 26.4295 84.5777 22.5596 89.076 15.4146M80.2521 29.5249C83.3114 26.6983 86.1296 22.6884 89.2838 16.9797M81.1068 29.6834C83.6198 26.5842 87.2653 22.4769 89.5527 16.9112M83.2155 30.169C84.5483 26.3834 86.1948 24.3227 88.9942 19.2041M83.7281 30.3792C84.2807 28.3548 86.0195 25.6011 90.439 20.4543M84.927 30.382C85.4966 27.1329 87.0665 25.1477 90.4013 20.6072M85.0419 30.8225C86.7067 28.4429 88.8681 24.5027 90.6934 22.2544M86.5326 30.1506C87.7567 27.9387 88.5838 26.115 89.8498 24.0105M12.6384 16.8851V16.8851Z" stroke="#D1CB28" stroke-width="0.122852" stroke-linecap="round"/>
<path d="M41.6777 19.1431H45.7006V21.825H41.6777V19.1431Z" fill="#454545"/>
<path d="M57.0309 15.3481C54.6526 11.4563 51.4082 8.16603 47.5502 5.73334C45.7679 4.60376 43.7363 3.92765 41.6325 3.76402C39.5288 3.6004 37.417 3.95425 35.4815 4.79466C33.7885 5.59322 32.3154 6.79187 31.1893 8.28711C30.0632 9.78234 29.318 11.5292 29.018 13.3769C28.9107 14.0071 28.8303 14.6106 28.7498 15.2006C27.4943 15.4041 26.352 16.0471 25.5267 17.0149C24.7014 17.9826 24.2468 19.2122 24.2441 20.484V28.7042C24.2441 29.4155 24.5267 30.0976 25.0297 30.6006C25.5326 31.1036 26.2148 31.3861 26.9261 31.3861V20.484C26.9261 19.7727 27.2086 19.0906 27.7116 18.5876C28.2146 18.0847 28.8967 17.8021 29.608 17.8021H54.7244C57.3089 17.8056 59.7865 18.8339 61.614 20.6614C63.4415 22.4889 64.4697 24.9665 64.4733 27.551V28.5299H61.7913C61.225 27.1488 60.17 26.0246 58.8276 25.3718C57.4853 24.719 55.9496 24.5833 54.5136 24.9906C53.0775 25.3978 51.8417 26.3196 51.0419 27.5799C50.2422 28.8402 49.9344 30.3509 50.1774 31.8236C50.4204 33.2964 51.1972 34.6281 52.3594 35.5647C53.5217 36.5013 54.9881 36.9771 56.4789 36.9015C57.9696 36.8258 59.3803 36.204 60.4418 35.1545C61.5033 34.1051 62.1412 32.7016 62.2339 31.2118H64.4733C65.1846 31.2118 65.8668 30.9292 66.3697 30.4263C66.8727 29.9233 67.1552 29.2412 67.1552 28.5299V27.551C67.1498 24.657 66.136 21.8555 64.2882 19.6283C62.4404 17.4011 59.8741 15.8876 57.0309 15.3481ZM36.3129 15.1201H30.8551C30.8551 14.7044 30.9758 14.2753 31.0563 13.7792C31.288 12.3061 31.8926 10.9167 32.8126 9.74314C33.7327 8.56959 34.9376 7.65087 36.3129 7.07432V15.1201ZM38.9948 15.1201V6.51111C41.4984 6.186 44.0374 6.73548 46.1824 8.06663C49.1108 9.89059 51.6382 12.2903 53.6114 15.1201H38.9948ZM56.1593 34.4033C55.4962 34.4033 54.8481 34.2067 54.2968 33.8383C53.7455 33.47 53.3158 32.9464 53.062 32.3338C52.8083 31.7212 52.7419 31.0472 52.8713 30.3969C53.0006 29.7466 53.3199 29.1492 53.7887 28.6804C54.2576 28.2115 54.8549 27.8922 55.5052 27.7629C56.1555 27.6335 56.8296 27.6999 57.4422 27.9536C58.0548 28.2074 58.5783 28.6371 58.9467 29.1884C59.3151 29.7397 59.5117 30.3878 59.5117 31.0509C59.5117 31.94 59.1585 32.7927 58.5298 33.4214C57.9011 34.0501 57.0484 34.4033 56.1593 34.4033Z" fill="#454545"/>
<path d="M40.5583 28.53C39.9919 27.149 38.9369 26.0248 37.5946 25.372C36.2522 24.7192 34.7165 24.5835 33.2805 24.9907C31.8444 25.398 30.6086 26.3197 29.8089 27.5801C29.0091 28.8404 28.7013 30.351 28.9443 31.8238C29.1873 33.2966 29.9641 34.6283 31.1263 35.5649C32.2886 36.5014 33.755 36.9773 35.2458 36.9017C36.7365 36.826 38.1472 36.2041 39.2087 35.1547C40.2702 34.1053 40.9081 32.7018 41.0008 31.212H48.1079V30.8767C48.0814 30.0856 48.1718 29.2948 48.3761 28.53H40.5583ZM34.9664 34.4035C34.3034 34.4035 33.6552 34.2069 33.1039 33.8385C32.5526 33.4701 32.1229 32.9465 31.8692 32.334C31.6154 31.7214 31.549 31.0473 31.6784 30.397C31.8078 29.7467 32.127 29.1494 32.5959 28.6805C33.0647 28.2117 33.6621 27.8924 34.3124 27.763C34.9627 27.6337 35.6368 27.7001 36.2493 27.9538C36.8619 28.2075 37.3855 28.6372 37.7539 29.1885C38.1222 29.7398 38.3188 30.388 38.3188 31.051C38.3188 31.9402 37.9656 32.7929 37.3369 33.4216C36.7082 34.0503 35.8555 34.4035 34.9664 34.4035Z" fill="#454545"/>
</svg>
