<svg width="70" height="48" viewBox="0 0 70 48" fill="none" xmlns="http://www.w3.org/2000/svg">
<rect x="0.925781" y="42.6802" width="68.3375" height="4.81977" rx="2.40989" fill="#FFB953"/>
<rect x="4.88672" y="0.5" width="45.4436" height="34.2548" rx="5.15365" fill="#8DCBE8"/>
<rect opacity="0.5" x="35.1836" y="17.7139" width="29.23" height="22.0332" rx="3.31491" fill="#D1CB28"/>
<path d="M53.8191 27.4391C54.035 27.4391 54.2421 27.3534 54.3947 27.2007C54.5474 27.048 54.6332 26.841 54.6332 26.6251V11.9721C54.6319 10.893 54.2026 9.85848 53.4396 9.09544C52.6765 8.33239 51.642 7.90315 50.5629 7.90186L19.6289 7.90186C18.5498 7.90315 17.5152 8.33239 16.7522 9.09544C15.9891 9.85848 15.5599 10.893 15.5586 11.9721L15.5586 34.7656C15.5599 35.8447 15.9891 36.8793 16.7522 37.6423C17.5152 38.4054 18.5498 38.8346 19.6289 38.8359H28.5835V42.4706L26.5035 43.8545C26.3917 43.9291 26.3001 44.0302 26.2369 44.1488C26.1737 44.2675 26.1409 44.3999 26.1413 44.5343V45.3483C26.1413 45.7801 26.3128 46.1942 26.6182 46.4996C26.9235 46.8049 27.3376 46.9764 27.7694 46.9764H42.4224C42.8542 46.9764 43.2683 46.8049 43.5736 46.4996C43.8789 46.1942 44.0505 45.7801 44.0505 45.3483V44.5343C44.0505 44.4003 44.0174 44.2684 43.9542 44.1502C43.891 44.0321 43.7997 43.9313 43.6882 43.857L41.6083 42.4706V41.2781C41.6083 41.0622 41.5225 40.8551 41.3699 40.7024C41.2172 40.5498 41.0102 40.464 40.7943 40.464C40.5784 40.464 40.3713 40.5498 40.2186 40.7024C40.066 40.8551 39.9802 41.0622 39.9802 41.2781V42.9062C39.9802 43.0402 40.0132 43.1721 40.0764 43.2902C40.1396 43.4084 40.231 43.5091 40.3425 43.5835L42.4224 44.9698V45.3483H27.7694V44.9698L29.8493 43.5859C29.9611 43.5113 30.0527 43.4102 30.1159 43.2916C30.1791 43.173 30.212 43.0406 30.2116 42.9062V38.8359H50.5629C51.642 38.8346 52.6765 38.4054 53.4396 37.6423C54.2026 36.8793 54.6319 35.8447 54.6332 34.7656V30.6954C54.6332 30.4795 54.5474 30.2724 54.3947 30.1197C54.2421 29.9671 54.035 29.8813 53.8191 29.8813H20.4429C20.227 29.8813 20.02 29.9671 19.8673 30.1197C19.7146 30.2724 19.6289 30.4795 19.6289 30.6954C19.6289 30.9113 19.7146 31.1183 19.8673 31.271C20.02 31.4236 20.227 31.5094 20.4429 31.5094H53.0051V34.7656C53.0051 35.4133 52.7478 36.0345 52.2898 36.4925C51.8318 36.9505 51.2106 37.2078 50.5629 37.2078H19.6289C18.9812 37.2078 18.36 36.9505 17.902 36.4925C17.444 36.0345 17.1867 35.4133 17.1867 34.7656V11.9721C17.1867 11.3244 17.444 10.7032 17.902 10.2453C18.36 9.78726 18.9812 9.52996 19.6289 9.52996H50.5629C51.2106 9.52996 51.8318 9.78726 52.2898 10.2453C52.7478 10.7032 53.0051 11.3244 53.0051 11.9721V26.6251C53.0051 26.841 53.0908 27.048 53.2435 27.2007C53.3962 27.3534 53.6032 27.4391 53.8191 27.4391Z" fill="#454545"/>
<path d="M31.5999 13.8384C31.4473 13.6858 31.2402 13.6001 31.0244 13.6001C30.8085 13.6001 30.6015 13.6858 30.4488 13.8384L25.5645 18.7228C25.4119 18.8754 25.3262 19.0824 25.3262 19.2983C25.3262 19.5142 25.4119 19.7212 25.5645 19.8738L30.4488 24.7582C30.6024 24.9064 30.808 24.9885 31.0214 24.9866C31.2349 24.9848 31.4391 24.8992 31.59 24.7482C31.7409 24.5973 31.8265 24.3931 31.8284 24.1797C31.8302 23.9662 31.7482 23.7606 31.5999 23.6071L27.2911 19.2983L31.5999 14.9895C31.7525 14.8369 31.8383 14.6298 31.8383 14.414C31.8383 14.1981 31.7525 13.9911 31.5999 13.8384Z" fill="#454545"/>
<path d="M38.5903 24.7586C38.743 24.9112 38.95 24.9969 39.1659 24.9969C39.3817 24.9969 39.5887 24.9112 39.7414 24.7586L44.6257 19.8742C44.7783 19.7216 44.8641 19.5146 44.8641 19.2987C44.8641 19.0829 44.7783 18.8758 44.6257 18.7232L39.7414 13.8389C39.6663 13.7611 39.5765 13.6991 39.4772 13.6564C39.3778 13.6138 39.271 13.5913 39.1629 13.5904C39.0548 13.5894 38.9476 13.61 38.8476 13.651C38.7476 13.6919 38.6567 13.7523 38.5802 13.8288C38.5038 13.9052 38.4433 13.9961 38.4024 14.0961C38.3615 14.1962 38.3409 14.3034 38.3418 14.4115C38.3428 14.5195 38.3652 14.6264 38.4079 14.7257C38.4506 14.825 38.5126 14.9148 38.5903 14.9899L42.8991 19.2987L38.5903 23.6075C38.4377 23.7602 38.352 23.9672 38.352 24.183C38.352 24.3989 38.4377 24.6059 38.5903 24.7586Z" fill="#454545"/>
</svg>
