<svg width="94" height="48" viewBox="0 0 94 48" fill="none" xmlns="http://www.w3.org/2000/svg">
<rect opacity="0.7" x="2.95508" y="0.5" width="69.56" height="26.5886" rx="13.2943" fill="#8DCBE8"/>
<path opacity="0.7" d="M83.7995 32.3031V24.7536C83.7995 20.0731 80.0052 16.2788 75.3247 16.2788C74.3103 16.2788 73.3041 16.4609 72.3541 16.8165L35.0405 30.7821C33.0409 31.5306 31.4376 33.0692 30.6076 35.0363C28.4473 40.156 32.2061 45.8217 37.7628 45.8217H70.281C77.7471 45.8217 83.7995 39.7692 83.7995 32.3031Z" fill="#DFDFDF"/>
<rect y="43.4043" width="94" height="4.29714" rx="2.14857" fill="#FFB953"/>
<path d="M18.4097 45.058C18.6609 44.4574 19.0977 44.1953 19.7529 44.2499C20.146 44.2827 20.5501 44.2499 21.0087 44.2499C21.0087 43.4418 21.0087 42.6993 21.0087 41.9567C21.0087 39.4778 21.0087 37.0099 21.0087 34.531C21.0087 33.5701 21.2817 33.308 22.2317 33.308C22.9962 33.308 23.7606 33.308 24.5577 33.308C24.6123 32.5654 24.6778 31.8665 24.7215 31.1567C24.9618 26.9525 25.202 22.7373 25.4423 18.5331C25.4641 18.2273 25.4969 17.9216 25.5296 17.6158C25.5842 16.9606 25.89 16.6548 26.567 16.6439C27.7136 16.633 28.8712 16.633 30.0178 16.6439C30.7603 16.6439 31.0443 16.9606 31.0879 17.6923C31.35 21.9183 31.6121 26.1444 31.8742 30.3705C31.9288 31.3205 31.9725 32.2815 32.0271 33.2643H36.2204C36.2204 32.4671 36.2204 31.6809 36.2204 30.8946C36.2204 30.4688 36.2204 30.0538 36.2204 29.6279C36.2204 28.383 36.2422 28.3503 37.4871 28.0882C39.0378 27.7715 40.5884 27.4657 42.1718 27.149C42.2264 26.4829 42.281 25.8168 42.3138 25.1616C42.4776 22.1586 42.6305 19.1555 42.7943 16.1525C42.8926 14.3179 43.0127 12.4834 43.1437 10.6488C43.1765 10.1356 43.4932 9.84071 44.0064 9.84071C45.2731 9.82979 46.5399 9.82979 47.8066 9.84071C48.3308 9.84071 48.6474 10.1683 48.6802 10.7034C48.8768 13.8375 49.0624 16.9715 49.259 20.1165C49.3791 21.9729 49.5101 23.8184 49.6303 25.7185L52.6879 25.107C52.6879 23.9604 52.6879 22.8575 52.6879 21.7436C52.6879 21.0447 52.8954 20.7826 53.5833 20.6407C57.6456 19.8326 61.7079 19.0354 65.7592 18.2383C66.3817 18.1181 67.0041 18.0417 67.6156 17.8779C68.38 17.6595 68.9151 18.1946 68.9151 19.0136C68.8933 23.9385 68.9042 28.8744 68.8933 33.7994C68.8933 33.8758 68.9042 33.9523 68.926 34.127C69.2318 34.127 69.5485 34.127 69.8652 34.127C70.4439 34.127 71.0118 34.127 71.5905 34.127C72.4532 34.127 72.759 34.4655 72.7481 35.3173C72.7481 38.1783 72.7481 41.0285 72.7481 43.8895C72.7481 43.9878 72.759 44.0752 72.7699 44.2717C73.305 44.2717 73.8292 44.2717 74.3643 44.2717C75.216 44.2717 75.6201 44.5666 75.6201 45.1781C75.6201 45.8006 75.2269 46.1063 74.3752 46.1063C66.6437 46.1063 58.9232 46.1063 51.1918 46.1063C40.7631 46.1063 30.3235 46.1063 19.8948 46.1282C19.2069 46.1282 18.65 46.019 18.377 45.3092V45.0798L18.4097 45.058ZM70.9572 35.9616H70.16C62.1993 35.9616 54.2385 35.9616 46.2778 35.9616C46.0485 35.9616 45.8082 35.9834 45.5898 35.9179C45.1421 35.7978 44.8582 35.5029 44.8691 35.0115C44.8691 34.5092 45.1858 34.258 45.6335 34.127C45.7755 34.0833 45.9393 34.1051 46.0921 34.1051C52.9172 34.1051 59.7532 34.1051 66.5782 34.1051C66.742 34.1051 66.9058 34.0833 67.0587 34.0724V19.8217C62.8545 20.6516 58.6939 21.4597 54.5334 22.2787C54.5334 23.4362 54.5334 24.5173 54.5334 25.5875C54.5334 26.341 54.304 26.614 53.5615 26.7668C53.1356 26.8542 52.6988 26.9416 52.2729 27.0289C47.6756 27.9353 43.0673 28.8526 38.459 29.748C38.0877 29.8245 37.9894 29.9446 37.9894 30.294C38.0113 31.4406 37.9894 32.5982 37.9894 33.7448C37.9894 34.9023 37.771 35.1207 36.6244 35.1207C32.2345 35.1207 27.8447 35.1207 23.4439 35.1207H22.8105V44.2171H70.9572V35.9616ZM27.2768 18.5113L26.4032 33.2861H30.2143L29.3407 18.5113H27.2768ZM44.8909 11.6753L44.0282 26.8214L47.8394 26.068L46.9439 11.6753H44.88H44.8909Z" fill="#454545"/>
<path d="M57.7529 29.1912C57.7529 28.809 57.742 28.4268 57.7529 28.0446C57.7747 27.6733 57.9713 27.4331 58.3644 27.4331C58.7576 27.4331 58.9869 27.6515 58.9978 28.0228C59.0196 28.809 59.0196 29.5953 58.9978 30.3815C58.9978 30.7856 58.7357 31.0258 58.3317 31.004C57.9495 30.9821 57.7529 30.731 57.7529 30.3488C57.7529 29.9666 57.7529 29.5844 57.7529 29.2022V29.1912Z" fill="#454545"/>
<path d="M65.3874 29.2127C65.3874 29.5731 65.3874 29.9335 65.3874 30.3048C65.3874 30.6979 65.1909 30.9818 64.7868 31.0036C64.3828 31.0255 64.1425 30.7634 64.1316 30.3703C64.1098 29.6059 64.1098 28.8415 64.1316 28.0771C64.1316 27.7276 64.3173 27.4546 64.7213 27.4437C65.1472 27.4328 65.3437 27.6949 65.3765 28.0771C65.4093 28.4593 65.3765 28.8415 65.3765 29.2237L65.3874 29.2127Z" fill="#454545"/>
<path d="M62.1773 29.1913C62.1773 29.5953 62.1773 29.9885 62.1773 30.3925C62.1773 30.7856 61.9371 31.004 61.5658 31.004C61.1945 31.004 60.9543 30.7966 60.9434 30.4034C60.9434 29.6172 60.9434 28.8419 60.9434 28.0556C60.9434 27.6407 61.1618 27.4113 61.5876 27.4222C61.9808 27.4222 62.1773 27.6625 62.1773 28.0447C62.1773 28.4269 62.1773 28.8091 62.1773 29.1913Z" fill="#454545"/>
</svg>
