<svg width="94" height="45" viewBox="0 0 94 45" fill="none" xmlns="http://www.w3.org/2000/svg">
<path d="M93.1842 35.1745C93.1389 34.9107 92.9275 34.4113 92.9132 34.4264M92.9687 35.417C92.9821 35.06 92.4702 34.4439 92.4898 34.0969M92.9707 35.6733C92.6032 35.2734 92.2628 34.7398 92.0734 33.1751M92.4761 36.2079C92.1893 35.3808 92.3327 34.3503 91.5886 33.1483M92.532 36.5946C92.0632 35.3759 91.683 33.93 91.3283 33.1725M92.2506 36.8411C91.8969 35.3787 91.3782 34.0509 91.1922 32.8558M92.2122 37.4898C92.1278 35.9929 91.2491 35.0674 90.4233 32.7803M92.1367 37.8829C91.6715 35.7088 90.9546 33.7607 90.5468 32.2946M92.0429 38.235C91.36 37.1418 91.1879 35.8658 89.6873 32.0903M91.7288 38.6537C91.1766 36.7382 90.4161 34.8886 89.6945 32.15M91.8212 39.1476C90.7855 36.2647 89.7024 33.925 89.3304 31.7562M91.6378 39.3615C90.3429 36.407 89.5304 33.438 89.1062 31.9529M91.6854 39.4751C90.2456 36.9016 89.2119 33.8104 88.3676 31.9498M91.2749 39.8435C90.2865 37.142 89.0595 34.4649 88.2064 31.3774M91.1684 40.7074C90.0204 37.873 89.1586 34.9513 87.9906 31.513M90.865 40.9462C89.5227 38.0041 88.9667 34.9018 87.4387 31.492M90.5809 41.1275C89.9868 38.0931 88.5028 35.3241 87.2753 31.5324M90.4813 41.4854C89.3953 37.9264 88.1671 34.6464 87.2088 31.6978M90.3555 41.7946C89.5679 39.4467 88.7484 37.0495 86.7138 31.3677M90.0393 42.4097C89.1006 39.8626 88.4761 37.6975 86.7845 31.4759M90.1455 42.8132C88.799 38.3271 87.184 34.2518 85.8644 31.0062M90.222 42.9988C89.035 39.7215 87.8878 36.3146 85.7634 30.9323M89.8256 43.6079C88.6226 39.1862 87.4355 35.7134 85.3307 30.2482M89.8569 43.9989C87.9576 38.5292 85.8079 33.325 85.0804 30.2529M89.6439 44.2335C88.3428 40.3518 86.912 36.7737 84.6987 30.0633M89.3092 44.2097C87.7 39.6293 86.0498 34.8898 84.0437 30.0348M89.1087 44.7974C87.8502 40.1056 86.1619 35.8182 83.9689 29.7521M88.9333 44.5194C87.6156 41.4087 86.9534 38.3647 83.702 29.6671M88.4942 44.3199C87.2821 41.6128 85.9874 38.5923 83.2895 29.6378M88.2823 44.0452C86.0113 38.3481 83.8378 32.7017 83.0912 29.521M87.7254 43.9414C86.7237 40.4405 85.0143 36.531 82.7323 29.7324M87.4202 43.373C86.2818 40.6185 85.1358 37.3754 82.372 29.4139M87.1214 43.2498C85.806 39.6338 84.6315 36.216 82.1057 29.49M86.7881 42.7948C84.8263 37.7138 83.2309 32.5539 81.8328 29.3531M86.3786 42.6032C85.1828 39.3398 83.8913 36.4007 81.7019 29.3137M85.8231 42.7124C84.4959 38.6719 82.9783 34.9353 81.0795 29.4498M85.3948 42.2509C84.209 38.2025 82.6195 34.405 80.904 29.2305M85.2227 42.1627C83.8759 39.3658 82.931 36.0726 80.6505 29.2003M85.0125 42.2952C83.073 36.8993 81.2739 32.3444 80.1943 29.4506M84.7664 41.8748C83.2371 38.0017 81.3963 34.4391 80.1744 29.4978M84.1601 42.0867C82.6821 39.254 81.9985 35.982 80.0545 29.3315M83.8761 41.6013C82.729 38.5212 81.5125 35.1301 79.6364 29.6019M83.4231 41.7521C82.9868 39.1646 81.8904 36.7956 79.2583 29.8574M83.6045 41.7946C82.3014 39.516 81.3043 37.0972 79.3166 30.321M82.973 41.864C82.1583 38.6999 80.8381 36.1515 78.9706 30.7271M82.6794 42.0333C81.6863 38.9515 80.6209 36.1869 78.9108 31.2032M82.8181 42.27C81.6542 38.837 80.4243 35.0401 78.8432 31.6094M82.1926 42.1233C80.9381 38.1917 79.5336 34.379 78.4866 31.6686M81.6246 40.6406C80.9272 39.0817 80.0383 36.9589 78.6267 32.1998M81.3237 40.4674C80.4507 38.1079 79.4076 35.729 78.2104 32.6727M80.7718 40.5149C80.2653 38.6413 79.444 36.5786 78.306 33.0887M80.406 40.3916C79.8297 38.3196 79.3859 36.4254 78.108 33.0852M80.1805 40.2309C79.3758 38.1917 78.9646 36.6841 77.9638 33.7681M79.9148 39.9881C78.9872 38.136 78.5151 35.9029 77.5674 33.9298M79.3436 40.0386C79.0485 37.6927 78.3624 35.7258 77.6944 34.1551M79.4217 39.8835C78.4997 38.0686 78.2015 36.0852 77.6321 34.7436M79.1574 39.8023C78.5219 38.2513 77.6019 36.7568 77.4524 34.9063M78.4243 39.9554C78.3703 38.4398 77.7208 37.1934 77.2749 35.6427M78.265 39.9003C77.7321 38.0551 77.3891 36.7368 76.856 36.0207M78.1554 40.0737C77.5512 39.1622 77.761 38.2183 76.7445 36.2735M77.8005 39.7828C77.4121 38.8974 77.1954 38.4708 76.946 36.5537M77.3308 39.7253C77.0729 38.4352 76.6656 37.727 76.7735 37.0568M77.3571 39.5766C77.1226 38.9516 76.7692 38.1852 76.6025 37.3694M77.1615 39.7485C76.7006 39.0806 76.6102 38.8543 75.9805 37.8856M76.5741 39.8296C76.3983 39.1653 76.1841 38.2722 75.9788 38.2867M76.2424 39.7255C76.2075 39.1242 76.159 38.6196 75.9687 38.3647M75.9868 39.4254C75.9674 39.2885 75.8275 39.0645 75.783 38.7333M93.308 34.6438V34.6438Z" stroke="#454545" stroke-width="0.0383878" stroke-linecap="round"/>
<g clip-path="url(#clip0_1202_2827)">
<path d="M63.813 17.7172L49.8046 26.118L28.8026 13.5168L49.8046 0.915527L70.8066 13.5168H49.8046V17.7172H63.813ZM70.8066 17.7172V34.5188L66.6062 29.8563V20.2374L70.8066 17.7172ZM49.8046 42.9196L60.3056 36.619L64.506 34.0988V21.4975L49.8046 30.3184L35.1032 21.4975V34.0988L49.8046 42.9196Z" fill="#D1CB28"/>
</g>
<path d="M47.0344 9.31592L30.0551 19.3612C29.486 19.6979 29.4797 20.5192 30.0436 20.8646L47.0344 31.2726M36.056 29.8406V36.2059C36.056 36.5202 36.2241 36.8105 36.4967 36.967L46.5976 42.764C46.8681 42.9192 47.2006 42.9192 47.4711 42.764L57.572 36.967C57.8446 36.8105 58.0127 36.5202 58.0127 36.2059V29.8406M47.0344 9.31629L64.1762 19.4578C64.6715 19.7508 64.677 20.4657 64.1862 20.7663L47.0344 31.273" stroke="#454545" stroke-width="1.75491" stroke-linecap="round"/>
<path d="M1.263 11.7244C1.33324 11.3159 1.66041 10.5427 1.68262 10.5661M1.59664 12.0998C1.57595 11.5471 2.36851 10.5933 2.33815 10.056M1.59356 12.4965C2.16256 11.8774 2.68949 11.0513 2.98281 8.62881M2.35925 13.3243C2.80332 12.0437 2.58139 10.4483 3.73341 8.58739M2.27283 13.923C2.99854 12.0362 3.58714 9.79755 4.13629 8.62486M2.70844 14.3046C3.25606 12.0405 4.05902 9.98479 4.34713 8.13454M2.76788 15.3089C2.89851 12.9913 4.25899 11.5586 5.53746 8.01764M2.88478 15.9175C3.605 12.5516 4.7149 9.53551 5.34629 7.26564M3.02992 16.4627C4.0873 14.7701 4.35366 12.7946 6.67697 6.9494M3.51632 17.1108C4.37126 14.1453 5.54863 11.2817 6.66584 7.04173M3.37326 17.8755C4.97675 13.4123 6.65363 9.7899 7.22954 6.43217M3.65716 18.2066C5.66191 13.6325 6.91984 9.03589 7.5766 6.7367M3.58355 18.3826C5.81266 14.3983 7.41296 9.61239 8.72006 6.73176M4.21904 18.953C5.74926 14.7705 7.64887 10.6257 8.96968 5.84558M4.38383 20.2905C6.16124 15.9022 7.49551 11.3788 9.30375 6.0556M4.85365 20.6601C6.93178 16.1052 7.79261 11.3021 10.1582 6.02305M5.29347 20.9409C6.21319 16.2429 8.51075 11.956 10.4112 6.08565M5.44769 21.4949C7.12903 15.9848 9.03054 10.9067 10.5141 6.34162M5.64248 21.9737C6.86178 18.3386 8.1305 14.6273 11.2806 5.83061M6.13205 22.926C7.58521 18.9824 8.5521 15.6305 11.1711 5.99819M5.96763 23.5506C8.0523 16.6052 10.5525 10.2958 12.5957 5.2709M5.84906 23.8379C7.6869 18.7641 9.46299 13.4895 12.752 5.15659M6.46289 24.781C8.32539 17.9353 10.1633 12.5587 13.4218 4.09746M6.41439 25.3863C9.35497 16.9181 12.6831 8.86097 13.8094 4.10465M6.74419 25.7496C8.75857 19.7398 10.9737 14.2003 14.4004 3.81114M7.26231 25.7127C9.75364 18.6213 12.3085 11.2836 15.4145 3.76705M7.57278 26.6226C9.52118 19.3587 12.1351 12.7209 15.5303 3.32929M7.84427 26.1921C9.88431 21.3762 10.9097 16.6635 15.9435 3.19781M8.52406 25.8833C10.4007 21.6922 12.4052 17.0158 16.5821 3.15234M8.8522 25.458C12.3682 16.6377 15.7332 7.896 16.8891 2.97154M9.71436 25.2974C11.2652 19.8771 13.9117 13.8244 17.4448 3.29887M10.187 24.4173C11.9495 20.1527 13.7237 15.1317 18.0026 2.80579M10.6495 24.2265C12.6859 18.6283 14.5044 13.3368 18.4148 2.92355M11.1656 23.5222C14.2029 15.6558 16.6728 7.66708 18.8374 2.71152M11.7995 23.2256C13.6509 18.173 15.6503 13.6227 19.04 2.65062M12.6595 23.3945C14.7144 17.139 17.0639 11.354 20.0037 2.8613M13.3227 22.6801C15.1584 16.4122 17.6194 10.533 20.2754 2.52181M13.589 22.5435C15.6742 18.2133 17.1371 13.1147 20.6679 2.47508M13.9145 22.7487C16.9172 14.3946 19.7027 7.34282 21.3741 2.86257M14.2955 22.0978C16.6632 16.1014 19.5132 10.5857 21.405 2.93564M15.2342 22.4258C17.5225 18.0403 18.5808 12.9745 21.5906 2.67812M15.6739 21.6743C17.4499 16.9058 19.3333 11.6556 22.2379 3.09676M16.3752 21.9078C17.0507 17.9019 18.7482 14.2341 22.8233 3.49234M16.0943 21.9737C18.1118 18.446 19.6556 14.7011 22.7329 4.21016M17.072 22.0812C18.3334 17.1824 20.3774 13.2369 23.2686 4.83891M17.5266 22.3432C19.0642 17.572 20.7137 13.2917 23.3613 5.57595M17.3119 22.7097C19.1138 17.3947 21.018 11.5163 23.4659 6.20481M18.2802 22.4825C20.2225 16.3955 22.397 10.4928 24.018 6.29647M19.1597 20.1871C20.2394 17.7736 21.6156 14.4869 23.8011 7.11885M19.6255 19.9188C20.9771 16.2659 22.5921 12.5828 24.4455 7.85104M20.48 19.9924C21.2641 17.0917 22.5357 13.8982 24.2976 8.49511M21.0463 19.8014C21.9386 16.5936 22.6256 13.661 24.6041 8.48974M21.3955 19.5527C22.6414 16.3956 23.2779 14.0616 24.8274 9.54694M21.8068 19.1768C23.243 16.3094 23.9738 12.8521 25.4411 9.79732M22.6912 19.255C23.1481 15.6231 24.2103 12.5779 25.2445 10.146M22.5702 19.0148C23.9977 16.205 24.4593 13.1342 25.3409 11.0572M22.9794 18.8892C23.9633 16.4879 25.3877 14.174 25.6191 11.3091M24.1145 19.1261C24.198 16.7797 25.2036 14.85 25.8939 12.4492M24.361 19.0408C25.1861 16.1841 25.7172 14.1432 26.5425 13.0344M24.5308 19.3093C25.4662 17.8982 25.1413 16.4368 26.715 13.4259M25.0803 18.8589C25.6815 17.4881 26.017 16.8277 26.4031 13.8596M25.8073 18.7699C26.2067 16.7726 26.8373 15.6761 26.6703 14.6385M25.7667 18.5397C26.1297 17.572 26.6769 16.3856 26.935 15.1225M26.0696 18.8058C26.783 17.7718 26.923 17.4215 27.8979 15.9216M26.9789 18.9315C27.2511 17.9029 27.5828 16.5202 27.9005 16.5426M27.4924 18.7702C27.5465 17.8393 27.6216 17.0581 27.9162 16.6634M27.8882 18.3056C27.9182 18.0936 28.1348 17.7469 28.2037 17.2341M1.07134 10.9026V10.9026Z" stroke="#454545" stroke-width="0.0594322" stroke-linecap="round"/>
<defs>
<clipPath id="clip0_1202_2827">
<rect width="42.0041" height="42.0041" fill="white" transform="matrix(-1 0 0 1 70.8066 0.915527)"/>
</clipPath>
</defs>
</svg>
