<svg width="92" height="48" viewBox="0 0 92 48" fill="none" xmlns="http://www.w3.org/2000/svg">
<g clip-path="url(#clip0_1302_2794)">
<ellipse cx="48.0254" cy="42.6103" rx="13.8242" ry="4.46628" fill="#DFDFDF"/>
<path d="M43.9896 2.41406C43.9896 2.41406 51.0081 7.09302 60.366 7.09302C60.366 32.8273 43.9896 39.8457 43.9896 39.8457C43.9896 39.8457 27.6133 32.8273 27.6133 7.09302C36.9712 7.09302 43.9896 2.41406 43.9896 2.41406Z" fill="#8DCBE8"/>
<path d="M48.1874 41.2508C48.1309 41.2814 48.078 41.3095 48.0287 41.3353C47.9794 41.3095 47.9265 41.2814 47.87 41.2508C47.4554 41.0266 46.8514 40.6734 46.1208 40.1689C44.6594 39.1598 42.6947 37.548 40.7249 35.1561C36.9174 30.5327 33.0383 22.9324 32.8087 10.9806C37.1893 10.8088 41.0011 9.69156 43.7752 8.58189C45.2857 7.97771 46.4967 7.37253 47.3344 6.91555C47.6054 6.76773 47.8377 6.63526 48.0287 6.52315C48.2197 6.63526 48.4519 6.76773 48.723 6.91555C49.5607 7.37253 50.7717 7.97771 52.2822 8.58189C55.0563 9.69156 58.8681 10.8088 63.2487 10.9806C63.0191 22.9324 59.14 30.5327 55.3325 35.1561C53.3627 37.548 51.398 39.1598 49.9366 40.1689C49.206 40.6734 48.602 41.0266 48.1874 41.2508Z" stroke="#454545" stroke-width="2.29129"/>
<path d="M55.2616 18.1523L47.0735 26.3405L43.3516 22.6186" stroke="#454545" stroke-width="2.29129" stroke-linecap="round" stroke-linejoin="round"/>
</g>
<path d="M81.0513 14.8738C81.7301 15.0106 82.1329 14.63 82.7058 14.4232M80.0975 15.7855C80.6004 15.5722 81.4052 15.2228 83.3144 14.6771M78.7726 16.5084C80.3879 16.0756 81.7006 15.7782 83.5087 14.9876M77.9124 17.2395C80.1003 16.5448 82.3686 15.8645 84.1191 15.3459M76.7062 17.9247C78.2461 17.2986 80.0626 16.9127 84.4813 15.1973M75.4012 18.5502C78.5688 17.6817 81.7187 16.6656 85.0555 15.605M74.3824 19.2745C78.7267 17.8613 83.1129 16.6807 85.5034 15.7283M73.432 20.0189C78.2858 18.4716 83.192 16.6692 85.8235 15.8882M72.0515 20.7222C77.5176 18.9467 83.0218 17.4429 86.2309 16.3773M70.92 21.3301C76.899 19.6912 82.6514 17.7368 86.6739 16.6158M69.8567 21.9459C73.7293 20.904 77.4668 19.67 87.0692 16.5408M69.9036 22.3991C75.2208 20.8432 80.2943 19.2578 87.529 16.8876M70.4971 22.8204C74.6124 21.1806 78.4526 19.9823 88.1999 17.0237M70.8464 22.8643C77.764 20.7241 84.7889 18.3415 88.4562 17.3094M71.23 23.216C76.3392 21.6411 81.502 19.9832 88.7949 17.6296M71.717 23.4238C77.8962 21.4673 84.5212 19.3605 89.3255 17.7659M71.9607 23.6438C75.9098 22.3567 80.0146 20.9611 89.7765 17.87M72.2006 23.8395C77.5343 22.1621 82.885 20.4875 90.2353 18.1644M72.8487 24.1891C79.7715 21.8323 86.879 19.6684 90.5191 18.4621M73.1214 24.3207C78.2682 22.6604 82.7626 21.2031 91.1057 18.7112M73.6548 24.4878C77.397 23.2445 81.1767 22.035 91.4119 18.8176M73.871 24.7509C80.1812 22.7342 86.6812 20.7919 91.8283 19.077M74.3656 24.9505C77.6291 23.8249 80.9076 22.6949 89.0426 20.2762M75.1261 25.1356C77.5291 24.2696 79.9083 23.509 86.4515 21.6217M74.2069 25.507C76.3352 25.1169 78.351 24.2192 83.7756 22.7447M73.6052 26.1608C76.194 25.3621 78.7686 24.4979 81.9525 23.7159M72.9195 26.6939C75.8547 25.9315 79.117 25.0194 82.1368 23.7994M72.0295 27.3553C74.2425 26.7617 76.4819 26.0188 82.7129 24.2137M71.462 27.9467C74.2655 27.2771 76.9614 26.3814 82.9856 24.3655M70.9802 28.4548C75.0736 27.2045 79.3348 25.8963 83.7099 24.4M70.1412 29.0697C74.9455 27.6304 80.239 26.0989 84.0264 24.6919M69.465 29.6799C73.7508 28.1246 78.2222 26.8279 84.4687 24.7754M68.6386 30.2348C72.6406 28.9967 76.3493 27.9808 85.0749 25.1229M67.9308 30.9344C73.4313 29.1109 78.7833 27.3469 85.3017 25.37M67.3163 31.3824C74.7321 29.2002 82.0404 26.6575 85.7077 25.6033M66.4235 32.0478C71.3737 30.598 76.2722 28.9165 86.3306 25.8192M66.9249 32.384C72.6943 30.5473 78.7113 28.6901 86.3084 26.0685M67.2899 32.4129C74.1259 30.2961 80.7292 28.2368 86.1568 26.3536M67.648 32.6993C71.3031 31.4649 74.7717 30.5894 81.4669 28.3519M68.2997 32.9199C71.1801 31.8274 74.0288 31.2816 77.0662 30.2422M82.2984 14.3004V14.3004Z" stroke="#676767" stroke-width="0.113932" stroke-linecap="round"/>
<path d="M10.9545 14.8738C10.2758 15.0106 9.87292 14.63 9.30002 14.4232M11.9083 15.7855C11.4055 15.5722 10.6006 15.2228 8.6915 14.6771M13.2333 16.5084C11.618 16.0756 10.3053 15.7782 8.49711 14.9876M14.0935 17.2395C11.9056 16.5448 9.63725 15.8645 7.88677 15.3459M15.2996 17.9247C13.7597 17.2986 11.9433 16.9127 7.52459 15.1973M16.6046 18.5502C13.437 17.6817 10.2872 16.6656 6.95035 15.605M17.6234 19.2745C13.2792 17.8613 8.89299 16.6807 6.50243 15.7283M18.5738 20.0189C13.7201 18.4716 8.81386 16.6692 6.18236 15.8882M19.9543 20.7222C14.4882 18.9467 8.98411 17.4429 5.77491 16.3773M21.0859 21.3301C15.1068 19.6912 9.35447 17.7368 5.33195 16.6158M22.1492 21.9459C18.2765 20.904 14.5391 19.67 4.93666 16.5408M22.1022 22.3991C16.7851 20.8432 11.7116 19.2578 4.47691 16.8876M21.5087 22.8204C17.3934 21.1806 13.5533 19.9823 3.80591 17.0237M21.1595 22.8643C14.2418 20.7241 7.21693 18.3415 3.5497 17.3094M20.7759 23.216C15.6666 21.6411 10.5039 19.9832 3.21095 17.6296M20.2889 23.4238C14.1097 21.4673 7.48469 19.3605 2.68039 17.7659M20.0451 23.6438C16.0961 22.3567 11.9912 20.9611 2.22935 17.87M19.8053 23.8395C14.4716 22.1621 9.12085 20.4875 1.77058 18.1644M19.1571 24.1891C12.2344 21.8323 5.1269 19.6684 1.48672 18.4621M18.8844 24.3207C13.7377 22.6604 9.24331 21.2031 0.900119 18.7112M18.351 24.4878C14.6088 23.2445 10.8292 22.035 0.594003 18.8176M18.1348 24.7509C11.8246 22.7342 5.32465 20.7919 0.177525 19.077M17.6403 24.9505C14.3767 23.8249 11.0982 22.6949 2.96326 20.2762M16.8797 25.1356C14.4768 24.2696 12.0976 23.509 5.55439 21.6217M17.7989 25.507C15.6706 25.1169 13.6548 24.2192 8.23028 22.7447M18.4006 26.1608C15.8119 25.3621 13.2373 24.4979 10.0534 23.7159M19.0863 26.6939C16.1512 25.9315 12.8888 25.0194 9.86909 23.7994M19.9764 27.3553C17.7634 26.7617 15.524 26.0188 9.29301 24.2137M20.5438 27.9467C17.7403 27.2771 15.0444 26.3814 9.0203 24.3655M21.0257 28.4548C16.9323 27.2045 12.6711 25.8963 8.296 24.4M21.8647 29.0697C17.0604 27.6304 11.7669 26.0989 7.97948 24.6919M22.5408 29.6799C18.2551 28.1246 13.7836 26.8279 7.53718 24.7754M23.3673 30.2348C19.3653 28.9967 15.6566 27.9808 6.93095 25.1229M24.075 30.9344C18.5746 29.1109 13.2226 27.3469 6.70414 25.37M24.6896 31.3824C17.2738 29.2002 9.96549 26.6575 6.29813 25.6033M25.5824 32.0478C20.6322 30.598 15.7337 28.9165 5.67529 25.8192M25.081 32.384C19.3116 30.5473 13.2945 28.6901 5.69742 26.0685M24.7159 32.4129C17.88 30.2961 11.2766 28.2368 5.84908 26.3536M24.3578 32.6993C20.7027 31.4649 17.2342 30.5894 10.539 28.3519M23.7062 32.9199C20.8257 31.8274 17.9771 31.2816 14.9397 30.2422M9.70747 14.3004V14.3004Z" stroke="#676767" stroke-width="0.113932" stroke-linecap="round"/>
<defs>
<clipPath id="clip0_1302_2794">
<rect width="46.7896" height="46.7896" fill="white" transform="translate(24.6328 0.5)"/>
</clipPath>
</defs>
</svg>
