<svg width="78" height="39" viewBox="0 0 78 39" fill="none" xmlns="http://www.w3.org/2000/svg">
<path opacity="0.89" d="M44.7941 1.84592C44.3966 1.44647 43.9246 1.12959 43.4051 0.913403C42.8856 0.697212 42.3288 0.585937 41.7664 0.585938C41.2041 0.585937 40.6473 0.697212 40.1278 0.913403C39.6083 1.12959 39.1363 1.44647 38.7388 1.84592L37.9138 2.67453L37.0887 1.84592C36.2857 1.03943 35.1967 0.586356 34.0611 0.586356C32.9255 0.586356 31.8364 1.03943 31.0334 1.84592C30.2304 2.6524 29.7793 3.74623 29.7793 4.88677C29.7793 6.02731 30.2304 7.12114 31.0334 7.92762L31.8584 8.75623L37.9138 14.8379L43.9691 8.75623L44.7941 7.92762C45.1918 7.52836 45.5073 7.05431 45.7226 6.53255C45.9378 6.01079 46.0486 5.45154 46.0486 4.88677C46.0486 4.32199 45.9378 3.76275 45.7226 3.24099C45.5073 2.71923 45.1918 2.24518 44.7941 1.84592Z" fill="#8DCBE8"/>
<path opacity="0.89" d="M1.30089 13.387C1.74365 12.1552 1.96881 11.0446 2.1354 10.4458M1.41559 14.5387C1.598 12.8373 2.80078 11.7856 2.85088 10.7705M1.5809 14.6747C2.28948 13.1047 2.82577 11.6829 3.56834 10.7074M2.17687 14.8123C2.71824 14.0326 2.71914 13.2721 3.9656 10.8399M2.4169 15.2769C3.47245 14.1004 3.73079 12.7092 4.35885 10.5436M3.17036 15.5291C4.22603 13.6502 5.01348 11.7726 5.4048 10.7942M3.54253 15.9091C3.9637 14.4826 4.64914 13.2753 5.80542 10.7442M4.03729 16.0099C4.83368 14.3266 5.30323 12.6903 6.59565 10.4919M4.87898 16.4683C5.41996 14.3129 6.54834 11.9435 8.06181 8.4974M5.00293 16.5996C5.97366 14.4919 7.49318 11.7026 8.71351 8.70455M5.55438 16.91C6.00758 15.335 6.87511 13.6466 8.8584 8.43459M5.81827 17.5771C7.06368 15.4626 7.73947 13.5902 9.45557 8.55434M6.4221 17.4686C7.9359 14.1988 9.48712 10.9701 10.0608 8.65404M7.11508 17.7833C8.31065 14.1503 10.2257 10.3646 10.86 8.84127M7.54605 17.9438C8.90862 14.4409 10.1979 11.1212 11.4452 9.16196M7.92788 18.201C8.57315 16.4006 9.5097 14.5186 11.5137 9.58796M8.47479 18.4107C9.1581 16.8739 9.94969 15.1579 11.928 10.2072M9.10592 19.1049C9.39058 17.5679 9.89557 15.778 12.4662 11.2056M1.47595 14.4951C1.83805 13.3101 1.8643 11.9695 2.2038 10.4515M1.9197 14.7315C1.75094 13.4518 2.31998 12.7204 2.93798 10.2378M2.20184 15.0916C2.32984 14.0097 2.98899 12.2221 3.44301 10.5635M2.40103 15.1649C3.35666 13.5119 3.96784 11.5373 4.24609 10.6028M3.02032 15.9119C3.72612 13.8952 4.27568 12.7333 4.55029 10.495M3.64659 15.8383C4.39456 14.3955 4.36889 12.7129 5.3613 10.9085M3.97668 15.9165C4.72641 14.1634 5.28671 11.8725 5.68294 10.7477M4.71745 16.5845C4.96143 14.8946 5.55033 13.6427 6.68266 10.8181M5.18875 16.4669C5.7894 13.7306 6.93932 10.9701 8.09207 8.70601M5.63618 16.6277C6.34399 14.6608 7.26035 12.5678 8.53274 8.81426M5.90341 17.5316C6.93699 14.1169 8.19187 11.4576 9.10057 8.78094M6.66142 17.2571C7.87711 14.2879 8.87529 10.7385 9.88702 8.27074M6.92151 17.5964C8.16888 14.2521 9.45199 10.6327 10.0928 8.80227M7.49048 18.0669C8.10645 16.1303 8.73753 14.2938 10.6734 8.58981M7.7894 18.5899C8.45498 16.4271 9.60001 14.1029 11.0121 9.19839M8.63569 18.6323C9.45438 15.5657 10.5959 12.6037 11.8043 9.84083M9.12744 19.0707C9.64361 16.0223 11.0485 13.5231 11.9168 10.3485M1.03359 12.1689V12.1689Z" stroke="#454545" stroke-width="0.131621" stroke-linecap="round" stroke-linejoin="round"/>
<path d="M44.882 4.71164C44.4845 4.31219 44.0125 3.99532 43.493 3.77913C42.9735 3.56293 42.4167 3.45166 41.8543 3.45166C41.292 3.45166 40.7352 3.56293 40.2157 3.77913C39.6962 3.99532 39.2242 4.31219 38.8267 4.71164L38.0016 5.54025L37.1766 4.71164C36.3736 3.90516 35.2846 3.45208 34.149 3.45208C33.0134 3.45208 31.9243 3.90516 31.1213 4.71164C30.3183 5.51812 29.8672 6.61195 29.8672 7.75249C29.8672 8.89303 30.3183 9.98686 31.1213 10.7933L31.9463 11.622L38.0016 17.7037L44.057 11.622L44.882 10.7933C45.2797 10.3941 45.5952 9.92003 45.8105 9.39827C46.0257 8.87651 46.1365 8.31727 46.1365 7.75249C46.1365 7.18772 46.0257 6.62847 45.8105 6.10671C45.5952 5.58496 45.2797 5.1109 44.882 4.71164Z" stroke="#454545" stroke-width="1.46675" stroke-linecap="round" stroke-linejoin="round"/>
<path opacity="0.74" d="M9.98483 25.5176C9.50449 23.9179 10.6558 22.2928 12.3242 22.2154L63.2088 19.8541C64.9345 19.774 66.245 21.3872 65.813 23.0599L62.2456 36.8749C61.953 38.0082 60.9308 38.7999 59.7603 38.7999H15.8823C14.7491 38.7999 13.7499 38.0567 13.424 36.9713L9.98483 25.5176Z" fill="#DFDFDF"/>
<path opacity="0.74" d="M27.9654 9.70898C27.9654 8.78527 27.2206 8.03711 26.3011 8.03711C25.3815 8.03711 24.6367 8.78527 24.6367 9.70898V18.967C24.6367 20.0328 25.057 21.0526 25.8059 21.805L29.9627 25.9804C30.462 26.482 31.1402 26.762 31.8476 26.762H34.6229C35.7255 26.762 36.6201 25.8634 36.6201 24.7558V21.458C36.6201 20.2167 36.1291 19.0255 35.2553 18.1477L34.2026 17.0903L33.5702 16.455L32.2387 15.1175C31.7186 14.595 30.8739 14.595 30.3538 15.1175C29.8337 15.6399 29.8337 16.4884 30.3538 17.0109L31.6853 18.3484L32.3177 18.9837C32.7754 19.4434 32.7005 20.2041 32.1638 20.5636C31.7602 20.8353 31.2193 20.7809 30.8739 20.434L28.7435 18.2982C28.2442 17.7966 27.9654 17.1154 27.9654 16.4048V9.70898ZM47.9378 9.70898V16.4048C47.9378 17.1154 47.659 17.7966 47.1597 18.2982L45.0335 20.434C44.6881 20.7809 44.1472 20.8353 43.7436 20.5636C43.2068 20.2041 43.1319 19.4393 43.5896 18.9837L44.2221 18.3484L45.5536 17.0109C46.0737 16.4884 46.0737 15.6399 45.5536 15.1175C45.0335 14.595 44.1888 14.595 43.6687 15.1175L42.3372 16.455L41.7047 17.0903L40.652 18.1477C39.7782 19.0255 39.2873 20.2167 39.2873 21.458V24.7558C39.2873 25.8634 40.1818 26.762 41.2845 26.762H44.0598C44.7672 26.762 45.4454 26.482 45.9447 25.9804L50.1014 21.805C50.8504 21.0526 51.2707 20.0328 51.2707 18.967V9.70898C51.2707 8.78527 50.5259 8.03711 49.6063 8.03711C48.6867 8.03711 47.9419 8.78527 47.9419 9.70898H47.9378Z" fill="#48DCA6"/>
<path d="M24.6139 23.8358V37.5317C24.6139 37.6828 24.7364 37.8052 24.8875 37.8052H37.9551M24.6139 23.8358H37.9551M24.6139 23.8358L20.5368 19.741C20.3651 19.5685 20.4872 19.2744 20.7307 19.2744H33.1861C33.3316 19.2744 33.4711 19.3324 33.5738 19.4355L37.9551 23.8358M51.2962 23.8358V37.5317C51.2962 37.6828 51.1737 37.8052 51.0226 37.8052H37.9551M51.2962 23.8358H37.9551M51.2962 23.8358L55.3733 19.741C55.545 19.5685 55.4229 19.2744 55.1794 19.2744H42.724C42.5785 19.2744 42.439 19.3324 42.3363 19.4355L37.9551 23.8358M37.9551 23.8358V37.8052" stroke="#454545" stroke-width="1.46675"/>
<path opacity="0.89" d="M66.7127 22.6108C67.9252 22.1315 68.9036 21.5679 69.461 21.2982M65.9279 23.4581C67.3195 22.472 68.899 22.6855 69.6905 22.0529M65.9354 23.6727C67.5761 23.1707 68.9923 22.6366 70.2111 22.553M66.2259 24.2136C67.1657 24.1074 67.7345 23.6057 70.3743 22.9405M66.0372 24.7017C67.6128 24.7217 68.8226 23.9979 70.8551 23.0417M66.3459 25.4373C68.4464 24.9934 70.3689 24.3478 71.3582 23.997M66.3076 25.9692C67.6514 25.345 69.0058 25.0652 71.6599 24.2665M66.5588 26.4094C68.342 25.8989 69.8745 25.1727 72.3699 24.6965M66.7718 27.3477C68.7392 26.3326 71.2541 25.6196 74.8276 24.4862M66.7554 27.5281C68.9708 26.8689 72.0576 26.1739 75.1029 25.1151M66.8874 28.1495C68.3633 27.4513 70.1973 26.9912 75.4002 25.0462M66.5631 28.7894C68.9649 28.3331 70.8098 27.6066 75.7048 25.5762M67.0427 29.1736C70.4847 28.1569 73.9207 27.1957 76.0297 26.099M67.2649 29.9047C70.7683 28.4079 74.8605 27.3535 76.4173 26.8262M67.4294 30.3362C70.9458 29.0513 74.2769 27.8322 76.5638 27.4799M67.4892 30.7944C69.2602 30.0924 71.2844 29.5565 76.2907 27.813M67.6934 31.3459C69.2926 30.8467 71.0971 30.311 76.1015 28.5348M67.5912 32.2809C68.9274 31.4807 70.598 30.6797 75.7107 29.6007M66.0003 23.4748C67.1247 22.9655 68.1436 22.0999 69.5018 21.3536M66.1165 23.9661C66.9613 22.9934 67.8833 22.9399 70.146 21.7668M66.0337 24.4169C66.9265 23.799 68.6971 23.116 70.2359 22.3633M66.1103 24.6158C67.9761 24.2455 69.8547 23.4028 70.7365 22.9956M65.9609 25.5768C67.9335 24.7777 69.1642 24.4252 71.0178 23.1542M66.4292 26.0011C68.0008 25.6129 69.241 24.4821 71.2441 24.0396M66.5886 26.3019C68.3932 25.7101 70.4746 24.62 71.5765 24.1763M66.5784 27.3025C68.0019 26.3706 69.3259 25.9883 72.1836 24.9777M66.9772 27.5807C69.4181 26.2269 72.2394 25.2718 74.6917 24.6468M67.1523 28.0248C69.089 27.2601 71.2575 26.5696 74.9016 25.0511M66.6533 28.8236C69.8867 27.3486 72.7018 26.5396 75.3012 25.4578M67.3586 29.2146C70.3794 28.1714 73.69 26.5807 76.2014 25.7147M67.2768 29.6351C70.5986 28.3681 74.1496 26.9463 75.9401 26.2211M67.3007 30.3755C69.1542 29.5615 70.9428 28.825 76.482 26.5192M67.1072 30.9466C69.1624 30.0207 71.6545 29.3502 76.2508 27.1769M67.634 31.6137C70.4655 30.2063 73.4318 29.1119 76.2936 28.1994M67.631 32.2746C70.2492 30.6508 73.0436 30.0609 75.9885 28.6198M67.4464 21.6044V21.6044Z" stroke="#454545" stroke-width="0.131621" stroke-linecap="round" stroke-linejoin="round"/>
</svg>
