<svg width="261" height="611" viewBox="0 0 261 611" fill="none" xmlns="http://www.w3.org/2000/svg">
<path d="M-271.603 33.0708C-267.432 28.158 -267.017 27.0926 -261.799 22.33M-272.246 39.721C-265.984 28.7046 -260.288 17.2323 -254.323 11.749M-272.637 41.9185C-268.431 32.5264 -261.042 21.174 -249.974 10.0156M-274.638 47.2107C-262.29 32.1925 -252.442 20.7012 -247.518 9.27355M-274.177 51.4936C-266.334 36.7628 -255.645 25.2332 -239.16 3.95456M-274.981 52.691C-263.668 39.5197 -252.926 25.5548 -238.615 3.96604M-273.43 56.1993C-263.937 38.0869 -247.655 22.1079 -233.189 0.945516M-274.583 59.5466C-260.439 38.3756 -247.624 20.4208 -231.02 1.91639M-276.078 62.85C-257.267 43.1671 -244.1 19.6646 -230.037 3.69343M-273.517 65.2902C-253.488 43.4001 -239.425 17.772 -227.23 1.44537M-271.388 69.7637C-260.087 51.2184 -244.957 28.5316 -225.447 1.05243M-271.891 71.447C-258.624 52.601 -248.066 38.4176 -220.261 3.76369M-271.88 73.4638C-261.796 57.3333 -249.247 42.4901 -219.312 2.25705M-269.026 73.6264C-253.006 50.8427 -235.105 27.6972 -216.659 3.18801M-270.283 77.5786C-257.918 60.4104 -246.167 44.4038 -215.594 2.23117M-265.773 80.4961C-256.127 61.7276 -245.827 50.0488 -211.943 4.1844M-268.298 79.812C-249.2 55.6819 -231.626 30.1737 -209.935 3.16237M-264.589 82.3299C-243.369 52.7911 -222.851 20.6157 -210.068 5.10883M-263.312 83.1969C-251.378 64.1801 -235.57 45.411 -207.437 3.11901M-261.434 84.3808C-252.884 67.6625 -237.952 50.1955 -205.591 6.50225M-260.626 85.7775C-247.091 64.6779 -233.869 43.5569 -204.544 6.31309M-261.72 90.8997C-244.002 64.343 -225.647 40.7856 -202.171 5.14672M-260.981 89.4643C-245.366 70.2206 -230.513 47.9155 -201.448 7.88664M-258.561 92.9285C-242.519 70.1303 -225.313 48.7998 -196.294 7.33447M-255.854 92.388C-240.371 74.5642 -225.203 51.6004 -196.517 11.1249M-257.157 94.7518C-240.425 71.9095 -222.993 51.7687 -194.365 9.65824M-252.695 97.7627C-230.942 64.7521 -208.62 35.3445 -193.198 12.9341M-252.733 97.8101C-236.58 79.1344 -220.791 57.5857 -192.663 12.2476M-250.501 100.203C-239.141 82.1477 -224.342 63.924 -191.102 14.2103M-249.755 101.25C-230.263 73.8643 -214.687 48.4269 -187.651 13.8584M-249.611 104.452C-231.835 79.6547 -213.825 53.9616 -185.718 16.8654M-246.124 105.305C-227.193 71.0934 -202.565 40.9276 -184.641 19.6803M-247.545 105.093C-232.527 87.8633 -220.487 68.2704 -183.461 21.1767M-243.552 107.647C-225.545 81.9749 -204.744 54.0723 -182.377 20.4556M-245.014 108.113C-226.666 82.2742 -208.183 58.6635 -181.634 22.1499M-241.494 111.844C-222.01 80.7869 -200.465 53.186 -179.731 25.7101M-239.052 113.128C-227.996 95.7614 -214.474 76.1767 -177.43 26.3423M-238.356 114.72C-219.233 86.1031 -198.879 58.7036 -177.42 28.8276M-237.404 114.071C-218.923 90.756 -201.401 66.8335 -175.422 29.2848M-235.232 114.625C-217.729 91.2344 -198.616 64.5146 -173.763 32.7647M-233.643 117.773C-212.505 82.6401 -189.754 49.7745 -173.577 34.7195M-232.038 119.458C-215.238 91.5804 -195.155 65.6555 -171.782 34.3043M-230.053 119.495C-210.69 92.1825 -192.413 66.4772 -172.792 37.3721M-231.896 123.027C-216.054 105.626 -203.219 86.1951 -171.46 38.6341M-230.086 121.717C-210.42 95.5096 -193.469 71.3193 -168.803 40.3093M-227.328 125.414C-209.305 98.7398 -194.26 73.8784 -165.311 41.1022M-226.977 124.007C-201.661 93.3406 -178.546 59.7296 -165.909 41.2404M-223.307 128.506C-210.546 110.432 -196.067 92.6153 -165.485 42.6225M-221.509 128.739C-203.967 102.478 -185.682 75.3752 -161.148 46.1074M-222.54 128.741C-201.447 102.38 -184.93 78.0146 -160.975 44.9799M-220.145 130.202C-207.018 113.411 -193.899 95.3723 -158.51 47.687M-218.693 132.476C-200.772 108.212 -182.992 84.2584 -158.092 48.9691M-215.247 134.595C-205.315 117.691 -194.71 101.338 -155.184 51.053M-216.988 133.664C-196.513 111.448 -180.396 87.5672 -155.594 52.2927M-215.245 136.475C-192.647 110.524 -175.175 81.3376 -153.565 53.1553M-213.231 138.314C-192.835 111.234 -174.057 81.1738 -152.784 54.7715M-209.623 137.723C-195.873 118.305 -180.953 99.2091 -151.928 56.1592M-208.657 140.764C-190.921 117.628 -174.744 94.5666 -149.376 54.9406M-208.441 141.391C-192.234 119.855 -178.366 95.825 -148.844 56.9125M-206.189 141.758C-188.672 120.191 -170.512 96.3234 -146.669 59.3937M-206.128 142.302C-188.946 121.02 -174.957 98.1655 -143.299 60.2519M-203.539 145.148C-183.904 113.513 -159.581 81.8001 -144.832 60.5002M-200.006 147.637C-181.351 116.506 -158.921 86.8629 -143.006 60.9587M-199.182 148.347C-187.097 130.351 -175.591 110.57 -139.96 64.1267M-196.665 148.137C-179.9 124.211 -164.742 100.247 -138.521 63.8674M-196.305 147.77C-178.181 123.952 -159.968 101.976 -135.181 65.6646M-196.769 149.958C-176.596 125.143 -154.302 99.1365 -136.503 66.6079M-193.514 153.019C-180.413 131.043 -162.194 110.105 -132.825 67.2955M-191.337 154.163C-175.689 132.258 -160.592 109.267 -132.711 70.969M-188.63 153.265C-166.089 122.869 -145.258 93.2305 -131.97 69.6576M-189.632 155.686C-175.929 137.526 -162.904 117.153 -127.273 70.7461M-186.406 155.992C-165.292 128.49 -148.013 98.3539 -125.285 72.5809M-185.131 156.889C-172.881 137.548 -157.693 120.174 -124.16 74.9977M-182.615 157.717C-165.48 133.761 -147.879 108.612 -124.122 75.3715M-182.518 161.359C-162.405 130.662 -141.589 101.916 -122.198 78.0611M-180.676 159.964C-165.727 143.04 -152.75 125.101 -120.98 76.4864M-177.252 160.34C-164.363 141.968 -151.73 121.581 -120.33 78.9628M-178.098 162.058C-154.408 130.222 -129.592 98.7467 -117.289 78.9722M-176.689 162.924C-159.247 137.448 -141.237 114.43 -114.116 80.5796M-174.513 166.104C-160.619 141.917 -144.895 122.541 -114.827 81.8676M-173.614 166.484C-158.109 145.081 -141.467 125.834 -111.645 82.7761M-170.275 168.787C-155.302 145.813 -139.223 123.209 -109.11 85.9758M-170.263 169.565C-144.734 137.752 -121.34 105.97 -109.562 84.445M-167.401 169.238C-152.155 145.542 -135.199 120.264 -107.524 86.8824M-164.175 170.04C-141.071 137.445 -118.021 102.871 -107.602 86.1421M-163.433 170.714C-147.304 144.872 -127.693 121.695 -105.2 89.1575M-162.764 172.665C-140.765 143.639 -118.735 116.161 -102.02 88.1117M-160.204 175.027C-142.727 148.414 -124.396 124.226 -101.487 89.4351M-159.248 175.635C-144.757 157.731 -127.954 137.195 -100.473 91.7902M-156.904 174.845C-145.245 158.329 -130.628 138.216 -97.1982 92.0354M-154.668 177.942C-142.67 158.088 -132.2 140.618 -95.5515 92.2598M-152.168 176.81C-136.336 153.071 -117.261 128.922 -92.9371 95.5216M-153.51 177.687C-133.793 155.082 -116.968 128.304 -90.552 96.8492M-148.71 179.892C-133.938 155.818 -115.02 129.371 -90.1733 95.7777M-148.483 181.527C-125.379 150.952 -103.055 120.349 -87.7906 99.2024M-146.285 180.549C-125.776 149.728 -103.171 118.689 -88.3729 97.4502M-143.674 182.628C-129.97 163.44 -115.42 143.536 -83.7426 100.724M-144.911 182.772C-130.539 165.515 -118.283 147.332 -84.9569 101.036M-143.656 184.041C-117.032 151.757 -97.0017 122.309 -82.0303 103.004M-141.007 187.07C-123.383 164.773 -105.557 140.389 -80.2723 103.174M-138.478 187.079C-123.816 170.148 -113.456 151.686 -78.4826 105.203M-137.261 188.032C-119.835 160.292 -98.606 133.189 -76.2153 104.072M-134.07 189.223C-120.295 167.526 -102.657 143.448 -76.4778 106.888M-132.426 188.736C-116.757 169.899 -101.424 147.279 -72.5067 108.231M-131.71 190.641C-109.092 164.656 -91.9557 137.421 -70.5602 107.69M-130.197 191.895C-105.747 162.347 -81.8695 129.568 -71.6634 108.9M-130.16 192.399C-114.001 175.709 -101.731 160.786 -68.8557 109.393M-126.819 194.232C-113.173 178.599 -100.598 159.365 -67.3926 109.497M-125.104 195.574C-106.128 166.368 -86.6869 139.703 -66.5357 111.03M-123.966 197.137C-100.465 163.414 -78.2696 130.12 -63.4874 112.156M-121.92 196.937C-105.323 174.936 -91.9641 154.507 -60.0819 113.498M-121.426 198.605C-101.41 174.035 -81.501 144.732 -58.2672 113.802M-117.184 198.694C-102.139 178.991 -83.1024 153.136 -57.1367 116.01M-117.878 199.923C-97.4638 176.324 -78.4745 147.856 -55.5608 116.679M-115.301 200.081C-94.9319 173.77 -73.5498 143.917 -54.3766 117.555M-114.333 203.216C-97.9073 180.636 -81.5736 161.178 -52.5588 120.642M-111.161 204.609C-91.8653 177.577 -72.5168 147.97 -51.6203 118.442M-109.252 204.305C-95.1151 184.465 -81.5646 166.631 -50.6532 122.418M-107.423 204.29C-95.2883 186.864 -80.6296 165.709 -47.0314 122.192M-106.068 205.088C-89.1236 184.959 -73.1924 163.232 -47.7856 123.723M-105.467 209.666C-82.5619 179.285 -59.0142 148.673 -45.2872 124.946M-104.473 209.034C-77.007 175.1 -55.4151 143.357 -41.5243 123.547M-101.718 209.874C-87.4643 189.051 -72.3129 168.919 -40.8916 128.177M-99.4565 212.481C-80.3848 185.347 -63.8358 161.451 -37.4364 128.327M-96.2128 212.979C-78.1703 188.041 -58.1856 158.805 -37.384 126.634M-95.0725 211.99C-83.2963 193.889 -69.224 174.594 -35.2251 130.397M-94.6349 212.427C-77.133 193.171 -62.5431 170.439 -34.5634 129.712M-91.2837 214.247C-69.9873 187.13 -50.9108 159.152 -32.1486 131.899M-91.6707 217.227C-72.0967 185.107 -52.3119 157.542 -32.1498 132.052M-88.0106 215.475C-77.4715 200.083 -63.8489 182.43 -27.3629 133.4M-86.099 217.223C-66.9662 186.467 -42.961 157.114 -28.6221 134.083M-85.2796 220.632C-72.54 200.683 -58.5206 180.141 -27.2629 135.766M-84.9536 218.858C-68.5486 193.483 -48.4339 169.085 -24.9937 137.28M-80.8557 219.33C-64.4701 197.013 -46.7963 174.168 -23.2327 136.373M-80.259 221.646C-62.7451 195.842 -45.0418 174.508 -20.2639 137.046M-79.6508 221.915C-63.7417 202.11 -45.931 179.359 -20.4329 137.943M-77.1336 224.232C-64.1648 207.586 -52.2878 187.392 -16.0994 139.845M-76.5006 226.065C-61.5033 203.722 -43.3638 182.91 -15.7812 142.117M-75.1124 225.667C-52.0427 195.976 -32.0523 169.018 -14.8605 142.271M-71.0375 226.835C-53.8314 197.485 -30.6187 169.644 -10.9759 143.283M-277.717 516.621C-274.337 507.565 -267.053 499.066 -261.857 496.829M-71.4443 228.741C-53.7808 203.504 -34.7813 181.589 -11.7036 146.142M-279.849 523.047C-274.891 513.846 -264.686 504.303 -257.295 493.792M-70.0997 230.943C-51.2679 201.238 -29.7619 176.5 -10.061 146.14M-280.369 527.853C-272.616 517.814 -266.197 506.682 -252.285 490.211M-66.0077 230.713C-43.1281 199.807 -18.8997 164.392 -8.13268 146.767M-280.479 530.745C-271.24 519.167 -261.064 502.267 -251.564 489.492M-64.756 231.803C-45.8715 205.257 -29.9155 182.083 -5.31785 149.569M-281.899 538.268C-272.231 519.61 -258.721 507.074 -246.176 489.925M-63.6139 233.26C-44.4953 206.405 -24.7863 178.094 -4.18337 149.59M-281.623 539.533C-267.615 522.603 -254.046 504.798 -242.889 486.629M-61.1343 234.295C-40.881 206.068 -19.8349 176.28 -3.12915 149.377M-280.858 544.09C-264.66 521.186 -250.06 502.282 -241.988 488.536M-61.2455 235.646C-38.571 200.297 -13.9928 169.479 1.04469 151.4M-282.449 544.836C-266.666 526.39 -251.184 506.956 -237.869 488.38M-57.4692 234.345C-36.8278 203.723 -14.5535 173.243 2.20308 153.255M-279.656 550.232C-271.073 533.482 -257.226 517.154 -235.994 488.102M-58.5884 235.429C-35.751 206.78 -17.3336 180.544 4.70091 153.884M-280.144 553.245C-270.04 537.111 -256.693 519.888 -232.362 485.682M-56.826 237.667C-35.9778 208.633 -17.0313 183.271 6.3977 154.166M-280.914 552.79C-267.805 537.783 -255.413 520.489 -231.566 485.689M-52.9774 236.95C-33.9764 211.435 -14.564 185.224 7.19559 155.323M-277.1 557.079C-262.145 531.094 -241.959 503.08 -228.416 485.645M-50.0575 238.178C-31.0909 214.072 -11.3344 188.806 9.00356 154.585M-277.779 558.352C-264.974 538.276 -250.604 522.601 -227.258 486.239M-51.7319 240.944C-29.178 211.793 -11.1085 182.544 11.3274 156.588M-275.268 560.308C-260.803 536.766 -243.529 517.227 -224.3 486.835M-49.2496 240.403C-35.5104 224.421 -19.3407 207.577 11.815 156.996M-275.803 562.392C-262.668 541.484 -247.084 525.263 -222.921 488.978M-45.1388 241.096C-28.3054 220.441 -12.9705 196.497 13.5894 160.087M-275.208 564.262C-261.618 541.641 -246.441 522.705 -220.808 487.287M-45.9291 244.648C-24.5259 213.657 -3.64993 186.546 15.1845 159.26M-273.283 564.483C-251.249 536.014 -230.649 506.587 -216.291 487.186M-44.8084 244.126C-25.2084 217.843 -5.90404 191.758 15.6062 159.944M-272.576 567.089C-256.314 545.531 -237.578 521.495 -216.246 488.107M-43.0609 246.15C-22.2434 213.404 1.12203 183.514 19.0446 163.604M-272.384 570.113C-249.974 536.082 -226.666 506.78 -215.194 487.572M-39.0574 248.451C-16.965 217.188 1.78743 187.296 19.4993 162.212M-270.992 569.641C-255.616 552.095 -242.541 535.163 -212.508 488.987M-38.7569 247.721C-17.2425 217.127 7.02436 187.761 20.8125 163.909M-269.855 573.416C-254.787 552.639 -238.08 530.781 -211.105 491.764M-36.4954 250.12C-18.0641 220.999 1.80415 195.351 23.1873 165.991M-267.465 574.415C-244.578 542.3 -221.787 509.386 -206.012 492.427M-33.6046 250.995C-15.6652 222.339 5.52998 193.955 24.579 167.169M-264.983 575.668C-246.601 549.403 -229.362 526.761 -206.326 491.575M-31.7314 249.419C-7.01243 217.824 13.8523 182.935 26.0978 168.113M-262.548 575.961C-242.59 544.676 -218.793 515.881 -203.686 492.589M-29.7958 251.497C-10.2034 224.189 9.69326 193.832 30.2558 166.323M-261.978 578.384C-248.579 557.413 -235.639 539.963 -201.154 491.737M-30.7015 252.122C-8.02758 226.208 9.54676 197.487 30.5704 169.47M-259.673 578.101C-243.582 555.528 -226.14 532.874 -198.538 493.657M-26.5921 252.843C-3.93144 224.669 18.6418 192.421 33.5527 169.948M-258.294 580.573C-243.238 558.751 -229.219 537.523 -196.491 493.706M-25.4198 256.041C-14.2408 233.513 3.65602 214.792 34.9115 169.964M-258.878 581.464C-237.199 556.684 -219.237 529.623 -196.466 494.476M-23.9814 257.459C-2.93165 225.598 20.8761 192.46 34.3167 172.651M-255.192 583.366C-236.788 555.469 -219.817 530.655 -192.541 494.13M-22.8963 255.999C-8.67249 235.43 7.90745 215.365 37.4279 172.177M-255.997 582.694C-241.367 560.143 -226.078 539.413 -191.604 494.64M-21.2517 258.953C-8.20206 238.106 6.3266 220.474 39.0586 172.744M-252.885 584.734C-233.957 559.207 -218.679 533.558 -190.619 496.206M-21.1062 258.831C-0.459151 235.913 13.8718 213.791 39.7025 176.261M-250.605 586.413C-230.757 558.704 -215.458 534.27 -185.532 497.241M-16.8061 261.418C-1.1746 235.512 15.2654 211.849 41.3725 177.466M-248.164 583.963C-225.585 555.466 -203.865 523.317 -186.191 497.243M-16.1758 260.657C-2.60605 239.178 14.2634 216.497 44.2746 177.859M-247.383 587.942C-228.589 564.361 -213.937 539.057 -182.248 498M-13.12 260.765C4.38155 239.847 21.3375 213.436 45.1703 177.717M-242.903 586.658C-231.139 566.048 -216.696 545.53 -179.988 498.733M-12.6896 261.982C8.72279 232.681 30.9827 198.435 49.1551 181.162M-242.69 589.018C-220.834 554.387 -194.708 522.311 -176.675 498.578M-10.3777 263.995C9.79278 235.579 26.1111 210.575 48.4909 179.278M-242.414 589.185C-223.291 560.854 -206.056 538.796 -175.447 496.524M-8.19477 263.667C2.41617 246.014 17.7719 227.176 50.1979 181.861M-239.876 589.204C-219.318 564.615 -203.163 537.572 -172.907 498.712M-7.24666 266.549C15.4568 234.409 41.864 199.739 51.7369 181.215M-236.401 589.29C-220.157 565.629 -201.711 538.797 -171.671 500.584M-6.16985 268.117C10.1152 240.299 29.8307 215.956 53.3258 182.811M-235.046 589.27C-220.257 570.648 -204.231 545.362 -170.522 499.076M-5.62359 268.123C21.0122 232.391 43.6653 200.152 56.484 185.376M-233.144 590.662C-218.111 572.243 -204.687 554.234 -168.579 501.566M-1.03703 269.56C22.8906 236.435 44.9545 204.189 59.0373 184.96M-230.785 592.511C-218.192 569.788 -202.573 553.285 -165.948 500.74M-1.93058 271.992C21.9074 240.889 43.7417 209.105 60.6743 188.003M-229.423 592.199C-204.947 555.425 -177.539 520.614 -164.479 501.538M1.19947 272.729C12.9238 254.988 24.4083 235.927 61.5449 186.855M-224.887 593.189C-206.41 564.639 -184.252 534.948 -162.798 499.929M2.49239 272.678C17.2616 253.239 29.4825 235.809 61.4108 187.43M-223.533 593.806C-206.799 571.683 -188.571 547.621 -157.813 503.18M2.87218 274.965C17.4735 256.235 29.1472 236.818 64.1883 188.715M-223.59 593.756C-205.295 572.721 -189.546 550.358 -157.424 501.107M4.93319 273.432C18.7306 255.251 30.3936 237.232 66.8738 189.15M-222.209 592.931C-205.159 570.469 -189.483 547.845 -153.844 503.025M7.50337 276.295C26.2531 248.125 48.3973 223.533 67.0289 190.798M-217.162 594.8C-204.173 571.625 -189.428 553.05 -151.931 502.416M8.88056 276.944C31.0475 243.197 57.2537 210.41 68.1881 193.294M-217.407 594.141C-198.23 567.945 -178.553 540.003 -151.444 502.478M12.4738 276.285C24.7919 258.607 37.226 236.627 71.9916 192.606M-215.511 594.374C-199.739 575.867 -183.909 554.006 -148.386 504.141M13.2305 277.927C32.4916 248.788 56.0809 221.056 72.6825 196.507M-213.773 596.449C-191.264 568.168 -171.86 541.191 -146.84 504.43M13.6571 280.937C37.3339 245.998 63.4518 214.256 73.9781 196.927M-210.824 595.159C-195.025 572.185 -177.144 549.971 -143.748 505.286M15.7985 279.821C38.652 247.777 65.2635 215.756 75.7554 195.262M-209.456 597.354C-195.081 576.875 -179.132 554.721 -140.782 502.719M18.8857 282.551C30.1453 262.212 45.1554 242.243 76.337 196.717M-206.537 598.475C-188.299 573.049 -171.685 551.702 -138.763 504.43M17.9062 281.549C42.3647 254.596 64.4809 222.178 81.3096 200.112M-203.172 599.013C-177.985 563.754 -155.249 530.247 -135.732 504.628M22.8189 284.285C40.6596 258.468 62.0934 229.506 81.2203 199.673M-203.617 599.428C-180.216 571.218 -161.918 540.526 -134.039 506.571M22.4059 283.846C40.9156 259.09 60.6177 235.698 84.3654 201.292M-199.983 600.21C-181.964 572.999 -166.704 551.017 -132.859 504.31M25.4772 285.968C42.2567 264.653 55.0701 241.446 86.6911 203.294M-197.269 600.202C-177.001 571.121 -157.157 539.78 -129.161 504.054M25.9823 285.49C46.1776 259.904 66.7726 231.752 86.3792 202.391M-196.292 599.443C-176.921 575.518 -160.727 549.962 -129.52 504.467M26.8942 287.69C49.9608 255.493 70.5923 225.221 88.6281 203.86M-194.904 599.958C-180.339 577.589 -163.554 558.171 -124.906 506.472M30.4781 289.38C44.646 271.46 57.9981 250.404 88.9323 204.118M-191.265 599.358C-170.499 574.655 -154.269 550.431 -124.617 507.503M31.9747 290.718C50.8772 260.162 72.1263 236.057 92.0866 206.828M-190.117 600.996C-169.496 570.526 -147.197 543.599 -119.618 507.86M32.0582 292.285C53.6945 262.275 72.5746 235.26 92.2645 206.668M-186.068 600.425C-160.069 566.142 -133.599 531.969 -120.06 505.711M35.1658 292.989C55.1224 265.591 70.8655 239.882 95.4521 209.211M-186.261 601.365C-160.358 566.519 -136.736 534.521 -115.626 506.568M37.6629 290.999C57.3371 266.969 74.0651 241.095 97.4211 209.953M-183.698 603.333C-158.772 568.284 -132.757 535.39 -114.418 507.613M38.1297 293.069C61.9855 264.822 83.7449 232.266 100.154 208.199M-181.693 603.191C-152.542 565.365 -128.134 529.585 -111.236 507.768M39.1474 293.685C56.4691 270.348 74.4874 245.952 99.2145 210.183M-176.862 603.845C-157.588 577.835 -139.621 549.765 -110.987 506.005M41.1562 295.656C55.0315 278.545 66.5022 258.429 101.522 212.713M-177.678 604.42C-161.663 582.801 -147.888 559.985 -106.801 506.861M43.2807 295.771C64.5006 267.101 84.1698 237.024 102.763 211.442M-174.74 602.211C-156.363 581.588 -142.503 557.858 -104.438 508.14M44.8828 297.123C61.2364 277.727 75.4117 252.549 107.639 214.931M-170.932 604.463C-155.616 583.439 -141.61 560.763 -103.215 506.003M46.0848 298.685C64.1109 276.21 80.462 253.617 107.743 215.579M-168.93 604.995C-152.129 581.92 -136.621 560.476 -99.1343 507.035M48.6297 299.09C65.5973 276.248 83.7222 250.693 109.013 215.33M-165.506 602.484C-142.181 567.263 -116.873 534.665 -98.3797 507.713M50.906 299.866C69.6788 275.458 85.9298 251.373 111.527 217.598M-165.437 603.339C-138.153 566.374 -109.971 529.955 -96.0012 508.112M53.8426 302.687C64.6264 282.228 75.8575 264.714 112.358 217.788M-163.374 604.409C-147.005 586.164 -133.509 563.491 -91.5336 506.713M53.3088 303.69C69.2248 276.666 87.3832 251.404 116.219 218.756M-161.008 603.789C-143.623 583.917 -130.722 562.395 -89.7154 507.303M54.6292 302.01C78.9072 274.341 98.4108 245.534 117.947 218.026M-156.788 606.059C-143.855 583.269 -129.913 559.448 -87.5786 505.318M59.0664 303.135C75.513 277.911 92.5931 253.249 116.882 219.681M-156.66 605.662C-140.611 587.303 -125.83 564.301 -85.2442 504.567M58.5506 305.644C77.7245 284.968 93.6821 260.967 120.433 221.538M-153.541 606.03C-130.354 576.941 -110.312 548.49 -80.5773 504.982M61.6352 307.105C80.8384 282.089 96.5182 256.857 121.34 220.873M-149.477 605.276C-127.339 569.875 -99.1735 533.831 -78.179 503.79M62.7077 307.967C83.7944 278.852 106.027 249.341 122.679 223.711M-147.357 604.855C-133.339 583.869 -116.975 562.463 -76.4373 505.372M63.711 307.916C77.0229 288.083 90.678 271.875 125.487 223.183M-147.056 605.983C-117.67 567.584 -90.7429 527.526 -74.6761 505.487M68.2724 309.048C81.6816 287.167 99.1241 262.293 126.211 225.939M-143.276 606.34C-127.581 582.74 -108.117 553.7 -73.3696 505.054M68.0352 308.499C82.2827 290.541 93.6836 274.619 127.937 225.151M-143.32 605.705C-120.643 572.354 -95.2427 540.275 -68.9209 506.355M69.2574 309.931C91.8606 282.259 115.768 252.456 130.314 226.265M-139.065 605.734C-114.834 571.845 -86.6998 536.328 -67.0023 505.286M73.532 311.855C92.1477 281.556 113.429 253.222 133.983 227.774M-138.588 608.453C-116.628 581.671 -99.5132 552.632 -63.5154 505.295M73.8219 311.437C89.4516 288.611 104.926 267.57 135.494 228.623M-135.881 607.653C-120.423 583.672 -102.556 558.574 -61.421 505.515M74.5751 312.365C101.02 280.997 124.512 247.098 136.947 230.396M-133.677 606.453C-112.331 579.884 -93.2082 548.891 -59.8315 503.358M77.3583 313.39C92.2416 290.437 108.131 266.753 137.361 229.531M-130.862 608.244C-114.842 582.919 -96.3737 558.259 -57.8432 503.342M79.8714 314.717C100.5 287.412 122.791 258.166 137.923 229.882M-127.834 607.419C-115.4 587.093 -98.2716 565.3 -54.5894 504.755M78.9942 315.722C99.6464 288.826 119.108 259.701 142.068 232.283M-127.418 609.893C-102.17 574.113 -76.7754 536.457 -49.6048 503.309M81.1894 316.251C106.3 285.825 130.299 251.113 143.298 232.827M-123.574 607.677C-99.8417 573.816 -73.4279 536.142 -48.6668 502.168M82.6708 318.196C96.3024 299.737 109.493 284.918 146.778 234.071M-123.077 610.088C-103.591 588.049 -87.7301 565.696 -46.4297 503.375M86.1184 317.69C108.852 288.391 128.901 257.753 145.719 236.174M-117.721 610.222C-100.082 583.395 -83.522 559.105 -42.295 503.356M86.3854 319.197C99.446 303.368 113.323 284.544 149.737 236.213M-116.975 610.663C-95.8636 579.291 -74.8201 552.796 -39.3137 502.603M90.2208 321.916C113.759 287.697 139.563 254.304 149.934 235.216M-116.108 609.342C-87.0329 568.604 -58.2152 528.376 -38.2639 502.69M91.1936 320.65C115.688 288.865 138.42 257.328 151.928 235.8M-111.822 610.359C-87.9425 578.737 -66.1589 547.457 -33.3827 501.742M94.4298 321.639C111.83 299.422 130.147 272.298 153.074 236.151M-109.156 607.646C-79.651 568.077 -51.3052 530.48 -32.4119 500.723M96.1313 322.914C110.756 303.759 122.977 283.439 157.303 239.118M-108.323 608.387C-87.7663 577.384 -64.2417 547.581 -27.653 500.312M97.1297 325.88C114.066 296.488 136.766 270.95 159.409 239.379M-104.727 610.214C-78.947 568.836 -51.8411 530.12 -25.4396 498.996M99.8622 325.461C115.447 301.969 135.136 275.648 159.641 240.969M-103.54 609.661C-80.9521 579.197 -57.8916 550.222 -23.7007 499.086M100.015 327.482C116.389 302.571 131.674 282.018 161.592 240.761M-101.043 610.842C-73.4813 571.513 -49.005 535.932 -19.6627 496.909M103.163 326.129C121.741 301.376 141.112 272.832 162.536 242.206M-97.4022 608.283C-73.5417 571.322 -46.3758 535.319 -16.8815 497.339M102.503 326.93C119.469 303.729 135.142 283.085 164.975 242.884M-95.5738 608.684C-71.899 579.491 -51.1601 545.921 -15.3505 498.389M106.173 328.226C120.192 309.544 133.992 287.157 167.923 244.411M-93.0081 608.675C-75.9209 582.914 -58.9383 560.754 -13.0795 498.104M108.157 330.425C127.732 304.111 145.24 277.859 170.665 244.796M-89.8678 609.279C-65.2842 573.984 -41.2488 542.382 -9.63088 497.51M108.917 331.95C124.863 308.835 137.615 289.958 169.508 245.441M-86.766 609.835C-71.389 586.934 -52.4584 562.28 -6.49026 495.728M111.277 331.995C131.662 301.47 151.36 272.495 171.198 245.968M-86.5706 610.445C-61.9009 576.766 -36.2164 541.84 -3.4226 494.978M114.807 331.18C130.251 307.057 146.952 281.598 173.393 247.772M-82.1005 610.188C-58.9349 577.916 -35.6782 545.966 -0.721989 495.041M114.83 333.146C135.967 302.818 159.842 276.804 174.943 249.291M-79.3558 607.888C-55.5946 576.05 -29.3937 542.4 3.54268 493.927M115.41 333.496C140.835 302.05 163.477 269.032 179.454 248.225M-77.6737 610.414C-56.0328 579.154 -34.5169 546.784 5.54145 492.776M118.097 336.533C138.088 308.548 156.295 281.139 181.131 249.559M-74.9185 608.821C-52.6399 578.68 -31.2356 546.367 10.3388 490.77M119.531 335.993C137.626 310.614 155.227 287.439 180.623 251.463M-73.9815 610.528C-48.7219 575.522 -23.2958 542.672 12.3779 491.924M74.5971 405.258C77.8571 398.93 82.9476 394.373 88.7757 385.504M123.443 335.69C147.602 303.895 169.751 270.446 183.314 249.795M-70.9844 609.147C-36.9509 565.681 -4.72342 521.545 16.1278 488.573M71.1732 413.731C74.1757 405.05 80.2802 395.325 93.465 380.685M122.562 339.142C147.468 303.929 171.638 273.503 184.038 251.923M-68.1227 608.566C-38.5949 568.844 -6.85638 525.002 19.5658 488.52M64.7911 424.177C72.3306 412.103 79.2712 401.996 99.0714 376.773M125.573 338.747C150.438 304.974 172.825 271.623 189.262 253.426M-66.3767 609.559C-48.1535 583.231 -29.9265 561.022 21.9887 487.729M66.5179 426.158C76.7071 412.992 85.6528 399.207 100.355 373.974M127.104 340.524C146.577 314.345 163.957 290.24 190.362 254.102M-62.9855 606.963C-38.3091 573.301 -11.6028 537.33 25.7151 487.137M63.5184 431.774C73.5714 416.752 82.5618 406.065 105.871 373.633M129.555 338.857C149.364 314.512 169.76 287.317 189.794 254.723M-61.705 606.839C-35.6964 573.566 -12.0586 538.415 28.2889 485.318M64.7872 432.552C78.1645 416.452 88.1589 400.481 109.599 372.763M130.253 341.061C144.791 323.275 156.835 307.542 191.592 256.414M-57.3187 606.231C-35.3688 574.037 -14.182 543.546 32.1086 483.513M63.9187 436.022C83.1248 409.499 103.507 385.876 115.517 369.807M133.188 341.339C156.262 306.625 180.844 273.127 192.835 258.82M-55.232 608.609C-22.9223 563.847 6.78917 521.485 35.9864 480.751M64.3678 440.742C80.3691 418.941 96.3735 396.862 118.263 368.231M136.991 344.047C154.458 317.947 170.485 292.044 195.431 258.388M-51.3526 605.842C-28.1967 569.883 -2.26945 533.181 38.8226 481.791M63.8146 444.955C85.4262 412.453 107.359 386.264 121.133 368.729M138.156 344.617C155.856 314.571 172.716 291.067 197.987 259.595M-49.0626 606.521C-22.6133 568.126 3.34671 533.249 41.1871 479.347M66.4338 446.346C85.2295 421.304 103.414 394.972 122.789 368.515M140.086 343.362C153.062 325.479 167.576 307.481 197.671 259.677M-48.2613 605.601C-17.9648 565.264 12.9656 523.556 45.0824 476.611M66.1542 449.688C82.6887 425.55 101.117 402.372 125.092 367.334M139.632 344.425C162.44 316.527 181.805 291.469 199.317 261.705M-43.1162 606.987C-18.0232 566.266 10.6318 527.899 49.5501 475.622M66.4912 452.072C80.0981 431.841 93.3542 413.042 127.001 366.38M143.309 346.664C164.844 314.227 186.59 285.065 204.19 263.595M-42.4184 604.977C-13.4019 567.885 13.7333 527.652 51.636 474.207M67.0537 452.743C86.6249 426.557 104.302 401.729 132.307 366.691M143.723 345.808C158.189 327.569 169.09 307.515 205.656 261.566M-39.475 605.118C-10.8364 566.23 20.4013 525.988 55.7086 474.919M69.9847 457.127C88.4187 427.211 107.409 398.823 134.531 364.075M144.935 347.327C160.458 327.77 174.531 308.479 206.334 263.844M-36.1447 606.042C-17.0013 577.625 7.06193 547.769 59.9474 472.276M69.8349 459.526C82.3898 437.651 99.319 418.021 135.734 363.94M146.343 350.4C166.801 323.186 186.718 294.87 206.386 263.986M-33.0466 604.443C0.293904 557.07 37.6058 509.517 62.5651 470.346M68.8168 459.329C88.7677 431.35 107.883 404.545 139.631 365.057M149.264 349.845C168.045 321.097 188.566 295.658 208.331 265.424M-32.1511 606.295C-0.739664 562.252 30.006 519.308 67.0782 469.194M70.6175 463.446C98.8599 423.956 123.88 386.565 142.636 362.672M150.637 352.668C168.006 330.322 183.466 307.053 211.239 268.941M-29.4873 603.903C-6.13454 576.47 13.5082 546.09 70.6377 465.823M71.6845 463.893C96.1434 430.057 118.762 394.574 144.828 361.772M151.777 351.275C166.581 331.306 182.099 307.445 212.759 269.602M-26.0309 604.711C35.8725 517.887 98.7081 429.889 147.962 363.632M153.217 352.809C171.23 326.632 190.449 301.768 212.646 269.507M-22.5435 603.803C13.8887 555.443 50.085 503.734 149.498 363.243M157.375 355.446C170.622 332.515 186.253 312.539 217.286 269.823M-19.9198 603.855C46.5267 511.261 112.514 419.494 152.126 362.171M156.274 357.826C179.917 323.47 202.412 290.762 216.63 271.487M-16.9837 602.643C76.4624 470.972 171.042 339.747 218.856 273.706M-13.9021 602.253C32.3112 538.011 79.1771 470.624 220.036 275.62M-11.3578 601.731C53.6795 511.403 118.853 419.328 221.991 276.331M-9.3536 600.929C50.0263 518.36 109.941 433.699 223.443 277.276M-5.20461 600.907C69.5278 494.864 147.244 389.62 225.029 278.483M-2.38568 598.968C66.6904 502.032 135.852 407.224 225.539 281.063M-0.760495 599.169C90.9936 472.94 180.916 346.131 226.928 281.879M2.54753 597.754C48.9003 535.541 93.5441 472.173 228.738 283.689M5.46758 597.454C92.026 479.301 178.624 358.298 230.391 285.317M8.25413 597.259C90.794 483.665 171.581 370.572 230.912 286.032M11.4974 596.187C76.7432 505.169 140.936 414.278 232.601 288.52M13.9549 596.519C100.038 476.595 185.87 356.153 233.508 288.682M17.3387 595.864C62.0709 531.358 109.028 464.842 234.787 290.486M20.8654 593.53C85.6571 500.035 152.173 408.267 236.7 292.456M23.4475 593.415C103.936 482.662 182.136 373.241 238.287 293.973M26.3066 591.906C83.1333 513.647 140.191 434.078 240.068 295.05M29.0425 591.849C116.793 473.853 201.016 355.732 240.977 297.739M32.74 589.968C81.2477 523.6 130.748 454.107 241.575 299.648M36.5521 589.562C102.101 495.583 169.115 402.245 243.241 301.067M38.7461 588.077C116.298 479.18 193.754 370.12 244.285 302.519M42.6104 587.858C123.811 475.392 204.343 362.642 245.638 304.331M44.7286 587.588C96.4318 516.507 147.084 445.76 245.502 306.228M47.8643 586.023C123.305 481.036 197.059 377.097 247.548 308.924M51.5561 584.643C115.067 496.329 178.181 409.547 248.825 309.781M53.8034 584.636C98.46 520.912 145.731 455.739 250.046 313.088M57.8364 582.87C136.101 478.029 212.626 369.785 250.251 315.168M60.1579 582.973C103.275 520.125 147.147 459.353 251.095 316.758M64.7601 580.915C117.532 505.234 170.784 429.989 252.473 318.812M67.4734 579.434C123.995 498.082 181.286 419.249 252.803 319.713M71.4731 577.988C121.086 509.195 170.808 439.929 254.891 323.255M74.4544 577.387C144.407 479.765 214.069 380.843 255.64 325.482M77.8942 575.493C122.123 514.983 167.291 453.769 255.581 326.606M82.0747 574.48C122.727 513.154 165.717 454.631 256.285 329.216M85.4674 572.458C137.444 496.635 192.078 421.264 256.744 333.01M88.8283 570.067C136.214 500.601 185.677 432.397 258.309 335.525M90.9845 569.015C127.99 522.018 163.404 473.128 258.465 337.014M95.9862 568.263C141.508 504.178 187.493 441.244 258.707 339.579M98.8641 566.631C153.085 489.745 207.153 414.631 258.766 343.415M101.713 565.825C162.883 479.456 223.128 393.699 259.636 345.038M105.315 564.478C152.4 499.685 197.246 435.999 260.646 349.252M108.023 564.392C168.024 479.255 227.072 395.046 259.969 351.801M111.613 561.249C149.788 508.27 188.01 455.869 259.379 355.524M115.65 559.477C157.399 498.44 200.273 438.877 260.634 359.297M120.582 558.034C144.655 525.615 167.909 491.543 191.503 459.248M191.178 457.993C216.536 421.961 241.845 387.012 258.751 361.66M123.323 556.361C142.075 525.447 164.346 498.988 189.476 463.834M192.613 455.825C213.623 428.924 233.335 400.966 259.957 365.136M129.114 554.465C152.547 520.64 175.185 484.759 191.671 465.815M199.235 455.175C213.413 435.787 230.312 412.798 259.483 368.316M131.125 551.88C148.679 528.587 164.645 508.589 190.028 469.874M201.639 454.361C221.153 428.225 241.157 398.94 260.033 373.919M137.755 549.422C157.045 521.722 173.812 498.416 190.286 471.059M206.216 450.424C222.968 428.451 244.044 400.561 255.321 379.1M140.021 544.462C160.278 516.418 180.289 489.439 190.357 473.377M209.635 449.048C220.937 431.021 234.121 413.241 254.404 384.784M145.507 542.267C156.053 528.45 168.594 508.496 190.225 477.477M213.176 448.168C220.998 435.351 231.55 422.438 255.102 391.491M150.251 540.721C160.86 522.425 174.677 507.421 189.534 484.133M219.323 442.817C226.974 430.238 238.963 414.519 251.79 398.68M155.781 537.89C162.982 525.127 168.63 514.258 188.115 489.185M226.387 433.507C233.94 428.95 239.575 421.055 246.442 410.018M157.053 534.695C165.848 524.254 172.704 517.268 187.322 493.818M164.113 527.69C170.75 519.035 176.088 515.88 185.868 500.059M-267.855 24.7224V24.7224ZM-275.811 511.242V511.242ZM78.4689 394.459V394.459Z" stroke="white" stroke-width="0.172364" stroke-linecap="round"/>
</svg>
