<svg width="105" height="105" viewBox="0 0 105 105" fill="none" xmlns="http://www.w3.org/2000/svg">
<ellipse cx="58.3557" cy="45.2744" rx="43.4573" ry="43.7563" fill="white"/>
<path d="M17.1439 27.9557C23.1336 21.3609 27.9253 13.6146 34.7038 7.8759M16.0472 35.7632C26.703 25.2349 34.9782 13.6136 38.107 5.07929M16.2991 39.0388C23.3523 26.4418 31.1271 19.0878 43.503 7.43094M16.1777 41.2017C26.0055 28.6517 35.764 19.272 45.1267 6.03414M14 46.524C29.8455 28.2482 43.0991 13.1092 52.1161 3.59151M15.571 47.647C25.2387 35.3146 35.4368 22.8863 53.3339 2.46541M16.9844 50.3537C28.3087 36.867 40.0748 18.7006 54.2074 1M17.6299 53.1553C34.4145 34.3986 49.6621 14.2739 57.2192 1.27248M17.8792 57.6164C25.3714 42.4811 36.9613 30.7177 59.7087 2.16342M19.0756 58.2719C31.8889 39.768 49.079 21.671 65.7609 2.1774M20.1075 61.9531C35.3452 40.0416 54.9056 18.7824 64.7341 3.05144M20.7389 64.0213C33.4991 45.3206 45.3765 30.2071 69.8581 1.92708M20.7693 65.9984C34.8276 44.7998 50.6743 28.656 68.614 2.20063M19.6631 66.793C37.2089 46.6758 50.9538 29.3256 71.0891 6.12629M23.2272 68.0313C33.4172 56.3507 42.8886 44.8889 76.0613 5.03345M24.6125 69.6947C41.7342 49.9303 62.9971 25.2872 78.9813 6.45798M26.8405 72.1668C45.6343 47.0181 62.4506 26.1063 79.8249 8.96218M25.3862 75.6678C46.0625 49.185 69.4246 21.164 79.4824 6.5913M28.9475 73.6977C41.2888 60.306 54.5644 44.5846 82.0157 7.8684M30.3076 76.631C50.3455 54.5042 67.0544 32.7374 84.1623 10.923M30.1482 76.5039C48.846 60.1931 66.0408 39.7839 85.269 12.7035M32.2974 78.1266C54.0636 55.8357 72.4879 32.3958 88.0323 12.1229M34.5105 79.541C57.2965 56.3704 77.3423 28.079 89.4878 13.9178M33.9561 81.8124C46.5417 64.8504 62.9218 49.3251 90.2715 13.9694M37.187 81.8304C51.5525 65.366 64.8053 50.2203 92.0868 15.3295M40.6913 84.0219C57.1227 65.2759 75.3188 40.8528 94.3096 20.7659M40.9436 87.5763C56.6992 67.9942 69.0606 48.932 94.6513 19.4111M43.6172 85.7054C54.6451 69.5402 71.5968 54.767 95.369 23.0067M44.1203 88.0173C60.1037 65.25 77.6842 47.9013 95.1971 22.6156M47.7333 87.5005C65.4541 66.397 85.7939 41.5164 98.3724 26.0132M50.1108 86.8925C58.53 75.8113 72.1887 63.356 98.7084 29.578M50.7583 88.5469C66.0834 70.3214 84.6644 47.5802 100.064 29.2022M54.8446 89.4783C71.2035 66.767 85.4249 47.3854 99.1911 34.8776M56.0278 90.6884C70.6345 74.3336 83.3172 59.2807 99.6215 35.639M57.9552 91C70.3668 77.264 78.1897 63.7451 102.509 39.0244M62.1029 88.8472C77.395 73.2804 90.5152 59.0051 100.937 38.1505M63.9987 89.1032C74.5272 72.6726 86.0854 57.997 100.546 44.7703M67.0651 87.4579C81.9037 72.3303 92.6884 57.0054 101.008 46.3777M71.9795 87.7527C81.7305 72.6428 92.7531 59.9095 104 51.3779M75.2582 87.207C83.6317 75.2485 95.6843 62.8801 102.812 52.2048M79.2248 82.6991C87.6194 73.935 92.7768 67.0038 100.995 61.0468M83.0715 80.4248C88.2098 75.8517 94.068 67.948 99.6276 63.7043M27.4999 14.4881V14.4881Z" stroke="url(#paint0_linear_909_4385)" stroke-width="0.5" stroke-linecap="round"/>
<g filter="url(#filter0_d_909_4385)">
<g filter="url(#filter1_d_909_4385)">
<circle cx="46.9863" cy="57.3836" r="36.9863" fill="white"/>
</g>
<path d="M46.2467 71.3551C44.0374 71.3551 42.1569 70.8159 40.6051 69.7375C39.0533 68.6592 37.8697 67.1074 37.0544 65.0822C36.2391 63.057 35.8314 60.611 35.8314 57.7441C35.8314 55.3244 36.0812 53.194 36.581 51.3529C37.107 49.5118 37.8566 47.96 38.8297 46.6975C39.8292 45.4351 41.0259 44.4751 42.4199 43.8175C43.8401 43.16 45.4445 42.8312 47.233 42.8312C48.4429 42.8312 49.6791 43.0548 50.9415 43.5019C52.204 43.9227 53.3349 44.5671 54.3344 45.4351C54.6237 45.6455 54.8078 45.9216 54.8867 46.2636C54.9919 46.5792 55.0051 46.8948 54.9262 47.2104C54.8473 47.4997 54.6895 47.7496 54.4528 47.96C54.2423 48.1704 53.9793 48.2888 53.6637 48.3151C53.3481 48.3414 53.0062 48.2362 52.638 47.9995C51.7437 47.2893 50.8363 46.7764 49.9158 46.4608C48.9952 46.1452 48.0747 45.9874 47.1541 45.9874C45.4971 45.9874 44.09 46.4082 42.9327 47.2499C41.7755 48.0652 40.8944 49.2882 40.2895 50.9189C39.6845 52.5496 39.3821 54.5879 39.3821 57.034V60.5452H38.9875C39.1717 59.0723 39.6056 57.8099 40.2895 56.7578C40.9996 55.7058 41.9201 54.8904 43.0511 54.3118C44.1821 53.7332 45.4314 53.4438 46.7991 53.4438C48.4297 53.4438 49.8632 53.8252 51.0993 54.5879C52.3618 55.3507 53.3481 56.3896 54.0582 57.7047C54.7947 59.0197 55.1629 60.5452 55.1629 62.2811C55.1629 64.017 54.7815 65.5819 54.0188 66.9759C53.256 68.3436 52.204 69.4219 50.8626 70.211C49.5212 70.9737 47.9826 71.3551 46.2467 71.3551ZM46.01 68.3173C47.141 68.3173 48.1273 68.0674 48.9689 67.5677C49.8106 67.0679 50.4681 66.371 50.9415 65.4767C51.4412 64.5825 51.6911 63.5567 51.6911 62.3995C51.6911 61.2422 51.4412 60.2164 50.9415 59.3222C50.4681 58.4279 49.8106 57.731 48.9689 57.2312C48.1273 56.7315 47.141 56.4816 46.01 56.4816C44.8791 56.4816 43.8928 56.7315 43.0511 57.2312C42.2095 57.731 41.5388 58.4279 41.0391 59.3222C40.5656 60.2164 40.3289 61.2422 40.3289 62.3995C40.3289 63.5567 40.5656 64.5825 41.0391 65.4767C41.5388 66.371 42.2095 67.0679 43.0511 67.5677C43.8928 68.0674 44.8791 68.3173 46.01 68.3173Z" fill="#454545"/>
</g>
<defs>
<filter id="filter0_d_909_4385" x="0.136987" y="3.13699" width="93.6987" height="109.726" filterUnits="userSpaceOnUse" color-interpolation-filters="sRGB">
<feFlood flood-opacity="0" result="BackgroundImageFix"/>
<feColorMatrix in="SourceAlpha" type="matrix" values="0 0 0 0 0 0 0 0 0 0 0 0 0 0 0 0 0 0 127 0" result="hardAlpha"/>
<feOffset/>
<feGaussianBlur stdDeviation="4.93151"/>
<feComposite in2="hardAlpha" operator="out"/>
<feColorMatrix type="matrix" values="0 0 0 0 0 0 0 0 0 0 0 0 0 0 0 0 0 0 0.05 0"/>
<feBlend mode="normal" in2="BackgroundImageFix" result="effect1_dropShadow_909_4385"/>
<feBlend mode="normal" in="SourceGraphic" in2="effect1_dropShadow_909_4385" result="shape"/>
</filter>
<filter id="filter1_d_909_4385" x="0" y="10.3973" width="93.9727" height="93.9726" filterUnits="userSpaceOnUse" color-interpolation-filters="sRGB">
<feFlood flood-opacity="0" result="BackgroundImageFix"/>
<feColorMatrix in="SourceAlpha" type="matrix" values="0 0 0 0 0 0 0 0 0 0 0 0 0 0 0 0 0 0 127 0" result="hardAlpha"/>
<feOffset/>
<feGaussianBlur stdDeviation="5"/>
<feComposite in2="hardAlpha" operator="out"/>
<feColorMatrix type="matrix" values="0 0 0 0 0 0 0 0 0 0 0 0 0 0 0 0 0 0 0.08 0"/>
<feBlend mode="normal" in2="BackgroundImageFix" result="effect1_dropShadow_909_4385"/>
<feBlend mode="normal" in="SourceGraphic" in2="effect1_dropShadow_909_4385" result="shape"/>
</filter>
<linearGradient id="paint0_linear_909_4385" x1="14" y1="51.1136" x2="104.004" y2="51.31" gradientUnits="userSpaceOnUse">
<stop stop-color="#3CA0D2"/>
<stop offset="1" stop-color="#48DCA6"/>
</linearGradient>
</defs>
</svg>
