<svg width="105" height="105" viewBox="0 0 105 105" fill="none" xmlns="http://www.w3.org/2000/svg">
<ellipse cx="58.3557" cy="45.2743" rx="43.4573" ry="43.7563" fill="white"/>
<path d="M17.1439 27.9557C23.1336 21.3609 27.9253 13.6146 34.7038 7.8759M16.0472 35.7632C26.703 25.2349 34.9782 13.6136 38.107 5.07929M16.2991 39.0388C23.3523 26.4418 31.1271 19.0878 43.503 7.43094M16.1777 41.2017C26.0055 28.6517 35.764 19.272 45.1267 6.03414M14 46.524C29.8455 28.2482 43.0991 13.1092 52.1161 3.59151M15.571 47.647C25.2387 35.3146 35.4368 22.8863 53.3339 2.46541M16.9844 50.3537C28.3087 36.867 40.0748 18.7006 54.2074 1M17.6299 53.1553C34.4145 34.3986 49.6621 14.2739 57.2192 1.27248M17.8792 57.6164C25.3714 42.4811 36.9613 30.7177 59.7087 2.16342M19.0756 58.2719C31.8889 39.768 49.079 21.671 65.7609 2.1774M20.1075 61.9531C35.3452 40.0416 54.9056 18.7824 64.7341 3.05144M20.7389 64.0213C33.4991 45.3206 45.3765 30.2071 69.8581 1.92708M20.7693 65.9984C34.8276 44.7998 50.6743 28.656 68.614 2.20063M19.6631 66.793C37.2089 46.6758 50.9538 29.3256 71.0891 6.12629M23.2272 68.0313C33.4172 56.3507 42.8886 44.8889 76.0613 5.03345M24.6125 69.6947C41.7342 49.9303 62.9971 25.2872 78.9813 6.45798M26.8405 72.1668C45.6343 47.0181 62.4506 26.1063 79.8249 8.96218M25.3862 75.6678C46.0625 49.185 69.4246 21.164 79.4824 6.5913M28.9475 73.6977C41.2888 60.306 54.5644 44.5846 82.0157 7.8684M30.3076 76.631C50.3455 54.5042 67.0544 32.7374 84.1623 10.923M30.1482 76.5039C48.846 60.1931 66.0408 39.7839 85.269 12.7035M32.2974 78.1266C54.0636 55.8357 72.4879 32.3958 88.0323 12.1229M34.5105 79.541C57.2965 56.3704 77.3423 28.079 89.4878 13.9178M33.9561 81.8124C46.5417 64.8504 62.9218 49.3251 90.2715 13.9694M37.187 81.8304C51.5525 65.366 64.8053 50.2203 92.0868 15.3295M40.6913 84.0219C57.1227 65.2759 75.3188 40.8528 94.3096 20.7659M40.9436 87.5763C56.6992 67.9942 69.0606 48.932 94.6513 19.4111M43.6172 85.7054C54.6451 69.5402 71.5968 54.767 95.369 23.0067M44.1203 88.0173C60.1037 65.25 77.6842 47.9013 95.1971 22.6156M47.7333 87.5005C65.4541 66.397 85.7939 41.5164 98.3724 26.0132M50.1108 86.8925C58.53 75.8113 72.1887 63.356 98.7084 29.578M50.7583 88.5469C66.0834 70.3214 84.6644 47.5802 100.064 29.2022M54.8446 89.4783C71.2035 66.767 85.4249 47.3854 99.1911 34.8776M56.0278 90.6884C70.6345 74.3336 83.3172 59.2807 99.6215 35.639M57.9552 91C70.3668 77.264 78.1897 63.7451 102.509 39.0244M62.1029 88.8472C77.395 73.2804 90.5152 59.0051 100.937 38.1505M63.9987 89.1032C74.5272 72.6726 86.0854 57.997 100.546 44.7703M67.0651 87.4579C81.9037 72.3303 92.6884 57.0054 101.008 46.3777M71.9795 87.7527C81.7305 72.6428 92.7531 59.9095 104 51.3779M75.2582 87.207C83.6317 75.2485 95.6843 62.8801 102.812 52.2048M79.2248 82.6991C87.6194 73.935 92.7768 67.0038 100.995 61.0468M83.0715 80.4248C88.2098 75.8517 94.068 67.948 99.6276 63.7043M27.4999 14.4881V14.4881Z" stroke="url(#paint0_linear_909_4346)" stroke-width="0.5" stroke-linecap="round"/>
<g filter="url(#filter0_d_909_4346)">
<g filter="url(#filter1_d_909_4346)">
<circle cx="46.9863" cy="57.3835" r="36.9863" fill="white"/>
</g>
<path d="M44.9054 71.3551C43.3799 71.3551 41.8544 71.1447 40.3289 70.7238C38.8034 70.303 37.4752 69.6718 36.3443 68.8301C35.976 68.5671 35.7262 68.2647 35.5947 67.9227C35.4632 67.5808 35.4237 67.2652 35.4763 66.9759C35.5552 66.6603 35.713 66.3973 35.9497 66.1868C36.1864 65.9764 36.4758 65.8581 36.8177 65.8318C37.1596 65.7792 37.5278 65.8712 37.9223 66.1079C39.0533 66.8444 40.1711 67.3836 41.2758 67.7255C42.4067 68.0411 43.5771 68.1989 44.787 68.1989C46.0758 68.1989 47.1673 68.0148 48.0615 67.6466C48.9558 67.2521 49.6264 66.6866 50.0736 65.9501C50.547 65.1874 50.7837 64.28 50.7837 63.2279C50.7837 61.6499 50.2708 60.4663 49.2451 59.6773C48.2193 58.8619 46.7201 58.4542 44.7475 58.4542H41.9859C41.4336 58.4542 41.0127 58.3227 40.7234 58.0597C40.4341 57.7704 40.2895 57.389 40.2895 56.9156C40.2895 56.4159 40.4341 56.0345 40.7234 55.7715C41.0127 55.5085 41.4336 55.377 41.9859 55.377H44.4319C45.5892 55.377 46.5755 55.1797 47.3908 54.7852C48.2062 54.3644 48.8374 53.7858 49.2845 53.0493C49.758 52.3129 49.9947 51.4186 49.9947 50.3666C49.9947 48.9463 49.5344 47.8679 48.6138 47.1315C47.6933 46.3688 46.3651 45.9874 44.6292 45.9874C43.4982 45.9874 42.433 46.1584 41.4336 46.5003C40.4341 46.8159 39.4215 47.3551 38.3958 48.1178C38.0538 48.3545 37.7119 48.4729 37.37 48.4729C37.0281 48.4466 36.7388 48.3282 36.5021 48.1178C36.2917 47.9074 36.147 47.6575 36.0681 47.3682C35.9892 47.0526 36.0023 46.7238 36.1075 46.3819C36.2127 46.04 36.4495 45.7375 36.8177 45.4745C37.896 44.6329 39.1322 43.9885 40.5262 43.5414C41.9464 43.0679 43.4062 42.8312 44.9054 42.8312C46.7201 42.8312 48.2719 43.1205 49.5607 43.6992C50.8758 44.2778 51.8752 45.1063 52.5591 46.1847C53.2429 47.2367 53.5848 48.5123 53.5848 50.0115C53.5848 51.1425 53.3744 52.1814 52.9536 53.1282C52.5328 54.0488 51.9278 54.8378 51.1388 55.4953C50.376 56.1266 49.4423 56.5737 48.3377 56.8367V56.4027C50.2577 56.7447 51.7437 57.5468 52.7958 58.8093C53.8741 60.0455 54.4133 61.5973 54.4133 63.4647C54.4133 65.069 54.0188 66.4762 53.2297 67.686C52.467 68.8696 51.3755 69.777 49.9552 70.4082C48.5349 71.0395 46.8517 71.3551 44.9054 71.3551Z" fill="#454545"/>
</g>
<defs>
<filter id="filter0_d_909_4346" x="0.136987" y="3.13699" width="93.6987" height="109.726" filterUnits="userSpaceOnUse" color-interpolation-filters="sRGB">
<feFlood flood-opacity="0" result="BackgroundImageFix"/>
<feColorMatrix in="SourceAlpha" type="matrix" values="0 0 0 0 0 0 0 0 0 0 0 0 0 0 0 0 0 0 127 0" result="hardAlpha"/>
<feOffset/>
<feGaussianBlur stdDeviation="4.93151"/>
<feComposite in2="hardAlpha" operator="out"/>
<feColorMatrix type="matrix" values="0 0 0 0 0 0 0 0 0 0 0 0 0 0 0 0 0 0 0.05 0"/>
<feBlend mode="normal" in2="BackgroundImageFix" result="effect1_dropShadow_909_4346"/>
<feBlend mode="normal" in="SourceGraphic" in2="effect1_dropShadow_909_4346" result="shape"/>
</filter>
<filter id="filter1_d_909_4346" x="0" y="10.3972" width="93.9727" height="93.9727" filterUnits="userSpaceOnUse" color-interpolation-filters="sRGB">
<feFlood flood-opacity="0" result="BackgroundImageFix"/>
<feColorMatrix in="SourceAlpha" type="matrix" values="0 0 0 0 0 0 0 0 0 0 0 0 0 0 0 0 0 0 127 0" result="hardAlpha"/>
<feOffset/>
<feGaussianBlur stdDeviation="5"/>
<feComposite in2="hardAlpha" operator="out"/>
<feColorMatrix type="matrix" values="0 0 0 0 0 0 0 0 0 0 0 0 0 0 0 0 0 0 0.08 0"/>
<feBlend mode="normal" in2="BackgroundImageFix" result="effect1_dropShadow_909_4346"/>
<feBlend mode="normal" in="SourceGraphic" in2="effect1_dropShadow_909_4346" result="shape"/>
</filter>
<linearGradient id="paint0_linear_909_4346" x1="14" y1="51.1136" x2="104.004" y2="51.31" gradientUnits="userSpaceOnUse">
<stop stop-color="#3CA0D2"/>
<stop offset="1" stop-color="#48DCA6"/>
</linearGradient>
</defs>
</svg>
