<svg width="105" height="105" viewBox="0 0 105 105" fill="none" xmlns="http://www.w3.org/2000/svg">
<ellipse cx="58.3557" cy="45.2743" rx="43.4573" ry="43.7563" fill="white"/>
<path d="M17.1439 27.9557C23.1336 21.3609 27.9253 13.6146 34.7038 7.8759M16.0472 35.7632C26.703 25.2349 34.9782 13.6136 38.107 5.07929M16.2991 39.0388C23.3523 26.4418 31.1271 19.0878 43.503 7.43094M16.1777 41.2017C26.0055 28.6517 35.764 19.272 45.1267 6.03414M14 46.524C29.8455 28.2482 43.0991 13.1092 52.1161 3.59151M15.571 47.647C25.2387 35.3146 35.4368 22.8863 53.3339 2.46541M16.9844 50.3537C28.3087 36.867 40.0748 18.7006 54.2074 1M17.6299 53.1553C34.4145 34.3986 49.6621 14.2739 57.2192 1.27248M17.8792 57.6164C25.3714 42.4811 36.9613 30.7177 59.7087 2.16342M19.0756 58.2719C31.8889 39.768 49.079 21.671 65.7609 2.1774M20.1075 61.9531C35.3452 40.0416 54.9056 18.7824 64.7341 3.05144M20.7389 64.0213C33.4991 45.3206 45.3765 30.2071 69.8581 1.92708M20.7693 65.9984C34.8276 44.7998 50.6743 28.656 68.614 2.20063M19.6631 66.793C37.2089 46.6758 50.9538 29.3256 71.0891 6.12629M23.2272 68.0313C33.4172 56.3507 42.8886 44.8889 76.0613 5.03345M24.6125 69.6947C41.7342 49.9303 62.9971 25.2872 78.9813 6.45798M26.8405 72.1668C45.6343 47.0181 62.4506 26.1063 79.8249 8.96218M25.3862 75.6678C46.0625 49.185 69.4246 21.164 79.4824 6.5913M28.9475 73.6977C41.2888 60.306 54.5644 44.5846 82.0157 7.8684M30.3076 76.631C50.3455 54.5042 67.0544 32.7374 84.1623 10.923M30.1482 76.5039C48.846 60.1931 66.0408 39.7839 85.269 12.7035M32.2974 78.1266C54.0636 55.8357 72.4879 32.3958 88.0323 12.1229M34.5105 79.541C57.2965 56.3704 77.3423 28.079 89.4878 13.9178M33.9561 81.8124C46.5417 64.8504 62.9218 49.3251 90.2715 13.9694M37.187 81.8304C51.5525 65.366 64.8053 50.2203 92.0868 15.3295M40.6913 84.0219C57.1227 65.2759 75.3188 40.8528 94.3096 20.7659M40.9436 87.5763C56.6992 67.9942 69.0606 48.932 94.6513 19.4111M43.6172 85.7054C54.6451 69.5402 71.5968 54.767 95.369 23.0067M44.1203 88.0173C60.1037 65.25 77.6842 47.9013 95.1971 22.6156M47.7333 87.5005C65.4541 66.397 85.7939 41.5164 98.3724 26.0132M50.1108 86.8925C58.53 75.8113 72.1887 63.356 98.7084 29.578M50.7583 88.5469C66.0834 70.3214 84.6644 47.5802 100.064 29.2022M54.8446 89.4783C71.2035 66.767 85.4249 47.3854 99.1911 34.8776M56.0278 90.6884C70.6345 74.3336 83.3172 59.2807 99.6215 35.639M57.9552 91C70.3668 77.264 78.1897 63.7451 102.509 39.0244M62.1029 88.8472C77.395 73.2804 90.5152 59.0051 100.937 38.1505M63.9987 89.1032C74.5272 72.6726 86.0854 57.997 100.546 44.7703M67.0651 87.4579C81.9037 72.3303 92.6884 57.0054 101.008 46.3777M71.9795 87.7527C81.7305 72.6428 92.7531 59.9095 104 51.3779M75.2582 87.207C83.6317 75.2485 95.6843 62.8801 102.812 52.2048M79.2248 82.6991C87.6194 73.935 92.7768 67.0038 100.995 61.0468M83.0715 80.4248C88.2098 75.8517 94.068 67.948 99.6276 63.7043M27.4999 14.4881V14.4881Z" stroke="url(#paint0_linear_909_4469)" stroke-width="0.5" stroke-linecap="round"/>
<g filter="url(#filter0_d_909_4469)">
<g filter="url(#filter1_d_909_4469)">
<circle cx="46.9863" cy="57.3838" r="36.9863" fill="white"/>
</g>
</g>
<path d="M46.351 42.6679C35.623 43.8259 23.647 51.4489 25.789 63.2299H66.916C68.281 50.9809 57.757 41.4319 46.351 42.6679Z" fill="url(#paint1_linear_909_4469)"/>
<path d="M44.9228 62.6482C44.7866 62.6932 44.6685 62.7808 44.5859 62.898C44.5032 63.0152 44.4604 63.1559 44.4638 63.2992C44.8808 63.3772 45.5588 63.6172 46.0538 63.4492C46.1773 63.4184 46.2932 63.3629 46.3947 63.2862C46.4962 63.2094 46.5812 63.113 46.6445 63.0026C46.7078 62.8922 46.7482 62.7702 46.7632 62.6438C46.7782 62.5175 46.7675 62.3894 46.7318 62.2672C46.2818 61.5232 45.2318 62.2672 44.7668 62.6692C43.7318 63.7672 45.3218 64.2442 46.2338 63.9262C46.4786 63.8699 46.7106 63.7681 46.9178 63.6262C47.7428 63.0082 47.0828 61.5802 46.1198 61.5412C45.1898 61.4392 44.1068 62.2492 43.9718 63.1642C43.8938 64.1782 45.1418 64.6972 46.0208 64.3402C46.503 64.1861 46.9351 63.9053 47.2718 63.5272C47.9228 62.8522 47.9018 61.5412 46.9268 61.2202C46.0448 60.9982 44.7638 61.2802 43.9538 61.7062C43.0928 62.1832 42.7538 63.3502 43.6538 63.9712C44.8928 64.7992 46.8668 64.7422 48.0218 63.8332C50.6318 61.4692 43.1708 58.6162 42.6788 62.6332C42.5228 64.4182 44.9468 64.9432 46.3238 64.6792C46.8698 64.5803 47.3689 64.3065 47.7458 63.8992C47.3845 64.3317 46.8931 64.6359 46.3448 64.7662C45.0938 65.0662 43.1618 64.7662 42.5408 63.4882C42.3865 63.0678 42.3573 62.6117 42.4569 62.1751C42.5565 61.7385 42.7805 61.3401 43.1018 61.0282C44.4278 59.7562 46.5818 60.1492 47.9918 61.0792C49.1348 61.8262 49.5488 63.2782 48.3548 64.2352C47.4188 65.0062 46.1588 65.1862 44.9978 65.0422C42.7208 64.8262 41.5028 62.6752 43.6478 61.2112C44.1654 60.9227 44.732 60.7325 45.3188 60.6502C45.9108 60.5054 46.5298 60.5116 47.1188 60.6682C48.1028 60.9682 48.5288 62.1682 48.1748 63.1012C47.5748 64.8112 44.7938 65.8462 43.6748 64.0732C42.6548 62.2492 45.5138 60.1732 47.0588 61.4482C47.8058 62.0482 48.0098 63.3592 47.1608 63.9472C46.3118 64.5352 44.1698 64.7002 44.1218 63.2692C44.1218 62.3212 46.4198 61.0492 46.9058 62.1922C46.9479 62.3367 46.9598 62.4883 46.9406 62.6376C46.9215 62.7868 46.8719 62.9306 46.7947 63.0598C46.7176 63.189 46.6147 63.3009 46.4923 63.3886C46.37 63.4762 46.231 63.5377 46.0838 63.5692C45.5018 63.7042 44.9408 63.5002 44.4188 63.3172C44.4173 63.1658 44.4659 63.018 44.5571 62.897C44.6482 62.776 44.7768 62.6886 44.9228 62.6482Z" fill="#454545"/>
<path d="M45.7661 59.78C48.2959 57.5387 50.6063 55.0615 52.6661 52.382C53.7061 51.054 54.7331 49.711 55.7471 48.353C56.7551 46.988 57.8201 45.68 58.6001 44.234L59.3081 44.768C56.7386 47.3176 54.4153 50.1039 52.3691 53.09C50.3197 56.0921 48.5322 59.2647 47.0261 62.573C47.6087 60.8391 48.3 59.1437 49.0961 57.497C50.7044 54.1893 52.6852 51.0761 55.0001 48.218C56.7041 46.064 58.9301 43.88 60.9101 41.96L59.4101 44.66C58.5581 46.193 57.4751 47.531 56.4371 48.86C53.3021 52.856 49.9961 56.864 45.7871 59.777L45.7661 59.78Z" fill="#454545"/>
<path d="M25.354 54.7278C26.4662 54.701 27.5744 54.8716 28.627 55.2318C29.6883 55.5653 30.6825 56.0833 31.564 56.7618C31.018 56.6298 30.499 56.4618 29.983 56.2998C28.537 55.8228 26.767 55.2918 25.354 54.7278Z" fill="#FEFFFF"/>
<path d="M32.8628 45.3589C34.5078 47.3416 35.9698 49.4693 37.2308 51.7159C35.3052 49.9611 33.8104 47.7857 32.8628 45.3589Z" fill="#FEFFFF"/>
<path d="M45.1 40.7002C45.6103 43.2094 45.7116 45.7846 45.4 48.3262C44.8882 45.8172 44.7869 43.2417 45.1 40.7002Z" fill="#FEFFFF"/>
<path d="M59.4341 50.3839C61.2305 48.696 63.3837 47.4339 65.7341 46.6909C63.7806 48.1563 61.667 49.3952 59.4341 50.3839Z" fill="#FEFFFF"/>
<path d="M63.3101 58.5442C65.8688 58.3641 68.4399 58.5981 70.9241 59.2372C68.3653 59.4201 65.7938 59.1861 63.3101 58.5442Z" fill="#FEFFFF"/>
<path d="M58.0898 42.1729C57.3788 43.5379 56.3708 45.1189 55.5758 46.4389C55.2758 46.9069 54.9968 47.3749 54.6758 47.8339C55.1728 45.6278 56.3705 43.6418 58.0898 42.1729Z" fill="#FEFFFF"/>
<defs>
<filter id="filter0_d_909_4469" x="0.136987" y="3.13699" width="93.6987" height="109.726" filterUnits="userSpaceOnUse" color-interpolation-filters="sRGB">
<feFlood flood-opacity="0" result="BackgroundImageFix"/>
<feColorMatrix in="SourceAlpha" type="matrix" values="0 0 0 0 0 0 0 0 0 0 0 0 0 0 0 0 0 0 127 0" result="hardAlpha"/>
<feOffset/>
<feGaussianBlur stdDeviation="4.93151"/>
<feComposite in2="hardAlpha" operator="out"/>
<feColorMatrix type="matrix" values="0 0 0 0 0 0 0 0 0 0 0 0 0 0 0 0 0 0 0.05 0"/>
<feBlend mode="normal" in2="BackgroundImageFix" result="effect1_dropShadow_909_4469"/>
<feBlend mode="normal" in="SourceGraphic" in2="effect1_dropShadow_909_4469" result="shape"/>
</filter>
<filter id="filter1_d_909_4469" x="0" y="10.3975" width="93.9727" height="93.9727" filterUnits="userSpaceOnUse" color-interpolation-filters="sRGB">
<feFlood flood-opacity="0" result="BackgroundImageFix"/>
<feColorMatrix in="SourceAlpha" type="matrix" values="0 0 0 0 0 0 0 0 0 0 0 0 0 0 0 0 0 0 127 0" result="hardAlpha"/>
<feOffset/>
<feGaussianBlur stdDeviation="5"/>
<feComposite in2="hardAlpha" operator="out"/>
<feColorMatrix type="matrix" values="0 0 0 0 0 0 0 0 0 0 0 0 0 0 0 0 0 0 0.08 0"/>
<feBlend mode="normal" in2="BackgroundImageFix" result="effect1_dropShadow_909_4469"/>
<feBlend mode="normal" in="SourceGraphic" in2="effect1_dropShadow_909_4469" result="shape"/>
</filter>
<linearGradient id="paint0_linear_909_4469" x1="23.2475" y1="12.88" x2="111.411" y2="58.8844" gradientUnits="userSpaceOnUse">
<stop stop-color="#3CA0D2"/>
<stop offset="1" stop-color="#48DCA6"/>
</linearGradient>
<linearGradient id="paint1_linear_909_4469" x1="29.802" y1="45.2885" x2="54.46" y2="71.1203" gradientUnits="userSpaceOnUse">
<stop stop-color="#3CA0D2"/>
<stop offset="1" stop-color="#48DCA6"/>
</linearGradient>
</defs>
</svg>
