<svg width="105" height="105" viewBox="0 0 105 105" fill="none" xmlns="http://www.w3.org/2000/svg">
<ellipse cx="58.3557" cy="45.2743" rx="43.4573" ry="43.7563" fill="white"/>
<path d="M17.1439 27.9557C23.1336 21.3609 27.9253 13.6146 34.7038 7.8759M16.0472 35.7632C26.703 25.2349 34.9782 13.6136 38.107 5.07929M16.2991 39.0388C23.3523 26.4418 31.1271 19.0878 43.503 7.43094M16.1777 41.2017C26.0055 28.6517 35.764 19.272 45.1267 6.03414M14 46.524C29.8455 28.2482 43.0991 13.1092 52.1161 3.59151M15.571 47.647C25.2387 35.3146 35.4368 22.8863 53.3339 2.46541M16.9844 50.3537C28.3087 36.867 40.0748 18.7006 54.2074 1M17.6299 53.1553C34.4145 34.3986 49.6621 14.2739 57.2192 1.27248M17.8792 57.6164C25.3714 42.4811 36.9613 30.7177 59.7087 2.16342M19.0756 58.2719C31.8889 39.768 49.079 21.671 65.7609 2.1774M20.1075 61.9531C35.3452 40.0416 54.9056 18.7824 64.7341 3.05144M20.7389 64.0213C33.4991 45.3206 45.3765 30.2071 69.8581 1.92708M20.7693 65.9984C34.8276 44.7998 50.6743 28.656 68.614 2.20063M19.6631 66.793C37.2089 46.6758 50.9538 29.3256 71.0891 6.12629M23.2272 68.0313C33.4172 56.3507 42.8886 44.8889 76.0613 5.03345M24.6125 69.6947C41.7342 49.9303 62.9971 25.2872 78.9813 6.45798M26.8405 72.1668C45.6343 47.0181 62.4506 26.1063 79.8249 8.96218M25.3862 75.6678C46.0625 49.185 69.4246 21.164 79.4824 6.5913M28.9475 73.6977C41.2888 60.306 54.5644 44.5846 82.0157 7.8684M30.3076 76.631C50.3455 54.5042 67.0544 32.7374 84.1623 10.923M30.1482 76.5039C48.846 60.1931 66.0408 39.7839 85.269 12.7035M32.2974 78.1266C54.0636 55.8357 72.4879 32.3958 88.0323 12.1229M34.5105 79.541C57.2965 56.3704 77.3423 28.079 89.4878 13.9178M33.9561 81.8124C46.5417 64.8504 62.9218 49.3251 90.2715 13.9694M37.187 81.8304C51.5525 65.366 64.8053 50.2203 92.0868 15.3295M40.6913 84.0219C57.1227 65.2759 75.3188 40.8528 94.3096 20.7659M40.9436 87.5763C56.6992 67.9942 69.0606 48.932 94.6513 19.4111M43.6172 85.7054C54.6451 69.5402 71.5968 54.767 95.369 23.0067M44.1203 88.0173C60.1037 65.25 77.6842 47.9013 95.1971 22.6156M47.7333 87.5005C65.4541 66.397 85.7939 41.5164 98.3724 26.0132M50.1108 86.8925C58.53 75.8113 72.1887 63.356 98.7084 29.578M50.7583 88.5469C66.0834 70.3214 84.6644 47.5802 100.064 29.2022M54.8446 89.4783C71.2035 66.767 85.4249 47.3854 99.1911 34.8776M56.0278 90.6884C70.6345 74.3336 83.3172 59.2807 99.6215 35.639M57.9552 91C70.3668 77.264 78.1897 63.7451 102.509 39.0244M62.1029 88.8472C77.395 73.2804 90.5152 59.0051 100.937 38.1505M63.9987 89.1032C74.5272 72.6726 86.0854 57.997 100.546 44.7703M67.0651 87.4579C81.9037 72.3303 92.6884 57.0054 101.008 46.3777M71.9795 87.7527C81.7305 72.6428 92.7531 59.9095 104 51.3779M75.2582 87.207C83.6317 75.2485 95.6843 62.8801 102.812 52.2048M79.2248 82.6991C87.6194 73.935 92.7768 67.0038 100.995 61.0468M83.0715 80.4248C88.2098 75.8517 94.068 67.948 99.6276 63.7043M27.4999 14.4881V14.4881Z" stroke="url(#paint0_linear_909_4482)" stroke-width="0.5" stroke-linecap="round"/>
<g filter="url(#filter0_d_909_4482)">
<g filter="url(#filter1_d_909_4482)">
<circle cx="46.9863" cy="57.3838" r="36.9863" fill="white"/>
</g>
</g>
<path d="M32.8547 62.6708L31.4921 68.9267L38.6057 65.2511C38.6057 65.2511 52.2276 70.8499 64.3347 61.5941C76.4418 52.3383 61.1566 41.7534 61.1566 41.7534C61.1566 41.7534 56.7682 36.4034 43.2985 38.8984C29.8289 41.3933 27.8611 48.3509 27.8611 48.3509C27.8611 48.3509 24.5308 56.4149 32.8547 62.6708Z" fill="url(#paint1_linear_909_4482)"/>
<path d="M37.9377 52.3422C37.7903 52.3937 37.663 52.4902 37.5737 52.6182C37.4844 52.7462 37.4377 52.899 37.4402 53.055C37.8857 53.1256 38.6282 53.3966 39.1703 53.2072C39.3046 53.175 39.4309 53.1159 39.5417 53.0335C39.6525 52.951 39.7454 52.847 39.8149 52.7276C39.8843 52.6082 39.9287 52.4759 39.9456 52.3389C39.9624 52.2018 39.9513 52.0627 39.9128 51.9301C39.4227 51.1356 38.2866 51.9524 37.7929 52.383C36.679 53.5562 38.4129 54.0575 39.3745 53.7122C39.6415 53.6506 39.8938 53.5371 40.117 53.378C40.9969 52.7209 40.2841 51.195 39.2594 51.1504C38.7331 51.1296 38.2158 51.2917 37.7955 51.6091C37.3752 51.9266 37.0778 52.3798 36.9538 52.8917C36.8721 53.9683 38.2013 54.5178 39.1443 54.1354C40.1059 53.8347 41.1083 52.9251 40.9598 51.8558C40.9401 51.6193 40.8516 51.3937 40.7051 51.207C40.5586 51.0202 40.3606 50.8805 40.1356 50.8051C39.1851 50.5675 37.7891 50.872 36.9204 51.3286C36.0516 51.7853 35.6321 53.0847 36.6011 53.7382C37.3146 54.1736 38.1392 54.3927 38.9747 54.369C39.8103 54.3452 40.6211 54.0797 41.3088 53.6045C43.4065 51.6479 39.4524 49.8324 37.7335 50.1591C36.0256 50.2297 34.6556 52.5427 36.1036 53.7976C37.481 54.8037 39.7754 55.0339 41.0303 53.6936C40.6378 54.1703 40.1009 54.5065 39.5007 54.6515C38.1159 54.9708 36.0219 54.6515 35.3202 53.2555C35.1505 52.7919 35.1183 52.289 35.2277 51.8075C35.337 51.326 35.5832 50.8864 35.9365 50.5415C37.6778 48.5181 43.4993 50.2631 42.3632 53.2778C41.2494 55.5054 36.6828 55.7022 35.4761 53.4894C34.6705 51.5625 36.7347 50.2854 38.3683 50.1034C39.2668 49.9141 40.5959 49.8621 41.2531 50.768C42.8458 53.0439 39.5118 55.8581 37.2991 54.6515C36.9722 54.4775 36.7031 54.2121 36.5244 53.8878C36.3458 53.5634 36.2653 53.1941 36.2929 52.8248C36.5751 50.7049 40.0056 49.4834 40.8855 51.8335C41.0319 52.1647 41.0629 52.5354 40.9733 52.8861C40.8838 53.2369 40.6789 53.5474 40.3917 53.7679C39.4376 54.451 37.1023 54.6106 37.0503 53.0253C37.0689 51.9672 39.5861 50.5787 40.1281 51.8447C40.1742 52.0042 40.187 52.1715 40.1658 52.3361C40.1446 52.5008 40.0898 52.6593 40.0049 52.802C39.92 52.9447 39.8068 53.0684 39.6721 53.1656C39.5375 53.2627 39.3844 53.3313 39.2222 53.3669C38.5973 53.4493 37.9619 53.3501 37.3919 53.081C37.3866 52.9124 37.4388 52.747 37.54 52.612C37.6413 52.477 37.7854 52.3806 37.9488 52.3385L37.9377 52.3422Z" fill="white"/>
<path d="M47.2684 52.3421C47.1211 52.3936 46.9938 52.4901 46.9045 52.6181C46.8152 52.7461 46.7684 52.8989 46.7709 53.0549C47.2165 53.1255 47.959 53.3965 48.5011 53.2072C48.6354 53.175 48.7617 53.1158 48.8725 53.0334C48.9833 52.9509 49.0762 52.8469 49.1456 52.7275C49.2151 52.6081 49.2595 52.4758 49.2764 52.3388C49.2932 52.2017 49.2821 52.0626 49.2436 51.93C48.7535 51.1355 47.6174 51.9523 47.1236 52.3829C46.0098 53.5561 47.7437 54.0574 48.7053 53.7121C48.9723 53.6505 49.2246 53.537 49.4478 53.3779C50.3277 52.7208 49.6149 51.1949 48.5902 51.1503C48.0639 51.1295 47.5466 51.2916 47.1263 51.609C46.706 51.9265 46.4086 52.3797 46.2846 52.8916C46.2029 53.9683 47.532 54.5177 48.4751 54.1353C49.4367 53.8346 50.4354 52.925 50.2906 51.8557C50.2706 51.6188 50.1816 51.3929 50.0344 51.2061C49.8872 51.0193 49.6884 50.8798 49.4626 50.805C48.5159 50.5674 47.1199 50.8719 46.2474 51.3285C45.375 51.7852 44.9591 53.0846 45.9319 53.7381C47.2647 54.6328 49.4144 54.5734 50.6544 53.5933C52.7558 51.6367 48.7981 49.8212 47.0828 50.1479C45.375 50.2184 44.005 52.5314 45.4529 53.7863C46.8303 54.7925 49.1211 55.0227 50.3797 53.6824C49.9871 54.1591 49.4503 54.4953 48.85 54.6403C47.4615 54.9595 45.3713 54.6403 44.6696 53.2443C44.4989 52.7808 44.4662 52.2777 44.5756 51.796C44.685 51.3143 44.9317 50.8746 45.2859 50.5303C47.0271 48.5069 52.8486 50.2518 51.7125 53.2666C50.5987 55.4942 46.0321 55.6909 44.8255 53.4782C44.0198 51.5513 46.0841 50.2741 47.7177 50.0922C48.6162 49.9029 49.9453 49.8509 50.6024 50.7568C52.1841 53.0401 48.8426 55.8543 46.615 54.6477C46.2885 54.4745 46.0197 54.2097 45.8416 53.8859C45.6636 53.562 45.5839 53.1932 45.6126 52.8247C45.8947 50.7048 49.303 49.4833 50.2052 51.8335C50.3516 52.1646 50.3825 52.5353 50.293 52.886C50.2034 53.2368 49.9986 53.5474 49.7114 53.7678C48.7572 54.4509 46.4219 54.6106 46.37 53.0252C46.37 51.9671 48.9057 50.5786 49.4478 51.8446C49.4938 52.0041 49.5066 52.1714 49.4854 52.336C49.4642 52.5007 49.4095 52.6593 49.3246 52.8019C49.2397 52.9446 49.1264 53.0683 48.9918 53.1655C48.8572 53.2626 48.704 53.3312 48.5419 53.3668C47.917 53.4492 47.2815 53.35 46.7115 53.0809C46.7062 52.9123 46.7584 52.7469 46.8597 52.6119C46.9609 52.4769 47.1051 52.3805 47.2684 52.3384V52.3421Z" fill="white"/>
<path d="M57.1022 52.3421C56.9549 52.3936 56.8275 52.4901 56.7382 52.6181C56.6489 52.7461 56.6022 52.8989 56.6047 53.0549C57.0539 53.1255 57.7928 53.3965 58.3348 53.2072C58.4691 53.175 58.5955 53.1158 58.7063 53.0334C58.8171 52.9509 58.91 52.8469 58.9794 52.7275C59.0488 52.6081 59.0933 52.4758 59.1101 52.3388C59.127 52.2017 59.1158 52.0626 59.0774 51.93C58.5873 51.1355 57.4512 51.9523 56.9574 52.3829C55.8436 53.5561 57.5774 54.0574 58.539 53.7121C58.8061 53.6505 59.0584 53.537 59.2816 53.3779C60.1615 52.7208 59.4523 51.1949 58.4276 51.1503C57.9007 51.1286 57.3826 51.2903 56.9615 51.6078C56.5404 51.9253 56.2424 52.379 56.1183 52.8916C56.0367 53.9683 57.3695 54.5177 58.3088 54.1353C59.2704 53.8346 60.2728 52.925 60.1243 51.8557C60.1047 51.6192 60.0162 51.3936 59.8697 51.2069C59.7232 51.0201 59.5252 50.8804 59.3001 50.805C58.3497 50.5674 56.9537 50.8719 56.0849 51.3285C55.2161 51.7852 54.7966 53.0846 55.7656 53.7381C56.4823 54.1757 57.311 54.3951 58.1503 54.3694C58.9897 54.3437 59.8034 54.074 60.4919 53.5933C62.5896 51.6367 58.6355 49.8212 56.9166 50.1479C55.2087 50.2184 53.8387 52.5314 55.2867 53.7863C56.6641 54.7925 58.9585 55.0227 60.2134 53.6824C59.8209 54.1591 59.2841 54.4953 58.6838 54.6403C57.299 54.9595 55.205 54.6403 54.5033 53.2443C54.3336 52.7806 54.3014 52.2778 54.4108 51.7963C54.5201 51.3148 54.7663 50.8752 55.1196 50.5303C56.8646 48.5069 62.6824 50.2518 61.5463 53.2666C60.4325 55.4942 55.8659 55.6909 54.6592 53.4782C53.8536 51.5513 55.9178 50.2741 57.5514 50.0922C58.4499 49.9029 59.7791 49.8509 60.4362 50.7568C62.0327 53.0327 58.6949 55.8469 56.4822 54.6403C56.1559 54.4665 55.8872 54.2017 55.7086 53.8781C55.53 53.5545 55.4492 53.186 55.476 52.8173C55.7582 50.6974 59.1887 49.4759 60.0686 51.826C60.2148 52.1569 60.2459 52.5271 60.1571 52.8777C60.0683 53.2283 59.8646 53.539 59.5786 53.7603C58.6207 54.4435 56.2854 54.6031 56.2371 53.0178C56.2594 51.9597 58.7729 50.5711 59.315 51.8372C59.361 51.9967 59.3738 52.1639 59.3526 52.3286C59.3314 52.4933 59.2767 52.6518 59.1917 52.7945C59.1068 52.9372 58.9936 53.0609 58.859 53.1581C58.7243 53.2552 58.5712 53.3237 58.4091 53.3594C57.7854 53.4422 57.151 53.3429 56.5824 53.0735C56.5769 52.9054 56.6286 52.7403 56.7291 52.6054C56.8296 52.4705 56.9729 52.3738 57.1356 52.331L57.1022 52.3421Z" fill="white"/>
<path d="M34.857 62.0916L33.3719 66.584L33.3199 66.5506C34.8749 65.0742 36.8695 64.146 39.0004 63.9071C41.1426 63.677 43.2366 64.2153 45.312 64.4269C47.4042 64.6971 49.5161 64.784 51.6235 64.6868C56.8213 64.4603 62.2307 62.2847 65.0338 57.7069C66.2813 55.7726 67.3543 54.3989 66.5746 51.982C65.9664 49.976 64.9231 48.1289 63.519 46.5725C63.3371 46.3758 62.8805 45.9154 62.7022 45.7261C62.524 45.5367 62.0191 45.106 61.8298 44.939C61.2215 44.4428 60.5883 43.9781 59.9326 43.5467C53.1569 39.1249 44.4432 40.0122 37.1886 42.8376C32.5885 44.7348 29.3919 45.4365 29.3919 51.2394C29.3288 55.3865 30.9512 59.9049 34.6379 62.1362C30.9252 59.9457 29.2137 55.4162 29.2174 51.2394C29.1654 45.3808 32.4437 44.5231 37.1032 42.6037C44.4061 39.7226 53.2534 38.813 60.1442 43.246C60.7679 43.6544 61.5105 44.1853 62.0859 44.6568C62.2753 44.8313 62.7988 45.2917 62.9844 45.4587C63.17 45.6258 63.6267 46.1345 63.8161 46.3275C65.248 47.9334 66.3089 49.8347 66.9236 51.8966C67.7107 54.4212 66.6488 55.858 65.3123 57.8851C62.4461 62.5186 56.9327 64.7277 51.657 64.9393C48.4715 65.1138 45.3045 64.6794 42.1673 64.1967C39.0486 63.6398 35.7035 64.3824 33.3719 66.6063L33.2754 66.6954L33.3199 66.5729L34.857 62.1176V62.0916Z" fill="#454545"/>
<defs>
<filter id="filter0_d_909_4482" x="0.136987" y="3.13699" width="93.6987" height="109.726" filterUnits="userSpaceOnUse" color-interpolation-filters="sRGB">
<feFlood flood-opacity="0" result="BackgroundImageFix"/>
<feColorMatrix in="SourceAlpha" type="matrix" values="0 0 0 0 0 0 0 0 0 0 0 0 0 0 0 0 0 0 127 0" result="hardAlpha"/>
<feOffset/>
<feGaussianBlur stdDeviation="4.93151"/>
<feComposite in2="hardAlpha" operator="out"/>
<feColorMatrix type="matrix" values="0 0 0 0 0 0 0 0 0 0 0 0 0 0 0 0 0 0 0.05 0"/>
<feBlend mode="normal" in2="BackgroundImageFix" result="effect1_dropShadow_909_4482"/>
<feBlend mode="normal" in="SourceGraphic" in2="effect1_dropShadow_909_4482" result="shape"/>
</filter>
<filter id="filter1_d_909_4482" x="0" y="10.3975" width="93.9727" height="93.9727" filterUnits="userSpaceOnUse" color-interpolation-filters="sRGB">
<feFlood flood-opacity="0" result="BackgroundImageFix"/>
<feColorMatrix in="SourceAlpha" type="matrix" values="0 0 0 0 0 0 0 0 0 0 0 0 0 0 0 0 0 0 127 0" result="hardAlpha"/>
<feOffset/>
<feGaussianBlur stdDeviation="5"/>
<feComposite in2="hardAlpha" operator="out"/>
<feColorMatrix type="matrix" values="0 0 0 0 0 0 0 0 0 0 0 0 0 0 0 0 0 0 0.08 0"/>
<feBlend mode="normal" in2="BackgroundImageFix" result="effect1_dropShadow_909_4482"/>
<feBlend mode="normal" in="SourceGraphic" in2="effect1_dropShadow_909_4482" result="shape"/>
</filter>
<linearGradient id="paint0_linear_909_4482" x1="23.2475" y1="12.88" x2="111.411" y2="58.8844" gradientUnits="userSpaceOnUse">
<stop stop-color="#3CA0D2"/>
<stop offset="1" stop-color="#48DCA6"/>
</linearGradient>
<linearGradient id="paint1_linear_909_4482" x1="31.4977" y1="42.2866" x2="66.1109" y2="66.8831" gradientUnits="userSpaceOnUse">
<stop stop-color="#3CA0D2"/>
<stop offset="1" stop-color="#48DCA6"/>
</linearGradient>
</defs>
</svg>
