<svg width="105" height="105" viewBox="0 0 105 105" fill="none" xmlns="http://www.w3.org/2000/svg">
<ellipse cx="58.3557" cy="45.2743" rx="43.4573" ry="43.7563" fill="white"/>
<path d="M17.1439 27.9557C23.1336 21.3609 27.9253 13.6146 34.7038 7.8759M16.0472 35.7632C26.703 25.2349 34.9782 13.6136 38.107 5.07929M16.2991 39.0388C23.3523 26.4418 31.1271 19.0878 43.503 7.43094M16.1777 41.2017C26.0055 28.6517 35.764 19.272 45.1267 6.03414M14 46.524C29.8455 28.2482 43.0991 13.1092 52.1161 3.59151M15.571 47.647C25.2387 35.3146 35.4368 22.8863 53.3339 2.46541M16.9844 50.3537C28.3087 36.867 40.0748 18.7006 54.2074 1M17.6299 53.1553C34.4145 34.3986 49.6621 14.2739 57.2192 1.27248M17.8792 57.6164C25.3714 42.4811 36.9613 30.7177 59.7087 2.16342M19.0756 58.2719C31.8889 39.768 49.079 21.671 65.7609 2.1774M20.1075 61.9531C35.3452 40.0416 54.9056 18.7824 64.7341 3.05144M20.7389 64.0213C33.4991 45.3206 45.3765 30.2071 69.8581 1.92708M20.7693 65.9984C34.8276 44.7998 50.6743 28.656 68.614 2.20063M19.6631 66.793C37.2089 46.6758 50.9538 29.3256 71.0891 6.12629M23.2272 68.0313C33.4172 56.3507 42.8886 44.8889 76.0613 5.03345M24.6125 69.6947C41.7342 49.9303 62.9971 25.2872 78.9813 6.45798M26.8405 72.1668C45.6343 47.0181 62.4506 26.1063 79.8249 8.96218M25.3862 75.6678C46.0625 49.185 69.4246 21.164 79.4824 6.5913M28.9475 73.6977C41.2888 60.306 54.5644 44.5846 82.0157 7.8684M30.3076 76.631C50.3455 54.5042 67.0544 32.7374 84.1623 10.923M30.1482 76.5039C48.846 60.1931 66.0408 39.7839 85.269 12.7035M32.2974 78.1266C54.0636 55.8357 72.4879 32.3958 88.0323 12.1229M34.5105 79.541C57.2965 56.3704 77.3423 28.079 89.4878 13.9178M33.9561 81.8124C46.5417 64.8504 62.9218 49.3251 90.2715 13.9694M37.187 81.8304C51.5525 65.366 64.8053 50.2203 92.0868 15.3295M40.6913 84.0219C57.1227 65.2759 75.3188 40.8528 94.3096 20.7659M40.9436 87.5763C56.6992 67.9942 69.0606 48.932 94.6513 19.4111M43.6172 85.7054C54.6451 69.5402 71.5968 54.767 95.369 23.0067M44.1203 88.0173C60.1037 65.25 77.6842 47.9013 95.1971 22.6156M47.7333 87.5005C65.4541 66.397 85.7939 41.5164 98.3724 26.0132M50.1108 86.8925C58.53 75.8113 72.1887 63.356 98.7084 29.578M50.7583 88.5469C66.0834 70.3214 84.6644 47.5802 100.064 29.2022M54.8446 89.4783C71.2035 66.767 85.4249 47.3854 99.1911 34.8776M56.0278 90.6884C70.6345 74.3336 83.3172 59.2807 99.6215 35.639M57.9552 91C70.3668 77.264 78.1897 63.7451 102.509 39.0244M62.1029 88.8472C77.395 73.2804 90.5152 59.0051 100.937 38.1505M63.9987 89.1032C74.5272 72.6726 86.0854 57.997 100.546 44.7703M67.0651 87.4579C81.9037 72.3303 92.6884 57.0054 101.008 46.3777M71.9795 87.7527C81.7305 72.6428 92.7531 59.9095 104 51.3779M75.2582 87.207C83.6317 75.2485 95.6843 62.8801 102.812 52.2048M79.2248 82.6991C87.6194 73.935 92.7768 67.0038 100.995 61.0468M83.0715 80.4248C88.2098 75.8517 94.068 67.948 99.6276 63.7043M27.4999 14.4881V14.4881Z" stroke="url(#paint0_linear_909_4359)" stroke-width="0.5" stroke-linecap="round"/>
<g filter="url(#filter0_d_909_4359)">
<g filter="url(#filter1_d_909_4359)">
<circle cx="46.9863" cy="57.3835" r="36.9863" fill="white"/>
</g>
<path d="M45.7733 71.3551C44.3004 71.3551 42.8144 71.1447 41.3152 70.7238C39.8423 70.2767 38.501 69.606 37.2911 68.7118C36.9492 68.4751 36.7125 68.1989 36.581 67.8833C36.4758 67.5414 36.4626 67.2126 36.5415 66.897C36.6204 66.5814 36.7782 66.3184 37.0149 66.1079C37.2517 65.8712 37.5278 65.7397 37.8434 65.7134C38.1854 65.6871 38.5404 65.7923 38.9086 66.029C39.9607 66.7655 41.0522 67.3178 42.1832 67.686C43.3141 68.0279 44.4977 68.1989 45.7338 68.1989C46.97 68.1989 48.0352 67.9622 48.9295 67.4888C49.8237 67.0153 50.5075 66.3578 50.981 65.5162C51.4807 64.6745 51.7306 63.6882 51.7306 62.5573C51.7306 60.8214 51.2177 59.4011 50.1919 58.2964C49.1662 57.1918 47.7722 56.6395 46.01 56.6395C44.9317 56.6395 43.9322 56.8367 43.0117 57.2312C42.1174 57.5995 41.2758 58.2307 40.4867 59.1249C40.3026 59.3353 40.0659 59.5195 39.7766 59.6773C39.5136 59.8351 39.2111 59.914 38.8692 59.914C38.3695 59.914 37.9881 59.7825 37.7251 59.5195C37.4621 59.2301 37.3306 58.8488 37.3306 58.3753V44.8433C37.3306 44.3173 37.4752 43.9096 37.7645 43.6203C38.0538 43.331 38.4615 43.1863 38.9875 43.1863H52.2829C52.8089 43.1863 53.2166 43.3178 53.5059 43.5808C53.7952 43.8438 53.9399 44.2252 53.9399 44.7249C53.9399 45.2247 53.7952 45.6192 53.5059 45.9085C53.2166 46.1715 52.8089 46.303 52.2829 46.303H40.9207V56.8367H39.8949C40.6051 55.7847 41.5519 54.9693 42.7355 54.3907C43.9454 53.8121 45.2736 53.5227 46.7201 53.5227C48.4823 53.5227 49.9947 53.9041 51.2571 54.6668C52.5459 55.4033 53.5454 56.4422 54.2555 57.7836C54.9656 59.0986 55.3207 60.6373 55.3207 62.3995C55.3207 64.1353 54.9262 65.6871 54.1371 67.0548C53.3744 68.3962 52.2829 69.4482 50.8626 70.211C49.4423 70.9737 47.7459 71.3551 45.7733 71.3551Z" fill="#454545"/>
</g>
<defs>
<filter id="filter0_d_909_4359" x="0.136987" y="3.13699" width="93.6987" height="109.726" filterUnits="userSpaceOnUse" color-interpolation-filters="sRGB">
<feFlood flood-opacity="0" result="BackgroundImageFix"/>
<feColorMatrix in="SourceAlpha" type="matrix" values="0 0 0 0 0 0 0 0 0 0 0 0 0 0 0 0 0 0 127 0" result="hardAlpha"/>
<feOffset/>
<feGaussianBlur stdDeviation="4.93151"/>
<feComposite in2="hardAlpha" operator="out"/>
<feColorMatrix type="matrix" values="0 0 0 0 0 0 0 0 0 0 0 0 0 0 0 0 0 0 0.05 0"/>
<feBlend mode="normal" in2="BackgroundImageFix" result="effect1_dropShadow_909_4359"/>
<feBlend mode="normal" in="SourceGraphic" in2="effect1_dropShadow_909_4359" result="shape"/>
</filter>
<filter id="filter1_d_909_4359" x="0" y="10.3972" width="93.9727" height="93.9727" filterUnits="userSpaceOnUse" color-interpolation-filters="sRGB">
<feFlood flood-opacity="0" result="BackgroundImageFix"/>
<feColorMatrix in="SourceAlpha" type="matrix" values="0 0 0 0 0 0 0 0 0 0 0 0 0 0 0 0 0 0 127 0" result="hardAlpha"/>
<feOffset/>
<feGaussianBlur stdDeviation="5"/>
<feComposite in2="hardAlpha" operator="out"/>
<feColorMatrix type="matrix" values="0 0 0 0 0 0 0 0 0 0 0 0 0 0 0 0 0 0 0.08 0"/>
<feBlend mode="normal" in2="BackgroundImageFix" result="effect1_dropShadow_909_4359"/>
<feBlend mode="normal" in="SourceGraphic" in2="effect1_dropShadow_909_4359" result="shape"/>
</filter>
<linearGradient id="paint0_linear_909_4359" x1="14" y1="51.1136" x2="104.004" y2="51.31" gradientUnits="userSpaceOnUse">
<stop stop-color="#3CA0D2"/>
<stop offset="1" stop-color="#48DCA6"/>
</linearGradient>
</defs>
</svg>
