<svg width="105" height="105" viewBox="0 0 105 105" fill="none" xmlns="http://www.w3.org/2000/svg">
<ellipse cx="58.3557" cy="45.2743" rx="43.4573" ry="43.7563" fill="white"/>
<path d="M17.1439 27.9557C23.1336 21.3609 27.9253 13.6146 34.7038 7.8759M16.0472 35.7632C26.703 25.2349 34.9782 13.6136 38.107 5.07929M16.2991 39.0388C23.3523 26.4418 31.1271 19.0878 43.503 7.43094M16.1777 41.2017C26.0055 28.6517 35.764 19.272 45.1267 6.03414M14 46.524C29.8455 28.2482 43.0991 13.1092 52.1161 3.59151M15.571 47.647C25.2387 35.3146 35.4368 22.8863 53.3339 2.46541M16.9844 50.3537C28.3087 36.867 40.0748 18.7006 54.2074 1M17.6299 53.1553C34.4145 34.3986 49.6621 14.2739 57.2192 1.27248M17.8792 57.6164C25.3714 42.4811 36.9613 30.7177 59.7087 2.16342M19.0756 58.2719C31.8889 39.768 49.079 21.671 65.7609 2.1774M20.1075 61.9531C35.3452 40.0416 54.9056 18.7824 64.7341 3.05144M20.7389 64.0213C33.4991 45.3206 45.3765 30.2071 69.8581 1.92708M20.7693 65.9984C34.8276 44.7998 50.6743 28.656 68.614 2.20063M19.6631 66.793C37.2089 46.6758 50.9538 29.3256 71.0891 6.12629M23.2272 68.0313C33.4172 56.3507 42.8886 44.8889 76.0613 5.03345M24.6125 69.6947C41.7342 49.9303 62.9971 25.2872 78.9813 6.45798M26.8405 72.1668C45.6343 47.0181 62.4506 26.1063 79.8249 8.96218M25.3862 75.6678C46.0625 49.185 69.4246 21.164 79.4824 6.5913M28.9475 73.6977C41.2888 60.306 54.5644 44.5846 82.0157 7.8684M30.3076 76.631C50.3455 54.5042 67.0544 32.7374 84.1623 10.923M30.1482 76.5039C48.846 60.1931 66.0408 39.7839 85.269 12.7035M32.2974 78.1266C54.0636 55.8357 72.4879 32.3958 88.0323 12.1229M34.5105 79.541C57.2965 56.3704 77.3423 28.079 89.4878 13.9178M33.9561 81.8124C46.5417 64.8504 62.9218 49.3251 90.2715 13.9694M37.187 81.8304C51.5525 65.366 64.8053 50.2203 92.0868 15.3295M40.6913 84.0219C57.1227 65.2759 75.3188 40.8528 94.3096 20.7659M40.9436 87.5763C56.6992 67.9942 69.0606 48.932 94.6513 19.4111M43.6172 85.7054C54.6451 69.5402 71.5968 54.767 95.369 23.0067M44.1203 88.0173C60.1037 65.25 77.6842 47.9013 95.1971 22.6156M47.7333 87.5005C65.4541 66.397 85.7939 41.5164 98.3724 26.0132M50.1108 86.8925C58.53 75.8113 72.1887 63.356 98.7084 29.578M50.7583 88.5469C66.0834 70.3214 84.6644 47.5802 100.064 29.2022M54.8446 89.4783C71.2035 66.767 85.4249 47.3854 99.1911 34.8776M56.0278 90.6884C70.6345 74.3336 83.3172 59.2807 99.6215 35.639M57.9552 91C70.3668 77.264 78.1897 63.7451 102.509 39.0244M62.1029 88.8472C77.395 73.2804 90.5152 59.0051 100.937 38.1505M63.9987 89.1032C74.5272 72.6726 86.0854 57.997 100.546 44.7703M67.0651 87.4579C81.9037 72.3303 92.6884 57.0054 101.008 46.3777M71.9795 87.7527C81.7305 72.6428 92.7531 59.9095 104 51.3779M75.2582 87.207C83.6317 75.2485 95.6843 62.8801 102.812 52.2048M79.2248 82.6991C87.6194 73.935 92.7768 67.0038 100.995 61.0468M83.0715 80.4248C88.2098 75.8517 94.068 67.948 99.6276 63.7043M27.4999 14.4881V14.4881Z" stroke="url(#paint0_linear_909_4495)" stroke-width="0.5" stroke-linecap="round"/>
<g filter="url(#filter0_d_909_4495)">
<g filter="url(#filter1_d_909_4495)">
<circle cx="46.9863" cy="57.3838" r="36.9863" fill="white"/>
</g>
</g>
<path d="M60.2662 39.1025H30.8798C29.5129 39.1025 28.4048 40.2106 28.4048 41.5776V57.721C28.4048 59.0879 29.5129 60.196 30.8798 60.196H60.2662C61.6331 60.196 62.7412 59.0879 62.7412 57.721V41.5776C62.7412 40.2106 61.6331 39.1025 60.2662 39.1025Z" fill="url(#paint1_linear_909_4495)"/>
<path d="M65.071 61.9453H26.2202C26.2202 61.9453 24.0524 67.9624 33.3515 67.9624H60.4147C60.4147 67.9624 67.2523 66.0073 65.797 61.9453" fill="url(#paint2_linear_909_4495)"/>
<path d="M29.4546 55.2528L30.0691 43.4348C30.0691 43.1883 30.0894 42.9452 30.113 42.6919C30.1434 41.8073 30.8288 41.3413 31.6426 41.213C34.5566 40.6086 37.5584 40.6626 40.5129 40.7302L52.3511 40.9969C53.4418 41.0442 58.7666 41.0948 59.7796 41.1961C61.5658 41.3785 61.8055 43.5091 61.6637 44.9374L61.3261 50.8498C61.2687 51.8222 61.1269 54.3378 61.0728 55.2798C61.0188 56.2219 60.9715 57.3328 60.3975 58.2039C59.4858 59.6052 57.6253 59.3317 56.1903 59.3148L50.2712 59.1629C48.0933 59.1089 37.4132 58.8252 35.475 58.7712C34.4855 58.7757 33.4974 58.6989 32.5205 58.5416C30.8322 58.2917 29.1203 56.8803 29.3499 55.0435C29.3894 54.7991 29.4717 54.5637 29.593 54.3479C29.4755 54.5644 29.3966 54.7998 29.36 55.0435C29.1642 56.8634 30.8626 58.2377 32.534 58.4606C33.5087 58.603 34.4934 58.6663 35.4784 58.6496C37.3524 58.6496 48.1574 58.8995 50.2745 58.94L56.1937 59.0616C57.5848 59.0616 59.3035 59.3587 60.1679 58.0486C60.9141 56.8466 60.7149 55.1515 60.8432 53.784L60.9985 50.8295L61.3126 44.9171C61.4105 43.6239 61.3362 41.6992 59.7188 41.5034C58.8038 41.419 53.381 41.3143 52.341 41.2738L40.5027 40.9361C37.555 40.8551 34.5802 40.7876 31.6764 41.3751C30.3899 41.6013 30.2582 42.2294 30.2278 43.428L29.4512 55.2461L29.4546 55.2528Z" fill="#454545"/>
<path d="M52.5034 51.9404C53.6982 52.3312 54.8051 52.9518 55.7618 53.7672C56.7429 54.559 57.5567 55.538 58.1558 56.6474C57.6561 56.2624 57.1935 55.8606 56.7309 55.4656C55.4309 54.3446 53.8034 53.0682 52.5102 51.9472L52.5034 51.9404Z" fill="white"/>
<path d="M51.831 51.3293C51.8648 52.8454 51.8614 54.3682 51.831 55.8776L51.4292 55.7526C51.8209 55.0773 52.2328 54.3615 52.0505 53.5646C51.7837 52.5915 51.8564 51.5566 52.2564 50.6304C53.8906 51.2409 55.6422 51.4719 57.3787 51.3057V51.954C55.6035 51.8589 53.8236 51.912 52.0572 52.1127L52.1585 51.721C53.2593 52.4503 53.7658 53.5444 53.0499 54.7599C52.8581 55.0869 52.6046 55.3735 52.3037 55.6041C53.033 54.8815 53.5125 53.5781 52.7393 52.7374C52.3452 52.3638 51.909 52.0374 51.4393 51.7649C53.418 51.4745 55.4135 51.1672 57.4294 51.3057V51.954C55.7018 52.1481 53.9527 51.9424 52.3172 51.353L52.7292 51.1672C52.5818 51.5237 52.4973 51.903 52.4793 52.2883C52.4185 52.8859 52.6988 53.541 52.6076 54.1825C52.4725 54.8403 52.1884 55.4583 51.777 55.989L51.3076 56.6846C51.4494 54.9017 51.598 53.1088 51.7972 51.3361L51.831 51.3293Z" fill="white"/>
<path d="M52.875 52.7539C53.969 52.8518 54.9009 53.6048 55.6404 54.3544C56.4035 55.0297 56.8425 56.0798 57.9129 56.3094C56.7918 56.6471 55.8869 55.4923 55.1609 54.8271C54.4757 54.0559 53.7093 53.3608 52.875 52.7539Z" fill="white"/>
<path d="M27.9453 64.2651C28.3843 65.6158 30.6736 65.3929 31.8351 65.636C32.9224 65.7643 35.0969 65.9737 36.1875 66.0581C43.4568 66.619 50.7634 66.4697 58.0036 65.6124C59.2935 65.474 61.0425 65.2207 62.3459 65.0384C60.9176 65.349 59.4792 65.6191 58.0374 65.8589C50.0719 67.1071 41.9698 67.2208 33.9725 66.1965L31.8182 65.8791C30.6364 65.5685 28.3302 65.7002 27.9622 64.2651H27.9453Z" fill="#454545"/>
<defs>
<filter id="filter0_d_909_4495" x="0.136987" y="3.13699" width="93.6987" height="109.726" filterUnits="userSpaceOnUse" color-interpolation-filters="sRGB">
<feFlood flood-opacity="0" result="BackgroundImageFix"/>
<feColorMatrix in="SourceAlpha" type="matrix" values="0 0 0 0 0 0 0 0 0 0 0 0 0 0 0 0 0 0 127 0" result="hardAlpha"/>
<feOffset/>
<feGaussianBlur stdDeviation="4.93151"/>
<feComposite in2="hardAlpha" operator="out"/>
<feColorMatrix type="matrix" values="0 0 0 0 0 0 0 0 0 0 0 0 0 0 0 0 0 0 0.05 0"/>
<feBlend mode="normal" in2="BackgroundImageFix" result="effect1_dropShadow_909_4495"/>
<feBlend mode="normal" in="SourceGraphic" in2="effect1_dropShadow_909_4495" result="shape"/>
</filter>
<filter id="filter1_d_909_4495" x="0" y="10.3975" width="93.9727" height="93.9727" filterUnits="userSpaceOnUse" color-interpolation-filters="sRGB">
<feFlood flood-opacity="0" result="BackgroundImageFix"/>
<feColorMatrix in="SourceAlpha" type="matrix" values="0 0 0 0 0 0 0 0 0 0 0 0 0 0 0 0 0 0 127 0" result="hardAlpha"/>
<feOffset/>
<feGaussianBlur stdDeviation="5"/>
<feComposite in2="hardAlpha" operator="out"/>
<feColorMatrix type="matrix" values="0 0 0 0 0 0 0 0 0 0 0 0 0 0 0 0 0 0 0.08 0"/>
<feBlend mode="normal" in2="BackgroundImageFix" result="effect1_dropShadow_909_4495"/>
<feBlend mode="normal" in="SourceGraphic" in2="effect1_dropShadow_909_4495" result="shape"/>
</filter>
<linearGradient id="paint0_linear_909_4495" x1="23.2475" y1="12.88" x2="111.411" y2="58.8844" gradientUnits="userSpaceOnUse">
<stop stop-color="#3CA0D2"/>
<stop offset="1" stop-color="#48DCA6"/>
</linearGradient>
<linearGradient id="paint1_linear_909_4495" x1="31.9328" y1="41.8869" x2="56.7917" y2="63.0021" gradientUnits="userSpaceOnUse">
<stop stop-color="#3CA0D2"/>
<stop offset="1" stop-color="#48DCA6"/>
</linearGradient>
<linearGradient id="paint2_linear_909_4495" x1="30.1109" y1="62.7396" x2="33.9361" y2="76.0084" gradientUnits="userSpaceOnUse">
<stop stop-color="#3CA0D2"/>
<stop offset="1" stop-color="#48DCA6"/>
</linearGradient>
</defs>
</svg>
