<svg width="645" height="385" viewBox="0 0 645 385" fill="none" xmlns="http://www.w3.org/2000/svg">
<path opacity="0.7" d="M344.668 324.973C345.311 324.731 345.68 323.738 348.54 321.36M343.323 328.81C345.567 325.592 349.042 322.46 350.043 321.286M343.089 332.009C343.109 328.982 347.976 325.835 351.695 320.027M339.89 336.506C343.798 327.712 349.468 323.273 352.983 316.887M338.709 337.17C342.553 330.805 349.347 327.666 358.176 316.341M340.281 342.071C343.779 331.75 353.161 321.729 356.962 319.19M340.321 342.759C347.6 331.914 353.144 322.359 359.72 316.594M337.806 341.796C342.459 337.193 347.344 330.81 361.121 316.613M340.749 345.984C347.042 336.751 352.13 329.207 365.056 313.641M338.549 343.655C346.912 340.256 350.752 330.817 366.209 314.631M340.997 345.854C348.152 338.045 352.432 331.936 368.671 314.407M339.471 344.966C352.107 335.949 358.487 327.015 369.754 315.838M343.195 347.695C349.759 337.618 361.466 327.57 367.556 318.116M341.042 348.216C349.041 340.016 355.208 334.129 367.852 318.26M343.978 352.511C354.604 338.735 363.127 325.425 373.104 316.097M341.101 352.317C351.014 340.179 363.06 328.698 370.153 316.439M341.149 353.461C355.584 339.764 366.173 327.339 372.854 318.904M344.653 353.74C355.179 343.747 364.408 331.731 373.186 319.982M344.76 354.211C355.066 342.426 369.727 328.552 374.412 319.712M345.659 354.664C354.669 345.189 364.808 332.132 376.186 320.38M343.696 356.129C352.085 350.359 359.372 339.155 378.199 318.659M346.457 357.209C354.042 348.998 360.618 339.857 378.281 320.027M346.426 359.458C356.327 344.745 372.438 331.393 380.48 320.488M346.006 359.775C359.98 344.753 370.604 331.623 381.171 321.612M347.726 359.224C355.038 350.552 365.252 337.506 380.849 320.797M346.85 359.403C356.975 347.525 367.461 337.26 383.144 322.967M349.172 359.756C360.451 347.867 370.577 335.787 381.988 320.032M350.56 361.064C363.585 349.311 373.045 333.526 384.936 324.223M349.539 361.921C358.282 354.291 365.46 344.803 382.405 322.397M350.734 364.268C364.937 349.2 376.336 334.526 382.371 326.242M352.989 361.802C359.769 355.887 369.145 343.526 385.031 325.331M356.558 361.744C364.855 349.489 376.706 336.387 385.328 328.14M354.512 361.976C365.358 350.021 379.942 336.411 384.247 330.235M355.056 365.037C367.747 351.476 376.955 340.907 387.743 328.268M359.027 364.853C368.447 356.318 375.951 344.813 386.462 329.666M356.986 365.744C366.836 354.396 380.704 340.279 388.223 331.853M360.695 363.879C368.396 355.793 379.048 342.758 385.999 332.753M359.98 367.279C367.785 357.601 370.505 352.18 387.368 332.852M361.886 365.78C367.387 359.096 376.155 349.795 388.828 335.359M362.114 367.075C369.246 359.78 374.603 353.753 388.069 337.379M362.758 366.589C371.728 359.606 377.534 351.36 388.5 335.606M366.489 366.139C368.793 360.853 375.711 353.701 389.848 340.377M365.798 365.951C376.067 356.306 383.968 348.406 390.327 339.475M367.278 368.003C374.446 357.79 386.859 347.114 388.879 339.549M367.366 369.015C371.783 362.588 379.635 355.238 389.694 339.631M369.777 367.779C377.155 357.946 382.309 350.861 391.252 342.122M373.074 366.044C379.24 357.234 384.749 351.216 389.1 344.307M376.819 363.786C379.633 360.402 384.956 354.026 386.839 348.884M376.685 362.389C381.22 361.121 384.082 356.743 387.896 353.805M380.077 362.655C381.144 359.77 383.578 358.066 385.73 354.691M382.141 360.657C383.168 360.199 383.812 359.34 384.456 358.809M342.845 329.001C345.28 325.642 346.498 324.053 347.706 322.085M341.907 330.168C344.087 327.67 347.102 324.666 351.163 319.413M340.128 335.42C344.976 330.496 349.511 324.089 350.906 319.966M339.636 338.048C343.93 331.364 352.968 321.291 354.684 319.619M340 341.787C342.156 335.319 344.731 331.758 355.144 317.812M338.224 342.464C343.939 335.679 346.276 332.496 357.117 315.902M338.922 342.388C345.098 334.571 352.445 328.726 359.043 316.094M340.493 345.551C346.478 334.237 357.709 321.916 363.007 315.452M339.34 345.162C349.271 332.02 358.614 321.78 366.407 314.366M338.201 347.327C349.976 333.724 357.778 323.034 367.373 313.54M341.256 348.02C345.427 339.904 352.506 332.737 366.006 314.47M341.923 350.303C346.814 340.623 353.657 333.98 367.099 317.758M340.999 350.27C353.198 335.677 359.103 325.476 370.934 315.506M343.811 349.518C352.938 338.558 359.788 329.277 368.508 318.329M341.14 352.321C351.453 343.449 356.393 334.414 370.706 315.267M343.816 352.541C349.892 343.039 356.37 334.369 371.305 319.466M342.531 351.82C348.355 344.509 356.847 337.688 371.896 316.459M344.541 355.263C354.517 339.703 366.838 327.785 374.284 316.798M344.202 355.117C352.319 345.051 362.146 337.278 374.763 318.199M345.587 356.373C356.472 342.163 367.436 328.525 377.494 317.273M342.811 358.952C353.57 350.786 362.039 337.557 375.994 320.935M346.17 361.174C358.367 346.079 368.439 328.888 377.357 318.687M347.217 360.536C355.29 350.309 367.206 339.239 378.491 321.42M348.308 362.495C361.946 346.863 371.008 330.239 379.916 321.768M349.882 359.753C360.554 346.978 374.095 330.72 380.826 322.71M347.995 361.794C356.755 353.311 362.523 344.254 383.047 321.001M350.166 363.197C358.322 351.863 367.958 340.481 383.019 321.617M353.248 361.238C361.603 352.613 371.092 338.724 384.444 325.247M352.064 360.81C357.733 355.767 363.759 344.932 385.836 326.163M353.024 364.183C361.391 351.922 367.719 343.592 384.369 326.537M354.553 361.629C368.683 348.094 378.898 335.142 383.741 328.146M354.587 362.286C365.577 351.426 375.691 337.42 385.28 327.27M355.794 363.516C365.186 355.401 374.37 343.619 384.642 328.877M357.406 364.403C365.39 354.988 376.152 342.883 386.756 330.595M356.353 363.739C365.894 354.853 375.396 344.898 386.143 329.647M360.553 366.299C369.495 351.022 379.55 339.566 386.569 333.662M358.889 367.07C372.305 352.812 379.429 338.354 386.596 332.188M359.908 367.307C366.83 355.833 374.924 347.726 387.172 333.94M361.291 365.359C370.574 355.304 380.849 345.059 389.057 335.177M365.504 364.815C369.966 361.953 373.405 352.103 390.127 335.706M365.25 367.025C370.817 357.868 378.3 352.611 390.532 338.506M365.616 367.34C371.471 359.247 377.367 353.797 388.085 338.009M365.513 368.564C373.626 357.617 383.538 349.387 391.405 340.504M369.686 368.775C373.21 360.914 379.764 353.56 388.867 341.497M372.896 364.496C379.883 355.49 386.891 348.686 389.275 339.395M374.639 366.881C380.43 356.713 386.102 349.518 392.045 342.911M376.309 364.239C380.181 360.107 385.301 352.023 390.33 345.399M377.291 364.374C378.582 358.202 382.441 356.777 387.608 347.908M378.582 362.179C382.158 361.726 382.095 359.578 386.44 352.161M382.963 361.308C382.982 359.24 384.404 358.563 385.386 356.172M518.177 325.559C518.281 324.024 519.184 323.409 521.341 321.49M515.952 327.257C519.154 325.218 522.132 323.271 523.483 320.591M515.241 331.315C516.796 327.355 521.434 323.769 526.699 318.747M514.099 335.715C516.324 328.854 522.716 327.411 528.333 316.998M513.988 338.186C519.085 330.144 520.96 326.569 529.372 316.294M513.513 342.078C516.463 333.98 521.957 325.738 531.481 315.841M511.1 343.784C518.478 333.243 529.136 324.761 534.158 315.402M514.561 342.266C519.555 335.912 525.118 329.095 537.261 314.57M514.178 342.232C521.871 334.798 532.259 321.352 538.891 313.805M512.482 346.747C521.728 335.081 532.477 320.824 539.394 316.909M513.738 344.787C519.486 340.496 527.82 330.394 538.506 317.218M515.516 346.419C521.738 338.578 525.954 331.356 539.653 316.559M514.087 350.104C519.276 340.101 525.409 334.26 542.125 315.925M513.286 347.86C521.535 342.262 530.192 330.945 544.649 315.13M513.517 351.432C526.605 336.457 536.729 324.885 546.026 318.248M517.19 352.461C523.448 346.761 525.906 339.088 544.087 319.241M518.186 352.548C522.935 343.396 528.222 335.867 545.623 319.547M517.985 354.66C524.624 345.812 533.456 336.047 546.282 318.702M517.628 355.009C528.128 346.211 536.347 332.707 548.611 317.321M517.252 354.361C528.817 343.601 536.507 333.83 547.894 318.716M517.773 355.642C524.308 348.382 535.162 336.784 548.88 318.189M518.879 356.701C525.356 348.782 534.429 341.766 551.525 319.032M519.134 357.945C530.748 349.016 540.613 335.714 551.865 320.052M518.93 358.598C530.561 349.56 537.67 338.781 554.673 319.654M520.407 359.798C532.248 348.569 541.751 336.355 553.267 319.319M520.902 361.471C528.6 350.695 537.59 339.619 555.064 319.141M522.859 362.638C532.008 349.137 542.636 335.718 555.423 322.824M524.447 360.476C535.227 350.861 542.511 336.906 556.054 323.531M526.208 361.363C529.296 356.74 536.52 347.104 559.227 325.694M526.957 361.851C532.456 355.653 536.941 346.076 555.718 326.652M528.205 361.069C536.141 352.098 548.202 339.449 560.2 326.431M527.181 364.266C539.719 351.674 550.901 336.64 557.807 325.907M528.222 362.681C537.82 352.399 543.719 345.341 557.526 328.573M529.137 365.953C540.386 351.627 548.057 339.621 560.648 328.971M531.278 363.026C540.637 351.035 551.632 338.328 559.169 331.812M531.663 364.372C537.579 356.972 543.057 347.793 561.593 333.324M534.164 366.159C539.664 358.559 546.566 349.263 561.653 331.034M534.341 366.893C544.591 354.327 554.694 343.191 562.792 332.636M535.275 364.847C544.929 356.563 550.252 346.065 563.808 332.582M534.713 365.201C545.063 356.108 552.7 345.998 561.568 334.411M534.547 367.854C542.171 362.753 546.774 356.048 560.702 334.832M536.096 366.329C544.646 358.082 552.604 353.821 562.078 340.046M538.16 369.766C546.986 357.242 552.287 351.995 561.929 337.549M537.632 370.166C545.085 361.899 548.832 355.991 565.375 338.646M541.059 367.913C547.505 360.164 556.124 351.262 565.572 342.986M545.699 364.832C549.006 360.637 553.396 356.831 565.011 340.789M547.488 364.11C550.735 360.044 557.407 350.833 563.582 344.774M548.927 365.359C551.878 359.723 557.035 356.357 561.038 347.743M551.6 364.107C553.794 359.219 559.241 355.274 559.771 352.263M553.497 362.662C553.943 360.767 556.163 358.556 558.697 355.69M555.225 361.384C555.254 360.864 556.381 360.39 557.86 358.77M516.307 327.984C518.756 326.483 519.731 322.848 521.252 320.683M514.236 331.047C518.67 326.139 520.745 323.314 523.753 319.101M515.723 335.47C517.2 331.851 521.037 327.701 526.434 320.201M514.141 336.061C516.653 333.255 518.908 329.454 527.727 320.391M509.768 338.787C517.814 333.247 522.819 328.398 529.883 318.615M512.538 343.709C517.794 334.965 525.376 328.304 530.253 317.94M512.272 341.66C517.922 335.091 522.739 329.962 533.323 314.704M511.735 344.796C519.979 332.662 528.947 322.038 536.899 314.553M512.934 346.933C518.669 338.924 523.666 332.655 539.071 314.061M512.628 344.446C520.16 335.455 529.887 327.661 540.987 313.421M514.3 346.636C518.961 337.946 528.311 332.835 540.107 315.245M513.044 348.326C519.99 338.05 528.431 331.756 540.373 315.984M514.793 351.54C524.484 341.136 528.71 330.138 544.139 317.641M516.616 350.518C525.735 338.056 536.382 326.719 541.635 318.721M516.086 351.825C520.164 345.353 528.728 335.787 545.962 315.079M514.371 351.151C524.172 345.887 527.673 337.856 546.335 315.987M518.098 355.804C529.426 341.961 540.148 327.815 546.261 317.255M516.477 354.15C528.236 341.857 536.441 332.243 546.709 318.81M517.089 356.138C531.021 339.836 539.761 326.969 548.456 317.939M517.668 356.554C528.126 344.501 539.565 332.319 549.246 319.523M518.005 356.677C524.87 347.662 535.2 338.716 549.235 318.966M517.253 361.347C528.329 347.126 541.696 333.636 549.273 320.331M517.883 358.031C531.836 344.153 545.579 331.527 552.133 319.135M519.446 360.961C534.422 343.414 544.76 331.92 554.554 318.594M520.714 358.94C533.846 345.15 546.924 328.701 552.539 321.54M523.989 362.635C532.763 349.002 543.592 336.664 556.982 322.501M525.226 361.204C534.759 347.612 545.522 333.232 558.059 322.679M522.143 362.448C533.548 347.611 548.284 335.041 555.756 324.899M526.062 361.646C531.495 351.223 538.461 343.145 558.013 323.808M525.391 362.573C535.75 353.121 544.884 341.412 558.442 323.58M528.237 361.822C538.846 349.12 551.545 335.148 559.756 326.604M528.309 364.905C541.18 348.236 550.511 337.362 556.458 328.786M530.939 363.305C539.571 352.634 550.339 339.683 559.945 328.341M530.393 365.06C542.202 354.456 548.306 340.32 560.766 331.63M532.287 364.187C540.742 352.845 550.021 338.974 558.786 328.98M534.151 367.114C544.236 354.397 552.955 338.584 560.236 332.322M533.634 364.794C540.899 355.312 550.561 345.847 559.038 331.681M532.741 365.716C539.504 359.505 546.39 353.959 561.235 334.892M534.672 366.293C544.176 358.153 552.909 345.411 561.442 335.086M536.806 368.821C544.251 357.612 551.242 348.197 561.327 338.135M538.934 366.363C548.074 355.352 557.83 344.666 564.245 335.952M538.901 367.072C548.072 356.149 553.169 348.701 562.599 337.921M540.901 370.206C544.996 360.658 549.911 357.074 563.711 339.92M541.227 367.537C546.333 360.439 551.289 353.675 562.274 341.641M542.319 364.01C551.968 356.814 560.076 348.278 563.366 342.64M544.904 366.11C553.326 357.979 560.861 349.376 563.254 341.977M550.075 363.92C551.671 359.648 559.201 351.661 563.01 344.486M551.411 362.088C554.341 361.421 555.129 356.461 560.273 349.939M552.69 363.608C553.632 360.361 556.38 358.239 561.324 352.889M554.724 362.133C556.201 360.163 557.042 357.629 559.168 354.89M292.049 94.5945C292.285 94.3601 292.332 94.1484 292.587 93.83M291.893 96.1578C292.592 94.9976 293.879 94.4282 294.106 93.7757M291.758 97.2379C292.569 96.7339 293.927 95.6703 295.132 93.2889M292.129 99.3844C294.306 96.6266 295.749 95.5982 296.913 93.7353M293.053 99.8453C295.307 98.5157 295.684 95.0575 299.175 93.7163M292.157 101.658C295.583 99.7128 296.179 98.1208 299.896 92.6034M293.345 103.044C294.569 101.156 296.301 98.2823 301.094 92.0474M295.146 103.916C297.546 101.315 299.941 96.5461 303.267 93.3798M293.279 104.76C298.116 101.34 300.5 95.7513 304.322 93.3154M294.016 105.842C298.457 103.199 299.638 101.122 304.934 93.0235M296.347 106.19C296.892 103.634 300.974 101.492 306.085 92.4497M294.762 110.217C299.256 103.126 302.32 100.749 307.986 91.6907M296.653 111.723C297.366 106.324 302.607 102.688 309.319 93.7429M295.638 109.065C300.23 105.638 303.308 101.875 309.122 91.8274M295.495 111.373C299.776 106.774 305.844 97.8684 313.233 92.7582M294.366 115.283C303.559 106.888 305.636 101.708 314.9 93.8373M294.477 116.453C301.202 109.372 309.054 99.9006 316.169 91.5903M297.599 115.643C299.118 111.486 305.011 105.019 314.392 92.6434M299.153 116.678C303.035 106.691 311.363 101.899 319.608 93.6106M298.739 118.976C303.693 112.64 311.147 103.555 319.414 94.1301M298.495 118.253C304.18 110.371 312.073 101.713 320.992 93.0655M299.783 118.509C304.691 114.333 308.522 105.474 321.337 91.4104M297.835 122.997C304.005 112.681 313.28 104.717 322.502 91.4434M299.814 123.057C306.572 114.387 316.325 104.365 323.445 91.3405M299.449 125.226C308.438 116.419 313.073 108.553 327.07 92.3614M301.185 126.84C310.017 115.074 322.632 100.784 327.438 91.6619M299.441 128.195C305.566 119.402 314.519 112.876 330.998 94.0137M299.305 129.07C310.063 114.825 322.614 100.517 330.873 92.2531M300.205 127.608C308.598 119.034 318.082 108.428 330.995 94.2329M300.707 131.766C309.167 122.415 316.81 110.608 331.935 91.4258M301.424 130.359C310.926 119.983 323.193 106.414 333.666 91.7526M301.692 131.814C306.941 126.616 315.745 116.429 334.695 92.1175M300.157 134.683C309.259 126.341 315.355 114.933 337.345 94.1045M303.854 135.06C315.376 119.909 328.665 106.881 340.63 92.9105M301.013 134.319C318.526 119.897 330.58 103.13 341.328 91.0848M300.381 138.665C314.037 122.497 330.354 109.325 340.98 90.9725M301.568 137.573C314.462 121.92 327.468 110.546 341.547 91.7293M302.461 139.065C314.453 128.796 321.942 115.911 342.663 93.5049M302.509 140.626C314.383 132.34 322.777 119.511 347.385 94.5051M303.642 141.804C313.188 131.86 322.833 120.285 348.199 91.6144M304.384 143.82C313.287 132.403 322.839 120.97 349.935 93.7033M302.646 147.025C321.183 127.114 332.975 111.633 350.307 93.703M303.756 147.614C321.892 129.721 338.847 110.541 352.573 93.4615M303.666 145.457C318.347 133.444 330.273 116.111 354.779 90.4399M306.855 150.466C314.06 136.505 327.095 124.268 352.262 91.5065M307.051 148.356C322.672 129.071 342.307 107.433 356.445 91.9016M304.146 149.18C319.348 136.951 332.65 123.475 357.697 91.8772M306.662 153.509C324.332 134.025 343.595 110.797 358.752 94.0846M306.453 152.448C322.522 133.283 341.935 110.449 358.768 91.1018M308.063 155.75C328.549 133.602 348.971 108.839 359.024 91.0727M306.963 155.442C322.708 137.48 341.69 114.669 360.281 91.9437M307.71 155.477C327.049 137.729 341.405 117.986 363.764 93.965M308.613 158.578C323.22 139.997 341.072 122.265 365.511 93.99M307.643 157.725C320.244 146.126 334.088 133.19 368.507 90.243M307.216 160.387C326.693 137.193 344.843 118.056 366.707 91.4745M307.163 164.403C325.852 141.437 343.296 124.455 368.473 91.9595M308.105 162.27C328.234 139.466 349.408 115.149 371.366 90.6997M308.152 163.418C322.945 151.651 333.905 134.614 373.934 92.3728M309.128 165.464C331.285 139.45 356.966 113.5 373.076 93.9015M308.536 166.213C325.683 149.25 336.853 135.372 374.045 91.5343M310.179 169.406C325.882 154.183 337.548 137.788 378.01 91.9148M311.83 167.989C327.18 147.155 346.347 128.913 377.5 93.3014M309.071 172.735C334.884 144.307 358.074 113.533 378.209 93.6301M312.873 172.517C328.396 152.065 350.683 127.508 378.603 90.4445M312.576 175.18C333.962 145.946 357.125 121.575 382.363 90.8284M313.355 172.629C334.695 149.408 353.511 125.789 384.197 92.0988M313 176.672C328.537 157.67 346.188 135.441 386.467 92.7735M312.877 175.869C338.199 145.189 367.658 111.476 385.419 93.1384M310.897 180.161C332.124 158.782 346.304 136.951 386.924 90.2445M314.873 180.488C339.726 148.527 364.979 120.044 387.914 90.8253M312.049 180.65C333.005 156.757 353.134 135.144 390.689 93.7274M311.642 182.089C345.874 148.742 374.279 111.263 390.909 91.858M315.52 183.811C339.377 151.902 368.573 121.787 393.68 91.7054M313.116 184.277C334.95 157.56 356.608 132.673 395.627 93.2138M315.383 186.604C337.355 159.906 357.69 136.601 394.344 91.4555M313.464 186.955C338.557 160.94 359.628 132.078 397.936 93.5497M313.609 188.94C344.778 153.456 373.903 121.613 397.95 90.1521M315.006 187.39C338.974 163.555 359.049 138.839 401.802 91.1683M316.58 190.097C337.059 170.797 354.586 146.737 402.661 92.7425M316.781 192.577C337.991 167.134 358.004 143.667 403.434 90.7547M314.856 194.632C352.289 153.306 386.442 114.641 402.462 90.9803M316.378 193.136C334.084 170.391 354.774 150.479 404.691 93.5863M317.808 194.159C338.274 169.04 360.122 144.343 406.334 92.5922M319.423 195.854C343.45 167.97 365.299 138.166 408.232 93.104M316.312 196.421C339.027 171.97 359.224 146.356 411.192 89.704M318.022 198.883C338.038 177.057 358.592 152.952 411.993 89.6223M316.852 199.587C339.982 175.021 359.481 150.144 410.744 92.9745M317.406 199.787C356.093 158.009 391.779 117.54 414.243 91.2453M320.232 203.266C342.929 171.502 371.598 144.799 416.261 90.2939M320.79 204.057C341.056 178.821 364.455 150.055 414.833 93.5211M320.314 205.502C350.613 168.216 381.693 132.193 418.943 91.0898M321.428 206.819C353.076 169.859 383.182 133.933 417.349 92.3575M321.14 205.152C345.03 176.364 372.499 149.699 419.951 90.9944M321.536 209.835C344.454 184.282 363.821 155.739 421.301 92.4586M321.36 208.056C345.39 177.802 371.063 149.237 425.633 92.569M319.549 211.704C344.521 181.28 369.157 153.687 425.209 91.5277M322.09 211.342C342.139 185.26 367.259 163.102 425.047 90.6883M322.81 215.324C348.204 182.912 373.597 154.575 427.99 91.3574M321.288 214.255C363.184 169.415 402.963 119.285 429.394 93.3601M322.771 215.163C343.749 187.888 366.598 162.665 430.088 90.952M323.492 218.648C348.949 187.737 375.153 157.105 433.924 89.4038M320.645 217.869C347.938 190.72 370.961 162.067 435.243 89.7857M324.618 217.652C352.252 189.931 376.502 158.002 434.601 89.5515M324.444 218.977C366.897 172.159 410.519 121.305 438.292 89.8044M325.124 220.402C346.786 197.357 368.533 170.332 438.358 91.0939M326.141 220.953C368.996 173.184 411.318 121.856 438.015 90.109M325.069 225.771C355.568 185.305 392.133 147.004 438.685 88.9057M323.534 226.613C360.308 184.724 398.371 138.648 440.987 92.3138M323.147 226.304C361.603 184.382 394.753 144.562 441.885 90.1752M326.921 227.458C370.335 176.92 413.595 128.863 446.185 92.6531M324.476 230.264C369.887 177.996 416.528 127.548 447.266 93.0175M326.332 230.07C352.318 203.12 380.48 171.598 447.127 90.5454M326.821 232.559C354.744 195.865 383.858 163.947 446.923 89.3159M328.167 232.754C375.952 179.923 419.224 123.578 448.665 89.6635M326.516 232.633C370.582 184.443 409.127 137.341 449.753 91.0397M326.737 236.884C363.092 195.134 397.545 154.848 453.161 89.4387M325.66 237.161C365.435 188.651 407.28 141.751 456.39 89.8953M326.76 239.951C368.23 192.872 407.052 148.118 454.968 88.5279M329.344 237.766C364.992 198.372 399.276 158.648 458.034 89.3044M326.966 238.223C371.947 188.7 414.364 141.74 459.934 90.7798M328.611 241.032C359.572 206.699 386.697 174.647 458.177 90.2436M327.469 241.485C359.486 207.202 387.425 176.77 462.529 89.0842M328.511 245.748C365.697 199.895 405.838 152.27 461.434 90.4047M327.818 245.626C370.161 196.422 416.574 145.58 462.356 91.9735M328.502 246.283C376.552 192.257 426.082 139.871 466.191 88.7631M331.806 247.694C379.283 192.248 428.728 136.303 466.087 90.8736M329.252 247.71C381.43 191.353 431.501 134.742 469.122 88.9509M329.54 250.847C378.898 191.736 432.949 130.136 471.517 91.4683M330.746 250.51C372.428 202.617 416.324 153.855 470.407 89.2577M331.283 252.486C372.609 203.975 416.442 157.89 472.536 89.9737M330.759 254.546C368.575 213.943 406.186 169.724 474.519 89.1768M333.302 256.273C367.283 212.717 404.517 171.668 475.749 90.4656M333.524 257.496C372.756 211.717 408.51 167.883 477.312 89.1143M334.493 258.02C378.334 204.927 424.073 150.312 478.93 90.7342M332.896 257.578C381.663 203.128 428.975 147.045 479.686 89.0058M334.577 259.849C374.433 215.493 415.454 165.99 482.455 89.623M333.076 259.075C377.209 211.188 418.819 163.912 480.761 91.5364M336.487 260.157C372.526 217.63 408.758 173.542 482.624 91.0179M335.103 263.394C378.483 214.918 423.43 162.725 487.062 88.9258M334.424 262.959C394.518 197.732 452.999 129.44 486.975 88.7495M336.233 263.058C395.96 193.921 455.302 125.718 488.861 90.0328M336.26 263.432C385.493 207.64 434.459 152.329 488.496 90.3573M336.99 264.311C387.461 206.271 439.452 147.751 489.213 91.0107M337.638 264.988C373.679 225.638 412.497 186.427 492.22 88.8352M338.427 267.578C371.564 230.423 403.381 190.596 494.706 90.8963M340.058 269.216C376.388 223.62 414.251 181.542 494.142 89.4478M341.576 269.099C394.06 209.374 448.119 147.267 495.812 91.5384M339.498 270.098C390.028 210.854 442.435 152.054 498.884 88.1159M340.474 269.443C379.475 224.999 417.359 179.746 499.143 90.7086M344.135 272.712C388.277 219.305 432.716 168.558 501.022 89.1974M341.283 271.457C376.84 234.951 407.832 197.044 499.753 90.7363M343.652 275.112C404.913 202.546 464.952 133.627 501.429 90.821M345.796 275.38C390.352 223.014 432.412 174.334 505.726 89.5565M346.582 275.462C390.89 221.411 435.964 170.886 506.834 91.1573M345.702 275.818C410.224 205.959 470.871 132.391 506.763 88.2869M347.172 275.691C405.269 207.54 467.129 138.383 509.944 91.2192M345.287 276.243C410.335 203.319 474.775 128.154 511.176 89.141M347.792 280.7C385.877 236.564 423.786 190.902 512.591 90.0517M348.282 280.618C404.19 214.431 463.067 148.233 512.465 89.0719M347.217 280.424C392.186 228.701 435.802 177.281 512.256 90.9806M349.698 280.901C391.778 230.662 432.265 182.21 515.142 90.6912M351.015 281.992C396.198 225.364 445.075 171.321 518.397 90.0582M351.86 280.679C415.056 211.247 473.746 140.73 518.987 88.5535M351.694 282.213C406.923 216.971 464 153.922 518.761 88.8504M353.464 280.767C392.542 236.693 430.542 192.324 519.644 88.8877M355.109 282.38C420.988 205.938 486.082 132.023 521.406 88.9374M356.814 284.252C424.072 208.108 492.78 128.684 523.441 90.7571M357.398 284.289C403.67 230.483 447.444 181.103 526.501 90.0873M357.497 284.712C411.498 221.523 467.047 158.787 526.289 88.2998M360.122 285.274C394.363 240.01 430.545 198.435 526.202 89.6157M360.759 284.337C402.186 235.675 444.618 184.479 529.13 88.4534M360.98 286.122C404.261 238.255 446.741 187.066 531.428 89.4119M362.365 285.684C428.129 208.701 495.028 133.004 530.808 88.1538M362.266 285.995C397.749 244.675 434.127 201.482 534.39 89.7003M363.493 284.482C399.634 243.305 437.398 199.329 535.307 90.7678M365.469 286.307C415.303 229.099 463.849 172.352 538.286 87.748M366.186 285.729C423.939 222.232 481.419 155.127 539.125 89.789M365.676 286.169C404.937 245.947 443.258 203.063 539.716 88.4239M368.298 288.647C413.064 235.362 457.242 185.843 542.602 87.2028M369.906 289.585C433.211 214.69 501.544 139.494 540.983 89.5189M372.004 288.214C416.788 235.012 463.313 182.844 544.539 88.74M370.885 290.163C427.808 221.114 485.779 152.097 543.627 90.7643M373.002 288.545C415.096 241.347 455.469 192.748 547.75 89.0544M373.05 288.429C421.022 235.249 466.563 179.211 547.036 90.0775M376.896 289.682C419.025 239.892 462.004 193.262 549.982 88.4387M378.86 288.577C427.739 229.357 478.416 168.036 551.395 88.5217M377.798 287.276C428.621 229.357 478.926 172.436 551.61 89.0871M379.486 288.183C422.969 239.943 464.253 192.135 553.357 87.7159M383.065 288.089C420.093 242.748 461.654 197.374 554.51 89.8044M383.719 289.456C436.996 225.304 491.132 161.742 555.889 90.3651M384.26 286.85C426.624 241.599 467.492 192.56 557.81 87.5712M386.267 287.097C454.793 212.425 520.667 135.127 558.643 89.7304M387.017 288.674C454.487 214.2 517.547 140.011 560.181 90.5454M387.535 288.095C457.378 209.438 523.408 132.011 561.297 87.698M612.458 30.1872C613.049 29.8382 613.404 28.6772 614.919 27.4969M390.446 288.975C439.665 231.062 488.959 174.871 562.705 89.5768M612.502 32.6023C613.028 30.0079 614.838 28.4521 616.985 26.8447M390.656 288.737C435.048 237.255 481.304 185.926 565.905 90.0955M611.54 34.5608C613.561 31.3058 615.342 28.8083 617.199 26.1668M391.192 286.227C458.816 212.072 525.866 133.508 564.56 87.9925M608.882 39.7315C612.977 37.0752 615.078 34.3036 618.531 27.9969M393.11 286.884C449.318 221.942 507.985 158.875 567.634 88.2978M608.813 39.0892C612.987 36.4573 615.704 31.563 621.862 24.4181M394.85 288.269C458.417 216.92 521.204 144.624 569.668 89.1117M605.554 45.6719C613.855 38.3392 619.029 29.2539 623.215 24.1995M395.402 288.996C456.129 218.765 519.146 148.185 569.175 89.094M604.607 46.9772C610.895 40.2987 613.172 39.5795 624.072 24.4948M396.972 286.947C435.867 241.317 476.469 195.067 571.709 89.281M603.733 49.9448C614.477 42.0645 622.285 31.6743 627.425 24.6225M398.593 288.41C446.516 230.563 494.989 175.238 572.76 89.0997M603.184 50.839C608.784 46.2828 615.285 36.8974 628.126 23.9236M401.684 288.977C465.456 211.413 532.276 138.324 574.536 89.7545M604.091 56.6044C612.982 43.6668 621.372 35.6029 627.638 23.8762M403.858 286.638C464.351 218.028 523.935 148.294 576.43 89.5671M602.136 56.8558C608.706 49.3758 614.74 43.21 631.403 27.3781M404.62 287.709C467.697 213.243 533.494 135.527 578.184 89.3549M601.469 60.3448C612.265 50.7502 621.07 38.1485 629.981 23.5201M405.542 290.045C449.664 236.726 493.609 182.028 579.034 87.8849M598.649 64.0218C609.806 50.0966 618.693 40.3404 631.469 24.0882M406.358 287.116C440.926 250.318 477.126 208.601 581.42 87.4824M598.23 64.5201C609.921 51.2871 621.632 40.3739 637.27 25.9219M406.387 287.559C461.275 230.567 512.928 169.528 581.993 88.902M599.837 70.6207C605.599 60.5344 614.177 50.609 638.833 23.0208M407.553 288.874C443.636 246.02 477.589 206.224 581.147 89.0298M595.581 69.9977C605.258 63.2439 615.915 51.9257 636.41 22.2442M408.77 287.42C475.484 211.593 538.89 136.086 582.893 87.8518M595.528 72.702C606.738 59.7125 620.896 48.7089 638.15 22.5115M411.185 288.817C463.609 226.549 514.201 168.982 585.634 89.4702M595.282 76.4852C608.607 63.444 621.847 46.1273 639.446 24.9721M412.674 288.793C468.017 223.424 523.249 160.277 585.61 89.6457M594.229 78.8635C609.88 59.6284 628.793 37.4816 644.108 22.0628M415.493 288.895C453.43 244.153 492.758 199.554 586.545 87.6382M592.77 84.7474C607.71 65.6753 623.339 50.3388 643.752 24.1928M417.04 288.576C458.604 238.955 503.41 187.743 590.5 89.2118M592.892 85.2034C610.886 65.3846 630.452 42.3448 645.522 23.3551M416.319 287.75C501.403 193.103 585.764 96.0316 647.685 24.4892M417.792 287.44C482.538 214.196 544.596 140.393 649.129 21.9718M421.269 288.3C484.828 213.016 550.114 137.04 650.875 21.4874M421.679 288.976C480.889 219.242 538.494 152.062 629.086 47.1488M628.409 47.9103C639.675 38.2172 648.104 29.4271 652.856 22.1473M422.342 287.919C474.446 229.236 527.5 168.54 628.326 49.4012M632.938 47.0087C638.903 39.5122 647.697 30.075 655.665 21.3101M423.393 287.235C477.8 226.238 533.45 163.927 627.623 54.0921M633.841 47.4137C639.852 38.7966 648.081 31.0921 653.902 21.8717M425.675 286.163C482.827 222.739 540.385 156.584 626.224 55.5974M633.18 47.4054C641.037 43.7401 645.393 36.5264 658.362 23.5076M427.433 288.032C489.16 215.533 550.858 143.523 626.332 58.3327M633.779 46.6531C643.074 39.5821 649.307 36.213 656.948 22.884M426.995 286.898C482.46 226.156 537.426 162.493 625.078 60.2693M637.357 48.389C642.279 43.13 646.256 36.9072 656.849 22.1888M428.635 286.775C495.278 208.953 565.999 129.319 624.863 62.9087M638.561 48.5837C645.584 39.2892 648.623 33.5102 660.668 23.885M432.219 287.8C482.72 228.781 531.292 170.604 623.599 65.9403M639.256 47.9721C645.594 42.4537 649.285 35.4469 658.377 25.3609M431.684 288.573C497.597 213.71 562.388 139.801 623.838 68.3755M642.511 50.0788C645.655 42.9559 651.253 36.7019 661.031 23.9843M434.657 286.256C498.133 211.434 565.244 134.971 624.626 69.0958M640.639 46.4292C648.806 42.5805 651.389 34.7343 660.291 23.6562M435.038 286.497C492.094 225.111 544.737 164.622 623.934 73.6625M645.37 47.8584C649.047 40.3509 657.913 31.9271 661.865 27.9459M437.756 287.802C504.811 210.124 574.401 130.259 620.722 74.8602M645.595 48.8157C651.247 42.2109 655.162 33.6783 664.051 25.6751M436.272 289.5C495.831 222.112 550.961 158.279 621.947 77.9626M648.529 48.2378C653.106 41.5929 658.876 32.5506 664.865 26.802M438.334 289.344C502.357 213.184 563.907 140.3 619.439 77.6255M647.131 45.7397C651.407 42.8649 656.133 38.2752 666.286 27.14M441.618 287.581C500.616 216.217 563.087 148.056 618.877 80.9722M647.865 45.5323C655.643 42.5923 658.335 38.7417 666.635 29.1125M441.548 287.947C513.664 206.265 583.854 126.659 620.196 84.5806M652.704 49.492C656.283 41.8062 659.553 34.3519 668.39 30.6877M444.604 289.247C506.961 217.746 568.268 142.569 617.296 86.8469M652.029 45.665C655.873 43.0855 661.654 37.4654 667.426 31.1693M443.777 286.77C506.658 215.312 570.107 145.768 616.829 89.2879M652.589 46.57C658.178 44.228 663.95 34.7497 667.579 31.0637M444.728 286.979C484.113 243.901 520.586 201.302 618.68 90.9697M653.826 47.2542C659.707 40.6657 666.486 35.7158 669.66 30.9633M447.724 286.481C487.039 242.608 525.866 198.319 615.957 94.5354M655.234 49.5694C658.885 43.1349 666.885 38.4812 669.34 32.7249M448.801 286.915C510.421 217.259 571.897 142.44 617.433 94.1057M659.569 48.5641C662.885 41.2486 666.309 35.7774 669.387 33.2675M450.895 289.425C495.509 235.842 540.346 185.432 615.558 97.4179M658.247 47.6679C660.961 44.7662 662.556 42.6739 667.552 36.0158M450.275 286.589C487.915 246.077 524.791 203.082 613.512 99.4289M660.348 47.3975C663.861 45.5474 664.802 42.7534 667.074 40.494M454.657 286.393C488.795 244.575 528.011 203.078 612.759 102.605M662.184 47.4555C662.431 46.8871 663.191 46.3849 663.793 45.008M455.376 288.029C490.97 247.323 528.731 204.898 614.446 104.56M457.39 287.111C512.671 222.765 572.273 153.461 613.297 107.844M458.777 286.027C506.5 232.501 554.671 176.651 612.81 110.704M457.786 287.759C496.389 242.034 532.827 200.168 612.282 111.55M458.446 286.607C500.685 238.709 543.406 189.933 609.812 116.258M460.375 287.196C502.671 240.891 541.303 193.653 609.229 117.557M462.305 288.498C502.464 244.105 541.067 196.24 608.618 119.617M465.108 288.72C509.047 234.934 552.971 184.04 608.398 123.303M467.172 287.238C507.331 237.757 551.72 186.935 609.527 122.581M466.717 288.641C522.203 226.273 572.957 165.281 605.63 127.815M467.226 289.24C521.472 226.279 574.223 165.892 605.425 130.262M470.237 288.703C516.834 233.156 563.117 177.456 604.413 132.119M472.371 287.465C505.227 251.716 534.499 215.834 606.417 132.636M472.186 289.218C507.709 247.231 541.941 206.994 604.983 136.47M472.899 286.095C507.854 247.477 539.692 208.303 605.126 137.891M475.654 288.448C515.019 243.786 549.685 201.563 601.247 138.911M475.735 287.769C527.311 230.461 578.237 173.825 602.751 142.859M478.142 289.013C505.284 254.091 531.803 224.539 601.693 146.461M480.941 286.197C513.569 246.391 548.138 206.135 600.718 147.683M480.349 287.119C517.168 243.454 552.638 203.242 600.086 149.107M481.46 289.913C513.374 252.289 543.811 217.597 601.001 152.568M481.37 286.294C531.434 235.706 576.01 179.904 599.484 155.531M482.604 289.562C523.175 245.979 559.73 203.304 597.998 158.673M484.281 287.265C510.939 260.7 534.575 233.235 598.317 158.113M487.35 289.667C515.838 255.877 545.485 221.082 597.299 161.584M488.908 286.171C519.299 255.147 547.451 218.962 595.897 163.244M488.699 288.668C526.789 249.019 560.519 206.741 593.83 164.813M493.458 289.07C519.783 255.888 546.559 220.491 593.458 169.596M494.013 288.473C525.904 248.137 558.485 210.743 592.887 172.47M492.086 287.269C524.246 252.41 556.212 216.875 594.869 173.575M494.79 286.616C531.903 242.68 569.04 200.508 592.445 174.512M495.539 289.083C522.879 259.079 551.341 225.964 592.637 177.092M499.765 286.311C530.02 252.993 557.675 219.167 593.156 179.247M498.638 288.073C537.139 246.965 574.918 205.264 591.144 182.31M503.059 288.354C523.194 261.931 545.693 236.954 589.392 184.879M501.801 288.396C523.147 265.523 543.752 242.974 588.753 186.49M502.348 287.286C531.625 256.234 559.738 227.174 586.64 192.405M504.527 288.525C523.78 266.38 541.92 243.596 589.895 193.421M507.83 289.544C529.819 262.203 549.434 239.416 587.502 196.018M507.123 288.003C529.249 263.887 554.01 236.661 584.828 195.735M510.911 285.973C526.806 267.331 545.675 245.633 587.628 198.146M511 287.565C532.637 263.622 551.485 239.922 587.509 201.25M510.411 285.491C527.058 268.248 541.257 250.514 584.647 202.745M514.584 289.248C542.686 253.941 569.161 224.23 583.945 206.752M514.616 287.65C531.344 265.633 551.47 244.508 582.036 210.443M516.853 286.733C540.61 259.567 562.662 232.122 582.17 211.184M518.403 289.154C535.1 266.221 555.128 241.688 582.801 212.994M517.959 289.722C543.32 262.939 565.098 237.134 579.62 214.766M519.934 287.928C538.333 271.606 551.367 250.067 580.132 218.679M521.892 286.894C533.271 272.331 546.727 257.958 581.612 221.171M521.794 287.784C543.141 264.824 563.175 240.014 578.666 224.91M526.024 286.601C540.883 270.139 553.708 254.823 579.748 225.772M524.82 288.864C545.151 268.564 560.922 244.768 579.637 228.42M528.692 289.602C541.7 271.274 558.23 252.308 578.203 228.691M530.204 288.823C541.185 274.3 551.809 262.213 576.983 233.277M529.997 289.308C543.552 272.222 552.718 260.747 576.424 236.366M532.051 287.871C540.045 276.688 548.983 264.095 576.756 238.137M530.987 287.412C546.767 269.188 563.436 251.1 573.642 241.033M533.833 287.981C543.795 274.569 557.379 260.094 571.763 242.598M534.446 287.934C547.808 272.439 562.249 257.059 573.984 243.6M538.426 287.419C550.163 272.244 562.355 255.974 572.875 248.403M539.612 287.138C549.456 273.819 565.092 259.015 572.843 248.255M542.04 285.73C554.425 273.605 566.235 258.923 570.225 252.874M543.812 283.44C555.181 272.747 562.551 265.472 570.411 253.571M550.061 277.013C553.122 272.29 559.432 268.752 569.672 255.036M554.388 276.397C560.051 270.212 562.248 265.042 567.243 260.388M556.952 273.448C560.681 270.331 561.485 267.554 568.54 262.227M562.22 269.543C562.3 268.427 565.177 266.37 567.518 262.987M292.325 97.316C292.755 95.9314 293.642 95.1937 293.746 93.7388M291.895 98.3239C293.616 96.9679 294.807 94.4092 295.479 94.068M292.598 100.154C294.547 97.7773 295.653 94.3644 296.635 93.024M293.385 100.949C293.995 99.5057 296.833 96.219 299.361 93.7205M293.898 102.875C294.332 98.925 297.98 95.7935 300.621 92.3647M294.261 103.996C295.554 99.9968 297.887 99.0434 302.161 93.7492M295.376 104.433C297.324 100.58 300.862 98.396 301.514 95.0077M295.282 106.099C295.99 102.884 299.351 99.0133 303.549 92.3056M295.737 106.777C297.401 104.873 299.553 101.566 305.823 93.0938M296.224 108.128C299.184 105.223 302.132 97.4765 306.315 94.3727M296.309 108.685C298.193 104.572 298.567 103.918 306.242 94.1686M297.551 109.426C300.36 108.179 300.51 100.31 310.26 92.1755M294.57 109.975C302.854 107.363 304.528 100.024 309.351 94.3866M298.085 115.13C300.353 104.809 306.506 100.394 310.676 92.7524M294.847 116.253C301.999 109.437 305.255 99.5968 314.673 93.9302M297.786 114.251C304.046 106.118 309.372 99.0563 315.195 90.9273M296.875 118.799C305.508 106.298 313.655 97.7862 316.73 92.6594M299.352 118.782C302.127 111.647 307.101 109.106 317.66 92.8979M298.828 118.678C306.432 110.834 313.749 101.606 318.023 93.4164M299.971 121.083C304.452 114.015 310.101 105.484 319.167 91.3703M299.76 122.208C307.458 114.929 311.19 105.389 323.448 93.0738M297.548 124.336C309.54 110.474 320.562 100.087 321.985 91.0619M298.593 125.556C306.434 112.415 318.224 103.137 322.866 94.0986M300.884 123.601C306.962 112.712 317.472 101.095 326.708 94.7658M298.132 127.397C305.926 116.848 313.743 108.971 326.435 90.8605M298.519 126.449C304.962 120.763 311.114 112.639 329.686 93.5817M301.318 130.798C310.384 112.798 325.806 101.941 330.742 93.8121M298.463 128.636C304.933 124.292 314.056 115.459 330.435 94.1862M301.091 132.506C308.415 120.088 317.953 108.099 331.445 92.6562M303.129 131.712C308.644 124.081 316.993 112.034 333.984 92.9701M300.94 134.723C310.886 124.342 320.299 112.837 335.636 91.4136M300.141 135.62C314.794 118.033 329.498 101.313 336.753 92.6193M302.406 138.137C314.115 126.334 323.226 111.636 339.668 94.2683M302.292 138.674C310.992 127.765 319.203 119.192 339.625 91.6146M303.835 140.225C316.036 119.622 330.529 104.801 339.875 94.5393M301.353 140.76C319.55 120.931 331.993 107.435 341.757 92.8603M302.671 139.469C319.297 122.742 333.598 104.251 344.706 90.8419M304.736 143.638C313.408 129.173 325.51 115.861 345.192 93.1032M304.87 144.547C318.465 129.632 333.002 112.519 344.959 93.1781M305.97 145.463C314.864 131.482 328.796 116.286 346.918 91.4561M304.672 147.91C314.896 133.911 323.527 124.213 349.899 92.9339M307.161 145.821C320.568 132.549 332.373 114.948 352.987 92.702M304.496 149.274C323.608 128.471 341.794 106.436 352.966 93.8639M306.859 149.972C321.672 130.965 339.312 113.368 352.615 92.1079M306.419 149.857C324.493 127.981 343.956 108.478 357.369 90.8372M308.333 152.957C327.439 127.993 345.137 105.674 358.515 94.2426M304.964 155.676C322.723 135.452 335.256 120.123 358.799 91.1544M306.653 156.455C319.814 137.681 336.959 120.817 358.279 93.1954M306.86 157.448C324.483 138.392 340.47 116.603 360.954 93.9221M309.387 158.213C326.305 135.259 344.251 113.079 360.541 92.0755M305.669 157.73C324.82 140.402 337.549 123.909 363.523 93.8104M309.859 160.131C321.511 141.885 332.631 129.579 365.901 92.6003M308.127 160.617C322.179 146.721 333.477 129.165 365.502 93.9405M310.407 163.323C329.644 137.265 349.881 113.644 366.951 92.6694M309.369 162.871C325.643 147.715 337.43 128.386 370.243 92.4224M308.746 163.331C330.767 139.534 351.511 112.979 369.395 92.8564M310.068 167.015C332.811 137.009 357.949 111.126 371.003 91.4143M309.48 168.004C330.582 143.126 350.485 120.002 374.72 90.5917M311.978 170.053C329.224 148.406 346.965 126.652 376.716 93.6583M312.332 170.933C325.495 151.204 342.565 131.175 377.551 92.0287M312.111 171.542C327.721 151.3 344.021 130.678 376.39 90.4859M313.318 171.166C334.559 143.748 358.606 115.921 379.638 91.4726M310.516 171.448C329.896 155.888 346.024 133.021 381.619 90.5311M312.438 175.548C329.791 156.211 344.179 133.627 381.754 92.9354M313.887 176.197C334.775 146.014 360.585 115.711 382.968 90.0317M311.739 176.947C341.618 144.851 369.271 110.976 383.742 91.6887M313.729 180.2C338.345 144.984 363.161 115.113 385.205 91.9258M315.115 177.096C331.124 158.144 346.028 142.328 388.111 94.0619M315.093 179.742C341.277 145.436 370.195 113.136 387.69 93.0472M312.662 181.285C332.842 158.751 352.615 131.435 388.549 90.0566M315.491 184.458C330.762 163.563 348.364 140.591 392.207 93.011M315.62 183.571C334.88 159.015 356.314 134.134 394.47 93.6787M314.53 185.023C329.935 166.116 350.897 144.153 392.937 92.0965M316.219 186.828C330.964 166.457 351.008 147.774 396.981 92.0276M315.479 188.499C339.211 160.07 360.826 134.91 396.37 92.5248M314.666 189.132C332.963 167.361 356.592 144.216 400.435 92.2685M313.492 189.665C343.1 157.18 372.149 126.145 400.353 91.9822M315.167 191.444C332.858 171.101 351.411 149.233 400.028 92.4997M317.566 193.995C346.972 157.697 377.36 120.792 404.189 93.8521M314.988 193.084C346.549 158.149 379.511 118.94 403.153 90.0131M317.566 193.67C348.342 158.086 378.827 121.978 404.207 91.6162M317.037 196.592C355.45 155.116 387.362 113.187 408.589 92.446M318.909 198.725C346.392 165.344 370.995 132.054 406.395 89.4858M315.761 197.255C351.954 161.534 384.437 121.824 409.282 92.2506M319.496 201.177C341.801 172.47 364.419 145.132 409.411 91.0978M320.273 200.004C342.293 173.249 364.798 145.533 410.975 90.8757M317.84 204.404C342.101 176.057 366.857 149.441 413.154 89.7377M319.801 203.376C342.741 173.892 364.719 147.311 416.1 91.2922M319.11 206.663C349.629 166.884 383.018 132.368 414.803 91.1522M319.859 207.661C354.756 167.863 390.467 124.259 416.287 91.4242M320.123 204.936C360.831 161.286 398.005 114.266 420.772 91.6287M320.092 206.493C349.763 175.723 377.363 141.828 420.521 93.2026M320.768 209.966C340.943 185.034 363.113 158.45 422.275 89.486M321.222 212.82C356 171.222 386.482 131.105 422.79 92.1834M319.723 212.636C349.986 179.819 380.169 142.384 426.879 91.6675M323.574 212.045C356.724 173.851 393.39 132.868 428.521 92.0954M322.443 214.741C350.062 179.221 379.627 147.794 426.294 91.3345M320.911 215.877C345.336 186.045 369.548 159.159 430.789 93.035M323.982 217.249C359.346 170.851 400.635 124.652 430.286 92.7243M323.167 218.514C363.064 171.175 404.861 118.807 430.59 91.7243M324.714 220.875C355.382 180.305 386.243 144.589 431.479 90.0128M322.274 220.429C353.883 186.064 380.98 154.513 434.54 89.9827M323.367 221.682C368.463 170.88 410.054 123.046 437.694 91.7505M323.761 223.629C357.331 185.074 390.494 146.636 438.481 92.124M324.088 226.236C356.622 187.689 390.691 149.494 437.653 89.7258M323.497 226.895C368.121 176.617 410.802 124.166 441.927 91.1138M323.085 229.068C360.388 186.092 394.001 144.117 441.526 89.3684M325.342 228.277C358.31 190.957 394.151 148.325 443.103 89.7107M325.107 230.301C355.643 195.767 383.969 160.863 444.253 90.5148M325.994 230.707C353.915 198.227 379.327 169.434 447.677 91.7019M327.452 229.44C373.3 178.905 420.479 126.546 447.449 89.9805M325.939 232.647C373.444 176.843 423.729 119.786 446.811 89.3825M328.406 233.048C372.192 177.716 419.815 126.464 449.783 91.2669M325.65 233.556C367.464 186.576 408.856 138.039 450.911 91.84M326.631 235.62C364.158 193.317 398.684 151.719 451.693 89.1098M329.469 237.384C360.749 202.443 391.68 166.765 452.908 88.7085M328.259 239.96C365.172 192.207 405.829 145.153 454.098 92.2122M330.259 239.341C366.217 192.648 405.279 148.373 457.895 89.7435M329.986 242.599C372.56 191.504 412.039 142.642 459.261 92.6305M329.018 242.742C367.469 197.751 406.911 151.434 459.788 92.1161M331.211 243.799C377.608 188.723 426.234 135.501 462.298 91.354M330.775 245.924C375.819 193.493 419.878 139.264 464.617 89.9076M330.824 245.69C360.082 208.131 395.24 168.676 463.992 89.6911M329.887 248.118C369.599 201.141 411.132 152.701 465.988 90.4247M331.951 247.57C369.745 202.874 410.843 156.943 468.353 90.6492M329.138 248.756C368.37 207.782 405.915 163.383 467.721 89.2414M330.022 251.099C383.562 194.068 431.817 134.141 468.743 89.1007M332.729 253.519C371.857 206.903 409.267 163.378 472.141 91.4925M332.484 253.191C370.464 205.785 413.374 159.263 470.842 91.6998M330.572 254.02C372.289 208.042 415.368 159.518 475.317 91.2542M332.254 255.873C378.89 202.104 425.158 150.313 475.753 90.0976M333.07 258.43C381.029 202.066 433.035 144.623 477.095 91.1654M331.835 259.191C382.025 198.432 432.774 140.241 479.416 90.6034M334.269 260.121C380.269 203.422 427.612 148.232 477.911 90.6432M335.593 260.436C364.591 224.051 397.64 188.011 479.44 90.6062M335.609 259.575C388.159 199.149 440.852 136.895 480.624 88.4487M336.248 263.703C391.92 195.33 449.287 128.256 484.4 89.4222M337.588 262.824C394.91 193.825 451.125 127.518 486.98 89.3504M336.253 265.164C372.911 223.647 412.013 180.349 486.031 90.6871M336.149 263.318C394.521 200.702 447.524 137.309 489.213 89.708M338.947 265.302C398.196 194.712 458.786 128.509 490.071 91.7256M339.263 265.019C374.385 225.535 411.63 183.993 489.66 90.0228M340.796 268.979C380.659 220.615 421.22 172.271 490.185 91.3461M340.857 268.314C378.109 221.726 419.837 176.49 494.514 90.8047M341.275 268.275C377.833 224.358 419.539 177.625 496.33 91.0756M341.153 269.253C400.348 204.687 456.478 137.964 496.416 89.431M341.923 269.562C399.922 199.843 461.242 130.597 496.26 91.3087M342.659 270.971C390.297 218.04 438.992 161.468 499.756 88.6405M341.397 273.699C399.604 204.483 459.983 135.096 499.476 89.978M343.592 273.058C378.33 232.446 416.172 189.939 500.551 89.911M344.905 275.746C404.305 208.228 461.953 138.938 501.366 91.686M344.8 274.472C383.08 231.422 418.004 190.722 505.682 90.824M344.324 276.507C383.382 229.348 427.036 181.843 504.992 90.1238M344.859 276.509C393.535 221.719 438.488 168.06 505.704 88.317M346.111 277.756C388.586 229.901 428.026 180.93 507.7 89.513M347.678 278.147C394.943 223.021 441.457 167.459 510.624 90.6566M345.848 281.124C400.167 215.914 456.07 154.196 510.332 89.8048M349.893 279.959C412.434 207.746 476.201 132.542 513.037 88.813M350.309 281.96C384.848 240.507 419.535 200.819 512.718 90.1904M350.54 282.52C397.104 229.508 441.78 172.99 516.657 89.5624M352.829 280.75C403.937 221.642 455.926 159.373 515.473 91.3935M353.089 282.157C388.386 241.666 424.382 200.996 519.757 90.5903M355.143 282.65C407.067 223.154 456.926 160.908 518.237 88.6237M353.752 281.975C396.74 235.057 435.228 189.059 520.25 90.0201M354.168 284.04C389.554 242.053 427.711 201.313 522.699 91.0033M357.626 285.058C407.492 228.036 455.569 169.224 523.694 88.1545M356.49 284.578C424.875 207.674 490.499 132.27 525.834 89.4924M360.306 282.979C400.635 232.976 445.123 181.585 527.044 88.0124M360.314 283.222C401.863 235.903 442.097 187.209 529.283 90.9588M360.131 285.916C403.469 234.348 444.611 186.22 530.282 89.5307M361.618 287.11C421.482 214.872 482.108 143.762 530.084 90.2552M364.875 286.232C400.717 241.868 436.497 199.924 533.442 90.5165M365.442 286.909C429.791 212.311 491.946 136.312 534.894 90.6766M366.357 286.043C404.186 240.276 442.264 197.757 535.853 89.6014M365.986 287.424C430.853 212.102 494.996 136.941 538.112 87.6695M365.861 286.313C412.303 238.624 453.269 186.9 539.619 87.841M367.356 286.287C429.226 213.834 493.07 142.245 538.279 87.5489M367.938 288.528C407.199 246.154 443.546 202.159 540.416 89.4204M369.215 288.439C438.713 211.852 503.154 135.21 542.551 88.8962M372.147 287.583C435.759 212.84 500.348 138.461 543.923 87.9678M371.483 287.506C428.094 227.206 480.082 167.253 545.02 87.9734M375.875 288.099C436.04 216.251 499.27 142.738 546.404 88.9024M374.521 287.707C416.233 242.661 454.113 196.997 546.092 88.5275M376.22 289.407C427.446 231.097 473.533 176.558 547.82 88.4647M378.368 286.939C447.154 211.059 515.515 132.223 550.957 88.667M380.284 287.399C445.279 213.429 508.463 137.016 551.566 90.2572M382.659 288.567C427.086 235.862 473.004 183.811 552.841 87.6731M382.97 289.632C430.591 235.816 477.511 180.127 554.779 89.1403M385.216 289.128C446.929 211.201 511.851 137.384 554.053 90.8411M383.852 288.093C424.054 244.454 461.508 201.302 558.784 88.928M387.78 288.222C442.802 221.039 501.948 154.981 557.946 90.3806M402.393 288.628C461.702 217.543 522.48 147.133 574.495 89.6729M601.91 55.6878C611.142 47.0155 617.944 42.4085 630.108 27.2048M404.253 288.879C444.939 238.828 486.177 192.7 575.77 88.3377M600.641 60.2612C610.011 51.4752 617.272 42.1421 630.647 24.6158M413.593 289.005C448.579 243.548 486.083 202.731 586.384 89.9563M595.234 80.0084C609.861 61.9134 622.2 48.4375 642.493 25.6335M415.389 287.077C459.746 237.256 505.349 181.007 587.953 89.0851M594.237 81.8481C604.731 65.0003 621.313 48.925 643.575 24.9468M415.893 288.351C466.748 226.428 522.298 165.409 643.349 24.9707M417.15 287.549C498.337 194.318 579.573 102.802 646.343 22.8786M417.791 289.519C489.659 208.527 559.384 130.805 646.944 22.7763M419.758 289.368C510.621 184.385 600.74 79.6518 648.274 23.0548M420.515 287.855C504.83 192.966 584.52 98.7385 651.498 23.2196M421.636 288.426C483.019 219.056 540.607 148.487 652.334 22.552M424.166 288.396C512.169 186.879 597.495 84.9469 654.458 22.0671M456.114 287.051C501.748 235.437 544.301 184.618 612.009 103.662M458.375 286.508C516.891 215.982 577.198 148.05 612.56 108.328M460.196 286.605C500.733 235.238 544.711 185.968 611.605 109.583M458.118 288.134C517.284 220.777 576.647 151.306 611.046 111.841M460.998 288.274C517.273 223.06 571.908 157.893 609.937 114.453M460.869 288.13C499.349 242.874 535.473 200.978 609.555 118.223M463.042 287.604C495.813 250.087 525.127 215.807 610.105 117.661M464.407 286.181C503.584 244.429 540.074 204.199 607.686 119.756M466.413 286.237C505.503 240.797 545.062 196.574 607.805 122.38M468.849 286.061C512.568 238.823 554.98 186.417 605.856 126.045M470.497 287.842C505.374 246.326 541.281 206.179 606.847 128.842M469.666 287.353C505.008 248.278 538.383 212.077 604.006 133.039M473.731 288.167C506.523 249.543 537.384 209.184 605.524 131.633M474.508 287.652C518.35 236.888 559.941 188.58 602.97 137.535M476.819 288.177C523.249 233.462 569.267 176.476 602.42 137.971M477.844 287.268C503.518 255.512 529.799 226.032 601.639 138.65M477.831 289.272C512.833 246.796 549.747 207.223 603.705 142.285M477.412 288.37C511.346 247.161 547.886 209.175 601.869 143.578M481.731 285.613C528.083 231.364 577.72 175.213 601.071 146.755M480.25 286.618C528.029 231.659 576.952 177.203 601.529 149.775M484.413 287.73C524.504 237.021 568.022 184.487 600.688 152.733M482.932 288.641C507.863 260.248 531.617 231.174 599.725 154.025M485.525 287.416C507.264 257.643 533.151 230.601 598.451 154.836M486.958 287.11C523.8 248.03 555.571 208.992 598.382 159.493M488.002 288.461C530.689 240.915 568.995 189.801 595.641 163.409M491.855 285.512C514.18 260.005 537.055 232.497 594.581 164.184M489.799 289.09C522.137 250.215 556.623 213.857 595.185 167.087M494.374 288.028C517.321 257.38 542.168 231.426 594.893 170.018M493.071 286.248C524.045 252.822 553.248 220.372 592.936 169.467M496.637 287.552C527.266 251.246 561.076 212.051 593.142 172.943M495.836 285.804C523.216 257.847 547.785 229.259 593.408 177.617M500.432 289.654C520.982 259.69 545.466 230.703 593.953 177.521M500.148 288.703C535.721 245.54 567.793 206.534 592.651 180.73M503.168 287.552C518.394 263.622 537.632 242.164 589.967 182.728M503.951 285.521C524.344 262.612 542.399 238.776 589.525 184.412M501.808 286.427C524.205 265.453 542.497 238.845 587.891 187.081M503.732 287.097C520.883 268.304 536.648 248.357 586.782 189.938M505.732 286.488C534.736 251.366 568.961 216.909 586.904 192.569M508.524 289.679C537.293 255.108 562.037 222.877 587.911 195.26M511.246 287.834C536.369 257.001 560.63 226.851 585.741 197.773M512.722 288.96C530.602 265.127 551.276 241.345 588.012 199.561M511.466 287.677C531.256 267.513 549.549 245.475 585.814 202.66M514.096 288.329C536.227 258.612 561.452 233.458 585.039 202.642M512.813 288.928C528.811 269.748 545.717 254.853 583.991 208.361M514.477 287.895C541.18 260.007 566.988 228.34 582.499 207.367M517.682 288.595C531.631 272.33 546.675 253.546 581.62 211.402M520.939 287.632C531.772 270.835 549.501 252.116 583.815 212.267M519.107 287.669C540.556 266.509 561.857 240.84 579.554 216.568M520.008 289.371C541.426 261.413 566.372 234.176 578.783 218.759M523.784 286.75C543.696 265.634 562.667 239.44 577.63 221.014M524.849 285.898C535.494 272.705 545.349 258.808 578.302 223.018M524.492 286.715C536.717 273.706 549.969 260.938 577.018 223.783M526.634 287.63C537.106 272.305 550.426 260.32 576.164 229.876M528.514 287.761C546.565 264.866 565.973 242.399 575.396 229.961M529.624 287.566C546.822 268.379 563.258 250.067 575.676 233.687M531.475 288.986C541.154 272.076 554.505 259.77 574.998 232.777M530.916 288.822C544.19 273.854 556.241 257.72 576.607 237.957M536.33 287.608C544.941 277.276 552.798 266.989 573.412 241.275M534.055 289.266C549.004 272.86 557.483 260.073 574.394 242.506M538.114 289.299C547.694 275.222 556.38 264.387 571.125 244.453M536.031 287.727C548.785 278.089 559.016 262.571 571.427 244.542M543.208 285.584C551.443 272.774 559.642 265.74 570.976 249.95M546.179 281.925C553.351 275.72 558.101 266.96 570.496 251.325M548.287 280.137C556.127 272.911 561.085 265.669 570.462 253.869M555.015 276.169C557.695 271.427 560.465 264.783 568.68 256.625M558.9 273.096C561.139 270.479 563.095 266.944 569.906 258.817M560.967 270.482C562.709 266.076 565.148 264.413 569.439 260.747" stroke="url(#paint0_linear_1608_25963)" stroke-width="0.517428" stroke-linecap="round"/>
<path opacity="0.7" d="M323.953 337.948C327.673 340.326 323.751 350.477 324.389 352.863M323.953 337.948V337.948ZM328.44 352.738C332.841 359.971 338.433 363.888 339.621 361.391M340.387 362.543C348.559 363.296 349.485 362.209 353.398 367.654M355.768 364.058C360.094 362.701 365.069 364.544 366.979 357.98M369.398 356.772C372.42 354.275 378.39 348.028 376.158 344.301M376.684 343.142C379.017 336.798 374.016 333.762 373.211 324.337M375.169 327.761C377.052 325.235 366.455 318.974 361.51 315.412M365.364 315.814C358.285 313.006 358.504 310.153 352.937 309.275M350.574 311.327C346.776 311.826 336.59 316.305 329.814 317.467M331.75 319.124C327.378 320.429 322.944 331.619 321.201 339.235M523.611 311.327C527.733 315.467 537.787 312.682 535.131 316.352M523.611 311.327V311.327ZM538.401 315.814C545.523 316.168 548.38 324.842 551.257 329.851M548.206 327.761C548.071 333.218 548.747 341.249 553.315 339.401M549.72 343.142C552.726 344.192 548.368 351.149 539.845 360.512M542.435 356.772C536.477 357.984 533.638 365.046 524.479 367.225M528.804 364.058C525.587 365.726 520.264 364.558 509.727 361.16M513.424 362.543C505.547 360.156 507.501 354.955 497.391 354.187M501.476 352.738C499.298 350.998 498.71 341.353 492.953 339.92M496.99 337.948C499.623 332.13 499.336 321.958 501.261 315.027M504.787 319.124C511.401 313.189 515.315 314.14 520.36 314.156M277.2 90.3729C277.36 85.0468 281.03 83.9322 284.271 86.9577M277.2 90.3729V90.3729ZM281.905 86.4713C285.15 81.7213 286.381 83.3916 288.593 82.5806M290.264 85.2346C374.602 81.8062 468.02 83.6946 576.599 87.3752M572.22 84.9617C578.824 67.9247 580.775 58.9048 592.507 33.8591M589.831 37.7964C592.888 28.5552 596.43 24.8329 601.689 23.6763M599.434 23.8869C604.464 19.073 612.241 14.2153 612 14.8677M612.701 16.3579C622.728 20.8566 633.092 17.4298 639.37 15.6543M643.406 18.4962C649.127 20.5891 653.634 15.6003 656.244 26.3195M652.817 22.3947C651.283 22.1221 652.917 24.428 656.32 36.0544M656.716 31.8067C657.128 36.7142 652.964 35.9734 656.872 38.9282M652.817 41.2186C649.374 44.4186 650.098 44.7207 645.919 49.2492M646.485 46.8079C632.382 48.0308 622.994 44.6904 618.147 46.5658M611.899 48.9489C611.507 58.9517 611.827 67.6038 596.797 104.491M599.119 101.79C599.195 101.936 599.203 102.056 599.186 102.233M602.278 106.426C590.892 139.213 578.403 178.314 554.494 252.693M555.223 255.756C555.169 262.514 550.801 275.78 544.675 278.587M540.831 276.637C537.407 283.795 521.339 286.895 517.129 285.641M514.851 281.185C483.983 281.046 439.776 287.326 353.23 283.15M357.396 284.706C344.969 283.756 342.624 280.518 331.515 275.223M333.354 276.637C329.255 275.257 322.489 263.169 320.974 252.291M316.785 255.932C305.603 201.651 292.53 147.645 273.116 98.3123M275.037 102.02C278.694 103.589 277.494 99.1291 271.188 97.4617M274.752 95.9424C278.433 91.9108 279.168 89.5968 278.617 93.0339" stroke="white" stroke-width="2.05386" stroke-linecap="round"/>
<path d="M369.012 9.47119H18.5969C15.2789 9.475 12.0979 10.7947 9.75175 13.1409C7.40559 15.4871 6.08584 18.6681 6.08203 21.986V309.827C6.08584 313.145 7.40559 316.326 9.75175 318.672C12.0979 321.018 15.2789 322.338 18.5969 322.342H110.305L95.2871 372.401H87.4284C85.7689 372.401 84.1773 373.061 83.0038 374.234C81.8303 375.408 81.171 376.999 81.171 378.659C81.171 380.318 81.8303 381.91 83.0038 383.083C84.1773 384.257 85.7689 384.916 87.4284 384.916H300.181C301.84 384.916 303.432 384.257 304.605 383.083C305.779 381.91 306.438 380.318 306.438 378.659C306.438 376.999 305.779 375.408 304.605 374.234C303.432 373.061 301.84 372.401 300.181 372.401H292.322L277.304 322.342H369.012C372.33 322.338 375.511 321.018 377.857 318.672C380.203 316.326 381.523 313.145 381.527 309.827V21.986C381.523 18.6681 380.203 15.4871 377.857 13.1409C375.511 10.7947 372.33 9.475 369.012 9.47119ZM369.012 21.986L369.017 259.768H18.5969V21.986H369.012ZM279.258 372.401H108.352L123.37 322.342H264.237L279.258 372.401ZM268.894 309.827H18.5969V272.283H369.018V309.827H268.894Z" fill="white"/>
<path d="M62.3625 222.223H200.026C203.344 222.219 206.525 220.9 208.871 218.553C211.217 216.207 212.537 213.026 212.54 209.708V72.0451C212.537 68.7271 211.217 65.5462 208.871 63.2C206.525 60.8538 203.344 59.5341 200.026 59.5303H62.3625C59.0445 59.5341 55.8635 60.8538 53.5174 63.2C51.1712 65.5462 49.8515 68.7271 49.8477 72.0451V209.708C49.8515 213.026 51.1712 216.207 53.5174 218.553C55.8635 220.9 59.0445 222.219 62.3625 222.223ZM112.422 209.708V159.649H149.966V209.708H112.422ZM162.481 209.708V153.392C162.481 151.732 161.822 150.14 160.648 148.967C159.475 147.793 157.883 147.134 156.224 147.134H106.164C104.505 147.134 102.913 147.793 101.74 148.967C100.566 150.14 99.907 151.732 99.907 153.392V209.708H62.3625V128.202C65.6301 130.72 69.3692 132.557 73.3591 133.606C77.3489 134.654 81.5084 134.892 85.5918 134.306C89.6752 133.72 93.5996 132.32 97.1331 130.192C100.667 128.063 103.738 125.247 106.164 121.911C109.043 125.849 112.809 129.052 117.159 131.26C121.508 133.468 126.316 134.619 131.194 134.619C136.072 134.619 140.88 133.468 145.23 131.26C149.579 129.052 153.345 125.849 156.224 121.911C158.651 125.247 161.721 128.063 165.255 130.192C168.789 132.32 172.713 133.72 176.796 134.306C180.88 134.892 185.039 134.654 189.029 133.606C193.019 132.557 196.758 130.72 200.026 128.202V209.708H162.481ZM200.026 97.0748V103.332C200.026 108.311 198.048 113.086 194.527 116.606C191.007 120.127 186.232 122.104 181.253 122.104C176.275 122.104 171.5 120.127 167.979 116.606C164.459 113.086 162.481 108.311 162.481 103.332V72.0451H200.026V97.0748ZM149.966 103.332C149.966 108.311 147.989 113.086 144.468 116.606C140.948 120.127 136.173 122.104 131.194 122.104C126.215 122.104 121.441 120.127 117.92 116.606C114.4 113.086 112.422 108.311 112.422 103.332V72.0451H149.966V103.332ZM62.3625 72.0451H99.907V103.332C99.907 108.311 97.9292 113.086 94.4087 116.606C90.8882 120.127 86.1134 122.104 81.1347 122.104C76.156 122.104 71.3812 120.127 67.8608 116.606C64.3403 113.086 62.3625 108.311 62.3625 103.332V72.0451Z" fill="white"/>
<path d="M250.183 97.0749H331.53C333.189 97.0749 334.781 96.4156 335.954 95.2421C337.128 94.0686 337.787 92.477 337.787 90.8175C337.787 89.1579 337.128 87.5663 335.954 86.3928C334.781 85.2193 333.189 84.5601 331.53 84.5601H250.183C248.524 84.5601 246.932 85.2193 245.759 86.3928C244.585 87.5663 243.926 89.1579 243.926 90.8175C243.926 92.477 244.585 94.0686 245.759 95.2421C246.932 96.4156 248.524 97.0749 250.183 97.0749Z" fill="white"/>
<path d="M250.183 147.134H331.53C333.189 147.134 334.781 146.475 335.954 145.301C337.128 144.128 337.787 142.536 337.787 140.877C337.787 139.217 337.128 137.625 335.954 136.452C334.781 135.278 333.189 134.619 331.53 134.619H250.183C248.524 134.619 246.932 135.278 245.759 136.452C244.585 137.625 243.926 139.217 243.926 140.877C243.926 142.536 244.585 144.128 245.759 145.301C246.932 146.475 248.524 147.134 250.183 147.134Z" fill="white"/>
<path d="M250.183 197.194H331.53C333.189 197.194 334.781 196.534 335.954 195.361C337.128 194.187 337.787 192.596 337.787 190.936C337.787 189.277 337.128 187.685 335.954 186.511C334.781 185.338 333.189 184.679 331.53 184.679H250.183C248.524 184.679 246.932 185.338 245.759 186.511C244.585 187.685 243.926 189.277 243.926 190.936C243.926 192.596 244.585 194.187 245.759 195.361C246.932 196.534 248.524 197.194 250.183 197.194Z" fill="white"/>
<path d="M363.971 4.62693C266.478 -1.0034 162.201 0.437066 16.9234 5.42082M14.2255 2.9229C11.6439 7.08663 11.939 0.392114 4.60627 10.0406M5.38042 6.59261C-0.212037 6.85642 -0.000536095 13.617 3.49159 11.7937M4.15077 18.7346C5.70703 86.8714 1.78329 154.505 1.32787 302.143M1.71071 303.279C3.22196 302.936 6.70437 310.222 3.95104 316.086M5.38042 312.124C8.72585 317.747 7.11096 316.237 12.4271 317.026M11.1331 312.113C34.3292 315.606 52.9081 313.008 106.676 318.509M106.528 314.509C104.271 326.211 99.5581 341.481 93.6359 364.531M91.3035 366.326C87.112 364.696 84.1136 364.903 82.0017 364.364M83.0571 365.853C78.7726 366.504 83.4475 369.494 81.3683 364.662M78.6325 367.686C74.7592 366.531 76.6185 367.273 73.8574 371.877M76.7997 372.11C78.579 377.856 76.4082 379.545 77.279 377.571M78.6325 376.535C80.5335 375.784 83.5121 374.861 81.195 381.718M78.9084 374.217C155.268 379.374 220.407 376.19 293.931 376.566M295.809 378.368C294.299 379.631 300.485 376.333 303.098 375.124M300.234 376.535C299.001 374.525 299.042 370.543 304.091 372.112M302.067 372.11C304.244 372.819 298.749 365.817 301.491 364.643M300.234 367.686C300.241 366.465 294.135 362.223 291.662 370.157M296.867 364.837C293.785 364.482 290.232 366.178 287.887 365.099M290.361 367.988C288.289 352.116 277.22 339.47 274.337 312.095M277.102 317.566C305.162 312.745 338.776 319.958 361.958 320.019M364.641 315.794C364.417 313.162 369.558 318.495 373.571 308.056M373.486 312.124C375.541 313.512 373.856 305.405 378.67 301.857M379.196 300.817C375.78 198.146 376.018 95.5158 373.824 17.4615M377.156 15.4377C376.899 14.2548 375.228 5.76034 370.972 5.72342M373.486 6.59261C368.035 5.79247 364.835 6.01566 362 1.23417M361.586 17.3812C362.553 70.9779 360.115 126.041 362.313 254.209M364.479 254.64C229.641 254.657 94.31 258.901 12.4329 251.553M10.5673 256.368C15.1365 164.507 9.32957 82.9229 14.6814 15.1879M15.6528 17.5512C125.307 9.05198 241.437 12.415 366.787 17.9387M276.101 365.386C236.488 362.028 193.053 370.31 105.955 363.783M101.557 361.977C106.476 344.694 113.338 330.383 115.853 314.59M121.283 314.762C167.145 318.322 215.759 319.828 255.76 319.273M260.952 312.862C268.574 332.159 269.754 357.672 272.759 370.123M18.5151 299.987C14.6006 287.556 18.0029 280.231 18.3284 264.529M11.4515 263.659C120.165 267.717 227.403 269.033 362.633 268.564M361.987 268.526C363.813 281.173 365.531 291.119 362.747 306.511M367.363 301.143C272.756 299.501 178.472 301.948 15.0314 302.193M364.641 2.9229V2.9229ZM364.641 15.4377V15.4377ZM274.886 365.853V365.853ZM14.2255 303.279V303.279Z" stroke="url(#paint1_linear_1608_25963)" stroke-width="1.09141" stroke-linecap="round"/>
<path d="M55.9314 215.729C108.708 209.695 158.578 217.035 192.385 211.389M195.649 215.675C202.6 218.705 201.567 211.921 200.882 211.096M204.494 212.005C209.759 212.206 208.822 204.133 210.99 202.366M208.828 201.109C205.95 160.711 209.764 116.713 206.114 63.2364M208.164 65.4968C209.038 62.8682 205.227 60.9846 207.826 53.365M204.494 56.6516C205.37 57.3355 200.637 48.7464 198.264 55.8235M192.884 51.8564C158.333 56.1365 119.162 54.6284 57.7796 53.4869M57.9859 52.9819C56.9714 55.7065 50.9494 52.6615 51.2922 53.8833M49.1408 56.6516C50.7037 63.039 46.2037 57.9868 44.4066 61.4469M49.4566 69.1343C43.7045 101.055 42.2101 141.442 48.7118 198.962M45.4711 203.16C41.4697 202.389 45.574 207.425 50.9881 213.873M49.1408 212.005C54.4514 216.878 55.0732 219.155 58.4697 218.559M110.72 198.835C104.992 186.591 108.611 162.191 106.894 155.464M105.644 153.128C116.043 156.146 121.092 154.097 142.949 157.031M149.002 152.925C148.484 168.301 148.717 185.235 145.751 199.762M145.037 205.099C132.034 203.072 124.599 203.576 105.117 205.887M157.982 206.13C157.462 182.716 160.404 170.012 157.174 149.193M158.105 146.843C159.63 141.893 153.516 143.977 155.09 138.197M156.272 142.419C150.846 139.765 154.879 142.313 153.615 136.234M155.17 141.481C141.201 140.372 119.478 140.192 106.047 139.782M101.788 140.586C98.2496 143.116 96.5119 139.128 97.3004 139.211M97.3632 142.419C97.2444 140.69 94.0454 143.142 93.4682 143.236M96.2368 149.629C93.3278 156.702 100.823 169.85 96.6821 206.276M95.8986 205.311C87.8789 204.994 81.1019 206.039 60.3033 202.382M58.0788 202.441C63.5634 168.774 59.1616 136.628 55.515 124.638M57.9859 121.653C57.589 127.955 61.5395 128.06 67.9432 127.844M68.9825 127.058C71.365 129.912 80.9567 125.352 84.0486 130.046M81.2152 127.758C87.414 127.884 89.5274 124.888 92.114 119.368M92.7566 123.643C99.8181 125.152 100.227 120.295 104.253 111.993M101.788 115.363C105.342 122.136 112.318 118.471 112.936 128.723M112.782 124.712C118.027 124.451 123.053 130.889 124.309 128.11M126.817 128.071C128.233 129.54 139.613 129.95 136.83 127.755M140.853 124.712C143.195 118.927 149.377 115.138 153.829 119.177M151.847 115.363C151.043 122.593 154.519 118.418 162.913 123.886M160.878 123.643C160.697 126.319 165.158 131.036 172.7 130.453M172.42 127.758C177.521 130.567 178.326 131.993 188.199 130.523M184.652 127.058C192.762 121.732 189.434 127.229 197.351 119.375M191.425 121.604C197.023 141.657 191.27 162.967 193.282 206.859M195.89 199.098C190.008 204.731 181.509 199.714 158.336 198.905M195.649 96.7838C192.67 99.2021 192.924 110.799 187.419 112.476M195.649 96.7838V96.7838ZM190.151 110.058C189.844 117.462 178.928 111.685 180.147 112.087M176.877 115.556C170.634 119.194 164.314 116.998 163.755 108.302M163.603 110.058C158.46 107.379 155.674 103.36 160.865 96.8049M154.585 93.0507C158.582 90.2588 157.167 82.3305 159.968 63.6335M159.608 67.5176C166.371 66.3207 175.808 62.9483 199.734 68.0199M195.647 62.1408C199.05 77.8536 195.147 88.2023 197.919 94.3724M145.59 96.7838C145.655 101.918 147.934 108.916 143.867 107.64M145.59 96.7838V96.7838ZM140.091 110.058C137.154 116.624 129.632 111.251 125.473 113.504M126.817 115.556C122.106 116.791 113.825 114.339 115.624 112.192M113.543 110.058C113.976 110.612 106.691 98.9428 109.981 95.7043M111.734 97.2283C111.059 87.1622 111.606 71.8792 109.724 66.9601M106.828 69.3381C118.105 69.141 130.294 64.6372 146.343 61.5873M143.809 63.3494C141.782 75.342 147.888 85.6593 143.676 95.9247M58.5652 63.1706C74.7614 69.3644 84.087 66.3869 97.3572 63.5283M99.1927 69.5509C95.5177 73.8569 92.3076 75.0365 94.6875 95.9107M95.5304 96.7838C98.6279 101.478 96.4104 109.853 90.879 114.001M90.0321 110.058C83.6791 113.369 81.4473 112.916 77.581 118.66M76.7582 115.556C74.4179 111.486 64.8651 110.625 62.1796 107.7M63.4842 110.058C58.6119 106.115 55.4203 102.966 59.9943 98.6601M54.649 98.1885C61.5834 90.2744 55.9145 78.6712 61.5844 64.5656M57.9859 215.675V215.675ZM108.045 203.16V203.16ZM158.105 203.16V203.16ZM57.9859 65.4968V65.4968Z" stroke="url(#paint2_linear_1608_25963)" stroke-width="1.09141" stroke-linecap="round"/>
<path d="M246.291 94.5193C261.083 87.3312 285.12 87.4376 330.97 90.3441M327.156 90.5267C326.382 89.551 329.322 91.8061 333.579 85.6743M331.581 88.694C329.708 88.3327 332.79 84.0186 330.121 85.909M333.414 84.2693C335.155 80.724 334.147 83.2293 335.413 78.6113M331.581 79.8447C331.474 77.1882 328.251 76.7738 330.253 81.5867M331.238 81.1675C292.8 78.4958 260.706 80.3453 245.175 81.6125M245.81 78.0119C248.471 74.0343 242.108 74.7524 237.508 80.2887M241.385 79.8447C243.957 80.7262 242.09 79.6898 242.121 80.7007M239.553 84.2693C241.019 88.8251 237.812 88.628 243.223 89.8284M241.385 88.694C244.19 85.7773 247.06 89.6364 249.181 88.2357M245.81 90.5267V90.5267Z" stroke="url(#paint3_linear_1608_25963)" stroke-width="1.09141" stroke-linecap="round"/>
<path d="M248.552 140.2C273.27 137.657 300.347 144.533 324.592 136.626M327.149 140.585C329.275 140.252 334.201 142.718 332.184 138.951M331.574 138.753C331.215 141.32 330.63 138.054 329.082 130.929M333.406 134.328C333.191 129.552 330.926 131.44 335.584 126.237M331.574 129.903C332.076 133.062 327.654 125.283 326.437 132.414M325.591 128.551C308.792 125.833 294.391 125.807 244.567 129.075M245.802 128.071C244.467 124.435 240.029 125.591 244.269 128.596M241.378 129.903C237.238 126.778 235.692 132.407 237.389 133.552M239.545 134.328C239.308 138.507 243.553 136.786 240.905 138.175M241.378 138.753C244.107 139.725 245.638 137.582 243.489 140.512M245.802 140.585V140.585Z" stroke="url(#paint4_linear_1608_25963)" stroke-width="1.09141" stroke-linecap="round"/>
<path d="M244.617 188.135C274.675 190.388 302.109 186.39 323.393 194.194M327.154 190.645C329.356 193.541 328.475 189.391 332.683 184.565M331.578 188.812C330.04 187.589 329.156 186.836 334.941 187.178M333.411 184.388C329.515 185.679 332.916 178.694 334.44 176.38M331.578 179.963C329.565 181.262 327.67 174.43 328.68 182.4M327.312 181.696C305.159 180.583 281.985 176.353 244.08 175.073M245.807 178.13C242.739 181.724 242.377 176.829 237.742 179.289M241.382 179.963C243.776 184.728 239.417 180.924 243.82 187.167M239.55 184.388C243.14 186.319 241.018 187.332 243.385 186.974M241.382 188.812C245.094 190.2 241.912 194.253 245.516 190.527M245.807 190.645V190.645Z" stroke="url(#paint5_linear_1608_25963)" stroke-width="1.09141" stroke-linecap="round"/>
<defs>
<linearGradient id="paint0_linear_1608_25963" x1="330.587" y1="67.3644" x2="575.209" y2="204.775" gradientUnits="userSpaceOnUse">
<stop stop-color="#3CA0D2"/>
<stop offset="1" stop-color="#48DCA6"/>
</linearGradient>
<linearGradient id="paint1_linear_1608_25963" x1="39.8596" y1="51.2548" x2="294.371" y2="182.373" gradientUnits="userSpaceOnUse">
<stop stop-color="#3CA0D2"/>
<stop offset="1" stop-color="#48DCA6"/>
</linearGradient>
<linearGradient id="paint2_linear_1608_25963" x1="61.039" y1="73.8735" x2="173.098" y2="132.102" gradientUnits="userSpaceOnUse">
<stop stop-color="#3CA0D2"/>
<stop offset="1" stop-color="#48DCA6"/>
</linearGradient>
<linearGradient id="paint3_linear_1608_25963" x1="247.568" y1="78.0055" x2="257.832" y2="105.399" gradientUnits="userSpaceOnUse">
<stop stop-color="#3CA0D2"/>
<stop offset="1" stop-color="#48DCA6"/>
</linearGradient>
<linearGradient id="paint4_linear_1608_25963" x1="246.87" y1="127.819" x2="253.728" y2="150.85" gradientUnits="userSpaceOnUse">
<stop stop-color="#3CA0D2"/>
<stop offset="1" stop-color="#48DCA6"/>
</linearGradient>
<linearGradient id="paint5_linear_1608_25963" x1="247.729" y1="177.597" x2="258.141" y2="205.044" gradientUnits="userSpaceOnUse">
<stop stop-color="#3CA0D2"/>
<stop offset="1" stop-color="#48DCA6"/>
</linearGradient>
</defs>
</svg>
