<svg width="460" height="460" viewBox="0 0 460 460" fill="none" xmlns="http://www.w3.org/2000/svg">
<path d="M68.3971 227.795C68.6683 227.745 68.7524 227.353 69.4918 226.762M68.5321 229.926C69.3446 229.544 70.1567 228.095 70.3684 228.078M68.3171 232.739C70.1482 230.977 70.4166 230.613 72.7748 227.842M67.9478 235.438C69.8294 233.184 72.2144 230.081 74.0639 229.502M68.6139 237.692C71.2359 234.716 72.7154 232.217 75.9164 230.643M69.1905 240.793C71.6798 238.317 74.4094 233.512 77.2627 231.472M69.1311 243.683C71.1958 239.642 76.0753 235.753 76.2318 231.173M68.3413 244.971C71.1262 240.348 75.5197 234.186 80.1886 234.092M70.4538 247.098C72.7129 244.357 76.4538 240.396 81.033 233.107M68.531 250.178C71.4863 243.359 78.4091 240.44 83.7348 234.941M66.9646 254.771C70.8136 249.909 75.5362 246.942 85.5585 234.168M68.6042 254.249C71.8147 252.986 73.5624 246.949 84.8887 236.98M70.671 258.45C72.8477 250.337 78.2845 246.914 87.0776 236.451M69.1278 259.012C73.6832 248.772 80.3381 245.884 88.1326 239.146M67.1197 262.202C76.4258 254.817 83.5516 249.057 86.8157 239.102M68.5286 261.971C77.6841 256.748 83.7408 247.265 88.0992 237.574M67.6574 267.168C70.669 259.961 76.0246 254.861 88.4263 237.823M67.1172 269.159C73.8154 264.329 83.2061 257.377 91.6922 239.53M65.032 272.964C75.0948 260.701 87.0697 248.472 94.9817 244.009M65.9029 274.466C81.9495 260.453 89.0865 246.904 99.2331 238.756M70.9554 277.663C74.7516 265.672 86.733 259.802 95.1948 241.778M69.1088 277.832C77.8038 267.548 88.485 255.514 97.2189 246.404M68.8425 279.942C78.4955 269.232 87.6264 254.965 97.2728 247.766M66.9811 282.952C73.2845 272.398 84.6682 265.333 97.9633 245.3M69.4972 285.508C78.4939 275.372 84.0428 269.351 104.409 244.353M66.5887 290.144C81.5531 270.957 97.1298 257.816 106.411 249.704M65.8701 291.219C80.3654 275.167 92.3415 261.312 108.223 250.409M69.0326 292.961C85.4621 274.66 96.5336 258.426 105.708 250.372M70.4031 295.904C81.0578 285.021 91.3319 266.828 107.634 249.337M65.4678 295.979C83.8772 278.618 101.125 259.833 112.043 247.777M65.3367 297.741C83.1059 284.183 96.0671 272.701 111.916 252.146M68.3784 299.971C78.5185 289.446 88.3877 279.66 110.827 251.044M67.7802 304.595C88.8726 287.02 106.823 262.08 114.492 251.28M67.6195 308.354C88.4484 284.898 104.413 264.165 117.564 253.779M71.0725 309.589C78.3638 293.213 91.5043 282.233 115.551 256.344M70.4548 311.554C83.3085 293.475 97.2065 277.462 115.875 257.121M69.3313 317.717C87.5071 295.306 104.838 272.664 119.539 256.805M70.6501 320.047C82.5263 300.846 100.8 279.228 119.71 254.843M65.1833 318.159C80.4732 304.358 100.433 281.076 119.421 260.651M65.7886 323.165C84.3484 304.919 96.1033 289.709 124.514 258.147M66.7189 324.373C82.2258 307.961 97.57 289.705 124.423 260.61M70.4385 325.575C86.2727 306.801 105.119 283.909 126.211 259.786M70.4812 326.528C87.9656 301.614 111.434 281.717 126.862 259.631M65.1582 331.57C84.2218 309.914 103.711 292.885 128.288 264.232M70.464 332.115C83.8172 315.472 104.294 292.46 129.415 261.039M66.3905 335.786C90.5211 308.481 119.01 282.45 130.333 263.281M67.6946 340.046C93.0837 314.01 113.942 286.834 129.583 264.994M66.1494 341.017C79.3386 327.326 91.5526 309.012 131.945 267.734M66.616 340.923C89.7753 316.951 114.27 285.823 133.03 262.805M69.481 344.081C95.7726 316.76 121.246 284.132 135.526 264.865M67.955 351.166C86.5949 321.604 108.076 297.934 135.843 268.263M64.9648 348.104C91.3279 323.359 111.717 300.096 136.858 267.51M70.5184 355.841C95.2013 328.66 116.117 297.376 139.473 272.303M66.6714 356.048C85.8713 336.241 99.0492 317.747 144.816 271.402M66.3255 357.915C90.9436 332.037 118.793 301.916 144.93 273.392M69.4672 359.957C88.1094 338.592 106.784 314.712 147.971 269.612M71.7196 361.564C92.2457 333.782 113.868 307.022 146.617 269.6M72.2786 361.144C89.9729 337.807 116.287 309.576 147.899 271.736M72.4724 363.668C96.3033 341.447 112.883 313.126 147.806 273.082M75.2254 366.981C101.131 329.971 132.384 293.717 153.941 273.658M73.6162 366.991C106.339 331.473 135.457 297.152 152.999 278.55M76.6835 366.74C102.007 336.409 124.683 311.979 152.487 273.882M77.8642 364.749C93.1081 345.026 117.936 323.978 152.363 280.643M78.7686 365.442C101.282 343.03 118.149 320.142 153.199 279.794M77.6542 371.349C105.72 339.913 132.461 308.434 160.665 279.745M82.451 368.773C101.856 343.194 126.635 317.873 157.24 277.937M81.9814 369.647C111.567 333.951 138.173 304.605 162.058 279.82M82.6785 374.585C113.521 334.361 147.52 300.187 160.597 279.077M83.3664 372.223C113.052 344.371 134.637 313.57 160.8 283.287M89.3957 375.478C107.329 353.524 128.937 329.458 164.405 282.355M90.1801 374.634C111.028 340.826 138.941 310.828 164.073 283.875M86.0948 375.587C117.653 346.56 141.451 313.342 168.643 284.014M90.9988 375.373C120.537 341.394 149.411 311.931 165.304 283.398M90.3331 378.429C122.021 343.092 144.357 314.327 172.69 286.978M95.1445 376.927C119.559 344.092 151.514 312.799 168.593 286.266M91.9699 380.885C122.194 343.178 151.749 311.228 173.899 290.852M93.3646 377.27C115.099 360.841 132.545 334.627 174.177 289.217M99.5775 380.594C114.538 356.446 135.296 330.85 178.346 288.336M98.7774 379.269C127.245 350.264 155.649 311.703 176.232 288.789M103.036 379.737C117.214 360.482 136.354 339.202 180.023 290.773M103.254 379.782C132.801 349.837 159.537 317.263 179.034 295.31M101.599 380.491C135.262 348.63 162.319 317.289 183.143 292.135M106.857 380.804C124.516 361.442 139.336 341.437 184.781 290.862M105.526 385.909C125.341 366.801 139.588 340.735 181.629 295.554M104.467 387.844C132.079 359.497 160.04 326.917 186.134 294.488M110.351 387.958C125.037 365.231 139.272 350.617 187.903 298.589M106.726 384.086C138.279 352.385 165.152 322.207 185.373 294.977M107.781 385.864C143.698 351.167 168.482 320.16 188.423 300.157M111.655 391.859C138.142 357.759 165.54 322.712 193.483 296.813M115.344 391.037C136.13 367.014 157.597 340.668 194.62 298.305M113.678 389.103C137.608 360.889 163.777 335.399 190.998 300.207M116.215 389.071C137.362 368.645 155.623 343.153 191.846 300.961M119.414 389.634C149.435 356.336 174.945 324.316 197.967 301.249M119.328 392.564C148.951 359.477 178.454 320.292 196.075 301.455M123.004 394.254C147.185 362.177 169.861 337.406 199.787 300.958M120.361 392.649C153.946 361.048 181.96 324.857 201.894 307.333M124.512 393.602C143.102 375.354 158.331 354.173 197.921 303.097M125.347 396.504C149.273 371.224 169.436 344.699 200.236 304.433M128.219 396.647C146.392 369.527 171.183 341.689 201.424 309.478M127.555 394.791C145.073 374.127 165.231 353.717 207.313 307.171M130.549 396.269C153.761 368.777 177.596 342.632 204.139 309.697M129.36 397.452C156.61 371.027 184.461 337.367 207.421 311.267M129.738 398.652C150.174 379.001 163.501 359.27 211.812 310.007M132.555 401.576C164.112 367.77 191.996 334.534 211.599 310.841M131.789 404.839C166.603 368.488 195.691 333.42 211.549 311.769M134.762 404.275C165.605 369.157 191.623 336.603 214.755 315.048M138.563 403.432C164.575 373.8 191.027 342.479 217.561 311.594M140.536 403.543C162.383 379.678 178.414 357.707 218.107 313.275M139.699 405.893C167.115 369.371 195.489 339.029 219.494 316.395M139.978 406.368C161.648 389.093 173.688 365.651 220.034 317.166M142.113 407.098C166.451 378.641 195.948 345.561 218.829 315.966M144.134 407.374C166.987 378.609 193.667 346.18 219.759 317.037M143.824 411.495C163.679 386.757 183.983 363.492 222.537 317.453M145.508 411.504C159.305 392.788 175.794 369.21 224.123 320.684M144.928 412.221C165.899 386.372 190.886 365.013 227.788 320.724M150.413 408.594C164.278 388.01 185.073 367.648 228.471 318.111M151.509 409.549C169.02 390.385 189.942 368.243 228.402 322.628M150.3 415.786C167.662 391.993 188.953 367.346 231.755 319.068M152.447 415.065C183.861 381.729 210.312 352.514 236.433 313.642M151.974 413.802C174.187 391.973 191.939 366.347 243.066 313.81M157.166 412.033C180.418 386.284 209.844 358.68 244.047 308.465M159.473 418.534C186.891 381.406 212.529 348.333 253.293 308.601M157.974 419.071C178.679 395.919 201.56 372.524 254.216 303.695M161.096 420.626C185.918 387.207 214.018 356.415 258.378 304.592M164.016 420.228C202.233 374.292 238.303 330.893 263.606 302.998M160.598 421.467C203.127 374.741 239.368 333.528 265.874 296.26M161.858 419.974C203.837 376.414 242.158 332.232 270.235 294.638M163.797 419.144C187.251 395.618 209.819 368.865 275.204 295.856M165.685 422.918C205.887 373.981 249.634 330.128 278.115 289.458M167.607 421.982C215.861 370.553 255.611 318.757 285.238 286.816M167.333 424.408C194.606 391.158 215.189 363.835 289.935 287.697M170.031 423.437C199.97 389.969 222.388 362.003 292.262 282.424M175.106 422.459C207.738 383.775 245.893 338.406 299.573 277.629M175.4 427.048C200.57 393.453 229.753 362.731 301.532 278.203M177.414 425.488C228.708 367.699 274.69 311.253 309.745 274.394M175.602 424.176C204.27 394.541 235.525 355.056 311.02 273.002M178.512 430.587C216.29 380.551 263.079 330.092 316.608 272.871M181.249 430.05C227.884 370.69 277.681 313.401 321.441 270.057M182.57 428.889C231.89 373.351 282.803 309.413 325.925 267.798M181.996 428.948C218.97 386.936 258.952 345.974 327.479 261.253M185.592 434.828C229.787 377.668 283.753 317.365 333.464 261.803M185.394 431.017C246.473 368.127 300.628 298.057 334.277 254.93M186.963 430.08C245.561 360.63 301.665 296.833 344.338 255.492M187.299 435.405C246.242 365.9 307.488 298.763 345.965 253.978M189.564 436.787C238.832 377.19 287.25 323.717 348.871 249.538M191.48 434.948C234.286 381.095 283.638 331.879 357.262 248.716M194.304 438.629C252.736 365.065 318.581 297.442 358.611 244.76M192.686 436.976C248.262 372.115 303.906 306.541 360.748 238.303M197.162 435.245C241.429 385.36 286.495 330.863 367.407 238.337M195.423 437.672C248.787 374.351 310.853 307.007 373.033 235.941M194.803 440.209C262.779 364.586 325.797 292.372 373.691 230.146M197.711 440.881C250.556 378.615 303.579 317.462 379.616 230.927M199.84 439.862C244.075 388.302 289.494 340.639 385.569 225.484M204.34 442.801C252.059 387.334 298.916 331.406 386.508 230.727M201.366 441.887C245.836 394.036 287.803 347.72 388.019 228.972M202.772 446.846C243.384 397.003 290.682 344.197 384.666 231.572M204.541 445.273C273.066 363.195 342.653 284.484 388.581 238.546M203.252 447.665C242.44 405.769 281.528 357.974 388.235 238.367M210.438 446.073C270.499 369.967 339.465 291.82 386.322 238.607M207.148 446.799C260.879 386.418 313.289 325.031 385.32 239.779M208.689 447.069C271.771 376.25 332.041 304.141 384.933 244.54M211.184 449.742C269.561 380.999 322.878 315.14 385.441 246.871M210.441 448.087C258.461 394.174 310.931 339.531 386.838 253.099M215.435 452.744C262.34 389.098 315.867 334.451 386.16 251.942M214.319 450.452C272.102 387.949 326.286 328.058 384.781 253.958M215.026 450.47C257.465 403.057 299.662 358.203 389.591 257.401M219.424 454.836C283.985 378.029 349.804 301.781 387.942 256.46M218.149 455.404C271.159 393.265 326.73 331.709 390.014 263.51M220.158 456.127C261.24 409.358 300.719 367.777 387.778 267.637M222.681 452.851C283.596 383.367 344.36 312.783 387.273 267.977M225.095 455.846C291.502 381.359 353.472 304.351 385.466 270.358M224.538 454.9C282.343 390.554 344.641 320.052 384.266 271.098M225.739 457.159C287.323 391.408 342.182 324.254 390.097 272.655M227.603 456.774C288.644 388.526 351.652 323.585 386.095 274.885M231.251 454.05C287.68 392.639 342.644 331.246 388.175 279.742M235.002 454.38C272.365 414.479 307.604 377.266 387.918 281.558M242.952 453.177C293.908 390.756 346.35 325.027 387.311 283.516M245.61 451.471C298.182 388.56 349.087 328.688 385.142 284.116M252.011 446.489C286.194 403.438 318.04 364.995 387.6 290.524M256.051 441.917C287.977 405.351 318.863 364.979 389.551 287.601M261.641 439.392C306.331 383.529 359.513 326.409 386.041 295.66M264.34 440.084C298.028 396.387 334.577 354.433 384.643 298.735M265.98 433.433C310.532 390.163 348.141 342.628 386.417 299.441M272.647 434.864C308.076 391.611 349.694 342.845 389.285 298.124M276.653 427.869C323.392 380.141 362.084 328.627 384.939 301.947M282.756 429.386C309.984 395.011 333.838 361.658 387.044 307.405M284.811 427.648C311.318 394.133 337.125 361.022 389.17 304.209M286.464 424.033C320.972 390.968 346.675 356.517 390.438 312.081M290.759 422.504C330.761 379.581 362.95 336.795 387.85 315.743M295.804 414.31C318.876 391.31 339.554 366.586 388.901 314.418M302.143 416.99C336.413 378.818 368.145 342.692 389.54 315.025M307.193 414.098C322.152 392.526 341.747 369.424 385.069 320.551M308.051 409.349C335.145 381.152 357.484 352.458 384.172 320.919M317.481 404.438C341.933 377.316 367.034 352.981 389.245 325.307M320.08 401.247C337.163 384.158 356.166 364.926 385.226 327.988M325.193 401.623C341.221 384.046 355.563 364.205 389.857 330.735M326.528 396.581C346.076 381.99 360.192 363.832 389.216 332.135M332.708 397.054C345.811 376.284 361.942 361.657 388.192 332.3M335.035 392.854C348.522 380.761 363.186 361.075 384.853 335.512M344.095 392.367C352.633 377.58 367.475 362.547 386.887 340.873M345.192 388.505C358.697 374.701 370.153 363.558 385.669 340.886M349.802 386.797C361.465 378.035 367.188 363.169 385.515 346.329M352.91 384.212C365.691 376.073 374.823 361.867 389.361 345.661M361.57 380.505C371.074 369.754 377.157 354.925 385.405 350.928M366.001 375.683C371.346 372.371 375.7 360.087 388.725 350.582M369.256 377.797C371.269 366.447 381.533 361.689 390.12 354.129M373.368 374.243C377.57 364.523 384.75 359.896 389.676 355.119M376.097 368.735C380.707 364.748 383.9 359.241 387.28 357.904M381.789 367.425C382.764 365.561 384.105 364.32 386.972 360.269M68.2212 225.718V225.718Z" stroke="url(#paint0_linear_1608_23157)" stroke-linecap="round"/>
<path d="M2.03885 139.939C3.06804 138.486 3.91001 137.291 4.62104 135.935M2.32745 140.94C4.31426 139.393 6.02212 137.304 9.89575 133.276M3.85474 140.773C6.95505 138.057 12.043 134.63 14.205 132.405M6.07439 141.682C9.31409 139.92 9.53676 135.727 19.0879 130.114M6.08782 142.081C13.8765 138.767 18.0862 131.803 21.4621 124.431M8.92863 141.855C14.3261 139.779 19.849 135.035 28.1693 124.677M9.23018 146.443C16.0918 138.406 22.6461 130.423 29.921 122.738M11.9035 143.037C22.4636 138.644 28.3134 127.494 36.1919 118.16M11.6432 149.399C19.8434 138.224 26.9403 125.561 36.6595 114.356M12.7893 145.629C19.982 143.902 27.595 132.276 40.8986 115.024M16.6855 148.277C30.3574 133.862 40.4697 120.572 46.6471 112.013M18.9978 151.367C28.1238 136.272 35.0916 126.374 49.378 107.786M18.4311 149.041C28.4591 136.747 38.2953 126.875 55.5037 103.48M18.3396 149.042C34.3897 134.986 53.1196 116.832 60.1261 103.887M17.8503 154.12C32.4601 141.071 38.2755 129.066 66.2382 102.651M19.7458 155.057C38.2029 137.694 51.7329 116.044 72.0931 98.0251M23.4086 155.717C37.4587 139.349 49.43 123.519 76.1601 92.0865M26.7201 152.472C42.66 134.576 53.5788 121.432 76.7312 92.3075M23.7562 157.379C39.8395 138.046 59.0295 119.412 83.2714 90.2166M26.8046 155.848C39.4497 138.299 56.9416 124.773 89.1184 88.1278M26.1189 158.362C42.8127 139.078 56.6695 127.204 88.4212 81.2734M28.2248 154.84C48.915 136.756 60.5797 119.082 95.2122 80.5407M33.3559 159.999C53.0588 137.059 71.9457 108.033 102.466 79.8727M30.2896 158.385C51.6398 140.037 64.9003 124.12 103.498 76.8338M33.3937 161.504C52.8094 135.232 76.9357 114 108.542 73.6517M34.8049 162.521C56.9761 139.19 72.7196 116.558 113.727 71.929M37.7658 160.131C66.9499 133.787 93.0505 99.6384 119.538 69.6611M37.2629 160.343C67.8099 127.439 96.7989 92.7513 123.002 63.8934M39.4803 164.576C56.5673 139.471 73.6781 120.981 127.707 59.9675M42.6395 163.797C64.6686 144.036 82.2497 118.978 133.315 60.9129M42.2354 164.232C75.2856 120.154 117.114 78.5966 132.503 60.0543M41.6799 168.895C73.3257 128.377 108.381 89.1486 140.691 57.5822M46.3286 165.944C69.0052 140.12 90.5562 117.039 145.438 53.1365M50.0539 164.693C67.3321 142.014 87.1107 120.009 147.556 49.0416M47.233 165.042C74.8374 135.776 102.702 102.709 154.902 49.8919M50.0417 168.237C88.1029 124.054 132.964 78.1907 157.138 43.7498M52.781 169.004C75.2107 140.637 95.3463 119.172 164.038 41.9179M51.9021 170.817C91.4055 127.973 132.666 78.6432 167.639 41.0929M54.394 169.488C86.3148 130.231 117.964 92.5019 169.604 38.6704M53.2024 172.632C92.5003 126.285 128.545 85.8677 174.768 37.0294M54.5556 172.614C100.482 117.534 152.649 64.8354 178.641 34.9455M55.4264 175.086C105.425 120.09 153.881 58.7012 184.691 26.4305M59.4046 177.558C90.3384 135.101 128.889 95.7382 187.042 28.1374M62.0346 174.065C87.9976 143.756 115.592 109.794 192.625 22.8216M62.4394 174.537C110.209 118.625 159.797 63.9663 194.513 19.1015M61.8448 178.257C109.644 122.932 159.959 67.2698 202.328 17.939M64.3229 180.212C98.4437 140.546 128.967 97.7799 202.518 19.24M62.9686 178.692C111.615 127.271 149.298 78.3411 210.779 13.5641M68.6355 182.029C116.496 123.616 164.398 69.4283 214.151 12.6837M66.6816 178.997C113.358 128.736 164.36 69.8438 220.691 10.7053M69.4798 179.214C129.732 108.787 190.487 43.1997 220.593 4.38962M73.4147 184.032C107.847 138.818 142.288 98.1189 229.244 1M70.7869 183.363C126.358 113.99 180.71 55.7705 226.152 5.73623M74.2941 182.894C115.925 135.097 154.963 92.0243 231.063 3.50572M73.5357 187.124C119.72 135.929 162.164 82.0089 228.389 7.374M74.093 186.536C130.658 121.909 191.539 59.8728 229.499 6.70518M78.7995 187.93C109.795 145.676 144.293 107.759 236.357 8.33924M78.5077 186.826C114.5 144.704 148.833 104.306 237.005 8.86541M79.7868 188.074C116.531 146.051 152.32 106.956 235.294 5.30182M84.8518 190.831C132.325 127.557 186.657 68.7325 235.389 10.6957M86.3454 188.7C135.229 128.806 186.713 66.6248 240.515 11.5283M83.3124 191.622C143.902 123.644 206.03 51.7212 239.769 9.49232M88.2503 189.617C118.903 153.428 152.635 111.978 243.125 14.2367M86.3656 193.79C134.369 140.286 180.734 89.2127 243.342 14.444M89.1587 194.399C130.344 143.376 174.139 98.5921 243.198 10.9924M92.1775 193.68C143.783 136.923 192.15 73.957 246.586 12.0829M90.0154 193.756C138.024 137.838 186.492 86.1554 245.684 16.957M94.5361 192.489C137.769 148.871 176.87 98.2139 250.172 16.4686M91.8866 198.052C151.29 127.268 212.654 62.3402 251.866 16.3245M97.6413 197.035C130.882 151.182 170.21 113.463 254.884 14.6895M99.5445 199.209C128.78 164.095 155.871 124.649 251.036 21.0146M98.9025 200.517C147.861 140.983 195.198 88.3406 253.558 17.4695M98.5612 202.095C145.855 141.91 196.379 87.3937 253.917 20.1312M103.139 197.957C148.419 150.562 187.256 97.3581 259.665 23.288M102.011 199.774C143.154 155.638 185.894 106.396 258.981 18.2849M101.687 199.008C143.473 155.911 182.676 113.943 261.492 19.8601M103.332 201.293C146.111 154.692 191.834 101.711 263.173 23.833M103.554 203.726C138.477 166.818 174.48 130.287 265.571 27.2309M110.945 201.878C168.531 139.718 227.215 70.5612 262.368 27.0698M108.671 207.413C173.473 133.557 234.766 62.1447 268.083 27.1967M110.443 203.353C149.723 160.093 190.635 119.382 266.784 25.1724M109.721 206.854C153.419 157.254 196.067 109.469 269.317 28.3492M111.54 207.962C155.576 158.71 204.344 106.028 269.526 27.355M115.434 206.382C173.63 142.456 228.754 74.4959 267.795 29.5749M114.481 211.251C173.144 145.453 222.45 87.3737 272.519 29.747M116.14 210.69C161.069 156.298 206.503 105.124 276.851 33.1198M118.824 208.174C173.21 145.337 229.784 81.1996 277.125 29.4373M123.095 212.042C160.516 165.791 197.193 121.35 278.991 34.6422M124.786 213.585C170.315 153.985 224.833 95.6259 278.764 36.5201M125.864 214.84C180.024 151.987 228.168 92.354 275.713 34.5349M124.64 212.909C186.912 147.017 248.921 74.8108 281.761 34.9824M123.954 212.108C159.638 174.539 190.952 142.376 284.582 32.2894M129.021 218.588C170.08 161.821 218.602 111.078 284.484 34.7274M126.983 216.236C186.261 146.841 249.698 79.7191 286.159 38.1443M128.763 220.11C190.071 147.895 247.379 78.0083 285.257 38.628M132.698 219.8C181.992 162.171 232.054 100.86 288.193 39.24M135.908 220.528C186.03 163.674 233.689 106.425 288.609 42.3025M133.122 221.591C198.66 148.908 255.366 81.313 290.491 39.927M135.89 218.078C179.629 173.771 218.758 125.189 289.969 40.2668M135.06 221.41C174.821 177.572 213.073 133.72 291.397 43.8307M139.497 221.042C175.476 182.553 209.529 142.055 295.576 46.3678M138.999 222.608C177.075 185.366 205.844 146.247 293.017 42.996M142.624 226.575C199.136 157.379 253.74 93.5887 295.207 47.4721M144.762 226.853C200.116 152.252 264.614 83.3832 301.601 44.5517M142.43 222.873C181.834 180.794 218.206 142.613 297.901 47.7222M143.381 227.493C188.152 179.192 237.509 122.792 297.997 49.6908M144.48 226.265C191.036 176.945 237.664 119.761 300.962 46.7969M148.939 229.756C188.681 184.061 224.71 140.093 304.522 46.508M151.891 225.705C197.544 174.969 240.698 125.048 308.457 50.0827M152.007 232.704C175.255 204.484 201.89 170.422 229.732 138.824M225.776 141.254C249.487 116.255 271.587 92.6414 309.571 50.4826M150.982 232.876C171.418 212.727 184.076 192.705 230.382 141.22M229.568 139.608C248.008 117.595 266.563 92.5308 307.948 51.3549M155.054 229.346C180.308 204.61 201.663 174.264 226.684 144.107M233.487 143.279C259.534 111.552 282.263 81.0306 311.609 50.6862M157.126 228.747C181.167 201.838 202.251 175.754 225.967 149.32M236.953 141.687C256.117 115.996 281.232 90.7146 309.82 54.7474M157.702 235.227C177.334 209.257 199.8 183.831 229.105 147.601M234.955 139.297C253.402 122.5 267.333 104.823 315.527 53.5405M155.741 231.289C185.611 203.493 212.817 175.58 230.573 150.311M237.043 141.853C266.609 110.705 287.741 83.9056 316.749 56.0355M159.573 234.867C175.749 217.811 193.569 194.738 230.396 154.596M243.026 142.507C264.608 110.659 286.741 85.2792 313.107 53.9256M157.679 237.583C185.357 208.005 204.267 183.055 225.677 156.203M241.049 141.681C262.713 118.414 279.877 100.79 316.207 57.9744M162.978 233.932C177.99 218.934 195.839 194.587 229.699 156.877M242.405 139.921C261.865 119.688 282.774 102.045 314.796 59.5762M164.963 238.08C185.904 207.133 210.979 183.395 225.941 160.992M248.742 140.94C261.514 125.044 275.123 103.012 318.9 56.41M164.068 238.719C188.083 209.039 212.465 180.211 231.806 164.362M248.026 142.058C266.49 123.914 283.164 106.772 318.036 57.6054M167.132 241.666C181.352 218.387 199.893 199.869 227.618 167.473M251.981 137.182C272.63 117.791 290.978 97.2383 323.309 58.0785M164.487 241.095C187.406 216.182 210.499 194.392 227.049 170.947M256.769 137.768C276.375 113.604 295.766 87.4293 320.42 57.604M166.591 240.897C189.78 213.249 209.006 192.604 228.921 174.195M253.833 140.369C269.174 120.278 283.181 109.507 322.251 64.1179M171.729 241.599C182.662 223.987 199.662 205.636 225.236 171.708M258.974 136.823C275.105 119.371 293.97 104.258 326.731 64.1525M171.768 244.281C193.876 220.39 210.72 190.548 230.733 176.188M260.836 138.586C279.834 119.725 300.94 95.0089 330.466 65.4319M174.292 242.806C188.083 225.82 207.141 202.603 225.631 179.422M258.902 139.945C276.28 122.855 290.483 103.697 329.783 65.6673M173.124 242.811C185.921 226.661 199.286 210.279 227.508 182.931M265.875 143.175C280.349 120.288 293.816 106.976 327.256 66.3932M174.243 246.968C189.324 228.164 207.32 210.559 225.791 179.993M265.727 138.751C280.079 127.043 293.805 110.072 330.716 68.5027M173.937 245.967C189.113 232.96 202.012 221.631 228.609 186.279M266.12 139.436C286.652 117.714 310.693 91.7189 330.708 68.4029M176.01 244.139C197.434 224.509 210.036 209.282 232.569 183.437M272.197 138.513C289.67 122.179 305.83 98.7199 333.179 65.5152M176.769 244.994C194.09 227.646 213.11 208.967 235.489 184.297M271.144 141.692C286.596 119.419 305.27 103.085 336.631 68.5445M178.871 247.836C203.711 222.868 223.365 198.864 234.835 187.608M276.471 136.861C299.069 115.672 318.542 85.9111 336.571 70.9002M182.463 247.171C196.748 237.117 205.377 218.418 236.171 185.719M275.393 142.481C295.899 119.287 312.145 98.0258 338.22 72.1382M185.046 251.202C200.832 227.698 221.528 206.67 239.771 185.609M275.605 139.771C299.447 115.387 313.105 94.6124 339.87 69.2345M185.55 250.78C196.385 234.442 211.863 216.877 241.099 188.264M278.415 139.723C301.139 117.444 314.974 98.1285 339.904 73.0636M188.622 248.077C203.277 227.885 222.514 210.17 242.583 182.356M285.676 140.015C297.649 125.537 316.251 105.397 344.324 71.8933M190.688 249.213C199.013 236.249 212.149 221.618 243.574 186.777M283.868 141.202C299.499 120.345 314.946 103.609 341.284 70.9364M188.263 251.098C203.007 232.704 219.584 213.316 248.732 183.533M285.946 138.809C302.405 125.233 315.294 104.84 346.869 72.8537M191.27 255.752C209.915 227.799 231.294 203.363 251.82 185.632M287.022 140.714C304.366 123.967 317.834 105.308 344.232 74.0073M189.832 253.931C214.43 227.928 233.688 201.431 252.576 182.803M293.467 142.563C307.502 122.352 326.644 100.839 346.574 76.7786M191.37 258.495C215.331 235.231 232.295 215.404 256.037 185.971M294.077 143.021C313.188 119.023 333.265 100.043 346.411 78.8184M192.024 253.604C207.936 238.293 225.085 220.238 253.759 183.881M296.481 142.869C314.609 116.97 333.283 98.8118 350.059 74.41M193.467 259.734C217.807 229.485 244.901 199.489 256.493 186.585M299.09 138.239C314.493 122.571 324.213 105.967 349.645 74.5988M197.871 258.172C223.33 228.96 241.73 206.911 258.997 183.397M297.813 139.892C316.401 121.328 338.425 98.189 352.823 80.7028M200.599 259.668C214.681 239.529 232.064 221.758 258.89 185.807M299.868 138.714C317.916 117.124 335.407 97.0387 351.51 82.0905M200.21 261.907C215.107 246.665 230.468 231.617 261.456 185.513M301.534 137.792C316.006 125.294 326.269 110.143 352.496 82.1541M204.113 261.233C224.924 233.895 252.715 201.998 267.434 188.573M307.788 136.809C321.926 119.543 338.425 98.379 353.81 82.506M200.601 263.335C218.095 240.537 238.04 220.303 265.613 185.337M305.216 138.582C317.91 127.255 335.413 113.48 360.529 81.2131M205.838 262.957C218.956 246.675 234.005 228.92 271.643 188.022M312.56 137.442C320.146 124.476 333.994 113.79 361.933 81.0068M204.534 264.334C227.712 236.756 253.248 206.101 271.269 183.377M311.753 140.053C321.533 128.393 335.153 110.038 360.024 80.581M206.703 264.958C225.113 243.596 238.711 225.343 276.357 185.583M314.968 138.695C332.305 120.388 346.208 100.908 365.033 86.6934M207.057 264.949C232.279 240.019 254.488 208.162 277.963 187.828M314.264 137.789C330.515 126.73 338.719 109.343 365.044 83.8238M212.243 264.008C227.973 239.611 252.786 218.573 278.364 187.461M317.762 136.948C337.274 120.165 350.49 99.8365 366.472 87.9072M209.77 264.966C240.513 231.492 268.946 202.621 281.567 183.682M317.593 138.396C338.898 124.59 349.98 103.004 367.667 85.9331M214.896 269.79C227.001 248.227 246.333 229.565 281.2 183.293M324.004 139.77C334.383 125.455 341.939 117.261 370.631 85.1119M216.079 270.158C239.137 241.275 257.316 213.921 284.467 188.142M323.638 141.823C341.693 123.401 358.288 102.593 368.192 91.4541M212.952 267.066C236.105 241.293 256.424 218.429 285.539 187.052M323.248 138.739C344.035 119.654 358.903 103.344 373.778 86.528M216.157 270.89C234.224 250.215 250.133 228.912 288.773 184.256M330.011 141.084C343.318 120.411 358.495 104.951 369.356 91.4291M215.702 268.54C243.921 238.737 264.368 211.84 291.141 184.186M332.041 141.802C343.726 122.98 360.528 101.336 372.382 87.7357M220.198 272.544C235.344 253.623 255.532 229.957 295.007 184.786M332.379 141.455C346.085 125.008 366.17 105.099 377.878 92.5378M222.151 269.329C249.314 241.379 269.32 210.551 293.364 186.529M335.33 141.859C346.469 129.822 351.395 116.917 375.616 93.06M219.631 270.713C247.886 247.233 266.72 215.706 296.839 185.761M336.081 136.805C349.661 122.791 361.885 110.007 380.04 90.5999M220.14 274.655C242.637 249.023 269.064 220.886 301.353 184.143M336.843 143.681C349.558 127.187 362.709 116.074 379.656 95.0703M228.082 270.838C256.569 243.045 283.931 207.306 300.996 188.492M340.258 141.015C353.931 123.439 370.112 108.821 380.937 97.7838M229.483 276.986C247.37 255.786 263.461 236.034 306.095 188.02M342.761 141.442C354.529 121.36 370.566 110.019 380.61 92.3169M228.906 273.833C254.005 243.487 277.537 216.822 303.422 183.797M347.682 138.322C354.552 125.945 363.68 114.118 384.138 94.2029M228.311 273.733C250.481 251.504 273.426 223.692 307.507 185.97M345.843 140.108C356.103 127.481 367.303 117.294 385.095 95.4648M230.965 274.019C253.543 250.705 275.904 229.418 310.434 185.962M349.903 139.653C356.743 129.052 362.274 119.963 386.482 100.191M239.036 271.592C259.646 243.183 288.913 213.209 311.898 186.482M350.538 136.806C364.483 127.642 371.322 113.123 385.39 98.1658M238.802 266.431C262.472 238.92 290.974 214.25 313.666 183.88M351.446 140.836C364.333 127.98 372.612 121.115 391.556 96.5168M248.714 269.568C272.138 233.073 298.331 202.3 314.382 183.523M352.781 140.384C365.538 131.911 377.211 119.88 388.952 101.512M249.723 262.775C264.675 249.22 277.921 232.224 319.215 183.434M354.648 142.173C367.565 129.213 375.929 120.008 389.088 101.316M252.89 259.284C280.848 233.042 306.433 206.526 322.525 183.588M359.128 142.759C367.173 129.214 380.8 121.877 393.819 101.659M258.588 257.507C283.119 230.909 312.496 198.266 322.111 182.504M363.185 140.025C370.9 131.79 376.388 126.746 394.772 106.24M265.772 254.183C284.588 235.077 305.548 210.938 327.32 185.62M362.166 140.824C372.164 130.279 381.887 120.552 393.942 101.898M268.506 254.29C290.069 230.04 313.869 202.418 324.057 189.286M369.391 140.111C376.874 124.981 389.989 116.608 398.001 105.167M273.705 249.244C281.907 233.412 294.596 224.36 331.182 186.352M368.805 142.498C380.869 127.106 390.461 113.564 398.011 102.165M275.776 249.34C289.644 233.457 301.582 216.864 328.781 186.254M370.975 140.43C378.554 126.411 394.038 113.052 401.232 106.391M282.257 244.641C301.325 225.57 317.65 201.879 332.166 188.738M372.245 140.338C385.511 126.607 394.454 111.599 399.736 106.694M288.405 242.1C301.251 225.73 312.118 209.823 334.132 187.702M373.483 139.498C380.886 133.863 383.955 126.884 402.548 107.936M291.957 240.584C301.12 226.232 317.108 213.377 339.428 186.268M378.732 139.43C387.548 130.186 394.983 116.36 405.993 111.668M296.559 236.923C315.05 215.604 329.105 194.928 341.792 183.623M378.453 141.946C386.94 132.115 392.419 126.616 404.447 112.289M295.927 236.252C312.799 218.934 333.418 199.251 344.059 183.201M383.804 137.736C391.42 132.576 395.22 123.957 405.753 112.309M299.863 234.034C313.687 215.821 330.431 200.998 340.24 189.037M383.722 141.824C386.575 131.79 393.995 124.61 410.298 111.968M308.07 227.788C318.798 217.987 323.769 207.818 346.514 184.792M382.82 141.942C391.769 132.605 398.301 127.26 406.534 110.886M314.319 227.316C328.007 214.111 336.908 194.469 348.418 182.739M386.659 142.136C391.869 130.738 403.558 124.593 410.258 113.825M318.277 228.001C325.898 209.767 338.92 199.672 352.032 183.604M387.282 139.409C399.071 127.891 408.872 119.315 414.356 115.157M322.497 222.544C332.511 212.556 339.011 196.369 353.851 188.32M392.82 138C396.583 133.583 402.04 128.734 412.016 115.009M326.438 222.985C335.464 209.565 343.478 199.1 353.687 184.775M390.432 139.353C398.713 132.437 408.046 122.751 414.788 112.276M331.043 218.174C333.764 206.538 341.761 203.957 357.907 182.246M398.492 138.199C402.896 134.261 404.414 127.734 414.083 118.251M334.518 215.699C339.872 202.404 349.707 191.51 357.089 183.551M395.114 138.158C400.972 136.065 409.783 126.568 416.932 117.233M337.152 211.228C342.845 204.104 355.231 191.224 361.441 186.835M397.791 139.991C404.288 131.635 409.526 125.246 420.1 118.035M344.712 206.844C347.434 198.58 354.273 191.939 359.698 186.725M404.902 139.988C409.627 130.935 415.008 122.056 419.431 118.09M348.192 207.833C351.335 199.371 354.678 197.702 364.816 187.229M403.019 139.273C407.217 136.1 412.458 127.948 421.646 120.568M348.847 204.052C358.217 198.701 361.945 191.56 367.066 185.378M405.617 139.571C412.625 134.993 414.4 125.875 421.442 121.252M356.76 201.569C357.059 195.01 360.245 192.257 366.897 187.501M409.651 139.123C411.917 136.701 417.886 129.841 422.865 119.338M359.842 198.387C361.344 194.55 365.902 190.991 370.502 185.261M410.897 141.023C416.551 135.364 417.016 130.21 424.473 120.032M363.622 196.51C367.32 192.858 370.084 188.98 373.234 186.355M413.348 141.715C415.236 135.764 421.03 129.603 426.298 125.286M368.642 193.038C369.95 191.794 371.06 191.079 373.516 186.275M413.085 141.841C418.522 134.613 420.123 132.09 429.032 124.869M372.482 190.878C373.515 189.489 374.491 187.916 375.788 185.664M417.757 139.648C422.211 133.184 428.88 128.784 428.331 122.937M418.074 142.249C419.863 135.685 425.03 132.965 429.551 126.001M420.491 140.492C425.543 138.247 427.904 133.079 431.215 125.679M424.013 139.932C425.475 137.895 427.591 131.584 431.981 127.694M424.167 140.656C426.463 135.147 430.106 133.467 437.197 125.632M426.389 139.246C429.105 137.073 432.76 132.882 435.485 129.353M429.87 139.815C430.837 137.224 432.043 135.031 437.266 128.213M431.813 140.621C433.636 135.12 438.434 133.69 440.204 129.871M432.703 140.693C436.047 138.677 437.571 134.918 441.162 132.415M434.84 140.16C437.11 137.266 441.106 135.166 442.665 131.873M437.03 140.036C439.646 138.49 440.462 135.611 443.258 131.718M439.948 139.532C441.594 138.11 443.273 135.026 445.735 133.05M441.336 140.669C443.26 137.637 444.654 137.098 446.865 134.088M443.318 140.327C444.635 139.173 445.643 138.348 448.135 134.986M445.991 139.952C446.5 138.535 447.112 138.35 449.069 136.684M447.501 139.46C449.239 138.798 449.85 137.743 451.462 136.613M449.869 139.846C450.822 139.115 450.894 138.31 452.27 137.452M451.084 140.351C452.124 140.273 452.609 139.655 453.064 138.316M453.444 140.372C453.773 140.347 453.965 139.878 454.683 139.276M0.460938 138.717V138.717Z" stroke="url(#paint1_linear_1608_23157)" stroke-linecap="round"/>
<path d="M409.714 214.555C411.504 212.897 412.684 210.598 414.101 209.989M411.066 215.748C412.527 215.366 412.919 212.947 417.44 206.551M409.985 219.804C413.705 214.035 417.944 208.755 421.718 202.585M409.423 222.149C412.532 214.44 416.206 211.92 428.173 201.279M406.894 223.744C417.53 219.6 419.035 207.823 428.432 196.697M407.871 227.012C418.362 219.177 424.008 209.943 434.877 197.778M406.609 227.682C418.006 219.045 425.066 206.53 441.986 194.896M408.322 230.961C422.343 218.959 432.643 201.878 443.959 191.206M410.801 234.989C416.774 224.263 425.275 215.604 450.505 188.655M409.366 239.515C418.333 227.828 425.385 217.345 455.043 185.586M409.512 241.838C417.93 228.094 428.357 213.907 456.395 186.925M409.285 240.596C418.792 225.677 432.21 216.326 454.587 187.875M408.879 241.898C424.812 226.774 436.832 211.571 456.277 189.505M410.668 244.421C425.764 226.683 446.651 205.648 454.208 194.113M407.121 247.743C425.732 234.948 440.338 217.604 458.022 197.164M411.833 249.104C423.572 230.899 440.982 211.84 457.829 199.631M409.369 252.176C427.554 229.592 444.199 211.319 453.067 201.227M408.797 254.304C426.618 234.198 443.383 214.871 458.53 200.676M409.003 258.118C424.943 240.932 443.99 223.439 455.41 204.179M406.645 258.057C418.638 248.631 431.982 236.94 458.997 207.949M406.653 259.976C424.657 243.411 439.177 227.767 455.295 207.334M407.467 264.404C420.262 251.047 435.441 233.633 457.767 211.277M406.266 266.006C421.105 249.63 437.288 232.397 454.14 214.704M407.041 268.314C418.553 256.679 430.952 246.022 457.284 214.685M408.05 269.316C418.218 257.501 427.737 247.193 458.162 218.999M411.024 274.059C424.831 258.241 435.924 244.46 455.549 222.196M408.009 279.414C422.137 265.059 432.461 250.638 456.415 223.702M412.219 280.09C421.829 264.198 437.647 244.786 454.69 225.478M406.984 283.56C430.054 263.739 442.511 241.14 455.041 230.245M411.228 282.203C422.228 272.501 435.706 258.066 455.243 230.062M409.406 287.022C422.159 267.433 437.068 255.534 457.221 236.057M406.772 290.912C423.272 277.757 429.484 261.364 458.512 233.547M408.592 291.458C421.164 276.828 437.724 263.995 458.591 240.464M411.183 291.542C427.843 273.664 443.502 256.728 457.398 239.38M411.752 297.839C421.456 285.294 435.274 266.832 458.246 246.02M410.28 296.63C421.685 284.281 436.891 267.152 455.348 245.082M408.405 301.481C426.189 286.074 441.958 264.033 458.352 248.958M411.399 304.36C418.334 290.222 433.422 275.625 454.763 251.423M411.107 305.38C419.093 290.948 433.783 278.964 453.568 254.196M408.455 307.581C426.356 292.317 435.28 272.006 457.298 255.142M410.482 313.212C424.37 297.323 432.992 278.802 453.364 259.585M412.604 310.892C424.036 292.931 436.333 282.379 453.962 258.1M410.943 313.897C426.517 298.414 440.906 277.217 452.948 262.408M407.799 314.759C425.968 298.029 441.91 281.33 458.666 266.236M411.309 319.455C427.631 300.266 438.302 283.211 458.47 267.549M413.811 317.917C429.524 301.322 442.831 284.717 454.748 271.15M411.533 322.199C423.507 302.13 437.404 290.361 457.35 272.117M414.169 320.448C429.625 308.574 437.489 292.369 452.101 273.441M412.591 319.995C425.81 309.728 439.862 295.274 455.347 279.891M416.458 326.671C424.876 314.178 441.112 298.952 452.607 281.533M420.389 323.615C425.405 318.122 437.219 306.802 454.514 282.316M417.169 323.533C431.957 311.905 447.481 293.5 457.78 284.957M422.256 328.858C429.976 316.684 441.193 300.444 456.31 284.435M423.935 329.402C431.598 314.438 439.942 304.065 454.346 289.212M423.505 332.24C425.885 319.354 433.468 314.839 455.266 289.336M421.732 331.28C433.093 316.865 446.914 302.809 458.458 295.8M425.257 333.811C430.868 324.976 442.415 311.233 458.384 297.71M427.06 330.486C433.781 324.94 444.596 316.8 457.677 299.969M424.457 333.127C430.206 325.522 439.705 320.64 458.166 301.752M425.487 338.374C432.564 325.593 445.249 314.953 455.351 305.426M427.628 335.251C436.376 330.922 440.296 320.936 455.777 303.889M429.888 335.231C435.591 332.695 441.54 323.343 453.2 310.06M433.282 338.419C437.731 334.621 441.204 327.277 455.835 308.674M433.727 341.617C436.755 333.018 445.614 325.557 453.144 312.559M429.411 339.153C440.743 335.495 444.835 328.728 454.645 317.615M435.199 343.987C440.253 338.054 443.233 330.88 455.145 314.778M437.064 344.805C443.074 332.325 453.681 322.231 458.438 321.315M435.528 348.083C440.975 336.259 450.108 327.998 453.495 319.657M434.096 346.744C440.572 339.512 447.191 334.855 455.317 323.84M438.511 348.494C444.489 339.496 449.328 335.769 458.006 327.551M438.182 347.69C442.573 341.976 446.513 336.2 457.659 330.22M442.287 349.018C446.3 346.214 447.339 339.009 454.58 332.422M442.343 352.905C445.272 345.435 449.819 341.463 456.604 333.821M441.87 353.141C444.766 350.95 448.187 344.373 454.942 335.141M441.305 353.787C446.209 348.195 451.341 344.387 454.376 340.304M444.165 354.586C447.487 350.473 450.923 349.34 456.615 340.669M446.338 356.194C447.297 351.834 450.623 349.099 454.888 343.19M446.428 356.205C450.976 351.777 452.418 349.842 454.813 345.277M448.305 357.845C450.866 354.715 452.704 351.987 455.308 349.422M449.173 357.681C450.139 355.937 452.679 353.234 455.084 349.456M449.589 361.201C450.436 358.547 451.535 357.535 455.882 354.391M449.615 361.236C452.201 360.149 452.945 358.392 455.21 355.944M451.654 363.343C452.511 362.258 453.795 360.425 455.714 358.252M453.017 363.786C453.632 363.411 454.391 362.145 455.994 360.462M453.468 364.87C454.197 364.13 454.881 363.442 455.647 362.986M455.05 366.053C455.235 365.687 455.562 365.374 455.988 364.863M409.588 211.957V211.957Z" stroke="url(#paint2_linear_1608_23157)" stroke-linecap="round"/>
<path d="M197.524 93.7568L11.8271 203.619C6.46112 206.794 6.40161 214.538 11.7181 217.795L197.524 331.613M78.5959 316.101V385.769C78.5959 388.733 80.1809 391.47 82.7511 392.945L193.406 456.451C195.956 457.915 199.092 457.915 201.642 456.451L312.297 392.945C314.867 391.47 316.452 388.733 316.452 385.769V316.101M197.524 93.7609L383.221 203.623C388.587 206.798 388.646 214.542 383.33 217.799L197.524 331.617" stroke="white" stroke-width="3" stroke-linecap="round"/>
<path d="M386.766 238.596V336.963" stroke="white" stroke-width="3" stroke-linecap="round"/>
<defs>
<linearGradient id="paint0_linear_1608_23157" x1="98.4072" y1="256.065" x2="279.461" y2="387.978" gradientUnits="userSpaceOnUse">
<stop stop-color="#3CA0D2"/>
<stop offset="1" stop-color="#48DCA6"/>
</linearGradient>
<linearGradient id="paint1_linear_1608_23157" x1="47.1322" y1="37.4302" x2="270.907" y2="228.43" gradientUnits="userSpaceOnUse">
<stop stop-color="#3CA0D2"/>
<stop offset="1" stop-color="#48DCA6"/>
</linearGradient>
<linearGradient id="paint2_linear_1608_23157" x1="489.066" y1="381.031" x2="411.108" y2="370.458" gradientUnits="userSpaceOnUse">
<stop offset="0.228937" stop-color="#3CA0D2"/>
<stop offset="1" stop-color="#48DCA6"/>
</linearGradient>
</defs>
</svg>
