<svg width="49" height="56" viewBox="0 0 49 56" fill="none" xmlns="http://www.w3.org/2000/svg">
<path d="M41.5898 55.7244C37.482 52.3786 31.9665 51.375 26.9878 50.1337C24.4627 49.4903 21.8918 49.0393 19.3764 48.5278C16.8336 48.0641 14.3251 47.429 11.868 46.627C13.9523 48.2698 16.4755 49.2916 18.9556 50.1117C21.4356 50.9317 23.9827 51.5551 26.4983 52.177C31.5984 53.4083 36.6667 53.8547 41.5898 55.7244Z" fill="#454545"/>
<path d="M9.99491 36.7296C17.1592 32.0215 23.409 26.067 30.0158 20.6864C36.6705 15.1818 44.0993 9.65018 48.6074 2.14769L48.1894 2.54354C48.0261 2.74825 47.8869 2.9711 47.7747 3.20767C47.9616 3.03237 48.0887 2.78595 48.2889 2.66384L48.1782 2.55879C45.252 5.65407 42.0918 8.51944 38.7257 11.1295C35.3894 13.792 31.9788 16.3564 28.6663 19.0726C22.0638 24.5848 16.1422 30.7177 9.99491 36.7296Z" fill="#454545"/>
<path d="M1.10415 30.0854C3.51277 25.7814 4.28249 20.7702 5.07343 15.9808C5.86437 11.1914 6.52516 6.14884 5.4833 1.31611C4.92775 5.45405 4.11758 9.75362 3.32291 13.8331C2.3133 19.2537 2.04081 24.6508 1.10939 30.0856L1.10415 30.0854Z" fill="#454545"/>
</svg>
