<svg width="35" height="22" viewBox="0 0 35 22" fill="none" xmlns="http://www.w3.org/2000/svg">
<path d="M23.793 8.47852L28.793 14.4785L33.793 8.47852" stroke="#454545" stroke-width="0.709242" stroke-linecap="round"/>
<path d="M15.9105 5.30371L15.9406 15.3629C15.9442 16.5952 15.4582 17.7756 14.5895 18.6444C13.7207 19.5132 12.5403 19.9992 11.308 19.9955C10.0756 19.9918 8.8923 19.4987 8.01831 18.6248C7.14432 17.7508 6.65124 16.5674 6.64756 15.3351L6.61747 5.27591C6.61501 4.45436 6.93901 3.66743 7.5182 3.08824C8.09739 2.50906 8.88432 2.18505 9.70587 2.18751C10.5274 2.18997 11.3163 2.51868 11.899 3.10135C12.4816 3.68401 12.8103 4.47289 12.8128 5.29444L12.8374 15.3591C12.8387 15.7699 12.6767 16.1633 12.3871 16.4529C12.0975 16.7425 11.704 16.9045 11.2932 16.9033C10.8825 16.9021 10.488 16.7377 10.1967 16.4464C9.90535 16.1551 9.74099 15.7606 9.73976 15.3498L9.71746 6.06233" stroke="#454545" stroke-width="0.709242" stroke-linecap="round" stroke-linejoin="round"/>
</svg>
