<svg width="798" height="896" viewBox="0 0 798 896" fill="none" xmlns="http://www.w3.org/2000/svg">
<path opacity="0.4" d="M17.1274 47.7272C23.2417 40.5259 23.8487 38.9641 31.4986 31.9829M16.1839 57.4752C25.3644 41.3271 33.7133 24.5106 42.4564 16.4729M15.6114 60.6963C21.7766 46.9291 32.6071 30.2884 48.8318 13.9322M12.6778 68.4538C30.7784 46.4397 45.2132 29.5954 52.4321 12.8444M13.3539 74.7318C24.8512 53.139 40.5189 36.2385 64.6824 5.04768M12.1752 76.487C28.7589 57.1801 44.5043 36.7099 65.4824 5.06451M14.4495 81.6296C28.3647 55.0798 52.2307 31.6574 73.4358 0.636936M12.7591 86.5362C33.4914 55.5031 52.2763 29.1843 76.6152 2.06007M10.567 91.3783C38.1419 62.5265 57.4414 28.076 78.0557 4.66491M14.3217 94.9553C43.6801 62.8681 64.2946 25.3017 82.1702 1.36964M17.4429 101.513C34.0073 74.3284 56.1863 41.0734 84.7843 0.793656M16.7056 103.98C36.1525 76.355 51.6284 55.5646 92.3864 4.76789M16.7208 106.936C31.5029 83.2918 49.8969 61.5342 93.7766 2.55942M20.904 107.175C44.3871 73.7777 70.6263 39.8503 97.6661 3.92405M19.0626 112.968C37.187 87.8023 54.4116 64.3394 99.2266 2.52149M25.6733 117.244C39.8126 89.7331 54.91 72.614 104.578 5.38459M21.9716 116.242C49.9659 80.8711 75.7261 43.4804 107.521 3.88647M27.4088 119.933C58.5135 76.6338 88.5893 29.47 107.327 6.73964M29.2807 121.203C46.7729 93.3281 69.9458 65.8157 111.183 3.8229M32.033 122.939C44.5662 98.4327 66.4536 72.829 113.889 8.78216M33.217 124.986C53.0571 94.0577 72.4395 63.0979 115.424 8.50488M31.6138 132.494C57.5857 93.5669 84.4912 59.0357 118.902 6.79519M32.6967 130.39C55.5859 102.182 77.3582 69.4869 119.963 10.8114M36.2449 135.468C59.76 102.05 84.9809 70.7831 127.517 10.0021M40.213 134.676C62.9073 108.549 85.1423 74.8883 127.19 15.5582M38.3029 138.141C62.8292 104.658 88.3809 75.135 130.345 13.4083M44.8432 142.554C76.7298 94.1665 109.449 51.0599 132.055 18.2102M44.7873 142.624C68.4652 115.249 91.6096 83.6617 132.84 17.2038M48.0595 146.132C64.7115 119.665 86.4032 92.9527 135.128 20.0808M49.1522 147.666C77.7242 107.523 100.556 70.2366 140.187 19.565M49.3641 152.359C75.4201 116.011 101.82 78.3494 143.02 23.9728M54.475 153.61C82.2253 103.462 118.324 59.2439 144.598 28.0989M52.3917 153.3C74.4053 128.044 92.0552 99.3238 146.329 30.2924M58.2457 157.043C84.6398 119.412 115.131 78.5118 147.917 29.2354M56.1014 157.726C82.9965 119.851 110.09 85.2417 149.007 31.719M61.2624 163.196C89.8216 117.671 121.403 77.2125 151.795 36.9375M64.842 165.078C81.0483 139.621 100.869 110.913 155.169 37.8644M65.8617 167.411C93.8924 125.463 123.728 85.3004 155.183 41.5073M67.2568 166.459C94.3469 132.284 120.032 97.2175 158.112 42.1775M70.4412 167.272C96.097 132.985 124.114 93.8184 160.544 47.2785M72.7702 171.886C103.755 120.387 137.104 72.2119 160.817 50.1439M75.1227 174.356C99.7486 133.492 129.187 95.4908 163.447 49.5352M78.0321 174.41C106.415 134.375 133.206 96.6952 161.967 54.032M75.3306 179.587C98.5523 154.081 117.367 125.598 163.92 55.8819M77.9839 177.668C106.811 139.252 131.659 103.793 167.814 58.3375M82.0267 183.087C108.445 143.987 130.499 107.544 172.933 59.4998M82.5407 181.025C119.65 136.072 153.532 86.8043 172.057 59.7023M87.921 187.62C106.626 161.125 127.851 135.009 172.678 61.7282M90.5566 187.96C116.27 149.467 143.072 109.738 179.036 66.8366M89.0454 187.964C119.964 149.322 144.175 113.607 179.289 65.1839M92.5558 190.105C111.798 165.493 131.028 139.05 182.903 69.152M94.6848 193.438C120.953 157.871 147.016 122.759 183.514 71.0313M99.7356 196.544C114.294 171.766 129.84 147.796 187.777 74.086M97.1838 195.179C127.196 162.615 150.822 127.61 187.177 75.9032M99.7387 199.3C132.863 161.26 158.474 118.478 190.151 77.1676M102.691 201.995C132.587 162.301 160.113 118.238 191.296 79.5366M107.979 201.13C128.134 172.667 150.005 144.675 192.551 81.5707M109.396 205.587C135.393 171.673 159.106 137.87 196.291 79.7846M109.711 206.505C133.469 174.938 153.797 139.714 197.071 82.675M113.012 207.045C138.69 175.431 165.31 140.445 200.259 86.312M113.103 207.841C138.288 176.646 158.794 143.145 205.199 87.5699M116.898 212.014C145.679 165.642 181.332 119.156 202.951 87.9339M122.076 215.661C149.421 170.028 182.3 126.577 205.628 88.606M123.284 216.703C140.998 190.324 157.864 161.328 210.094 93.2497M126.973 216.395C151.548 181.323 173.768 146.195 212.203 92.8696M127.502 215.857C154.068 180.943 180.764 148.731 217.098 95.504M126.821 219.064C156.392 182.69 189.07 144.568 215.161 96.8868M131.593 223.55C150.797 191.338 177.502 160.645 220.552 97.8946M134.783 225.228C157.721 193.118 179.85 159.417 220.72 103.279M138.751 223.911C171.793 179.357 202.327 135.911 221.805 101.357M137.283 227.46C157.369 200.841 176.461 170.977 228.69 102.953M142.011 227.908C172.961 187.596 198.288 143.421 231.604 105.642M143.881 229.223C161.837 200.872 184.1 175.405 233.253 109.185M147.568 230.437C172.686 195.322 198.486 158.457 233.309 109.733M147.711 235.776C177.193 190.78 207.705 148.642 236.129 113.675M150.411 233.731C172.323 208.923 191.345 182.627 237.915 111.367M155.43 234.282C174.322 207.352 192.841 177.468 238.867 114.997M154.189 236.8C188.916 190.134 225.291 143.997 243.326 115.011M156.255 238.069C181.822 200.726 208.221 166.986 247.976 117.367M159.444 242.731C179.811 207.277 202.859 178.875 246.934 119.255M160.762 243.289C183.49 211.915 207.885 183.701 251.598 120.587M165.657 246.663C187.605 212.987 211.174 179.854 255.315 125.277M165.674 247.804C203.095 201.172 237.387 154.585 254.651 123.033M169.869 247.325C192.218 212.591 217.073 175.537 257.64 126.606M174.598 248.501C208.465 200.722 242.252 150.043 257.524 125.521M175.686 249.488C199.329 211.608 228.074 177.634 261.045 129.941M176.667 252.349C208.913 209.802 241.206 169.524 265.707 128.408M180.419 255.811C206.037 216.8 232.907 181.345 266.489 130.348M181.82 256.702C203.061 230.458 227.692 200.355 267.975 133.8M185.257 255.545C202.346 231.334 223.773 201.853 272.775 134.159M188.534 260.084C206.121 230.981 221.468 205.373 275.189 134.488M192.198 258.424C215.405 223.626 243.366 188.229 279.021 139.269M190.231 259.71C219.133 226.575 243.795 187.323 282.517 141.215M197.267 262.942C218.921 227.654 246.652 188.886 283.072 139.645M197.6 265.338C231.467 220.52 264.19 175.662 286.565 144.665M200.821 263.905C230.884 218.727 264.02 173.229 285.711 142.096M204.649 266.953C224.736 238.826 246.065 209.65 292.498 146.895M202.837 267.163C223.903 241.867 241.868 215.215 290.718 147.353M204.675 269.023C243.702 221.701 273.063 178.535 295.008 150.237M208.559 273.463C234.392 240.781 260.522 205.038 297.585 150.487M212.265 273.477C233.757 248.659 248.944 221.596 300.209 153.461M214.05 274.874C239.593 234.212 270.711 194.483 303.532 151.802M218.727 276.62C238.919 244.816 264.774 209.521 303.147 155.93M221.137 275.906C244.105 248.295 266.581 215.138 308.968 157.899M222.187 278.698C255.34 240.609 280.459 200.687 311.822 157.106M224.404 280.537C260.243 237.224 295.244 189.176 310.204 158.879M224.459 281.275C248.145 256.811 266.131 234.936 314.32 159.603M229.356 283.962C249.358 261.046 267.792 232.853 316.465 159.755M231.87 285.929C259.685 243.118 288.183 204.032 317.721 162.003M233.537 288.22C267.986 238.787 300.521 189.984 322.189 163.652M236.537 287.926C260.866 255.677 280.447 225.732 327.181 165.619M237.261 290.373C266.6 254.356 295.784 211.404 329.841 166.066M243.478 290.502C265.533 261.622 293.437 223.722 331.498 169.302M242.462 292.304C272.386 257.711 300.221 215.982 333.808 170.283M246.239 292.535C276.097 253.968 307.439 210.209 335.544 171.566M247.658 297.131C271.735 264.033 295.678 235.51 338.209 176.092M252.307 299.173C280.592 259.549 308.954 216.15 339.584 172.866M255.106 298.727C275.828 269.645 295.691 243.503 341.002 178.694M257.787 298.705C275.574 273.162 297.062 242.152 346.311 178.364M259.773 299.876C284.611 270.369 307.963 238.521 345.205 180.607M260.655 306.586C294.229 262.053 328.746 217.18 348.868 182.4M262.111 305.66C302.372 255.917 334.022 209.388 354.383 180.35M266.149 306.89C287.043 276.368 309.252 246.857 355.311 187.137M269.465 310.712C297.42 270.938 321.678 235.91 360.375 187.357M274.219 311.441C300.666 274.887 329.961 232.032 360.452 184.875M275.891 309.992C293.153 283.46 313.78 255.177 363.617 190.39M276.532 310.633C302.187 282.407 323.573 249.086 364.587 189.387M281.444 313.3C312.661 273.552 340.624 232.541 368.126 192.592M280.877 317.669C309.569 270.586 338.571 230.181 368.125 192.817M286.242 315.101C301.691 292.539 321.659 266.663 375.141 194.792M289.044 317.663C317.09 272.58 352.277 229.553 373.296 195.794M290.245 322.659C308.919 293.418 329.47 263.306 375.288 198.261M290.723 320.06C314.77 282.863 344.255 247.101 378.614 200.48M296.73 320.751C320.749 288.038 346.655 254.551 381.196 199.15M297.605 324.146C323.277 286.322 349.227 255.05 385.547 200.137M298.496 324.54C321.816 295.51 347.924 262.16 385.3 201.452M302.186 327.937C321.196 303.537 338.606 273.935 391.652 204.239M303.114 330.624C325.097 297.873 351.687 267.366 392.118 207.57M305.149 330.04C338.965 286.518 368.268 247.003 393.468 207.796M311.122 331.752C336.343 288.73 370.369 247.92 399.162 209.279M8.16568 756.528C13.1189 743.255 23.7972 730.796 31.4132 727.517M310.526 334.546C336.417 297.553 364.267 265.429 398.095 213.471M5.03952 765.949C12.3075 752.462 27.2665 738.474 38.1 723.066M312.497 337.774C340.101 294.232 371.625 257.969 400.503 213.467M4.27709 772.993C15.6428 758.278 25.052 741.96 45.4442 717.817M318.495 337.436C352.032 292.133 387.547 240.221 403.33 214.387M4.11657 777.233C17.6589 760.261 32.5753 735.488 46.5013 716.763M320.33 339.035C348.011 300.123 371.4 266.154 407.456 218.494M2.03504 788.26C16.2059 760.91 36.0101 742.535 54.3985 717.397M322.004 341.171C350.028 301.806 378.918 260.306 409.119 218.524M2.43993 790.115C22.9723 765.298 42.8623 739.199 59.2167 712.566M325.638 342.688C355.326 301.312 386.176 257.647 410.664 218.212M3.56024 796.793C27.3051 763.22 48.705 735.51 60.5382 715.361M325.475 344.668C358.712 292.852 394.74 247.678 416.782 221.177M1.22847 797.888C24.3636 770.848 47.058 742.362 66.5756 715.133M331.011 342.76C361.268 297.874 393.918 253.196 418.48 223.897M5.32261 805.797C17.9034 781.245 38.202 757.31 69.3241 714.725M329.37 344.349C362.846 302.355 389.843 263.898 422.142 224.819M4.60754 810.214C19.4178 786.564 38.9826 761.318 74.6483 711.177M331.954 347.631C362.513 305.071 390.286 267.895 424.629 225.233M3.47946 809.547C22.6948 787.549 40.8584 762.199 75.8147 711.188M337.595 346.579C365.447 309.179 393.902 270.757 425.798 226.928M9.06964 815.834C30.9904 777.745 60.5802 736.681 80.4326 711.124M341.875 348.379C369.677 313.044 398.636 276.009 428.448 225.846M8.07354 817.7C26.8435 788.272 47.9083 765.295 82.1287 711.995M339.421 352.434C372.481 309.703 398.968 266.829 431.855 228.782M11.7554 820.567C32.9583 786.058 58.2782 757.417 86.4655 712.868M343.059 351.641C363.199 328.214 386.901 303.524 432.569 229.38M10.9713 823.621C30.2238 792.975 53.0676 769.196 88.4873 716.009M349.085 352.656C373.76 322.379 396.238 287.283 435.171 233.911M11.8422 826.362C31.7632 793.204 54.0107 765.447 91.5837 713.53M347.926 357.863C379.3 312.436 409.901 272.696 437.509 232.699M14.6651 826.687C46.9633 784.956 77.1594 741.821 98.2045 713.382M349.569 357.098C378.3 318.571 406.596 280.336 438.127 233.702M15.7014 830.507C39.5383 798.907 67.0026 763.674 98.2705 714.732M352.131 360.065C382.646 312.065 416.895 268.251 443.167 239.066M15.9825 834.94C48.8319 785.056 82.9968 742.104 99.8138 713.949M357.999 363.437C390.383 317.611 417.871 273.795 443.833 237.026M18.0229 834.247C40.561 808.527 59.7268 783.708 103.751 716.023M358.44 362.367C389.976 317.522 425.547 274.476 445.758 239.514M19.6897 839.781C41.7764 809.326 66.2659 777.285 105.807 720.093M361.755 365.883C388.772 323.197 417.895 285.602 449.239 242.566M23.1928 841.246C56.7416 794.171 90.1486 745.924 113.272 721.065M365.992 367.167C392.288 325.162 423.357 283.556 451.279 244.292M26.8309 843.082C53.7762 804.581 79.0448 771.393 112.812 719.816M368.738 364.857C404.972 318.544 435.556 267.402 453.506 245.677M30.4006 843.512C59.6558 797.653 94.5383 755.444 116.683 721.302M371.575 367.903C400.294 327.873 429.459 283.376 459.601 243.053M31.2357 847.063C50.8768 816.324 69.8443 790.744 120.394 720.054M370.248 368.819C403.484 330.834 429.245 288.733 460.062 247.664M34.6144 846.649C58.2011 813.56 83.7685 780.353 124.228 722.868M376.271 369.876C409.488 328.577 442.577 281.308 464.433 248.366M36.6363 850.272C58.7058 818.284 79.2554 787.167 127.229 722.94M377.99 374.564C394.376 341.54 420.61 314.099 466.425 248.389M35.7798 851.578C67.5582 815.254 93.8869 775.587 127.265 724.068M380.098 376.643C410.953 329.939 445.852 281.365 465.553 252.328M41.1828 854.365C68.1604 813.474 93.0369 777.1 133.019 723.561M381.689 374.502C402.538 344.351 426.842 314.939 470.114 251.633M40.0035 853.381C61.4481 820.324 83.8587 789.939 134.392 724.309M384.099 378.832C403.228 348.274 424.524 322.428 472.504 252.464M44.5646 856.371C72.3097 818.953 94.7049 781.356 135.835 726.604M384.313 378.653C414.578 345.059 435.584 312.633 473.448 257.619M47.906 858.832C77.0002 818.216 99.426 782.4 143.293 728.121M390.616 382.445C413.529 344.471 437.627 309.785 475.896 259.386M51.4851 855.241C84.5817 813.469 116.42 766.344 142.326 728.125M391.54 381.33C411.431 349.846 436.158 316.599 480.15 259.963M52.6294 861.073C80.178 826.509 101.656 789.416 148.107 729.234M396.019 381.488C421.673 350.825 446.528 312.112 481.463 259.754M59.1963 859.192C76.4407 828.98 97.6112 798.905 151.419 730.308M396.65 383.272C428.037 340.321 460.666 290.122 487.304 264.803M59.5093 862.652C91.5457 811.887 129.842 764.869 156.275 730.082M400.039 386.223C429.605 344.57 453.525 307.919 486.33 262.042M59.9138 862.895C87.9447 821.368 113.208 789.033 158.076 727.071M403.239 385.741C418.792 359.865 441.301 332.252 488.832 265.829M63.6336 862.924C93.7675 826.881 117.449 787.24 161.799 730.278M404.628 389.966C437.908 342.854 476.616 292.034 491.088 264.881M68.7269 863.049C92.5381 828.366 119.577 789.035 163.61 733.021M406.207 392.264C430.078 351.488 458.977 315.805 493.417 267.221M70.7135 863.021C92.3913 835.723 115.884 798.659 165.294 730.811M407.008 392.273C446.051 339.897 479.257 292.64 498.047 270.98M73.5016 865.061C95.5374 838.062 115.215 811.664 168.143 734.461M413.731 394.379C448.804 345.825 481.146 298.558 501.789 270.371M76.9599 867.771C95.4185 834.463 118.313 810.273 172 733.251M412.421 397.945C447.363 352.353 479.369 305.764 504.189 274.831M78.9563 867.314C114.833 813.41 155.01 762.383 174.153 734.42M417.009 399.026C434.195 373.02 451.029 345.08 505.465 273.148M85.6054 868.764C112.689 826.916 145.169 783.393 176.617 732.062M418.904 398.95C440.553 370.456 458.467 344.907 505.269 273.991M87.5899 869.669C112.119 837.241 138.838 801.97 183.924 736.826M419.461 402.303C440.864 374.847 457.976 346.385 509.34 275.874M87.5061 869.596C114.323 838.762 137.409 805.982 184.495 733.789M422.482 400.055C442.707 373.405 459.803 346.993 513.276 276.512M89.53 868.387C114.523 835.462 137.502 802.298 189.742 736.599M426.249 404.252C453.733 362.96 486.193 326.913 513.504 278.928M96.929 871.126C115.969 837.155 137.582 809.928 192.546 735.706M428.268 405.204C460.761 355.737 499.175 307.676 515.203 282.587M96.5695 870.16C124.679 831.761 153.523 790.803 193.26 735.798M433.535 404.238C451.591 378.325 469.818 346.105 520.778 281.578M99.3482 870.502C122.468 843.374 145.671 811.33 197.742 738.236M434.644 406.644C462.878 363.932 497.456 323.281 521.791 287.297M101.896 873.543C134.891 832.088 163.334 792.545 200.008 738.659M435.27 411.056C469.976 359.843 508.26 313.313 523.69 287.913M106.218 871.652C129.377 837.977 155.589 805.415 204.541 739.913M438.409 409.421C471.908 362.45 510.916 315.513 526.295 285.471M108.225 874.87C129.295 844.852 152.674 812.378 208.889 736.152M442.934 413.422C459.439 383.609 481.441 354.338 527.148 287.605M112.503 876.512C139.237 839.243 163.591 807.952 211.848 738.659M441.498 411.954C477.35 372.445 509.769 324.926 534.437 292.581M117.435 877.301C154.356 825.618 187.682 776.502 216.291 738.949M448.699 415.964C474.851 378.121 506.269 335.668 534.306 291.938M116.783 877.91C151.085 836.559 177.906 791.57 218.772 741.797M448.094 415.32C475.226 379.033 504.106 344.744 538.916 294.311M122.11 879.056C148.522 839.169 170.892 806.948 220.502 738.483M452.596 418.432C477.192 387.188 495.974 353.169 542.325 297.245M126.089 879.045C155.797 836.416 184.885 790.477 225.923 738.109M453.336 417.731C482.939 380.226 513.128 338.96 541.868 295.922M127.52 877.932C155.915 842.862 179.653 805.401 225.396 738.713M454.673 420.955C488.485 373.76 518.727 329.386 545.164 298.075M129.554 878.687C150.905 845.898 175.508 817.434 232.16 741.653M459.926 423.433C480.694 397.165 500.266 366.3 545.61 298.453M134.889 877.808C165.328 841.597 189.119 806.088 232.583 743.164M462.12 425.394C489.828 380.605 520.976 345.27 550.234 302.425M136.572 880.209C166.799 835.544 199.485 796.074 239.912 743.687M462.243 427.69C493.958 383.702 521.633 344.103 550.495 302.19M142.507 879.371C180.617 829.119 219.417 779.027 239.263 740.538M466.798 428.723C496.051 388.562 519.127 350.877 555.167 305.919M142.224 880.749C180.193 829.671 214.819 782.768 245.763 741.794M470.458 425.807C499.297 390.581 523.818 352.655 558.054 307.007M145.98 883.634C182.519 832.258 220.652 784.041 247.534 743.325M471.142 428.84C506.111 387.434 538.006 339.714 562.059 304.435M148.921 883.426C191.65 827.98 227.428 775.532 252.198 743.553M472.634 429.743C498.025 395.536 524.437 359.775 560.682 307.343M156.002 884.385C184.254 846.259 210.591 805.113 252.563 740.968M475.579 432.632C495.918 407.55 512.732 378.065 564.065 311.052M154.806 885.228C178.281 853.537 198.472 820.094 258.699 742.223M478.693 432.8C509.798 390.775 538.629 346.688 565.884 309.189M159.111 881.99C186.05 851.76 206.365 816.976 262.162 744.097M481.041 434.782C505.013 406.352 525.791 369.445 573.032 314.303M164.694 885.291C187.144 854.473 207.675 821.234 263.955 740.965M482.803 437.072C509.226 404.128 533.194 371.01 573.184 315.253M167.629 886.071C192.256 852.247 214.988 820.813 269.937 742.478M486.534 437.666C511.405 404.184 537.973 366.724 575.045 314.888M172.648 882.39C206.838 830.762 243.934 782.978 271.043 743.472M489.87 438.803C517.388 403.026 541.209 367.721 578.731 318.213M172.748 883.643C212.742 829.459 254.051 776.074 274.529 744.056M494.175 442.939C509.982 412.949 526.445 387.277 579.949 318.491M175.773 885.211C199.767 858.467 219.549 825.232 281.078 742.006M493.392 444.409C516.723 404.797 543.34 367.766 585.607 319.91M179.241 884.302C204.724 855.173 223.635 823.626 283.743 742.87M495.328 441.946C530.915 401.389 559.504 359.162 588.141 318.84M185.426 887.63C204.384 854.224 224.821 819.306 286.875 739.96M501.832 443.595C525.94 406.62 550.976 370.471 586.58 321.266M185.613 887.048C209.14 860.136 230.805 826.42 290.297 738.859M501.076 447.273C529.182 416.965 552.573 381.784 591.785 323.987M190.186 887.587C224.174 844.948 253.553 803.244 297.138 739.468M505.597 449.415C533.746 412.746 556.73 375.759 593.114 323.013M196.143 886.482C228.594 834.59 269.879 781.756 300.654 737.721M507.17 450.678C538.079 408 570.668 364.743 595.078 327.173M199.251 885.865C219.799 855.103 243.785 823.726 303.207 740.04M508.64 450.603C528.153 421.531 548.169 397.774 599.193 326.399M199.692 887.519C242.767 831.233 282.237 772.514 305.788 740.208M515.326 452.263C534.982 420.188 560.55 383.728 600.255 330.439M205.232 888.042C228.239 853.448 256.77 810.881 307.703 739.574M514.979 451.458C535.863 425.134 552.575 401.796 602.785 329.284M205.168 887.112C238.408 838.224 275.641 791.201 314.224 741.482M516.77 453.557C549.903 412.994 584.948 369.309 606.269 330.916M211.405 887.154C246.923 837.478 288.164 785.417 317.037 739.914M523.036 456.378C550.324 411.963 581.518 370.431 611.647 333.128M212.104 891.139C244.295 851.882 269.381 809.315 322.148 739.928M523.461 455.764C546.372 422.306 569.054 391.463 613.862 334.374M216.072 889.967C238.731 854.814 264.922 818.025 325.218 740.25M524.565 457.125C563.329 411.144 597.764 361.455 615.991 336.971M219.303 888.208C250.593 849.262 278.624 803.832 327.548 737.088M528.645 458.628C550.461 424.983 573.752 390.265 616.598 335.704M223.429 890.832C246.913 853.711 273.983 817.563 330.463 737.064M532.329 460.573C562.566 420.548 595.241 377.679 617.422 336.219M227.868 889.624C246.095 859.83 271.201 827.885 335.232 739.136M531.043 462.046C561.315 422.621 589.843 379.929 623.498 339.738M228.478 893.249C265.488 840.803 302.711 785.605 342.539 737.016M534.261 462.821C571.068 418.222 606.247 367.34 625.302 340.536M234.112 890.002C268.9 840.368 307.618 785.144 343.914 735.343M536.432 465.672C556.414 438.614 575.748 416.892 630.402 342.36M234.842 893.535C263.404 861.23 286.653 828.464 347.193 737.113M541.486 464.93C574.809 421.984 604.198 377.073 628.849 345.442M242.692 893.733C268.548 854.408 292.822 818.803 353.254 737.085M541.877 467.14C561.022 443.936 581.362 416.345 634.74 345.499M243.785 894.379C274.731 848.392 305.577 809.555 357.624 735.982M547.499 471.124C582.002 420.966 619.827 372.018 635.028 344.037M245.056 892.442C287.675 832.727 329.917 773.76 359.162 736.108M548.925 469.268C584.83 422.677 618.151 376.449 637.951 344.894M251.339 893.933C286.342 847.58 318.273 801.73 366.317 734.719M553.669 470.719C579.174 438.153 606.024 398.394 639.631 345.407M255.247 889.956C298.496 831.954 340.046 776.844 367.74 733.225M556.163 472.588C577.6 444.51 595.514 414.724 645.83 349.757M256.468 891.043C286.6 845.597 321.083 801.911 374.716 732.623M557.626 476.936C582.452 433.851 615.726 396.418 648.917 350.14M261.739 893.72C299.528 833.068 339.261 776.317 377.961 730.695M561.632 476.322C584.476 441.886 613.337 403.304 649.258 352.47M263.478 892.911C296.589 848.256 330.392 805.782 380.51 730.826M561.856 479.284C585.858 442.768 608.263 412.641 652.116 352.165M267.14 894.642C307.54 836.992 343.418 784.836 386.429 727.634M566.471 477.301C593.702 441.016 622.097 399.176 653.501 354.284M272.476 890.889C307.451 836.711 347.272 783.938 390.505 728.265M565.503 478.475C590.372 444.466 613.346 414.205 657.077 355.278M275.156 891.477C309.859 848.686 340.259 799.477 392.75 729.804M570.882 480.375C591.431 452.99 611.66 420.174 661.397 357.516M278.917 891.465C303.964 853.704 328.857 821.221 396.078 729.387M573.79 483.598C602.484 445.026 628.147 406.546 665.417 358.079M283.52 892.349C319.555 840.613 354.787 794.29 401.134 728.516M574.904 485.833C598.278 451.95 616.971 424.28 663.721 359.025M288.067 893.165C310.607 859.596 338.356 823.457 405.737 725.904M578.364 485.899C608.245 441.154 637.119 398.683 666.198 359.798M288.353 894.059C324.515 844.691 362.164 793.496 410.234 724.805M583.538 484.705C606.176 449.344 630.658 412.025 669.416 362.443M294.905 893.683C328.862 846.377 362.953 799.544 414.192 724.897M583.572 487.586C614.555 443.13 649.551 404.998 671.687 364.669M298.929 890.311C333.759 843.643 372.165 794.317 420.444 723.263M584.423 488.1C621.691 442.005 654.88 393.606 678.299 363.107M301.394 894.014C333.116 848.192 364.655 800.743 423.374 721.577M588.361 492.551C617.665 451.53 644.352 411.353 680.758 365.061M305.433 891.678C338.09 847.498 369.465 800.132 430.406 718.636M590.463 491.759C616.986 454.558 642.788 420.587 680.013 367.853M306.806 894.182C343.833 842.868 381.103 794.715 433.395 720.328M524.597 593.29C529.376 584.014 536.838 577.335 545.381 564.334M596.197 491.315C631.611 444.709 664.077 395.679 683.958 365.408M311.2 892.157C361.087 828.443 408.327 763.747 438.891 715.415M519.579 605.709C523.98 592.985 532.928 578.73 552.254 557.27M594.906 496.375C631.414 444.759 666.843 400.16 685.019 368.528M315.395 891.304C358.677 833.079 405.201 768.814 443.931 715.337M510.223 621.022C521.275 603.324 531.449 588.508 560.472 551.537M599.319 495.797C635.768 446.291 668.583 397.404 692.677 370.73M317.954 892.76C344.666 854.168 371.384 821.613 447.483 714.179M512.755 623.926C527.69 604.627 540.803 584.421 562.354 547.433M601.563 498.402C630.108 460.027 655.584 424.693 694.289 371.722M322.925 888.955C359.096 839.612 398.243 786.885 452.945 713.31M508.358 632.158C523.094 610.139 536.272 594.473 570.439 546.933M605.156 495.957C634.193 460.272 664.09 420.409 693.456 372.631M324.802 888.773C362.926 840.001 397.575 788.476 456.717 710.644M510.218 633.299C529.827 609.698 544.477 586.288 575.904 545.658M606.179 499.188C627.489 473.118 645.144 450.054 696.092 375.11M331.231 887.881C363.406 840.691 394.462 795.996 462.316 707.998M508.945 638.385C537.098 599.507 566.974 564.88 584.58 541.324M610.482 499.596C644.304 448.71 680.337 399.609 697.914 378.637M334.29 891.368C381.651 825.755 425.203 763.659 468.001 703.95M509.603 645.303C533.058 613.347 556.518 580.983 588.605 539.015M616.056 503.565C641.659 465.307 665.153 427.338 701.719 378.004M339.977 887.312C373.919 834.602 411.924 780.804 472.158 705.475M508.792 651.48C540.471 603.837 572.621 565.448 592.811 539.745M617.763 504.401C643.708 460.358 668.423 425.905 705.467 379.773M343.333 888.307C382.104 832.027 420.156 780.903 475.624 701.892M512.631 653.518C540.183 616.811 566.838 578.212 595.239 539.432M620.594 502.56C639.613 476.348 660.889 449.966 705.002 379.893M344.508 886.958C388.917 827.832 434.256 766.695 481.334 697.881M512.222 658.416C536.458 623.035 563.471 589.06 598.614 537.7M619.927 504.119C653.36 463.225 681.745 426.495 707.415 382.866M352.05 888.99C388.832 829.3 430.835 773.06 487.883 696.432M512.716 661.911C532.661 632.256 552.092 604.7 601.413 536.302M625.318 507.401C656.884 459.855 688.76 417.108 714.558 385.637M353.073 886.045C395.606 831.674 435.382 772.699 490.94 694.358M513.54 662.895C542.228 624.511 568.14 588.117 609.191 536.758M625.924 506.146C647.129 479.411 663.108 450.016 716.708 382.663M357.387 886.251C399.367 829.248 445.156 770.26 496.91 695.401M517.836 669.321C544.857 625.469 572.694 583.857 612.45 532.923M627.701 508.373C650.455 479.706 671.083 451.428 717.702 386.001M362.269 887.606C390.33 845.95 425.602 802.187 503.123 691.527M517.617 672.838C536.02 640.773 560.835 611.999 614.214 532.725M629.764 512.877C659.752 472.987 688.948 431.481 717.778 386.209M366.81 885.262C415.682 815.82 470.374 746.116 506.96 688.698M516.124 672.549C545.369 631.537 573.388 592.245 619.926 534.362M634.046 512.064C661.577 469.924 691.656 432.636 720.628 388.318M368.123 887.975C414.167 823.417 459.234 760.467 513.576 687.01M518.764 678.584C560.163 620.699 596.838 565.889 624.331 530.866M636.059 516.202C661.519 483.446 684.18 449.339 724.891 393.473M372.028 884.47C406.259 844.258 435.051 799.726 518.794 682.067M520.328 679.24C556.181 629.641 589.336 577.629 627.545 529.546M637.73 514.16C659.43 484.89 682.176 449.912 727.119 394.441M377.094 885.654C467.834 758.385 559.94 629.395 632.138 532.273M639.84 516.409C666.244 478.037 694.417 441.592 726.953 394.302M382.206 884.323C435.609 813.436 488.667 737.639 634.389 531.703M645.936 520.274C665.353 486.661 688.266 457.38 733.756 394.766M386.052 884.399C483.451 748.672 580.177 614.158 638.242 530.131M644.322 523.763C678.978 473.403 711.952 425.458 732.793 397.205M390.356 882.623C527.332 689.615 665.97 497.262 736.057 400.458M394.873 882.051C462.614 787.884 531.311 689.106 737.786 403.262M398.602 881.286C493.936 748.88 589.469 613.915 740.652 404.305M401.54 880.11C488.581 759.078 576.405 634.98 742.78 405.69M407.622 880.079C517.167 724.637 631.085 570.368 745.105 407.46M411.754 877.237C513.008 735.144 614.387 596.172 745.853 411.242M414.136 877.53C548.632 692.501 680.443 506.619 747.888 412.437M418.985 875.456C486.93 784.263 552.37 691.375 750.542 415.09M423.265 875.017C550.145 701.824 677.084 524.455 752.964 417.476M427.35 874.731C548.339 708.221 666.76 542.446 753.729 418.526M432.104 873.159C527.743 739.743 621.839 606.511 756.204 422.172M435.706 873.647C561.89 697.858 687.704 521.31 757.533 422.409M440.666 872.686C506.236 778.131 575.068 680.629 759.408 425.054M445.836 869.265C540.809 732.217 638.31 597.7 762.213 427.942M449.621 869.096C567.603 706.751 682.23 546.359 764.539 430.165M453.812 866.884C537.11 752.17 620.748 635.536 767.149 431.744M457.822 866.801C586.45 693.839 709.906 520.694 768.482 435.686M463.242 864.043C534.346 766.76 606.905 664.894 769.359 438.484M468.83 863.448C564.913 725.691 663.145 588.874 771.801 440.563M472.046 861.272C585.724 701.647 699.261 541.784 773.331 442.692M477.71 860.95C596.737 696.094 714.783 530.822 775.315 445.349M480.815 860.554C556.603 756.362 630.851 652.659 775.115 448.129M485.412 858.261C595.994 704.367 704.105 552.01 778.114 452.08M490.823 856.238C583.919 726.785 676.434 599.577 779.985 453.338M494.117 856.227C559.576 762.818 628.868 667.287 781.776 458.184M500.029 853.64C614.752 699.96 726.924 541.292 782.076 461.233M503.432 853.79C566.634 761.665 630.943 672.584 783.313 463.564M510.178 850.773C587.532 739.837 665.591 629.542 785.333 466.574M514.155 848.602C597.006 729.355 680.985 613.798 785.816 467.895M520.018 846.482C592.742 745.643 665.627 644.111 788.878 473.088M524.388 845.601C626.927 702.504 729.039 557.501 789.976 476.352M529.43 842.826C594.262 754.128 660.471 664.399 789.889 477.999M535.558 841.34C595.148 751.446 658.164 665.663 790.92 481.826M540.531 838.377C616.72 727.233 696.805 616.752 791.594 487.387M545.458 834.872C614.918 733.046 687.421 633.071 793.888 491.073M548.619 833.33C602.862 764.44 654.773 692.776 794.116 493.256M555.95 832.227C622.677 738.29 690.083 646.04 794.471 497.016M560.169 829.835C639.647 717.134 718.902 607.029 794.558 502.638M564.344 828.653C654.01 702.051 742.318 576.346 795.833 505.017M569.624 826.68C638.643 731.704 704.379 638.352 797.313 511.195M573.595 826.553C661.545 701.757 748.099 578.321 796.321 514.931M578.856 821.946C634.814 744.287 690.842 667.477 795.457 520.389M584.774 819.349C645.971 729.879 708.816 642.569 797.296 525.919M592.004 817.234C627.291 769.713 661.376 719.769 695.962 672.43M695.485 670.591C732.656 617.773 769.754 566.545 794.536 529.382M596.021 814.781C623.508 769.467 656.154 730.682 692.99 679.153M697.588 667.413C728.386 627.98 757.28 586.999 796.304 534.478M604.51 812.002C638.858 762.42 672.043 709.824 696.208 682.057M707.296 666.46C728.078 638.04 752.85 604.342 795.609 539.14M607.458 808.213C633.189 774.069 656.592 744.755 693.799 688.006M710.819 665.267C739.423 626.955 768.746 584.029 796.414 547.353M617.176 804.609C645.452 764.007 670.03 729.844 694.177 689.743M717.528 659.496C742.084 627.288 772.977 586.405 789.508 554.947M620.498 797.339C650.191 756.232 679.523 716.685 694.281 693.141M722.54 657.479C739.107 631.054 758.432 604.991 788.163 563.279M628.539 794.122C643.997 773.868 662.381 744.619 694.089 699.151M727.73 656.189C739.197 637.401 754.663 618.474 789.187 573.111M635.493 791.855C651.044 765.037 671.297 743.044 693.075 708.907M736.741 648.346C747.955 629.906 765.53 606.865 784.331 583.648M643.599 787.707C654.155 768.998 662.434 753.066 690.995 716.313M747.096 634.698C758.167 628.018 766.427 616.446 776.492 600.268M645.464 783.023C658.355 767.718 668.405 757.478 689.833 723.103M655.812 772.755C665.541 760.068 673.365 755.442 687.701 732.252M22.6209 35.4898V35.4898ZM10.9583 748.644V748.644ZM530.273 577.46V577.46Z" stroke="url(#paint0_linear_909_4302)" stroke-width="0.725519" stroke-linecap="round"/>
<defs>
<linearGradient id="paint0_linear_909_4302" x1="23.0112" y1="126.175" x2="618.506" y2="338.892" gradientUnits="userSpaceOnUse">
<stop stop-color="#3CA0D2"/>
<stop offset="1" stop-color="#48DCA6"/>
</linearGradient>
</defs>
</svg>
