<svg width="352" height="699" viewBox="0 0 352 699" fill="none" xmlns="http://www.w3.org/2000/svg">
<path opacity="0.4" d="M-257.484 37.5836C-252.715 31.9668 -252.241 30.7487 -246.275 25.3036M-258.22 45.1867C-251.059 32.5917 -244.547 19.4754 -237.728 13.2063M-258.666 47.699C-253.857 36.9611 -245.41 23.9819 -232.755 11.2246M-260.954 53.7497C-246.836 36.5794 -235.578 23.4414 -229.947 10.3762M-260.427 58.6462C-251.459 41.8046 -239.239 28.6228 -220.392 4.29499M-261.346 60.0152C-248.411 44.9565 -236.131 28.9905 -219.768 4.30812M-259.572 64.0263C-248.719 43.3184 -230.104 25.0496 -213.565 0.854761M-260.891 67.8533C-244.72 43.6485 -230.069 23.1208 -211.085 1.96475M-262.601 71.63C-241.093 49.1266 -226.04 22.2563 -209.962 3.99644M-259.672 74.4199C-236.773 49.393 -220.695 20.0924 -206.752 1.42624M-257.238 79.5344C-244.318 58.3316 -227.019 32.3938 -204.714 0.976997M-257.813 81.4589C-242.645 59.9123 -230.574 43.6965 -198.784 4.07677M-257.801 83.7647C-246.271 65.3228 -231.925 48.3526 -197.7 2.35424M-254.538 83.9506C-236.222 57.902 -215.756 31.4398 -194.666 3.41859M-255.974 88.4691C-241.838 68.8408 -228.403 50.5405 -193.449 2.32465M-250.818 91.8047C-239.79 70.3467 -228.015 56.9944 -189.275 4.55777M-253.705 91.0226C-231.871 63.4347 -211.779 34.2712 -186.979 3.38928M-249.465 93.9013C-225.204 60.1297 -201.746 23.3436 -187.131 5.61466M-248.005 94.8925C-234.361 73.1507 -216.287 51.692 -184.123 3.33971M-245.858 96.2461C-236.082 77.1321 -219.011 57.1621 -182.013 7.20776M-244.934 97.8429C-229.46 73.7198 -214.342 49.5722 -180.815 6.99149M-246.185 103.699C-225.928 73.337 -204.942 46.4039 -178.103 5.65799M-245.34 102.058C-227.487 80.0568 -210.506 54.5554 -177.275 8.79053M-242.573 106.019C-224.232 79.9535 -204.56 55.5664 -171.383 8.15924M-239.478 105.401C-221.777 85.0228 -204.434 58.7683 -171.638 12.4928M-240.967 108.103C-221.838 81.9877 -201.908 58.9607 -169.178 10.816M-235.866 111.546C-210.996 73.8046 -185.476 40.183 -167.844 14.5613M-235.91 111.6C-217.442 90.2479 -199.39 65.6113 -167.231 13.7764M-233.358 114.336C-220.37 93.693 -203.451 72.8579 -165.447 16.0203M-232.505 115.532C-210.22 84.2226 -192.412 55.1401 -161.502 15.618M-232.34 119.193C-212.017 90.8428 -191.426 61.4679 -159.291 19.0559M-228.354 120.168C-206.709 81.0547 -178.553 46.5662 -158.061 22.2741M-229.979 119.926C-212.809 100.228 -199.042 77.8272 -156.711 23.985M-225.413 122.847C-204.826 93.4954 -181.044 61.5945 -155.472 23.1606M-227.085 123.379C-206.108 93.8376 -184.976 66.8436 -154.622 25.0977M-223.06 127.645C-200.785 92.1372 -176.152 60.5811 -152.447 29.168M-220.268 129.113C-207.628 109.258 -192.168 86.8664 -149.816 29.8909M-219.473 130.932C-197.61 98.2152 -174.339 66.8894 -149.805 32.7323M-218.384 130.19C-197.255 103.535 -177.222 76.1844 -147.52 33.255M-215.901 130.824C-195.89 104.082 -174.038 73.5332 -145.624 37.2336M-214.084 134.423C-189.917 94.2559 -163.906 56.6808 -145.411 39.4685M-212.249 136.349C-193.042 104.477 -170.081 74.8375 -143.359 38.9937M-209.98 136.392C-187.843 105.166 -166.946 75.777 -144.514 42.5011M-212.087 140.43C-193.975 120.536 -179.3 98.3203 -142.99 43.944M-210.018 138.933C-187.533 108.97 -168.153 81.313 -139.953 45.8593M-206.864 143.16C-186.259 112.663 -169.058 84.2387 -135.961 46.7658M-206.463 141.551C-177.519 106.49 -151.092 68.0624 -136.644 46.9237M-202.267 146.695C-187.678 126.03 -171.123 105.661 -136.16 48.5039M-200.211 146.96C-180.155 116.937 -159.251 85.9501 -131.201 52.4883M-201.39 146.964C-177.274 116.824 -158.391 88.9677 -131.003 51.1992M-198.652 148.634C-183.644 129.437 -168.645 108.813 -128.184 54.2942M-196.992 151.233C-176.503 123.492 -156.175 96.1061 -127.708 55.76M-193.052 153.655C-181.697 134.33 -169.572 115.634 -124.383 58.1425M-195.042 152.591C-171.634 127.192 -153.207 99.8891 -124.851 59.5599M-193.05 155.806C-167.214 126.135 -147.238 92.7668 -122.531 60.5461M-190.747 157.907C-167.429 126.947 -145.96 92.5795 -121.638 62.3938M-186.623 157.232C-170.902 135.032 -153.844 113.199 -120.659 63.9804M-185.517 160.708C-165.241 134.257 -146.745 107.892 -117.742 62.5872M-185.271 161.425C-166.741 136.804 -150.886 109.33 -117.134 64.8417M-182.697 161.846C-162.669 137.188 -141.906 109.9 -114.647 67.6784M-182.626 162.467C-162.983 138.136 -146.988 112.006 -110.794 68.6596M-179.666 165.722C-157.218 129.553 -129.409 93.2956 -112.547 68.9434M-175.627 168.567C-154.299 132.974 -128.655 99.0839 -110.46 69.4676M-174.685 169.379C-160.869 148.804 -147.714 126.189 -106.977 73.0896M-171.807 169.139C-152.64 141.784 -135.31 114.385 -105.331 72.7931M-171.395 168.719C-150.674 141.487 -129.852 116.363 -101.513 74.8479M-171.926 171.22C-148.862 142.85 -123.374 113.116 -103.024 75.9264M-168.205 174.719C-153.226 149.595 -132.397 125.656 -98.8195 76.7125M-165.716 176.028C-147.825 150.984 -130.566 124.698 -98.6886 80.9124M-162.621 175.001C-136.85 140.25 -113.034 106.364 -97.8418 79.4132M-163.767 177.769C-148.1 157.007 -133.209 133.715 -92.4716 80.6576M-160.078 178.119C-135.939 146.676 -116.184 112.222 -90.1994 82.7553M-158.62 179.144C-144.615 157.032 -127.251 137.168 -88.9131 85.5184M-155.744 180.091C-136.153 152.703 -116.03 123.949 -88.8692 85.9458M-155.633 184.255C-132.638 149.16 -108.839 116.294 -86.6701 89.0207M-153.527 182.66C-136.436 163.311 -121.6 142.801 -85.2769 87.2205M-149.612 183.09C-134.877 162.085 -120.433 138.777 -84.5341 90.0517M-150.58 185.054C-123.495 148.656 -95.1231 112.671 -81.0567 90.0624M-148.968 186.044C-129.027 156.918 -108.437 130.602 -77.4295 91.9002M-146.481 189.68C-130.596 162.027 -112.619 139.874 -78.2426 93.3727M-145.453 190.115C-127.726 165.644 -108.699 143.639 -74.6042 94.4114M-141.636 192.747C-124.517 166.481 -106.134 140.638 -71.7055 98.0696M-141.623 193.637C-112.435 157.265 -85.6888 120.929 -72.2231 96.3195M-138.35 193.263C-120.919 166.172 -101.533 137.271 -69.8923 99.1061M-134.662 194.18C-108.247 156.914 -81.8941 117.386 -69.9821 98.2597M-133.814 194.95C-115.373 165.405 -92.9522 138.907 -67.2358 101.707M-133.049 197.182C-107.897 163.996 -82.7102 132.581 -63.5999 100.512M-130.122 199.882C-110.141 169.455 -89.183 141.801 -62.9904 102.025M-129.029 200.576C-112.462 180.107 -93.2504 156.628 -61.8309 104.717M-126.349 199.674C-113.019 180.791 -96.307 157.796 -58.0873 104.998M-123.792 203.214C-110.075 180.516 -98.1046 160.542 -56.2047 105.254M-120.934 201.92C-102.834 174.779 -81.0253 147.17 -53.2156 108.983M-122.468 202.923C-99.9257 177.079 -80.6906 146.463 -50.4888 110.501M-116.981 205.444C-100.092 177.92 -78.4626 147.683 -50.0558 109.276M-116.721 207.313C-90.3058 172.356 -64.7836 137.369 -47.3316 113.192M-114.209 206.195C-90.7605 170.958 -64.9161 135.47 -47.9973 111.188M-111.223 208.572C-95.5557 186.634 -78.9201 163.878 -42.7036 114.931M-112.637 208.736C-96.2054 189.006 -82.1933 168.218 -44.0919 115.288M-111.203 210.187C-80.7632 173.277 -57.8626 139.609 -40.7459 117.538M-108.174 213.65C-88.0249 188.159 -67.6439 160.281 -38.736 117.732M-105.283 213.661C-88.5196 194.304 -76.6748 173.195 -36.6898 120.052M-103.89 214.751C-83.9679 183.035 -59.6969 152.048 -34.0976 118.759M-100.243 216.112C-84.4934 191.306 -64.328 163.777 -34.3978 121.978M-98.3634 215.555C-80.4488 194.019 -62.9185 168.158 -29.8576 123.514M-97.5441 217.733C-71.6856 188.025 -52.0936 156.887 -27.6322 122.895M-95.8153 219.167C-67.8617 185.385 -40.5621 147.909 -28.8935 124.278M-95.7724 219.743C-77.2979 200.662 -63.2692 183.6 -25.6834 124.843M-91.9525 221.838C-76.3517 203.965 -61.9739 181.975 -24.0106 124.961M-89.992 223.373C-68.2966 189.981 -46.0698 159.496 -23.0309 126.714M-88.6913 225.16C-61.8221 186.604 -36.4463 148.539 -19.5458 128.001M-86.3518 224.931C-67.3758 199.777 -52.1031 176.421 -15.6524 129.535M-85.7872 226.839C-62.9031 198.747 -40.1408 165.246 -13.5776 129.884M-80.9376 226.94C-63.7359 204.414 -41.9717 174.854 -12.2851 132.408M-81.7305 228.345C-58.391 201.364 -36.6806 168.817 -10.4833 133.173M-78.7846 228.525C-55.4962 198.444 -31.0502 164.314 -9.1295 134.174M-77.678 232.11C-58.8981 206.295 -40.2238 184.048 -7.05122 137.703M-74.0514 233.703C-51.9902 202.797 -29.8691 168.948 -5.97824 135.188M-71.8687 233.355C-55.7057 210.672 -40.2135 190.282 -4.87259 139.734M-69.777 233.338C-55.9037 213.415 -39.1445 189.228 -0.731768 139.476M-68.2284 234.251C-48.8557 211.236 -30.6415 186.396 -1.59398 141.226M-67.5405 239.485C-41.3537 204.75 -14.4317 169.751 1.2624 142.624M-66.4049 238.762C-35.0027 199.965 -10.3168 163.674 5.56447 141.025M-63.2552 239.722C-46.9586 215.915 -29.636 192.898 6.28783 146.318M-60.6692 242.703C-38.8646 211.681 -19.9442 184.36 10.2382 146.49M-56.9608 243.272C-36.3328 214.761 -13.4843 181.335 10.2981 144.554M-55.657 242.142C-42.1933 221.447 -26.1045 199.387 12.7663 148.856M-55.1568 242.641C-35.1469 220.626 -18.4662 194.636 13.5229 148.073M-51.3253 244.722C-26.9772 213.719 -5.16702 181.732 16.2837 150.573M-51.7678 248.129C-29.3889 211.406 -6.76891 179.891 16.2824 150.748M-47.5832 246.126C-35.5338 228.528 -19.9592 208.346 21.7552 152.289M-45.3976 248.124C-23.5232 212.961 3.92187 179.402 20.3156 153.071M-44.4608 252.021C-29.8957 229.214 -13.8673 205.728 21.8695 154.995M-44.088 249.994C-25.3323 220.982 -2.33521 193.088 24.4639 156.726M-39.403 250.533C-20.6694 225.018 -0.462973 198.899 26.4772 155.688M-38.7208 253.181C-18.6972 223.679 1.54294 199.289 29.8714 156.458M-38.0254 253.488C-19.8365 230.846 0.52628 204.834 29.6782 157.484M-35.1476 256.138C-20.3204 237.107 -6.74143 214.018 34.6327 159.658M-34.4239 258.234C-17.2774 232.689 3.46141 208.894 34.9965 162.255M-32.8367 257.778C-6.46116 223.832 16.3938 193.012 36.0491 162.432M-28.1779 259.113C-8.50617 225.558 18.0328 193.727 40.4904 163.589M-264.473 590.425C-260.61 580.071 -252.281 570.354 -246.341 567.796M-28.643 261.293C-8.44838 232.439 13.2737 207.384 39.6584 166.858M-266.912 597.772C-261.243 587.253 -249.576 576.342 -241.126 564.325M-27.1057 263.811C-5.57532 229.849 19.0124 201.565 41.5364 166.855M-267.506 603.266C-258.642 591.789 -251.303 579.062 -235.397 560.231M-22.4273 263.547C3.73092 228.212 31.4311 187.722 43.741 167.572M-267.632 606.573C-257.069 593.336 -245.435 574.014 -234.573 559.408M-20.9962 264.794C0.594374 234.444 18.8368 207.949 46.9592 170.776M-269.255 615.174C-258.202 593.842 -242.756 579.51 -228.413 559.903M-19.6904 266.459C2.1678 235.756 24.701 203.388 48.2563 170.799M-268.939 616.621C-252.925 597.264 -237.411 576.908 -224.655 556.136M-16.8556 267.643C6.29992 235.371 30.3619 201.314 49.4615 170.556M-268.066 621.83C-249.545 595.644 -232.854 574.031 -223.625 558.315M-16.9827 269.187C8.94095 228.773 37.0411 193.538 54.2335 172.869M-269.884 622.684C-251.84 601.593 -234.139 579.375 -218.916 558.138M-12.6653 267.699C10.934 232.689 36.4001 197.842 55.5579 174.99M-266.691 628.852C-256.878 609.703 -241.046 591.034 -216.772 557.819M-13.9449 268.939C12.165 236.185 33.2216 206.189 58.4136 175.709M-267.249 632.297C-255.697 613.851 -240.437 594.16 -212.619 555.052M-11.9299 271.498C11.9058 238.303 33.5672 209.307 60.3536 176.032M-268.129 631.777C-253.141 614.62 -238.974 594.847 -211.71 555.061M-7.52976 270.678C14.194 241.507 36.3881 211.539 61.2658 177.354M-263.768 636.681C-246.671 606.973 -223.592 574.944 -208.108 555.01M-4.19149 272.082C17.493 244.522 40.0805 215.635 63.3328 176.51M-264.545 638.136C-249.905 615.183 -233.476 597.262 -206.785 555.69M-6.10587 275.244C19.6799 241.916 40.3388 208.476 65.9897 178.8M-261.674 640.372C-245.136 613.457 -225.387 591.118 -203.402 556.371M-3.26779 274.626C12.4402 256.354 30.9269 237.096 66.5471 179.266M-262.285 642.754C-247.269 618.851 -229.452 600.305 -201.825 558.821M1.43203 275.418C20.6776 251.803 38.21 224.429 68.5758 182.801M-261.606 644.893C-246.068 619.03 -228.716 597.381 -199.41 556.887M0.528439 279.479C24.9987 244.047 48.8661 213.052 70.3995 181.856M-259.404 645.146C-234.213 612.597 -210.661 578.953 -194.246 556.772M1.80983 278.882C24.2184 248.833 46.289 219.01 70.8816 182.637M-258.596 648.125C-240.004 623.478 -218.583 595.997 -194.195 557.825M3.80772 281.196C27.6083 243.758 54.3219 209.585 74.8127 186.822M-258.377 651.583C-232.755 612.675 -206.108 579.174 -192.991 557.214M8.3849 283.827C33.643 248.084 55.0827 213.909 75.3326 185.23M-256.785 651.042C-239.206 630.982 -224.258 611.624 -189.92 558.832M8.72841 282.992C33.3258 248.014 61.07 214.44 76.834 187.171M-255.485 655.359C-238.258 631.605 -219.157 606.614 -188.317 562.006M11.3141 285.735C32.3865 252.441 55.1018 223.118 79.5491 189.551M-252.753 656.501C-226.586 619.784 -200.53 582.153 -182.494 562.764M14.6191 286.736C35.1291 253.973 59.3615 221.522 81.1402 190.898M-249.915 657.933C-228.899 627.904 -209.19 602.018 -182.853 561.79M16.7606 284.934C45.0218 248.811 68.8764 208.923 82.8766 191.977M-247.131 658.269C-224.313 622.501 -197.106 589.579 -179.834 562.949M18.9737 287.31C41.3736 256.088 64.1214 221.382 87.6305 189.931M-246.48 661.039C-231.16 637.063 -216.366 617.112 -176.939 561.975M17.9382 288.024C43.8612 258.397 63.9539 225.56 87.9901 193.528M-243.844 660.715C-225.448 634.907 -205.506 609.007 -173.949 564.17M22.6364 288.849C48.5443 256.637 74.3522 219.769 91.3998 194.075M-242.267 663.541C-225.054 638.592 -209.026 614.322 -171.608 564.226M23.9767 292.505C36.7577 266.748 57.219 245.345 92.9533 194.093M-242.935 664.56C-218.149 636.228 -197.614 605.29 -171.58 565.106M25.6212 294.126C49.6874 257.699 76.9066 219.813 92.2733 197.165M-238.721 666.734C-217.68 634.84 -198.277 606.47 -167.092 564.711M26.8618 292.457C43.1239 268.94 62.0797 246 95.8303 196.623M-239.641 665.966C-222.915 640.183 -205.435 616.483 -166.021 565.294M28.742 295.834C43.6617 272 60.2723 251.841 97.6947 197.271M-236.084 668.299C-214.443 639.114 -196.976 609.789 -164.895 567.084M28.9085 295.695C52.5142 269.492 68.8987 244.201 98.4308 201.292M-233.477 670.218C-210.785 638.538 -193.294 610.604 -159.079 568.268M33.8248 298.652C51.6962 269.034 70.4919 241.98 100.34 202.671M-230.686 667.417C-204.872 634.836 -180.039 598.08 -159.833 568.271M34.5453 297.782C50.0596 273.226 69.3464 247.294 103.658 203.12M-229.793 671.966C-208.306 645.007 -191.554 616.076 -155.324 569.135M38.039 297.906C58.0485 273.99 77.4342 243.795 104.682 202.958M-224.671 670.499C-211.221 646.935 -194.709 623.477 -152.741 569.974M38.5311 299.297C63.0118 265.797 88.4615 226.643 109.238 206.895M-224.427 673.197C-199.44 633.602 -169.57 596.93 -148.953 569.797M41.1744 301.599C64.2352 269.111 82.8919 240.524 108.479 204.742M-224.112 673.387C-202.249 640.997 -182.544 615.777 -147.549 567.449M43.67 301.223C55.8015 281.04 73.3577 259.503 110.43 207.695M-221.21 673.409C-197.707 645.297 -179.237 614.379 -144.644 569.95M44.754 304.518C70.7108 267.773 100.902 228.135 112.19 206.956M-217.238 673.507C-198.666 646.455 -177.576 615.779 -143.232 572.09M45.9851 306.311C64.6038 274.507 87.1444 246.675 114.006 208.781M-215.688 673.485C-198.78 652.194 -180.457 623.285 -141.919 570.365M46.6097 306.318C77.0623 265.466 102.961 228.607 117.617 211.713M-213.514 675.076C-196.327 654.018 -180.979 633.428 -139.697 573.213M51.8535 307.961C79.2098 270.089 104.435 233.223 120.536 211.238M-210.816 677.19C-196.419 651.211 -178.562 632.343 -136.689 572.269M50.8319 310.741C78.0858 275.181 103.049 238.843 122.408 214.717M-209.259 676.834C-181.276 634.79 -149.94 594.991 -135.009 573.181M54.4105 311.584C67.8148 291.301 80.945 269.509 123.403 213.404M-204.073 677.965C-182.949 645.324 -157.616 611.378 -133.087 571.341M55.8886 311.525C72.7743 289.301 86.7464 269.373 123.25 214.062M-202.525 678.67C-183.394 653.378 -162.553 625.867 -127.388 575.058M56.3229 314.141C73.0164 292.726 86.363 270.527 126.425 215.531M-202.591 678.614C-181.674 654.564 -163.668 628.996 -126.943 572.688M58.6792 312.388C74.4537 291.601 87.788 271 129.496 216.028M-201.012 677.671C-181.519 651.99 -163.596 626.123 -122.85 574.881M61.6177 315.661C83.0542 283.454 108.372 255.339 129.673 217.913M-195.241 679.807C-180.391 653.311 -163.533 632.074 -120.663 574.184M63.1922 316.403C88.5356 277.821 118.497 240.334 130.998 220.766M-195.522 679.053C-173.597 649.104 -151.1 617.157 -120.106 574.256M67.3003 315.65C81.3836 295.438 95.5995 270.308 135.347 219.979M-193.354 679.32C-175.322 658.161 -157.224 633.168 -116.611 576.157M68.1655 317.527C90.1867 284.213 117.156 252.506 136.137 224.44M-191.367 681.692C-165.632 649.359 -143.447 618.516 -114.843 576.487M68.6533 320.968C95.7229 281.023 125.583 244.732 137.618 224.92M-187.996 680.217C-169.933 653.951 -149.489 628.554 -111.308 577.465M71.1015 319.693C97.2299 283.057 127.655 246.447 139.65 223.016M-186.431 682.727C-169.997 659.314 -151.762 633.985 -107.916 574.532M74.631 322.813C87.5042 299.56 104.665 276.73 140.315 224.68M-183.094 684.008C-162.242 654.939 -143.247 630.533 -105.609 576.487M73.5113 321.668C101.475 290.852 126.76 253.79 146 228.561M-179.247 684.623C-150.45 644.312 -124.457 606.003 -102.143 576.713M79.1279 324.796C99.5252 295.28 124.03 262.167 145.898 228.06M-179.756 685.098C-153.001 652.846 -132.081 617.756 -100.207 578.935M78.6557 324.294C99.8177 295.991 122.343 269.247 149.494 229.91M-175.601 685.992C-155 654.882 -137.553 629.75 -98.8587 576.35M82.1671 326.72C101.351 302.351 116.001 275.818 152.153 232.199M-172.498 685.983C-149.326 652.734 -126.638 616.903 -94.6303 576.058M82.7445 326.174C105.834 296.921 129.38 264.735 151.796 231.167M-171.381 685.115C-149.234 657.761 -130.72 628.544 -95.0413 576.529M83.7872 328.688C110.159 291.878 133.747 257.268 154.367 232.847M-169.794 685.704C-153.142 660.13 -133.952 637.929 -89.7653 578.822M87.8846 330.621C104.083 310.133 119.348 286.059 154.715 233.142M-165.634 685.018C-141.892 656.775 -123.336 629.08 -89.4356 580.001M89.5957 332.151C111.207 297.217 135.501 269.657 158.321 236.24M-164.321 686.891C-140.745 652.054 -115.251 621.269 -83.7195 580.408M89.6912 333.942C114.428 299.632 136.013 268.746 158.525 236.056M-159.692 686.238C-129.967 647.043 -99.7046 607.972 -84.225 577.952M93.2441 334.747C116.06 303.423 134.059 274.03 162.169 238.964M-159.912 687.313C-130.298 647.473 -103.291 610.89 -79.1554 578.932M96.099 332.473C118.592 304.998 137.717 275.417 164.42 239.813M-156.983 689.563C-128.484 649.491 -98.7416 611.883 -77.7743 580.126M96.6327 334.839C123.907 302.544 148.784 265.323 167.545 237.807M-154.689 689.4C-121.362 646.154 -93.4565 605.247 -74.1368 580.304M97.7962 335.543C117.6 308.862 138.2 280.97 166.471 240.075M-149.167 690.148C-127.131 660.411 -106.589 628.319 -73.8522 578.288M100.093 337.796C115.956 318.233 129.071 295.235 169.109 242.968M-150.099 690.806C-131.789 666.088 -116.041 640.003 -69.0661 579.267M102.522 337.928C126.782 305.149 149.27 270.763 170.528 241.515M-146.741 688.28C-125.73 664.702 -109.885 637.571 -66.3647 580.729M104.354 339.473C123.051 317.299 139.257 288.513 176.103 245.504M-142.387 690.855C-124.877 666.818 -108.863 640.892 -64.9664 578.286M105.728 341.259C126.337 315.564 145.031 289.733 176.222 246.245M-140.098 691.463C-120.889 665.082 -103.159 640.564 -60.3008 579.466M108.637 341.723C128.036 315.608 148.758 286.391 177.674 245.96M-136.183 688.592C-109.516 648.324 -80.582 611.055 -59.4381 580.241M111.24 342.61C132.703 314.705 151.282 287.168 180.548 248.553M-136.105 689.57C-104.911 647.308 -72.6909 605.67 -56.7188 580.697M114.597 345.835C126.926 322.444 139.767 302.421 181.498 248.77M-133.746 690.793C-115.031 669.933 -99.6013 644.011 -51.611 579.097M113.987 346.982C132.184 316.086 152.944 287.203 185.911 249.877M-131.041 690.084C-111.165 667.364 -96.4144 642.758 -49.5322 579.771M115.496 345.061C143.253 313.428 165.552 280.492 187.888 249.042M-126.217 692.679C-111.43 666.624 -95.49 639.389 -47.0893 577.502M120.57 346.347C139.373 317.508 158.9 289.313 186.67 250.935M-126.07 692.225C-107.721 671.235 -90.8222 644.937 -44.4204 576.643M119.98 349.216C141.901 325.577 160.146 298.136 190.729 253.057M-122.504 692.646C-95.9943 659.389 -73.0799 626.861 -39.0847 577.118M123.506 350.886C145.461 322.286 163.388 293.438 191.767 252.297M-117.857 691.784C-92.5468 651.31 -60.3456 610.101 -36.3427 575.756M124.733 351.871C148.841 318.584 174.259 284.845 193.298 255.542M-115.434 691.303C-99.4066 667.309 -80.6982 642.837 -34.3515 577.564M125.88 351.813C141.099 329.138 156.711 310.608 196.508 254.938M-115.089 692.593C-81.4921 648.691 -50.707 602.893 -32.3378 577.695M131.095 353.108C146.425 328.091 166.367 299.653 197.336 258.089M-110.768 693C-92.8236 666.018 -70.5705 632.818 -30.8442 577.201M130.824 352.48C147.113 331.948 160.147 313.745 199.31 257.188M-110.818 692.275C-84.8922 654.144 -55.8516 617.468 -25.758 578.689M132.221 354.117C158.063 322.479 185.397 288.406 202.027 258.462M-105.954 692.308C-78.2508 653.562 -46.0845 612.957 -23.5645 577.466M137.108 356.317C158.391 321.675 182.722 289.281 206.221 260.187M-105.408 695.416C-80.301 664.797 -60.7341 631.596 -19.5779 577.476M137.44 355.839C155.309 329.742 173.001 305.686 207.949 261.158M-102.313 694.502C-84.6402 667.084 -64.2124 638.389 -17.1834 577.728M138.301 356.9C168.535 321.037 195.393 282.28 209.61 263.184M-99.7932 693.13C-75.3884 662.754 -53.5255 627.32 -15.3661 575.262M141.483 358.072C158.499 331.83 176.664 304.751 210.083 262.196M-96.5751 695.177C-78.2589 666.223 -57.1447 638.029 -13.0929 575.243M144.356 359.589C167.94 328.371 193.426 294.934 210.726 262.598M-93.1132 694.234C-78.8968 670.996 -59.3145 646.08 -9.37284 576.859M143.353 360.738C166.965 329.988 189.215 296.689 215.465 265.342M-92.6376 697.062C-63.7711 656.156 -34.738 613.103 -3.67393 575.206M145.863 361.342C174.571 326.557 202.01 286.871 216.872 265.964M-88.2432 694.53C-61.1096 655.816 -30.9108 612.744 -2.6015 573.901M147.556 363.567C163.141 342.462 178.222 325.519 220.85 267.387M-87.6739 697.285C-65.3963 672.088 -47.2625 646.532 -0.0438215 575.281M151.498 362.988C177.489 329.491 200.411 294.462 219.639 269.791M-81.551 697.439C-61.3839 666.767 -42.4513 638.997 4.6834 575.259M151.803 364.711C166.735 346.613 182.601 325.093 224.233 269.836M-80.6981 697.943C-56.5615 662.075 -32.5025 631.784 8.09182 574.399M156.188 367.819C183.099 328.697 212.602 290.519 224.458 268.695M-79.7068 696.433C-46.4654 649.857 -13.5182 603.865 9.29212 574.498M157.301 366.371C185.305 330.032 211.294 293.976 226.738 269.363M-74.8067 697.596C-47.5053 661.442 -22.6002 625.68 14.8728 573.414M161 367.503C180.893 342.102 201.835 311.092 228.048 269.764M-71.7586 694.493C-38.0256 649.254 -5.61797 606.27 15.9827 572.249M162.946 368.96C179.666 347.061 193.638 323.828 232.883 273.157M-70.8061 695.341C-47.3039 659.895 -20.4082 625.822 21.4235 571.779M164.087 372.352C183.451 338.747 209.403 309.55 235.291 273.455M-66.6951 697.43C-37.2208 650.123 -6.23062 605.859 23.9541 570.275M167.211 371.873C185.029 345.014 207.54 314.921 235.557 275.273M-65.3383 696.798C-39.5131 661.969 -13.1482 628.841 25.9422 570.378M167.386 374.184C186.107 345.702 203.582 322.204 237.786 275.035M-62.4826 698.148C-30.9719 653.183 -2.98813 612.503 30.5588 567.888M170.986 372.637C192.225 344.336 214.372 311.702 238.866 276.687M-58.3206 695.222C-31.0409 652.965 0.017813 611.803 33.7386 568.38M170.23 373.552C189.628 347.027 207.547 323.424 241.655 277.463M-56.2301 695.68C-29.1628 662.304 -5.45204 623.923 35.4889 569.58M174.427 375.034C190.454 353.675 206.232 328.079 245.025 279.208M-53.2968 695.671C-33.7611 666.218 -14.3448 640.883 38.0853 569.255M176.694 377.548C199.075 347.463 219.091 317.45 248.16 279.648M-49.7065 696.36C-21.6002 656.008 5.87949 619.878 42.0281 568.576M177.563 379.291C195.794 352.864 210.374 331.282 246.837 280.385M-46.1602 696.996C-28.5797 670.814 -6.93648 642.626 45.6188 566.538M180.262 379.343C203.568 344.443 226.089 311.317 248.769 280.988M-45.9368 697.694C-17.732 659.188 11.633 619.258 49.1261 565.681M184.297 378.411C201.955 350.831 221.049 321.724 251.279 283.051M-40.8262 697.4C-14.341 660.503 12.2484 623.975 52.2137 565.753M184.324 380.659C208.489 345.984 235.786 316.243 253.051 284.788M-37.6881 694.771C-10.5221 658.371 19.4333 619.898 57.0894 564.479M184.987 381.059C214.056 345.107 239.942 307.357 258.208 283.569M-35.765 697.659C-11.023 661.919 13.5761 624.91 59.3746 563.164M188.059 384.531C210.915 352.536 231.73 321.2 260.126 285.093M-32.6149 695.837C-7.14397 661.377 17.3276 624.434 64.8595 560.869M189.698 383.913C210.386 354.898 230.51 328.402 259.544 287.271M-31.5438 697.789C-2.66451 657.766 26.4051 620.209 67.1907 562.189M138.326 463.104C142.053 455.869 147.873 450.66 154.536 440.519M194.171 383.567C221.792 347.216 247.115 308.974 262.622 285.364M-28.1172 696.21C10.7933 646.515 47.6388 596.055 71.478 558.357M134.411 472.791C137.844 462.866 144.823 451.748 159.897 435.01M193.164 387.514C221.639 347.255 249.273 312.469 263.449 287.797M-24.8454 695.545C8.91371 650.131 45.2002 600.007 75.4086 558.297M127.115 484.734C135.735 470.93 143.67 459.375 166.307 430.538M196.606 387.062C225.035 348.45 250.629 310.32 269.422 289.515M-22.8491 696.681C-2.01461 666.58 18.8242 641.189 78.1788 557.393M129.089 486.999C140.738 471.947 150.966 456.186 167.774 427.337M198.357 389.094C220.621 359.163 240.491 331.604 270.679 290.288M-18.972 693.713C9.2404 655.227 39.7736 614.102 82.439 556.716M125.66 493.42C137.153 476.245 147.432 464.027 174.081 426.947M201.159 387.188C223.807 359.355 247.125 328.263 270.03 290.997M-17.508 693.571C12.2275 655.53 39.2526 615.342 85.3817 554.636M127.11 494.31C142.404 475.902 153.831 457.643 178.344 425.953M201.957 389.708C218.578 369.374 232.348 351.385 272.085 292.931M-12.4932 692.875C12.6021 656.069 36.8249 621.208 89.7488 552.572M126.117 498.277C148.075 467.953 171.378 440.945 185.11 422.573M205.313 390.026C231.693 350.337 259.797 312.039 273.507 295.682M-10.1075 695.595C26.8321 644.419 60.8011 595.986 94.1822 549.415M126.631 503.672C144.925 478.748 163.223 453.505 188.249 420.771M209.661 393.122C229.63 363.281 247.955 333.667 276.475 295.188M-5.67217 692.431C20.8019 651.319 50.4445 609.358 97.4249 550.604M125.998 508.49C150.707 471.33 175.783 441.388 191.53 421.341M210.992 393.774C231.228 359.422 250.505 332.55 279.398 296.568M-3.05407 693.207C27.1854 649.311 56.8654 609.436 100.128 547.81M128.993 510.08C150.482 481.449 171.272 451.344 193.423 421.096M213.2 392.338C228.034 371.893 244.628 351.316 279.035 296.662M-2.13791 692.155C32.5 646.039 67.8626 598.354 104.582 544.682M128.673 513.9C147.577 486.304 168.646 459.805 196.056 419.746M212.68 393.554C238.756 361.658 260.896 333.009 280.918 298.981M3.74452 693.74C32.4332 647.184 65.1944 603.319 109.69 543.551M129.058 516.626C144.615 493.496 159.771 472.004 198.239 418.655M216.884 396.113C241.505 359.029 266.367 325.688 286.489 301.141M4.54229 691.443C37.7167 649.035 68.7404 603.037 112.074 541.933M129.701 517.394C152.077 487.455 172.287 459.069 204.306 419.011M217.357 395.135C233.896 374.282 246.359 351.355 288.166 298.822M7.90746 691.604C40.6499 647.143 76.3638 601.135 116.731 542.747M133.052 522.406C154.128 488.203 175.839 455.746 206.848 416.02M218.743 396.871C236.491 374.512 252.58 352.457 288.941 301.425M11.715 692.66C33.6016 660.171 61.113 626.037 121.577 539.725M132.881 525.149C147.235 500.139 166.59 477.696 208.224 415.866M220.352 400.385C243.742 369.272 266.514 336.898 289 301.588M15.257 690.832C53.3751 636.67 96.0337 582.304 124.57 537.519M131.717 524.923C154.527 492.935 176.381 462.289 212.679 417.142M223.692 399.751C245.165 366.883 268.626 337.799 291.223 303.233M16.2808 692.949C52.1934 642.595 87.3448 593.497 129.729 536.202M133.776 529.63C166.065 484.482 194.671 441.732 216.115 414.415M225.262 402.978C245.12 377.43 262.795 350.827 294.548 307.254M19.3264 690.215C46.0255 658.85 68.483 624.117 133.799 532.347M134.996 530.142C162.96 491.456 188.819 450.889 218.621 413.386M226.565 401.385C243.491 378.555 261.232 351.274 296.285 308.009M23.2781 691.138C94.052 591.872 165.892 491.265 222.204 415.513M228.211 403.139C248.806 373.211 270.779 344.785 296.156 307.9M27.2652 690.1C68.918 634.81 110.301 575.691 223.96 415.068M232.966 406.154C248.11 379.937 265.982 357.099 301.462 308.262M30.2648 690.159C106.233 584.297 181.676 479.38 226.964 413.842M231.707 408.876C258.738 369.597 284.456 332.201 300.711 310.164M33.6217 688.774C140.458 538.235 248.591 388.206 303.257 312.702M37.1449 688.328C89.9805 614.881 143.562 537.837 304.606 314.889M40.0537 687.731C114.411 584.459 188.923 479.191 306.841 315.702M42.3452 686.814C110.234 592.413 178.734 495.621 308.501 316.782M47.0887 686.79C132.53 565.551 221.383 445.225 310.314 318.163M50.3116 684.573C129.286 573.746 208.358 465.352 310.897 321.113M52.1696 684.802C157.072 540.485 259.88 395.504 312.485 322.045M55.9517 683.184C108.947 612.056 159.988 539.607 314.555 324.114M59.2902 682.842C158.252 547.757 257.26 409.415 316.444 325.975M62.476 682.618C156.844 552.746 249.207 423.448 317.04 326.794M66.1841 681.392C140.779 577.332 214.171 473.416 318.971 329.638M68.9936 681.773C167.412 544.663 265.543 406.962 320.008 329.823M72.8624 681.024C124.005 607.273 177.691 531.226 321.47 331.886M76.8944 678.355C150.971 571.463 227.018 466.544 323.658 334.138M79.8465 678.224C171.868 551.599 261.274 426.499 325.472 335.872M83.1153 676.498C148.085 587.025 213.32 496.054 327.508 337.103M86.2433 676.433C186.569 541.529 282.86 406.482 328.547 340.178M90.4707 674.282C145.929 598.405 202.523 518.953 329.231 342.36M94.829 673.818C169.771 566.372 246.388 459.659 331.136 343.982M97.3374 672.121C186.002 547.619 274.557 422.931 332.329 345.642M101.755 671.87C194.592 543.288 286.664 414.381 333.877 347.715M104.177 671.561C163.289 590.295 221.2 509.41 333.721 349.884M107.762 669.772C194.013 549.741 278.336 430.907 336.06 352.965M111.983 668.194C184.595 567.226 256.753 468.008 337.52 353.946M114.552 668.186C165.608 595.33 219.653 520.819 338.916 357.726M119.163 666.168C208.643 546.303 296.133 422.547 339.15 360.104M121.817 666.285C171.113 594.431 221.272 524.95 340.115 361.922M127.079 663.932C187.413 577.406 248.296 491.379 341.691 364.27M130.181 662.239C194.802 569.23 260.303 479.1 342.068 365.3M134.754 660.585C191.476 581.935 248.324 502.743 344.456 369.351M138.163 659.898C218.14 548.287 297.784 435.19 345.312 371.897M142.095 657.734C192.662 588.552 244.303 518.567 345.244 373.181M146.875 656.575C193.353 586.461 242.503 519.552 346.049 376.166M150.754 654.263C210.179 567.575 272.642 481.404 346.574 380.503M154.596 651.53C208.773 572.109 265.323 494.132 348.363 383.379M157.061 650.327C199.369 596.595 239.858 540.7 348.541 385.081M162.78 649.467C214.825 576.199 267.399 504.247 348.818 388.013M166.07 647.601C228.061 559.698 289.877 473.82 348.886 392.399M169.327 646.679C239.263 547.934 308.141 449.888 349.88 394.254M173.445 645.14C227.277 571.063 278.549 498.251 351.035 399.073M176.542 645.041C245.141 547.704 312.65 451.429 350.261 401.986M180.646 641.448C224.291 580.877 267.991 520.967 349.587 406.244M185.261 639.422C232.993 569.639 282.01 501.54 351.022 410.557M190.9 637.772C218.423 600.708 245.009 561.754 271.984 524.831M271.612 523.396C300.604 482.2 329.539 442.244 348.869 413.258M194.034 635.859C215.473 600.516 240.936 570.265 269.666 530.074M273.253 520.917C297.274 490.161 319.81 458.198 350.247 417.233M200.655 633.692C227.446 595.02 253.328 553.997 272.176 532.339M280.824 520.174C297.033 498.008 316.355 471.724 349.706 420.869M202.954 630.737C223.023 604.106 241.277 581.242 270.298 536.979M283.572 519.243C305.882 489.362 328.753 455.881 350.334 427.275M210.534 627.926C232.588 596.258 251.758 569.611 270.592 538.334M288.805 514.743C307.958 489.621 332.053 457.734 344.947 433.198M213.125 622.255C236.285 590.194 259.163 559.348 270.674 540.985M292.714 513.169C305.636 492.559 320.709 472.231 343.898 439.696M219.396 619.747C231.454 603.949 245.792 581.136 270.523 545.672M296.762 512.163C305.706 497.509 317.769 482.746 344.697 447.365M224.821 617.978C236.949 597.061 252.747 579.907 269.733 553.282M303.791 506.046C312.537 491.664 326.245 473.692 340.909 455.583M231.143 614.742C239.376 600.15 245.833 587.724 268.11 559.058M311.867 495.401C320.502 490.191 326.945 481.165 334.795 468.547M232.598 611.089C242.653 599.152 250.491 591.165 267.204 564.354M240.669 603.081C248.257 593.185 254.36 589.577 265.541 571.49M-253.199 28.0388V28.0388ZM-262.295 584.275V584.275ZM142.752 450.757V450.757Z" stroke="url(#paint0_linear_1009_3862)" stroke-width="0.56588" stroke-linecap="round"/>
<defs>
<linearGradient id="paint0_linear_1009_3862" x1="-252.894" y1="98.7704" x2="211.572" y2="264.683" gradientUnits="userSpaceOnUse">
<stop stop-color="#3CA0D2"/>
<stop offset="1" stop-color="#48DCA6"/>
</linearGradient>
</defs>
</svg>
