<svg width="637" height="396" viewBox="0 0 637 396" fill="none" xmlns="http://www.w3.org/2000/svg">
<path d="M321.464 58.0602C334.231 40.7557 347.359 29.2921 359.056 16.6646M322.196 61.7742C336.03 45.0749 351.631 28.1282 363.541 15.474M320.589 63.8424C333.011 51.1342 341.761 41.8727 364.901 13.9917M322.331 69.8678C329.482 57.3544 340.564 45.3312 371.524 12.1284M321.257 73.4888C336.244 51.6833 357.324 30.6434 373.2 11.3015M317.312 76.8094C341.635 52.7848 364.616 26.4083 380.622 8.07322M318.771 83.548C341.994 55.1988 365.717 27.3964 383.827 6.0479M315.327 86.9225C345.379 54.0894 374.131 20.848 387.758 4.70268M314.881 89.3012C337.227 68.7528 359.587 44.032 388.764 3.19715M315.453 92.5442C339.856 67.4667 361.782 41.4684 396.669 1.08931M313.531 98.2403C339.903 68.7996 361.315 42.9052 396.396 2.16245M312.146 101.865C343.44 67.6178 370.85 33.4752 400.472 3.56315M311 106.15C334.853 82.769 355.989 54.4491 404.12 4.20958M314.617 107.827C339.713 80.98 366.797 50.9783 407.36 2.01025M315.689 111.424C333.721 86.3627 355.288 64.396 407.238 1.55707M314.743 115.739C348.518 74.4885 384.982 32.9882 407.996 2.62109M315.27 117.675C349.071 76.9947 381.956 35.7823 410.33 4.34064M317.426 119.978C353.18 73.8957 390.251 31.088 414.424 3.52876M317.392 122.848C343.848 86.5883 373.982 53.8141 415.593 6.93298M317.64 124.246C340.817 97.2847 367.125 69.0325 420.115 6.81556M315.834 124.54C340.213 99.8568 360.577 76.9055 419.199 5.17886M317.005 127.286C349.653 92.4927 383.241 53.5054 423.83 8.54142M319.965 130.14C351.955 94.766 381.86 55.4223 426.532 8.90081M319.049 130.667C361.018 83.2976 401.076 35.752 426.694 6.91475M318.14 134.035C346.523 104.04 368.187 77.1399 431.641 6.70013M320.365 138.53C365.236 86.1853 410.014 36.0356 433.464 10.0994M322.414 138.647C345.002 109.513 373.836 79.5536 433.815 7.38701M323.125 142.025C365.574 90.753 412.604 36.8616 436.745 8.6304M323.27 145.344C363.153 97.3856 400.909 54.1148 437.682 10.4252M321.509 147.559C353.334 110.62 380.099 78.8947 440.087 9.84158M322.963 147.629C357.342 108.788 391.503 73.4749 441.212 11.3472M324.165 149.018C364.299 105.481 403.917 56.6073 445.475 10.7294M323.567 153.927C368.933 105.062 409.619 54.0723 448.494 10.9448M324.714 157.082C370.3 102.493 419.015 49.6086 450.414 13.63M325.066 158.472C369.029 108.972 412.117 60.6958 451.78 12.666M327.973 159.192C352.784 127.968 380.965 94.5063 455.345 14.1779M328.151 161.296C357.957 124.143 390.961 90.4148 454.445 14.3091M327.204 166.606C367.575 117.085 408.68 71.8975 456.295 15.061M329.061 166.787C379.242 107.683 428.98 52.7419 456.521 18.905M331.02 168.846C379.568 112.242 425.44 60.5716 459.611 19.8662M331.885 169.162C378.01 116.751 424.412 62.1792 461.286 19.2376M332.177 169.283C363.044 131.168 396.62 94.2646 462.853 21.4572M334.98 173.264C375.899 128 412.823 84.7873 464.116 25.1764M337.24 173.016C367.297 133.921 404.037 94.1821 465.278 26.8182M339.32 174.907C375.504 133.391 410.072 90.2795 466.674 26.8175M340.156 177.891C369.762 142.293 400.616 103.867 466.211 27.0861M339.501 176.249C370.48 140.648 404.775 104.085 467.689 29.4514M340.873 179.403C386.414 132.284 427.083 80.9867 472.241 29.723M341.531 182.414C393.148 123.249 445.322 66.6795 470.918 34.0846M342.485 181.345C392.301 131.089 437.866 78.1697 473.214 32.0346M344.334 185.148C395.985 126.202 443.188 70.841 475.13 34.8817M348.418 187.612C373.66 156.67 402.872 126.578 477.145 36.7289M347.22 189.33C391.822 135.087 435.052 86.7232 478.097 37.3017M350.807 188.191C397.017 134.774 443.729 79.3554 481.207 36.87M349.207 190.183C392.659 144.208 431.101 102.387 481.428 41.2493M352.99 190.65C398.656 136.213 448.292 80.321 481.226 40.6621M352.672 195.019C400.35 137.607 451.812 80.4165 485.871 42.4072M355.86 196.464C401.086 143.86 448.098 90.004 483.633 44.2532M354.869 195.959C382.189 164.78 411.661 131.289 486.933 47.2596M357.108 198.273C388.005 162.908 420.916 124.431 488.59 48.6739M360.122 198.895C385.578 170.156 413.066 139.54 489.548 47.8803M358.78 201.135C391.31 165.661 423.35 131.449 491.382 49.5485M361.286 203.811C400.947 157.123 438.476 113.561 493.075 51.8861M362.121 205.425C392.085 172.096 421.467 138.77 493.277 50.8638M363.245 207.25C401.153 163.13 437.929 120.389 518.78 28.1307M365.663 206.808C423.911 141.239 480.831 77.1198 527.339 18.5106M367.625 207.618C409.477 159.222 452.346 112.681 532.018 17.4215M367.141 211.014C428.75 143.84 485.524 75.3627 535.903 16.4458M370.332 212.718C419.162 154.888 472.058 97.3177 541.304 16.3282M370.46 211.358C412.894 163.323 454.731 117.395 545.659 14.9974M371.722 215.228C430.151 149.757 485.34 86.2653 547.372 10.9545M374.31 215.259C442.404 134.933 512.588 52.622 553.739 9.28317M375.169 218.26C422.611 161.957 468.204 108.185 557.755 8.49963M377.635 219.578C425.017 162.919 472.681 104.943 558.837 8.3896M378.508 221.355C436.756 149.784 499.194 81.2298 563.839 6.6416M379.204 223.251C419.977 175.592 459.799 132.215 570.103 3.17836M381.67 223.947C448.3 142.341 519.431 62.1122 573.893 1M382.084 225.207C431.656 166.594 483.753 106.642 575.081 2.26688M382.102 228.3C453.707 142.549 523.905 62.1209 576.887 2.9125M383.811 227.668C425.152 180.563 467.426 130.626 579.87 3.28115M385.031 229.478C430.649 180.202 472.453 129.253 583.163 4.2965M386.977 230.972C457.014 148.351 526.335 70.5108 585.295 2.88684M387.039 233.931C457.94 150.916 528.917 68.1969 587.395 4.95305M391.043 235.524C468.236 144.073 548.911 54.1477 590.43 2.36017M390.284 235.904C451.46 166.094 513.602 93.1358 592.431 4.73216M392.247 238.29C460.761 155.766 534.004 75.0217 594.898 5.86949M392.875 237.539C456.889 163.92 520.314 90.63 598.194 4.8032M395.919 240.136C449.654 175.692 504.6 113.351 600.773 4.27549M395.996 241.351C453.117 179.158 504.694 118.656 600.687 6.5925M396.946 243.299C468.637 160.691 539.949 80.1325 604.269 6.15229M398.526 245.506C475.916 155.789 552.725 64.3512 606.354 5.43351M400.013 246.462C481.084 153.453 560.472 63.7376 608.254 7.19215M402.541 247.109C450.314 190.693 502.272 135.528 609.661 8.88626M402.198 248.747C474.344 168.085 544.655 87.8116 611.574 8.13531M403.191 252.074C478.456 164.014 555.999 78.4068 615.28 8.54254M405.131 251.69C483.089 164.671 558.09 79.3439 614.71 9.99706M408.224 254.035C464.746 187.045 523.634 119.146 617.782 12.0874M407.788 254.739C452.795 207.78 496.763 158.773 617.619 12.0915M408.484 257.023C461.407 198.217 514.194 138.078 620.904 14.6352M412.542 257.534C476.242 180.617 545.336 105.907 623.654 14.2724M413.861 259.597C462.201 206.343 508.663 150.399 624.518 17.6885M413.46 260.609C489.475 173.508 566.193 84.2248 626.876 16.7706M414.805 262.408C466.148 202.934 519.6 142.125 627.743 17.6439M415.71 264.37C475.889 198.386 531.917 131.387 628.153 19.9434M418.502 266.269C490.173 186.443 560.454 105.866 629.843 21.059M420.306 268.773C483.009 196.983 545.898 125.022 631.597 23.7066M419.379 268.722C483.053 195.484 547.432 122.219 635.665 22.4132M422.183 270.853C496.078 184.175 570.483 96.0621 635.114 24.8504M423.288 272.805C480.147 206.477 539.619 137.7 637.642 25.699M424.397 274.292C486.274 203.957 546.844 131.301 638.39 24.8754M425.553 274.551C493.365 193.346 563.879 114.408 640.573 27.0437M426.821 277.272C511.557 178.885 593.844 84.5107 643.752 27.6194M429.642 276.35C505.323 189.581 583.57 98.4292 643.066 29.2258M428.637 280.884C513.385 182.784 596.606 86.0154 646.638 31.3182M432.394 281.439C507.243 194.586 580.937 109.238 648.417 33.2291M431.761 283.575C482.656 222.288 534.942 163.331 649.173 32.8034M433.317 282.8C483.956 225.867 534.814 165.348 650.534 34.1649M435.493 286.8C504.019 207.433 572.91 127.046 651.225 36.9563M435.762 286.799C503.014 209.528 573.747 130.443 651.093 39.0979M438.305 288.405C497.695 219.011 556.549 150.379 652.804 41.3629M440.555 288.383C496.671 224.67 554.893 157.787 653.984 41.0469M440.213 291.468C486.191 238.939 532.423 184.813 656.281 43.3721M441.037 293.835C521.909 201.084 600.424 110.415 657.668 45.5061M443.977 293.918C494.081 235.266 546.13 177.114 659.499 46.2787M445.746 295.18C516.882 214.746 585.051 133.732 659.516 49.9499M446.844 297.218C489.694 249.138 535.288 197.879 661.499 49.1976M447.484 298.406C531.572 204.601 615.878 108.438 661.049 50.8831M449.029 301.099C508.058 232.216 568.225 163.934 663.493 53.83M450.75 301.76C510.458 234.121 570.369 163.737 665.482 55.7464M451.096 302.375C492.964 252.992 537.572 203.532 665.075 57.3144M452.063 303.726C534.84 213.481 615.645 119.575 666.204 58.9898M454.628 307.196C518.761 232.32 584.602 158.466 667.513 62.9871M456.351 308.13C508.092 245.957 562.188 183.466 668.118 64.4729M456.483 308.916C511.073 246.291 565.534 183.368 667.497 66.4652M457.395 311.448C501.436 260.808 547.131 206.793 668.156 67.6279M459.527 312.588C532.321 225.79 608.489 138.248 669.574 72.0504M461.69 314.621C533.512 228.466 605.825 146.649 671.072 73.3966M462.723 315.199C530.008 237.432 596.336 160.457 670.024 75.4067M462.227 317.142C544.959 224.126 623.604 129.638 672.073 77.9445M466.309 319.405C528.175 244.416 591.723 171.498 672.622 81.0824M465.242 320.3C526.797 250.467 586.759 182.711 672.693 83.4868M468.767 322.453C507.073 272.8 550.745 224.74 671.532 85.9598M468.149 323.738C530.68 251.421 593.15 181.648 674.069 86.6532M470.538 323.725C523.251 266.772 575.149 206.152 675.233 89.533M471.382 325.569C532.791 252.427 595.343 181.814 675.975 93.2232M473.97 326.705C521.926 273.196 568.768 217.663 676.051 95.6077M475.548 330.181C535.549 256.255 598.741 183.169 677.296 96.0464M474.378 330.649C549.4 244.077 627.125 155.426 674.159 101.173M477.592 330.414C542.613 256.193 608.996 179.27 674.548 103.444M478.537 334.42C547.952 254.436 616.086 172.92 673.819 110.135M478.651 335.562C534.733 271.485 589.334 209.132 673.307 112.506M482.56 335.845C530.002 281.907 577.503 226.585 671.958 115.926M483.579 338.951C554.595 253.363 628.961 171.364 670.668 120.092M484.262 340.563C539.957 277.591 595.791 211.363 671.768 125.245M483.701 341.539C537.367 281.414 586.833 225.66 670.688 128.461M487.524 343.552C544.585 276.391 605.673 209.125 670.506 131.279M488.788 344.39C555.795 262.353 626.67 182.868 667.666 134.674M488.645 345.028C536.487 290.483 582.964 237.983 669.751 137.854M490.572 346.973C537.054 296.495 583.996 243.195 667.209 141.837M491.847 347.877C543.044 286.884 595.491 229.568 668.043 146.486M491.409 351.57C533.811 303.261 575.518 257.195 666.239 148.939M495.352 351.447C532.941 304.902 572.963 260.126 666.255 155.521M354.747 18.3905V18.3905Z" stroke="url(#paint0_linear_1710_8799)" stroke-width="0.7" stroke-linecap="round" stroke-linejoin="round"/>
<g opacity="0.8">
<path d="M611.061 35.3525C632.178 27.2204 657.211 31.0654 674.749 45.4778L674.23 44.2277C674.23 45.8494 673.812 47.9133 674.968 49.1812C677.326 51.7464 679.927 54.0286 682.197 56.6823C686.577 61.8322 690.38 67.4463 693.538 73.4242C699.975 85.727 704.043 99.1296 705.532 112.935C708.882 142.656 700.815 172.124 686.715 198.189C678.382 213.622 668.092 227.922 656.716 241.238C656.445 241.517 656.272 241.876 656.222 242.262C656.172 242.648 656.248 243.039 656.439 243.378L666.464 257.231L666.741 255.084C650.709 275.527 633.771 295.208 615.926 314.126C598.18 332.937 579.608 350.916 560.21 368.06C554.761 372.873 549.257 377.616 543.698 382.29C540.891 384.649 537.801 386.837 535.165 389.367C534.074 390.405 533.986 392.239 533.597 393.654L536.545 392.87C507.758 370.457 480.606 346.021 455.295 319.746C442.675 306.67 430.529 293.148 418.857 279.18C407.393 265.439 396.289 251.345 386.364 236.437C366.815 207.082 351.884 173.763 351.182 137.956C350.846 120.725 353.842 103.281 361.207 87.6067C367.736 73.6836 377.675 61.6349 390.103 52.5779C402.18 43.8208 416.557 37.9767 431.542 37.1924C449.398 36.2548 466.334 42.9303 481.979 50.8088C486.025 52.8433 490.029 54.9663 494.021 57.0951C494.392 57.3137 494.831 57.3893 495.254 57.3078C495.677 57.2264 496.055 56.9933 496.319 56.6525C496.582 56.3116 496.712 55.8864 496.684 55.4565C496.657 55.0266 496.473 54.6217 496.168 54.3176L495.336 53.4625L493.196 56.24C516.232 73.8154 531.989 99.2586 537.459 127.713L537.913 125.997L529.539 136.523L532.488 137.301L530.282 129.954C529.651 127.848 528.732 125.672 528.449 123.496C528.224 121.727 526.88 120.306 525.919 118.861C524.545 116.791 523.171 114.733 521.791 112.669C516.654 105.056 511.353 97.5492 505.597 90.396C494.222 76.243 480.729 63.3696 464.152 55.5678C448.749 48.3261 430.911 45.1712 414.322 49.9773C398.86 54.4591 386.458 65.6223 378.138 79.1443C359.019 110.21 359.456 151.625 373.172 184.62C380.838 203.083 392.432 219.495 403.678 235.895C415.716 253.456 427.754 271.018 439.792 288.58C451.032 304.932 462.572 321.261 476.613 335.361C489.909 348.691 505.298 359.755 522.168 368.114C526.166 370.095 530.247 371.9 534.381 373.574C534.682 373.662 535.002 373.666 535.305 373.586C535.608 373.506 535.884 373.345 536.103 373.12C543.687 365.619 551.771 358.572 559.609 351.336L586.222 326.781C601.242 312.923 616.233 299.012 630.58 284.457C658.886 255.756 685.122 224.077 701.776 187.067C710.81 167.017 717.197 145.333 717.35 123.172C717.48 103.34 712.308 83.0718 700.797 66.731C689.74 51.0447 673.145 40.2412 654.576 35.6297C635.947 31.1166 616.365 32.6724 598.683 40.0702C580.909 47.4121 565.512 59.678 553.924 74.981C541.788 91.0152 533.945 110.151 530.2 129.824C529.722 132.33 529.315 134.854 528.967 137.378C528.838 138.345 528.378 139.69 528.673 140.633C528.901 141.167 529.234 141.65 529.651 142.055C530.383 142.951 531.898 142.597 532.429 141.695C544.701 120.683 557.551 99.0411 576.38 83.1603C586.022 74.9095 597.388 68.9212 609.646 65.6341C623.657 61.9661 638.376 61.8069 652.694 63.5701C669.92 65.6931 686.662 70.5995 703.274 75.4292C704.99 75.9304 706.222 73.7131 704.996 72.4806L677.556 44.6699L673.653 40.713L671.506 43.4905C699.694 55.9393 717.303 85.2773 720.54 115.264C724.468 151.667 710.138 187.126 690.235 216.877C678.866 233.878 665.591 249.482 652.028 264.749C650.489 266.483 652.777 268.671 654.528 267.25L659.659 263.086L657.158 260.586L560.257 356.744L532.812 383.977C532.565 384.224 532.397 384.539 532.329 384.882C532.261 385.225 532.296 385.581 532.43 385.904C532.563 386.227 532.79 386.503 533.08 386.697C533.371 386.892 533.713 386.996 534.063 386.996L538.633 387.208C540.467 387.291 540.927 384.808 539.523 383.906C520.056 371.439 501.528 357.562 484.091 342.385C466.626 327.168 450.269 310.724 435.145 293.179C420.038 275.669 406.199 257.103 393.735 237.623C381.3 218.192 370.278 197.893 360.753 176.883C355.953 166.268 351.553 155.5 347.555 144.578C343.392 133.185 339.016 120.53 341.175 108.235C341.711 105.156 342.705 102.174 344.123 99.3891L340.891 98.0209L339.883 100.969C339.246 102.839 342.324 104.189 343.115 102.332C356.289 71.5135 372.978 34.2439 408.844 25.239C427.231 20.6216 446.52 26.0882 463.221 33.9195C494.913 48.8301 520.915 73.6172 537.324 104.561L537.141 103.199L534.605 110.711C534.057 112.327 536.439 113.802 537.554 112.433C556.619 89.193 577.925 66.7015 604.78 52.4718C628.846 39.7164 657.854 34.9044 684.155 43.4374C690.58 45.5022 696.693 48.4346 702.324 52.1534C706.417 54.8778 710.822 57.9679 713.452 62.2256C715.221 65.1093 716.23 68.8952 717.303 72.1032C718.571 75.8538 719.662 79.6751 720.552 83.5318C722.336 91.2137 723.439 99.038 723.849 106.914C725.553 138.552 716.973 169.942 702.236 197.77C687.64 225.327 667.526 249.529 645.665 271.596C642.956 274.324 640.224 277.025 637.468 279.699L640.246 281.845L658.981 244.741L688.808 185.675L695.607 172.218L692.37 170.856C685.323 195.677 673.033 218.622 657.99 239.522C642.186 261.447 623.321 280.984 603.636 299.436C592.273 310.086 580.602 320.394 568.932 330.691C567.198 332.224 569.699 334.6 571.432 333.191L592.343 316.284C603.689 307.108 615.891 299.094 627.643 290.449C661.469 265.575 694.192 237.428 715.433 200.63C736.073 164.894 744.648 119.74 727.982 80.7248C721.038 64.402 709.902 50.2056 695.702 39.5749C680.688 28.4224 662.407 22.5486 643.707 22.8684C601.608 23.5584 566.75 50.9739 541.605 82.5293C538.597 86.3034 535.682 90.1444 532.86 94.0522L535.914 95.8213L537.683 91.8997C537.921 91.4788 538.118 91.0366 538.273 90.5788C538.55 89.2579 537.359 87.8897 536.734 86.8106C533.804 81.8167 530.525 77.036 526.921 72.5042C519.629 63.308 511.074 55.1881 501.511 48.3851C485.069 36.7604 466.024 29.353 446.048 26.8142C426.073 24.2754 405.78 26.683 386.954 33.8252L389.13 35.0636L388.587 33.6188C388.454 33.1718 388.153 32.7935 387.748 32.5628C387.342 32.3321 386.864 32.2667 386.411 32.3804C360.712 40.3297 340.656 61.6595 334.676 87.9428C332.883 95.7971 332.341 103.885 333.072 111.909C333.202 113.336 334.959 114.362 336.091 113.159L357.657 90.1601L392.066 53.492L400.01 45.0297C400.282 44.7527 400.456 44.3939 400.504 44.0084C400.552 43.623 400.472 43.2325 400.276 42.8971C400.08 42.5617 399.779 42.3001 399.42 42.1526C399.061 42.0051 398.663 41.98 398.288 42.0811C361.136 51.0506 335.378 86.3683 330.631 123.148C324.863 167.801 346.022 211.098 375.378 243.449C392.261 262.049 411.975 277.829 432.391 292.395C434.012 293.574 436.059 290.921 434.531 289.617L416.905 274.491C415.448 273.241 413.031 274.828 414.128 276.638C435.781 312.523 462.832 344.861 494.328 372.513C503.209 380.289 512.414 387.672 521.944 394.662C522.145 394.78 522.366 394.857 522.597 394.89C522.827 394.922 523.062 394.908 523.287 394.849C523.512 394.791 523.723 394.688 523.909 394.548C524.094 394.408 524.25 394.232 524.368 394.031C529.781 383.629 537.017 374.193 543.61 364.51C543.837 364.102 543.897 363.622 543.779 363.171C543.66 362.719 543.371 362.331 542.973 362.087C510.863 339.737 478.577 317.269 450.224 290.142C422.907 264.149 400.376 233.553 383.663 199.752C379.523 191.335 375.769 182.75 372.4 173.999C368.861 164.735 365.553 155.293 363.519 145.563C361.455 135.727 360.818 125.466 363.059 115.594C365.102 106.959 368.876 98.8286 374.151 91.6933C384.984 76.756 401.207 66.5953 418.191 59.9906C436.218 52.9848 456.787 48.5679 475.835 54.005C489.245 57.8322 499.918 68.4352 507.838 79.4864C515.99 90.7659 522.032 103.429 525.671 116.862C526.377 119.506 526.934 122.188 527.34 124.894C527.57 126.427 529.899 126.569 530.577 125.313C547.231 94.4532 570.265 64.1126 604.845 52.6841C621.463 47.1939 639.709 46.5511 656.15 53.1205C672.591 59.6898 685.252 72.6811 692.453 88.6387C708.121 123.355 696.834 162.394 679.402 194.079C660.532 228.382 634.166 257.767 608.92 287.459C595.575 303.139 582.383 318.973 568.82 334.471C562.646 341.547 556.242 348.417 549.165 354.586C547.343 356.178 545.479 357.723 543.563 359.197C542.142 360.288 540.514 361.238 539.187 362.429C537.742 363.72 536.457 365.259 535.118 366.657L531.544 370.36H534.045L490.406 326.132C484.468 320.111 478.612 314.002 472.532 308.14L441.867 278.578L398.306 236.632L370.182 209.553C369.196 208.599 368.325 207.532 367.588 206.374C362.539 198.911 358.058 191.079 354.184 182.945C350.276 174.738 347.005 166.243 344.4 157.534C343.109 153.218 341.505 148.6 340.945 144.118C340.98 144.425 340.85 144.348 340.897 143.942C340.959 143.596 341.037 143.253 341.133 142.915L341.965 139.289L343.044 134.571L339.635 133.628C335.448 159.065 338.732 185.172 349.088 208.78C350.008 210.856 353.057 209.057 352.143 207.011C342.168 184.257 338.978 159.107 342.955 134.583C343.315 132.383 340.06 131.381 339.547 133.639L338.368 138.734C337.996 140.35 337.188 142.273 337.224 143.924C337.224 145.905 338.132 148.217 338.603 150.134C339.189 152.492 339.82 154.834 340.496 157.157C341.751 161.481 343.17 165.755 344.754 169.977C347.947 178.446 351.761 186.667 356.165 194.574C358.398 198.615 360.79 202.565 363.342 206.421C364.332 207.925 365.258 209.606 366.491 210.927C368.814 213.421 371.438 215.691 373.892 218.056L389.885 233.454L433.494 275.447L467.697 308.4C485.783 325.82 503.12 344.059 520.77 361.939L531.544 372.861C531.876 373.192 532.326 373.378 532.795 373.378C533.263 373.378 533.713 373.192 534.045 372.861C536.622 370.183 539.081 367.082 541.953 364.746C545.621 361.768 549.454 359.079 552.98 355.901C556.507 352.722 559.974 349.32 563.277 345.834C570.182 338.534 576.645 330.797 583.203 323.131L604.043 298.64C630.203 267.91 657.925 237.67 678.524 202.765C697.43 170.732 711.123 131.758 698.656 94.8483C693.048 78.2598 682.327 63.7293 667.189 54.6832C651.727 45.4425 633.464 42.9834 615.885 46.2032C579.211 52.9318 552.491 81.2968 534.104 112.027C531.843 115.812 529.681 119.649 527.617 123.538L530.849 123.956C528.879 110.682 523.324 97.732 516.536 86.215C509.183 73.7603 499.393 61.7066 486.55 54.6183C470.356 45.6783 450.112 47.0111 432.786 51.5283C414.399 56.3226 396.224 64.7318 382.112 77.6347C368.702 89.8947 359.32 106.719 358.3 125.053C357.167 145.38 365.028 165.649 372.765 184.071C387.719 219.66 408.977 252.255 435.516 280.288C463.28 309.579 496.056 333.492 528.997 356.555L541.281 365.124L540.644 362.7C534.051 372.389 526.821 381.824 521.401 392.221L523.825 391.584C490.407 367.027 460.97 337.47 436.548 303.953C429.688 294.518 423.248 284.809 417.229 274.827L414.452 276.974L432.066 292.071L434.207 289.293C399.32 264.437 365.589 234.963 346.977 195.529C337.825 176.14 332.518 154.668 333.361 133.156C334.034 114.143 340.102 95.715 350.858 80.023C362.398 63.3224 379.358 50.3135 399.249 45.5073L397.527 42.5588L375.962 65.5574L341.552 102.22L333.609 110.688L336.628 111.938C334.204 85.5309 346.435 59.4009 368.584 44.7112C374.389 40.8631 380.713 37.8645 387.366 35.8066L385.19 34.5682L385.739 36.013C386.051 36.8445 386.954 37.617 387.915 37.2514C410.378 28.7217 434.873 27.0793 458.273 32.5337C474.417 36.4269 489.576 43.634 502.786 53.6975C515.997 63.761 526.971 76.4611 535.012 90.9916V89.2225L532.877 94.0404C532.68 94.4428 532.642 94.9052 532.772 95.3342C532.902 95.7632 533.19 96.1267 533.578 96.3514C533.966 96.5761 534.425 96.6451 534.862 96.5445C535.299 96.4439 535.681 96.1812 535.932 95.8095C559.208 63.7529 590.097 33.9431 630.769 27.5094C649.48 24.5609 668.693 27.4681 685.193 36.9448C700.313 45.6017 712.597 58.823 720.859 74.0964C740.526 110.44 734.941 155.288 716.672 190.965C697.801 227.834 666.747 256.541 634.113 281.238C625.485 287.772 616.693 294.093 607.859 300.344C603.224 303.629 598.506 306.778 594.089 310.369L570.849 329.163L568.908 330.732L571.409 333.232C592.432 314.662 613.502 296.081 632.674 275.541C650.613 256.34 666.912 235.394 679.314 212.159C686.218 199.338 691.732 185.816 695.761 171.823C696.297 169.936 693.449 168.639 692.529 170.461L673.794 207.548L643.943 266.601L637.173 280.082C636.289 281.851 638.465 283.673 639.951 282.228C662.949 259.914 684.486 235.641 700.691 207.831C716.967 179.896 727.393 148.335 727.587 115.801C727.682 99.796 725.229 83.691 719.809 68.6239C718.801 65.8287 717.898 62.4497 716.153 60.026C714.961 58.2743 713.577 56.6622 712.025 55.2198C706.944 50.729 701.259 46.9715 695.136 44.0566C670.167 32.1445 639.862 33.5362 614.646 43.9859C585.798 55.9393 562.569 77.7762 542.472 101.152C539.971 104.058 537.506 106.994 535.077 109.963L538.025 111.684L540.089 105.563C540.349 104.808 540.738 104.048 540.561 103.234C540.384 102.42 539.641 101.418 539.205 100.622C538.562 99.4421 537.896 98.2627 537.223 97.0833C532.607 89.1584 527.335 81.6348 521.46 74.5918C509.794 60.5892 495.901 48.6032 480.34 39.1149C463.663 28.9365 444.368 20.5567 424.571 20.0201C405.217 19.5188 387.703 28.4352 374.293 41.9868C358.146 58.2981 348.935 79.7281 340.054 100.539L343.286 101.907L344.3 98.9586C344.937 97.0715 341.982 95.8095 341.063 97.5963C335.242 108.948 336.787 121.94 340.196 133.781C343.51 145.28 348.133 156.491 352.792 167.5C361.989 189.219 372.775 210.23 385.061 230.363C397.305 250.445 410.974 269.623 425.963 287.748C440.983 305.932 457.304 323.002 474.797 338.823C492.244 354.604 510.828 369.079 530.4 382.131C532.83 383.755 535.275 385.353 537.736 386.925L538.633 383.629L534.063 383.417L535.313 386.436L632.214 290.313L659.653 263.081C661.31 261.441 658.886 259.177 657.153 260.58L652.022 264.743L654.522 267.244C679.119 239.563 703.209 210.125 715.935 174.854C727.676 142.314 728.796 105.209 710.763 74.7156C702 59.9021 689.121 47.4239 673.287 40.4299C671.518 39.6633 669.631 41.6801 671.146 43.2075L698.58 71.0122L702.483 74.9692L704.205 72.0206C675.038 63.5406 644.438 54.9191 613.915 61.0167C600.931 63.6376 588.715 69.1793 578.19 77.2219C568.384 84.6876 560.075 93.8222 552.674 103.635C544.011 115.122 536.622 127.506 529.374 139.92L532.152 139.56L531.627 138.923L532.146 140.173C536.864 101.724 557.421 64.7672 592.674 46.7044C609.133 38.2657 627.974 34.6803 646.337 37.5698C664.701 40.4594 681.885 49.3169 693.915 63.5524C706.352 78.2952 712.709 97.6081 713.688 116.685C714.791 138.292 709.442 159.734 701.216 179.578C686.178 215.833 661.564 247.129 634.608 275.27C621.045 289.423 606.856 302.868 592.509 316.178C576.111 331.392 559.674 346.566 543.197 361.698C539.989 364.646 536.71 367.559 533.62 370.632L535.342 370.178C518.353 363.294 502.596 353.692 488.69 341.748C474.254 329.328 462.342 314.421 451.338 298.958C439.621 282.494 428.375 265.669 416.946 249.004C405.777 232.705 393.948 216.647 384.3 199.362C374.971 182.609 368.82 164.44 367.346 145.257C366.013 127.807 368.101 109.839 374.782 93.5804C380.591 79.4274 390.115 66.2533 403.507 58.4632C418.12 49.9596 435.563 49.5586 451.468 54.4178C468.446 59.6073 482.793 70.34 494.764 83.2192C500.819 89.8315 506.444 96.824 511.606 104.154C514.236 107.828 516.796 111.555 519.32 115.311C520.499 117.088 521.69 118.871 522.893 120.66C523.483 121.58 524.232 122.506 524.763 123.473C524.698 123.355 524.839 123.207 524.94 123.508C525.002 123.82 525.043 124.135 525.064 124.452C525.423 126.634 526.243 128.786 526.903 130.938L529.109 138.286C529.457 139.466 531.197 140.162 532.058 139.065L539.264 130.013C539.629 129.559 540.024 129.116 540.355 128.645C541.216 127.418 540.821 126.38 540.532 124.982C539.724 121.115 538.722 117.291 537.53 113.524C532.692 98.3048 524.939 84.1722 514.702 71.9145C508.861 64.9403 502.25 58.6493 494.994 53.1618C493.343 51.9057 491.527 54.5358 492.848 55.9393L493.662 56.8062L495.808 54.0286C479.509 45.3776 462.69 36.532 444.12 34.1731C428.67 32.1976 413.037 35.5707 399.302 42.7475C385.656 49.9724 373.992 60.4375 365.335 73.2237C355.805 87.1998 350.462 103.676 348.493 120.4C344.235 156.555 355.935 192.298 373.951 223.252C383.062 238.902 393.747 253.568 404.993 267.739C416.551 282.305 428.646 296.423 441.278 310.092C466.647 337.614 494.003 363.237 523.123 386.754C526.729 389.667 530.359 392.545 534.015 395.388C535.012 396.16 536.61 396.019 536.964 394.603L537.383 392.964C537.446 392.609 537.537 392.261 537.654 391.92C537.99 391.136 537.559 391.779 538.179 391.431C539.464 390.705 540.632 389.414 541.764 388.482L545.609 385.28C550.543 381.148 555.43 376.961 560.269 372.719C569.854 364.31 579.248 355.69 588.451 346.86C606.929 329.122 624.591 310.58 641.437 291.233C650.986 280.265 660.245 269.06 669.212 257.62C669.666 257.03 669.979 256.157 669.489 255.479L659.464 241.627L659.187 243.773C678.724 220.881 695.454 194.881 704.005 165.814C711.854 139.165 712.09 110.134 702.124 83.9858C696.716 69.8328 688.395 56.8179 677.209 46.5098L677.727 47.76C677.792 46.609 677.792 45.4553 677.727 44.3043C677.503 42.3229 674.26 40.654 672.738 39.5866C668.439 36.6159 663.803 34.1653 658.928 32.286C648.989 28.4244 638.291 26.9186 627.673 27.8868C621.651 28.4276 615.734 29.7989 610.088 31.9617C607.983 32.7755 608.908 36.1958 611.025 35.3761L611.061 35.3525Z" fill="#DFDFDF"/>
<path fill-rule="evenodd" clip-rule="evenodd" d="M349.619 216.983C348.105 216.707 346.592 216.421 345.08 216.126C338.343 214.817 334.131 216.772 331.56 222.745C330.169 225.973 328.89 229.248 327.611 232.523C326.772 234.671 325.933 236.819 325.062 238.954C324.484 240.369 323.823 241.748 323.162 243.128C322.865 243.749 322.567 244.37 322.277 244.994C320.36 240.935 319.086 236.601 318.502 232.15C317.307 224.089 316.138 216.024 314.97 207.959C313.106 195.097 311.243 182.236 309.273 169.393C308.937 167.192 308.072 165.076 307.204 162.956C306.795 161.955 306.386 160.954 306.031 159.942L303.543 160.118C303.206 161.185 302.825 162.243 302.444 163.301C301.627 165.571 300.81 167.839 300.427 170.185C298.749 180.42 297.155 190.669 295.562 200.918C294.172 209.858 292.783 218.798 291.337 227.729C290.698 231.669 289.823 235.572 288.948 239.476C288.541 241.291 288.134 243.107 287.75 244.927L286.072 244.856C285.337 242.131 284.623 239.399 283.91 236.667C282.073 229.633 280.236 222.599 278.018 215.69C277.319 213.517 275.727 211.63 274.135 209.744C273.407 208.881 272.679 208.018 272.037 207.128C271.453 208.043 270.768 208.936 270.083 209.83C268.597 211.769 267.11 213.708 266.659 215.862C264.727 225.121 263.096 234.44 261.464 243.76C260.64 248.466 259.816 253.173 258.953 257.872C257.816 264.059 256.604 270.23 255.393 276.402C254.818 279.331 254.243 282.261 253.676 285.192L251.902 285.037C251.802 284.389 251.687 283.743 251.572 283.097C251.327 281.719 251.082 280.343 250.979 278.955C249.782 262.83 248.597 246.706 247.412 230.581C245.181 200.215 242.95 169.849 240.635 139.488C239.796 128.527 238.5 117.588 236.981 106.698C236.755 105.087 235.659 103.6 234.562 102.112C234.057 101.426 233.551 100.74 233.131 100.041C232.662 100.722 232.134 101.383 231.606 102.044C230.442 103.502 229.279 104.958 228.76 106.614C227.229 111.563 226.09 116.625 225.354 121.753C220.985 151.421 216.735 181.107 212.602 210.811C211.998 215.186 210.731 217.854 205.848 216.889C195.646 214.876 190.168 219.612 187.366 229.079C186.207 232.996 184.543 236.768 182.882 240.532C182.36 241.714 181.839 242.895 181.334 244.08C180.955 244.974 180.414 245.799 179.64 246.977C179.205 247.639 178.697 248.413 178.104 249.373C177.784 247.713 177.487 246.253 177.216 244.922C176.715 242.464 176.303 240.445 176.007 238.413C175.066 231.773 174.145 225.131 173.223 218.489C171.506 206.109 169.789 193.728 167.949 181.364C167.573 178.837 166.708 176.382 165.844 173.927C165.443 172.788 165.042 171.65 164.689 170.504L161.606 170.664C157.983 183.577 155.723 196.808 153.458 210.068C151.341 222.461 149.219 234.879 145.977 247.087C142.786 238.843 140.014 230.443 137.671 221.919C136.526 217.875 134.483 215.912 129.953 215.786C126.347 215.686 122.755 215.196 119.16 214.706C116.758 214.379 114.354 214.052 111.945 213.84C105.806 213.301 99.6692 212.703 93.5321 212.105C77.3585 210.53 61.1837 208.954 44.9759 208.458C30.6887 208.039 16.7244 212.04 4.87008 220.992C3.62323 221.918 2.55311 223.103 1.47938 224.292C0.992601 224.831 0.505076 225.37 0 225.887L1.27939 227.401C1.69583 227.167 2.12477 226.949 2.55387 226.73C3.48627 226.255 4.41941 225.78 5.22663 225.145C13.9265 218.265 23.8177 213.769 34.7785 213.081C48.2981 212.242 61.9688 211.675 75.4422 212.716C85.9354 213.528 96.369 215.009 106.806 216.491C113.893 217.498 120.981 218.504 128.09 219.301C132.331 219.771 134.085 221.344 135.079 225.174C137.038 232.687 139.097 240.191 141.597 247.536C142.155 249.176 143.418 250.577 144.679 251.977C145.258 252.619 145.836 253.26 146.346 253.925C146.773 253.215 147.277 252.519 147.781 251.824C148.864 250.331 149.945 248.839 150.259 247.213C152.728 234.288 155.033 221.344 157.34 208.39C158.362 202.656 159.383 196.921 160.419 191.184C160.879 188.645 161.444 186.127 162.009 183.608C162.264 182.474 162.519 181.339 162.764 180.202C165.176 186.629 166.22 192.929 167.122 199.251C167.847 204.324 168.551 209.4 169.255 214.477C170.744 225.216 172.233 235.953 173.914 246.651C174.198 248.482 175.257 250.192 176.315 251.902C176.816 252.71 177.316 253.519 177.735 254.34C178.334 253.686 178.993 253.059 179.653 252.433C181.107 251.051 182.563 249.668 183.385 247.977C186.459 241.794 189.128 235.419 191.376 228.891C193.562 222.38 197.249 219.96 204.258 220.421C214.677 221.107 214.745 220.63 216.271 209.899L216.285 209.805C220.572 179.904 224.877 150.007 229.2 120.113C229.643 117.096 230.364 114.13 231.087 111.156C231.432 109.734 231.778 108.31 232.094 106.878C233.517 108.415 234.362 110.397 234.485 112.487C235.556 126.15 236.605 139.818 237.655 153.484C239.133 172.742 240.611 191.997 242.149 211.235C244.107 235.755 246.172 260.264 248.345 284.764C248.521 286.759 249.173 288.711 249.915 290.932C250.287 292.045 250.682 293.226 251.05 294.513C256.663 290.749 257.507 285.847 258.293 281.281C258.393 280.698 258.493 280.12 258.601 279.55C260.819 267.799 262.898 256.024 264.977 244.249C266.386 236.269 267.795 228.289 269.247 220.317C269.595 218.407 270.259 216.554 270.924 214.7C271.213 213.895 271.501 213.09 271.764 212.279L273.467 212.376C274.231 215.17 274.976 217.97 275.721 220.769C277.681 228.136 279.641 235.501 281.936 242.763C282.569 244.758 284.057 246.484 285.545 248.209C286.228 249.001 286.911 249.793 287.511 250.611C287.979 249.83 288.471 249.06 288.963 248.291C290.126 246.471 291.288 244.653 292.125 242.695C292.878 240.966 293.158 239.004 293.432 237.083C293.495 236.638 293.558 236.195 293.627 235.757C294.489 230.246 295.331 224.741 296.172 219.238C297.124 213.013 298.075 206.791 299.055 200.568C300.167 193.505 301.323 186.449 302.479 179.393C303.033 176.015 303.586 172.637 304.135 169.258L305.98 169.321C306.213 170.887 306.443 172.453 306.674 174.019C307.188 177.512 307.701 181.004 308.237 184.494C308.818 188.276 309.395 192.06 309.973 195.843C312.455 212.103 314.936 228.361 317.642 244.583C317.882 246.027 319.074 247.312 320.265 248.596C320.821 249.195 321.377 249.794 321.837 250.41C322.323 249.878 322.868 249.372 323.412 248.867C324.584 247.778 325.754 246.69 326.342 245.346C328.355 240.742 330.129 236.03 331.904 231.317C332.563 229.568 333.221 227.819 333.892 226.076C336.086 220.338 339.618 218.798 345.998 220.006C347.205 220.235 348.412 220.458 349.619 220.673V216.983Z" fill="#DFDFDF"/>
</g>
<defs>
<linearGradient id="paint0_linear_1710_8799" x1="348.637" y1="47.2752" x2="589.762" y2="177.935" gradientUnits="userSpaceOnUse">
<stop stop-color="#3CA0D2"/>
<stop offset="1" stop-color="#48DCA6"/>
</linearGradient>
</defs>
</svg>
