<svg width="649" height="571" viewBox="0 0 649 571" fill="none" xmlns="http://www.w3.org/2000/svg">
<mask id="mask0_1733_8800" style="mask-type:alpha" maskUnits="userSpaceOnUse" x="278" y="0" width="500" height="571">
<path d="M528.009 570.828L519.907 566.586C519.091 566.162 518.221 565.694 517.285 565.194C511.042 561.812 501.069 556.047 488.985 547.705C467.625 532.957 435.387 507.148 403.139 467.993C368.129 425.489 339.97 375.872 319.425 320.544C293.866 251.676 280.075 173.617 278.443 88.5542L278.117 71.4351L295.225 70.7607C348.987 68.6507 403.292 56.763 456.65 35.4239C479.697 26.2008 497.86 16.9995 509.052 10.898C512.565 8.98376 515.959 7.05867 519.167 5.18796L528.009 0L536.852 5.18796C540.039 7.05867 543.432 8.97289 546.956 10.898C558.147 16.9995 576.322 26.2117 599.357 35.4239C652.716 56.763 707.032 68.6616 760.782 70.7607L777.891 71.4351L777.564 88.5542C775.933 173.617 762.142 251.676 736.583 320.533C716.048 375.861 687.879 425.467 652.868 467.982C620.62 507.137 588.383 532.946 567.022 547.694C554.928 556.047 544.965 561.812 538.733 565.183C537.798 565.694 536.928 566.162 536.112 566.586L528.009 570.828ZM313.867 104.684C319.273 243.932 358.34 358.611 430.112 445.762C459.794 481.806 489.312 505.451 508.835 518.937C516.339 524.115 522.876 528.16 527.999 531.141C533.121 528.16 539.658 524.125 547.162 518.937C566.685 505.451 596.203 481.806 625.885 445.762C697.657 358.611 736.735 243.932 742.13 104.684C690.065 100.768 637.751 88.4129 586.36 67.8568C566.587 59.9498 547.695 51.0965 530.206 41.5581C529.456 41.1556 528.716 40.7423 527.988 40.3399C527.248 40.7423 526.508 41.1556 525.769 41.5581C508.291 51.0965 489.399 59.9389 469.615 67.8568C418.236 88.4129 365.91 100.768 313.846 104.684H313.867Z" fill="#454545"/>
</mask>
<g mask="url(#mask0_1733_8800)">
<path d="M277.246 78.852C275.73 77.7232 278.584 74.57 283.145 71.4473M275.567 86.0595C282.397 79.1229 281.678 76.0475 290.639 68.4735M278.638 93.3427C282.994 83.7056 286.227 78.7395 289.789 70.2129M280.571 92.7378C283.226 90.2242 294.571 80.3619 304.272 68.4456M281.701 106.042C284.309 94.9843 298.766 79.6565 308.023 65.8454M281.012 107.734C285.466 94.3037 297.827 79.6033 316.395 70.4537M280.089 112.266C288.083 101.177 301.611 94.8995 318.721 65.7061M277.892 125.543C291.415 102.061 307.683 87.7218 329.717 68.9101M274.758 129.614C298.534 107.758 316.467 84.1092 327.454 68.9098M282.604 135.216C293.871 113.933 303.664 102.438 336.317 69.8416M275.218 136.855C303.832 110.369 325.477 87.8498 342.838 67.0902M275.008 144.534C298.492 129.267 316.052 113.437 352.319 69.7034M277.442 152.529C306.97 123.467 325.568 93.2608 357.198 68.135M282.475 153.875C299.682 143.146 313.522 121.107 365.165 63.6862M284.214 167.219C304.132 135.205 327.5 108.25 373.181 59.4567M281.306 166.265C311.202 132.047 345.593 101.531 381.334 61.8562M281.147 174.603C321.193 136.82 352.674 90.5881 386.421 59.9021M282.039 180.464C321.28 134.815 365.199 89.8965 391.734 56.8911M288.814 184.506C323.921 139.092 361.956 99.368 398.841 57.8873M290.434 187.942C308.789 158.578 334.434 129.197 406.826 54.3594M285.327 193.018C315.237 163.004 348.555 131.541 417.991 48.3401M286.089 205.152C335.339 153.362 381.607 104.144 426.134 51.7161M291.689 210.271C328.042 165.276 369.398 119.781 428.957 46.3212M291.639 210.652C330.664 166.75 379.397 113.269 437.952 46.0735M287.88 222.715C340.344 164.086 391.499 112.155 449.22 39.4226M291.666 224.404C343.3 162.049 397.952 102.403 455.321 37.4577M292.924 227.723C359.204 161.345 416.972 86.0147 465.449 37.3391M291.77 233.746C364.229 157.101 429.173 81.7326 472.082 28.8953M298.129 241.039C361.348 164.226 430.238 83.8907 484.794 26.2614M294.694 247.183C341.797 192.037 386.988 137.047 491.013 17.6796M299.665 254.522C348.947 194.583 397.896 137.268 503.142 13.067M302.332 254.518C356.997 196.398 412.841 129.333 514.252 9.89149M300.242 260.332C345.474 209.66 388.863 153.626 528.224 -0.416016M300.285 263.831C371.24 187.687 440.016 105.748 531.37 0.380531M302.395 269.898C389.499 171.192 481.442 68.3856 533.476 6.162M303.083 274.074C353.477 216.085 404.302 167.165 541.46 4.30673M307.886 282.17C385.381 187.739 466.557 98.9812 543.171 11.822M308.401 288.34C363.373 221.222 423.304 152.948 545.887 13.7593M310.261 289.989C364.824 221.057 421.173 155.026 552.682 12.9197M311.058 297.597C397.164 198.788 484.35 102.524 554.119 18.6051M314.024 302.47C380.903 224.925 450.457 147.196 557.487 17.6593M313.664 303.457C367.794 244.853 417.621 185.877 562.089 18.2224M316.27 309.21C410.815 206.037 503.319 97.8314 568.374 23.6331M316.566 313.739C372.918 247.729 430.051 186.558 570.542 24.6565M320.167 323.32C394.924 231.116 470.05 149.642 575.9 27.5333M320.321 326.08C392.743 243.237 461.737 158.352 581.007 28.698M321.9 329.521C400.574 242.658 479.689 158.023 580.146 27.8599M325.16 333.971C415.903 227.27 509.135 117.264 584.68 30.9157M326.906 337.049C386.112 273.388 442.531 205.015 592.78 32.4299M328.959 345.302C388.854 276.316 447.453 210.319 596.877 36.4509M330.706 348.715C412.979 246.331 499.432 150.357 598.11 35.5221M331.025 350.494C427.25 242.126 520.49 131.432 604.063 36.0451M333.642 357.963C431.909 243.186 529.884 135.084 607.674 37.9401M335.396 359.818C407.004 282.804 477.984 203.379 615.081 41.5557M335.99 366.442C401.683 291.87 467.247 213.93 616.586 40.3467M338.436 371.622C427.493 263.138 522.466 157.906 623.669 43.1987M342.8 372.237C419.509 278.93 505.705 182.219 625.42 44.7626M341.608 378.562C454.548 245.653 567.755 117.203 631.897 46.938M346.275 380.537C409.083 319.622 465.151 247.559 637.948 47.4032M347.195 384.249C410.105 315.964 470.567 245.745 638.83 48.4375M351.972 392.388C458.934 267.001 564.536 141.864 642.338 51.1845M352.872 394.496C451.199 289.603 545.442 180.917 650.74 52.0261M356.887 396.944C432.746 308.03 511.948 217.708 652.909 56.8232M355.745 400.383C432.054 315.606 510.736 223.626 660.042 56.3217M357.838 403.668C435.339 313.617 513.821 226.954 662.389 58.3901M364.219 409.921C476.76 281.801 589.065 155.694 667.986 57.9971M365.134 415.456C479.37 284.219 589.781 157.093 674.77 60.5241M366.299 417.25C432.793 338.929 500.012 266.105 677.769 62.0246M368.403 422.681C490.157 276.802 617.669 131.024 680.924 59.4432M370.584 425.602C464.825 311.931 566.184 198.945 687.275 59.5726M372.19 431.623C492.643 288.154 614.407 148.567 691.523 64.4868M377.859 432.525C478.551 318.664 578.538 200.491 699.351 63.9036M378.793 436.657C493.851 303.506 607.746 168.354 703.116 65.736M380.293 440.069C510.383 301.481 633.897 158.773 708.099 66.4552M385.903 445.505C453.238 360.632 524.356 279.281 712.427 66.1121M388.82 446.359C499.573 323.447 609.886 196.783 715.571 67.6889M388.645 448.985C477.634 352.974 561.986 257.701 720.016 69.6088M392.664 454.219C484.342 349.32 574.853 246.657 726.068 70.3646M397.058 459.402C514.5 322.83 632.29 186.132 733.242 71.3788M400.359 459.55C529.288 311.512 659.837 160.08 739.214 72.016M399.857 465.826C491.522 358.335 581.755 252.178 743.844 70.8343M404.495 466.717C513.895 339.653 623.624 213.184 748.376 70.5603M405.062 472.454C485.487 381.808 566.892 287.214 754.132 70.9266M409.723 473.724C528.684 339.158 645.948 204.454 760.659 72.5349M410.26 478.859C496.675 377.542 585.37 278.699 763.667 72.5051M416.21 481.297C500.306 376.702 591.303 276.496 770.084 73.1601M417.499 484.155C491.423 398.602 567.52 314.506 775.546 72.629M421.614 488.889C504.885 388.649 592.105 289.306 778.06 80.6097M422.161 492.533C515.654 392.703 600.722 291.037 774.592 85.0068M426.094 495.185C541.776 364.78 659.056 234.124 776.952 91.9475M427.258 498.39C514.339 399.281 598.73 300.658 775.947 98.4619M430.291 503.647C562.244 351.864 693.349 202.459 775.263 106.954M434.538 506.209C522.399 397.466 613.882 293.608 776.215 113.002M439.617 509.001C537.203 399.782 636.6 285.446 772.267 121.836M443.908 511.949C560.266 371.456 680.412 233.807 772.449 128.223M444.413 512.78C513.694 434.953 580.862 355.142 771.613 136.86M450.341 516.939C557.279 387.539 667.345 261.083 774.645 140.633M452.676 517.712C526.75 432.54 601.684 341.652 773.929 150.239M453.055 522.435C542.705 418.682 631.736 317.898 776.843 152.108M457.523 523.842C558.412 416.829 651.62 302.25 774.797 162.532M460.433 526.53C564.747 411.174 671.805 290.393 774.997 170.45M465.819 531.262C587.911 392.095 709.429 251.002 769.285 179.494M470.328 535.379C563.769 424.466 660.331 314.227 771.494 187.023M471.593 537.557C585.985 399.523 700.979 265.083 768.722 194.323M476.931 539.851C572.034 427.125 671.358 309.057 765.24 202.007M475.789 539.891C584.408 417.657 690.893 290.96 765.151 212.57M480.539 545.824C557.326 454.745 632.463 365.141 763.431 218.789M484.495 548.227C569.828 451.297 651.926 357.547 766.092 228.308M490.452 547.035C587.307 433.547 683.667 325.735 759.81 236.823M492.248 549.587C597.448 435.005 698.648 323.659 756.148 246.875M499.388 554.543C594.236 441.849 690.286 326.666 749.399 258.129M501.812 555.493C588.926 446.867 680.244 342.72 751.822 269.787M502.62 560.294C579.099 471.504 660.443 380.464 749.065 278.824M508.298 561.517C565.592 491.796 616.408 430.982 744.638 286.761M513.63 562.079C585.488 482.7 653.687 398.553 742.267 296.438M516.215 564.666C580.788 485.651 650.566 405.134 737.46 311.704M520.902 565.632C561.564 513.256 608.697 465.468 737.753 321.55M526.021 570.055C576.387 512.7 627.071 453.229 738.964 322.406M527.928 573.226C605.961 480.929 682.867 392.772 732.394 339.46M539.986 566.973C591.246 506.789 645.84 448.208 727.548 351.803M554.734 556.412C617.666 489.813 673.26 423.948 719.769 359.896M562.059 552.363C614.121 496.468 660.796 439.713 706.543 381.869M572.669 540.431C610.22 500.476 651.252 455.716 696.378 401.938M598.294 524.816C624.863 498.672 643.649 471.017 684.921 425.832M275.705 82.7067C278.317 78.2097 278.045 75.9047 279.544 72.1939M280.695 90.5526C282.921 82.4517 277.984 77.1563 285.029 70.8735M279.347 94.4887C280.9 89.4391 281.338 87.9833 298.117 74.8308M281.178 101.798C289.154 94.1412 290.599 77.6555 298.463 71.0319M277.616 108.622C291.82 93.5809 301.626 79.833 309.723 66.7314M279.628 112.749C284.281 102.548 293.176 91.031 315.826 71.6565M282.686 123.331C287.078 108.728 300.743 96.1618 322.9 67.3522M275.052 130.441C294.638 108.241 311.149 85.1373 325.045 67.0562M277.489 132.67C291.633 114.766 305.409 95.2456 335.796 70.5212M282.341 137.641C297.265 120.539 313.842 98.4363 338.806 72.1697M282.13 151.285C295.871 124.53 319.963 102.258 340.495 69.785M285.135 148.624C304.061 122.382 333.271 89.5947 345.903 70.9895M284.014 157.735C306.206 123.262 333.876 87.9235 357.553 69.2563M285.156 163.067C302.445 140.707 320.776 111.663 366.987 59.2521M284.996 165.752C296.767 151.607 314.979 128.178 370.13 59.0088M284.554 172.135C313.769 140.457 347.08 99.8681 378.22 63.5838M287.149 176.361C305.042 156.506 324.946 124.711 384.894 55.8756M287.72 187.437C313.7 151.231 350.641 111.409 389.655 62.6677M291.342 193.577C329.824 140.897 376.638 87.0311 399.471 60.4567M285.746 199.836C323.349 153.261 353.252 111.054 409.689 55.7195M292.982 202.574C339.225 148.333 390.182 86.8564 412.035 54.7899M285.449 212.166C334.788 151.046 376.883 103.841 425.438 47.787M289.997 213.043C322.282 181.994 347.738 143.167 430.197 44.2217M289.95 216.838C342.252 158.693 392.71 97.7752 441.699 41.3879M293.772 221.085C345.702 155.614 398.791 93.5159 445.476 43.2803M291.135 228.22C339.61 174.653 388.688 116.564 453.664 37.1515M294.172 238.315C325.498 189.651 360.051 148.661 463.623 37.9937M297.901 242.942C350.541 178.054 398.801 117.217 475.096 33.6957M297.147 245.061C333.072 194.505 372.285 148.356 485.6 27.8303M297.482 251.971C338.589 203.442 384.747 152.178 496.55 20.4453M302.408 258.286C380.6 167.048 455.069 79.4148 502.925 16.4518M303.946 259.075C388.704 161.552 468.567 60.4926 514.556 10.0317M304.459 267.027C372.769 180.907 447.854 99.9027 528.154 2.49288M304.521 269.269C392.121 165.95 485.368 60.016 529.591 4.72843M304.266 277.189C360.766 217.957 413.866 154.792 533.388 2.19489M309.758 282.708C357.006 217.059 413.785 152.397 538.588 7.9897M307.189 286.403C379.478 199.974 455.765 116.327 540.461 11.3105M308.282 287.779C376.132 216.726 440.357 142.249 545.335 8.87203M310.066 296.909C386.093 204.679 461.146 113.757 550.308 15.4239M313.952 298.347C405.81 192.924 502.599 81.1635 557.168 17.051M311.958 308.344C409.399 196.336 504.698 85.1124 560.763 19.5409M317.72 308.082C410.862 197.867 502.48 93.739 565.266 18.5376M316.904 314.804C395.777 220.541 471.872 124.351 568.221 22.8886M317.156 322.115C407.975 214.701 491.774 117.023 570.842 22.3182M318.095 324.015C417.762 213.751 513.061 96.9778 577.364 26.8338M323.35 331.468C399.963 237.751 480.379 144.572 579.21 29.2963M325.758 331.764C408.785 239.458 483.686 148.67 580.409 31.2701M323.667 337.789C410.114 245.944 488.829 150.969 584.754 30.6492M327.363 341.042C416.245 240.151 503.603 137.702 592.4 34.6783M331.319 346.921C409.001 255.257 486.568 169.116 597.297 33.6006M330.234 353.874C402.771 266.946 474.846 180.696 602.327 37.2731M330.97 354.792C409.262 267.786 488.042 177.899 605.232 39.1454M334.892 359.979C417.471 270.28 495.588 182.165 611.231 38.5594M336.806 363.719C405.968 281.974 475.288 199.766 613.207 39.5579M341.571 367.399C414.893 277.542 487.481 193.747 619.969 42.7858M342.835 375.125C428.089 265.585 519.138 162.1 620.283 42.0248M344.604 380.231C426.26 279.782 512.531 178.559 628.383 47.4395M345.85 383.909C411.38 306.363 474.961 232.045 632.093 45.5693M348.635 385.543C406.628 315.383 467.213 244.589 636.297 47.7406M351.495 390.02C427.346 301.946 502.2 213.14 638.014 48.0618M351.367 396.293C417.155 310.168 488.951 229.779 643.439 51.2549M353.97 397.937C414.371 324.879 473.164 257.865 647.331 54.3056M356.375 403.922C417.457 330.824 473.946 263.508 655.611 54.8409M358.867 408.029C454.508 290.376 550.45 176.871 658.902 57.4404M364.495 408.684C422.956 340.501 486.47 269.172 662.056 56.1445M363.749 414.934C462.907 304.937 555.451 195.318 666.819 58.234M366.993 419.197C476.738 283.994 589.869 152.37 673.762 57.836M369.178 423.055C454.946 319.083 538.729 223.15 676.954 60.2615M371.934 427.424C493.985 284.438 613.037 145.996 681.704 62.6891M374.397 430.381C436.681 352.651 503.428 274.724 688.003 60.9118M378.375 431.881C459.437 335.887 539.722 236.984 692.343 61.7728M379.011 438.546C461.006 338.943 545.477 240.036 695.474 62.2519M383.531 440.096C482.851 318.064 589.838 194.306 700.51 63.5273M382.512 445.946C476.477 334.895 566.347 227.497 706.273 65.4533M385.751 447.994C485.49 337.899 583.662 225.009 710.636 65.5385M389.517 449.627C466.9 362.338 537.392 276.601 715.822 69.9045M393.586 455.641C502.87 324.083 612.948 191.99 721.827 68.3677M393.306 459.936C467.083 372.327 540.186 287.65 724.787 69.9349M399.38 460.802C501.133 342.107 602.246 224.888 733.067 71.3764M400.142 465.387C524.916 315.385 649.861 167.192 738.597 70.2025M403.879 468.519C528.533 321.792 655.816 171.301 744.491 70.0678M408.057 472.208C475.411 392.891 544.348 311.901 747.236 72.1053M409.82 476.434C515.411 345.268 624.851 218.86 752.273 73.589M412.002 477.882C505.935 373.36 596.753 263.797 757.855 71.3465M416.034 481.452C532.309 342.752 648.4 204.564 765.901 74.0084M418.313 483.658C507.152 376.034 597.663 269.614 771.186 72.3144M421.986 489.592C550.299 338.311 680.844 187.044 775.238 73.4352M423.541 492.774C502.172 398.357 581.195 304.827 776.865 77.4757M426.392 494.579C552.16 346.887 680.893 194.023 776.644 85.3193M427.796 498.645C515.024 394.298 605.707 287.789 775.749 93.653M431.923 500.839C544.238 371.084 655.824 239.585 777.473 98.8474M434.845 503.252C545.321 379.746 652.618 251.842 776.607 106.023M438.938 507.339C523.848 410.564 606.082 312.197 772.442 115.751M443.732 509.668C544.572 392.698 646.172 273.486 774.389 122.625M446.653 512.41C535.548 403.26 632.473 295.179 772.308 128.068M449.057 514.352C539.686 406.53 633.266 293.715 775.177 133.647M451.814 519.537C536.015 419.469 624.583 318.78 771.708 143.001M456.47 522.462C580.778 376.352 702.642 231.321 771.333 147.962M459.033 524.181C550.771 412.308 647.98 302.442 772.967 153.924M461.263 526.845C563.21 405.821 666.489 283.073 772.432 160.264M466.54 530.368C528.765 459.13 592.814 386.386 773.846 168.02M468.327 531.416C567.508 417.21 664.558 300.647 772.029 179.589M472.997 533.88C545.972 448.934 620.975 362.387 767.926 186.617M473.92 538.682C546.708 460.385 620.5 378.429 768.44 191.596M476.173 539.562C555.611 444.426 641.483 347.444 769.185 204.535M483.074 543.706C582.428 432.93 679.881 317.874 767.538 211.805M486.17 547.031C562.855 456.226 641.517 365.183 766.35 215.831M488.149 548.892C591.841 433.751 687.668 315.69 765.807 224.27M494.427 551.626C572.792 459.191 650.34 364.58 759.171 239.827M497.242 554.679C590.762 441.48 684.321 327.317 755.208 251.906M499.425 556.747C576.286 474.682 644.621 391.699 754.803 259.434M502.39 558.656C595.697 451.425 681.403 349.19 747.354 266.453M507.551 560.795C566.132 498.52 619.509 433.591 749.234 278.752M512.99 561.967C593.118 462.275 674.668 367.08 742.401 291.663M515.798 563.28C573.803 493.867 635.132 426.324 740.033 299.519M520.916 566.787C566.184 511.095 613.883 456.115 736.568 310.591M520.039 566.801C595.225 484.076 665.132 399.118 734.176 320.039M527.804 572.157C578.665 512.452 626.837 459.967 738.642 321.38M540.684 565.095C596.299 495.942 650.814 422.273 733.317 336.585M552.487 559.937C610.197 486.826 664.869 418.144 724.722 349.249M566.971 551.858C608.222 491.406 650.081 437.181 717.063 364.119M574.151 541.141C619.962 487.322 663.572 440.262 713.596 383.752M595.06 525.124C624.337 486.583 649.273 461.965 698.414 399.458M310.828 112.076C314.526 108.782 316.147 106.285 319.526 104.736M309.468 118.846C317.923 112.085 319.548 103.733 323.532 101.403M313.377 122.983C314.796 121.401 317.635 113.415 329.789 99.4395M317.162 127.687C315.684 121.291 324.675 112.204 335.028 97.5405M316.522 131.431C325.28 123.213 335.757 106.035 341.271 99.6148M313.134 144.972C327.78 121.906 346.864 109.317 354.332 100.015M312.985 149.292C321.906 138.623 333.276 124.636 357.245 101.378M317.623 153.897C332.66 128.29 348.596 106.228 363.371 96.9484M314.904 155.871C340.327 131.775 359.082 106.608 367.325 97.7961M321.38 163.161C340.245 132.462 366.741 105.563 382.416 96.2465M322.552 168.062C344.849 140.741 362.264 119.478 386.928 92.6168M322.947 176.851C350.206 142.968 373.558 113.572 388.623 94.803M322.039 178.738C340.835 157.059 367.989 132.591 395.986 86.3881M318.849 189.429C346.508 151.576 379.999 120.376 404.037 84.554M319.713 188.717C353.563 150.039 391.435 117.631 417.275 88.3573M321.645 194.221C357 153.41 398.207 113.853 419.113 84.7895M324.183 206.17C352.998 170.567 387.084 135.91 429.931 78.7246M325.917 204.931C351.637 179.372 377.627 144.157 440.332 77.9615M324.499 217.418C365.783 171.828 401.733 123.883 442.728 76.5191M325.362 217.272C356.716 183.933 391.381 147.697 455.743 76.0447M330.683 225.519C369.841 175.83 417.863 124.923 461.938 70.2341M332.753 228.468C374.446 180.93 422.083 119.667 466.694 66.0537M330.83 238.168C383.949 177.971 434.198 122.722 479.408 60.7379M331.322 239.766C375.639 194.994 420.796 142.929 489.21 58.3612M336.639 242.219C388.108 183.309 441.505 118.57 502.013 54.2834M333.331 251.404C399.474 176.751 463.751 100.578 506.08 49.5571M334.743 254.413C396.22 182.488 456.391 113.341 519.069 44.4665M338.452 261.406C397.252 197.509 458.474 125.759 530.998 38.5043M339.348 264.079C403.276 188.626 464.92 113.532 532.55 41.2077M338.85 270.487C408.345 186.759 478.169 109.458 535.862 48.5556M344.785 276.143C409.942 192.174 486.372 116.653 539.54 50.4203M344.692 282.862C386.586 229.711 432.994 175.772 543 48.0696M344.828 285.04C413.69 209.028 477.167 131.564 550.418 54.4165M347.116 293.18C426.038 195.152 506.34 99.293 552.375 51.4467M345.3 298.494C414.308 217.633 487.19 135.021 558.661 52.0653M346.815 298.528C435.272 205.621 513.518 112.487 562.633 58.1965M351.815 304.148C432.43 215.741 506.135 132.096 562.909 57.1698M353.284 312.892C425.035 226.333 499.005 140.797 567.164 58.5247M352.764 313.158C417.947 249.162 477.703 177.605 570.127 65.7552M357.404 320.88C439.214 224.847 527.334 125.579 578.052 67.3601M359.874 324.539C417.341 249.726 482.735 174.999 579.492 67.6343M361.133 325.724C441.855 232.232 528.198 134.738 585.447 69.8403M361.305 329.642C429.731 250.293 498.192 174.944 588.257 72.6835M361.441 338.375C437.262 252.662 509.039 170.445 595.093 73.2584M367.871 344.227C425.547 264.659 488.428 192.738 601.368 71.0795M365.435 348.633C427.868 271.251 494.833 197.28 600.096 77.6194M367.225 347.975C452.122 258.1 529.212 168.087 607.805 77.9931M369.77 355.412C459.615 255.765 548.627 151.431 612.201 78.8031M370.756 359.802C428.986 293.855 482.96 234.159 614.696 79.2112M377.245 364.858C460.134 264.104 547.214 167.517 617.178 80.085M377.43 363.948C446.797 287.501 515.671 203.26 627.491 83.1014M380.717 369.251C436.933 306.215 488.44 242.71 628.612 85.6074M384.548 376.726C438.716 313.879 494.49 247.9 633.456 83.6793M385.749 377.728C437.927 318.245 493.311 256.054 637.074 85.7481M388.466 383.635C488.978 269.358 588.653 155.657 646.214 89.2274M390.026 386.356C480.212 279.761 570.693 172.37 646.891 88.1043M393.787 389.914C491.898 278.841 593.007 163.196 653.946 87.647M391.945 393.003C482.927 294.026 574.718 186.597 658.298 93.1113M396.831 399.283C470.739 303.576 551.762 213.408 662.26 93.2391M396.375 404.3C472.547 312.192 546.165 225.82 664.548 95.5564M399.915 406.261C470.557 322.729 541.317 244.929 673.898 95.8807M401.475 411.983C506.799 290.899 610.728 167.706 674.343 94.2538M403.923 412.616C499.429 308.575 590.279 197.163 683.598 96.6381M410.29 418.056C520.073 296.226 631.031 169.774 684.892 96.8942M412.029 420.09C508.065 310.222 606.285 196.16 694.518 95.8266M411.957 424.637C509.094 317.291 605.607 205.446 697.867 96.9863M415.783 428.988C515.974 309.706 621.266 195.502 704.229 99.778M418.723 431.717C488.896 351.503 557.639 269.679 709.691 98.544M423.353 434.395C512.928 331.302 604.703 230.373 714.625 100.461M424.9 438.475C525.715 317.533 633.668 199.626 715.852 103.552M429.257 444.765C497.841 359.106 566.956 280.862 722.833 105.225M430.73 446.754C524.684 339.195 613.543 230.322 726.458 103.324M431.171 448.144C533.526 330.603 631.705 214.433 735.013 102.621M435.283 452.692C538.638 334.092 639.301 217.841 737.824 102.9M438.041 457.1C542.547 324.924 653.712 199.045 740.33 105.995M440.786 461.639C529.437 349.223 622.687 246.709 743.717 115.767M441.712 461.461C555.125 335.226 668.73 205.445 742.475 118.867M448.266 466.934C542.917 352.235 637.923 236.99 742.427 130.347M451.163 470.786C556.517 340.211 670.015 214.501 738.588 133.307M453.625 474.536C560.774 350.23 671.441 227.076 738.217 142.701M456.665 473.243C573.842 345.101 684.419 218.96 737.178 152.534M457.407 479.629C525.269 408.303 590.548 329.113 737.998 157.351M463.943 478.678C556.814 371.908 649.84 262.023 734.934 165.057M466.894 486.136C560.376 380.198 647.73 277.187 736.174 175.732M466.601 485.882C563.793 379.554 660.807 268.754 736.236 179.258M474.58 487.784C572.967 372.78 679.951 255.065 732.38 191.6M475.218 494.915C563.039 393.847 650.413 292.807 733.375 199.915M475.228 496.356C540.612 428.91 594.815 357.972 731.4 207.326M481.795 501.174C569.726 394.358 659.834 286.033 727 211.556M484.13 502.791C539.132 443.083 589.554 385.678 731.035 220.034M487.047 504.017C544.995 436.118 602.641 365.819 726.359 231.591M494.088 510.017C571.866 415.068 654.793 322.82 723.533 242.778M493.701 512.264C571.992 420.366 648.212 330.975 721.602 250.312M501.335 509.867C575.79 424.457 648.549 336.238 719.782 257.592M501.627 512.175C572.981 437.081 645.625 352.683 717.111 267.251M504.844 515.71C552.07 474.651 594.013 422.318 713.055 275.818M509.853 518.045C578.036 448.363 641.96 376.296 712.025 285.499M516.61 524.708C553.902 475.781 595.745 428.258 710.629 296.225M513.717 522.801C557.1 479.864 597.933 434.453 701.422 309.181M517.708 527.737C567.636 472.485 611.867 423.828 695.359 324.618M523.086 531.142C569.576 472.933 622.919 410.831 697.313 332.724M525.588 533.952C573.057 477.746 616.6 420.793 692.243 344.881M544.75 521.315C585.673 478.941 619.699 429.611 682.111 359.677M559.507 514.296C602.446 458.513 646.746 413.723 674.994 380.293M571.437 497.325C603.461 469.344 622.62 438.19 646.652 413.115M311.806 117.59C311.507 112.558 313.658 106.812 319.993 103.576M312.499 119.154C318.389 112.928 318.957 104.633 323.387 100.813M309.225 130.127C318.635 124.51 321.641 112.945 331.022 103.482M313.037 131.297C323.097 125.327 330.092 107.843 338.389 102.427M314.908 144.902C322.615 127.579 337.886 111.618 341.023 101.243M316.934 144.412C322.137 131.522 334.793 111.475 352.707 100.03M313.233 153.628C329.315 142.495 337.208 125.586 353.213 102.313M317.203 160.97C329.057 143.233 338.229 126.208 362.468 97.2262M315.767 161.32C332.019 146.166 342.657 138.735 373.8 100.681M323.267 165.677C333.26 143.392 349.986 122.464 376.463 92.9942M321.612 173.525C341.555 147.983 357.794 128.492 388.134 97.3641M318.906 178.906C343.422 158.386 364.518 127.979 389.734 87.8589M325.923 189.711C338.762 161.961 356.358 137.588 399.339 87.8075M325.531 194.991C345.427 163.872 365.65 140.934 403.357 86.7555M319.372 197.709C349.168 168.695 379.031 138.884 413.522 81.262M321.264 203.406C346.936 172.958 372.905 142.011 419.499 80.7739M324.231 207.592C358.776 163.554 397.321 118.65 432.339 80.4541M322.848 213.513C370.983 159.996 407.696 107.07 441.394 75.5432M324.466 218.442C358.439 175.4 401.867 127.101 448.434 73.381M330.275 227.181C373.353 169.112 409.949 124.211 454.054 72.0985M330.836 232.967C358.621 191.398 396.836 149.494 461.639 67.0488M334.333 233.807C372.902 190.509 409.74 141.761 467.255 68.1964M334.509 240.17C384.31 177.727 442.564 108.24 481.231 64.1203M335.699 245.607C390.805 178.525 447.925 105.969 490.806 61.2519M331.773 253.262C371.212 206.189 414.313 162.287 502.237 58.5769M335.8 255.468C401.199 181.005 461.464 106.38 510.929 50.0235M340.305 263.111C397.42 185.601 459.673 114.896 517.228 44.1086M336.218 265.235C394.968 207.209 442.072 146.415 525.965 40.0591M342.852 270.323C406.441 196.754 469.491 126.457 531.513 46.5284M339.014 272.72C418.888 182.031 490.027 97.7664 537.406 47.5003M344.157 281.739C397.522 213.208 456.562 143.193 539.654 48.3525M345.258 283.237C385.063 232.453 422.164 182.823 541.797 47.6833M345.131 293.721C407.126 221.975 459.05 160.45 546.336 51.3048M347.813 296.418C400.109 230.915 458.771 162.624 554.707 51.6055M351.307 303.044C403.621 230.162 458.184 168.001 557.074 52.1576M351.641 304.712C425.529 218.264 493.959 132.516 563.605 57.1337M350.635 310.229C418.667 232.018 484.508 154.118 565.903 57.2891M355.083 316.332C424.193 232.86 488.691 152.748 566.147 58.9644M357.573 320.187C402.008 265.144 445.39 212.351 569.514 60.208M357.312 323.521C422.734 246.849 492.281 165.276 574.806 66.3555M359.315 329.167C439.489 238.136 517.453 148.757 583.138 65.122M362.011 334.329C419.722 269.774 472.308 198.652 585.196 70.7638M361.02 336.283C434.797 246.944 511.227 155.065 592.042 72.1633M367.637 340.782C419.232 268.34 480.517 204.2 593.868 72.0575M365.37 348.858C421.152 280.246 479.895 218.057 600.049 70.7289M370.305 349.572C426.737 279.708 484.385 209.535 604.514 77.0433M373.413 353.913C446.436 260.038 521.945 171.528 605.667 77.2352M371.139 357.844C437.511 283.545 502.559 209.043 612.383 77.7781M374.339 362.005C461.501 262.569 551.327 159.935 618.382 81.6757M378.632 366.981C466.297 258.991 563 151.062 618.992 79.1184M382.395 369.753C432.735 305.368 486.329 244.844 624.829 84.3239M379.614 375.726C468.415 277.119 556.138 174.731 630.57 85.2701M385.304 380.204C444.82 304.638 504.692 234.938 632.13 87.0443M388.295 381.129C484.269 277.83 578.194 167.756 639.114 85.2046M389.977 387.891C444.092 321.597 503.691 253.108 644.285 87.6769M391.59 392.032C476.607 290.254 562.824 193.995 649.365 89.6468M396.39 392.444C487.213 290.273 575.387 185.474 651.482 89.0494M397.278 398.442C499.323 276.777 606.424 156.927 660.305 89.0166M400.451 402.32C480.324 306.693 562.514 208.957 662.462 90.4611M400.298 404.626C479.785 315.147 556.978 220.624 665.455 91.2711M401.233 412.292C474.738 322.362 548.056 239.113 673.504 94.2092M405.517 413.705C488.626 322.638 569.52 227.645 676.903 97.5916M405.959 416.598C511.588 293.843 615.903 169.818 682.495 99.7591M411.746 421.624C494.115 327.064 573.322 238.239 688.24 98.4589M413.599 424.519C508.901 313.609 604.778 199.812 690.731 99.5245M415.701 428.588C515.723 304.516 619.553 184.56 698.15 99.695M417.277 429.525C492.556 345.31 562.591 264.969 701.273 100.079M422.484 433.223C488.048 363.18 551.572 291.497 708.337 99.3298M425.711 441.107C536.965 311.32 645.482 178.13 711.508 100.145M424.98 443.108C500.923 351.624 579.316 266.348 718.787 101.626M430.107 444.688C513.565 352.459 596.646 256.096 724.175 101.026M432.804 447.077C524.475 337.405 616.721 226.459 727.479 101.41M437.122 451.151C554.314 316.99 670.631 178.574 731.334 105.457M436.555 458.319C550.279 321.009 668.814 184.919 738.695 103.235M441.803 458.026C555.992 322.05 674.609 191.254 742.753 104.667M443.937 463.587C523.068 371.703 598.119 281.898 742.513 112.988M447.063 468.309C512.776 384.958 582.202 306.621 740.903 120.506M449.554 471.396C542.238 357.466 638.991 244.205 738.537 129.736M454.774 471.531C521.26 398.567 583.154 324.605 742.444 134.659M458.783 476.992C566.02 347.319 674.259 221.765 742.225 140.089M457.335 478.915C549.321 372.872 644.098 266.963 741.262 147.862M462.259 480.529C563.849 361.703 662.843 245.342 737.641 158.838M465.276 483.325C522.601 419.578 577.3 351.268 734.776 167.171M466.483 485.346C547.184 394.924 625.706 297.839 733.677 176.136M470.538 488.739C540.858 412.794 614.209 329.585 735.77 182.143M477.372 494.019C547.434 400.123 621.492 313.797 734.086 191.062M480.072 497.129C573.048 383.99 674.051 266.473 730.636 197.146M483.611 501.354C573.611 389.565 671.264 275.291 729.29 207.368M487.205 499.394C539.906 439.881 591.617 374.956 729.935 213.203M488.886 503.573C545.3 434.128 604.188 363.618 729.225 222.998M494.57 505.837C569.679 409.292 651.664 310.708 728.24 231.83M497.51 506.917C580.62 401.057 669.886 297.304 722.17 237.935M499.442 513.112C588.538 410.289 674.259 310.597 723.956 247.77M501.81 514.312C572.792 434.219 637.71 358.679 716.501 261.784M505.959 516.151C568.35 446.916 627.655 383.539 713.962 266.398M508.835 521.87C577.871 438.397 644.77 361.742 712.023 278.168M510.939 522.001C556.441 464.377 597.461 415.213 713.681 289.677M516.07 525.79C576.697 450.569 641.064 370.901 707.684 297.404M523.938 525.069C572.144 466.364 617.175 408.464 703.626 313.001M522.456 531.457C593.931 450.405 657.126 365.081 701.78 322.132M523.977 529.882C565.977 486.626 608.822 440.946 692.776 336.836M543.15 522.657C599.22 462.859 648.071 400.187 685.591 345.339M560.846 512.446C598.116 461.32 647.153 416.667 685.181 356.722M573.808 504.778C608.357 458.151 643.383 415.349 670.581 374.396M275.633 71.8005V71.8005ZM311.745 104.633V104.633Z" stroke="url(#paint0_linear_1733_8800)" stroke-linecap="round"/>
</g>
<path d="M442.465 260.29C443.674 258.667 445.14 255.672 447.942 253.058M441.052 270.223C445.781 265.044 447.004 260.629 453.318 253.259M440.062 276.804C445.673 266.839 452.425 259.734 459.681 253.475M445.755 278.508C448.99 271.198 456.051 264.186 467.709 250.727M448.27 281.445C453.923 274.858 459.181 262.771 468.222 257.658M451.304 284.252C456.797 277.613 461.472 269.8 472.081 260.303M450.658 288.724C457.587 281.237 463.763 276.23 475.741 262.474M454.406 288.674C462.486 283.937 466.694 278.272 479.256 266.862M461.391 295.066C466.345 285.813 470.17 283.534 481.172 269.291M463.173 298.169C470.033 290.063 474.046 282.324 484.746 271.034M466.359 297.181C474.946 289.64 478.771 282.59 487.574 275.54M467.522 301.727C474.544 296.086 483.991 288.863 489.727 278.118M471.932 302.818C482.043 294.887 489.026 286.836 494.423 278.503M477.437 305.832C479.951 301.014 485.394 294.519 497.72 283.961M476.934 309.629C487.343 303.301 491.967 296.141 501.545 285.521M480.991 314.018C489.582 307.813 494.073 300.51 504.954 290.46M484.474 316.601C491.98 305.306 498.781 297.889 507.682 292.804M486.329 320.625C494.119 316.704 498.561 309.659 506.813 295.631M490.903 320.641C496.367 317.182 503.161 309.273 512.638 300.459M496.032 325.032C518.132 296.56 542.476 269.735 554.454 255.98M499.671 328.409C538.444 283.763 575.124 238.71 600.04 210.946M501.111 331.574C542.347 282.575 586.618 234.921 628.154 188.866M504.083 335.515C551.846 283.683 593.167 228.958 633.279 188.645M510.061 336.976C556.23 278.872 608.081 220.356 636.66 186.067M509.929 338.653C550.188 298.931 582.116 258.71 642.178 185.289M513.514 342.982C549.14 303.094 582.254 262.862 649.511 188.737M545.731 309.99C576.165 277.884 606.148 245.047 651.65 194.018M581.094 282.022C595.526 261.589 613.088 242.048 651.774 200.72M613.643 249.299C627.853 235.323 642.519 219.15 647.907 205.915M441.948 253.577V253.577Z" stroke="url(#paint1_linear_1733_8800)" stroke-width="0.543811" stroke-linecap="round"/>
<path d="M446.926 259.897C448.135 258.273 449.601 255.278 452.403 252.664M445.513 269.83C450.242 264.651 451.464 260.236 457.779 252.866M444.523 276.411C450.134 266.445 456.886 259.34 464.142 253.081M450.216 278.115C453.451 270.805 460.512 263.793 472.17 250.333M452.731 281.052C458.384 274.464 463.642 262.378 472.683 257.265M455.764 283.858C461.258 277.219 465.933 269.407 476.541 259.91M455.119 288.331C462.047 280.843 468.224 275.836 480.202 262.081M458.867 288.281C466.947 283.543 471.155 277.879 483.717 266.468M465.851 294.673C470.806 285.419 474.631 283.141 485.633 268.897M467.634 297.776C474.494 289.67 478.506 281.931 489.207 270.641M470.82 296.788C479.407 289.246 483.232 282.196 492.035 275.147M471.983 301.333C479.004 295.692 488.452 288.47 494.188 277.724M476.393 302.424C486.504 294.493 493.487 286.442 498.884 278.11M481.898 305.438C484.412 300.621 489.855 294.126 502.181 283.568M481.395 309.236C491.804 302.907 496.428 295.748 506.006 285.128M485.452 313.625C494.043 307.419 498.534 300.116 509.415 290.067M488.935 316.207C496.441 304.913 503.242 297.496 512.143 292.41M490.79 320.231C498.58 316.31 503.022 309.265 511.274 295.237M495.364 320.247C500.828 316.789 507.622 308.88 517.099 300.065M500.493 324.638C522.593 296.167 546.937 269.341 558.915 255.587M504.132 328.015C542.905 283.369 579.585 238.317 604.501 210.552M505.572 331.181C546.808 282.181 591.079 234.528 632.615 188.473M508.544 335.122C556.307 283.289 597.628 228.564 637.74 188.252M514.522 336.583C560.691 278.478 612.542 219.962 641.121 185.674M514.39 338.26C554.649 298.538 586.577 258.316 646.639 184.896M517.975 342.588C553.601 302.7 586.715 262.469 653.971 188.343M550.192 309.596C580.625 277.49 610.608 244.654 656.11 193.625M585.555 281.629C599.987 261.196 617.549 241.654 656.235 200.326M618.104 248.906C632.314 234.93 646.98 218.757 652.368 205.521M446.409 253.183V253.183Z" stroke="url(#paint2_linear_1733_8800)" stroke-linecap="round"/>
<g style="mix-blend-mode:lighten">
<path d="M504.795 566.364L504.796 566.365L512.783 570.546L520.77 566.365L520.77 566.364C521.584 565.941 522.452 565.474 523.387 564.964L523.388 564.963C529.613 561.595 539.568 555.836 551.654 547.488C573 532.751 605.218 506.957 637.449 467.823C672.441 425.331 700.597 375.749 721.122 320.446C746.67 251.619 760.457 173.589 762.088 88.5495L762.41 71.6752L745.546 71.0105C691.765 68.9102 637.421 57.005 584.038 35.656C560.991 26.4394 542.808 17.2227 531.61 11.1175L531.729 10.898L531.609 11.1174C528.084 9.19125 524.688 7.27577 521.499 5.40359L512.783 0.289852L504.067 5.40359L504.066 5.40393C500.856 7.27567 497.461 9.20197 493.945 11.1175C482.747 17.2228 464.574 26.4286 441.517 35.656L441.424 35.4239L441.517 35.656C388.133 57.005 333.8 68.8994 280.009 71.0105L263.145 71.6752L263.467 88.5495C265.098 173.589 278.885 251.619 304.433 320.457C324.969 375.76 353.114 425.353 388.106 467.834C420.336 506.967 452.555 532.762 473.901 547.499C485.975 555.835 495.94 561.595 502.177 564.974L504.795 566.364ZM504.795 566.364C504.095 566 503.354 565.603 502.564 565.181L502.178 564.974L504.795 566.364ZM298.6 104.434L298.61 104.685L298.391 104.693C303.798 243.983 342.878 358.719 414.693 445.921C444.392 481.986 473.928 505.646 493.466 519.143L493.608 518.937L493.466 519.143C500.976 524.324 507.518 528.374 512.646 531.357L512.772 531.43L512.898 531.357C518.025 528.374 524.567 524.335 532.078 519.143C551.616 505.646 581.152 481.986 610.851 445.921C682.665 358.719 721.757 243.983 727.153 104.693L727.162 104.452L726.922 104.434C674.884 100.521 622.594 88.1718 571.227 67.6247C551.462 59.7211 532.579 50.872 515.1 41.3386L515.098 41.3377C514.517 41.0262 513.943 40.7084 513.374 40.3932C513.209 40.3022 513.046 40.2114 512.882 40.1211L512.762 40.0548L512.642 40.1203C512.272 40.3216 511.902 40.5255 511.533 40.7289L511.531 40.7301L511.53 40.7308C511.16 40.9346 510.791 41.1379 510.423 41.3385L510.423 41.3386C492.954 50.872 474.071 59.7102 454.295 67.6247C402.939 88.1718 350.638 100.521 298.6 104.434Z" stroke="#DFDFDF" stroke-width="0.5"/>
<path d="M498.033 297.925L498.21 298.102L498.386 297.925L610.901 185.41C617.623 178.689 628.526 178.689 635.258 185.411C641.99 192.132 641.98 203.035 635.258 209.768C635.258 209.768 635.258 209.768 635.258 209.768L510.399 334.627C507.033 337.993 502.627 339.665 498.22 339.665H498.199C493.792 339.665 489.386 337.982 486.02 334.626L429.268 277.875C422.546 271.153 422.546 260.25 429.268 253.517C435.99 246.796 446.893 246.796 453.625 253.518L498.033 297.925Z" stroke="#DFDFDF" stroke-width="0.5"/>
</g>
<path d="M117.397 123.043C117.909 123.388 118.625 123.815 119.585 124.566M116.46 123.638C119.61 125.341 121.284 126.122 122.463 127.903M117.133 124.578C118.623 124.941 119.742 127.854 126.173 129.553M117.303 126.823C120.179 127.789 124.203 131.442 129.785 133.793M117.449 126.513C121.371 129.25 124.542 130.304 132.755 137.136M116.984 125.82C123.097 132.191 130.151 135.094 133.511 138.866M117.258 127.381C122.461 130.728 125.369 135.332 136.934 140.918M116.661 130.721C122.56 131.579 126.845 137.867 142.107 143.481M116.93 130.387C125.776 137.979 136.445 140.873 143.499 147.116M118.274 131.04C123.472 136.235 128.373 139.11 147.296 150.947M117.804 132.749C123.498 138.061 131.051 140.688 151.155 154.01M117.773 131.604C124.284 137.811 132.503 141.934 152.375 157.056M117.508 134.643C128.725 141.899 142.591 150.646 154.844 158.235M118.133 134.874C132.446 144.392 144.681 152.249 158.78 162.165M117.852 134.831C131.382 142.883 143.519 150.61 162.749 162.796M116.749 136.56C131.06 145.337 145.141 156.254 164.03 166.384M118.938 138.86C137.356 152.088 158.299 161.99 168.859 171.252M118.14 139.527C138.865 152.758 157.937 165.217 171.663 172.168M116.754 140.496C136.306 150.36 153.85 163.75 173.674 174.811M117.776 140.084C130.613 147.007 143.512 155.828 176.351 177.717M118.509 140.361C138.214 154.015 155.797 165.597 179.756 182.356M118.891 143.517C140.352 156.764 162.104 172.065 183.624 185.352M117.29 144.18C139.586 157.856 163.973 170.9 187.249 187.099M119.458 144.975C143.766 162.341 170.73 177.713 188.278 189.804M118.154 146.48C137.631 157.147 158.598 170.354 192.966 190.942M117.518 146.773C141.932 161.577 165.009 175.481 195.841 193.969M117.329 146.821C139.42 159.876 163.219 175.186 199.257 197.019M119.227 148.035C139.035 161.073 162.088 175.362 201.994 202.087M119.464 148.805C151.975 171.412 187.29 191.624 203.471 202.817M119.179 149.044C147.675 167.486 178.775 189.243 205.688 206.553M119.344 149.401C143.691 164.865 168.589 181.992 209.36 210.219M119.348 150.618C156.048 174.557 189.525 197.518 214.244 212.404M119.375 153.677C140.895 166.959 162.264 182.287 216.796 214.744M118.119 152.497C156.468 177.712 192.292 203.386 217.887 217.698M119.405 154.955C153.772 176.684 185.346 196.249 222.155 221.749M118.361 154.7C145.8 171.529 171.301 188.306 224.518 224.011M119.231 157.33C158.572 182.616 195.745 207.7 227.85 225.246M118.925 156.185C146.779 174.432 177.802 192.024 229.681 229.594M118.459 157.984C152.973 180.477 186.824 203.249 233.876 230.807M119.369 158.047C156.534 183.369 194.568 207.878 227.399 229.69M118.957 161.111C158.055 185.558 194.999 208.497 222.04 226.382M119.241 159.755C154.311 182.924 186.001 203.6 217.495 222.394M118.487 163.651C144.156 175.745 167.275 192.363 211.739 219.342M120.634 164.243C142.939 176.924 163.837 190.012 206.27 218.037M118.948 163.317C149.805 183.223 181.292 201.574 199.929 214.461M119.888 165.574C144.963 181.562 166.24 195.746 193.358 214.128M120.915 165.341C136.471 178.146 154.196 188.68 190.153 209.641M120.346 167.726C138.091 176.95 155.744 188.596 182.709 208.859M120.425 166.679C135.57 175.769 147.928 186.595 177.713 205.485M120.751 167.829C131.397 174.561 143.144 182.724 172.621 202.96M118.593 168.41C135.859 180.14 154.823 191.438 166.493 200.22M120.599 169.11C133.388 177.683 143.65 185.507 163.824 199.897M120.336 170.222C133.795 180.549 150.334 191.313 163.465 199.338M119.942 171.597C130.808 179.353 141.919 184.852 165.272 200.852M120.071 172.864C134.079 182.386 146.399 190.31 164.409 201.621M119.518 173.367C129.859 179.395 141.092 186.688 163.718 201.112M120.209 175.12C130.626 180.322 138.595 187.121 163.214 202.31M119.756 177.307C132.454 181.756 141.439 191.26 164.787 205.701M120.979 176.306C133.219 185.598 146.367 193.802 163.451 205.053M120.112 178.503C131.736 185.653 145.994 193.507 164.764 206.417M119.895 178.364C132.093 185.252 142.33 191.582 163.966 206.676M121.165 179.608C129.188 186.927 140.489 191.782 166.1 208.682M120.164 180.734C131.565 186.298 141.451 193.768 165.272 207.252M120.996 180.594C133.32 190.296 145.004 195.128 163.867 211.231M120.822 183.498C136.93 191.326 149.64 200.881 164.924 209.022M121.674 183.046C134.266 193.975 147.703 201.11 163.535 212.219M122.245 183.42C133.574 193.146 145.791 198.516 163.394 211.73M120.779 185.388C131.476 193.233 146.055 200.151 163.521 213.669M121.467 186.688C136.271 194.57 149.446 203.034 165.343 212.701M121.05 185.908C135.936 195.455 149.023 206.708 163.704 215.93M120.886 187.248C137.355 198.499 153.878 209.366 164.632 216.788M120.141 187.622C129.726 194.228 141.35 199.573 166.422 217.942M122.061 189.695C133.221 196.94 147.558 206.391 163.116 216.497M121.992 189.693C137.987 200.299 153.412 211.592 165.767 217.729M123.182 191.653C139.235 202.693 155.306 213.786 163.643 219.194M122.677 191.444C133.452 200.685 146.479 207.923 164.726 220.188M120.829 193.235C130.662 199.037 139.884 206.642 164.384 222.376M122.528 194.448C138.517 204.305 154.111 216.043 164.234 221.224M122.323 196.039C136.753 206.905 155.026 217.435 164.301 223.362M122.682 195.067C131.643 203.409 143.598 212.546 164.047 223.659M121.721 198.9C130.532 203.096 140.538 209.068 164.634 225.363M122.394 198.181C136.78 208.215 154.617 217.318 163.918 225.701M122.638 200.757C134.266 206.303 146.643 215.01 163.837 228.194M120.801 200.532C133.562 207.006 142.41 215.085 163.734 226.366M123.088 200.727C133.435 209.135 144.866 217.102 165.191 227.615M123.062 203.297C135.116 211.312 148.589 220.432 163.666 229.022M123.559 204.104C134.175 208.639 143.116 215.583 165.356 231.353M121.982 203.641C136.569 212.767 148.292 219.279 163.634 230.449M123.097 204.608C136.227 215.713 151.374 223.418 163.541 232.385M122.191 207.248C138.458 214.956 152.576 222.724 165.094 231.329M124.072 207.176C137.402 215.328 152.587 225.312 163.392 234.436M122.243 208.151C132.151 214.493 144.195 221.972 163.539 234.611M123.446 207.769C133.779 217.309 147.898 223.965 164.727 234.769M123.752 210.237C133.749 217.207 145.686 225.191 165.786 235.948M122.437 209.684C133.783 216.647 144.273 222.031 166.104 237.253M124.029 211.354C137.429 219.094 148.504 227.148 166.075 239.017M121.621 212.495C138.58 221.231 154.62 232.682 164.121 240.435M123.057 213.693C134.263 220.874 145.457 226.368 164.387 241.253M123.491 212.491C135.952 222.628 148.885 231.576 163.177 239.782M122.318 215.92C137.572 223.23 151.562 234.576 163.72 241.909M124.207 215.703C134.664 222.926 146.003 229.547 166.103 243.976M123.557 216.523C136.764 227.831 152.351 237.066 163.368 244.745M123.404 218.417C133.53 223.454 143.579 231.231 163.532 244.203M123.773 217.514C131.762 225.28 140.219 230.073 166.644 246.561M122.818 220.411C139.354 229.954 154.795 240.488 165.014 247.5M122.236 219.747C134.144 228.688 147.902 237.399 164.676 246.899M123.779 221.977C139.707 232.035 154.222 241.61 164.34 248.31M123.699 221.919C138.775 232.26 151.371 239.222 164.546 249.458M125.165 222.006C138.557 233.505 152.609 241.343 164.025 249.737M123.013 224.053C131.828 231.439 142.052 235.47 164.349 251.334M122.514 225.478C138.899 234.963 152.564 242.767 166.161 250.597M124.343 225.43C133.537 231.778 145.505 240.452 165.443 254.016M123.921 227.114C140.004 236.421 155.31 247.142 164.806 252.285M124.578 228.23C138.818 236.828 150.488 244.402 165.806 253.315M124.72 228.483C139.803 240.11 155.584 249.203 165.542 254.489M124.447 229.959C139.794 240.726 154.517 250.897 164.317 255.633M124.662 231.62C137.432 238.934 153.322 249.648 164.87 257.003M123.488 230.962C140.371 242.072 157.854 251.767 166.533 257.708M123.989 234.296C132.752 236.935 141.91 242.611 166.092 257.616M122.891 231.644C135.257 241.338 148.384 249.547 165.085 258.417M119.405 233.435C135.93 242.865 149.412 251.811 164.847 261.892M119.782 230.966C128.336 239.61 139.995 243.38 165.494 262.146M117.05 232.463C127.589 236.859 137.904 244.233 166.21 261.513M114.95 230.815C127.589 239.723 139.57 249.152 165.529 262.019M111.219 229.877C130.704 240.986 146.392 251.67 165.91 262.786M111.359 229.483C121.418 235.957 131.834 243.36 166.689 266.078M108.655 229.657C122.244 238.95 135.324 246.506 165.636 266.471M107.439 229.729C128.577 245.689 150.948 258.763 164.263 267.37M104.119 229.154C116.441 237.089 130.423 246.813 164.098 268.959M103.791 228.81C123.209 241.888 144.389 257.349 164.895 268.798M100.692 227.867C118.524 240.894 140.176 253.281 165.087 269.228M97.3677 228.35C123.247 244.054 148.173 257.829 165.307 269.473M95.923 227.36C113.305 238.348 127.436 249.531 165.626 271.409M95.9915 227.389C118.64 241.143 142.051 257.485 165.214 272.861M91.5281 225.927C110.756 237.337 127.398 249.781 165.782 272.728M89.1575 224.982C113.567 241.768 137.429 257.257 164.063 274.562M88.4862 226.772C109.825 239.694 130.59 253.043 164.613 276.26M87.4511 224.47C113.704 244.395 138.637 259.088 163.829 275.184M83.5407 226.364C105.41 237.087 127.106 251.49 166.083 275.316M81.2359 224.432C111.233 244.365 138.246 260.47 165.757 278.874M81.3363 223.295C108.968 240.711 138.634 261.768 166.16 277.094M78.9236 223.836C100.011 239.14 122.759 252.659 164.929 280.008M76.0839 223.757C108.316 243.812 137.808 261.703 166.128 279.095M75.8101 222.71C103.058 240.053 130.751 258.359 164.691 281.474M73.7105 224.079C99.8915 240.661 131.333 259.853 165.186 282.62M70.8574 222.691C92.402 237.347 113.976 250.872 165.681 282.848M68.7399 221.14C95.4071 238.84 122.051 255.641 163.48 283.127M65.5015 222.236C93.5921 239.7 121.86 258.494 164.299 285.366M65.345 220.938C101.635 246.643 141.938 269.797 163.984 284.459M62.6055 220.685C92.9134 239.66 119.141 257.656 163.7 286.25M59.961 219.598C85.9847 235.779 112.051 253.019 165.183 288.407M57.7219 221.242C81.151 235.799 103.623 251.333 164.72 287.093M57.7438 218.299C85.7767 237.374 112.547 257.531 163.911 289.095M54.6382 220.296C81.7696 235.698 109.871 254.008 165.841 289.06M51.3345 218.941C77.2681 235.876 103.445 251.803 166.048 290.107M50.9527 218.524C75.724 233.995 98.8117 249.924 164.066 291.891M49.5719 216.94C92.0018 246.854 135.391 274.12 164.355 292.19M46.2948 217.856C71.4531 234.087 98.253 251.066 164.167 293.493M45.2351 218.751C93.2092 249.14 139.779 279.259 166.27 293.511M53.8672 225.032C98.7821 250.72 140.251 278.827 164.907 296.213M65.1336 231.961C86.3682 245.417 107.651 258.022 165.803 297.076M73.6813 239.736C110.244 262.542 145.146 284.157 165.885 296.543M84.4941 247.471C103.612 256.843 120.408 269.716 165.35 296.781M95.5243 253.31C121.564 269.161 148.343 288.792 163.884 298.056M105.498 260.776C119.52 269.776 133.772 279.489 164.931 298.691M116.122 268.458C124.947 276.2 136.582 283.055 166.193 302.256M123.966 275.085C133.104 282.981 143.334 288.321 164.863 300.888M133.488 283.578C144.525 288.916 150.862 293.259 166.107 303.326M143.148 289.324C149.241 294.795 156.035 299.614 164.169 302.413M154.541 297.55C157.861 299.806 159.516 299.644 165.316 304.908M116.92 121.894V121.894Z" stroke="url(#paint3_linear_1733_8800)" stroke-width="0.392629" stroke-linecap="round"/>
<path opacity="0.5" d="M162.46 311.818C126.118 285.628 63.263 240.173 43.0545 225.008C41.2301 223.639 42.3599 221.419 44.5788 221.947L119.492 239.777C120.99 240.133 122.395 238.916 122.257 237.383L112.594 130.533C112.407 128.465 114.88 127.267 116.387 128.695L229.863 236.245C231.801 238.082 229.498 241.166 227.186 239.83L165.098 203.947C163.56 203.058 161.647 204.216 161.72 205.99L166.02 309.892C166.097 311.77 163.985 312.916 162.46 311.818Z" stroke="#DFDFDF" stroke-width="0.375407"/>
<defs>
<linearGradient id="paint0_linear_1733_8800" x1="526.409" y1="-0.416016" x2="526.409" y2="573.226" gradientUnits="userSpaceOnUse">
<stop stop-color="#3CA0D2"/>
<stop offset="1" stop-color="#48DCA6"/>
</linearGradient>
<linearGradient id="paint1_linear_1733_8800" x1="545.918" y1="185.289" x2="545.918" y2="342.982" gradientUnits="userSpaceOnUse">
<stop stop-color="#3CA0D2"/>
<stop offset="1" stop-color="#48DCA6"/>
</linearGradient>
<linearGradient id="paint2_linear_1733_8800" x1="550.379" y1="184.896" x2="550.379" y2="342.588" gradientUnits="userSpaceOnUse">
<stop stop-color="#3CA0D2"/>
<stop offset="1" stop-color="#48DCA6"/>
</linearGradient>
<linearGradient id="paint3_linear_1733_8800" x1="138.11" y1="163.087" x2="67.3018" y2="273.845" gradientUnits="userSpaceOnUse">
<stop stop-color="#3CA0D2"/>
<stop offset="1" stop-color="#48DCA6"/>
</linearGradient>
</defs>
</svg>
