<svg width="458" height="507" viewBox="0 0 458 507" fill="none" xmlns="http://www.w3.org/2000/svg">
<path d="M312.074 78.777L312.074 78.777L312.077 78.7801L375.045 141.748C376.966 143.669 378.045 146.274 378.045 148.991C378.045 151.707 376.966 154.313 375.045 156.234L312.078 219.202C310.156 221.122 307.551 222.201 304.835 222.201C302.118 222.201 299.513 221.122 297.592 219.202C295.671 217.28 294.592 214.675 294.592 211.959C294.592 209.242 295.671 206.637 297.592 204.716L353.14 149.168L353.316 148.991L353.14 148.814L297.592 93.2659L297.592 93.2659L297.589 93.2629C296.61 92.3179 295.83 91.1874 295.293 89.9375C294.756 88.6876 294.473 87.3433 294.461 85.9831C294.45 84.6228 294.709 83.2738 295.224 82.0148C295.739 80.7557 296.5 79.6119 297.462 78.65C298.423 77.6881 299.567 76.9274 300.826 76.4123C302.085 75.8972 303.434 75.638 304.795 75.6498C306.155 75.6616 307.499 75.9442 308.749 76.4811C309.999 77.0181 311.129 77.7985 312.074 78.777Z" stroke="white" stroke-width="0.5"/>
<path d="M151.424 148.988L151.6 148.811L207.148 93.2627C209.069 91.3415 210.148 88.7362 210.148 86.0197C210.148 83.3032 209.069 80.698 207.148 78.7768C207.148 78.7768 207.148 78.7768 207.148 78.7768M151.424 148.988L207.325 78.6L207.148 78.7768M151.424 148.988L151.6 149.164L207.145 204.709C207.146 204.71 207.146 204.71 207.147 204.711C209.012 206.643 210.044 209.23 210.021 211.915C209.997 214.602 208.92 217.171 207.021 219.07C205.121 220.97 202.552 222.047 199.866 222.071C197.18 222.094 194.593 221.062 192.661 219.197C192.66 219.196 192.66 219.196 192.659 219.195L129.695 156.231C127.774 154.309 126.695 151.704 126.695 148.988C126.695 146.271 127.774 143.666 129.695 141.745L192.663 78.7768C194.584 76.8563 197.189 75.7773 199.906 75.7773C202.622 75.7773 205.227 76.8562 207.148 78.7768M151.424 148.988L207.148 78.7768" stroke="white" stroke-width="0.5"/>
<path d="M168.664 400.861V400.611H168.414H52.9735C39.128 400.595 25.8544 395.087 16.0642 385.297C6.27401 375.507 0.766585 362.233 0.75 348.388V54.5383C0.766624 40.6929 6.27405 27.4193 16.0642 17.6292C25.8544 7.83899 39.1279 2.33157 52.9733 2.31494L451.769 2.31494C465.614 2.33153 478.888 7.83895 488.678 17.6292C498.468 27.4194 503.976 40.693 503.992 54.5381V243.442C503.992 246.159 502.913 248.764 500.992 250.686C499.071 252.607 496.465 253.686 493.748 253.686C491.031 253.686 488.425 252.607 486.504 250.686C484.583 248.764 483.503 246.159 483.503 243.442V54.5381C483.503 46.1218 480.16 38.0501 474.209 32.0989C468.257 26.1476 460.186 22.8042 451.769 22.8042H52.9732C44.5568 22.8042 36.4852 26.1476 30.5339 32.0989C24.5827 38.0501 21.2393 46.1218 21.2393 54.5381V348.388C21.2393 356.804 24.5827 364.876 30.5339 370.827C36.4852 376.778 44.5568 380.122 52.9732 380.122H451.769C460.186 380.122 468.257 376.778 474.209 370.827C480.16 364.876 483.503 356.804 483.503 348.388V306.409V306.159H483.253H63.4678C60.7508 306.159 58.145 305.08 56.2238 303.159C54.3025 301.238 53.2232 298.632 53.2232 295.915C53.2232 293.198 54.3025 290.592 56.2238 288.671C58.145 286.749 60.7508 285.67 63.4678 285.67H493.748C496.465 285.67 499.071 286.749 500.992 288.671C502.913 290.592 503.992 293.198 503.992 295.915V348.388C503.976 362.233 498.468 375.507 488.678 385.297C478.888 395.087 465.614 400.595 451.769 400.611H189.403H189.153V400.861V453.334V453.335C189.159 455.026 188.745 456.693 187.95 458.185C187.154 459.678 186.002 460.95 184.595 461.889C184.595 461.889 184.595 461.889 184.595 461.889L157.781 479.73L157.67 479.804V479.938V484.818V485.068H157.92H346.823H347.073V484.818V479.938V479.804L346.962 479.73L320.148 461.858C318.745 460.922 317.595 459.654 316.8 458.168C316.005 456.681 315.589 455.021 315.589 453.334V432.345C315.589 429.628 316.668 427.022 318.59 425.101C320.511 423.18 323.117 422.1 325.834 422.1C328.551 422.1 331.157 423.18 333.078 425.101C334.999 427.022 336.078 429.628 336.078 432.345V447.72V447.853L336.19 447.928L363.003 465.8C364.406 466.736 365.556 468.003 366.351 469.49C367.147 470.977 367.562 472.637 367.562 474.324V484.818C367.562 490.319 365.377 495.594 361.488 499.483C357.599 503.372 352.323 505.557 346.823 505.557H157.92C152.419 505.557 147.144 503.372 143.255 499.483C139.365 495.594 137.18 490.319 137.18 484.818V474.324V474.323C137.175 472.631 137.588 470.965 138.384 469.472C139.179 467.98 140.332 466.707 141.739 465.768L168.553 447.928L168.664 447.854V447.72V400.861Z" stroke="white" stroke-width="0.5"/>
<path d="M17.0912 34.175C19.7451 28.0273 24.2619 22.4993 33.9347 12.488M15.8064 36.2271C22.4884 25.3387 30.745 19.0448 37.3539 11.6444M16.2362 37.5944C22.9904 30.3449 27.3822 23.3695 40.6212 8.83479M16.3735 40.4794C25.2757 31.8024 35.0093 20.671 45.295 9.73782M15.0254 43.1519C27.2957 31.8466 38.4864 18.1483 48.1194 4.9328M14.1045 45.5235C27.3075 30.7816 41.9375 17.9218 50.3938 5.524M16.7344 47.5632C31.5419 30.8237 44.8191 15.1751 55.23 4.01886M16.1687 52.4971C27.8187 37.2137 36.8088 25.9422 58.7066 4.10423M15.4614 54.4527C31.7795 35.3324 48.9632 17.1748 59.8083 3.28627M14.9815 56.6975C32.6194 37.4212 49.9881 16.8357 61.3742 2.79832M14.1131 59.1475C26.1607 49.6219 37.3113 36.2086 64.9529 4.2621M14.2435 61.4317C33.8358 42.4458 49.7692 22.049 67.9789 3.49455M15.8763 66.7116C20.5951 59.4241 28.9434 51.0267 48.4145 28.9453M47.3954 30.7926C53.5769 20.6923 61.974 10.5265 69.4609 4.55657M16.813 68.5852C27.2426 56.176 35.044 44.2962 44.7383 38.035M51.7979 26.8459C57.0689 17.5239 67.9422 7.12494 71.3153 3.107M16.798 69.1676C25.529 61.2613 33.2325 50.1741 39.9851 45.0136M52.4103 27.8291C60.4528 19.6279 71.0409 9.48385 74.5318 3.55565M15.9816 72.2083C21.026 70.6284 22.331 64.5347 30.7015 54.2733M54.5995 28.1817C63.7547 21.0934 68.3432 12.165 75.9856 4.15629M15.2502 77.9386C20.2661 71.8293 24.3727 67.1841 31.6941 59.3907M60.3002 24.6449C66.3664 17.7526 74.2384 10.1388 79.1331 2.12081M15.3553 79.2631C19.0679 71.2281 25.4164 67.6569 30.7078 60.4447M64.0543 22.4532C68.8753 19.8811 70.0359 14.7002 81.0525 3.11603M14.8248 82.9648C20.2131 75.5186 27.3138 67.6141 33.3912 62.5987M65.8123 22.0467C72.9826 17.0067 79.5169 6.27068 82.3152 4.14303M15.9424 84.518C20.1243 75.5798 27.2054 69.1061 32.6984 64.8887M69.1953 24.3457C71.0154 17.0111 75.853 11.8955 84.2215 4.61588M16.7291 87.8972C18.6923 83.7656 20.4179 77.6372 32.1891 68.3608M71.004 24C75.7441 17.1101 81.1989 12.7653 88.6214 3.41239M14.9261 91.2056C19.3152 86.6002 24.2345 82.0455 32.6412 71.2343M71.1424 23.5726C80.4317 18.353 84.1742 9.29865 91.3333 4.04193M16.4718 93.0307C19.9054 86.2135 25.6686 83.4163 31.4052 74.7584M76.1831 24.7794C80.3016 16.3822 85.5568 13.2929 93.4209 1M14.4177 96.1898C19.6738 89.3638 25.2933 87.066 30.8465 77.3706M78.9257 25.3613C82.7081 20.3038 86.6976 13.5882 96.957 3.15791M13.7781 98.1155C22.8614 92.0865 25.565 84.3559 31.0129 80.3188M80.2451 23.5822C86.8552 15.2278 93.0144 9.6907 97.2716 3.45207M13.3144 102.189C20.0781 98.4284 21.0209 94.6002 31.7674 82.4788M81.4405 23.897C86.0723 17.9964 93.4609 9.73268 99.9559 3.70948M16.3663 105.014C22.6967 96.7571 27.8698 91.2063 32.1461 86.0053M84.388 23.1469C89.4296 17.904 93.4649 13.4629 103.07 2.99779M14.129 105.122C20.0839 99.8695 26.3443 92.512 29.9524 88.195M88.1593 22.5579C89.4193 18.8622 94.8263 15.7121 103.231 2.476M14.7321 107.651C19.8609 104.348 22.6272 99.3054 33.2083 91.206M88.7598 23.8924C93.3461 19.6339 96.4177 12.5831 106.991 4.56721M15.7389 112.05C20.0693 108.632 23.7781 102.47 30.7177 93.8237M90.3239 24.2627C96.4843 19.0996 100.364 13.1056 110.091 4.18666M16.4829 112.297C19.1225 108.257 23.5395 103.399 31.2269 94.6212M92.9158 22.7713C98.7683 20.5737 99.5965 15.5263 113.291 4.25387M14.7965 115.463C19.2474 112.129 24.4206 106.577 30.2729 99.4034M95.1954 22.3628C98.9789 18.2169 104.19 15.6384 113.627 3.57801M16.1077 120.971C20.0502 116.83 22.7501 111.462 32.5606 100.508M97.8149 24.4345C104.442 17.1717 112.033 10.0129 116.062 2.22897M16.4189 122.389C20.3928 114.751 29.1916 109.609 31.5949 104.064M101.451 23.133C104.526 19.1737 107.449 14.6396 119.939 2.21446M17.2531 123.855C18.7231 120.117 21.1965 116.853 32.3007 107.054M101.763 24.4037C107.013 19.7078 110.366 13.7478 120.779 3.90137M16.8417 127.152C18.7705 124.209 23.4737 117.049 30.7826 107.39M105.755 22.6633C108.733 19.2665 112.338 14.7072 124.041 2.53222M16.5373 130.302C19.9477 127.826 22.8361 123.387 32.6039 113.095M109.573 22.8658C112.856 20.8463 117.079 15.8619 126.726 4.58432M15.7914 133.073C19.896 129.724 22.8738 124.169 30.2409 114.616M111.6 22.7967C118.099 16.6601 124.18 6.8059 126.74 3.05873M14.4715 137.478C18.0768 130.991 21.0191 125.932 31.5967 115.342M110.741 24.0229C116.304 19.323 120.435 15.2346 131.658 4.03614M14.4159 138.982C19.5702 130.73 25.3201 126.131 31.0173 120.262M116.132 25.1349C120.052 18.5482 122.904 11.5972 133.963 4.32029M16.1403 141.077C19.5139 133.59 25.3044 128.935 30.6226 122.011M118 21.8457C125.17 16.4299 132.622 7.57886 134.27 3.9968M14.8379 145.06C17.3817 140.595 23.6574 136.788 32.7385 123.909M118.004 24.993C125.471 16.0053 130.62 7.98022 137.705 4.87484M15.4048 148.071C20.7755 142.988 22.2817 136.88 30.2609 128.689M120.995 22.6294C126.303 17.169 129.671 14.3297 139.988 1.56505M14.2849 147.55C19.986 142.864 24.835 138.242 31.9896 129.223M123.201 25.1378C128.785 16.4077 136.992 9.71927 141.121 3.85878M13.3397 152.541C20.5135 146.125 24.1218 142.746 31.8327 131.36M125.386 22.5268C129.084 20.8021 133.24 17.0101 143.371 2.42667M15.0087 154.664C20.535 150.703 22.0852 145.182 31.3652 135.006M127.034 24.0166C132.548 18.9262 137.713 13.253 146.595 2.80962M16.2966 155.456C21.127 152.942 24.6914 146.965 33.0742 138.962M131.181 22.3278C136.108 16.3974 140.672 11.0079 148.797 2.72344M13.3025 158.755C21.2646 154.701 24.2864 146.936 30.1975 140.404M133.234 22.9531C139.363 15.9323 144.858 10.0253 149.664 5.26627M14.6158 162.965C20.9835 156.069 27.5636 148.2 31.3528 144.359M136.705 23.6141C141.312 15.0386 149.082 6.83294 154.695 4.61635M14.6941 166.317C20.6778 160.435 26.6322 153.865 31.4291 145.146M138.809 25.4299C144.357 16.7766 147.651 13.1856 155.159 4.63708M15.7546 168.163C18.079 163.361 20.2586 158.677 31.2971 150.395M139.175 23.4859C143.737 19.6173 148.106 15.0197 158.94 4.72596M14.2921 171.695C20.2295 163.9 27.9374 156.69 31.0205 150.202M141.561 24.219C148.344 17.6914 153.307 14.0821 158.862 3.30837M15.3646 173.452C19.9999 168.126 24.8256 161.349 32.3795 155.001M146.451 24.7203C150.835 16.8133 157.835 9.27732 163.67 4.12211M13.736 178.103C21.094 168.973 26.0146 164.822 31.513 158.755M148.325 24.187C155.744 18.0641 159.497 7.39554 163.282 4.42484M15.0419 180.555C18.9493 175.384 24.2667 168.158 31.0347 158.21M150.367 22.9864C153.335 18.3362 159.276 13.7003 165.972 3.35483M14.5086 183.16C17.9109 177.481 24.3404 172.066 32.971 163.937M152.113 25.5354C156.984 19.2228 159.104 16.4985 171.263 4.13837M13.5459 183.055C17.3002 180.956 24.1279 175.242 33.0849 163.754M154.423 25.555C159.876 19.8236 160.584 16.7803 171.128 4.70201M15.9404 188.092C17.5071 184.679 21.2164 177.407 30.056 168.266M155.51 24.8744C160 20.3294 164.265 14.5631 174.703 2.87497M16.153 188.874C22.7383 183.341 29.3439 174.148 31.8838 171.719M160.305 24.0758C161.574 19.9891 165.598 16.1077 175.263 3.28685M15.4957 193.104C22.636 185.223 27.941 176.497 32.9551 171.901M160.462 24.1049C167.149 15.5745 173.814 7.14657 177.508 4.49756M13.1176 194.986C20.7107 188.557 24.3563 186.062 32.3848 174.666M163.065 24.9551C168.454 18.0397 173.577 12.6142 182.816 5.75459M13.5615 197.145C19.2343 192.136 22.4231 189.782 30.3525 176.924M165.773 23.5754C172.346 16.3667 175.142 13.8837 184.355 4.50964M16.2496 199.478C20.0655 193.677 26.3975 185.595 31.0399 182.703M167.986 23.9926C174.038 16.6243 183.213 7.16432 185.497 5.20954M15.6157 204.541C18.9629 198.107 22.6988 194.053 30.5598 184.902M168.989 24.3708C179.285 16.0348 183.957 7.29696 188.335 5.08579M14.6627 204.548C20.6315 200.448 23.2039 195.643 33.2015 185.931M171.408 23.4324C178.479 19.0958 183.588 11.8704 191.692 2.63873M15.8677 207.567C19.531 203.83 25.8595 197.104 31.8047 187.828M174.159 24.9207C182.56 15.3722 186.525 11.0287 194.11 2.9053M13.5018 212.373C18.7705 205.632 22.6596 201.797 30.6928 192.14M178.656 23.8503C184.683 15.8561 190.497 10.3879 196.8 3.64748M15.0238 213.701C21.5263 205.827 27.4802 199.652 32.5078 194.597M180.564 23.0798C186.231 18.2316 194.753 7.52634 198.554 3.63877M13.5328 216.781C19.142 209.245 24.9415 202.147 31.6466 198.475M183.994 25.6892C187.557 15.076 194.85 7.4215 198.442 3.1579M14.5101 219.466C20.7836 211.831 28.2096 205.843 31.1437 198.79M186.043 25.1881C188.304 18.7906 192.601 14.3274 202.725 2.89811M14.3146 221.873C18.0158 218.906 22.5892 213.248 32.9991 202.592M186.001 24.5881C191.458 20.0081 193.132 13.887 204.062 3.31821M16.4083 223.671C19.2009 220.89 21.8097 218.053 31.9066 204.996M190.404 25.7022C195.053 17.2133 202.838 10.3553 205.25 4.91194M15.8058 228.631C18.2009 223.463 21.778 220.446 30.3392 207.094M190.889 24.5191C199.182 16.648 204.068 8.31116 209.735 4.23469M15.939 231.436C18.4063 224.56 23.455 220.348 32.5253 210.862M192.291 25.3141C199.532 18.4603 201.994 14.7822 210.021 3.74176M14.8164 231.398C20.3154 229.037 23.7264 224.348 32.3642 211.926M196.563 25.307C203.47 15.3912 208.504 11.3371 213.509 5.63445M15.2582 237.367C20.3503 228.6 26.5164 222.936 31.0026 216.44M200.485 22.5555C203.823 18.1591 207.206 13.603 217.21 4.85266M16.443 237.026C19.869 233.848 22.9219 228.647 31.5073 219.629M200.863 26.2891C206.751 18.6416 209.908 13.0813 219.678 2.22518M16.3025 241.651C22.5792 233.306 28.524 228.095 32.8171 221.652M202.037 24.4466C210.747 17.0921 217.394 10.2042 221.741 4.09964M15.0678 243.449C20.3728 237.634 25.1004 233.254 32.9598 223.516M206.925 25.8235C211.177 18.7883 213.231 14.8727 224.338 4.83867M14.9082 247.613C20.4292 242.212 25.1887 234.896 30.961 225.031M207.853 23.29C213.282 18.4046 218.703 12.2994 225.514 5.22937M14.027 250.737C18.8656 242.009 25.3581 238.456 30.85 230.208M208.654 25.7813C213.921 20.1179 219.571 15.1187 227.555 3.3474M15.2436 250.735C22.3236 245.317 27.4307 236.118 31.4545 232.644M211.378 25.0342C218.508 18.3492 227.641 10.7583 229.363 2.78036M13.3928 256.44C18.2196 250.466 26.4845 244.933 31.8555 233.94M214.01 24.4981C221.861 16.3545 226.803 9.42304 231.725 5.21728M13.246 257.752C20.0343 254.408 21.2757 248.805 32.6421 236.793M215.897 25.6313C220.302 19.6327 227.125 11.7152 236.492 2.79454M12.62 259.672C17.7936 257.03 20.9526 251.348 31.2272 238.939M220.832 25.4456C224.808 18.6567 227.336 13.9321 238.152 2.93151M14.8537 262.739C19.4041 259.87 21.1819 255.306 32.4794 242.392M220.852 24.5616C227.311 17.0537 232.138 13.0826 239.064 5.96118M16.3455 263.782C18.593 260.053 23.8515 251.686 32.7015 247.426M226.06 22.7714C231.2 16.5495 237.863 9.85411 241.487 5.96195M15.958 268.016C20.7339 260.662 26.0247 254.991 32.9525 247.798M225.331 24.1287C234.351 16.1999 238.806 10.0592 242.743 2.4335M16.0822 269.542C19.4114 264.754 24.7143 258.398 32.9296 250.736M228.879 22.7989C235.253 16.549 239.509 13.1534 246.037 4.87717M13.8952 273.063C18.1626 269.2 23.2149 261.985 32.8142 253.643M230.093 23.9413C236.169 16.2818 242.511 10.0369 250.228 3.89703M13.2829 275.453C17.7271 272.862 22.9119 265.948 31.4813 256.719M233.554 24.2088C239.369 17.2836 248.19 9.26687 250.315 2.63224M15.296 277.931C17.5172 275.54 22.2176 270.451 32.2744 257.97M234.14 24.735C243.153 16.1973 246.31 12.6926 253.797 5.67596M14.0756 280.25C22.3157 273.717 26.1146 268.122 31.5729 260.755M236.596 24.6874C243.461 18.6025 248.633 10.4039 257.408 6.08745M14.6785 284.806C16.8398 279.391 21.8108 275.033 32.4873 264.536M239.054 25.3295C245.324 18.5436 252.655 13.8609 259.854 3.07799M14.5095 287.42C19.2294 281.324 22.8187 276.564 31.4378 266.157M243.787 26.0066C247.846 19.3718 249.562 15.0452 259.182 3.48173M14.6753 288.501C19.412 284.918 23.8683 280.645 32.3731 268.554M244.466 23.3136C250.934 18.4033 255.396 13.0347 262.408 6.28256M13.1774 293.138C18.9952 288.45 24.4834 279.817 32.3462 274.864M247.416 25.5131C251.13 18.5967 255.845 13.8605 263.393 4.96897M14.5432 294.879C20.0977 289.524 21.7988 286.911 32.8429 275.467M250.883 23.9884C258.182 17.8822 262.478 7.73792 266.294 5.10745M13.4048 297.778C19.0673 291.535 25.3366 283.395 30.7153 277.719M250.822 23.9985C257.577 17.2171 264.98 12.7319 268.532 4.88787M14.5685 301.492C20.5861 295.1 24.2425 287.525 32.3713 282.505M253.557 24.3602C261.499 19.5085 266.938 10.2366 273.662 5.0267M15.4161 303.482C22.4791 294.501 26.3293 287.087 33.1153 282.946M258.438 26.153C261.429 19.8514 267.299 14.3625 273.38 4.26143M14.5509 307.757C21.2511 300.53 26.4778 290.157 32.8675 284.865M260.132 25.3715C263.455 20.0293 268.998 10.9019 277.72 4.21296M15.2184 310.418C21.5377 301.797 26.4528 292.787 32.247 290.315M263.005 23.3072C268.638 17.0868 272.157 10.4003 278.397 5.48752M14.464 310.963C18.6019 307.772 24.2257 301.917 33.2381 292.106M263.968 25.9494C269.663 17.4411 274.87 13.8512 282.861 3.70063M14.5201 314.586C18.9407 307.946 21.901 303.481 31.7582 293.761M264.732 26.1567C272.596 19.8709 276.071 13.1737 285.328 2.76215M13.8595 318.401C18.0003 312.294 22.3026 306.891 32.5657 296.186M266.674 25.879C271.09 19.2441 276.28 15.169 287.105 6.45774M12.6403 320.661C21.7237 314.193 27.3342 306.761 31.6647 299.42M271.33 23.7703C275.55 20.2404 280.665 14.5609 288.093 3.61195M15.9555 322.274C19.7563 314.233 26.9103 305.851 31.052 303.934M273.3 24.9439C281.366 16.7075 286.947 8.85594 292.002 3.82766M15.2166 324.793C20.5735 317.327 26.6932 310.053 32.9582 304.058M276.611 25.2818C282.144 20.0077 284.9 12.0653 292.819 5.96034M12.5 327.509C18.7033 324.173 22.1204 320.383 31.9317 308.878M278.014 24.5918C282.72 20.9705 284.166 15.8393 294.322 3.45447M14.9462 329.428C21.2636 323.986 25.4972 317.321 31.4984 312.08M279.352 26.3503C285.403 19.5736 286.62 14.2355 299.354 5.25272M13.4049 334.569C20.8003 327.786 26.2631 321.645 32.3935 314.8M281.755 24.8509C287.579 17.761 293.288 14.889 300.868 4.17227M14.3568 336.916C18.8481 328.409 27.1539 321.534 32.9592 315.086M285.066 24.5285C288.061 21.5609 292.684 17.6376 302.852 4.01651M15.8022 337.576C20.536 332.788 27.3832 325.652 32.1459 317.79M286.34 23.0919C293.501 18.3542 299.374 13.3717 304.077 3.24596M12.9095 340.929C18.3709 335.812 25.4423 331.13 32.6397 321.213M289.614 23.5916C293.292 18.4417 299.654 14.0275 306.211 3.52241M13.5377 343.332C20.9045 338.82 26.27 331.807 31.7393 324.233M291.479 24.3373C295.667 19.0516 303.071 13.1907 308.049 5.96901M14.7345 346.47C20.8109 339.937 27.6621 333.844 30.4491 327.375M294.157 25.6769C297.073 19.2511 303.72 16.2177 312.671 6.30825M13.0456 349.061C17.6246 344.965 24.1318 338.697 31.0323 328.817M297.193 23.2189C299.827 20.6814 305.69 14.9081 314.148 4.00124M12.7114 350.925C21.2901 346.402 25.2715 339.092 32.7242 331.435M299.678 25.2454C303.876 15.7017 310.597 9.97879 315.154 4.02953M15.4769 354.377C20.0692 347.946 26.0802 340.139 31.7774 336.737M65.1172 298.299C68.426 293.353 68.3219 292.525 75.4198 286.874M299.945 24.2762C308.55 18.9013 315.704 8.58458 319.77 4.75691M14.3002 359.354C19.6669 350.616 27.1987 343.149 30.9505 338.825M65.9404 299.453C66.9181 294.276 69.8202 293.844 77.7446 285.59M302.557 25.3486C308.027 20.7224 311.883 17.4009 321.23 6.36138M14.1665 361.418C19.309 353.21 28.0267 345.715 30.7176 339.372M68.2318 301.795C72.9277 292.937 77.4127 289.383 80.0793 284.751M305.937 25.6254C308.546 21.2943 314.948 17.7252 322.855 3.84522M12.5422 363.56C18.9185 357.773 21.2673 354.411 33.3422 343.19M67.0632 301.708C72.0617 297.271 78.4432 290.777 82.1299 285.07M309.157 23.7582C311.249 22.8265 313.795 17.4954 324.752 4.89708M15.7146 367.118C19.0523 361.011 23.6262 356.143 29.8997 347.078M70.6968 303.922C71.0691 300.238 77.1647 295.031 83.5005 287.111M311.049 26.5531C314.926 19.415 321.5 13.3901 327.004 3.39649M15.7517 368.467C22.3826 361.277 28.2732 353.3 32.6689 349.418M71.8624 303.311C75.5827 295.707 82.2421 291.036 85.0775 287.815M312.512 23.1672C320.546 16.4228 325.394 10.6132 329.265 4.76284M16.8152 368.745C22.7839 360.527 26.813 356.178 32.5184 350.134M70.9358 305.385C76.1478 297.514 82.0591 290.984 87.8471 287.178M315.662 23.886C318.243 20.7721 322.573 14.1643 332.431 6.4571M16.6216 370.889C24.6119 364.533 31.1018 356.457 32.3929 350.586M71.5906 307.606C76.3335 302.912 80.9352 299.484 89.6302 284.36M316.252 25.9197C322.318 17.1032 330.185 11.6887 334.013 5.66691M19.4876 372.232C21.1631 366.894 24.1441 366.012 32.5875 353.495M74.4731 307.294C79.5556 302.673 86.3306 296.895 93.9733 285.627M320.661 24.5894C323.206 19.8393 330.545 14.6549 336.685 4.11846M19.951 372.209C25.3366 365.964 31.4839 359.782 33.6821 355.196M77.6751 307.556C81.8627 299.393 89.078 292.04 96.5369 286.997M323.689 23.6391C326.449 18.0914 331.27 13.6177 338.569 3.33359M20.4237 375.231C26.4233 367.415 32.3094 362.249 36.949 357.213M79.7343 305.924C83.8811 299.352 89.6365 293.823 97.79 287.497M324.661 24.7971C330.678 18.0316 334.403 11.8762 341.922 6.28265M22.2324 377.071C26.044 369.706 32.8499 363.734 37.3477 357.467M80.081 305.961C87.5907 298.611 95.669 293.766 101.484 286.188M326.595 25.7493C332.177 19.0919 336.691 12.2331 343.043 3.65384M20.2488 378.188C28.3322 372.253 34.9247 365.039 37.7283 361.081M84.3407 308.034C91.4987 300.489 96.9019 294.986 104.033 285.54M330.745 23.9232C335.551 15.9535 340.398 10.4768 345.425 4.80163M20.9828 379.446C28.1531 373.514 36.9797 364.544 37.5474 360.002M85.8702 307.269C92.6311 298.929 97.1393 294.068 105.046 286.226M332.266 25.2024C336.315 15.7562 345.085 10.5657 348.813 3.82218M23.9336 380.192C29.0722 376.89 33.5845 371.905 41.1232 363.672M88.2011 308.739C95.3701 298.265 101.441 291.684 107.714 286.801M332.74 23.8C338.794 16.1675 347.597 10.2768 349.554 5.67137M24.9165 383.019C28.5718 377.368 34.2274 371.861 39.245 365.269M90.0358 305.643C96.5445 298.806 104 292.036 109.748 287.154M336.947 25.1155C340.616 18.7404 348.738 12.4348 354.2 4.98427M25.8004 384.727C32.0501 379.671 34.1088 373.157 40.6678 366.312M94.4022 308.68C100.039 301.897 102.596 296.179 111.275 284.651M336.921 24.0639C342.726 19.867 348.137 16.4628 356.397 4.04907M25.753 385.396C31.0795 383.792 32.3859 376.74 41.7487 368.15M94.8836 307.196C101.102 300.223 106.164 294.99 112.161 284.435M339.859 26.0599C345.894 17.9801 352.791 9.40005 357.636 4.0812M28.6412 386.113C33.4845 381.633 38.443 375.653 44.6913 368.906M96.7089 308.643C102.419 304.36 106.424 299.455 116.62 286.408M344.596 25.4804C345.404 20.9984 351.168 16.0929 359.227 4.8914M29.0336 389.083C34.7443 382.322 39.1052 375.237 42.7513 371.395M99.4852 305.897C106.156 300.467 109.912 297.728 119.62 286.308M345.482 24.648C351.482 17.8439 358.718 10.9972 362.137 6.45382M29.8472 388.415C35.5067 386.079 35.5003 382.604 43.6337 372.631M103.116 307.766C106.8 302.702 114.545 296.064 119.684 285.202M348.234 25.6929C352.195 20.4002 354.018 15.3088 364.376 5.59434M33.6767 387.795C39.3691 383.315 43.8877 380.026 46.6855 376.328M105.587 307.063C111.114 300.165 119.256 292.225 124.718 284.972M348.853 26.6361C354.844 19.9182 362.005 9.83921 368.02 5.39214M33.3888 391.008C38.4754 385.637 45.5091 377.973 49.1977 376.136M106.726 306.532C112.068 301.097 118.656 293.203 124.213 284.404M352.181 25.8555C356.348 18.4278 363.647 14.8131 370.616 5.46266M37.4343 391.451C40.1606 384.214 46.7769 381.271 49.813 376.154M109.171 308.749C117.96 300.294 125.505 291.652 127.511 287.524M353.174 26.5751C360.196 18.2889 369.272 9.52262 372.755 4.619M38.1546 392.964C41.3547 388.829 46.234 381.837 52.0818 377.805M110.426 305.622C118.618 298.945 125.417 290.989 131.66 286.218M358.117 26.4952C359.109 21.964 364.197 15.4761 372.921 6.37949M39.2012 394.016C44.2772 388.938 48.3307 380.965 53.416 376.513M114.285 309.016C121.329 300.641 125.595 294.204 133.292 285.358M359.381 25.6373C363.365 20.3382 369.336 14.5146 378.036 5.1074M39.5704 393.824C47.1512 389.791 49.0749 385.021 53.8558 377.026M118.281 306.335C122.434 301.419 126.438 295.156 133.981 285.687M361.028 23.5477C368.597 18.9377 372.892 11.5195 378.855 5.63817M41.0192 394.451C44.8765 390.658 50.5603 387.393 56.54 377.622M117.694 307.712C123.023 304.499 127.396 300.164 139.111 286.467M363.42 24.4817C368.089 21.0466 371.941 16.4696 381.474 5.18966M43.423 395.78C50.5807 392.05 52.4623 384.034 59.0527 379.424M119.329 308.316C126.979 300.156 133.804 293.928 140.978 285.002M366.011 27.3483C371.51 18.9894 378.234 13.0299 381.907 5.64271M45.4043 396.431C50.3256 391.172 53.8466 388.781 61.1193 380.837M124.914 308.162C128.603 300.853 134.868 297.077 142.829 284.925M370.246 24.6437C375.842 17.0807 382.799 10.5373 386.415 5.71667M48.9878 398.911C52.8751 393.986 56.5528 389.899 63.636 379.775M124.299 308.676C131.933 298.712 138.708 293.38 145.619 286.765M371.248 24.1569C376.067 20.6819 377.407 17.2967 388.344 6.39101M50.7061 399.937C53.9398 392.07 58.3691 389.176 65.3615 379.71M128.164 307.976C134.196 300.422 140.38 291.918 146.765 286.877M372.119 26.4304C378.536 18.8387 386.173 12.2811 390.989 4.90312M50.9116 399.806C54.87 391.701 61.5167 384.824 68.0757 380.408M129.657 307.088C134.527 303.877 136.932 300.151 147.952 287.578M375.116 24.0425C382.074 18.8602 385.638 12.2312 392.926 5.65569M52.7616 400.98C57.5078 394.668 61.7071 388.66 67.8681 381.75M133.385 306.493C138.237 303.425 142.397 297.79 151.039 287.127M378.385 25.736C383.648 18.9158 387.992 14.9285 394.306 4.20129M53.7917 401.848C57.6862 393.44 66.1216 389.709 70.1398 380.68M133.623 305.805C139.761 300.312 146.607 293.267 154.787 286.04M381.459 25.1979C384.029 20.1439 389.78 15.0724 396.556 5.586M56.3692 401.901C59.2021 395.61 63.9358 392.727 72.4183 381.022M138.541 306.574C146.322 297.888 149.813 291.988 157.496 287.408M381.363 25.8063C388.029 19.5631 391.247 14.8499 397.979 5.68024M57.4355 401.219C63.9125 394.761 68.2626 391.673 77.6531 382.489M141.007 306.516C142.329 304.225 148.249 299.393 159.852 284.65M386.161 25.954C388.058 18.2802 395.842 14.5263 400.764 5.79365M59.4804 401.656C64.6561 393.906 69.5397 390.82 78.1611 381.935M140.621 305.566C148.402 298.964 154.681 290.394 160.257 287.645M388.843 23.5878C392.36 18.33 399.059 9.20605 402.878 6.73983M63.6278 399.518C66.0093 396.226 68.9154 391.956 80.6917 380.938M144.621 305.544C147.33 300.63 153.6 298.838 162.739 286.331M391.41 25.3151C392.448 22.7728 395.458 17.3026 406.712 7.06769M63.7945 400.124C70.6323 395.346 74.6281 391.028 84.1898 379.752M148.1 306.345C153.824 299.074 159.603 291.865 164.84 285.795M391.693 24.1012C399.028 20.4433 404.772 11.6153 409.68 5.7051M67.1926 401.973C70.3689 397.424 75.5826 393.413 84.8351 382.063M150.642 308.375C155.806 301.727 161.311 293.999 168.56 286.033M395.266 24.3492C398.187 20.7862 404.029 15.4231 412.455 6.97553M68.5055 401.524C75.0674 396.985 78.2669 391.442 88.4591 381.525M152.518 306.322C155.253 301.987 160.473 296.526 171.577 287.368M396.162 25.7938C399.291 22.0307 403.491 15.1318 414.047 7.41556M72.6434 402.28C77.4058 396.127 83.7659 389.511 90.3624 382.263M155.096 307.71C161.002 299.199 165.203 293.729 171.012 287.149M398.881 26.9437C402.084 19.966 408.038 14.0103 416.308 4.73975M74.9237 400.528C79.7959 393.015 87.0539 386.58 92.2166 379.883M158.11 307.238C159.866 303.838 165.873 299.263 174.512 287.675M399.799 24.6715C405.903 20.7252 412.351 13.47 418.529 4.64594M77.8987 399.313C81.1212 393.543 89.1581 388.119 95.3209 379.852M158.796 305.821C163.093 302.542 167.278 296.757 178.536 285.65M404.628 23.7114C409.86 18.3583 415.184 11.9928 421.126 7.79853M77.88 403.009C85.8547 395.571 89.7472 389.391 95.9768 382.506M160.901 306.278C166.142 298.705 174.273 291.569 178.524 286.102M407.798 25.033C409.061 23.0303 411.73 18.8114 423.869 6.4404M80.3516 399.839C87.5623 392.954 94.9663 384.887 98.1267 382.129M162.186 307.772C168.725 301.845 176.164 294.582 182.33 286.84M409.259 26.8536C414.628 17.7908 419.779 12.5565 424.969 5.37769M85.6556 401.625C89.7628 394.075 94.1038 388.368 101.882 381.74M165.929 308.558C168.254 302.854 172.834 298.274 184.38 287.776M410.516 26.5491C415.683 18.8231 420.131 13.0629 425.981 4.84156M85.8253 401.229C91.6227 393.711 96.8736 389.908 105.853 381.588M167.667 306.147C173.27 301.284 179.363 292.052 187.136 285.503M413.37 25.8411C418.658 18.1852 422.583 14.2426 430.878 7.44209M87.8482 399.679C93.7253 395.492 100.956 385.377 107.009 380.622M168.697 308.933C175.644 299.483 182.249 293.111 189.283 284.631M414.401 27.2576C419.807 22.4208 424.668 16.7954 430.63 6.50618M92.8635 401.978C94.3001 395.993 98.5505 392.849 109.282 379.402M171.514 307.954C178.591 297.574 185.48 292.29 191.961 286.756M417.059 25.8822C422.278 20.7407 426.514 16.6998 433.136 4.62718M95.0281 401.948C100.851 394.054 104.397 386.531 110.007 381.335M175.605 306.68C179.303 300.901 186.081 294.114 192.807 285.702M418.817 26.3931C423.428 20.7713 428.653 15.2354 438.286 5.51746M94.5715 402.569C98.9499 398.083 103.651 391.013 115.292 379.865M175.591 308.162C184.896 298.173 190.872 291.731 195.608 284.526M422.918 23.6596C429.706 19.6008 432.463 12.7695 437.72 4.54538M97.8257 402.185C104.152 394.549 106.26 391.238 113.749 382.949M180.244 308.455C186.936 299.869 192.777 292.768 199.793 286.419M424.848 24.8265C428.268 21.5012 432.585 14.3842 441.768 4.38708M99.4404 399.48C105.212 395.488 112.414 389.067 118.685 380.193M182.612 305.558C189.54 299.897 195.242 293.718 201.977 286.611M427.431 27.0305C432.183 17.8905 440.218 12.544 443.574 4.92854M103.85 400.911C105.819 395.831 109.48 391.691 121.924 382.488M185.08 308.079C189.067 299.956 195.448 293.663 202.642 286.889M428.386 27.2036C432.982 22.7935 436.284 17.9637 446.986 4.7872M103.898 403.078C108.673 395.608 112.702 391.233 121.774 380.973M185.117 306.303C192.93 303.281 196.867 297.822 205.137 285.416M431.101 24.0723C437.28 18.2361 439.945 13.5198 447.216 5.96612M108.985 402.346C111.441 396.279 115.87 393.501 125.151 380.56M188.232 306.581C196.928 299.381 203.299 292.713 207.805 284.429M432.284 27.5581C438.508 20.1789 442.324 16.4766 452.35 4.42567M110.069 401.141C115.931 393.667 120.703 389.553 128.159 381.462M192.168 305.889C199.752 297.565 204.892 291.328 208.481 285.751M434.754 25.9784C439.615 20.6684 444.362 17.103 454.162 5.07975M110.825 399.966C119.93 393.233 125.975 387.161 129.7 379.369M192.945 309.033C198.412 299.795 203.271 294.167 212.018 287.875M438.585 25.8479C443.383 22.2209 445.437 15.9436 455.375 6.61687M115.283 402.446C121.009 392.012 129.596 383.844 132.384 382.296M196.365 306.662C200.702 303.364 203.87 298.377 213.448 287.07M442.181 25.4583C445.099 20.1871 449.891 14.8819 456.849 5.38366M116.866 402.825C121.575 392.814 129.997 386.472 133.151 382.455M196.973 307.601C205.242 302.026 211.45 293.961 215.808 284.822M442.039 24.1936C449.616 19.7443 455.404 10.8159 458.232 7.20465M120.437 401.364C123.995 396.278 128.946 388.432 137.322 379.416M199.338 305.993C205.084 301.868 213.313 294.65 217.398 287.857M446.2 24.1999C450.02 20.2027 455.272 13.2084 461.071 7.94628M121.892 399.719C126.586 396.313 132.912 388.84 139.887 379.533M201.55 306.517C208.138 299.492 215.224 294.605 220.518 284.828M446.518 24.7146C453.288 20.0547 458.418 14.0104 465.36 5.49933M124.377 401.801C128.727 394.057 134.695 387.13 139.944 382.303M206.781 306.316C210.041 302.676 215.058 295.027 224.308 286.149M449.912 25.1113C454.33 20.7006 460.721 13.936 466.415 6.93675M125.716 402.682C129.998 395.793 137.344 388.268 142.671 379.972M208.752 307.899C211.834 302.856 217.26 294.676 226.759 285.491M450.705 25.3193C458.288 18.7572 465.865 12.6868 470.176 5.98607M127.786 402.262C133.032 396.352 136.561 390.041 146.512 381.916M208.672 305.74C216.782 300.213 223.731 290.907 229.465 285.504M456.241 27.068C459.471 20.04 462.746 15.028 472.281 6.22894M130.905 401.28C135.125 394.771 143.051 387.278 147.511 379.964M213.41 308.084C219.2 301.924 225.335 292.998 230.926 286.944M458.463 26.7244C463.005 18.0135 469.075 12.9441 475.952 5.62644M133.58 401.71C136.123 394.688 143.958 392.028 149.152 382.879M214.674 307.248C220.783 302.24 225.784 297.568 233.337 287.067M459.729 26.7686C463.247 21.1788 469.343 13.5251 475.048 8.23324M136.401 400.893C141.814 394.019 146.862 386.661 152.338 379.557M218.41 308.839C222.432 302.071 224.131 298.099 237.269 284.778M462.331 26.7227C466.681 21.0622 468.066 17.1793 477.643 6.404M138.358 402.967C142.84 394.928 145.573 392.051 155.899 380.124M218.763 305.759C224.22 300.933 231.423 294.682 239.459 284.874M464.8 24.3068C467.037 22.9203 470.743 16.0937 481.283 5.86875M140.001 402.689C144.718 396.541 149.685 387.659 159.301 381.125M221.552 307.724C226.223 302.32 230.405 298.074 241.748 284.592M464.655 25.706C471.013 19.5414 476.858 14.5961 483.916 7.74666M143.251 402.674C146.94 394.348 154.046 386.764 159.061 381.217M222.853 306.496C230.558 301.821 237.86 293.261 242.652 286.503M468.871 24.1521C471.925 20.328 474.26 17.0436 484.995 8.96308M143.29 401.268C149.975 396.417 156.365 387.939 163.693 381.066M228.24 308.054C234.811 299.584 239.792 291.985 246.413 286.903M472.566 25.6998C473.326 19.8589 479.834 16.8905 486.871 7.65936M147.447 400.965C150.813 395.309 155.893 391.026 163.943 380.326M227.361 306.949C233.054 302.167 240.891 295.97 245.654 284.495M474.979 24.0024C477.173 22.2404 480.135 18.5865 488.252 9.32647M149.923 400.122C151.596 398.046 155.595 393.622 168.399 379.626M229.539 306.543C234.484 303.199 239.827 298.446 248.495 284.313M475.027 27.5461C480.174 22.8566 484 16.3254 487.056 12.7564M152.047 401.544C156.425 396.581 158.394 393.903 167.54 381.933M232.064 305.63C240.638 300.139 246.716 289.609 253.026 286.583M475.177 28.3707C480.315 23.1314 484.289 20.8193 488.419 13.2692M155.309 400.419C157.539 396.772 163.292 391.297 170.634 380.567M237.038 308.085C242.517 300.331 251.074 289.459 254.465 287.201M478.3 30.5026C480.339 25.0793 483.282 22.1449 490.902 11.3865M157.933 400.761C163.625 393.96 167.199 387.435 174.047 379.695M236.753 309.268C242.115 303.183 248.821 297.76 257.73 284.849M477.526 30.4611C481.396 28.7985 484.963 24.5464 494.676 14.2931M159.334 401.498C166.436 393.059 171.67 384.082 177.673 379.872M241.777 306.319C249.173 298.275 254.724 290.458 259.669 287.326M479.945 34.1481C483.514 27.4229 490.401 18.9536 492.681 15.5871M161.447 403.177C167.132 395.871 168.88 392.46 179.258 381.636M243.337 307.14C248.835 302.146 253.081 298.614 260.604 285.115M480.418 33.0861C485.37 29.2232 491.972 20.2408 495.179 15.5538M162.32 401.446C170.594 392.995 177.517 384.248 180.398 381.884M245.447 308.402C251.364 303.265 253.503 297.09 262.369 284.627M482.432 33.8007C484.326 31.8196 489.279 27.2327 495.347 18.8955M164.726 401.844C168.677 395.952 174.577 391.089 184.383 381.879M247.964 308.671C252.737 300.315 261.938 293.433 267.6 285.721M481.778 38.5409C486.632 31.3635 490.595 27.1302 498.505 20.1992M167.622 402.262C171.917 396.818 177.854 390.191 187.739 381.858M251.61 308.289C252.724 302.818 256.981 297.437 270.19 285.64M483.49 37.7003C487.494 34.2545 492.131 29.1353 499.115 20.673M168.394 402.029C177.239 395.957 183.48 386.809 187.36 380.743M254.068 307.234C256.696 301.313 260.53 298.113 270.146 287.398M485.344 37.426C489.996 31.3327 498.9 25.3306 502.082 19.5615M171.622 402.085C177.359 393.51 184.875 389.303 191.465 380.597M256.558 308.381C258.136 302.706 261.076 298.747 272.063 288.05M486.844 40.989C490.086 34.9651 496.21 29.4461 504.445 22.821M172.851 403.374C180.863 395.229 188.234 385.847 194.008 380.136M258.173 307.485C264.102 299.358 270.498 292.689 274.447 286.573M487.908 40.9944C489.169 39.5603 493.181 33.7817 505.302 22.1005M178.481 402.322C183.929 395.657 190.929 387.558 196.094 379.321M260.377 308.506C266.454 299.455 273.557 291.088 277.748 286.834M490.376 42.8112C495.737 38.2826 501.194 29.5609 504.106 26.3524M177.913 402.903C183.467 395.812 188.92 392.48 198.379 380.355M260.872 308.327C268.978 299.725 275.787 290.496 279.835 286.704M487.767 45.0956C494.98 37.3321 501.597 33.1911 506.377 25.4287M179.12 405.692C184.944 397.215 188.915 393.021 200.668 381.775M264.093 307.369C271.861 297.778 279.245 290.523 282.103 286.604M489.866 44.8513C495.318 40.8456 501.857 34.4503 506.015 28.9144M179.053 405.855C188.118 397.808 196.406 384.73 203.783 379.451M267.873 308.442C274.471 299.61 278.032 291.437 285.737 285.436M493.064 45.9292C498.339 40.0179 500.712 34.7277 508.088 30.0315M178.381 411.433C185.598 401.734 194.632 393.498 203.184 380.316M269.951 307.298C273.275 301.514 276.733 296.465 287.707 286.662M494.375 48.0028C495.484 43.3217 498.698 41.4028 506.41 34.1344M180.673 410.97C187.896 399.811 197.302 391.828 207.828 380.206M270.905 308.305C275.523 300.997 279.428 297.433 288.229 284.444M491.599 50.8453C499.148 47.0764 503.316 37.8902 506.914 36.1948M178.48 415.582C187.011 407.359 195.997 397.889 210.315 381.006M273.452 308.926C280.151 299.385 284.063 295.005 293.268 284.504M492.812 55.6595C498.051 48.7083 502.797 43.9602 510.077 36.9142M181.02 417.091C190.4 405.671 198.387 396.764 212.502 379.644M275.647 306.051C283.158 299.448 287.459 293.068 295.723 284.381M493.297 57.2944C499.58 50.0951 504.108 46.5261 511.41 37.7243M181.05 419.82C188.471 411.145 195.105 403.046 214.861 381.488M278.047 308.031C282.658 303.09 284.756 299.349 298.125 285.145M492.399 61.5304C497.77 55.9745 500.982 47.7309 510.031 39.592M178.313 422.418C191.353 412.017 198.574 398.119 215.968 382.685M281.818 305.994C285.523 300.916 293.551 294.706 298.247 285.762M491.593 61.45C499.076 56.2451 501.404 51.7088 512.731 43.1635M179.883 426.76C185.322 421.514 189.618 416.561 200.406 401.018M199.604 400.958C206.161 396.934 207.559 392.927 218.616 380.061M283.438 306.639C289.708 300.608 298.122 289.099 300.398 285.42M492.773 63.6808C499.634 57.0318 505.499 51.7962 511.411 44.3697M179.693 429.866C186.207 420.974 194.717 411.692 199.456 405.736M201.766 403.424C207.512 395.303 211.034 390.776 222.54 380.182M284.223 307.835C290.57 300.645 297.113 291.884 303.564 284.699M492.66 67.1398C501.702 58.6865 507.667 51.988 512.825 46.7401M181.097 430.623C187.29 422.589 195.567 413.132 200.446 406.457M204.052 402.098C212.04 394.406 215.227 389.34 221.443 381.597M288.891 305.744C293.455 301.006 300.007 295.248 307.195 284.754M492.123 71.4286C498.622 64.0007 504.724 58.3934 514.169 47.8312M179.016 433.725C184.73 426.815 194.86 415.916 198.85 411.945M208.911 401.152C212.533 397.873 215.046 393.359 226.726 379.787M290.978 305.552C295.671 299.555 302.001 293.95 309.252 286.253M494.697 71.8492C501.881 65.2566 507.047 55.7533 514.019 48.7326M178.07 438.504C187.012 427.007 196.979 418.643 198.628 412.472M210.006 402.533C215.71 395.742 218.703 390.765 229.638 382.46M291.778 307.319C299.203 300.511 305.741 291.56 308.72 285.229M494.492 74.4555C502.005 65.4801 509.969 54.6762 517.289 48.5953M148.774 475.434C150.726 473.893 152.456 472.564 155.449 467.179M180.123 440.186C185.822 434.296 192.218 427.701 200.576 413.802M212.18 401.642C215.905 398.293 220.897 393.019 230.974 380.93M295.829 308.642C299.155 301.213 305.875 294.079 311.627 287.098M492.076 78.2005C498.548 73.738 503.582 66.5036 514.763 51.8188M148.449 476.324C151.312 475.473 155.214 470.509 163.889 460.227M178.394 441.277C183.55 437.377 190.654 430.626 198.724 416.81M214.831 400.752C218.219 394.915 225.406 390.067 230.922 381.897M295.17 305.642C303.45 298.985 309.637 294.137 316.193 287.078M495.023 80.0636C499.398 73.2627 502.576 68.0107 516.925 57.4919M147.997 479.889C155.554 472.748 161.301 466.043 170.862 458.029M177.957 446.315C183.223 438.975 189.051 431.943 199.136 420.431M217.721 402.311C222.851 394.275 228.898 388.787 236.712 379.575M299.96 307.834C303.204 302.617 305.981 297.853 317.191 286.702M492.242 82.4449C500.167 73.311 509.293 63.6439 516.487 56.6925M149.115 481.515C161.428 467.98 173.529 454.688 201.01 423.752M217.606 400.835C222.128 394.97 229.047 391.942 236.523 379.072M300.013 306.951C307.739 301.93 312.825 293.076 320.585 286.716M495.307 86.4793C499.842 78.3194 503.824 71.8199 513.569 60.6644M149.194 485.18C167.999 466.504 184.98 444.735 198.472 427.949M220.958 400.916C229.567 393.618 234.412 386.753 240.751 380.757M302.401 308.628C307.589 302.447 312.144 297.397 324.023 286.013M494.903 87.9732C501.572 80.8967 510.015 68.6144 514.288 64.4829M148.883 488.237C166.655 465.728 184.672 444.423 200.906 427.537M222.992 400.274C232.23 394.34 237.593 386.039 243.478 381.948M307.889 307.522C312.77 302.21 314.568 297.782 323.496 286.428M493.179 90.8606C496.815 84.9302 501.265 80.4064 516.955 65.2575M150.518 490.037C161.46 478.05 172.481 466.933 201.48 433.489M225.008 402.342C231.867 395.509 238.255 387.228 243.977 380.423M307.734 305.305C316.113 300.476 322.201 291.077 324.948 285.031M493.187 94.97C500.597 83.7967 508.458 76.1148 515.948 69.4015M147.228 493.303C166.249 473.727 185.847 450.997 200.414 433.874M227.232 402.093C234.84 397.351 238.122 390.639 245.235 382.02M311.307 308.135C314.183 302.358 322.071 296.164 327.573 285.911M493.057 96.3819C500.153 89.5492 507.454 82.04 514.483 71.0998M152.01 495.935C165.504 474.465 183.238 457.957 201.01 437.683M232.102 400.184C237.844 395.22 243.987 384.805 248.703 381.417M313.578 308.862C321.87 298.39 325.977 291.714 330.491 287.218M494.597 101.204C496.99 95.4835 504.74 87.6716 515.415 73.8433M150.879 496.367C162.691 483.661 176.588 468.333 198.989 441.416M233.167 400.792C238.846 398.251 240.891 390.363 252.169 381.72M313.943 307.623C320.764 298.764 329.231 293.73 332.631 284.94M494.035 102.001C498.769 95.9794 507.848 87.9475 515.865 77.3643M152.148 496.319C168.51 480.13 181.538 460.905 198.243 444.168M236.353 402.575C239.975 394.413 248.213 388.402 255.406 381.885M316.602 306.731C321.087 303.271 324.913 299.699 335.137 285.16M494.28 103.632C501.364 95.6955 508.175 87.1069 514.126 81.6735M153.545 498.742C161.208 490.088 164.045 486.374 169.641 481.01M169.764 479.866C181.215 469.482 191.415 456.456 199.559 444.5M239.078 402.387C243.195 394.721 248.603 389.941 256.811 381.95M319.279 306.461C323.785 303.052 331.149 296.284 338.351 287.065M491.815 107.734C499.906 103.646 502.759 95.6837 516.679 81.0985M156.119 500.656C158.905 497.665 161.547 491.861 166.42 486.684M177.069 474.896C182.674 468.275 190.54 459.397 200.899 450.091M239.12 401.976C247.976 395.732 252.85 385.176 257.378 379.517M322.289 305.66C328.925 299.902 337.933 291.581 342.325 285.368M494.812 111.462C501.098 100.539 507.414 95.31 516.36 86.5665M157.352 501.92C159.745 497.352 166.193 492.137 170.025 483.956M181.187 473.688C185.713 466.156 189.001 462.878 197.856 450.749M244.46 400.977C249.773 396.722 254.842 388 261.664 381.556M325.31 305.802C330.351 300.37 338.054 291.541 342.879 284.65M494.812 113.72C498.653 105.357 505.827 97.7538 515.411 89.6118M156.801 501.726C163.532 495.784 168.991 489.031 171.29 484.308M187.661 468.847C191.165 463.45 193.004 461.204 201.07 454.687M244.158 402.616C249.152 398.331 251.819 393.105 261.926 382.366M327.434 308.96C334.204 299.922 340.257 290.059 345.234 287.638M493.751 116.09C500.514 108.721 510.603 98.7406 513.795 90.3479M160.633 503.554C163.19 495.05 171.565 491.141 174.309 484.321M247.881 402.271C252.608 396.433 256.094 391.384 265.346 379.76M327.91 306.938C337.285 297.991 345.792 291.99 348.406 285.686M491.904 118.354C497.5 112.007 505.117 105.671 513.728 93.2241M160.467 504.253C163.875 498.527 170.39 491.96 177.169 484.445M248.256 401.575C254.863 397.607 256.513 394.299 268.392 379.795M332.342 308.657C339.615 301.574 345.998 294.528 349.017 285.335M492.354 120.078C500.671 114.391 506.864 104.916 513.873 94.6822M164.321 505.634C165.701 499.054 168.269 496.009 178.4 485.556M250.97 401.11C258.649 393.526 266.985 384.032 271.556 382.759M335.575 305.917C340.601 301.022 344.695 295.415 352.829 287.013M493.597 124.025C499.622 113.278 509.848 105.637 513.573 97.3047M165.411 503.762C172.348 499.377 174.65 493.267 181.583 485.183M254.982 400.777C256.957 396.265 262.571 393.579 272.121 382.201M336.546 307.784C340.857 302.449 344.984 298.694 354.899 287.943M492.816 127.269C503.382 117.361 509.509 108.706 515.654 102.583M167.495 504.812C170.681 497.749 176.442 493.842 185.097 483.194M257.109 400.969C261.071 396.646 263.839 392.182 274.446 380.398M340.233 309.066C345.432 298.202 352.948 289.1 356.477 285.307M493.846 129.912C501.27 120.64 507.803 111.606 514.529 102.414M171.342 504.494C174.16 496.705 181.279 492.162 186.461 486.324M258.801 400.777C263.299 398.785 265.758 394.601 278.395 380.179M341.567 305.5C346.944 301.784 351.615 297.233 360.969 287.088M494.52 131.554C501.15 123.756 509.793 113.865 515.979 106.065M173.777 505.919C175.826 498.795 177.701 496.617 188.68 484.044M260.996 400.292C266.845 394.151 273.27 388.847 280.639 382.508M343.952 308.177C348.769 299.645 355.572 291.905 362.748 285.151M493.935 135.141C501.824 126.958 506.116 119.027 514.225 109.776M174.5 504.207C178.947 498.73 183.017 492.749 192.432 484.147M264.295 401.388C270.031 394.889 274.757 388.96 281.182 379.337M346.44 308.13C352.96 299.449 360.488 289.63 363.171 285.559M494 137.115C499.846 131.281 505.653 121.931 515.895 110.587M176.939 504.644C180.829 501.12 185.471 495.487 195.479 483.996M266.144 402.117C272.565 397.306 276.083 389.411 285.981 382.294M349.207 307.204C352.507 300.238 358.981 298.142 366.538 286.46M493.417 141.676C500 132.72 504.704 125.614 514.333 114.011M179.567 504.017C185.42 498.056 189.724 491.488 197.494 484.194M268.899 401.839C272.998 398.4 274.504 392.537 284.965 382.611M351.179 308.452C356.336 301.46 361.771 293.227 370.551 285.038M492.675 141.247C501.369 132.909 508.72 124.283 513.791 116.543M180.583 505.078C186.966 500.343 188.356 494.033 197.043 484.398M269.83 400.109C275.332 393.473 284.642 386.525 288.126 379.737M352.129 306.346C356.569 303.487 361.784 296.16 372.762 285.874M492.947 144.196C497.33 139.927 502.887 134.618 515.003 121.466M185.408 505.531C191.395 496.856 196.075 491.78 200.218 485.441M273.775 401.986C276.829 396.128 280.39 390.342 289.819 379.571M355.508 306.215C362.521 301.652 366.666 292.654 373.045 285.149M493.878 148.77C498.427 142.632 504.142 138.171 515.872 124.319M187.315 504.353C191.823 497.894 196.294 491.558 203.458 483.37M275.562 402.971C278.375 395.556 284.805 390.447 295.281 379.919M357.826 305.939C362.616 300.285 367.292 294.359 374.689 287.285M494.59 150.399C499.382 145.955 503.824 138.831 514.211 125.75M190.01 504.332C193.709 498.659 196.484 494.198 206.002 485.407M276.108 403.007C282.158 398.298 285.812 391.225 297.16 382.323M361.835 307.992C365.003 300.262 369.288 296.436 379.691 284.538M494.65 154.849C500.515 144.79 510.541 134.736 513.807 127.896M191.517 505.497C195.129 500.624 200.569 494.8 208.693 483.789M280.226 400.817C285.682 397.63 287.707 392.581 298.109 382.164M362.441 305.564C367.44 301.225 375.186 292.24 379.373 288.028M494.01 156.466C501.112 146.374 506.934 140.518 515.892 132.616M195.279 503.945C198.321 496.296 205.256 492.285 209.018 483.256M282.7 401.63C285.262 395.411 290.066 389.931 299.016 379.469M365.947 308.207C368.972 302.221 374.41 294.56 381.94 285.4M491.991 158.641C500.575 149.685 507.899 141.034 516.623 133.546M194.47 503.087C199.094 502.332 201.883 495.9 213.285 485.064M284.227 402.159C291.781 396.546 295.587 387.311 303.672 379.912M366.183 307.07C371.924 300.842 378.247 294.579 386.362 287.537M495.46 160.39C498.289 155.317 502.515 150.433 514.935 138.367M198.453 505.82C202.871 498.466 207.073 493.267 216.108 484.561M288.044 401.519C293.42 393.612 300.178 388.54 304.005 382.401M368.883 307.014C373.511 301.461 377.64 296.903 387.512 286.866M493.857 163.843C499.727 159.361 504.125 152.826 514.142 138.115M201.525 503.114C203.51 500.137 209.637 494.107 215.717 486.655M288.567 401.6C296.004 394.474 301.068 389.572 308.839 382.452M371.214 308.047C375.513 303.958 380.747 296.749 389.32 285.536M493.009 167.248C501.862 156.368 508.215 147.495 514.007 139.981M204.207 503.342C206.924 498.689 213.862 490.373 218.109 485.197M293.026 403.591C297.774 396.308 304.045 388.065 310.177 382.026M372.622 306.496C379.923 301.813 384.264 297.489 392.611 285.772M493.63 168.168C496.67 163.28 502.298 158.781 516.635 144.793M207.077 503.749C209.054 498.705 215.799 494.885 219.953 486.044M292.387 401.967C299.268 393.869 305.464 389.928 312.285 382.857M377.422 308.493C380.705 303.67 386.635 297.462 395.2 284.172M492.86 172.99C499.36 163.149 507.021 157.088 516.097 147.114M205.697 504.456C210.908 496.947 216.161 491.328 224.813 485.456M296.822 402.641C302.777 396.367 306.272 391.733 315.683 379.652M379.575 306.594C386.32 299.169 391.02 292.194 395.686 287.144M494.818 175.25C498.904 169.801 503.673 163.481 513.899 149.3M209.216 505.471C214.217 499.529 219.625 491.876 226.446 483.429M299.926 400.153C305.081 394.126 313.422 386.384 316.082 379.87M379.405 308.944C385.127 301.897 389.04 295.893 397.574 284.557M494.058 178.049C503.067 167.997 508.519 158.846 514.979 152.318M214.057 502.925C214.626 498.582 219.42 495.791 229.744 486.202M300.19 401.227C306.375 396.221 310.298 391.367 320.977 381.092M384.245 306.152C386.123 301.273 391.612 297.532 401.956 287.481M493.83 181.775C500.695 169.35 509.069 161.64 515.558 155.3M215.876 505.18C216.368 499.894 222.273 495.245 229.732 486.702M303.74 401.448C308.887 396.009 316.264 389.082 322.735 379.57M385.593 307.096C388.923 303.961 394.285 297.56 404.185 286.092M494.335 183.7C502.101 174.675 509.292 166.654 515.886 157.901M215.889 504.181C224.715 495.497 229.348 489.201 232.224 485.625M305.663 400.889C308.517 398.531 313.974 391.692 324.531 382.509M387.141 305.286C394.799 299.176 401.365 292.316 405.06 285.664M494.082 186.726C500.044 177.966 506.481 171.164 516.556 160.681M218.56 504.472C222.762 498.423 225.808 495.453 234.625 486.189M307.443 402.922C315.909 394.284 322.018 385.668 327.97 382.482M388.456 307.012C394.415 303.9 397.009 298.66 408.51 285.081M492.147 186.688C502.952 179.311 510.115 167.766 516.087 163.107M221.193 504.735C225.936 499.029 229.679 497.231 237.69 484.236M309.055 402.135C313.271 397.696 317.97 391.628 330.27 380.564M393.726 307.73C395.311 303.058 400.889 298.96 409.628 286.665M493.431 191.422C502.382 183.019 507.875 173.725 515.567 167.632M225.632 502.53C228.321 499.025 231.946 494.29 240.625 485.053M314.377 402.464C320.112 395.085 324.534 386.769 331.055 382.164M395.261 305.551C401.253 301.093 405.579 293.958 412.067 286.957M492.847 193.964C501.748 186.074 508.301 175.625 516.989 168.05M224.736 503.213C230.677 497.298 236.887 493.098 244.465 483.833M316.162 401.106C321.97 394.845 328.653 388.061 334.15 380.686M397.838 307.765C401.05 302.392 407.254 296.041 414.402 284.851M494.261 194.654C499.381 190.777 506.536 182.791 516.102 173.271M230.2 505.644C232.082 500.705 235.667 494.533 246.864 486.102M317.801 400.623C320.324 395.382 325.471 390.422 336.415 381.369M400.777 308.268C403.524 303.139 407.792 296.931 416.837 285.732M493.119 197.689C501.197 190.836 507.114 182.689 515.301 173.806M230.802 503.875C237.092 499.811 239.833 492.244 247.002 485.447M321.429 401.558C326.646 394.453 330.429 389.538 337.952 381.699M403.594 307.136C407.603 301.294 416.261 292.901 420.71 287.041M495.262 201.536C500.373 193.539 509.277 182.542 516.582 175.682M234.04 505.41C240.692 496.073 244.193 489.265 250.727 483.835M321.024 401.58C327.472 395.704 329.591 394.174 338.908 379.91M402.831 305.671C411.835 300.295 418.92 290.607 424.05 285.709M495.363 205.338C497.797 199.787 503.801 192.299 515.956 180.158M236.81 502.689C240.766 497.695 247.414 489.566 253.15 483.928M323.069 400.94C329.484 396.567 332.472 393.201 343.022 382.275M408.112 307.047C414.125 298.439 420.042 291.435 425.846 284.756M492.198 207.941C499.427 199.863 504.246 195.812 516.256 183.132M239.118 505.715C244.46 496.45 249.449 489.792 253.802 485.263M327.568 401.606C332.209 397.197 337.401 392.457 346.231 381.943M407.647 307.52C414.535 302.454 417.507 299.158 429.108 286.059M494.64 209.887C501.432 203.066 509.833 194.828 514.382 184.254M241.575 503C247.091 496.596 252.707 490.989 257.04 486.242M329.035 402.288C333.494 397.077 337.837 391.185 347.244 381.535M411.968 305.9C415.684 303.715 420.257 299.137 431.467 285.826M493.622 211.198C499.323 206.3 504.521 199.738 516.228 186.414M244.314 504.515C247.567 499.934 250.383 494.212 258.839 485.468M331.441 403.122C334.476 397.852 340.723 394.106 348.195 382.121M415.381 306.161C421.09 298.634 425.42 293.433 431.147 287.446M493.867 213.828C498.227 210.336 503.001 206.395 516.18 191.38M244.457 503.097C249.927 499.747 253.702 494.4 262.393 485.094M332.939 403.311C341.683 395.391 348.483 387.013 350.803 381.216M417.514 307.814C420.441 302.509 423.541 296.603 435.124 287.48M494.375 216.867C500.89 209.723 506.548 203.588 517.091 191.977M247.046 504.975C251.815 497.755 256.462 492.829 263.961 484.395M335.966 400.365C341.402 395.022 347.112 392.326 355.698 381.889M418.214 308.74C424.156 298.728 431.862 293.225 436.515 284.665M494.379 219.157C503.387 210.884 510.294 200.856 515.488 196.457M251.269 504.731C257.666 495.297 263.138 488.574 265.847 485.191M338.592 402.267C342.743 396.578 349.266 388.594 355.354 382.218M422.484 308.195C425.133 301.773 430.777 292.682 438.2 284.236M495.3 223.383C500.118 215.082 509.586 208.052 517.003 199.367M251.434 503.934C258.67 499.359 264.528 491.838 269.377 485.226M339.633 400.307C346.004 395.411 353 388.49 357.236 380.967M422.125 305.901C427.741 302.172 433.418 293.731 441.916 287.055M495.463 225.468C501.199 216.873 505.913 210.617 514.868 201.831M256.416 503.206C261.918 496.078 264.702 490.554 271.82 485.493M344.076 403.012C347.624 393.853 354.926 388.13 361.353 382.031M426.645 308.243C431.837 300.553 435.564 296.683 444.422 286.538M494.063 229.35C499.461 220.954 503.92 216.868 515.905 203.781M258.434 503.233C263.531 497.501 268.514 490.319 273.067 483.287M345.63 400.635C351.539 395.383 356.881 390.387 363.14 379.129M427.563 306.935C432.028 301.26 436.041 298.296 447.902 286.294M494.199 230.067C502.912 224.286 510.67 213.508 514.906 206.469M260.319 502.555C265.459 499.103 269.996 493.642 276.569 484.816M349.106 402.712C353.741 397.687 357.922 391.56 365.914 380.225M431.046 307.37C438.102 299.373 445.773 290.843 447.564 287.48M493.336 234.137C502.322 226.614 507.291 219.061 515.223 208.806M261.312 504.809C266.664 499.876 268.87 494.963 277.006 486.307M351.366 402.653C355.776 397.772 359.263 392.16 369.331 379.526M431.696 305.307C438.093 300.348 445.826 294.081 451.246 287.365M493.618 235.091C499.339 229.979 502.785 227.872 514.436 213.271M264.084 505.277C267.596 499.082 272.011 496.049 279.101 486.383M326.325 430.649C329.094 430.044 329.772 427.898 332.159 424.071M351.572 400.976C358.438 392.638 364.263 385.634 369.666 381.241M432.918 308.133C442.036 298.744 449.142 291.979 454.307 285.333M493.67 240.474C499.216 232.688 503.565 230.369 516.621 214.915M266.136 505.047C272.045 498.494 276.122 493.051 282.715 485.715M327.225 436.26C329.473 432.519 331.818 427.173 335.898 424.028M355.416 401.004C363.188 394.214 370.593 386.558 372.239 381.365M435.383 307.004C445.328 300.072 451.302 293.189 456.645 285.102M494.519 241.389C500.798 236.013 506.334 228.77 515.176 216.459M267.3 503.165C272.261 500.172 274.282 496.822 285.528 483.681M327.658 436.801C329.18 432.185 331.285 430.148 338.421 425.55M358.126 401.602C363.091 392.753 369.244 387.975 376.585 380.661M439.069 306.541C447.137 297.394 453.065 289.949 457.637 286.408M493.12 245.189C498.914 240.746 502.542 233.353 514.843 218.271M270.521 502.241C275.205 499.177 281.427 491.653 286.859 484.03M325.918 437.959C331.921 436.449 336.539 431.03 338.139 425.157M359.89 403.393C363.788 397.393 367.589 390.154 376.921 381.239M443.13 305.799C447.647 297.728 454.574 289.937 459.364 285.002M496.632 245.267C499.426 242.182 505.373 235.807 515.964 222.354M273.686 502.969C277.558 499.117 281.856 491.491 289.484 486.016M327.695 442.092C328.401 440.743 333.864 435.992 340.429 426.116M363.842 401.04C369.518 393.847 374.398 386.896 379.367 382.064M445.268 307.744C451.18 297.692 459.213 292.434 463.177 286.458M495.641 245.858C499.913 241.558 504.783 236.499 516.746 226.511M276.46 502.761C281.802 495.946 286.201 488.898 291.416 484.528M326.594 444.253C329.683 441.607 333.48 437.57 342.026 427.976M363.494 403.599C369.922 397.492 372.801 388.705 383.34 379.202M447.208 308.127C449.847 303.62 454.437 298.616 463.7 287.025M499.572 247.204C502.789 240.128 510.625 234.508 516.998 226.901M278.522 504.63C282.994 496.972 290.859 489.408 294.277 486.03M326.355 448.528C330.875 442.121 336.166 436.554 342.841 427.457M367.1 400.199C370.02 394.588 376.293 389.711 385.963 380.52M450.354 307.981C455.233 299.268 460.038 294.263 467.898 287.058M499.611 249.411C506.912 240.673 512.931 233.818 514.419 230.179M280.925 503.32C284.746 498.003 290.09 495.421 297.676 484.595M326.207 450.002C333.671 441.497 341.311 432.4 347.02 426.875M367.864 401.882C374.785 393.709 380.362 388.384 387.511 380.089M452.237 308.294C457.036 298.128 464.55 291.919 468.529 286.902M501.739 248.932C507.243 244.997 510.318 238.04 517.5 233.173M281.784 502.485C286.679 499.946 290.722 494.65 300.068 484.744M326.833 455.09C330.231 449.111 335.047 444.624 347.931 430.079M370.76 403.22C376.152 398.321 378.406 391.228 390.008 379.348M453.798 307.974C459.545 301.722 464.901 294.852 472.591 285.752M502.896 253.084C506.644 249.481 509.114 243.965 516.933 236.184M284.89 504.342C291.426 498.521 295.48 493.317 300.2 485.925M324.468 455.488C332.904 451.282 337.816 441.843 347.395 434.218M374.742 401.598C378.998 396.218 386.654 386.653 391.921 379.726M455.269 306.722C461.428 302.434 465.083 297.343 475.562 284.945M502.564 252.38C506.135 248.135 513.05 242.316 514.444 237.086M287.254 501.597C292.658 498.501 296.296 495.757 303.574 485.917M325.943 459.209C332.589 452.934 336.668 449.573 346.541 437.754M374.415 403.314C381.162 396.983 384.838 390.994 395.547 380.391M459.487 308.365C461.913 303.015 466.87 295.096 475.942 286.372M502.853 255.644C508.141 251.864 511.591 246.734 516.587 239.796M290.414 503.713C294.24 497.687 299.188 494.844 305.652 484.831M327.275 459.969C332.038 452.919 336.542 451.656 345.713 438.467M377.077 400.21C383.876 396.758 386.268 391.615 395.261 382.231M459.469 305.751C464.201 302.592 468.425 296.366 480.116 287.871M292.889 504.454C299.105 498.538 302.778 489.975 306.993 483.491M331.07 459.368C333.688 454.401 339.037 449.687 344.932 441.278M380.535 401.863C387.187 393.118 395.915 386.427 397.57 379.269M463.796 305.872C467.943 299.858 474.071 295.84 480.157 286.436M296.021 502.586C298.943 496.417 304.346 489.736 312.298 485.73M330.923 459.544C336.616 455.894 340.094 452.175 347.723 444.81M382.072 400.558C388.844 393.672 396.343 387.073 400.922 381.316M463.795 308.685C471.845 300.051 478.249 291.169 483.885 286.918M298.704 502.218C299.85 499.96 305.562 493.122 312.079 486.649M333.842 463.424C337.168 456.036 342.278 451.959 345.766 447.064M386.09 400.042C391.838 392.135 398.899 384.775 404.822 381.33M469.187 307.71C475.631 298.987 482.991 288.506 484.839 284.377M300.688 504.999C302.264 499.772 307.351 495.432 314.305 486.456M334.174 464.067C338.038 457.106 344.132 454.515 346.834 446.597M389.127 400.835C396.22 392.335 402.327 386.989 407.26 381.01M471.551 306.026C474.068 301.72 479.031 295.254 486.605 287.343M301.691 502.481C305.742 496.832 314.002 491.46 318.44 484.182M334.678 465.472C339.596 460.412 342.258 456.098 349.399 448.563M390.456 403.163C395.278 395.938 399.919 392.207 407.185 382.253M471.49 307.89C480.63 299.228 486.941 290.287 489.566 287.8M302.864 503.528C309.109 497.963 315.332 488.797 319.036 486.64M335.249 464.656C341.126 461.82 345.687 454.773 348.839 450.476M392.565 400.292C399.608 393.937 407.413 385.31 411.731 380.055M474.757 307.935C482.05 300.949 486.693 291.228 492.656 284.376M306.477 503.118C310.661 495.894 316.508 492.38 322.391 485.936M339.841 466.525C341.824 462.381 343.633 460.741 350.975 452.076M393.749 401.385C402.126 393.821 407.213 387.786 411.271 381.932M477.138 308.232C483.157 299.826 491.659 291.789 495.666 284.523M309.441 505.028C312.476 497.674 320.131 490.002 323.389 485.123M339.788 469.964C342.121 463.921 345.554 463.1 351.754 452.388M397.868 403.113C402.597 395.628 407.308 388.79 414.949 381.592M479.567 307.668C482.979 301.355 490.301 296.45 499.149 286.558M312.725 504.892C315.127 498.899 322.748 491.307 327.144 484.18M342.399 470.696C343.634 465.903 347.554 458.576 355.626 452.195M400.356 402.091C405.056 395.112 409.933 391.311 416.593 379.132M482.098 307.436C486.293 299.485 494.107 292.805 499.86 284.57M312.562 501.75C317.498 499.115 323.267 493.767 330.495 483.699M340.692 469.618C345.519 464.264 352.001 458.412 354.273 453.656M402.538 403.069C409.63 394.731 416.931 385.708 418.265 379.754M484.027 305.768C489.033 299.475 496.597 291.317 503.579 287.489M317.452 502.49C320.631 499.216 325.743 493.84 332.755 484.707M343.176 474.029C348.227 468.49 352.244 461.953 357.488 456.414M404.656 402.676C409.912 395.129 413.8 391.354 423.953 382.337M487.747 308.296C491.677 298.235 500.268 291.111 502.923 286.055M317.225 503.518C320.869 498.213 326.921 492.7 334.558 485.436M344.051 473.038C348.042 470.12 348.714 468.348 357.475 457.138M407.853 401.335C413.021 395.57 415.601 390.388 424.518 379.154M489.998 309.226C493.38 300.898 499.42 294.52 505.817 288.026M321.573 502.269C325.833 494.616 334.364 488.01 337.239 483.409M344.548 474.973C348.299 469.628 350.924 466.385 360.377 456.979M410.241 403.611C414.05 396.474 418.772 390.369 426.708 382.433M491.982 306.503C494.749 303.641 501.087 297.448 508.935 289.644M324.533 504.83C326.049 498.698 330.063 496.108 340.346 486.303M348.392 474.256C350.658 469.915 359.131 464.955 360.663 459.815M409.661 403.455C417.72 394.405 425.385 385.531 428.949 381.356M495.002 305.586C499.704 300.516 505.036 295.837 510.532 289.523M325.959 503.818C331.113 495.948 333.801 491.485 340.29 485.276M347.547 476.307C354.727 470.99 359.323 462.839 361.631 458.827M412.441 401.417C419.317 396.184 423.698 388.877 432.44 382.177M492.595 310.404C498.785 304.878 500.669 299.822 511.488 288.926M329.641 502.753C333.52 498.159 337.353 494.622 343.065 485.19M349.03 479.796C354.704 472.814 358.379 467.339 365.304 461.294M416.67 400.179C422.646 395.82 424.731 391.18 432.642 382.039M492.742 312.892C499.449 307.846 501.17 303.91 511.804 291.182M330.497 502.034C334.308 500.322 338.591 494.417 344.555 483.341M352.327 480.452C353.458 474.426 358.267 470.772 367.635 462.291M419.128 402.093C422.79 393.829 429.016 386.06 434.892 381.166M494.039 315.844C501.158 308.853 508.828 300.074 512.685 291.563M334.095 503.209C335.049 499.372 339.378 494.779 346.96 486.727M352.677 480.891C356.26 476.851 359.651 471.818 367.176 462.459M420.673 400.557C427.313 396.151 433.932 389.591 437.596 381.102M492.831 318.918C499.975 308.096 508.235 300.583 514.701 296.135M334.704 503.383C338.356 499.142 343.596 494.281 351.702 484.653M354.359 483.022C360.673 474.557 365.69 466.868 369.499 463.679M421.697 402.105C428.765 392.824 436.981 387.41 442.732 380.746M495.405 321.228C500.122 313.082 503.951 305.982 512.28 296.004M337.334 501.859C343.097 494.638 349.241 487.8 351.905 486.15M355.936 483.888C360.377 477.145 361.987 473.994 371.22 463.486M423.598 402.093C431.243 395.596 440.469 385.789 444.937 379.114M492.857 324.168C498.766 314.553 506.472 308.619 515.199 300.468M340.543 501.344C346.556 497.903 349.743 491.932 356.183 485.687M354.838 485.625C362.202 478.699 368.165 472.791 373.044 467.346M429.057 401.859C432.972 394.374 442.85 384.645 444.4 381.453M492.249 327.054C501.18 318.777 508.044 312 512.995 303.826M341.666 504.163C352.036 489.973 364.274 476.544 372.237 467.094M431.373 400.133C433.899 394.409 441.028 390.287 448.41 382.242M493.314 328.869C500.182 320.06 507.354 310.81 512.075 306.527M344.077 503.264C355.233 489.096 365.162 477.673 373.577 468.534M433.576 403.282C436.831 393.795 442.903 390.185 450.197 379.716M494.679 330.342C499.188 325.638 504.615 318.606 513.651 307.133M347.1 502.619C354.793 491.784 365.104 482.815 374.41 470.175M434.158 400.891C439.572 395.346 443.495 390.831 451.413 380.432M494.939 335.643C502.016 326.04 506.398 318.051 513.606 312.965M349.09 502.81C356.816 492.924 364.19 483.224 377.245 469.152M438.372 402.179C442.619 393.556 447.308 388.845 454.694 382.385M494.537 335.383C498.229 332.038 500.982 327.768 514.669 315.124M351.348 504.112C359.279 491.836 367.477 482.477 375.847 473.22M438.465 402.077C445.987 394.219 452.904 387.477 458.218 382.792M491.565 339.392C498.309 334.265 503.305 327.802 513.756 316.835M354.25 502.062C361.163 494.838 367.191 489.188 376.441 475.719M441.306 400.16C447.353 395.793 455.058 386.604 459.128 381.274M492.297 343.214C501.017 334.631 508.002 327.508 512.84 318.592M357.296 501.991C362.996 497.476 367.509 490.646 378.739 478.806M444.121 402.728C448.175 398.15 452.923 393.02 463.829 380.905M492.963 346.99C500.459 336.19 508.769 327.912 514.482 323.796M358.462 501.63C363.709 496.991 368.415 491.525 378.692 482.104M447.633 400.17C451.868 394.991 458.104 390.554 467.272 379.548M494.535 347.966C499.785 340.3 508.688 329.527 512.491 326.405M361.814 503.304C365.728 498.836 369.055 495.482 379.471 482.026M449.842 400.887C456.495 392.918 463.061 384.244 469.267 376.858M494.339 351.003C497.676 344.128 502.861 338.647 513.296 326.963M362.296 504.553C364.879 497.979 369.531 494.643 376.608 486.593M451.736 400.564C460.471 392.601 467.27 383.91 470.659 378.969M492.733 353.72C499.456 345.197 503.943 337.109 514.286 330.588M365.053 501.171C367.349 499.004 370.37 496.149 377.626 488.638M451.396 400.31C457.854 395.375 460.445 390.699 475.873 377.141M494.816 355.439C502.216 345.832 508.64 339.036 513.823 333.016M368.324 502.335C368.455 501.913 368.936 501.232 369.921 500.62M453.852 402.721C467.896 386.409 482.676 370.109 514.26 334.739M458.753 401.51C470.88 386.61 482.042 372.081 511.841 339.716M461.607 403.087C473.231 384.789 486.58 369.477 514.192 341.457M462.451 403.124C480.397 380.889 498.388 361.872 513.607 344.155M465.359 402.139C483.73 380.668 501.266 360.042 513.148 347.46M469.667 398.764C480.935 383.399 496.626 367.602 511.5 348.617M471.361 400.431C482.282 385.621 494.85 374.611 511.151 351.841M474.485 398.436C480.919 388.748 488.93 379.358 513.457 356.605M477.483 396.974C483.662 391.053 493.779 382.01 511.955 359.184M481.914 395.946C490.855 385.412 500.176 374.27 512.516 361.082M482.112 398.058C494.949 383.518 507.979 371.22 512.898 363.471M29.6688 14.0451V14.0451ZM63.1551 295.946V295.946ZM148.149 472.819V472.819ZM326.651 429.032V429.032Z" stroke="url(#paint0_linear_1608_12218)" stroke-width="0.71835" stroke-linecap="round"/>
<path d="M136.774 151.864C144.748 143.753 151.884 135.511 169.135 114.948M139.334 150.722C155.55 131.715 174.881 109.696 200.076 82.458M139.204 152.1C164.384 123.213 190.521 94.7028 205.105 80.553M140.578 152.191C165.618 123.004 190.303 94.786 205.561 78.4355M144.4 153.445C156.857 138.632 171.293 121.167 207.379 80.3525M142.355 156.556C160.335 136.013 180.679 117.436 212.026 79.226M146.716 159.067C159.479 138.519 174.631 123.934 213.93 81.0438M146.514 157.65C164.06 140.874 179.1 120.252 216.689 79.0636M146.099 161.651C163.081 140.392 181.223 122.369 217.696 79.7173M149.03 162.838C165.72 142.824 186.03 120.399 219.599 82.3953M149.534 162.5C153.117 159.303 156.45 155.024 160.855 150.673M160.548 147.633C172.94 134.121 188.351 118.153 216.761 83.9953M152.736 163.074C156.16 158.332 159.786 154.427 161.608 151.987M181.365 131.374C190.104 119.542 198.778 111.538 218.556 88.3398M151.983 164.176C155.134 161.549 159.246 156 164.782 151.688M197.261 112.358C203.867 110.228 208.138 101.846 219.154 91.5424M154.322 167.019C154.891 164.062 157.526 159.004 166.717 152.529M154.687 167.91C157.955 162.644 162.613 158.005 166.159 153.583M157.43 169.564C158.797 165.342 164.014 163.25 169.052 156.395M158.875 168.608C160.374 165.176 162.723 163.179 168.998 157.837M158.327 169.996C162.302 168.307 163.091 166.682 171.647 158.348M162.196 171.349C162.982 167.784 169.122 164.093 173.748 160.791M161.743 172.929C165.053 170.019 166.335 165.297 175.157 160.982M163.134 174.163C166.766 172.315 168.943 168.569 175.105 161.861M164.497 177.753C168.886 171.617 170.474 169.019 175.759 161.442M166.126 176.437C170.201 175.367 174.008 171.148 176.221 165.115M165.531 177.216C169.256 175.211 176.668 168.194 178.727 166.851M167.152 178.44C170.16 177.538 176.383 171.123 178.873 167.746M169.033 180.49C175.45 177.481 179.887 169.172 181.519 169.023M170.665 181.968C174.965 178.366 180.021 173.577 183.668 168.786M171.183 184.144C177.653 178.401 182.041 172.486 184.639 169.006M170.906 186.451C175.064 183.089 177.302 178.022 186.132 173.06M173.24 187.507C178.906 180.498 182.515 178.082 185.391 173.92M174.049 186.232C180.012 182.908 185.591 177.994 186.846 175.363M176.787 187.151C180.505 182.564 187.269 180.371 188.926 174.37M176.69 189.457C182.251 184.935 183.64 182.073 188.955 178.254M177.998 189.833C184.301 184.419 187.459 181.847 191.744 178.714M181.629 192.9C184.081 187.746 189.487 184.419 191.847 177.779M182.157 194.963C182.723 190.496 188.006 187.358 194.686 181.077M181.458 195.667C187.871 190.045 189.714 187.897 193.491 183.299M182.36 195.619C185.926 193.901 189.966 191.277 196.55 182.774M184.827 198.92C190.661 193.992 193.465 188.89 195.749 186.034M185.783 199.014C189.95 193.349 193.406 191.665 197.05 186.889M186.787 199.242C192.483 195.905 191.833 192.349 200.328 187.871M188.085 201.16C192.852 197.194 195.601 192.505 199.292 188.62M189.974 203.131C193.348 198.334 200.505 191.457 202.681 189.493M191.781 205.349C197.376 198.934 199.212 194.359 204.361 190.693M191.567 205.773C197.351 200.727 202.441 194.077 203.523 192.874M193.979 207.59C197.046 204.576 198.764 202.124 206.339 192.376M196.861 209.303C200.263 202.185 202.241 198.874 207.792 194.232M197.231 207.857C200.375 205.858 203.776 200.407 208.157 195.904M198.615 212.335C199.972 206.954 204.221 202.055 209.544 196.756M200.179 212.711C202.031 207.186 207.024 199.93 211.004 198.568M198.809 212.785C203.947 208.789 208.269 203.029 210.114 199.668M201.355 214.403C203.881 209.002 208.303 204.538 214.239 202.107M201.371 216.164C206.887 212.869 209.47 211.131 214.032 202.461M203.416 218.001C207.405 212.673 213.308 205.643 214.644 204.623M207.132 217.464C208.483 212.721 210.4 210.908 216.361 203.543M207.525 218.444C208.472 216.482 213.396 210.494 218.566 204.487M206.431 221.52C210.791 217.542 213.61 214.187 219.011 208.212M210.042 223.104C213.147 218.494 216.093 214.06 218.762 210.327M210.798 221.601C214.849 219.266 216.159 215.311 218.644 211.955M215.698 219.179C217.622 217.226 218.423 215.292 220.075 213.876M136.316 149.141V149.141Z" stroke="#48DCA6" stroke-width="0.71835" stroke-linecap="round"/>
<path d="M308.323 86.1018C310.521 85.6937 310.636 81.4643 317.201 75.7055M304.531 91.81C308.291 86.784 309.895 84.6912 315.879 78.9394M305.622 90.6202C310.816 89.3677 310.374 87.3444 316.853 80.49M310.253 92.196C313.058 88.58 318.059 84.2064 320.864 80.0447M310.132 95.3487C313.264 90.302 319.192 86.5277 319.731 81.8373M312.405 96.3072C315.176 90.6707 318.897 86.1115 321.201 82.0175M310.819 97.4506C313.649 96.0092 316.111 91.4325 323.338 83.8816M314.388 97.7923C317.66 92.4415 322.094 90.4164 326.305 83.687M314.378 99.9893C320.338 94.833 325.385 90.6541 325.875 87.1602M316.069 99.3297C320.18 97.21 322.21 95.7396 327.081 88.9922M315.789 102.744C319.559 98.6864 320.963 97.3379 328.011 88.166M317.935 102.295C323.537 99.4696 324.603 94.551 330.982 88.9095M320.973 104.062C321.824 100.747 328.098 94.6095 330.568 92.6782M319.92 105.731C323.923 103.146 325.505 101.745 332.599 93.0687M322.039 107.315C326.36 102.546 332.326 97.4589 335.253 93.3478M322.956 109.107C326.838 103.567 327.428 102.344 336.171 94.7541M324.578 109.324C329.39 104.324 333.477 102.549 335.278 98.3247M324.932 109.668C328.818 107.355 330.875 103.421 335.989 96.5372M328.436 110.922C330.426 109.08 333.35 103.893 338.779 98.1351M327.371 114.726C330.809 109.003 336.692 104.85 338.95 100.443M328.301 114.865C333.94 109.481 336.794 106.097 342.299 99.9414M332.583 114.976C334.096 110.847 336.298 109.434 342.406 104.319M330.866 115.675C335.346 114.241 342.32 108.599 342.408 102.204M333.376 118.33C337.118 115.455 340.286 109.453 345.358 105.295M335.764 118.784C338.617 114.615 343.558 111.88 345.716 107.482M335.582 120.409C338.684 118.087 342.748 113.822 347.083 109.417M336.396 121.184C342.057 117.45 345.162 111.816 349.868 108.348M339.238 122.597C342.292 121.886 342.139 119.135 351.499 109.611M339.813 126.633C343.344 121.687 345.074 118.238 351.224 113.318M340.913 126.753C345.463 120.421 349.369 117.978 351.92 111.956M342.78 128.436C345.56 122.017 349.32 118.022 354.848 115.074M341.4 129.284C348.022 123.358 351.122 119.929 354.356 113.983M345.815 129.079C347.523 123.747 353.973 119.983 355.663 117.211M344.836 129.908C350.588 127.486 352.92 123.675 358.659 117.96M346.247 134.14C350.083 127.089 355.413 123.175 357.796 117.985M346.93 135.268C352.417 126.886 356.036 122.294 360.087 120.879M350.646 136.1C353.42 130.161 357.802 126.552 361.209 121.123M351.587 137.458C354.582 133.814 355.995 127.627 360.729 124.112M350.685 137.03C354.565 135.354 356.273 130.526 363.698 123.472M354.696 140.054C357.654 134.992 363.213 127.294 363.028 126.464M355.879 141.4C359.025 136.617 362.801 131.898 366.608 127.312M357.518 141.873C359.544 135.634 363.585 130.054 367.85 128.411M356.962 142.996C359.758 139.432 364.314 133.317 368.152 129.048M358.106 145.504C360.932 141.37 361.745 137.393 369.949 131.622M359.298 144.959C362.428 140.289 366.731 135.578 371.802 131.249M308.685 208.867C315.288 200.179 320.336 192.598 324.348 186.293M359.166 146.762C363.984 145.383 366.014 139.778 372.969 133.401M306.34 210.303C318.1 199.696 324.667 190.947 341.72 169.876M361.133 149.294C363.038 144.85 367.193 143.059 373.284 135.846M308.807 212.811C326.412 193.651 340.503 174.333 374.862 134.16M309.017 214.969C321.594 197.391 337.071 180.08 377.911 135.224M308.715 217.662C326.805 194.447 347.926 172.889 376.179 139.058M309.88 221.788C324.996 203.915 337.914 186.941 379.756 138.58M309.657 219.849C338.31 189.992 364.029 157.648 379.844 141.007M314.685 219.798C336.127 190.408 363.636 163.107 380.413 142.693M314.696 218.623C337.466 192.955 361.507 169.148 383.327 144.287M318.188 221.745C340.813 192.818 362.226 167.767 383.154 145.349M320.705 218.507C340.929 197.138 357.843 175.143 384.168 145.487M321.398 218.879C341.831 198.796 362.079 175.708 386.022 145.639M354.77 187.105C366.175 172.376 380.702 155.804 387.346 149.163M314.88 75.3086V75.3086ZM307.656 204.787V204.787Z" stroke="#3CA0D2" stroke-width="0.71835" stroke-linecap="round"/>
<defs>
<linearGradient id="paint0_linear_1608_12218" x1="382.5" y1="1.00011" x2="-5.38848" y2="368.108" gradientUnits="userSpaceOnUse">
<stop stop-color="#3CA0D2"/>
<stop offset="1" stop-color="#48DCA6"/>
</linearGradient>
</defs>
</svg>
