<svg width="249" height="770" viewBox="0 0 249 770" fill="none" xmlns="http://www.w3.org/2000/svg">
<g opacity="0.7">
<path d="M634.923 85.8598C630.139 80.2249 629.664 79.0029 623.678 73.5402M635.661 93.4875C628.478 80.8518 621.945 67.6932 615.104 61.4039M636.109 96.008C631.285 85.2354 622.811 72.2142 610.115 59.4158M638.405 102.078C624.241 84.8524 612.946 71.672 607.298 58.5646M637.876 106.991C628.879 90.0945 616.62 76.8701 597.712 52.4638M638.798 108.364C625.822 93.2566 613.501 77.239 597.086 52.4769M637.019 112.388C626.13 91.6131 607.455 73.2854 590.863 49.0124M638.341 116.227C622.119 91.9444 607.42 71.3503 588.375 50.126M640.057 120.016C618.48 97.4401 603.378 70.4831 587.248 52.1643M637.119 122.815C614.146 97.7074 598.016 68.3122 584.028 49.5858M634.676 127.946C621.715 106.675 604.36 80.6533 581.983 49.1351M635.253 129.877C620.036 108.261 607.927 91.9925 576.034 52.2448M635.241 132.19C623.675 113.689 609.282 96.6636 574.946 50.5167M631.968 132.377C613.593 106.244 593.061 79.6963 571.903 51.5845M633.409 136.91C619.227 117.218 605.749 98.8586 570.682 50.4871M628.236 140.256C617.172 118.729 605.359 105.333 566.494 52.7274M631.133 139.471C609.228 111.794 589.071 82.5368 564.191 51.5551M626.878 142.359C602.539 108.479 579.005 71.5739 564.344 53.7877M625.413 143.354C611.726 121.542 593.594 100.014 561.326 51.5054M623.26 144.712C613.453 125.536 596.326 105.502 559.209 55.3859M622.333 146.314C606.809 122.113 591.642 97.8872 558.007 55.169M623.588 152.189C603.265 121.729 582.212 94.7086 555.286 53.8312M622.74 150.543C604.83 128.47 587.794 102.886 554.456 56.9738M619.964 154.516C601.564 128.367 581.829 103.901 548.545 56.3405M616.859 153.896C599.101 133.452 581.703 107.113 548.801 60.6881M618.354 156.607C599.162 130.407 579.168 107.306 546.332 59.0058M613.236 160.061C588.285 122.198 562.683 88.4677 544.994 62.7632M613.28 160.115C594.752 138.694 576.642 113.978 544.38 61.9758M610.719 162.86C597.689 142.15 580.716 121.248 542.59 64.227M609.864 164.06C587.507 132.649 569.641 103.473 538.631 63.8233M609.698 167.733C589.31 139.291 568.652 109.821 536.414 67.2724M605.699 168.711C583.985 129.471 555.738 94.8715 535.179 70.501M607.329 168.469C590.104 148.706 576.293 126.233 533.825 72.2174M602.749 171.398C582.096 141.952 558.237 109.948 532.582 71.3903M604.427 171.932C583.382 142.296 562.182 115.214 531.729 73.3336M600.388 176.212C578.041 140.59 553.329 108.932 529.548 77.4171M597.587 177.685C584.906 157.765 569.397 135.302 526.908 78.1423M596.789 179.51C574.856 146.687 551.51 115.26 526.897 80.9929M595.698 178.766C574.5 152.024 554.402 124.585 524.605 81.5173M593.206 179.402C573.131 152.573 551.208 121.926 522.702 85.5087M591.384 183.012C567.138 142.715 541.043 105.019 522.488 87.7509M589.543 184.945C570.273 152.97 547.238 123.234 520.43 87.2746M587.266 184.987C565.057 153.66 544.093 124.177 521.588 90.7933M589.38 189.038C571.209 169.08 556.487 146.793 520.06 92.2408M587.304 187.537C564.747 157.476 545.304 129.73 517.013 94.1623M584.141 191.777C563.468 161.181 546.212 132.666 513.008 95.0717M583.738 190.163C554.701 154.989 528.188 116.437 513.693 95.2302M579.528 195.323C564.892 174.592 548.284 154.157 513.207 96.8154M577.466 195.59C557.345 165.47 536.373 134.383 508.233 100.813M578.648 195.593C554.455 165.356 535.51 137.41 508.035 99.5194M575.902 197.269C560.845 178.01 545.798 157.319 505.206 102.624M574.236 199.876C553.681 172.046 533.287 144.571 504.728 104.095M570.284 202.306C558.892 182.918 546.728 164.162 501.392 106.485M572.28 201.239C548.796 175.757 530.31 148.367 501.862 107.907M570.281 204.464C544.362 174.698 524.322 141.221 499.535 108.897M567.971 206.572C544.578 175.512 523.039 141.033 498.639 110.75M563.833 205.895C548.062 183.623 530.948 161.72 497.657 112.342M562.725 209.382C542.382 182.846 523.827 156.395 494.73 110.944M562.478 210.101C543.888 185.401 527.981 157.838 494.12 113.206M559.895 210.523C539.802 185.786 518.973 158.41 491.625 116.052M559.824 211.147C540.117 186.737 524.071 160.523 487.76 117.036M556.855 214.412C534.333 178.127 506.435 141.752 489.519 117.321M552.803 217.266C531.405 181.559 505.678 147.559 487.424 117.847M551.857 218.08C537.996 197.439 524.799 174.751 483.93 121.481M548.97 217.84C529.741 190.396 512.355 162.91 482.279 121.183M548.557 217.419C527.769 190.099 506.88 164.894 478.449 123.245M549.089 219.928C525.951 191.466 500.381 161.636 479.965 124.326M545.356 223.439C530.329 198.233 509.432 174.217 475.747 125.115M542.859 224.751C524.911 199.626 507.595 173.256 475.615 129.329M539.754 223.721C513.9 188.858 490.007 154.862 474.766 127.825M540.904 226.498C525.186 205.669 510.247 182.301 469.378 129.073M537.203 226.849C512.986 195.305 493.167 160.739 467.099 131.177M535.74 227.878C521.69 205.694 504.27 185.766 465.808 133.949M532.855 228.828C513.201 201.351 493.013 172.504 465.764 134.378M532.744 233.005C509.674 197.796 485.799 164.824 463.558 137.463M530.631 231.405C513.485 211.993 498.601 191.417 462.16 135.657M526.704 231.836C511.921 210.764 497.43 187.38 461.415 138.497M527.675 233.807C500.502 197.291 472.038 161.189 457.927 138.508M526.058 234.8C506.052 205.579 485.395 179.178 454.288 140.352M523.563 238.447C507.626 210.705 489.591 188.481 455.103 141.829M522.531 238.884C504.747 214.334 485.659 192.258 451.453 142.871M518.701 241.524C501.527 215.173 483.085 189.247 448.545 146.541M518.688 242.417C489.406 205.928 462.574 169.475 449.064 144.785M515.405 242.042C497.918 214.863 478.469 185.869 446.726 147.581M511.705 242.962C485.204 205.576 458.767 165.92 446.816 146.732M510.854 243.735C492.353 214.094 469.86 187.51 444.061 150.191M510.086 245.973C484.853 212.681 459.585 181.164 440.413 148.991M507.15 248.682C487.105 218.157 466.079 190.414 439.802 150.509M506.054 249.379C489.433 228.844 470.16 205.289 438.639 153.21M503.365 248.474C489.992 229.53 473.226 206.461 434.883 153.492M500.8 252.025C487.039 229.254 475.029 209.215 432.994 153.749M497.933 250.727C479.774 223.498 457.895 195.8 429.996 157.49M499.472 251.734C476.856 225.806 457.559 195.091 427.26 159.013M493.967 254.262C477.023 226.65 455.324 196.315 426.825 157.784M493.706 256.137C467.205 221.068 441.601 185.967 424.092 161.712M491.186 255.015C467.662 219.665 441.734 184.063 424.76 159.702M488.19 257.401C472.472 235.392 455.783 212.562 419.45 163.457M489.609 257.565C473.124 237.771 459.067 216.917 420.842 163.816M488.17 259.021C457.632 221.992 434.658 188.215 417.485 166.072M485.131 262.495C464.917 236.921 444.47 208.953 415.469 166.268M482.231 262.506C465.413 243.086 453.53 221.91 413.416 168.595M480.834 263.599C460.847 231.781 436.498 200.694 410.816 167.297M477.175 264.965C461.374 240.079 441.144 212.461 411.117 170.527M475.289 264.406C457.317 242.801 439.73 216.856 406.562 172.067M474.467 266.591C448.525 236.787 428.87 205.549 404.329 171.447M472.733 268.03C444.689 234.138 417.301 196.541 405.595 172.835M472.69 268.607C454.156 249.465 440.082 232.348 402.374 173.401M468.857 270.71C453.206 252.779 438.782 230.718 400.696 173.52M466.891 272.249C445.125 238.75 422.827 208.166 399.713 175.279M465.586 274.042C438.63 235.362 413.172 197.174 396.217 176.57M463.239 273.812C444.201 248.577 428.879 225.146 392.311 178.109M462.672 275.726C439.714 247.544 416.878 213.934 390.23 178.458M457.807 275.828C440.55 253.229 418.715 223.573 388.933 180.99M458.602 277.237C435.188 250.169 413.407 217.517 387.125 181.758M455.647 277.418C432.283 247.24 407.758 212.999 385.767 182.762M454.537 281.014C435.696 255.116 416.962 232.797 383.682 186.303M450.899 282.613C428.766 251.607 406.574 217.648 382.606 183.779M448.709 282.264C432.494 259.507 416.951 239.052 381.496 188.34M446.61 282.246C432.692 262.259 415.879 237.994 377.342 188.081M445.057 283.162C425.622 260.074 407.349 235.153 378.207 189.837M444.367 288.413C418.095 253.566 391.086 218.454 375.342 191.24M443.227 287.688C411.724 248.765 386.958 212.357 371.026 189.635M440.067 288.651C423.718 264.767 406.34 241.676 370.3 194.946M437.473 291.642C415.598 260.519 396.617 233.11 366.337 195.118M433.753 292.212C413.058 263.609 390.136 230.076 366.277 193.176M432.445 291.078C418.938 270.317 402.797 248.186 363.8 197.491M431.943 291.58C411.868 269.494 395.134 243.42 363.041 196.706M428.099 293.667C403.672 262.564 381.792 230.474 360.272 199.214M428.543 297.085C406.092 260.244 383.399 228.627 360.273 199.39M424.345 295.076C412.257 277.421 396.632 257.174 354.783 200.936M422.152 297.08C400.207 261.804 372.674 228.136 356.227 201.72M421.212 300.99C406.6 278.109 390.52 254.547 354.668 203.65M420.838 298.956C402.022 269.85 378.951 241.867 352.065 205.387M416.138 299.497C397.344 273.9 377.073 247.697 350.045 204.346M415.454 302.153C395.366 272.557 375.06 248.087 346.64 205.118M414.756 302.462C396.509 279.746 376.08 253.65 346.834 206.147M411.869 305.12C396.994 286.027 383.371 262.864 341.863 208.328M411.143 307.222C393.941 281.595 373.135 257.724 341.499 210.934M409.551 306.765C383.09 272.71 360.161 241.79 340.442 211.112M404.877 308.105C385.142 274.441 358.517 242.508 335.987 212.272M641.936 640.486C638.06 630.099 629.704 620.351 623.745 617.785M405.344 310.291C385.084 281.344 363.291 256.208 336.822 215.552M644.382 647.858C638.695 637.304 626.99 626.359 618.512 614.302M403.801 312.817C382.201 278.746 357.534 250.371 334.938 215.549M644.978 653.369C636.085 641.855 628.722 629.087 612.766 610.195M399.108 312.553C372.865 277.104 345.075 236.483 332.726 216.268M645.104 656.687C634.507 643.407 622.835 624.022 611.939 609.37M397.672 313.804C376.012 283.356 357.71 256.775 329.497 219.483M646.733 665.316C635.644 643.915 620.148 629.536 605.759 609.866M396.362 315.475C374.433 284.672 351.827 252.2 328.196 219.506M646.416 666.767C630.35 647.348 614.786 626.926 601.989 606.087M393.518 316.662C370.288 284.286 346.148 250.119 326.987 219.261M645.539 671.993C626.959 645.722 610.214 624.039 600.955 608.273M393.646 318.212C367.638 277.667 339.447 242.318 322.199 221.582M647.364 672.849C629.261 651.691 611.503 629.401 596.231 608.095M389.314 316.719C365.639 281.596 340.09 246.636 320.871 223.71M644.16 679.038C634.316 659.827 618.433 641.098 594.08 607.775M390.598 317.962C364.404 285.102 343.279 255.01 318.006 224.432M644.72 682.494C633.131 663.988 617.822 644.234 589.914 605M388.576 320.53C364.664 287.227 342.932 258.138 316.06 224.755M645.603 681.972C630.567 664.76 616.354 644.923 589.001 605.008M384.162 319.707C362.368 290.442 340.102 260.377 315.144 226.082M641.228 686.892C624.076 657.088 600.922 624.956 585.388 604.958M380.813 321.116C359.059 293.466 336.398 264.487 313.071 225.235M642.008 688.352C627.321 665.325 610.838 647.346 584.061 605.639M382.734 324.288C356.865 290.852 336.139 257.304 310.405 227.532M639.127 690.595C622.536 663.593 602.723 641.181 580.667 606.322M379.886 323.667C364.128 305.337 345.581 286.017 309.846 228M639.74 692.985C624.675 669.005 606.801 650.399 579.085 608.781M375.171 324.462C355.864 300.771 338.275 273.308 307.811 231.546M639.059 695.13C623.471 669.184 606.063 647.465 576.662 606.841M376.078 328.537C351.529 292.99 327.584 261.894 305.981 230.598M636.85 695.384C611.577 662.73 587.949 628.978 571.482 606.725M374.792 327.937C352.311 297.791 330.17 267.873 305.497 231.382M636.039 698.373C617.387 673.646 595.897 646.077 571.43 607.781M372.788 330.259C348.911 292.7 322.111 258.417 301.554 235.58M635.819 701.842C610.115 662.809 583.381 629.199 570.222 607.168M368.196 332.898C342.856 297.04 321.347 262.755 301.032 233.983M634.223 701.3C616.587 681.174 601.59 661.754 567.142 608.791M367.851 332.061C343.175 296.97 315.341 263.287 299.526 235.93M632.918 705.63C615.636 681.799 596.473 656.728 565.533 611.976M365.257 334.812C344.117 301.411 321.328 271.993 296.802 238.318M630.177 706.776C603.926 669.941 577.785 632.188 559.691 612.737M361.942 335.817C341.365 302.948 317.055 270.392 295.206 239.669M627.33 708.213C606.246 678.087 586.474 652.117 560.052 611.759M359.793 334.009C331.441 297.77 307.509 257.752 293.464 240.752M624.537 708.549C601.645 672.666 574.35 639.638 557.023 612.922M357.573 336.393C335.101 305.07 312.28 270.251 288.695 238.699M623.884 711.328C608.515 687.275 593.673 667.259 554.119 611.945M358.612 337.109C332.605 307.387 312.448 274.443 288.334 242.308M621.24 711.004C602.784 685.113 582.778 659.129 551.119 614.147M353.899 337.936C327.907 305.621 302.016 268.633 284.913 242.857M619.658 713.839C602.389 688.809 586.309 664.461 548.77 614.203M352.554 341.604C339.732 315.764 319.204 294.292 283.355 242.875M620.328 714.861C595.462 686.438 574.86 655.399 548.742 615.086M350.904 343.231C326.76 306.686 299.453 268.678 284.037 245.957M616.1 717.042C594.991 685.045 575.525 656.583 544.24 614.69M349.659 341.556C333.345 317.963 314.328 294.949 280.468 245.413M617.023 716.272C600.243 690.406 582.707 666.629 543.166 615.275M347.773 344.944C332.805 321.033 316.141 300.809 278.598 246.063M613.454 718.612C591.744 689.333 574.22 659.913 542.036 617.071M347.606 344.805C323.924 318.517 307.487 293.144 277.859 250.097M610.839 720.537C588.074 688.755 570.526 660.73 536.201 618.258M342.674 347.771C324.745 318.057 305.888 290.916 275.944 251.48M608.039 717.727C582.141 685.041 557.228 648.166 536.957 618.261M341.951 346.899C326.387 322.263 307.038 296.248 272.615 251.931M607.143 722.291C585.587 695.244 568.781 666.22 532.434 619.128M338.446 347.023C318.372 323.029 298.924 292.737 271.588 251.768M602.005 720.819C588.511 697.179 571.946 673.645 529.842 619.969M337.952 348.418C313.393 314.81 287.861 275.53 267.017 255.718M601.76 723.526C576.692 683.803 546.726 647.013 526.042 619.792M335.301 350.728C312.165 318.135 293.448 289.456 267.779 253.558M601.444 723.717C579.51 691.222 559.741 665.921 524.633 617.436M332.797 350.351C320.626 330.103 303.013 308.496 265.821 256.521M598.533 723.739C574.953 695.536 556.423 664.518 521.72 619.945M331.709 353.657C305.669 316.792 275.38 277.026 264.056 255.78M594.547 723.837C575.916 696.698 554.758 665.922 520.303 622.092M330.474 355.455C311.796 323.548 289.182 295.627 262.234 257.61M592.993 723.815C576.03 702.455 557.648 673.453 518.985 620.362M329.848 355.462C299.297 314.478 273.314 277.5 258.611 260.552M590.811 725.411C573.569 704.285 558.171 683.629 516.756 623.219M324.587 357.11C297.142 319.116 271.835 282.131 255.683 260.075M588.105 727.532C573.662 701.469 555.747 682.54 513.738 622.272M325.612 359.9C298.27 324.225 273.226 287.769 253.805 263.565M586.543 727.174C558.47 684.995 527.032 645.067 512.053 623.187M322.022 360.745C308.574 340.396 295.402 318.534 252.806 262.248M581.34 728.309C560.147 695.563 534.733 661.507 510.125 621.341M320.539 360.686C303.599 338.39 289.582 318.398 252.96 262.908M579.787 729.017C560.594 703.643 539.686 676.043 504.407 625.069M320.103 363.31C303.356 341.826 289.966 319.555 249.774 264.381M579.853 728.96C558.869 704.833 540.805 679.182 503.961 622.692M317.739 361.551C301.914 340.698 288.537 320.03 246.694 264.881M578.269 728.014C558.713 702.25 540.732 676.3 499.855 624.892M314.791 364.835C293.286 332.524 267.886 304.318 246.516 266.771M572.48 730.157C557.581 703.575 540.669 682.27 497.661 624.193M313.212 365.58C287.786 326.873 257.728 289.266 245.187 269.634M572.761 729.401C550.766 699.355 528.196 667.305 497.102 624.265M309.09 364.824C294.962 344.547 280.7 319.336 240.824 268.845M570.587 729.669C552.496 708.442 534.34 683.367 493.595 626.172M308.222 366.707C286.13 333.285 259.073 301.476 240.032 273.32M568.593 732.048C542.775 699.61 520.519 668.668 491.822 626.504M307.733 370.159C280.576 330.085 250.619 293.677 238.546 273.801M565.211 730.569C547.089 704.218 526.579 678.739 488.275 627.485M305.277 368.88C279.064 332.126 248.541 295.398 236.507 271.891M563.641 733.087C547.154 709.598 528.86 684.187 484.873 624.542M301.736 372.01C288.821 348.682 271.605 325.778 235.84 273.56M560.293 734.372C539.374 705.209 520.318 680.724 482.558 626.504M302.859 370.862C274.806 339.946 249.439 302.764 230.136 277.454M556.434 734.989C527.544 694.548 501.467 656.115 479.081 626.731M297.225 373.999C276.761 344.388 252.177 311.169 230.239 276.951M556.945 735.465C530.103 703.109 509.116 667.906 477.139 628.959M297.698 373.496C276.468 345.101 253.87 318.271 226.631 278.808M552.776 736.362C532.109 705.151 514.605 679.938 475.786 626.366M294.176 375.93C274.93 351.482 260.233 324.863 223.964 281.104M549.663 736.353C526.416 702.997 503.655 667.05 471.544 626.073M293.596 375.382C270.432 346.035 246.81 313.745 224.322 280.068M548.542 735.482C526.324 708.04 507.75 678.728 471.956 626.546M292.55 377.905C266.093 340.975 242.429 306.254 221.742 281.753M546.951 736.073C530.244 710.417 510.993 688.144 466.663 628.846M288.44 379.844C272.189 359.29 256.874 335.138 221.393 282.049M542.777 735.386C518.959 707.051 500.343 679.266 466.332 630.029M286.723 381.379C265.042 346.331 240.67 318.683 217.775 285.157M541.459 737.264C517.808 702.315 492.231 671.43 460.598 630.438M286.627 383.175C261.811 348.755 240.155 317.769 217.571 284.973M536.816 736.609C506.995 697.287 476.635 658.091 461.105 627.974M283.063 383.983C260.173 352.558 242.116 323.07 213.915 287.891M537.037 737.687C507.327 697.719 480.233 661.018 456.019 628.957M280.199 381.701C257.633 354.138 238.446 324.462 211.657 288.742M534.098 739.945C505.507 699.744 475.668 662.014 454.634 630.155M279.663 384.075C252.301 351.676 227.343 314.335 208.522 286.73M531.797 739.781C498.362 696.396 470.366 655.356 450.984 630.333M278.496 384.781C258.628 358.015 237.961 330.033 209.6 289.005M526.256 740.532C504.149 710.699 483.541 678.503 450.699 628.311M276.192 387.042C260.277 367.416 247.12 344.344 206.953 291.908M527.192 741.192C508.823 716.394 493.024 690.225 445.897 629.292M273.755 387.174C249.416 354.29 226.856 319.792 205.53 290.45M523.823 738.658C502.744 715.003 486.847 687.785 443.187 630.759M271.918 388.724C253.16 366.478 236.901 337.599 199.936 294.452M519.454 741.241C501.888 717.126 485.823 691.117 441.784 628.308M270.539 390.516C249.863 364.738 231.109 338.823 199.817 295.195M517.158 741.851C497.888 715.384 480.1 690.788 437.104 629.492M267.62 390.981C248.158 364.782 227.369 335.47 198.361 294.909M513.231 738.971C486.477 698.573 457.45 661.183 436.238 630.269M265.009 391.871C243.477 363.876 224.837 336.25 195.477 297.511M513.152 739.952C481.858 697.553 449.534 655.781 433.51 630.727M261.641 395.107C249.272 371.64 236.39 351.552 194.524 297.728M510.786 741.178C492.011 720.252 476.531 694.246 428.386 629.122M262.253 396.257C243.997 365.261 223.17 336.285 190.096 298.839M508.072 740.467C488.132 717.674 473.334 692.989 426.3 629.799M260.739 394.33C232.892 362.595 210.522 329.553 188.114 298.002M503.232 743.071C488.398 716.932 472.406 689.609 423.849 627.522M255.649 395.621C236.785 366.688 217.194 338.402 189.335 299.9M503.085 742.616C484.676 721.558 467.724 695.175 421.172 626.66M256.241 398.498C234.249 374.783 215.945 347.254 185.263 302.029M499.507 743.038C472.912 709.673 449.924 677.04 415.819 627.136M252.703 400.174C230.677 371.482 212.692 342.54 184.222 301.267M494.846 742.173C469.454 701.568 437.149 660.226 413.068 625.77M251.473 401.163C227.286 367.768 201.786 333.92 182.686 304.522M492.414 741.69C476.336 717.619 457.567 693.067 411.07 627.584M250.322 401.104C235.053 378.356 219.391 359.766 179.465 303.916M492.069 742.984C458.363 698.941 427.479 652.995 409.05 627.716M245.09 402.403C229.71 377.305 209.703 348.775 178.634 307.077M487.734 743.393C469.731 716.324 447.406 683.016 407.552 627.22M245.362 401.773C229.02 381.175 215.944 362.913 176.655 306.174M487.784 742.665C461.774 704.411 432.64 667.617 402.449 628.712M243.96 403.416C218.035 371.675 190.612 337.493 173.929 307.451M482.904 742.699C455.112 703.828 422.841 663.091 400.249 627.486M239.057 405.623C217.705 370.869 193.296 338.37 169.721 309.182M482.357 745.817C457.168 715.099 437.538 681.79 396.249 627.496M238.725 405.143C220.798 378.962 203.049 354.828 167.987 310.156M479.252 744.9C461.522 717.393 441.028 688.606 393.847 627.749M237.861 406.207C207.529 370.228 180.584 331.347 166.321 312.189M476.723 743.523C452.24 713.049 430.306 677.501 392.024 625.274M234.668 407.383C217.597 381.057 199.373 353.89 165.846 311.197M473.495 745.577C455.12 716.53 433.937 688.245 389.743 625.255M231.786 408.905C208.126 377.586 182.558 344.042 165.202 311.601M470.022 744.631C455.76 721.318 436.114 696.321 386.011 626.877M232.792 410.058C209.104 379.209 186.782 345.802 160.447 314.354M469.545 747.468C440.585 706.43 411.458 663.238 380.294 625.218M230.274 410.664C201.473 375.767 173.946 335.952 159.036 314.978M465.136 744.927C437.915 706.089 407.619 662.877 379.218 623.909M228.575 412.895C212.94 391.723 197.811 374.725 155.045 316.405M464.565 747.692C442.216 722.414 424.023 696.775 376.652 625.294M224.621 412.315C198.545 378.71 175.55 343.568 156.26 318.817M458.422 747.846C438.19 717.076 419.196 689.215 371.91 625.272M224.315 414.044C209.334 395.887 193.418 374.297 151.651 318.862M457.567 748.352C433.352 712.368 409.215 681.979 368.49 624.408M219.915 417.162C192.918 377.913 163.32 339.612 151.425 317.718M456.572 746.837C423.223 700.111 390.17 653.97 367.286 624.508M218.8 415.709C190.705 379.252 164.632 343.08 149.138 318.388M451.656 748.003C424.267 711.733 399.281 675.855 361.687 623.421M215.088 416.844C195.13 391.362 174.121 360.251 147.823 318.79M448.598 744.891C414.756 699.506 382.244 656.383 360.574 622.251M213.136 418.307C196.362 396.337 182.345 373.029 142.973 322.194M447.643 745.742C424.065 710.181 397.082 675.997 355.115 621.78M211.991 421.709C192.565 387.996 166.528 358.705 140.557 322.493M443.518 747.837C413.949 700.377 382.859 655.97 352.577 620.272M208.857 421.229C190.981 394.283 168.398 364.093 140.291 324.317M442.157 747.203C416.249 712.261 389.799 679.027 350.582 620.375M208.681 423.547C189.9 394.973 172.369 371.4 138.054 324.078M439.292 748.558C407.68 703.448 379.606 662.636 345.951 617.877M205.07 421.995C183.762 393.603 161.544 360.863 136.971 325.736M435.117 745.622C407.749 703.228 376.59 661.934 342.761 618.37M205.828 422.913C186.368 396.302 168.391 372.623 134.173 326.514M433.02 746.082C405.865 712.598 382.078 674.093 341.005 619.575M201.618 424.4C185.539 402.972 169.71 377.294 130.792 328.265M430.077 746.072C410.478 716.525 390.999 691.107 338.4 619.248M199.343 426.922C176.89 396.74 156.809 366.63 127.646 328.706M426.475 746.764C398.278 706.281 370.71 670.034 334.444 618.567M198.471 428.671C180.181 402.158 165.555 380.507 128.974 329.446M422.917 747.402C405.28 721.135 383.567 692.857 330.842 616.523M195.764 428.723C172.383 393.711 149.789 360.477 127.035 330.05M422.693 748.102C394.397 709.472 364.937 669.413 327.323 615.663M191.716 427.788C174.001 400.119 154.845 370.917 124.517 332.12M417.566 747.807C390.995 710.791 364.32 674.145 324.226 615.735M191.689 430.043C167.445 395.257 140.061 365.419 122.74 333.862M414.418 745.169C387.164 708.652 357.112 670.055 319.334 614.457M191.023 430.445C161.861 394.377 135.891 356.505 117.566 332.64M412.489 748.067C387.667 712.211 362.988 675.083 317.042 613.137M187.942 433.927C165.012 401.829 144.129 370.392 115.642 334.169M409.328 746.239C383.775 711.668 359.225 674.605 311.539 610.836M186.297 433.308C165.543 404.199 145.353 377.617 116.225 336.354M408.254 748.198C379.281 708.045 350.118 670.367 309.2 612.16M237.836 512.754C234.096 505.496 228.258 500.27 221.573 490.097M181.81 432.961C154.099 396.492 128.695 358.127 113.138 334.441M404.816 746.613C365.78 696.758 328.815 646.135 304.899 608.315M241.763 522.473C238.319 512.516 231.317 501.361 216.194 484.569M182.82 436.92C154.253 396.531 126.53 361.633 112.308 336.881M401.534 745.946C367.666 700.386 331.262 650.1 300.956 608.255M249.083 534.454C240.435 520.606 232.474 509.013 209.764 480.083M179.367 436.467C150.846 397.73 125.169 359.477 106.316 338.605M399.531 747.086C378.629 716.888 357.723 691.414 298.177 607.348M247.102 536.727C235.415 521.626 225.155 505.814 208.292 476.872M177.611 438.506C155.275 408.478 135.341 380.83 105.055 339.381M395.641 744.108C367.338 705.498 336.706 664.24 293.903 606.669M250.543 543.168C239.012 525.938 228.7 513.68 201.965 476.48M174.8 436.593C152.079 408.67 128.685 377.478 105.706 340.092M394.173 743.965C364.341 705.802 337.229 665.484 290.951 604.583M249.087 544.061C233.744 525.594 222.28 507.275 197.689 475.483M173.999 439.121C157.324 418.721 143.51 400.675 103.644 342.032M389.142 743.268C363.965 706.342 339.664 671.369 286.569 602.512M250.084 548.041C228.054 517.619 204.676 490.524 190.9 472.092M170.632 439.441C144.167 399.623 115.972 361.202 102.218 344.792M386.748 745.996C349.689 694.655 315.611 646.066 282.122 599.344M249.568 553.454C231.215 528.449 212.858 503.124 187.751 470.285M166.27 442.546C146.236 412.61 127.853 382.899 99.2406 344.296M382.299 742.822C355.739 701.577 326.001 659.481 278.869 600.537M250.203 558.287C225.415 521.007 200.258 490.968 184.46 470.856M164.935 443.2C144.633 408.737 125.294 381.779 96.3082 345.681M379.672 743.601C349.335 699.563 319.559 659.559 276.156 597.734M247.199 559.882C225.64 531.159 204.783 500.956 182.56 470.611M162.72 441.76C147.838 421.249 131.19 400.605 96.6716 345.775M378.753 742.545C344.003 696.28 308.526 648.441 271.689 594.595M247.519 563.715C228.555 536.029 207.418 509.444 179.919 469.256M163.242 442.98C137.081 410.981 114.87 382.24 94.7833 348.101M372.851 744.136C344.07 697.429 311.203 653.422 266.564 593.462M247.133 566.449C231.526 543.244 216.321 521.683 177.729 468.162M159.023 445.547C134.324 408.343 109.381 374.895 89.1939 350.269M372.051 741.831C338.77 699.286 307.646 653.139 264.172 591.838M246.488 567.22C224.04 537.184 203.764 508.706 171.642 468.519M158.549 444.565C141.956 423.646 129.453 400.644 87.5119 347.942M368.675 741.992C335.827 697.388 299.998 651.231 259.5 592.655M243.126 572.248C221.982 537.934 200.201 505.373 169.092 465.518M157.158 446.308C139.354 423.876 123.213 401.75 86.7343 350.554M364.855 743.052C342.898 710.457 315.298 676.214 254.639 589.623M243.298 575C228.897 549.909 209.48 527.394 167.712 465.364M155.544 449.833C132.079 418.619 109.234 386.141 86.6746 350.717M361.302 741.218C323.061 686.881 280.264 632.339 251.636 587.41M244.465 574.773C221.582 542.682 199.657 511.937 163.243 466.644M152.193 449.196C130.651 416.223 107.115 387.045 84.4446 352.367M360.275 743.341C324.246 692.825 288.981 643.568 246.46 586.089M242.4 579.495C210.006 534.201 181.308 491.314 159.795 463.908M150.618 452.435C130.696 426.803 112.964 400.115 81.1087 356.401M357.219 740.598C330.434 709.133 307.904 674.287 242.377 582.221M241.176 580.009C213.122 541.198 187.179 500.5 157.281 462.876M149.311 450.837C132.331 427.933 114.532 400.564 79.3657 357.158M353.255 741.525C282.252 641.939 210.181 541.006 153.686 465.01M147.66 452.596C126.999 422.571 104.955 394.053 79.4952 357.049M349.255 740.484C307.467 685.015 265.951 625.705 151.925 464.563M142.89 455.621C127.697 429.319 109.768 406.407 74.1725 357.412M346.245 740.543C270.032 634.339 194.345 529.083 148.911 463.334M144.153 458.351C117.035 418.945 91.2336 381.428 74.9256 359.321M342.878 739.154C235.696 588.128 127.214 437.614 72.3719 361.866M339.343 738.706C286.337 665.021 232.582 587.729 71.0185 364.061M336.425 738.107C261.828 634.502 187.075 528.893 68.7759 364.876M334.126 737.187C266.018 642.481 197.297 545.376 67.1108 365.96M329.367 737.162C243.65 615.532 154.51 494.818 65.2916 367.345M326.134 734.938C246.904 623.753 167.577 515.009 64.7066 370.305M324.27 735.168C219.029 590.385 115.889 444.936 63.1139 371.24M320.476 733.545C267.31 662.188 216.104 589.505 61.0376 373.316M317.126 733.202C217.845 597.681 118.517 458.892 59.1421 375.183M313.93 732.978C219.258 602.686 126.596 472.97 58.5437 376.004M310.21 731.748C235.374 627.352 161.745 523.1 56.6067 378.857M307.392 732.129C208.655 594.577 110.207 456.431 55.5669 379.043M303.51 731.378C252.203 657.389 198.343 581.096 54.1 381.113M299.465 728.701C225.15 621.463 148.857 516.206 51.9052 383.372M296.504 728.569C204.185 601.536 114.49 476.032 50.0851 385.112M293.224 726.838C228.045 637.076 162.6 545.811 48.0424 386.347M290.086 726.773C189.437 591.432 92.8342 455.949 46.9999 389.432M285.845 724.615C230.207 648.492 173.431 568.783 46.3133 391.621M281.473 724.149C206.289 616.356 129.424 509.299 44.4028 393.248M278.956 722.446C190.005 597.542 101.164 472.452 43.2054 394.913M274.524 722.194C181.387 593.197 89.0179 463.874 41.653 396.993M272.094 721.885C212.791 640.356 154.693 559.21 41.8095 399.168M268.498 720.09C181.969 599.671 97.3736 480.454 39.4628 402.26M264.263 718.507C191.417 617.212 119.026 517.674 37.9984 403.244M261.686 718.499C210.465 645.408 156.245 570.656 36.5973 407.036M257.06 716.474C167.291 596.222 79.5183 472.067 36.3627 409.422M254.397 716.592C204.942 644.505 154.621 574.801 35.3942 411.246M249.119 714.231C188.59 627.425 127.51 541.121 33.8138 413.602M246.006 712.532C181.177 619.223 115.465 528.802 33.4356 414.635M241.419 710.873C184.514 631.969 127.482 552.521 31.0398 418.698M237.999 710.184C157.764 598.213 77.8628 484.75 30.181 421.252M234.054 708.013C183.324 638.608 131.516 568.397 30.2487 422.541M229.259 706.85C182.631 636.51 133.321 569.385 29.4419 425.536M225.367 704.531C165.751 617.563 103.086 531.113 28.9145 429.887M221.513 701.789C167.161 622.112 110.429 543.883 27.1197 432.772M219.039 700.582C176.595 646.677 135.975 590.601 26.9414 434.479M213.303 699.719C161.09 626.215 108.346 554.031 26.6637 437.421M210.002 697.847C147.811 609.661 85.7952 523.505 26.5955 441.821M206.734 696.923C136.572 597.859 67.4722 499.496 25.5979 443.682M202.603 695.379C148.597 621.062 97.1591 548.015 24.4399 448.517M199.496 695.279C130.676 597.628 62.9485 501.042 25.216 451.44M195.379 691.674C151.592 630.908 107.752 570.804 25.8923 455.71M190.748 689.642C142.863 619.633 93.687 551.315 24.4528 460.037M185.091 687.987C157.479 650.803 130.808 611.723 103.745 574.681M104.118 573.241C75.0331 531.912 46.0044 491.827 26.6126 462.748M181.948 686.068C160.439 650.61 134.894 620.262 106.071 579.941M102.473 570.754C78.3741 539.899 55.7652 507.832 25.2296 466.735M175.305 683.894C148.428 645.096 122.462 603.941 103.553 582.213M94.8769 570.009C78.6153 547.771 59.2317 521.402 25.7729 470.383M172.999 680.928C152.865 654.212 134.552 631.274 105.438 586.868M92.1198 569.075C69.7379 539.097 46.7929 505.508 25.1431 476.809M165.395 678.109C143.269 646.338 124.037 619.606 105.142 588.227M86.8699 564.56C67.6556 539.357 43.4822 507.367 30.5469 482.752M162.795 672.42C139.56 640.254 116.608 609.309 105.06 590.886M82.9487 562.982C69.985 542.304 54.8636 521.911 31.5992 489.271M156.503 669.903C144.407 654.054 130.022 631.167 105.211 595.589M78.8875 561.972C69.915 547.271 57.8127 532.46 30.7983 496.964M151.061 668.129C138.893 647.144 123.045 629.935 106.004 603.223M71.8361 555.835C63.0615 541.406 49.3091 523.377 34.5977 505.21M144.719 664.883C136.459 650.243 129.981 637.777 107.632 609.018M63.7341 545.156C55.0712 539.928 48.6073 530.874 40.7315 518.215M143.259 661.217C133.172 649.242 125.309 641.229 108.541 614.331M135.162 653.183C127.549 643.256 121.427 639.636 110.209 621.49M630.625 76.2843V76.2843ZM639.75 634.317V634.317ZM233.395 500.368V500.368Z" stroke="white" stroke-width="0.1977" stroke-linecap="round"/>
</g>
</svg>
