<svg width="476" height="531" viewBox="0 0 476 531" fill="none" xmlns="http://www.w3.org/2000/svg">
<path d="M372.361 97.2558C350.432 66.4534 327.826 33.9808 304.195 1.28682M369.517 98.4429C346.286 66.0672 322.147 31.8999 302.985 1.04223M369.644 99.9925C343.637 59.4474 315.446 24.099 298.198 3.36293M365.313 98.4996C341.637 63.3765 316.089 28.417 296.869 5.49093M366.597 99.7431C340.402 66.8831 319.278 36.791 294.004 6.21255M364.575 102.311C340.663 69.0083 318.931 39.9187 292.058 6.53604M360.161 101.488C338.367 72.2228 316.101 42.1584 291.143 7.8627M356.812 102.896C335.057 75.2471 312.397 46.2675 289.069 7.01611M358.732 106.069C332.863 72.6328 312.138 39.0848 286.404 9.31332M355.885 105.448C340.126 87.1177 321.58 67.7978 285.845 9.78104M351.17 106.243C331.862 82.5518 314.273 55.0893 283.809 13.3269M352.077 110.317C327.527 74.771 303.583 43.6753 281.98 12.3786M350.791 109.718C328.31 79.5723 306.168 49.6535 281.496 13.163M348.787 112.04C324.909 74.481 298.109 40.1976 277.552 17.3607M344.195 114.679C318.855 78.8207 297.346 44.5356 277.031 15.7643M343.85 113.842C319.173 78.7511 291.339 45.0683 275.525 17.7111M341.256 116.593C320.116 83.1919 297.327 53.7743 272.801 20.0992M337.94 117.598C317.364 84.7292 293.054 52.1732 271.204 21.45M335.792 115.79C307.44 79.5506 283.508 39.5331 269.462 22.5331M333.572 118.174C311.1 86.8509 288.278 52.0324 264.693 20.4799M334.611 118.89C308.604 89.1675 288.446 56.2238 264.332 24.0886M329.897 119.717C303.906 87.4015 278.014 50.4142 260.912 24.6376M328.553 123.385C315.73 97.5452 295.203 76.0727 259.353 24.6555M326.903 125.012C302.759 88.4674 275.452 50.4589 260.035 27.7376M325.658 123.337C309.344 99.7443 290.327 76.7303 256.467 27.1939M323.772 126.725C308.804 102.814 292.14 82.5903 254.597 27.8438M318.673 129.552C300.744 99.8382 281.887 72.6973 251.943 33.2609M317.95 128.68C302.385 104.044 283.036 78.0285 248.614 33.7117M314.445 128.804C294.371 104.81 274.922 74.518 247.587 33.5488M313.951 130.199C289.391 96.5913 263.86 57.3111 243.016 37.4994M311.299 132.508C288.164 99.9154 269.447 71.2366 243.778 35.3387M308.796 132.132C296.625 111.884 279.012 90.277 241.82 38.3018M307.708 135.437C281.668 98.5732 251.379 58.8071 240.055 37.5606M306.473 137.236C287.794 105.329 265.181 77.4079 238.232 39.3912M305.847 137.243C275.296 96.2589 249.313 59.2813 234.61 42.333M300.586 138.891C273.141 100.897 247.834 63.9118 231.681 41.8564M301.611 141.681C274.269 106.006 249.225 69.5504 229.804 45.3461M298.021 142.526C284.573 122.177 271.4 100.315 228.805 44.0293M296.538 142.467C279.597 120.171 265.58 100.179 228.959 44.6887M296.102 145.091C279.355 123.607 265.965 101.336 225.773 46.1624M293.738 143.332C277.913 122.479 264.535 101.811 222.693 46.6614M290.79 146.616C269.284 114.305 243.885 86.0992 222.515 48.5521M289.21 147.361C263.785 108.654 233.727 71.0464 221.185 51.4151M285.089 146.605C270.96 126.328 256.699 101.117 216.823 50.6255M284.221 148.488C262.129 115.066 235.072 83.2572 216.03 55.1004M283.732 151.94C256.575 111.866 226.618 75.4579 214.544 55.5822M281.276 150.661C255.063 113.907 224.54 77.1789 212.506 53.6721M277.735 153.791C264.82 130.463 247.604 107.559 211.839 55.3413M278.858 152.643C250.804 121.727 225.438 84.5449 206.135 59.2349M273.223 155.78C252.76 126.169 228.176 92.9499 206.238 58.7322M273.697 155.277C252.467 126.882 229.869 100.052 202.63 60.5888M270.174 157.711C250.928 133.263 236.232 106.644 199.963 62.885M269.595 157.163C246.431 127.816 222.809 95.526 200.32 61.8491M268.549 159.686C242.092 122.756 218.428 88.0346 197.741 63.5344M264.438 161.625C248.188 141.07 232.873 116.919 197.392 63.8303M262.722 163.16C241.041 128.112 216.668 100.464 193.774 66.9382M262.626 164.956C237.809 130.536 216.154 99.55 193.57 66.7543M259.062 165.764C236.172 134.339 218.114 104.851 189.914 69.6716M256.197 163.482C233.631 135.919 214.444 106.242 187.655 70.523M255.662 165.856C228.3 133.456 203.342 96.1158 184.521 68.5111M254.495 166.562C234.627 139.796 213.96 111.813 185.598 70.7862M252.191 168.823C236.276 149.197 223.119 126.125 182.952 73.6887M249.754 168.955C225.415 136.071 202.854 101.573 181.528 72.2308M247.916 170.505C229.159 148.259 212.9 119.38 175.935 76.2326M246.538 172.297C225.862 146.519 207.107 120.604 175.816 76.9757M243.619 172.762C224.157 146.563 203.368 117.251 174.359 76.6898M241.008 173.652C219.475 145.657 200.836 118.031 171.476 79.2918M237.639 176.888C225.271 153.421 212.389 133.333 170.523 79.5093M238.252 178.038C219.996 147.042 199.169 118.066 166.095 80.6198M236.737 176.111C208.891 144.376 186.52 111.334 164.112 79.7825M231.648 177.402C212.784 148.469 193.193 120.183 165.334 81.6809M232.24 180.279C210.247 156.564 191.944 129.035 161.261 83.8101M475.506 524.819C448.911 491.454 425.923 458.821 391.818 408.917M228.701 181.955C206.676 153.262 188.691 124.321 160.221 83.0474M470.845 523.954C445.452 483.349 413.147 442.007 389.067 407.551M227.471 182.944C203.285 149.549 177.785 115.701 158.684 86.3028M468.413 523.471C452.334 499.4 433.566 474.848 387.069 409.365M226.321 182.885C211.052 160.137 195.39 141.547 155.464 85.6974M468.068 524.765C434.362 480.722 403.478 434.776 385.049 409.497M221.089 184.184C205.708 159.086 185.702 130.556 154.633 88.8582M463.733 525.174C445.73 498.105 423.405 464.797 383.551 409.001M221.361 183.554C205.019 162.956 191.942 144.694 152.653 87.9548M463.783 524.446C437.773 486.192 408.639 449.398 378.448 410.493M219.959 185.197C194.033 153.456 166.611 119.273 149.928 89.232M458.903 524.48C431.11 485.609 398.84 444.872 376.247 409.267M215.056 187.404C193.704 152.65 169.295 120.151 145.719 90.9629M458.356 527.598C433.167 496.88 413.537 463.571 372.248 409.277M214.723 186.923C196.796 160.743 179.047 136.609 143.986 91.9372M455.25 526.681C437.52 499.174 417.026 470.387 369.846 409.53M213.86 187.988C183.527 152.009 156.583 113.128 142.32 93.97M452.722 525.304C428.239 494.83 406.305 459.281 368.022 407.055M210.667 189.164C193.596 162.837 175.372 135.671 141.845 92.9783M449.494 527.358C431.118 498.311 409.936 470.025 365.742 407.036M207.785 190.686C184.124 159.367 158.556 125.823 141.2 93.3814M446.021 526.412C431.758 503.099 412.113 478.102 362.01 408.657M208.791 191.839C185.103 160.99 162.781 127.583 136.446 96.1351M445.544 529.249C416.584 488.211 387.457 445.019 356.293 406.999M206.273 192.445C177.472 157.548 149.945 117.733 135.035 96.7589M441.135 526.708C413.914 487.87 383.617 444.658 355.217 405.69M204.574 194.676C188.939 173.504 173.809 156.506 131.043 98.1862M440.564 529.473C418.214 504.195 400.022 478.556 352.651 407.075M200.619 194.096C174.544 160.491 151.548 125.349 132.259 100.598M434.421 529.627C414.189 498.857 395.195 470.996 347.908 407.053M200.313 195.825C185.333 177.668 169.416 156.078 127.65 100.643M433.565 530.133C409.351 494.149 385.214 463.76 344.489 406.189M195.914 198.943C168.916 159.694 139.319 121.393 127.424 99.4986M432.571 528.617C399.222 481.892 366.169 435.751 343.285 406.289M194.798 197.49C166.703 161.033 140.63 124.861 125.137 100.169M427.655 529.784C400.265 493.514 375.28 457.636 337.686 405.202M191.086 198.625C171.129 173.143 150.12 142.032 123.822 100.571M424.597 526.672C390.755 481.287 358.243 438.164 336.572 404.032M189.135 200.088C172.361 178.118 158.343 154.81 118.972 103.975M423.642 527.523C400.063 491.962 373.081 457.778 331.114 403.561M187.99 203.49C168.564 169.777 142.527 140.486 116.556 104.274M419.517 529.618C389.948 482.158 358.858 437.751 328.575 402.052M184.855 203.009C166.98 176.064 144.397 145.874 116.289 106.097M418.156 528.984C392.248 494.042 365.797 460.807 326.581 402.156M184.68 205.328C165.899 176.754 148.367 153.181 114.053 105.859M415.291 530.339C383.679 485.228 355.605 444.417 321.949 399.658M181.069 203.776C159.761 175.384 137.542 142.644 112.969 107.516M411.116 527.402C383.748 485.009 352.589 443.714 318.759 400.151M181.827 204.694C162.367 178.083 144.39 154.404 110.171 108.295M409.018 527.862C381.864 494.379 358.076 455.874 317.003 401.356M177.617 206.181C161.538 184.753 145.709 159.075 106.791 110.046M406.076 527.853C386.477 498.305 366.998 472.888 314.398 401.029M175.342 208.703C152.889 178.521 132.808 148.411 103.645 110.487M402.474 528.545C374.277 488.062 346.708 451.815 310.443 400.348M174.47 210.452C156.18 183.939 141.554 162.288 104.972 111.227M398.916 529.183C381.279 502.916 359.566 474.638 306.841 398.304M171.763 210.504C148.382 175.491 125.788 142.258 103.034 111.831M398.692 529.883C370.396 491.253 340.936 451.194 303.322 397.444M167.714 209.569C150 181.9 130.844 152.698 100.516 113.901M393.565 529.588C366.994 492.572 340.319 455.926 300.224 397.516M167.688 211.824C143.444 177.037 116.06 147.2 98.7388 115.643M390.417 526.95C363.163 490.432 333.111 451.836 295.333 396.237M167.022 212.225C137.86 176.157 111.89 138.286 93.565 114.421M388.487 529.848C363.665 493.992 338.987 456.864 293.04 394.918M163.94 215.708C141.01 183.61 120.128 152.173 91.641 115.95M385.327 528.02C359.774 493.449 335.223 456.386 287.538 392.616M162.296 215.089C141.541 185.98 121.352 159.398 92.2242 118.135M384.252 529.979C355.28 489.826 326.116 452.147 285.199 393.941M213.834 294.535C210.095 287.277 204.256 282.051 197.572 271.878M157.808 214.741C130.098 178.273 104.693 139.908 89.1368 116.222M380.815 528.394C341.779 478.539 304.814 427.916 280.898 390.096M217.761 304.253C214.318 294.296 207.316 283.142 192.193 266.35M158.819 218.701C130.252 178.312 102.529 143.414 88.3068 118.662M377.532 527.727C343.664 482.167 307.261 431.881 276.955 390.036M225.082 316.235C216.434 302.387 208.473 290.794 185.763 261.864M155.366 218.248C126.845 179.511 101.168 141.258 82.3144 120.386M375.53 528.867C354.628 498.668 333.722 473.195 274.176 389.129M223.101 318.508C211.414 303.407 201.154 287.595 184.291 258.653M153.61 220.287C131.274 190.259 111.339 162.611 81.0533 121.162M371.64 525.889C343.337 487.278 312.705 446.021 269.901 388.45M226.541 324.949C215.011 307.719 204.699 295.461 177.964 258.261M150.798 218.374C128.077 190.451 104.684 159.259 81.7046 121.873M370.171 525.746C340.34 487.583 313.227 447.265 266.949 386.363M225.086 325.842C209.743 307.375 198.279 289.056 173.687 257.264M149.998 220.902C133.323 200.502 119.509 182.456 79.6426 123.813M365.14 525.049C339.964 488.123 315.663 453.15 262.568 384.293M226.082 329.822C204.053 299.4 180.675 272.305 166.899 253.873M146.631 221.221C120.166 181.404 91.9704 142.983 78.2167 126.572M362.747 527.777C325.688 476.436 291.609 427.847 258.12 381.125M225.567 335.235C207.214 310.23 188.857 284.905 163.749 252.066M142.269 224.327C122.235 194.39 103.851 164.68 75.2393 126.077M358.297 524.603C331.738 483.358 301.999 441.262 254.867 382.318M226.202 340.068C201.413 302.788 176.256 272.749 160.458 252.637M140.933 224.981C120.632 190.518 101.293 163.56 72.3069 127.462M355.671 525.382C325.334 481.343 295.558 441.34 252.155 379.514M223.198 341.663C201.639 312.94 180.781 282.737 158.559 252.392M138.719 223.541C123.836 203.03 107.188 182.386 72.6703 127.556M354.752 524.326C320.002 478.061 284.525 430.222 247.687 376.376M223.518 345.496C204.553 317.81 183.416 291.225 155.917 251.037M139.24 224.761C113.079 192.762 90.8684 164.021 70.782 129.882M348.85 525.916C320.069 479.21 287.202 435.203 242.563 375.242M223.132 348.23C207.525 325.025 192.32 303.464 153.727 249.943M135.022 227.328C110.322 190.124 85.3794 156.676 65.1926 132.05M348.05 523.611C314.768 481.067 283.644 434.92 240.17 373.619M222.486 349.001C200.039 318.965 179.763 290.487 147.641 250.3M134.548 226.346C117.955 205.427 105.452 182.425 63.5106 129.723M344.674 523.773C311.826 479.169 275.996 433.012 235.499 374.436M219.125 354.029C197.981 319.715 176.199 287.154 145.091 247.299M133.157 228.089C115.352 205.657 99.2113 183.531 62.733 132.335M340.854 524.833C318.897 492.238 291.296 457.995 230.637 371.404M219.296 356.781C204.896 331.69 185.479 309.175 143.711 247.145M131.543 231.614C108.078 200.4 85.2323 167.922 62.6733 132.498M337.3 522.999C299.059 468.662 256.263 414.12 227.635 369.191M220.464 356.554C197.581 324.463 175.656 293.718 139.241 248.425M128.192 230.977C106.65 198.004 83.1134 168.826 60.4433 134.148M336.273 525.122C300.245 474.606 264.98 425.349 222.458 367.87M218.399 361.276C186.005 315.982 157.307 273.094 135.794 245.689M126.617 234.216C106.695 208.584 88.963 181.896 57.1074 138.182M333.218 522.379C306.433 490.914 283.903 456.068 218.376 364.002M217.175 361.79C189.121 322.979 163.178 282.281 133.28 244.657M125.31 232.617C108.329 209.714 90.5311 182.345 55.3644 138.939M329.253 523.306C258.251 423.719 186.179 322.787 129.685 246.791M123.659 234.377C102.998 204.352 80.9533 175.834 55.4939 138.83M325.253 522.264C283.466 466.796 241.949 407.486 127.924 246.344M118.888 237.402C103.695 211.1 85.7663 188.188 50.1712 139.193M322.244 522.324C246.031 416.12 170.344 310.864 124.909 245.115M120.152 240.132C93.0335 200.726 67.2323 163.209 50.9243 141.102M318.876 520.934C211.695 369.909 103.213 219.395 48.3706 143.647M315.342 520.486C262.336 446.802 208.581 369.51 47.0172 145.841M312.424 519.888C237.827 416.282 163.074 310.674 44.7746 146.657M310.125 518.968C242.017 424.262 173.296 327.157 43.1095 147.741M305.366 518.943C219.649 397.313 130.509 276.599 41.2903 149.126M302.133 516.719C222.903 405.534 143.575 296.79 40.7053 152.085M300.269 516.949C195.028 372.166 91.8876 226.717 39.1126 153.021M296.474 515.326C243.308 443.969 192.102 371.286 37.0362 155.097M293.125 514.983C193.844 379.461 94.5162 240.673 35.1408 156.964M289.929 514.759C195.257 384.467 102.595 254.751 34.5424 157.785M286.209 513.529C211.373 409.133 137.744 304.881 32.6054 160.638M283.39 513.91C184.654 376.358 86.2058 238.212 31.5656 160.824M279.509 513.159C228.202 439.17 174.342 362.877 30.0987 162.894M275.464 510.482C201.149 403.244 124.856 297.986 27.9039 165.153M272.502 510.35C180.183 383.317 90.4887 257.813 26.0838 166.893M269.223 508.618C204.043 418.857 138.598 327.592 24.0411 168.128M266.085 508.554C165.435 373.213 68.8329 237.73 22.9986 171.213M261.844 506.396C206.206 430.273 149.43 350.564 22.312 173.402M257.472 505.93C182.288 398.137 105.423 291.08 20.4015 175.029M254.955 504.227C166.004 379.323 77.1627 254.233 19.2041 176.694M250.523 503.975C157.386 374.978 65.0166 245.655 17.6517 178.774M248.093 503.666C188.79 422.137 130.692 340.991 17.8082 180.949M244.497 501.871C157.967 381.452 73.3723 262.235 15.4614 184.041M240.262 500.288C167.416 398.993 95.0245 299.455 13.9971 185.025M237.684 500.28C186.464 427.189 132.244 352.437 12.596 188.817M233.059 498.255C143.29 378.003 55.5171 253.848 12.3614 191.203M230.396 498.373C180.941 426.286 130.62 356.581 11.3929 193.027M225.117 496.012C164.589 409.206 103.509 322.902 9.81254 195.382M222.005 494.313C157.176 401.004 91.4634 310.582 9.4343 196.416M217.417 492.654C160.512 413.75 103.481 334.302 7.03851 200.479M213.998 491.965C133.763 379.994 53.8615 266.531 6.17968 203.033M210.053 489.793C159.323 420.389 107.515 350.177 6.24745 204.322M205.258 488.631C158.63 418.29 109.32 351.166 5.44056 207.317M201.366 486.312C141.749 399.344 79.0844 312.894 4.9132 211.668M197.511 483.57C143.16 403.892 86.4272 325.664 3.11842 214.552M195.038 482.363C152.594 428.458 111.974 372.381 2.94013 216.26M189.301 481.5C137.088 407.996 84.3442 335.811 2.66242 219.202M186 479.628C123.809 391.442 61.7939 305.286 2.59414 223.602M182.733 478.704C112.571 379.64 43.4709 281.277 1.59657 225.463M178.601 477.16C124.596 402.843 73.1579 329.796 0.438583 230.298M175.495 477.06C106.675 379.409 38.9472 282.823 1.21468 233.22M171.378 473.455C127.591 412.689 83.7506 352.585 1.891 237.491M166.747 471.423C118.861 401.414 69.6857 333.096 0.451483 241.818M161.09 469.768C133.478 432.584 106.807 393.504 79.744 356.461M80.1172 355.022C51.0318 313.693 22.0031 273.607 2.61126 244.529M157.946 467.849C136.438 432.391 110.893 402.043 82.0695 361.722M78.4718 352.535C54.3728 321.68 31.7639 289.613 1.22825 248.516M151.304 465.675C124.427 426.877 98.4606 385.722 79.5516 363.994M70.8756 351.79C54.614 329.552 35.2304 303.183 1.77154 252.164M148.997 462.709C128.863 435.992 110.551 413.055 81.4362 368.649M68.1184 350.856C45.7366 320.878 22.7916 287.289 1.14178 258.59M141.393 459.89C119.267 428.119 100.036 401.387 81.1408 370.008M62.8686 346.341C43.6543 321.138 19.4809 289.148 6.5456 264.533M138.793 454.201C115.559 422.035 92.607 391.09 81.059 372.667M58.9474 344.762C45.9837 324.085 30.8623 303.692 7.59788 271.052M132.502 451.684C120.406 435.835 106.021 412.948 81.2099 377.37M54.8862 343.753C45.9137 329.052 33.8114 314.241 6.79702 278.745M127.06 449.91C114.892 428.925 99.044 411.715 82.003 385.004M47.8348 337.616C39.0602 323.187 25.3078 305.158 10.5964 286.991M120.718 446.663C112.458 432.024 105.979 419.558 83.6309 390.799M39.7328 326.937C31.0699 321.709 24.606 312.655 16.7302 299.995M119.258 442.998C109.171 431.023 101.307 423.01 84.5396 396.112M111.161 434.964C103.548 425.036 97.4255 421.417 86.208 403.271" stroke="white" stroke-width="0.1977" stroke-linecap="round"/>
</svg>
