<svg width="47" height="46" viewBox="0 0 47 46" fill="none" xmlns="http://www.w3.org/2000/svg">
<g clip-path="url(#clip0_471_2115)">
<circle cx="23.6833" cy="22.9367" r="22.4367" stroke="white"/>
<path d="M18.5041 19.9734H14.5571V32.56H18.5041V19.9734Z" fill="white"/>
<path d="M29.1808 19.7006C29.0353 19.6824 28.8807 19.6733 28.7261 19.6642C26.5161 19.5732 25.2702 20.8828 24.8337 21.4467C24.7155 21.6013 24.6609 21.6922 24.6609 21.6922V20.0098H20.8867V32.5964H24.6609H24.8337C24.8337 31.3141 24.8337 30.0409 24.8337 28.7586C24.8337 28.0674 24.8337 27.3762 24.8337 26.685C24.8337 25.8302 24.77 24.9207 25.1975 24.1386C25.5612 23.4838 26.216 23.1564 26.9527 23.1564C29.1353 23.1564 29.1808 25.1299 29.1808 25.3118C29.1808 25.3209 29.1808 25.33 29.1808 25.33V32.651H33.1278V24.4387C33.1278 21.6286 31.7 19.9734 29.1808 19.7006Z" fill="white"/>
<path d="M16.5306 18.3453C17.7963 18.3453 18.8223 17.3192 18.8223 16.0535C18.8223 14.7878 17.7963 13.7617 16.5306 13.7617C15.2648 13.7617 14.2388 14.7878 14.2388 16.0535C14.2388 17.3192 15.2648 18.3453 16.5306 18.3453Z" fill="white"/>
</g>
<defs>
<clipPath id="clip0_471_2115">
<rect width="45.8734" height="45.8734" fill="white" transform="translate(0.746582)"/>
</clipPath>
</defs>
</svg>
