<svg width="246" height="58" viewBox="0 0 246 58" fill="none" xmlns="http://www.w3.org/2000/svg">
<g clip-path="url(#clip0_511_3413)">
<path d="M79.1199 54.1097L71.9799 36.9397C71.8399 36.5697 71.6299 36.2497 71.3199 36.0297C71.0099 35.7997 70.6199 35.6997 70.2199 35.6997C69.8399 35.6997 69.4599 35.8097 69.1499 36.0297C68.8399 36.2497 68.6199 36.5697 68.4599 36.9397L61.3499 54.0597C61.2299 54.3197 61.1699 54.5997 61.1699 54.8797C61.1699 55.2297 61.2799 55.5797 61.4699 55.8797C61.6399 56.1497 61.8599 56.3797 62.1399 56.5297C62.4099 56.6797 62.7299 56.7597 63.0399 56.7597C63.3799 56.7597 63.7299 56.6597 64.0299 56.4797C64.3699 56.2797 64.6199 55.9697 64.7799 55.6097L66.0899 52.3797H74.3899L75.6699 55.5897C75.8099 55.9397 76.0599 56.2497 76.3899 56.4597C76.6999 56.6597 77.0499 56.7697 77.4099 56.7597C77.7299 56.7597 78.0399 56.6997 78.3099 56.5497C78.5899 56.4097 78.8199 56.1897 78.9799 55.9197C79.1699 55.6197 79.2799 55.2697 79.2799 54.9197C79.2799 54.6497 79.2199 54.3897 79.1199 54.1297V54.1097ZM73.0499 49.0297H67.4299L70.2599 42.0497L73.0499 49.0297Z" fill="white"/>
<path d="M97.2099 36.2497C96.8699 35.8897 96.3699 35.6997 95.8699 35.7097C95.3699 35.7097 94.8899 35.8897 94.5399 36.2397C94.1699 36.5897 93.9799 37.0897 93.9899 37.5997V49.5097C93.9899 50.3297 93.7899 51.0197 93.3899 51.6297C92.9799 52.2497 92.4299 52.7297 91.6899 53.0897C90.9599 53.4497 90.1099 53.6297 89.1199 53.6297C88.0899 53.6297 87.2099 53.4397 86.4399 53.0797C85.6699 52.7197 85.0899 52.2297 84.6699 51.6197C84.2599 51.0097 84.0499 50.3197 84.0499 49.4997V37.5897C84.0499 37.0797 83.8699 36.5897 83.5199 36.2397C83.1699 35.8797 82.6799 35.6997 82.1699 35.6997C81.6699 35.6997 81.1899 35.8797 80.8399 36.2297C80.4799 36.5797 80.2799 37.0797 80.2899 37.5897V49.4997C80.2899 50.9697 80.6699 52.3197 81.4299 53.4797C82.1899 54.6397 83.2499 55.5497 84.5799 56.1897C85.9199 56.8397 87.4399 57.1497 89.1299 57.1497C90.7699 57.1497 92.2499 56.8297 93.5599 56.1897C94.8599 55.5497 95.8899 54.6297 96.6299 53.4697C97.3699 52.3097 97.7499 50.9597 97.7399 49.4897V37.5797C97.7399 37.0797 97.5699 36.5897 97.2299 36.2297L97.2099 36.2497Z" fill="white"/>
<path d="M116.1 36.2199C115.77 35.8799 115.3 35.6999 114.83 35.7099H101.3C100.82 35.7099 100.35 35.8799 100.02 36.2199C99.6899 36.5499 99.5099 37.0199 99.5199 37.4999C99.5199 37.9799 99.6899 38.4499 100.02 38.7799C100.35 39.1199 100.82 39.2999 101.3 39.2899H106.2V54.8699C106.2 55.3699 106.39 55.8599 106.74 56.2099C107.09 56.5699 107.58 56.7699 108.08 56.7599C108.58 56.7599 109.07 56.5699 109.42 56.2099C109.77 55.8599 109.97 55.3699 109.96 54.8699V39.2899H114.83C115.3 39.2899 115.78 39.1199 116.11 38.7799C116.45 38.4499 116.62 37.9799 116.61 37.4999C116.61 37.0199 116.44 36.5499 116.11 36.2199H116.1Z" fill="white"/>
<path d="M134.45 38.4897C133.5 37.5197 132.38 36.7697 131.09 36.2497C129.79 35.7197 128.36 35.4497 126.81 35.4497C125.26 35.4497 123.83 35.7097 122.52 36.2397C121.22 36.7697 120.09 37.5197 119.15 38.4897C118.21 39.4497 117.48 40.5997 116.97 41.8997C116.45 43.2097 116.2 44.6597 116.2 46.2097C116.2 47.7697 116.45 49.2097 116.97 50.5397C117.48 51.8497 118.21 52.9997 119.15 53.9697C120.09 54.9397 121.22 55.6897 122.52 56.2197C123.82 56.7497 125.26 57.0097 126.81 57.0097C128.36 57.0097 129.79 56.7497 131.09 56.2097C132.38 55.6797 133.51 54.9297 134.45 53.9697C135.4 52.9997 136.13 51.8497 136.65 50.5397C137.17 49.2197 137.42 47.7697 137.42 46.2097C137.42 44.6497 137.16 43.2097 136.65 41.8997C136.14 40.5897 135.4 39.4497 134.45 38.4797V38.4897ZM126.81 53.4797C125.78 53.4797 124.86 53.2897 124.01 52.9297C123.16 52.5597 122.43 52.0497 121.82 51.3997C121.21 50.7497 120.73 49.9897 120.38 49.0997C120.04 48.2197 119.86 47.2597 119.86 46.2197C119.86 45.1797 120.03 44.2197 120.38 43.3397C120.73 42.4497 121.2 41.6897 121.82 41.0397C122.43 40.3897 123.16 39.8897 124.01 39.5297C124.85 39.1697 125.78 38.9897 126.81 38.9897C127.84 38.9897 128.77 39.1697 129.61 39.5297C130.46 39.8897 131.19 40.3997 131.81 41.0497C132.43 41.6997 132.91 42.4597 133.24 43.3497C133.58 44.2397 133.75 45.1897 133.75 46.2397C133.75 47.2797 133.58 48.2397 133.24 49.1197C132.9 50.0097 132.43 50.7697 131.8 51.4197C131.18 52.0697 130.45 52.5797 129.59 52.9497C128.75 53.3197 127.82 53.4997 126.79 53.4997L126.81 53.4797Z" fill="white"/>
<path d="M160.78 36.2297C160.43 35.8797 159.95 35.6997 159.45 35.6997C159.11 35.6997 158.77 35.7797 158.48 35.9597C158.19 36.1397 157.96 36.3997 157.79 36.6997L150.97 50.8597L143.97 36.7197V36.6997C143.79 36.3997 143.56 36.1397 143.27 35.9597C142.98 35.7797 142.64 35.6997 142.3 35.6997C141.8 35.6997 141.32 35.8797 140.97 36.2297C140.61 36.5797 140.41 37.0797 140.42 37.5897V54.8597C140.42 55.3597 140.61 55.8497 140.96 56.1997C141.31 56.5597 141.8 56.7597 142.3 56.7497C142.8 56.7497 143.29 56.5597 143.64 56.1997C144 55.8497 144.19 55.3597 144.18 54.8597V44.8397L149.15 54.8797C149.31 55.2197 149.54 55.5097 149.84 55.6997C150.14 55.8997 150.5 55.9897 150.87 55.9897C151.19 55.9897 151.52 55.9097 151.79 55.7497C152.07 55.5897 152.3 55.3497 152.48 55.0697L152.5 55.0397L157.56 44.6397V54.8597C157.56 55.3597 157.75 55.8497 158.1 56.1997C158.45 56.5597 158.94 56.7597 159.44 56.7497C159.93 56.7497 160.41 56.5497 160.76 56.2097C161.13 55.8597 161.33 55.3697 161.32 54.8597V37.5897C161.32 37.0797 161.14 36.5797 160.77 36.2297H160.78Z" fill="white"/>
<path d="M173.99 36.9495C173.85 36.5795 173.64 36.2595 173.33 36.0395C173.02 35.8095 172.63 35.7095 172.23 35.7095C171.85 35.7095 171.47 35.8195 171.16 36.0395C170.85 36.2595 170.63 36.5795 170.47 36.9495L163.36 54.0695C163.24 54.3295 163.18 54.6095 163.18 54.8895C163.18 55.2395 163.29 55.5895 163.48 55.8895C163.65 56.1595 163.87 56.3895 164.15 56.5395C164.42 56.6895 164.74 56.7695 165.05 56.7695C165.39 56.7695 165.74 56.6695 166.04 56.4895C166.38 56.2895 166.63 55.9795 166.79 55.6195L168.1 52.3895H176.4L177.68 55.5995C177.82 55.9495 178.07 56.2595 178.4 56.4695C178.71 56.6695 179.06 56.7795 179.42 56.7695C179.74 56.7695 180.05 56.7095 180.32 56.5595C180.6 56.4195 180.83 56.1995 180.99 55.9295C181.18 55.6295 181.29 55.2795 181.29 54.9295C181.29 54.6595 181.23 54.3995 181.13 54.1395L173.99 36.9595V36.9495ZM175.06 49.0495H169.44L172.27 42.0695L175.06 49.0495Z" fill="white"/>
<path d="M195.46 36.2096C195.13 35.8696 194.66 35.6896 194.19 35.6996H180.66C180.18 35.6996 179.71 35.8696 179.38 36.2096C179.05 36.5396 178.87 37.0096 178.88 37.4896C178.88 37.9696 179.05 38.4396 179.38 38.7696C179.71 39.1096 180.18 39.2896 180.66 39.2796H185.56V54.8596C185.56 55.3596 185.75 55.8496 186.1 56.1996C186.45 56.5596 186.94 56.7596 187.44 56.7496C187.94 56.7496 188.43 56.5596 188.78 56.1996C189.13 55.8496 189.33 55.3596 189.32 54.8596V39.2796H194.19C194.66 39.2796 195.14 39.1096 195.47 38.7696C195.81 38.4396 195.98 37.9696 195.97 37.4896C195.97 37.0096 195.8 36.5396 195.47 36.2096H195.46Z" fill="white"/>
<path d="M200.97 36.2397C200.62 35.8797 200.13 35.6997 199.62 35.6997C199.12 35.6997 198.64 35.8797 198.29 36.2297C197.93 36.5797 197.73 37.0797 197.74 37.5897V54.8597C197.74 55.3597 197.93 55.8497 198.28 56.1997C198.63 56.5597 199.12 56.7597 199.62 56.7497C200.13 56.7497 200.63 56.5597 200.98 56.1897C201.32 55.8397 201.51 55.3497 201.5 54.8497V37.5797C201.5 37.0697 201.32 36.5797 200.97 36.2297V36.2397Z" fill="white"/>
<path d="M222.77 38.4897C221.82 37.5197 220.7 36.7697 219.41 36.2497C218.11 35.7197 216.68 35.4497 215.13 35.4497C213.58 35.4497 212.15 35.7097 210.84 36.2397C209.54 36.7697 208.41 37.5197 207.47 38.4897C206.53 39.4497 205.8 40.5997 205.29 41.8997C204.77 43.2097 204.52 44.6597 204.52 46.2097C204.52 47.7697 204.77 49.2097 205.29 50.5397C205.8 51.8497 206.53 52.9997 207.47 53.9697C208.41 54.9397 209.54 55.6897 210.84 56.2197C212.14 56.7497 213.58 57.0097 215.13 57.0097C216.68 57.0097 218.11 56.7497 219.41 56.2097C220.7 55.6797 221.83 54.9297 222.77 53.9697C223.72 52.9997 224.45 51.8497 224.97 50.5397C225.49 49.2197 225.74 47.7697 225.74 46.2097C225.74 44.6497 225.48 43.2097 224.97 41.8997C224.46 40.5897 223.72 39.4497 222.77 38.4797V38.4897ZM215.13 53.4797C214.1 53.4797 213.18 53.2897 212.33 52.9297C211.48 52.5597 210.75 52.0497 210.14 51.3997C209.53 50.7497 209.05 49.9897 208.7 49.0997C208.36 48.2197 208.18 47.2597 208.18 46.2197C208.18 45.1797 208.35 44.2197 208.7 43.3397C209.05 42.4497 209.52 41.6897 210.14 41.0397C210.75 40.3897 211.48 39.8897 212.33 39.5297C213.17 39.1697 214.1 38.9897 215.13 38.9897C216.16 38.9897 217.09 39.1697 217.93 39.5297C218.78 39.8897 219.51 40.3997 220.13 41.0497C220.75 41.6997 221.23 42.4597 221.56 43.3497C221.9 44.2397 222.07 45.1897 222.07 46.2397C222.07 47.2797 221.9 48.2397 221.56 49.1197C221.22 50.0097 220.75 50.7697 220.12 51.4197C219.5 52.0697 218.77 52.5797 217.91 52.9497C217.07 53.3197 216.14 53.4997 215.11 53.4997L215.13 53.4797Z" fill="white"/>
<path d="M245.29 36.2497C244.95 35.8897 244.45 35.6997 243.95 35.6997C243.45 35.6997 242.97 35.8797 242.62 36.2297C242.25 36.5797 242.06 37.0797 242.07 37.5897V49.8297L232.05 36.3997V36.3797C231.68 35.9397 231.15 35.6797 230.59 35.6897C230.09 35.6897 229.61 35.8697 229.26 36.2297C228.9 36.5797 228.72 37.0797 228.73 37.5897V54.8597C228.73 55.3597 228.91 55.8397 229.25 56.1997C229.59 56.5597 230.08 56.7597 230.58 56.7597C231.09 56.7597 231.59 56.5697 231.94 56.1997C232.28 55.8497 232.47 55.3597 232.46 54.8597V42.6397L242.47 56.0597C242.65 56.3097 242.9 56.4797 243.18 56.5897C243.43 56.6897 243.68 56.7397 243.93 56.7397C244.44 56.7397 244.94 56.5497 245.28 56.1797C245.61 55.8197 245.79 55.3397 245.78 54.8497V37.5797C245.78 37.0797 245.61 36.5897 245.27 36.2297L245.29 36.2497Z" fill="white"/>
<path d="M68.9398 28.0498C69.2898 28.4098 69.7798 28.5998 70.2798 28.5998C70.7898 28.5998 71.2898 28.4098 71.6398 28.0398C71.9798 27.6898 72.1698 27.1998 72.1598 26.6998V20.9198H74.8298C74.8798 20.9198 74.9298 20.9198 74.9798 20.9198L79.1498 27.6998C79.3298 27.9898 79.5698 28.2298 79.8598 28.3898C80.1398 28.5398 80.4498 28.6098 80.7698 28.6098C81.1098 28.6098 81.4498 28.5398 81.7398 28.3698C82.0298 28.2098 82.2598 27.9498 82.4098 27.6498C82.5398 27.3998 82.6098 27.1198 82.6098 26.8298C82.6098 26.4398 82.4798 26.0598 82.2598 25.6998L78.7098 19.9398C79.6398 19.3998 80.4098 18.6798 80.9598 17.7698C81.5598 16.7798 81.8698 15.6398 81.8598 14.3898C81.8598 13.0698 81.5598 11.8698 80.9598 10.8398C80.3598 9.8198 79.5098 8.9998 78.4498 8.4198C77.3798 7.8298 76.1598 7.5498 74.8098 7.5498H70.2598C69.7598 7.5498 69.2798 7.7298 68.9298 8.0798C68.5698 8.4298 68.3698 8.9298 68.3798 9.4398V26.6998C68.3798 27.1998 68.5698 27.6898 68.9198 28.0398L68.9398 28.0498ZM76.6298 16.9598C76.1298 17.2098 75.5398 17.3398 74.8398 17.3498H72.1698V11.1398H74.8398C75.5398 11.1398 76.1198 11.2798 76.6198 11.5598C77.1198 11.8398 77.5098 12.2098 77.7898 12.6998C78.0698 13.1898 78.2198 13.7398 78.2198 14.3998C78.2198 14.9898 78.0798 15.4798 77.7998 15.9198C77.5198 16.3698 77.1398 16.7098 76.6298 16.9698V16.9598Z" fill="white"/>
<path d="M103.92 13.7398C103.41 12.4298 102.67 11.2898 101.72 10.3198C100.77 9.34978 99.6497 8.59978 98.3597 8.07978C97.0597 7.54978 95.6297 7.27979 94.0797 7.27979C92.5297 7.27979 91.0997 7.53978 89.7897 8.06978C88.4897 8.59978 87.3597 9.34978 86.4197 10.3198C85.4797 11.2798 84.7497 12.4298 84.2397 13.7298C83.7197 15.0398 83.4697 16.4898 83.4697 18.0398C83.4697 19.5998 83.7197 21.0398 84.2397 22.3698C84.7497 23.6798 85.4797 24.8298 86.4197 25.7998C87.3597 26.7698 88.4897 27.5198 89.7897 28.0498C91.0897 28.5798 92.5297 28.8398 94.0797 28.8398C95.6297 28.8398 97.0597 28.5798 98.3597 28.0398C99.6497 27.5098 100.78 26.7598 101.72 25.7998C102.67 24.8298 103.4 23.6798 103.92 22.3698C104.44 21.0498 104.69 19.5998 104.69 18.0398C104.69 16.4798 104.43 15.0398 103.92 13.7298V13.7398ZM94.0797 25.3198C93.0497 25.3198 92.1297 25.1298 91.2797 24.7698C90.4297 24.3998 89.6997 23.8898 89.0897 23.2398C88.4797 22.5898 87.9997 21.8298 87.6497 20.9398C87.3097 20.0598 87.1297 19.0998 87.1297 18.0598C87.1297 17.0198 87.2997 16.0598 87.6497 15.1798C87.9997 14.2898 88.4697 13.5298 89.0897 12.8798C89.6997 12.2298 90.4297 11.7298 91.2797 11.3698C92.1197 11.0098 93.0497 10.8298 94.0797 10.8298C95.1097 10.8298 96.0397 11.0098 96.8797 11.3698C97.7297 11.7298 98.4597 12.2398 99.0797 12.8898C99.6997 13.5398 100.18 14.2998 100.51 15.1898C100.85 16.0798 101.02 17.0298 101.02 18.0798C101.02 19.1198 100.85 20.0798 100.51 20.9598C100.17 21.8498 99.6997 22.6098 99.0697 23.2598C98.4497 23.9098 97.7197 24.4198 96.8597 24.7898C96.0197 25.1598 95.0897 25.3398 94.0597 25.3398L94.0797 25.3198Z" fill="white"/>
<path d="M111.97 28.0398C113.31 28.6898 114.83 28.9998 116.52 28.9998C118.16 28.9998 119.64 28.6798 120.95 28.0398C122.25 27.3998 123.28 26.4798 124.02 25.3198C124.76 24.1598 125.14 22.8098 125.13 21.3398V9.42979C125.13 8.92979 124.96 8.43978 124.62 8.07978C124.28 7.71978 123.78 7.52979 123.28 7.52979C122.78 7.52979 122.3 7.70979 121.95 8.05979C121.58 8.40979 121.39 8.90979 121.4 9.41979V21.3298C121.4 22.1498 121.2 22.8398 120.8 23.4498C120.39 24.0698 119.84 24.5498 119.1 24.9098C118.37 25.2698 117.52 25.4498 116.53 25.4498C115.5 25.4498 114.62 25.2598 113.85 24.8998C113.08 24.5398 112.5 24.0498 112.08 23.4398C111.67 22.8298 111.46 22.1398 111.46 21.3198V9.42979C111.46 8.91979 111.28 8.42978 110.93 8.07978C110.58 7.71978 110.09 7.53978 109.58 7.53978C109.08 7.53978 108.6 7.71978 108.25 8.06978C107.89 8.41978 107.69 8.91979 107.7 9.42979V21.3398C107.7 22.8098 108.08 24.1598 108.84 25.3198C109.6 26.4798 110.66 27.3898 111.99 28.0298L111.97 28.0398Z" fill="white"/>
<path d="M143.5 8.04995C143.17 7.70995 142.7 7.52995 142.22 7.53995H128.69C128.21 7.53995 127.74 7.70995 127.41 8.04995C127.08 8.37995 126.9 8.84995 126.91 9.32995C126.91 9.80995 127.08 10.2799 127.41 10.6099C127.74 10.9499 128.21 11.1299 128.69 11.1199H133.59V26.6999C133.59 27.1999 133.78 27.6899 134.13 28.0399C134.48 28.3999 134.97 28.5999 135.47 28.5899C135.97 28.5899 136.46 28.3999 136.81 28.0399C137.16 27.6899 137.36 27.1999 137.35 26.6999V11.1199H142.22C142.69 11.1199 143.17 10.9499 143.5 10.6099C143.84 10.2799 144.01 9.80995 144 9.32995C144 8.84995 143.83 8.37995 143.5 8.04995Z" fill="white"/>
<path d="M146.33 28.0495C146.68 28.4095 147.17 28.5996 147.67 28.5996C148.18 28.5996 148.68 28.4096 149.03 28.0396C149.37 27.6896 149.56 27.1996 149.55 26.6996V9.42955C149.55 8.91955 149.37 8.42955 149.02 8.07955C148.67 7.71955 148.18 7.53955 147.67 7.53955C147.17 7.53955 146.69 7.71955 146.34 8.06955C145.98 8.41955 145.78 8.91955 145.79 9.42955V26.6996C145.79 27.1996 145.98 27.6896 146.33 28.0396V28.0495Z" fill="white"/>
<path d="M170.04 28.0298C170.37 27.6698 170.55 27.1898 170.54 26.6998V9.42981C170.54 8.92981 170.37 8.43981 170.03 8.07981C169.69 7.71981 169.19 7.52981 168.69 7.52981C168.19 7.52981 167.71 7.70981 167.36 8.05981C166.99 8.40981 166.8 8.90981 166.81 9.41981V21.6598L156.79 8.22981V8.20981C156.42 7.76981 155.89 7.50981 155.33 7.51981C154.83 7.51981 154.35 7.69981 154 8.05981C153.64 8.40981 153.46 8.90981 153.47 9.41981V26.6998C153.47 27.1998 153.65 27.6798 153.99 28.0398C154.33 28.3998 154.82 28.5998 155.32 28.5998C155.83 28.5998 156.33 28.4098 156.68 28.0398C157.02 27.6898 157.21 27.1998 157.2 26.6998V14.4798L167.21 27.8998C167.39 28.1498 167.64 28.3198 167.92 28.4298C168.17 28.5298 168.42 28.5798 168.67 28.5798C169.18 28.5798 169.68 28.3898 170.02 28.0198L170.04 28.0298Z" fill="white"/>
<path d="M175.02 28.0496C175.37 28.4096 175.86 28.5996 176.36 28.5996H187.79C188.29 28.5996 188.77 28.4396 189.12 28.0996C189.47 27.7596 189.65 27.2796 189.65 26.7896C189.65 26.3096 189.47 25.8296 189.12 25.5096C188.77 25.1796 188.29 25.0196 187.8 25.0196H178.25V19.7796H184.94C185.44 19.7796 185.92 19.6196 186.27 19.2796C186.62 18.9496 186.8 18.4696 186.8 17.9896C186.8 17.5096 186.62 17.0296 186.27 16.6996C185.92 16.3596 185.44 16.1896 184.94 16.1996H178.25V11.1396H187.8C188.29 11.1396 188.77 10.9896 189.12 10.6596C189.47 10.3296 189.66 9.85957 189.65 9.37957C189.65 8.88957 189.48 8.40957 189.13 8.06957C188.78 7.72957 188.3 7.55957 187.8 7.55957H176.37C175.87 7.55957 175.39 7.73957 175.04 8.08957C174.68 8.43957 174.48 8.93957 174.49 9.44957V26.6996C174.49 27.1996 174.68 27.6896 175.03 28.0396L175.02 28.0496Z" fill="white"/>
<path d="M36.18 38.11C36.18 38.11 36.28 38.05 36.32 38.02C39.53 36.15 41.98 33.46 43.6 30.43C45.25 27.36 46.07 23.93 46.07 20.5C46.07 15.75 44.48 10.92 41.14 7.09C37.81 3.25 32.72 0.57 26.38 0.02L26.04 0H15.25C6.83 0 0 6.83 0 15.25V52.87C0 54.83 1.44 56.59 3.39 56.77C5.63 56.98 7.52 55.23 7.52 53.03V15.25C7.52 13.1 8.38 11.2 9.78 9.79C11.19 8.39 13.1 7.53 15.24 7.53H25.74C25.81 7.53 25.88 7.53 25.95 7.54C30.48 8.02 33.44 9.76 35.46 12.04C37.5 14.37 38.53 17.41 38.53 20.51C38.53 22.74 37.99 24.96 36.96 26.89C35.92 28.82 34.43 30.44 32.43 31.58L32.16 31.75L32.1 31.79C32.03 31.84 31.88 31.92 31.7 32.01L36.17 38.11H36.18Z" fill="white"/>
<path d="M31.7202 32.0102L36.1902 38.1102H36.1802L31.7202 32.0102L31.7102 32.0002L18.1602 13.4902L31.7202 32.0102Z" fill="#3FA0D2"/>
<path d="M15.1399 31.97H15.1199C13.0499 31.97 11.3699 33.64 11.3599 35.71C11.3499 37.79 13.0299 39.48 15.0999 39.49C15.0999 39.49 26.0699 39.49 27.8699 39.49L22.3599 31.96C18.2899 31.96 15.1399 31.96 15.1299 31.96L15.1399 31.97Z" fill="#3CA0D2"/>
<path d="M46.09 52.1402C45.98 51.6602 45.77 51.2002 45.46 50.7802L36.18 38.1002L31.71 32.0002L18.16 13.4902C17.42 12.4802 16.28 11.9502 15.12 11.9502C14.35 11.9502 13.57 12.1902 12.9 12.6802C11.85 13.4502 11.32 14.6502 11.36 15.8602C11.38 16.3402 11.49 16.8302 11.7 17.2802C11.8 17.5102 11.93 17.7302 12.09 17.9402L22.36 31.9702L27.87 39.5002L39.39 55.2402C39.57 55.4902 39.78 55.7102 40.01 55.9002C40.24 56.0902 40.49 56.2502 40.75 56.3802C41.27 56.6402 41.85 56.7702 42.43 56.7702C42.82 56.7702 43.2 56.7102 43.58 56.5902C43.95 56.4702 44.32 56.2902 44.65 56.0402C45.28 55.5802 45.72 54.9602 45.97 54.2802C46.21 53.6002 46.26 52.8502 46.09 52.1402Z" fill="#48DCA6"/>
</g>
<defs>
<clipPath id="clip0_511_3413">
<rect width="245.8" height="57.17" fill="white"/>
</clipPath>
</defs>
</svg>
