<svg width="228" height="54" viewBox="0 0 228 54" fill="none" xmlns="http://www.w3.org/2000/svg">
<g clip-path="url(#clip0_2702_14262)">
<path d="M73.3904 50.2624L66.7674 34.3357C66.6376 33.9925 66.4428 33.6957 66.1552 33.4916C65.8677 33.2783 65.5059 33.1855 65.1349 33.1855C64.7824 33.1855 64.4299 33.2876 64.1424 33.4916C63.8548 33.6957 63.6507 33.9925 63.5023 34.3357L56.9072 50.216C56.7959 50.4571 56.7402 50.7169 56.7402 50.9766C56.7402 51.3013 56.8423 51.6259 57.0185 51.9042C57.1762 52.1546 57.3803 52.368 57.64 52.5071C57.8904 52.6462 58.1873 52.7205 58.4748 52.7205C58.7902 52.7205 59.1148 52.6277 59.3931 52.4607C59.7085 52.2752 59.9404 51.9877 60.0888 51.6537L61.3039 48.6576H69.0029L70.1902 51.6352C70.3201 51.9598 70.552 52.2474 70.8581 52.4422C71.1456 52.6277 71.4703 52.7297 71.8042 52.7205C72.101 52.7205 72.3886 52.6648 72.639 52.5257C72.8987 52.3958 73.1121 52.1917 73.2605 51.9413C73.4367 51.663 73.5388 51.3384 73.5388 51.0137C73.5388 50.7633 73.4831 50.5221 73.3904 50.2809V50.2624ZM67.7599 45.5502H62.5469L65.172 39.0757L67.7599 45.5502Z" fill="#454545"/>
<path d="M90.1701 33.6957C89.8548 33.3618 89.391 33.1855 88.9272 33.1948C88.4634 33.1948 88.0181 33.3618 87.6935 33.6864C87.3503 34.0111 87.174 34.4749 87.1833 34.948V45.9955C87.1833 46.7561 86.9978 47.3961 86.6268 47.9619C86.2465 48.5371 85.7363 48.9823 85.0499 49.3162C84.3727 49.6502 83.5843 49.8171 82.666 49.8171C81.7106 49.8171 80.8943 49.6409 80.1801 49.3069C79.4658 48.973 78.9278 48.5185 78.5382 47.9527C78.1579 47.3868 77.9631 46.7468 77.9631 45.9862V34.9387C77.9631 34.4656 77.7962 34.0111 77.4715 33.6864C77.1469 33.3525 76.6924 33.1855 76.2193 33.1855C75.7555 33.1855 75.3103 33.3525 74.9856 33.6772C74.6517 34.0018 74.4662 34.4656 74.4754 34.9387V45.9862C74.4754 47.3497 74.8279 48.602 75.5329 49.678C76.2378 50.754 77.2211 51.5981 78.4548 52.1917C79.6977 52.7947 81.1076 53.0822 82.6753 53.0822C84.1965 53.0822 85.5693 52.7854 86.7845 52.1917C87.9903 51.5981 88.9457 50.7447 89.6321 49.6687C90.3186 48.5927 90.671 47.3405 90.6618 45.9769V34.9294C90.6618 34.4656 90.5041 34.0111 90.1887 33.6772L90.1701 33.6957Z" fill="#454545"/>
<path d="M107.692 33.6678C107.386 33.3524 106.95 33.1854 106.514 33.1947H93.964C93.5187 33.1947 93.0828 33.3524 92.7767 33.6678C92.4706 33.9739 92.3036 34.4098 92.3129 34.8551C92.3129 35.3003 92.4706 35.7363 92.7767 36.0424C93.0828 36.3578 93.5187 36.5247 93.964 36.5155H98.5091V50.9672C98.5091 51.431 98.6854 51.8855 99.01 52.2102C99.3347 52.5441 99.7892 52.7296 100.253 52.7203C100.717 52.7203 101.171 52.5441 101.496 52.2102C101.821 51.8855 102.006 51.431 101.997 50.9672V36.5155H106.514C106.95 36.5155 107.395 36.3578 107.701 36.0424C108.017 35.7363 108.175 35.3003 108.165 34.8551C108.165 34.4098 108.008 33.9739 107.701 33.6678H107.692Z" fill="#454545"/>
<path d="M124.714 35.773C123.832 34.8732 122.793 34.1775 121.597 33.6952C120.391 33.2036 119.065 32.9531 117.627 32.9531C116.189 32.9531 114.863 33.1943 113.647 33.6859C112.442 34.1775 111.393 34.8732 110.522 35.773C109.65 36.6635 108.972 37.7302 108.499 38.936C108.017 40.1512 107.785 41.4962 107.785 42.9339C107.785 44.381 108.017 45.7167 108.499 46.9504C108.972 48.1655 109.65 49.2322 110.522 50.132C111.393 51.0317 112.442 51.7274 113.647 52.219C114.853 52.7107 116.189 52.9518 117.627 52.9518C119.065 52.9518 120.391 52.7106 121.597 52.2098C122.793 51.7181 123.842 51.0224 124.714 50.132C125.595 49.2322 126.272 48.1655 126.754 46.9504C127.237 45.7259 127.468 44.381 127.468 42.9339C127.468 41.4869 127.227 40.1512 126.754 38.936C126.281 37.7209 125.595 36.6635 124.714 35.7637V35.773ZM117.627 49.6775C116.671 49.6775 115.818 49.5012 115.03 49.1673C114.241 48.8241 113.564 48.351 112.998 47.7481C112.432 47.1452 111.987 46.4402 111.662 45.6146C111.347 44.7984 111.18 43.9079 111.18 42.9432C111.18 41.9785 111.338 41.088 111.662 40.2718C111.987 39.4462 112.423 38.7412 112.998 38.1383C113.564 37.5354 114.241 37.0716 115.03 36.7377C115.809 36.4037 116.671 36.2368 117.627 36.2368C118.582 36.2368 119.445 36.4037 120.224 36.7377C121.012 37.0716 121.69 37.5447 122.265 38.1476C122.84 38.7505 123.285 39.4555 123.591 40.281C123.907 41.1066 124.064 41.9878 124.064 42.9618C124.064 43.9264 123.907 44.8169 123.591 45.6332C123.276 46.4587 122.84 47.1637 122.255 47.7666C121.68 48.3696 121.003 48.8426 120.205 49.1858C119.426 49.529 118.564 49.696 117.608 49.696L117.627 49.6775Z" fill="#454545"/>
<path d="M149.137 33.6772C148.812 33.3525 148.367 33.1855 147.903 33.1855C147.588 33.1855 147.272 33.2598 147.003 33.4267C146.734 33.5937 146.521 33.8349 146.363 34.1131L140.037 47.2477L133.544 34.1317V34.1131C133.377 33.8349 133.164 33.5937 132.895 33.4267C132.626 33.2598 132.311 33.1855 131.995 33.1855C131.531 33.1855 131.086 33.3525 130.761 33.6772C130.428 34.0018 130.242 34.4656 130.251 34.9387V50.958C130.251 51.4218 130.428 51.8764 130.752 52.201C131.077 52.5349 131.531 52.7205 131.995 52.7112C132.459 52.7112 132.913 52.5349 133.238 52.201C133.572 51.8764 133.748 51.4218 133.739 50.958V41.6637L138.349 50.9766C138.498 51.292 138.711 51.561 138.989 51.7372C139.267 51.9227 139.601 52.0062 139.945 52.0062C140.241 52.0062 140.547 51.932 140.798 51.7836C141.058 51.6352 141.271 51.4126 141.438 51.1528L141.457 51.125L146.15 41.4781V50.958C146.15 51.4218 146.326 51.8764 146.651 52.201C146.976 52.5349 147.43 52.7205 147.894 52.7112C148.348 52.7112 148.794 52.5257 149.118 52.2103C149.462 51.8856 149.647 51.4311 149.638 50.958V34.9387C149.638 34.4656 149.471 34.0018 149.128 33.6772H149.137Z" fill="#454545"/>
<path d="M161.39 34.3445C161.26 34.0013 161.065 33.7045 160.778 33.5004C160.49 33.2871 160.128 33.1943 159.757 33.1943C159.405 33.1943 159.052 33.2964 158.765 33.5004C158.477 33.7045 158.273 34.0013 158.125 34.3445L151.53 50.2248C151.418 50.4659 151.363 50.7257 151.363 50.9854C151.363 51.31 151.465 51.6347 151.641 51.913C151.799 52.1634 152.003 52.3768 152.263 52.5159C152.513 52.655 152.81 52.7292 153.097 52.7292C153.413 52.7292 153.737 52.6365 154.016 52.4695C154.331 52.284 154.563 51.9965 154.711 51.6625L155.927 48.6664H163.625L164.813 51.644C164.943 51.9686 165.175 52.2562 165.481 52.451C165.768 52.6365 166.093 52.7385 166.427 52.7292C166.724 52.7292 167.011 52.6736 167.262 52.5345C167.521 52.4046 167.735 52.2005 167.883 51.9501C168.059 51.6718 168.161 51.3471 168.161 51.0225C168.161 50.772 168.106 50.5309 168.013 50.2897L161.39 34.3538V34.3445ZM162.382 45.5683H157.169L159.795 39.0938L162.382 45.5683Z" fill="#454545"/>
<path d="M181.305 33.658C180.999 33.3426 180.563 33.1757 180.127 33.1849H167.577C167.132 33.1849 166.696 33.3426 166.39 33.658C166.084 33.9641 165.917 34.4001 165.926 34.8453C165.926 35.2906 166.084 35.7265 166.39 36.0326C166.696 36.348 167.132 36.515 167.577 36.5057H172.122V50.9574C172.122 51.4212 172.299 51.8757 172.623 52.2004C172.948 52.5343 173.402 52.7198 173.866 52.7106C174.33 52.7106 174.785 52.5343 175.109 52.2004C175.434 51.8757 175.619 51.4212 175.61 50.9574V36.5057H180.127C180.563 36.5057 181.009 36.348 181.315 36.0326C181.63 35.7265 181.788 35.2906 181.779 34.8453C181.779 34.4001 181.621 33.9641 181.315 33.658H181.305Z" fill="#454545"/>
<path d="M186.416 33.6864C186.092 33.3525 185.637 33.1855 185.164 33.1855C184.7 33.1855 184.255 33.3525 183.93 33.6772C183.596 34.0018 183.411 34.4656 183.42 34.9387V50.958C183.42 51.4218 183.596 51.8764 183.921 52.201C184.246 52.5349 184.7 52.7205 185.164 52.7112C185.637 52.7112 186.101 52.5349 186.426 52.1917C186.741 51.8671 186.917 51.4126 186.908 50.9488V34.9294C186.908 34.4563 186.741 34.0018 186.416 33.6772V33.6864Z" fill="#454545"/>
<path d="M206.638 35.773C205.757 34.8732 204.718 34.1775 203.521 33.6952C202.315 33.2036 200.989 32.9531 199.551 32.9531C198.113 32.9531 196.787 33.1943 195.572 33.6859C194.366 34.1775 193.318 34.8732 192.446 35.773C191.574 36.6635 190.897 37.7302 190.424 38.936C189.941 40.1512 189.709 41.4962 189.709 42.9339C189.709 44.381 189.941 45.7167 190.424 46.9504C190.897 48.1655 191.574 49.2322 192.446 50.132C193.318 51.0317 194.366 51.7274 195.572 52.219C196.778 52.7107 198.113 52.9518 199.551 52.9518C200.989 52.9518 202.315 52.7106 203.521 52.2098C204.718 51.7181 205.766 51.0224 206.638 50.132C207.519 49.2322 208.196 48.1655 208.679 46.9504C209.161 45.7259 209.393 44.381 209.393 42.9339C209.393 41.4869 209.152 40.1512 208.679 38.936C208.205 37.7209 207.519 36.6635 206.638 35.7637V35.773ZM199.551 49.6775C198.596 49.6775 197.742 49.5012 196.954 49.1673C196.165 48.8241 195.488 48.351 194.922 47.7481C194.357 47.1452 193.911 46.4402 193.587 45.6146C193.271 44.7984 193.104 43.9079 193.104 42.9432C193.104 41.9785 193.262 41.088 193.587 40.2718C193.911 39.4462 194.347 38.7412 194.922 38.1383C195.488 37.5354 196.165 37.0716 196.954 36.7377C197.733 36.4037 198.596 36.2368 199.551 36.2368C200.507 36.2368 201.369 36.4037 202.148 36.7377C202.937 37.0716 203.614 37.5447 204.189 38.1476C204.764 38.7505 205.209 39.4555 205.515 40.281C205.831 41.1066 205.989 41.9878 205.989 42.9618C205.989 43.9264 205.831 44.8169 205.515 45.6332C205.2 46.4587 204.764 47.1637 204.18 47.7666C203.605 48.3696 202.928 48.8426 202.13 49.1858C201.351 49.529 200.488 49.696 199.533 49.696L199.551 49.6775Z" fill="#454545"/>
<path d="M227.527 33.6955C227.211 33.3616 226.748 33.1853 226.284 33.1853C225.82 33.1853 225.375 33.3523 225.05 33.6769C224.707 34.0016 224.531 34.4654 224.54 34.9384V46.2921L215.245 33.8346V33.8161C214.902 33.4079 214.411 33.1668 213.891 33.176C213.427 33.176 212.982 33.343 212.658 33.6769C212.324 34.0016 212.157 34.4654 212.166 34.9384V50.9578C212.166 51.4216 212.333 51.8668 212.648 52.2008C212.964 52.5347 213.418 52.7202 213.882 52.7202C214.355 52.7202 214.819 52.544 215.143 52.2008C215.459 51.8761 215.635 51.4216 215.626 50.9578V39.6227L224.911 52.0709C225.078 52.3028 225.31 52.4605 225.569 52.5625C225.801 52.6553 226.033 52.7017 226.265 52.7017C226.738 52.7017 227.202 52.5254 227.517 52.1822C227.824 51.8483 227.99 51.4031 227.981 50.9485V34.9292C227.981 34.4654 227.824 34.0109 227.508 33.6769L227.527 33.6955Z" fill="#454545"/>
<path d="M63.9475 26.0897C64.2722 26.4236 64.7267 26.5998 65.1905 26.5998C65.6635 26.5998 66.1273 26.4236 66.452 26.0804C66.7674 25.7558 66.9436 25.3012 66.9343 24.8374V19.476H69.411C69.4574 19.476 69.5037 19.476 69.5501 19.476L73.4181 25.765C73.5851 26.034 73.8077 26.2566 74.0767 26.4051C74.3364 26.5442 74.624 26.6091 74.9208 26.6091C75.2362 26.6091 75.5516 26.5442 75.8206 26.3865C76.0896 26.2381 76.3029 25.9969 76.4421 25.7186C76.5627 25.4867 76.6276 25.227 76.6276 24.958C76.6276 24.5963 76.507 24.2438 76.3029 23.9099L73.01 18.567C73.8727 18.0661 74.5869 17.3982 75.0971 16.5541C75.6536 15.6358 75.9412 14.5784 75.9319 13.4189C75.9319 12.1945 75.6536 11.0814 75.0971 10.126C74.5405 9.17983 73.7521 8.41921 72.7688 7.88122C71.7763 7.33394 70.6447 7.07422 69.3924 7.07422H65.1719C64.7081 7.07422 64.2629 7.24118 63.9382 7.56584C63.6043 7.89049 63.4188 8.35428 63.4281 8.82735V24.8374C63.4281 25.3012 63.6043 25.7558 63.929 26.0804L63.9475 26.0897ZM71.0806 15.8028C70.6168 16.0347 70.0696 16.1553 69.4203 16.1645H66.9436V10.4042H69.4203C70.0696 10.4042 70.6076 10.5341 71.0714 10.7938C71.5352 11.0536 71.8969 11.3968 72.1566 11.8513C72.4164 12.3058 72.5555 12.816 72.5555 13.4282C72.5555 13.9754 72.4256 14.43 72.1659 14.8381C71.9062 15.2555 71.5537 15.5709 71.0806 15.8121V15.8028Z" fill="#454545"/>
<path d="M96.3944 12.8154C95.9213 11.6003 95.2349 10.5429 94.3537 9.6431C93.4725 8.74334 92.4336 8.04765 91.237 7.56531C90.0312 7.07369 88.7047 6.82324 87.267 6.82324C85.8292 6.82324 84.5028 7.06441 83.2876 7.55603C82.0818 8.04765 81.0336 8.74334 80.1617 9.6431C79.2897 10.5336 78.6126 11.6003 78.1395 12.8062C77.6572 14.0213 77.4253 15.3663 77.4253 16.804C77.4253 18.2511 77.6572 19.5868 78.1395 20.8205C78.6126 22.0356 79.2897 23.1023 80.1617 24.0021C81.0336 24.9018 82.0818 25.5975 83.2876 26.0891C84.4935 26.5808 85.8292 26.8219 87.267 26.8219C88.7047 26.8219 90.0312 26.5808 91.237 26.0799C92.4336 25.5883 93.4818 24.8926 94.3537 24.0021C95.2349 23.1023 95.912 22.0356 96.3944 20.8205C96.8767 19.5961 97.1086 18.2511 97.1086 16.804C97.1086 15.357 96.8674 14.0213 96.3944 12.8062V12.8154ZM87.267 23.5568C86.3115 23.5568 85.4582 23.3806 84.6697 23.0467C83.8813 22.7035 83.2041 22.2304 82.6383 21.6275C82.0725 21.0245 81.6272 20.3196 81.3026 19.494C80.9872 18.6778 80.8202 17.7873 80.8202 16.8226C80.8202 15.8579 80.9779 14.9674 81.3026 14.1512C81.6272 13.3256 82.0632 12.6206 82.6383 12.0177C83.2041 11.4148 83.8813 10.951 84.6697 10.6171C85.4489 10.2831 86.3115 10.1162 87.267 10.1162C88.2224 10.1162 89.085 10.2831 89.8642 10.6171C90.6526 10.951 91.3298 11.4241 91.9049 12.027C92.48 12.6299 92.9252 13.3349 93.2313 14.1604C93.5467 14.986 93.7044 15.8672 93.7044 16.8411C93.7044 17.8058 93.5467 18.6963 93.2313 19.5126C92.9159 20.3381 92.48 21.0431 91.8956 21.646C91.3205 22.249 90.6434 22.722 89.8456 23.0652C89.0665 23.4084 88.2038 23.5754 87.2484 23.5754L87.267 23.5568Z" fill="#454545"/>
<path d="M103.862 26.0804C105.104 26.6833 106.514 26.9709 108.082 26.9709C109.603 26.9709 110.976 26.6741 112.191 26.0804C113.397 25.4867 114.352 24.6334 115.039 23.5574C115.725 22.4814 116.078 21.2291 116.069 19.8656V8.81807C116.069 8.35428 115.911 7.89976 115.595 7.56583C115.28 7.2319 114.816 7.05566 114.352 7.05566C113.889 7.05566 113.443 7.22263 113.119 7.54728C112.776 7.87194 112.599 8.33573 112.609 8.8088V19.8563C112.609 20.6169 112.423 21.257 112.052 21.8228C111.672 22.3979 111.162 22.8431 110.475 23.1771C109.798 23.511 109.01 23.678 108.091 23.678C107.136 23.678 106.32 23.5017 105.605 23.1678C104.891 22.8339 104.353 22.3793 103.964 21.8135C103.583 21.2477 103.388 20.6077 103.388 19.847V8.81807C103.388 8.34501 103.221 7.89049 102.897 7.56583C102.572 7.2319 102.118 7.06494 101.645 7.06494C101.181 7.06494 100.736 7.2319 100.411 7.55656C100.077 7.88121 99.8914 8.34501 99.9007 8.81807V19.8656C99.9007 21.2291 100.253 22.4814 100.958 23.5574C101.663 24.6334 102.646 25.4775 103.88 26.0711L103.862 26.0804Z" fill="#454545"/>
<path d="M133.108 7.53789C132.802 7.22251 132.366 7.05554 131.921 7.06482H119.371C118.925 7.06482 118.489 7.22251 118.183 7.53789C117.877 7.84399 117.71 8.27995 117.72 8.72519C117.72 9.17043 117.877 9.6064 118.183 9.9125C118.489 10.2279 118.925 10.3948 119.371 10.3856H123.916V24.8373C123.916 25.3011 124.092 25.7556 124.417 26.0803C124.741 26.4142 125.196 26.5997 125.66 26.5905C126.124 26.5905 126.578 26.4142 126.903 26.0803C127.227 25.7556 127.413 25.3011 127.404 24.8373V10.3856H131.921C132.357 10.3856 132.802 10.2279 133.108 9.9125C133.424 9.6064 133.581 9.17043 133.572 8.72519C133.572 8.27995 133.414 7.84399 133.108 7.53789Z" fill="#454545"/>
<path d="M135.733 26.0892C136.058 26.4231 136.512 26.5994 136.976 26.5994C137.449 26.5994 137.913 26.4231 138.238 26.0799C138.553 25.7553 138.729 25.3007 138.72 24.837V8.81759C138.72 8.34452 138.553 7.89 138.228 7.56535C137.904 7.23142 137.449 7.06445 136.976 7.06445C136.512 7.06445 136.067 7.23142 135.742 7.55607C135.409 7.88073 135.223 8.34452 135.232 8.81759V24.837C135.232 25.3007 135.409 25.7553 135.733 26.0799V26.0892Z" fill="#454545"/>
<path d="M157.726 26.0709C158.032 25.737 158.199 25.2917 158.19 24.8372V8.81784C158.19 8.35405 158.032 7.89953 157.717 7.5656C157.402 7.23167 156.938 7.05543 156.474 7.05543C156.01 7.05543 155.565 7.2224 155.24 7.54705C154.897 7.87171 154.721 8.3355 154.73 8.80857V20.1622L145.436 7.70474V7.68619C145.093 7.27805 144.601 7.03688 144.082 7.04616C143.618 7.04616 143.173 7.21312 142.848 7.54705C142.514 7.87171 142.347 8.3355 142.356 8.80857V24.8372C142.356 25.301 142.523 25.7462 142.839 26.0802C143.154 26.4141 143.609 26.5996 144.072 26.5996C144.545 26.5996 145.009 26.4234 145.334 26.0802C145.649 25.7555 145.825 25.301 145.816 24.8372V13.5021L155.101 25.9503C155.268 26.1822 155.5 26.3399 155.76 26.4419C155.992 26.5347 156.224 26.5811 156.456 26.5811C156.929 26.5811 157.392 26.4048 157.708 26.0616L157.726 26.0709Z" fill="#454545"/>
<path d="M162.346 26.0892C162.671 26.4231 163.125 26.5994 163.589 26.5994H174.191C174.655 26.5994 175.1 26.451 175.425 26.1356C175.75 25.8202 175.916 25.375 175.916 24.9204C175.916 24.4752 175.75 24.03 175.425 23.7331C175.1 23.427 174.655 23.2786 174.2 23.2786H165.342V18.4181H171.548C172.011 18.4181 172.457 18.2697 172.781 17.9543C173.106 17.6482 173.273 17.2029 173.273 16.7577C173.273 16.3125 173.106 15.8672 172.781 15.5611C172.457 15.2457 172.011 15.0881 171.548 15.0973H165.342V10.4038H174.2C174.655 10.4038 175.1 10.2646 175.425 9.95852C175.75 9.65241 175.926 9.21645 175.916 8.77121C175.916 8.31669 175.759 7.87145 175.434 7.55608C175.11 7.2407 174.664 7.08301 174.2 7.08301H163.598C163.134 7.08301 162.689 7.24997 162.364 7.57463C162.031 7.89928 161.845 8.36307 161.854 8.83614V24.837C161.854 25.3007 162.031 25.7553 162.355 26.0799L162.346 26.0892Z" fill="#454545"/>
<path d="M33.56 35.4205C33.56 35.4205 33.6527 35.3649 33.6898 35.337C36.6674 33.6025 38.94 31.1073 40.4426 28.2967C41.9731 25.449 42.7338 22.2674 42.7338 19.0858C42.7338 14.6798 41.2589 10.1995 38.1608 6.64688C35.0719 3.08496 30.3505 0.599035 24.4697 0.0888642L24.1543 0.0703125H14.1456C6.33539 0.0703125 0 6.40571 0 14.216V49.1116C0 50.9297 1.33572 52.5623 3.14451 52.7292C5.22229 52.924 6.97543 51.3007 6.97543 49.2601V14.216C6.97543 12.2217 7.77315 10.4592 9.07177 9.15135C10.3797 7.85274 12.1513 7.05502 14.1364 7.05502H23.876C23.9409 7.05502 24.0059 7.05502 24.0708 7.06429C28.2727 7.50953 31.0184 9.12353 32.8921 11.2384C34.7844 13.3997 35.7398 16.2195 35.7398 19.095C35.7398 21.1636 35.2389 23.2228 34.2835 25.013C33.3188 26.8033 31.9367 28.306 30.0815 29.3634L29.8311 29.5211L29.7754 29.5582C29.7105 29.6046 29.5714 29.6788 29.4044 29.7623L33.5507 35.4205H33.56Z" fill="#454545"/>
<path d="M29.4232 29.7628L33.5695 35.4211H33.5603L29.4232 29.7628L29.414 29.7536L16.8452 12.584L29.4232 29.7628Z" fill="#3FA0D2"/>
<path d="M14.0434 29.7251H14.0249C12.1048 29.7251 10.5464 31.2742 10.5372 33.1943C10.5279 35.1236 12.0862 36.6912 14.0063 36.7005C14.0063 36.7005 24.1819 36.7005 25.8516 36.7005L20.7406 29.7158C16.9653 29.7158 14.0434 29.7158 14.0341 29.7158L14.0434 29.7251Z" fill="#3CA0D2"/>
<path d="M42.7526 48.4348C42.6505 47.9896 42.4557 47.5629 42.1682 47.1733L33.5602 35.4116L29.4139 29.7533L16.8452 12.5838C16.1588 11.6469 15.1013 11.1553 14.0253 11.1553C13.3111 11.1553 12.5876 11.3779 11.9661 11.8324C10.9921 12.5466 10.5005 13.6597 10.5376 14.7821C10.5562 15.2274 10.6582 15.6819 10.853 16.0993C10.9457 16.3126 11.0663 16.5167 11.2147 16.7115L20.741 29.7255L25.852 36.7102L36.5378 51.3104C36.7047 51.5423 36.8995 51.7463 37.1129 51.9226C37.3262 52.0988 37.5581 52.2472 37.7993 52.3678C38.2816 52.609 38.8196 52.7296 39.3576 52.7296C39.7194 52.7296 40.0719 52.6739 40.4243 52.5626C40.7675 52.4513 41.1108 52.2843 41.4169 52.0524C42.0012 51.6257 42.4094 51.0506 42.6413 50.4199C42.8639 49.7891 42.9103 49.0934 42.7526 48.4348Z" fill="#48DCA6"/>
</g>
<defs>
<clipPath id="clip0_2702_14262">
<rect width="228" height="53.0299" fill="white" transform="translate(0 0.0703125)"/>
</clipPath>
</defs>
</svg>
