<svg width="468" height="346" viewBox="0 0 468 346" fill="none" xmlns="http://www.w3.org/2000/svg">
<path opacity="0.8" d="M14.8154 32.1485C19.1907 30.6953 25.1006 25.2396 25.4847 23.4344M9.65644 40.5182C21.1122 37.5362 25.6452 23.818 30.0874 18.7336M10.5073 53.187C20.7164 39.2807 32.401 21.5552 43.1098 14.8704M4.5132 62.2429C25.979 41.7199 42.5583 18.9692 49.9235 11.279M6.35931 64.3924C24.6267 41.1918 41.14 23.0342 56.3451 6.67861M3.42365 72.2479C24.8996 46.9231 49.9454 15.2711 62.1749 1M6.67908 74.1413C21.6759 57.6014 45.3237 35.8774 69.1657 2.99304M1.31136 78.0079C26.7343 49.7418 55.8645 25.3368 71.4635 5.54332M7.35945 86.6242C34.3303 59.8162 56.3005 27.7137 73.7518 3.19827M4.00192 88.7472C19.2402 74.7727 39.8312 57.754 78.0625 7.94311M3.82375 95.8641C31.7044 66.0686 56.2071 38.4837 84.9752 3.93112M2.71563 102.601C37.0718 64.637 73.305 27.7057 88.093 4.2399M3.71761 104.541C22.9275 82.459 46.8987 56.6325 95.6348 4.91679M3.0314 108.727C44.2429 65.3602 75.4337 25.6615 94.7232 4.86849M6.57865 115.101C36.1396 78.8127 65.7564 42.9833 102.785 5.29411M3.3533 124.35C29.1471 92.9118 52.9381 66.8226 108.893 3.79538M5.23399 124.694C40.5833 88.1857 72.9446 47.6373 113.149 7.179M2.3739 132.7C40.0572 87.1397 79.3242 46.0369 116.363 5.27695M1.5608 139.575C29.3787 108.851 54.809 79.2215 119.818 5.56753M6.81332 143.552C48.5723 97.0768 86.2705 47.9613 121.492 3.66984M3.39246 147.154C47.9683 96.1509 90.0143 49.4911 127.482 3.60304M1.66407 151.46C47.3583 103.04 86.7467 49.7764 134.547 5.65267M4.79979 155.351C41.1925 111.815 76.2675 67.4708 137.32 3.14676M4.15886 162.242C52.185 106.451 94.7322 56.5156 143.542 2.79168M2.54083 165.542C59.9938 106.13 110.854 49.4772 144.501 3.28473M5.20857 172.294C48.2974 120.814 89.8316 72.9927 148.532 5.59124M3.85787 178.061C35.285 143.419 65.64 108.779 154.586 4.02685M2.17276 179.809C49.6197 126.773 99.7215 71.6934 159.378 6.46483M5.58986 185.573C44.5969 145.569 84.0226 100.335 162.086 2.30699M2.99968 192.051C43.9022 153.792 77.4835 113.592 168.344 3.23017M6.20615 194.92C43.13 153.685 85.9408 105.583 172.81 5.09569M2.24701 200.362C55.815 139.482 108.846 80.6409 174.192 2.6356M4.12338 206.329C58.0547 150.412 109.695 90.2136 181.064 2.94924M5.99185 211.669C60.2277 148.894 113.804 84.3377 186.069 5.04904M4.72163 216.773C47.3605 170.533 86.0258 125.023 190.708 4.66532M5.67889 222.183C68.0825 145.521 137.958 63.3536 195.176 4.02219M4.4614 225.287C64.2989 158.625 126.522 91.0853 198.433 5.08457M4.58754 231.23C65.6774 164.149 121.068 95.2554 201.216 4.79562M5.81469 237.067C48.1708 181.285 92.1 129.754 205.419 3.74175M5.77281 243.93C53.374 187.087 96.2574 135.704 211.628 2.73652M5.08835 247.599C78.3518 158.525 151.792 71.8449 217.25 2.75627M5.50854 251.311C84.5691 158.926 163.37 67.189 220.068 3.28967M6.5374 254.918C49.3704 202.508 98.0358 148.103 222.745 2.91338M5.79913 259.005C87.0488 172.444 165.331 82.8724 229.923 4.79794M8.21005 262.949C64.5875 195.698 122.228 129.604 232.34 3.6292M9.01461 268.571C86.5791 180.981 162.113 91.9996 239.327 4.21559M10.4641 269.069C71.0706 202.823 128.589 136.254 240.349 5.85856M10.7855 275.149C59.9455 220.561 109.972 162.796 248.019 3.79449M14.2675 277.439C93.8939 184.161 174.05 92.2641 252.294 3.70237M15.0735 282.789C82.5932 204.645 154.63 123.301 255.901 5.65727M17.577 283.591C79.773 211.723 143.953 138.972 258.477 5.70349M19.9005 286.633C75.0595 223.259 130.301 160.992 263.737 3.50693M22.5545 286.816C110.514 189.668 197.217 90.818 267.399 5.82459M25.4784 290.612C96.8197 207.367 168.428 121.065 273.827 4.51563M26.7266 293.083C84.5571 229.465 139.921 167.439 277.247 3.93291M28.3921 294.247C111.201 201.523 193.256 105.388 283.148 4.34926M31.7553 295.44C106.431 208.742 181.828 120.031 285.564 4.07407M33.1992 297.612C108.51 217.299 179.615 132.81 290.42 4.84011M37.1823 301.907C88.5588 237.817 140.007 177.353 296.06 5.32185M40.0214 302.423C134.436 195.404 227.451 87.8328 300.667 3.33358M45.0512 303.856C126.317 210.086 207.284 117.023 304.219 5.45414M47.4792 303.039C152.691 183.175 256.419 64.3364 308.857 3.59446M51.7727 305.108C148.552 196.182 242.461 87.131 311.405 4.72693M54.5589 306.983C131.206 214.618 208.733 125.212 316.088 3.02529M57.1111 306.835C120.683 234.593 184.584 161.772 320.707 5.58056M60.6754 307.257C162.194 190.72 263.309 76.7758 326.294 3.40108M66.6908 308.684C135.116 224.134 208.649 143.096 330.065 3.42598M69.8026 309.193C167.868 194.679 268.293 79.8866 335.844 2.61615M74.0341 308.192C131.199 242.066 191.855 173.164 337.727 5.28607M79.3013 308.123C139.885 234.834 201.908 162.657 342.458 4.70336M81.8562 308.501C163.387 217.603 242.538 127.292 348.879 3.24198M86.9935 308.78C150.392 231.106 215.873 156.28 353.448 5.07969M92.3751 307.543C151.752 240.115 213.633 169.012 355.774 4.63308M95.3791 307.634C185.491 205.343 273.301 103.341 360.993 3.67332M100.418 307.156C204.014 185.947 309.568 66.1671 363.935 4.27512M103.594 307.465C183.66 221.493 261.505 131.06 368.888 6.55369M108.442 308.382C191.731 212.829 275.89 119.505 369.929 7.77864M113.886 309.988C178.404 234.348 243.844 158.148 375.059 8.98929M118.088 309.581C192.017 224.317 264.763 141.28 379.407 9.88089M122.611 309.516C208.457 210.047 293.667 110.578 383.243 8.86545M127.828 308.898C232.724 190.433 334.951 72.6498 385.898 11.3378M130.5 308.066C185.414 244.927 241.252 181.469 389.265 12.3083M136.38 307.875C214.418 222.365 290.612 132.582 391.895 13.928M139.546 308.295C218.443 220.852 295.59 129.372 397.371 14.1216M145.685 308.56C215.535 226.35 290.739 138.889 397.901 14.0915M149.025 308.364C201.504 245.028 257.195 180.659 400.482 17.7551M152.104 308.531C217.824 231.394 285.203 154.655 402.485 20.5607M158.868 309.926C241.421 216.7 319.756 126.892 406.093 22.1449M161.702 307.739C217.149 243.666 275.684 178.566 409.369 25.8953M166.742 307.123C245.545 215.896 328.992 121.304 412.619 27.4856M171.862 309.565C225.144 248.089 277.737 188.573 414.571 28.3706M176.413 309.67C252.11 214.787 333.671 123.14 417.921 30.2922M179.324 308.478C255.364 222.901 333.472 135.16 417.622 33.7393M183.336 306.807C253.425 232.481 322.369 151.711 419.49 40.0099M188.051 310.409C280.073 206.564 369.356 100.695 419.966 42.9781M191.136 307.791C261.231 229.043 328.317 148.268 420.402 43.8593M196.699 310.106C276.468 213.546 353.618 121.058 421.446 49.0305M201.033 310.036C263.564 236.556 326.839 164.251 423.965 50.6047M206.861 307.117C273.278 226.054 344.524 142.818 425.632 54.6086M212.228 309.124C277.59 232.463 346.312 154.631 425.232 59.8806M215.792 307.921C282.332 232.876 347.686 156.197 426.059 62.4136M218.787 307.945C278.596 237.193 338.508 170.967 428.001 68.9448M223.462 308.122C295.959 220.017 371.12 133.96 427.14 76.0652M229.982 307.769C274.972 256.271 318.735 203.169 427.544 77.5696M230.169 309.562C307.754 223.471 382.822 132.993 428.736 82.2195M235.046 308.658C277.906 256.904 320.458 207.285 425.863 87.4247M241.604 306.838C301.054 241.935 362.678 171.76 426.441 93.3801M244.49 306.498C301.679 246.775 355.004 185.805 425.717 99.0046M247.779 309.739C291.896 259.077 338.493 209.659 425.371 105.164M256.559 307.709C294.224 264.391 333.511 219.448 428.774 107.4M257.989 310.769C296.524 266.232 339.641 216.798 427.594 116.11M260.945 310.019C322.505 241.647 377.371 177.02 424.31 118.971M267.45 307.198C301.47 269.208 335.183 234.121 427.709 124.467M271.436 309.095C326.412 245.982 378.669 181.788 424.33 128.419M278.206 309.531C320.453 258.537 364.279 209.805 427.48 135.025M281.001 307.304C314.055 271.663 345.782 233.848 425.078 139.462M283.649 308.595C325.355 260.814 366.036 212.11 428.1 143.171M291.147 309.672C316.685 274.984 344.204 240.916 425.98 147.941M292.336 306.152C348.024 252.048 395.822 188.746 425.814 157.399M299.49 305.903C334.12 264.142 370.934 223.338 427.073 161.794M305.021 310.435C351.898 251.233 395.947 199.518 425.822 165.23M309.775 307.634C341.896 272.74 372.376 236.482 424.355 170.262M311.38 308.928C354.356 258.485 402.678 205.632 428.27 175.696M317.299 307.805C347.629 273.115 374.067 235.887 424.672 179.369M322.81 311.586C363.459 260.721 403.043 213.142 424.735 183.107M325.058 307.742C367.035 258.358 404.803 211.459 428.662 192.819M329.243 309.323C365.807 263.869 407.104 214.374 426.946 192.602M331.494 308.683C364.501 275.973 391.674 237.759 427.058 197.852M338.27 305.983C369.261 269.891 400.804 233.678 430.611 204.162M340.437 309.077C365.479 281.781 382.162 260.9 427.069 207.927M347.145 306.34C373.283 278.15 401.461 248.711 426.836 214.927M350.269 308.844C380.907 276.927 408.626 249.195 426.174 220.821M354.461 308.195C372.365 289.697 391.003 269.259 429.274 226.287M362.64 308.315C386.761 276.563 412.569 250.127 429.979 229.692M361.526 309.891C379.953 289.869 393.88 272.395 429.763 237.159M369.795 310.011C380.203 290.71 396.798 274.109 423.689 243.789M373.876 309.35C389.447 293.183 400.654 275.075 427.931 246.385M376.659 306.695C391.217 295.574 401.677 286.475 425.714 254.79M387.324 303.149C400.594 289.032 414.079 274.416 426.121 261.979M391.685 302.139C403.909 287.627 411.544 282.169 417.946 269.948M396.806 299.639C406.078 291.932 414.854 279.796 416.772 272.612M10.8997 45.7394C13.447 40.438 17.0615 31.0062 22.7502 23.8591M7.88468 54.4171C10.9958 45.5006 21.8516 37.4819 34.4698 15.3M2.40741 59.6771C11.2126 51.1379 19.8722 42.0348 42.7622 14.1684M4.39544 65.8723C22.4985 43.4291 38.7336 20.0036 49.9426 7.96285M1.9641 72.6198C22.503 54.6453 34.2724 29.35 54.3911 2.35055M7.17053 77.6252C22.759 48.7589 41.7947 28.0565 61.1271 2.95657M6.3017 79.0742C15.452 66.6145 32.9751 48.5478 69.3901 5.01925M2.98911 83.1168C22.0347 68.5483 31.7199 47.8693 70.184 7.09258M4.53659 91.5763C32.9129 53.2807 62.501 21.1064 76.9071 2.77287M1.12801 94.7418C30.5903 59.6759 60.4896 29.5638 78.3177 5.50477M6.79538 102.071C32.6182 59.7731 63.6548 27.8664 83.3116 7.50382M2.50353 104.599C24.7728 81.1699 40.8952 58.0865 89.858 1.42443M2.89685 110.864C25.4147 83.6618 43.0832 60.2168 93.4141 3.00955M7.09108 117.951C25.5218 89.2873 54.7359 57.1421 95.9878 4.75808M4.52372 122.244C29.6194 95.3373 50.8081 65.9272 99 1.04455M1 123.634C32.7103 83.7765 67.7905 45.4837 107.321 6.27M1.37712 129.745C34.6825 94.9836 64.7233 57.3931 108.602 1.74431M4.82094 134.813C47.8515 85.8882 83.5406 39.528 116.63 4.72729M5.3454 142.253C24.0921 113.211 49.4802 83.6967 120.91 5.65213M2.02877 147.599C28.1312 116.724 56.066 82.4853 124.53 3.43393M2.27055 152.57C31.1944 118.157 64.4006 85.8625 127.762 5.56586M5.50497 157.511C31.905 124.73 56.9988 89.862 129.672 4.02015M5.92423 164.489C41.9754 114.193 85.6304 65.9758 134.859 3.91845M6.97424 164.054C49.9243 110.628 98.4054 51.1807 138.535 4.55265M2.65222 169.557C35.7914 126.283 71.3189 84.5128 146.541 4.04448M1.98789 174.61C37.4562 137.071 70.2355 102.14 149.575 3.64699M3.23374 183.732C58.2003 113.617 113.993 51.6295 153.949 3.86718M1.99683 186.955C59.9716 121.065 118.644 58.6766 157.513 6.18444M6.44246 191.747C42.4046 144.861 80.1103 102.223 162.618 5.01741M1.85237 198.244C50.4444 144.776 91.0755 97.861 167.779 3.72198M2.69225 201.915C58.564 140.057 107.507 78.3626 170.104 5.8099M4.75266 205.444C71.1248 128.67 135.398 50.3472 176.235 4.0493M4.01763 213.174C61.4891 144.62 114.804 79.3869 182.802 4.19579M4.96062 219.142C74.0267 134.981 146.437 51.4105 186.303 3.29912M5.3559 223.424C74.4498 140.594 149.135 58.2722 188.231 5.48274M6.39864 227.741C64.3765 152.366 130.805 78.8034 194.195 2.80162M3.10255 230.528C68.9901 153.981 136.624 74.5748 198.004 5.19945M3.81656 237.725C79.3657 148.918 156.762 55.6567 201.628 4.58882M2.42967 241.881C83.2956 153.76 160.619 62.1359 208.042 2.69259M3.33097 247.407C76.8766 163.313 150.678 78.2742 209.657 3.04137M2.65293 254.685C64.7202 176.219 130.042 104.331 214.124 5.30122M5.1466 257.943C85.8468 162.838 158.767 73.3795 221.398 5.49254M7.01224 260.64C73.0353 178.148 138.699 100.406 225.375 4.3354M8.97345 265.054C79.6794 178.611 150.355 91.4272 230.073 3.45011M8.20344 267.526C64.3141 202.459 119.63 140.271 234.548 5.18989M9.65855 270.691C88.0957 176.823 168.576 83.613 237.342 5.85387M12.8773 274.098C98.3697 166.799 190.517 61.9718 240.493 4.29412M13.3617 279.148C78.2771 200.977 146.879 122.231 247.787 3.81196M13.4204 281.064C68.3543 215.692 126.156 148.923 250.75 5.62016M16.6869 283.04C91.6738 193.686 168.834 105.702 256.112 4.88009M19.6648 286.252C74.0217 220.477 128.742 156.709 260.8 5.6293M22.7351 286.769C77.6602 224.907 134.05 158.221 264.985 3.17697M24.0602 289.421C106.142 192.005 188.57 97.557 266.956 4.21898M26.4173 292.02C76.2488 234.287 127.465 173.112 272.185 4.97164M29.9382 293.64C96.7972 212.39 165.786 132.609 277.571 3.48409M30.7727 295.382C108.31 208.245 183.191 116.136 281.079 4.12588M33.685 299.256C85.41 233.909 141.68 168.048 287.406 3.1549M38.1759 301.904C103.701 221.736 170.604 144.668 291.583 5.02966M39.4655 301C119.598 206.239 201.277 109.35 295.641 5.27891M43.0639 301.596C104.674 232.564 166.804 161.871 300.753 5.37972M47.7923 303.065C126.895 214.013 206.64 119.935 302.591 3.53102M51.3599 306.218C152.187 186.34 253.768 66.5504 309.291 4.46342M54.94 307.088C137.344 206.22 220.334 108.362 312.173 4.32963M57.879 307.481C146.591 202.259 235.618 97.3599 316.501 2.76522M60.6791 307.91C130.134 224.656 204.289 139.06 322.092 4.80459M64.0694 308.547C161.376 196.386 257.801 83.872 325.648 4.92401M69.0568 308.676C162.084 196.361 254.515 88.8251 331.172 5.21647M74.288 309.488C175.995 186.344 275.354 69.0871 335.856 4.6863M79.4446 309.796C169.078 203.914 259.027 98.7369 338.574 4.32702M83.3705 308.55C180.281 197.651 275.401 88.5593 344.075 4.92943M86.0636 307.763C189.771 191.389 288.838 75.8007 346.731 5.33258M90.5743 308.276C185.624 199.23 281.07 84.9282 352.614 3.15635M95.8297 309.721C157.758 233.128 219.496 162.659 355.104 3.76667M99.4941 308.927C203.367 190.564 305.693 70.1781 360.779 3.19697M104.649 308.125C168.458 235.402 233.809 160.025 364.571 3.81313M108.589 308.712C213.312 185.932 315.235 67.2166 368.256 5.23317M112.151 307.43C182.449 225.563 251.465 146.195 372.024 7.91886M117.488 308.121C205.061 203.674 294.193 99.8715 373.779 7.2302M122.351 308.771C182.647 242.299 239.259 174.622 379.004 8.91421M126.364 308.091C223.455 197.12 318.667 86.8126 382.4 8.88835M131.556 309.734C233.288 187.438 335.951 70.3494 385.176 11.2215M134.47 309.701C223.442 203.848 311.57 101.862 388.247 12.6495M140.606 307.442C219.287 216.887 298.369 122.007 394.029 13.2035M144.029 308.546C194.86 249.079 246.851 186.52 395.884 13.8685M148.882 307.887C248.439 191.408 345.893 72.8155 400.149 16.4405M153.603 309.644C203.904 243.142 255.61 181.402 402.266 19.2346M157.23 307.159C249.741 202.358 342.162 95.0051 403.738 19.5006M161.854 309.153C226.221 231.352 292.847 150.451 405.258 20.9429M166.923 308.934C254.792 200.844 344.941 95.6967 410.069 23.0037M170.977 309.619C235.628 232.145 298.742 158.039 409.841 26.4799M173.7 307.956C228.363 249.95 279.735 192.863 413.177 28.2889M178.997 308.083C243.21 233.41 308.209 155.71 417.707 31.3178M185.288 309.564C252.921 231.006 320.659 153.919 417.263 34.4371M188.005 307.67C240.942 247.075 292.097 184.378 419.306 39.8315M192.909 309.296C270.113 221.901 347.437 132.843 418.88 40.5634M198.004 309.842C248.174 246.881 301.127 187.953 422.227 44.3639M200.258 308.803C277.704 215.548 353.934 127.353 423.353 47.4322M206.467 307.023C271.099 227.929 339.463 148.676 422.896 53.5822M209.861 307.718C271.342 238.809 327.289 169.531 426.061 56.4596M215.136 309.385C283.495 225.867 354.312 144.321 425.7 58.0107M220.211 307.53C260.624 259.383 301.131 210.219 426.842 65.9028M222.58 308.867C280.907 242.33 336.286 176.371 425.595 68.2124M229.973 309.399C275.876 251.233 322.152 192.748 427.111 74.8178M232.469 307.48C277.714 254.056 326.468 194.793 426.322 79.3452M237.048 309.413C288.805 247.277 341.192 184.196 428.468 84.0121M239.812 308.97C284.883 255.506 332.398 198.081 427.885 90.8031M243.746 309.823C281.522 266.805 319.071 223.07 424.847 94.8808M251.728 310.48C310.157 239.962 371.875 165.421 426.695 100.926M254.96 308.015C303.547 253.299 351.938 197.671 424.777 105.374M258.969 308.825C296.75 263.567 329.232 224.54 428.781 111.722M263.233 309.571C304.231 264.378 338.622 221.313 428.079 114.356M267.829 309.597C308.396 257.669 353.084 208.716 427.342 118.113M273.349 309.892C307.098 265.981 342.418 222.608 428.075 125.635M277.243 306.962C334.193 243.917 394.119 175.515 424.644 130.685M280.472 308.492C337.784 238.806 397.021 175.127 427.006 133.569M282.609 309.76C334.73 254.641 383.188 192.869 426.209 140.454M288.733 310.093C328.21 265.313 362.513 221.985 424.652 144.442M291.743 305.709C339.762 260.974 380.269 208.841 428.919 151.181M300.918 309.86C329.002 268.104 363.179 227.347 426.685 153.714M300.486 310.594C336.881 269.96 368.245 230.294 427.147 159.49M308.809 307.158C332.088 277.078 354.897 250.164 427.906 166.914M313.686 306.168C340.444 269.552 371.419 233.624 427.888 172.753M316.783 310.551C349.771 258.823 388.996 217.401 426.423 177.999M318.631 311.033C347.903 274.775 376.915 247.151 425.559 182.516M325.226 311.712C357.5 272.593 391.365 229.934 426.722 182.847M329.347 307.959C361.835 265.816 396.631 224.535 425.473 188.098M334.143 307.594C359.103 277.758 385.034 251.757 424.751 192.355M336.9 310.097C357.735 275.282 383.115 247.568 423.765 203.256M341.802 305.813C361.176 284.994 378.708 263.719 430.267 202.932M347.21 305.92C373.164 277.514 402.2 243.995 428.476 211.949M349.803 307.986C370.522 285.954 391.405 261.719 423.804 213.836M352.402 309.415C379.491 277.875 402.122 248.315 426.052 220.38M359.961 311.121C372.663 293.088 387.539 277.181 427.43 225.453M362.548 307.147C378.519 287.543 392.958 273.148 426.329 227.066M369.377 310.934C382.389 286.985 399.31 266.755 428.782 236.692M376.004 308.444C386.775 292.908 396.065 276.636 425.296 242.865M380.207 308.715C395.358 289.346 408.705 271.542 428.947 249.505M387.172 302.445C394.558 290.361 410.981 273.905 422.358 252.007M395.245 301.713C397.764 290.732 402.773 282.775 420.762 259.46M399.579 298.246C405.18 294.151 407.124 284.404 423.561 269.893M16.8892 26.0494V26.0494Z" stroke="url(#paint0_linear_1623_17069)" stroke-width="0.827991" stroke-linecap="round"/>
<path d="M41.5052 97.6284C45.1507 72.0264 68.0804 41.7505 107.131 44.6174M41.5052 97.6284V97.6284ZM98.8436 35.8906C183.497 41.285 259.238 45.2996 399.044 41.8406M404.17 36.6889C439.92 31.2143 469.981 65.2153 466.766 92.8445M465.492 94.8245C459.086 155.378 465.396 215.893 463.527 273.583M465.109 278.961C466.317 305.566 442.609 342.659 401.48 342.825M405.173 344.445C306.921 339.173 206.871 338.793 101.346 335.796M102.445 339.9C62.5829 344.802 38.0261 319.975 34 277.41M44.8653 275.927C51.0353 222.301 50.0331 173.08 40.1723 98.6102" stroke="white" stroke-width="1.65598" stroke-linecap="round"/>
<path d="M323.961 174.312C334.66 177.052 338.478 187.135 328.627 193.882M323.961 174.312V174.312ZM328.575 192.081C304.956 201.238 279.31 211.306 211.288 265.283M212.038 259.911C199.533 271.642 186.716 251.076 193.06 253.023M193.15 253.176C195.533 217.904 196.857 165.777 192.912 121.036M193.869 120.183C191.464 115.676 197.091 109.766 213.429 115.68M212.946 107.886C232.994 134.465 271.942 147.517 331.007 173.099" stroke="white" stroke-width="1.65598" stroke-linecap="round"/>
<path d="M37.1137 94.7537C38.1784 62.5334 65.6822 34.9287 99.4308 36.0925M37.1137 94.7537V94.7537ZM97.8447 34.982C205.123 36.4404 307.418 35.4131 397.706 34.1034M399.778 33.8142C434.824 33.051 461.762 58.3597 462.471 93.2856M462.515 91.8915C464.941 149.783 461.52 200.513 462.656 274.637M460.718 276.086C459.689 309.362 431.897 333.893 398.219 339.727M400.336 337.297C303.416 337.828 202.964 335.437 97.6176 337.375M98.0532 337.025C61.5626 337.561 34.8042 308.606 34.8629 279.044M34.3359 274.51C39.3612 228.763 37.4729 183.569 38.3031 92.3715" stroke="white" stroke-width="1.65598" stroke-linecap="round"/>
<path d="M329.427 175.157C334.617 180.511 335.586 188.941 327.385 193.938M329.427 175.157V175.157ZM331.695 196.994C292.289 214.881 248.322 243.149 217.773 257.933M217.505 260.756C208.159 263.616 201.88 257.286 201.29 252.082M198.623 249.521C201.453 220.909 202.762 191.194 197.547 120.129M199.335 121.029C196.708 113.226 208.7 106.115 214.329 108.874M214.983 109.608C254.13 133.933 289.454 154.017 332.355 172.287" stroke="white" stroke-width="1.65598" stroke-linecap="round"/>
<path d="M40.0622 99.0375C41.2887 65.5699 65.6677 40.3828 100.109 33.8149M40.0622 99.0375V99.0375ZM101.585 38.8416C215.675 36.6936 324.849 39.514 400.803 37.4664M402.727 38.098C435.134 38.0624 467.36 69.74 460.984 94.4677M466.067 102.624C458.241 155.546 463.606 202.83 466.433 277.773M463.666 280.37C467.029 311.595 437.221 336.79 401.751 341.354M401.168 341.099C314.454 347.157 219.742 343.056 100.572 341.863M101.002 341.309C65.4009 345.126 38.8786 318.192 43.7485 278.531M42.7546 283.542C32.6965 238.364 38.4895 187.543 41.6659 96.7689" stroke="white" stroke-width="2.48397" stroke-linecap="round"/>
<path d="M332.397 179.44C345.231 183.308 336.952 190.989 327.927 198.135M332.397 179.44V179.44ZM329.435 198.006C300.104 218.379 261.822 239.747 221.892 264.922M220.474 265.039C208.186 271.143 206.255 265.518 206.894 259.104M205.862 258.838C205.102 199.897 204.449 153.765 203.606 125.965M202.305 125.312C204.355 115.082 208.472 109.471 219.947 118.787M225.169 110.621C264.848 137.624 300.028 159.96 328.031 179.432" stroke="white" stroke-width="2.48397" stroke-linecap="round"/>
<defs>
<linearGradient id="paint0_linear_1623_17069" x1="45.1426" y1="42.014" x2="286.753" y2="215.265" gradientUnits="userSpaceOnUse">
<stop stop-color="#3CA0D2"/>
<stop offset="1" stop-color="#48DCA6"/>
</linearGradient>
</defs>
</svg>
