<svg width="24" height="64" viewBox="0 0 24 64" fill="none" xmlns="http://www.w3.org/2000/svg">
<g clip-path="url(#clip0_869_4272)">
<path d="M15.3459 0C3.9402 2.67279 0.39068 6.99683 0.146446 17.0653C-0.0896454 21.7322 -0.179199 26.385 1.04197 31.0589C1.85608 34.0466 2.80045 37.0342 3.97277 39.9659C7.33505 48.7749 14.1654 56.4994 22.103 62.6076C17.8534 57.7099 13.7095 52.8121 10.6648 47.4175C7.61999 42.023 5.7801 36.2226 4.217 30.4012C2.73532 24.7058 2.91442 18.5066 3.10167 12.6573C3.41917 7.83645 5.97548 4.58992 10.681 2.16202C12.1302 1.26643 13.9375 0.965562 15.3459 0.0629715V0Z" fill="#D1CB28"/>
<path d="M21.9811 48.4111C20.6786 50.4192 20.8414 52.9941 20.5809 55.1561C20.3936 57.493 20.8332 59.683 20.7355 61.943C20.7355 62.02 20.7355 61.943 20.817 61.7401C20.8855 61.6114 20.9887 61.4987 21.1182 61.4112C21.2267 61.3264 21.3583 61.2663 21.5008 61.2363C21.6718 61.2363 21.6229 61.2363 21.5741 61.2363C20.5564 61.1314 19.4818 60.6906 18.4072 60.6066C15.8672 60.2358 13.1806 60.3687 10.7545 59.795C9.83459 59.4591 8.67856 59.5711 7.75047 59.3122C8.46689 60.0119 9.37869 60.1798 10.1928 60.7675C12.4805 62.1669 15.224 62.4957 17.8047 63.1255C18.9282 63.3214 19.9296 63.8671 21.2891 63.9791C21.6763 64.0406 22.0752 64.0177 22.4494 63.9123C22.8236 63.807 23.161 63.6227 23.4308 63.3762C23.7005 63.1297 23.894 62.829 23.9935 62.5016C24.093 62.1742 24.0953 61.8306 24.0001 61.5022C24.1141 59.4032 23.414 57.1782 23.186 55.1561C22.9255 52.7422 22.0544 50.7271 22.03 48.4111H21.9811Z" fill="#D1CB28"/>
</g>
<defs>
<clipPath id="clip0_869_4272">
<rect width="24" height="64" fill="white" transform="matrix(-1 0 0 1 24 0)"/>
</clipPath>
</defs>
</svg>
