<svg width="24" height="64" viewBox="0 0 24 64" fill="none" xmlns="http://www.w3.org/2000/svg">
<g clip-path="url(#clip0_869_4273)">
<path d="M8.6541 0C20.0598 2.67279 23.6093 6.99683 23.8536 17.0653C24.0896 21.7322 24.1792 26.385 22.958 31.0589C22.1439 34.0466 21.1996 37.0342 20.0272 39.9659C16.665 48.7749 9.83456 56.4994 1.89697 62.6076C6.14663 57.7099 10.2905 52.8121 13.3352 47.4175C16.38 42.023 18.2199 36.2226 19.783 30.4012C21.2647 24.7058 21.0856 18.5066 20.8983 12.6573C20.5808 7.83645 18.0245 4.58992 13.319 2.16202C11.8698 1.26643 10.0625 0.965562 8.6541 0.0629715V0Z" fill="#D1CB28"/>
<path d="M2.01887 48.4111C3.32144 50.4192 3.15862 52.9941 3.41914 55.1561C3.60638 57.493 3.16676 59.683 3.26446 61.943C3.26446 62.02 3.26446 61.943 3.18304 61.7401C3.11453 61.6114 3.01126 61.4987 2.88182 61.4112C2.77326 61.3264 2.64172 61.2663 2.49919 61.2363C2.32823 61.2363 2.37707 61.2363 2.42592 61.2363C3.44356 61.1314 4.51819 60.6906 5.59281 60.6066C8.13284 60.2358 10.8194 60.3687 13.2455 59.795C14.1654 59.4591 15.3214 59.5711 16.2495 59.3122C15.5331 60.0119 14.6213 60.1798 13.8072 60.7675C11.5195 62.1669 8.77599 62.4957 6.19526 63.1255C5.07178 63.3214 4.07043 63.8671 2.71086 63.9791C2.3237 64.0406 1.92476 64.0177 1.5506 63.9123C1.17643 63.807 0.839005 63.6227 0.569236 63.3762C0.299466 63.1297 0.105979 62.829 0.0065049 62.5016C-0.0929696 62.1742 -0.095251 61.8306 -0.000130467 61.5022C-0.114106 59.4032 0.58603 57.1782 0.813981 55.1561C1.0745 52.7422 1.9456 50.7271 1.97002 48.4111H2.01887Z" fill="#D1CB28"/>
</g>
<defs>
<clipPath id="clip0_869_4273">
<rect width="24" height="64" fill="white"/>
</clipPath>
</defs>
</svg>
