<svg width="554" height="437" viewBox="0 0 554 437" fill="none" xmlns="http://www.w3.org/2000/svg">
<path opacity="0.89" d="M257.419 30.933C266.037 28.6498 268.547 18.8218 277.932 10.6079M254.182 37.9199C264.354 28.3047 274.611 20.6067 287.193 2.38715M250.969 50.8519C257.474 41.2651 270.248 27.7825 288.743 5.63732M249.422 50.0218C259.206 43.8122 272.182 32.0064 290.809 7.94048M249.856 58.9922C263.475 41.5685 276.914 27.9783 295.091 1.97267M255.373 59.893C268.519 42.5452 284.264 24.6409 304.647 6.48953M252.666 62.915C273.103 38.4542 296.445 15.2606 306.56 3.45215M255.738 69.6252C274.197 44.4865 294.587 25.1785 310.848 6.58706M254.645 71.6675C277.579 45.9752 292.127 29.2694 315.215 3.04816M256.243 76.2559C276.871 53.4208 298.157 27.906 317.453 8.63778M258.766 79.254C273.409 64.1401 286.593 49.6084 318.462 9.38364M258.823 79.9844C283.077 50.5468 307.178 23.8109 320.903 8.43187M262.557 84.5694C279.042 63.2626 300.514 43.7707 326.456 10.1074M261.013 87.5652C288.352 56.214 311.903 27.3282 330.907 13.8657M266.498 89.0939C292.492 61.9777 315.628 32.6904 329.063 15.5992M267.416 90.4999C289.216 68.277 308.255 40.0095 332.128 15.2405M267.929 93.2288C282.23 73.1777 294.59 56.4425 338.124 18.4237M270.836 92.631C293.793 67.7393 321.268 35.2388 341.275 17.6086M274.613 96.6134C290.857 73.8365 311.237 52.4259 339.668 22.6604M279.196 100.708C286.29 79.9594 302.254 65.6484 345.094 22.4308M277.667 99.0594C300.113 77.9962 317.451 55.5211 346.714 25.5407M279.449 106.575C298.031 87.0021 310.47 72.7133 345.703 28.4794M284.443 105.998C300.72 83.7899 324.282 60.6778 362.117 10.0056M283.877 106.016C317.334 69.7971 348.883 32.0979 372.46 6.98912M287.76 110.206C311.858 85.1729 333.163 57.8965 378.27 4.08572M292.076 110.799C314.126 77.9619 342.098 54.0016 384.146 1.09364M290.434 116.431C326.817 71.8383 364.63 34.8246 389.374 4.70777M294.121 114.128C331.07 79.2401 364.255 32.9532 392.056 1M295.536 116.428C320.087 91.2362 348.398 59.3134 393.784 3.79912M296.49 119.246C325.457 88.7797 355.247 52.1592 398.758 2.68548M301.988 123.696C329.322 86.6871 361.475 51.731 404.147 4.76027M304.578 126.007C326.622 97.7485 352.668 61.9566 405.54 2.41851M306.675 125.97C340.701 90.0731 372.875 50.6762 410.317 7.93157M308.833 128.262C333.05 91.8098 366.838 58.6845 412.629 10.0225M308.364 130.622C345.163 92.8302 377.287 55.3283 413.267 9.11108M312.767 132.67C352.101 89.7168 385.953 45.7173 420.282 10.7917M310.364 137.549C349.724 90.5992 388.33 44.465 421.8 9.39573M315.553 140.547C336.924 113.685 356.834 87.7511 422.769 14.5658M317.349 140.827C345.835 107.441 372.524 72.4881 428.395 17.785M316.905 144.11C361.149 93.675 398.371 47.6151 426.89 18.2825M319.742 146.69C359.927 99.6882 399.765 54.3465 429.327 19.9092M325.338 147.041C354.028 111.518 378.439 81.0374 431.263 24.5732M326.314 148.891C348.837 122.941 370.861 95.217 435.172 22.7597M329.652 152.768C362.008 110.588 397.338 70.965 435.007 27.9234M331.264 150.581C376.158 105.042 415.196 58.1857 435.899 29.0407M329.63 158.007C368.666 112.721 408.746 66.3422 436.433 30.6494M335.534 157.81C378.114 109.032 420.856 58.1254 438.026 38.7627M338.904 158.715C361.892 133.181 383.609 108.01 441.925 40.5566M337.023 163.367C361.084 139.586 379.31 111.897 440.778 43.4284M343.411 165.313C381.111 115.093 424.256 71.6509 443.752 45.9688M342.78 166.718C379.638 125.952 416.592 81.6483 444.977 49.1844M343.652 169.19C381.024 129.69 422.236 82.3632 442.262 52.2929M349.866 173.545C380.483 137.651 402.834 103.489 444.2 61.6565M379.881 136.923C402.866 109.363 429.53 80.2815 441.882 67.0435M410.456 108.687C416.825 97.756 427.091 92.7378 442.028 71.682M259.271 38.0341C263.368 31.4902 268.661 19.8342 278.646 7.06354M253.374 45.527C263.743 37.0266 266.98 25.8825 283.113 8.06087M253.303 51.5047C258.368 42.0993 269.832 28.2385 291.41 4.92087M250.573 56.0632C262.063 41.7984 273.821 35.7768 295.891 4.88177M252.136 63.4457C265.436 42.3353 285.782 18.6841 299.493 4.07478M252.981 67.2504C269.031 48.7764 281.126 33.7269 305.155 4.46773M251.305 68.6641C270.358 44.7855 294.997 17.5063 309.401 6.68387M253.763 73.0915C275.502 43.2374 297.872 17.109 311.071 4.4456M259.234 72.2172C266.482 61.9908 276.846 48.6944 311.045 2.49985M258.96 78.5823C274.817 62.7967 288.008 41.3543 318.986 3.62974M261.386 80.6429C281.502 50.8189 304.176 22.2842 321.686 8.72955M260.417 80.2728C287.674 51.3441 308.775 25.1184 321.945 5.5683M264.474 87.3743C284.322 59.8925 305.523 30.4585 324.034 11.6312M265.688 88.1965C284.242 65.7843 301.752 39.7083 328.307 8.40152M265.079 88.3316C292.994 59.2334 320.952 33.7623 333.285 15.8509M267.926 92.1294C283.502 71.7609 298.786 51.5096 331.849 14.8409M268.686 95.5851C288.487 72.3525 311.152 46.5118 335.194 17.0706M276.765 99.4843C288.604 79.3638 302.104 58.3159 339.157 19.8354M274.173 98.2247C298 70.4737 318.792 42.8719 339.49 21.1711M275.942 98.6141C294.985 81.8917 310.563 58.869 344.011 20.7568M279.486 104.898C301.444 77.825 323.497 49.9918 344.996 22.1702M283.491 107.652C302.004 82.0527 320.316 59.3423 348.684 27.5617M284.539 105.457C313.77 75.3683 343.616 46.0364 367.059 8.56681M289.589 111.456C310.105 89.4056 327.363 67.1348 374.413 9.08718M289.816 110.232C308.107 89.4109 328.887 60.7558 381.45 7.51977M293.359 111.673C312.675 87.5219 332.417 64.3514 386.234 5.89413M291.088 118.927C329.274 75.4729 356.944 38.3193 385.864 5.7495M297.874 115.779C327.094 84.1498 353.003 47.8905 390.267 3.58738M296.159 120.257C316.019 94.1287 340.047 72.3539 396.183 5.22623M297.883 123.733C323.008 93.7794 348.109 68.5327 401.752 2.02196M303.895 125.937C337.292 83.0642 377.549 37.3503 402.271 3.47069M301.736 129.397C336.692 90.7698 371.684 51.1918 405.713 6.51941M304.805 126.958C346.598 86.3531 382.247 42.9915 410.532 7.15287M308.799 129.78C337.331 93.3608 369.431 55.6657 409.925 8.99416M312.811 135.899C350.453 86.9393 390.163 38.1281 416.102 6.74689M313.116 138.262C344.701 92.5627 379.646 48.2349 416.396 9.23824M316.055 137.299C355.801 90.6551 393.655 44.1974 422.062 13.7264M314.722 141.284C355.067 90.3012 399.815 39.7659 424.585 14.0315M316.985 145.071C351.745 104.592 382.015 63.8852 427.715 16.4327M319.276 144.537C355.654 106.266 390.177 61.5764 430.328 18.1548M325.865 146.367C346.864 114.127 374.604 89.3444 429.639 18.1727M324.255 150.824C350.757 123.475 371.571 96.3648 433.782 22.35M329.094 151.5C360.139 114.194 392.886 76.846 434.735 23.6904M329.263 152.676C356.586 119.01 385.73 84.0845 434.145 26.2587M331.849 156.661C360.271 121.438 383.622 86.9083 440.04 31.7771M333.121 157.394C355.356 130.921 377.607 106.854 437.973 32.7079M338.752 161.15C362.652 127.732 387.203 98.7009 442.424 35.9683M340.867 159.524C375.019 113.995 412.633 68.3707 440.381 41.8095M338.565 164.087C378.422 120.09 417.35 75.8264 444.615 44.9899M345.71 164.232C371.487 130.845 404.307 98.7254 442.389 44.3037M344.786 166.173C380.799 123.448 412.116 84.233 446.767 47.599M345.994 170.816C372.993 139.038 404.286 102.634 444.903 52.467M382.099 141.722C398.099 112.568 418.368 87.6789 442.414 58.0963M409.183 107.402C418.706 94.8487 428.166 90.0668 441.842 64.9869M269.722 13.3367V13.3367Z" stroke="url(#paint0_linear_1623_14210)" stroke-linecap="round" stroke-linejoin="round"/>
<path opacity="0.89" d="M10.3713 253.272C13.3033 250.294 11.9701 245.73 13.7957 240.176M10.7332 256.864C12.5417 250.557 14.8424 245.003 15.5698 234.649M12.5236 262.848C12.8596 257.428 14.7951 248.939 16.9708 235.59M11.7012 262.883C14.1665 258.042 16.5836 250.182 18.3544 236.026M14.0177 266.398C15.3533 256.118 17.5311 247.427 18.6574 232.596M16.4584 265.445C17.6211 255.308 19.7001 244.326 23.5906 232.138M16.0877 267.31C18.4943 252.563 22.3752 237.634 23.6374 230.456M18.9288 269.284C20.3754 254.736 23.993 242.079 26.1158 230.697M18.9754 270.369C22.0954 254.529 23.9768 244.317 27.0329 228.227M20.7153 271.839C23.5869 257.702 26.0843 242.327 29.2701 229.948M22.4488 272.446C24.7486 262.853 26.5993 253.843 29.855 230.008M22.6459 272.727C25.4046 255.061 28.7464 238.522 30.6127 229.041M25.2468 273.686C26.8119 261.154 30.8223 248.165 33.253 228.392M25.3391 275.263C28.8856 256.088 31.4922 238.813 35.9457 228.846M27.9167 274.57C31.9317 257.426 34.275 240.087 35.6158 229.985M28.6227 274.918C32.1136 260.749 33.0476 244.8 36.7667 229.109M29.4813 275.897C30.4646 264.394 31.4566 254.692 39.9457 228.962M30.5113 274.962C33.8318 259.44 37.1588 239.769 41.0221 227.881M32.9857 275.667C34.1025 262.6 37.2141 249.098 41.5796 230.303M35.8119 276.225C33.7215 266.161 36.7463 256.576 43.7139 228.915M34.8016 275.925C38.8299 262.069 40.4601 248.863 45.1099 229.783M37.3143 278.532C40.1392 266.2 41.7475 257.466 45.4036 231.21M39.1914 277.107C40.4577 264.262 44.4468 249.313 47.6161 219.839M38.9674 277.249C43.8203 254.651 47.5502 231.911 51.0691 216.153M41.5342 278.013C45.2811 262.161 47.3661 246.071 52.72 213.595M43.4169 277.222C44.475 258.711 50.0411 242.367 54.3764 210.985M44.0989 279.886C48.1337 253.211 54.5541 229.252 57.3483 211.195M45.0368 278.077C51.616 255.182 53.9561 228.586 57.5452 209.059M46.1566 278.667C50.0483 262.643 53.8506 243.006 58.9106 209.776M47.214 279.576C51.6287 260.37 54.9062 238.485 60.6513 208.139M50.4947 280.059C52.6885 258.603 57.3166 236.826 63.321 207.69M52.0911 280.373C54.2395 263.711 56.2044 243.053 63.3241 206.413M52.928 279.858C58.0877 257.253 61.6643 233.679 66.5671 207.497M54.3458 280.267C55.4153 259.78 61.1403 238.351 67.9992 207.788M54.72 281.332C60.5458 257.301 64.5548 234.503 68.0389 207.268M56.9852 281.107C62.6018 254.389 65.7571 228.557 71.2704 206.272M57.1806 283.649C61.8536 255.312 66.4171 227.484 71.5495 205.346M59.9894 283.62C62.1995 267.681 64.0423 252.466 73.1744 207.201M60.7809 283.304C64.3043 263.035 66.7288 242.563 76.2128 207.157M61.3855 284.734C67.1968 253.826 71.2198 226.358 75.7243 207.717M63.1458 285.098C68.1392 256.544 73.3891 228.741 77.0957 207.791M65.4874 283.904C68.5829 262.724 71.1561 244.6 78.9902 209.211M66.3225 284.417C69.2153 268.572 71.4832 252.13 80.1341 207.546M68.5948 285.185C71.5809 260.444 76.3764 236.025 81.3003 209.669M68.7232 283.918C75.9657 254.829 80.5308 226.607 81.9269 209.907M69.8365 287.304C74.7758 259.715 79.8756 231.437 82.5262 210.428M72.1714 285.815C77.7071 255.972 82.8003 225.232 85.1054 213.322M73.7468 285.376C76.9266 269.587 79.6801 254.248 87.1067 213.115M74.0986 287.702C78.1296 272.364 78.8737 256.843 87.3294 214.547M77.1402 286.962C80.363 257.702 87.4004 229.877 89.1356 214.862M77.2211 287.68C82.3607 262.435 86.6947 235.74 90.3975 215.867M78.1627 288.469C83.8121 263.612 89.1424 234.681 90.0441 217.769M81.7092 288.742C85.4939 266.953 86.3574 247.835 93.0612 221.084M85.0774 266.803C87.7724 250.198 91.588 232.1 93.4118 223.811M90.6729 248.113C90.6336 242.183 93.5775 237.708 94.578 225.647M12.8135 255.695C12.9043 252.077 12.2578 246.111 13.2377 238.576M12.2228 260.126C14.377 254.222 13.0232 248.953 15.2782 237.912M13.621 262.555C13.4196 257.551 14.7359 249.223 17.8761 234.664M13.6077 265.045C14.8385 256.548 18.1448 251.312 19.6744 233.579M16.0007 267.651C16.3273 255.959 18.8906 241.561 20.9351 232.394M17.2497 268.984C19.3151 257.7 20.6027 248.741 23.3131 231.201M16.9108 269.954C18.8981 255.773 22.3271 238.886 25.5549 231.082M18.9594 271.154C20.6036 253.92 23.3924 238.039 25.6948 229.78M20.958 269.495C21.4409 263.639 22.4485 255.801 25.2198 229.001M22.3667 272.129C24.996 261.975 25.1997 250.176 28.6931 227.561M23.8372 272.381C24.8343 255.547 27.1709 238.622 30.9997 228.974M23.358 272.463C27.4496 254.286 29.7028 238.668 30.3497 227.637M26.6898 274.36C28.1378 258.534 29.6654 241.599 32.6396 229.585M27.3759 274.402C29.5119 260.931 30.3521 246.231 33.5929 227.262M27.1624 274.601C31.4792 256.199 36.6787 239.249 37.379 229.079M29.2176 275.454C30.6399 263.518 31.9723 251.7 36.5586 229.014M30.3491 276.667C32.7922 262.567 35.7682 246.732 38.4404 229.115M34.5394 276.311C34.5129 265.368 34.9354 253.654 40.6994 229.285M33.1926 276.422C36.1818 259.539 37.9819 243.44 41.1524 229.744M33.9996 276.157C37.6908 264.865 38.4802 251.858 42.8774 228.498M36.9294 277.846C39.3258 261.682 41.5797 245.189 43.6124 228.833M39.2024 278.001C40.5608 263.254 42.5281 249.721 46.3872 230.128M39.1011 276.865C43.7122 257.749 48.7522 238.791 49.2666 218.078M42.5707 278.081C45.5842 264.287 47.2311 251.183 52.3576 216.533M42.37 277.532C44.7796 264.766 46.3235 248.245 54.8227 214.221M44.1433 277.268C46.1718 262.914 48.6057 248.853 56.3645 212.423M44.9586 280.737C49.9923 254.091 52.2872 232.496 56.181 212.453M46.945 277.847C51.1839 258.112 52.9821 237.299 57.4412 210.53M47.3221 280.063C49.0978 264.781 53.5943 250.261 60.219 209.779M48.8469 281.054C51.834 262.972 55.9346 246.795 61.701 207.157M51.7987 280.508C55.0393 255.239 60.3689 227.187 62.2561 207.618M51.7537 282.419C56.6364 258.492 61.3068 234.171 64.3726 208.026M52.4096 280.703C59.5789 254.345 63.6111 228.342 66.468 207.131M54.6947 280.888C57.5127 259.384 61.4656 236.514 66.6628 208.019M57.7736 282.399C61.2738 253.661 65.6439 224.49 68.6184 205.638M58.4608 283.279C60.2955 257.303 63.8132 231.078 69.3317 206.573M59.4168 282.189C64.3185 253.884 68.5015 226.105 72.6889 207.031M59.8304 284.115C63.9381 253.916 69.9289 222.847 73.7795 206.552M61.647 285.103C66.0086 260.475 68.5048 236.826 75.6155 206.774M62.4441 284.341C67.9853 260.217 71.2464 233.947 77.0808 206.845M65.5391 283.506C66.3156 265.487 71.5916 248.867 76.8072 207.016M65.9532 285.689C70.1172 268.329 72.0439 252.423 79.4758 207.713M68.0669 284.807C71.6875 262.345 75.9842 239.461 80.1801 208.026M68.4156 285.241C71.4035 265.136 74.8248 244.089 80.555 209.203M70.4102 286.231C73.4696 265.236 74.6486 245.732 84.2508 210.022M71.0985 286.223C73.7502 270.235 76.9827 255.214 83.6388 210.891M74.267 286.395C75.9325 267.207 78.9079 249.635 86.213 211.144M74.732 285.233C77.6429 258.713 81.9279 231.328 86.783 213.989M74.8926 287.624C80.4707 260.36 85.6109 233.21 89.2503 214.261M77.8098 285.977C80.2399 266.354 85.8144 245.562 88.1884 214.516M77.9002 286.981C82.2311 261.147 85.5057 237.851 90.7413 214.8M79.496 288.565C82.8031 269.3 86.7387 247.144 91.1514 217.209M87.1176 268.21C86.614 252.629 88.8504 237.749 91.4907 220.074M89.8528 247.899C90.6985 240.561 93.3737 236.373 92.9047 222.991M11.1347 243.237V243.237Z" stroke="url(#paint1_linear_1623_14210)" stroke-width="0.716393" stroke-linecap="round" stroke-linejoin="round"/>
<path d="M424.327 39.8432C415.111 29.895 414.332 26.4474 411.021 29.3117M424.327 39.8432V39.8432ZM407.903 28.817C407.819 20.1602 392.786 22.3072 393.331 24.9818M388.527 24.9449C383.804 27.9715 379.222 23.6156 364.374 24.6328M369.152 28.817C357.919 32.995 356.419 32.4648 356.117 43.2886M350.64 36.197C347.729 39.8701 351.039 50.7324 341.963 44.8633M337.823 49.5002C336.941 51.1402 338.459 41.0534 336.362 41.2056M333.217 39.8432C329.835 36.2099 304.848 29.865 296.579 27.2742M297.417 24.9499C284.439 22.4799 272.742 24.4012 263.12 37.8349M261.617 39.8432C248.357 54.9448 250.133 59.3123 244.234 75.0815M246.789 75.799C246.146 90.6393 252.949 102.486 266.104 116.56M263.543 115.661C288.148 136.637 314.111 167.413 338.336 193.43M347.045 189.563C364.801 178.467 382.361 153.38 427.86 107.787M424.327 111.755C434.197 105.853 427.865 97.7319 432.939 93.0659M435.306 95.259C434.934 86.1623 442.026 80.4442 438.671 78.979M439.161 75.799C435.716 69.1768 435.705 57.3056 433.674 59.8766M435.306 56.3389C427.513 52.4184 429.357 40.1927 424.113 44.0259" stroke="white" stroke-width="1.52911" stroke-linecap="round" stroke-linejoin="round"/>
<path opacity="0.74" d="M188.944 141.886C188.442 139.541 189.405 136.084 193.964 136.049M186.439 142.498C188.327 138.073 193.113 135.089 197.028 132.329M184.555 148.373C188.394 143.257 192.827 137.916 198.21 130.666M183.317 144.584C190.872 145.309 190.79 139.063 198.795 130.808M187.917 146.029C190.403 145.823 194.986 142.946 198.36 129.481M185.367 152.632C193.343 145.903 195.975 135.35 198.413 130.203M184.892 151.647C187.156 146.105 192.204 139.811 203.873 129M187.591 154.906C192.788 145.214 196.892 137.348 202.115 130.58M185.329 150.423C191.546 145.072 198.223 140.101 201.573 129.21M182.932 151.575C189.783 146.847 198.081 139.828 202.461 130.283M188.084 153.179C190.849 146.347 203.777 135.275 205.067 132.516M186.045 158.397C195.112 148.935 199.794 143.32 207.376 134.44M186.095 158.803C192.69 152.944 195.244 146.084 208.225 131.979M183.301 160.471C193.859 151.24 199.642 139.833 210.958 131.309M183.688 163.247C190.027 153.144 197.891 145.265 212.707 132.374M183.84 162.815C198.278 150.508 202.319 137.918 210.043 132.244M187.678 161.288C195.144 152.715 209.105 139.384 213.115 130.548M186.049 162.65C192.455 152.771 201.405 145.382 214.642 135.916M184.213 166.814C193.241 155.662 197.234 149.892 210.592 135.559M184.967 169.025C192.388 156.671 196.965 150.971 212.684 133.759M183.2 164.759C197.771 152.885 209.171 143.042 212.343 134.498M188.54 166.106C192.861 159.577 200.642 149.467 213.549 135.493M183.97 169.145C194.034 156.12 207.776 143.348 216.857 137.378M186.304 172.18C192.62 162.999 198.632 152.397 214.642 132.238M182.815 174.039C197.507 158.19 209.326 142.689 217.42 133.979M188.385 175.473C192.287 162.044 202.687 157.3 217.261 138.747M185.347 172.533C191.573 163.62 197.727 155.659 220.457 133.923M183.832 172.581C195.553 159.386 210.745 146.861 218.963 139.225M184.466 177.699C197.092 163.169 208.048 148.133 217.346 137.097M186.926 175.531C198.909 168.504 206.443 155.193 222.433 139.377M188.493 177.235C198.239 166.235 209.566 146.729 221.193 140.065M182.842 182.786C195.633 169.096 207.478 152.044 221.166 139.403M187.461 180.276C194.842 171.375 204.554 154.924 218.868 139.739M184.775 180.178C193.691 172.171 207.84 158.419 221.953 140.476M183.596 182.021C196.209 173.837 202.124 163.621 219.897 141.872M186.753 183.607C195.402 169.173 205.951 159.422 223.531 142.369M186.57 185.329C198.652 167.92 212.694 157.797 223.998 141.13M188.182 189.623C194.297 172.896 207.32 164.254 219.714 142.85M188.049 189.944C191.873 179.702 202.71 170.157 222.325 145.553M186.33 190.002C192.681 179.754 201.285 169.885 220.421 147.64M183.178 189.984C199.721 177.126 210.7 161.997 225.042 146.129M184.556 190.053C192.213 184.121 201.97 174.229 223.379 149.291M185.982 191.792C194.88 178.903 207.596 166.35 226.797 148.41M184.899 195.922C195.018 181.85 209.484 167.915 223.097 150.989M187.905 194.982C195.081 188.871 206.825 177.141 222.681 152.913M182.789 197.261C195.844 188.553 207.746 171.879 221.799 152.582M187.502 198.265C196.865 185.118 205.662 174.216 224.186 151.372M184.779 197.537C198.177 183.986 208.466 170.146 226.2 154.688M187.589 201.815C202.023 180.719 217.695 166.27 225.548 155.801M186.195 203.678C195.74 183.555 213.254 169.313 226.341 156.73M182.518 205.52C195.273 190.07 206.94 178.762 227.465 155.25M186.878 205.167C191.671 194.664 202.838 187.19 222.967 161.502M183.277 206.166C194.566 194.583 201.969 185.663 222.774 158.026M184.264 205.361C198.362 192.539 208.06 178.477 227.064 159.343M186.663 207.02C201.468 192.059 212.843 173.726 224.241 163.443M187.996 206.571C199.376 192.827 214.066 176.451 222.045 160.294M187.2 210.335C195.483 196.09 203.217 187.555 222.84 161.684M187.263 212.698C202.763 190.312 213.229 172.209 225.859 168.583M184.983 211.835C202.965 194.71 216.09 175.268 226.74 166.99M182.835 214.487C194.76 201.795 205.007 188.386 222.204 166.425M183.18 215.553C194.422 203.434 199.956 195.419 224.981 171.672M185.478 213.817C196.186 203.952 206.409 189.904 227.108 167.294M187.2 213.643C197.378 205.097 209.601 185.213 224.959 170.928M184.321 220.492C193.703 207.213 205.93 190.821 222.073 174.721M183.073 220.091C195.543 206.357 204.04 198.21 227.372 176.416M183.775 221.599C198.33 201.486 215.165 188.388 225.683 172.93M183.636 219.815C202.647 207.951 213.55 187.539 227.44 174.815M185.336 224.186C197.344 208.341 210.999 188.979 227.4 177.932M183.163 225.263C199.081 210.66 209.025 195.878 222.136 177.006M184.737 221.788C202.994 206.046 215.558 193.922 224.964 178.615M186.54 225.71C197.099 211.594 212.681 196.306 227.238 182.411M183.616 228.187C198.462 213.032 207.224 202.303 223.516 180.617M183.007 225.086C196.726 216.741 206.434 207.733 222.557 181.867M188.34 228.326C198.289 213.148 214.867 196.594 226.789 181.446M183.271 229.143C194.057 220.267 204.878 209.137 222.469 183.093M183.021 229.084C196.867 222.524 202.987 209.689 222.159 188.767M183.043 234.97C191.546 223.654 202.719 211.71 223.858 184.772M185.205 236.609C194.753 222.876 208.66 209.408 222.394 189.865M185.352 237.854C195.277 216.954 211.245 202.746 227.261 192.31M187.68 233.658C198.583 221.776 212.788 205.962 223.324 193.376M185.644 234.859C199.221 221.301 209.312 212.784 222.556 191.814M186.332 240.55C195.95 228.168 207.98 214.078 226.89 191.223M187.777 239.836C198.034 228.386 205.071 218.416 225.783 194.612M187.325 240.766C193.734 227.073 205.632 216.221 223.467 196.74M182.563 244.355C194.187 233.372 207.769 215.699 223.882 195.509M187.256 244.986C200.779 227.766 214.154 211.278 223.103 200.762M188.674 241.328C193.158 232.016 205.788 222.908 223.79 201.245M183.866 243.3C191.466 237.338 202.978 224.687 223.8 197.622M183.76 248.846C196.623 239.225 201.297 231.286 224.716 202.652M185.715 249.221C201.686 232.625 217.054 216.349 222.373 201.671M186.261 249.763C198.272 232.908 214.3 214.398 222.218 202.621M183.11 252.815C200.747 235.724 212.605 221.347 221.616 204.306M186.391 253.547C199.862 235.176 208.326 226.178 222.801 209.212M183.534 250.798C194.005 236.577 211.514 225.311 224.414 208.71M185.748 251.216C200.804 239.506 210.491 219.57 224.843 209.92M183.724 256.028C200.992 239.643 213.416 221.774 224.962 211.271M182.971 258.623C195.252 248.035 203.849 237.845 223.827 211.323M182.929 260.328C198.457 243.266 209.892 225.766 225.066 215.306M183.474 257.47C196.876 243.932 209.13 236.043 223.953 217.239M186.183 263.105C198.055 249.718 209.123 235.521 221.856 213.073M184.68 264.448C197.436 246.909 215.689 230.392 226.969 218.9M187.283 259.628C202.747 247.629 217.603 226.63 226.676 215.26M184.805 263.951C192.222 256.306 203.939 247.158 225.434 219.989M188.974 264.667C194.208 254.21 201.061 241.876 226.434 217.544M186.056 267.614C201.126 248.02 213.665 233.257 224.862 222.866M184.657 267.121C202.946 251.737 217.275 229.603 226.375 223.514M184.185 267.276C198.998 249.904 215.177 235.706 226.458 221.829M185.889 268.043C194.64 262.169 202.001 252.709 222.778 223.49M186.917 270.486C199.566 256.651 210.37 245.66 223.289 226.928M190.056 269.23C197.287 256.105 216.317 241.453 224.097 230.245M186.152 274.774C193.738 264.205 204.638 252.049 226.159 228.727M189.163 273.676C196.086 261.59 208.21 251.861 222.667 232.017M188.419 272.988C198.34 262.776 211.807 247.207 222.972 232.582M186.912 274.161C197.132 261.552 211.162 251.573 226.931 234.238M189.049 277.054C194.655 270.854 206.628 256.577 222.091 234.826M186.983 274.89C198.661 265.146 206.192 253.644 222.659 232.394M186.572 279.859C197.403 263.684 206.67 254.318 227.116 235.205M187.777 280.453C202.376 265.847 215.075 250.386 226.716 235.999M191.445 279.103C204.996 266.494 212.747 251.051 223.584 235.562M191.225 281.1C205.23 263.572 213.81 254.526 226.149 241.643M190.792 278.636C203.297 263.838 216.834 250.55 228.434 239.969M189.276 280.421C204.164 266.313 215.54 256.545 227.262 239.795M188.822 283.124C200.697 269.206 213.516 258.846 226.605 243.733M188.68 284.082C202.732 270.562 216.362 254.507 226.921 243.798M190.993 283.313C196.748 272.153 204.652 267.697 225.713 243.885M193.335 286.964C199.633 277.498 207.497 266.024 228.453 244.362M191.021 285.461C202.749 274.105 208.749 264.655 230.127 243.587M248.721 221.316C250.488 216.259 254.787 214.253 256.03 213.865M190.434 287.705C199.2 276.73 209.374 267.528 228.945 242.09M250.872 220.053C253.603 216.726 257.887 215.131 257.955 211.043M197.049 285.642C203.38 278.62 205.91 268.401 232.121 245.245M246.74 224.418C250.295 216.199 256.995 214.907 257.989 210.177M194.421 289.763C206.906 272.12 215.397 262.777 227.603 248.137M248.912 226.957C253.458 218.046 252.473 218.786 259.8 208.364M196.736 284.495C210.925 270.168 225.689 253.205 231.327 248.091M248.722 224.398C252.085 219.952 258.602 217.888 262.44 209.609M194.95 289.239C202.313 280.363 213.924 266.753 231.072 249.189M251.245 227.48C255.678 223.966 257.821 214.692 262.465 214.229M193.544 290.764C208.865 274.714 218.702 260.543 229.144 246.255M250.876 225.075C253.475 223.383 259.238 220.542 264.385 211.667M195.665 287.55C206.499 280.25 214.067 270.699 229.592 248.037M246.497 227.173C252.965 223.26 261.197 215.568 264.019 211.713M193.842 291.701C204.577 282.827 214.346 272.364 230.241 247.899M251.362 228.903C256.255 223.716 256.332 217.78 263.341 210.333M197.486 293.613C206.804 279.995 216.705 265.643 229.252 252.656M247.244 229.965C254.896 221.933 259.898 216.01 264.988 208.031M196.594 289.83C205.41 281.853 216.113 270.631 230.626 251.17M249.37 232.633C257.847 221.687 262.737 216.034 264.497 209.365M195.575 290.664C208.31 280.357 220.819 268.303 231.326 250.553M252.008 233.136C253.12 226.492 262.515 222.658 268.557 212.597M196.886 289.739C209.944 283.419 217.034 267.51 230.853 255.288M253.324 232.689C254.128 230.2 261.615 219.139 268.409 210.657M200.455 291.107C210.086 282.96 218.755 274.294 234.952 252.31M250.215 234.502C256.973 225.444 261.048 221.418 267.425 213.658M201.611 293.094C213.064 283.308 223.875 268.986 232.151 254.138M253.61 236.714C259.236 227.815 265.298 218.193 273.133 214.22M202.544 295.156C208.431 286.793 217.823 279.859 236.148 255.818M249.308 237.606C260.046 224.881 265.492 221.168 270.709 213.083M199.776 296.515C206.162 288.507 219.03 274.717 236.265 254.809M253.907 237.997C259.92 229.656 264.985 222.636 269.397 216.028M203.649 294.931C209.447 281.698 222.521 272.289 238.535 255.106M251.153 234.924C259.761 232.613 265.762 223.604 270.232 216.33M201.601 293.712C208.332 285.034 218.495 274.995 237.926 255.635M253.534 240.103C257.679 229.649 265.833 222.324 273.02 214.985M200.376 295.027C210.086 285.323 218.253 275.521 238.581 254.549M255.464 237.287C258.341 234.848 265.52 227.006 274.137 213.058M199.52 299.187C212.584 285.295 221.94 276.388 235.695 257.643M255.785 240.572C261.363 233.552 266.513 220.665 277.065 217.197M200.296 298.678C215.39 289.559 224.559 276.614 240.676 258.735M253.819 240.339C261.572 231.62 269.237 218.683 275.101 214.698M202.987 297.246C215.183 284.815 223.976 271.646 236.603 259.328M254.355 239.374C263.8 229.373 271.097 223.214 275.09 217.517M205.112 301.278C217.022 281.847 232.263 269.548 237.996 255.594M253.066 242.324C262.652 235.401 264.962 229.873 273.814 213.299M202.382 296.241C216.862 285.547 226.883 275.849 242.603 261.422M255.951 239.554C260.596 232.129 271.975 223.965 278.173 217.467M205.782 299.958C209.789 292.01 217.957 282.241 243.418 261.064M254.132 243.161C264.371 229.147 271.93 222.311 276.85 214.844M207.217 300.138C209.559 289.855 216.557 280.727 238.08 259.79M257.549 240.09C264.151 230.441 271.933 220.491 275.736 215.335M205.568 302.345C216.001 285.808 230.221 271.827 241.909 258.244M258.142 241.72C260.199 233.65 269.477 230.904 279.789 220.833M209.368 304.194C215.948 288.237 232.629 271.221 243.647 262.273M257.53 240.028C261.668 234.215 270.15 231.836 281.234 215.863M208.21 303.715C215.608 295.343 219.127 286.205 244.54 263.655M257.168 243.15C268.922 232.107 276.539 226.731 276.66 216.245M209.213 304.548C219.171 291.344 227.235 280.378 245.805 259.338M258.084 245.025C265.663 235.417 273.858 230.316 277.126 217.726M207.609 304.135C219.09 290.248 235.568 268.603 241.86 264.545M258.081 243.438C270.211 237.322 274.017 227.537 278.235 218.272M208.128 306.426C223.689 289.357 234.655 269.413 243.066 265.358M259.756 243.127C267.808 237.114 277.157 225.061 281.353 218.785M211.786 305.382C217.362 297.279 224.728 285.932 243.535 265.803M261.179 245.937C270.27 236.678 276.696 231.312 279.189 224.053M210.716 303.845C220.901 291.556 233.098 277.934 243.824 265.074M259.886 247.954C270.146 237.201 275.419 230.53 283.774 221.935M211.833 305.149C221.518 290.99 233.441 275.814 243.151 263.616M263.079 245.948C266.193 240.647 272.62 235.647 280.342 221.111M209.304 306.102C221.546 297.249 226.505 284.561 246.399 267.622M259.814 244.814C265.84 242.214 273.5 238.246 283.681 225.191M210.136 308.353C223.989 293.232 234.607 275.991 245.501 267.49M261.836 246.676C269.252 242.59 271.138 233.603 281.511 220.906M210.049 306.122C218.807 294.363 227.619 288.047 246.295 268.547M260.723 245.653C271.41 240.609 277.285 232.243 281.795 227.055M209.905 307.273C219.911 294.323 235.252 283.278 250.885 266.611M265.721 247.732C268.933 238.6 275.739 235.195 287.575 225.277M210.419 308.316C225.75 293.629 238.302 281.106 248.451 265.593M262.417 248.557C269.784 241.737 276.22 237.939 286.103 225.049M212.424 309.139C226.394 297.446 234.055 282.517 251.292 267.329M267.427 248.09C273.479 239.752 279.239 234.671 283.454 226.055M215.765 309.301C222.483 297.84 236.378 285.791 249.074 267.145M268.093 247.778C271.599 244.332 279.314 232.305 283.749 229.087M212.336 312.932C228.371 297.233 241.151 279.045 247.892 266.525M266.972 250.784C268.222 247.506 277.645 240.367 286.467 228.82M215.357 311.83C232.11 294.364 243.265 276.975 248.4 268.275M264.806 253.817C275.095 242.288 285.767 234.452 289.629 225.912M216.067 311.554C226.573 297.545 245.682 279.63 249.622 268.87M264.146 250.021C276.964 247.319 280.505 238.074 288.116 227.71M215.571 309.057C228.793 297.443 244.834 278.479 251.774 267.968M270.092 253.066C278.475 244.601 281.271 233.117 290.164 226.596M219.864 313.623C225.376 298.246 235.009 289.887 250.997 268.546M270.688 253.619C270.525 247.348 276.614 245.122 289.093 229.368M218.234 311.176C224.103 303.901 230.815 295.458 253.777 270.848M270.14 252.764C275.26 247.897 280.623 239.98 287.984 231.667M220.916 315.895C226.463 305.321 233.93 292.991 253.964 273.724M268.71 255.078C279.048 242.994 281.922 235.088 291.668 228.07M216.565 313.911C235.074 300.292 245.583 283.947 257.058 273.272M268.656 256.209C278.066 247.505 287.232 240.114 290.529 231.061M217.727 315.305C225.153 306.588 235.085 293.238 257.87 274.452M267.912 258.09C277.261 246.98 282.8 243.938 289.065 232.821M219.647 314.608C231.53 300.311 240.76 288.052 253.597 273.901M271.506 253.4C277.792 246.988 278.796 243.771 291.086 234.221M221.847 313.964C230.442 304.131 244.412 291.051 255.578 275.488M269.636 257.144C278.651 247.561 281.522 241.355 291.034 234.184M222.64 313.198C230.165 302.349 240.089 295.67 258.607 273.614M271.851 257.12C276.576 253.201 285.568 245.022 291.484 231.853M218.736 315.443C230.986 299.93 244.799 286.808 258.283 276.881M269.483 260.675C280.748 249.197 286.218 242.238 292.209 232.341M221.359 317.244C238.684 298.465 251.794 288.775 259.962 278.287M271.811 259.977C275.931 254.01 283.827 249.627 295.953 236.718M220.858 317.242C229.086 309.652 240.775 300.082 259.421 272.998M273.432 259.293C277.876 252.03 281.224 250.38 292.408 234.944M224.214 319.105C232.713 307.182 242.083 293.401 260.016 279.185M276.185 259.483C276.825 254.874 284.466 246.265 294.565 237.316M221.835 321.249C234.435 307.742 244.432 293.428 261.183 275.286M273.831 262.426C277.58 252.516 287.685 249.821 293.6 237.546M224.264 316.433C236.115 312.271 243.338 302.053 259.372 275.264M278.094 258.468C284.167 249.144 291.976 241.348 296.68 235.673M226.334 319.93C234.435 303.223 245.873 293.487 263.026 279.422M276.816 261.137C284.137 252.348 290.064 248.643 298.037 236.504M226.584 319.376C239.457 304.1 253.871 287.198 261.516 277.498M277.743 262.917C283.52 252.985 288.068 247.731 296.331 235.852M224.568 319.51C239.483 307.317 248.969 297.092 259.453 276.841M278.071 263.336C287.549 251.838 291.596 241.808 295.03 235.346M225.788 318.39C233.833 310.068 245.797 297.259 264.716 277.796M280.474 264.232C287.912 253.352 293.854 245.488 298.39 236.679M228.535 320.566C235.522 312.47 247.911 296.265 262.309 282.401M275.578 265.761C284.479 253.044 295.286 243.27 295.894 239.425M228.023 320.893C234.957 310.652 244.614 297.462 265.037 282.716M277.825 266.758C280.871 259.841 287.336 251.333 299.677 239.656M230.452 325.503C241.025 314.045 248.483 302.462 261.649 280.326M277.2 264.782C282.223 256.307 294.611 245.623 298.227 241.909M230.685 320.728C240.153 311.375 249.322 297.358 263.714 283.723M275.649 268.421C285.929 256.593 293.535 247.331 300.424 240.861M228.272 321.86C246.134 310.161 258.042 290.897 263.475 280.221M276.932 265.167C283.415 257.858 292.124 257.731 303.187 239.76M229.138 323.895C243.374 308.752 249.651 298.785 269.394 278.859M278.573 267.431C283.968 260.956 289.054 258.15 300.202 239.449M232.084 325.681C242.373 314.552 249.086 298.937 267.987 284.24M276.768 267.696C285.617 260.794 288.593 257.63 302.738 244.555M228.676 324.115C240.925 315.041 247.75 308.941 269.704 281.73M278.139 269.444C288.335 263.681 293.246 255.402 304.499 239.57M228.33 328.263C239.14 314.549 249.214 305.773 271.163 283.835M278.342 268.559C287.278 260.727 296.682 249.834 304.661 240.192M229.332 324.768C242.613 308.416 262.694 295.884 272.214 279.264M278.506 274.037C289.07 262.454 299.157 253.973 304.161 243.988M235.068 325.339C251.237 309.817 262.782 292.42 274.29 280.254M280.288 274.315C283.507 265.268 289.967 262.362 302.976 244.744M234.008 326.742C261.642 300.349 284.948 267.827 307.526 242.433M234.238 326.481C254.318 298.241 282.169 271.198 305.624 244.743M231.212 325.835C254.083 302.242 274.696 281.922 305.13 247.106M231.931 331.368C264.085 297.822 291.46 269.051 305.642 245.908M233.577 328.909C258.821 300.975 279.818 279.207 307.806 249.39M235.615 327.957C256.41 306.242 279.469 276.808 304.955 247.389M234.062 333.087C254.699 310.394 270.491 293.266 310.2 250.302M237.78 330.069C255.944 307.843 281.766 279.396 311.014 246.803M235.017 329.124C263.478 302.083 290.719 269.961 308.365 250.543M235.763 332.979C252.035 310.151 274.229 286.297 308.665 246.947M236.932 332.292C251.331 317.166 270.2 297.776 310.617 252.006M236.603 334.646C257.347 311.386 281.302 288.15 311.41 251.468M239.168 335.886C256.8 315.669 270.378 296.919 310.428 254.445M239.514 336.94C253.613 314.698 273.229 296.255 311.408 253.271M242.682 333.535C264.343 305.355 291.255 274.382 314.376 250.875M241.229 334.977C260.903 313.364 281.479 291.047 313.977 252.877M242.214 333.575C266.669 307.588 289.936 279.691 310.301 252.804M243.459 338.307C262.826 310.98 288.867 286.546 312.694 253.078M245.254 339.495C262.584 311.373 285.439 285.091 313.273 254.53M240.615 337.357C263.406 317.286 283.218 295.067 313.703 253.789M240.954 335.438C268.618 308.079 292.635 278.43 312.039 257.094M242.09 338.401C272.317 304.386 302.307 276.174 316.745 260.236M244.459 336.242C265.274 315.435 289.515 290.106 314.513 256.174M242.509 342.492C271.67 309.061 296.86 281.274 318.59 258.942M243.568 339.447C276.162 310.253 303.131 278.317 318.192 261.664M245.005 340.918C268.284 314.982 296.999 284.361 316.578 262.354M249.597 339.193C262.151 321.812 278.87 299.307 318.407 259.861M245.718 341.689C267.259 316.112 293.489 292.294 317.696 259.896M250.332 340.408C272.667 310.361 304.421 279.408 315.552 261.814M248.85 344.819C266.189 320.241 284.154 300.154 315.681 262.565M249.279 346.012C261.981 328.487 277.736 308.785 321.478 265.853M252.089 342.576C271.61 319.382 291.128 296.156 321.158 267.155M251.647 346.821C269.493 322.977 294.487 295.26 320.338 263.032M248.413 347.16C269.873 321.787 288.277 306.463 322.131 266.649M253.695 344.934C275.908 318.766 297.134 288.582 320.734 266.248M253.89 349.293C264.828 326.707 282.205 311.728 322.213 266.141M252.214 349.076C275.789 316.034 298.642 292.782 323.046 268.997M253.163 349.598C270.641 328.767 283.131 310.984 321.845 269.834M251.859 349.757C279.747 320.218 301.732 290.501 324.46 266.738M256.752 348.755C274.992 322.597 300.677 293.917 324.237 272.155M258.31 346.372C276.031 324.323 302.578 295.657 321.253 268.42M253.527 348.836C277.459 323.075 298.922 303.314 324.352 273.452M254.059 347.516C273.503 331.786 287.79 317.613 326.192 270.518M254.87 348.272C281.826 320.157 304.016 292.061 324.922 270.744M258.558 347.331C273.782 330.843 287.484 314.155 321.126 277.163M260.369 347.4C278.215 325.919 299.334 297.74 324.625 277.016M258.407 347.09C280.482 327.819 300.757 302.497 325.502 278.717M259.513 349.856C278.251 333.946 290.104 316.445 324.219 273.759M258.822 349.24C277.931 332.426 299.312 310.819 323.743 275.532M262.558 348.617C277.914 334.035 288.126 324.922 322.876 281.376M262.239 350.046C284.544 326.528 305.141 301.454 325.605 280.813M261.472 352.583C277.821 333.563 288.625 320.37 327.429 279.485M266.416 350.997C285.538 332.452 303.977 308.586 326.484 279.029M267.671 352.632C277.188 335.565 289.726 318.276 327.595 281.664M267.889 355.394C289.741 325.786 311.212 303.129 327.296 280.551M268.639 355.272C283.709 327.998 307.378 303.717 324.81 283.385M265.147 354.339C278.447 333.558 296.701 319.885 327.116 284.778M270.854 350.329C286.037 331.879 306.402 311.744 329.821 287.326M270.223 353.955C284.175 336.856 296.137 325.736 324.059 284.461M269.284 353.364C292.914 327.997 312.224 302.627 326.93 286.205M274.141 355.538C290.317 332.691 304.81 310.602 323.481 287.039M270.859 350.425C292.032 330.741 314.274 305.919 323.775 288.376M272.932 350.723C294.904 332.075 316.139 305.699 327.322 292.398M275.49 350.447C291.294 335.835 310.096 312.792 327.825 291.303M277.94 351.284C287.844 339.206 301.896 320.469 325.343 291.726M275.834 355.416C287.73 336.322 304.319 318.776 327.487 297.085M275.479 350.201C292.107 331.921 312.95 315.693 323.948 294.63M279.128 350.379C291.763 339.92 296.995 328.847 325.545 296.287M282.088 351.97C291.796 339.912 303.258 322.052 327.12 300.989M279.514 355.47C291.028 340.132 298.794 329.395 325.257 301.169M281.37 354.068C292.479 335.705 306.995 318.198 326.001 301.726M284.444 352.899C298.486 338.265 312.427 315.011 326.037 303.24M282.762 350.729C298.908 335.008 314.773 312.927 325.586 302.228M282.343 351.592C300.527 336.185 314.924 318.152 328.302 303.012M285.1 350.193C301.303 338.862 311.291 323.371 326.591 304.97M284.237 349.7C304.126 334.351 316.832 313.232 328.218 304.204M286.679 353.042C296.534 336.772 311.185 326.092 327.185 309.757M286.928 351.887C301.577 337.437 316.824 317.577 323.98 306.35M289.29 353.396C299.849 339.748 312.007 328.121 329.318 307.936M291.193 352.493C296.759 345.975 303.799 332.52 329.275 313.409M289.397 350.561C301.86 341.003 310.255 331.773 328.464 311.889M292.125 351.935C301.065 338.961 313.594 333.948 329.302 313.976M292.081 353.319C307.729 335.902 316.328 323.443 323.707 312.135M294.739 355.358C305.308 339.467 314.8 327.494 328.132 318.071M294.359 350.259C307.275 340.411 317.795 327.812 327.063 315.84M296.979 352.394C301.998 343.313 307.207 338.103 324.282 317.894M296.281 350.061C306.108 341.84 314.811 332.511 324.078 316.992M299.555 350.254C311.075 341.356 315.641 333.73 326.135 318.642M298.383 350.348C311.476 344.164 319.611 332.663 327.813 319.92M298.058 354.778C310.581 344.391 313.06 335.577 329.457 320.561M303.575 349.586C311.928 342.1 319.649 334.644 325.698 325.997M306.296 354.069C310.072 339.806 319.817 333.242 327.497 328.333M304.814 354.232C309.55 344.418 317.221 340.977 323.484 329.428M304.045 351.846C310.636 345.724 319.275 337.983 325.694 329.484M309.539 354.606C315.545 344.379 321.019 334.626 328.771 329.286M307.521 351.421C313.055 347.159 316.871 339.108 328.864 328.585M308.011 354.252C314.644 347.431 320.064 341.228 327.406 331.537M312.517 349.746C319.456 340.692 324.641 338.645 327.441 330.96M313.877 353.882C316.294 347.618 323.912 335.39 325.404 336.963M313.124 352.886C318.833 350.318 318.503 345.262 327.208 338.889M317.509 349.291C321.281 346.976 321.498 343.934 323.976 338.518M320.102 344.742C320.034 343.973 321.055 343.86 322.947 340.555M184.751 146.789C190.313 139.179 191.619 136.359 194.864 135.366M186.496 149.616C186.566 144.296 189.329 138.302 197.525 135.167M188.623 144.239C188.567 141.603 195.244 138.492 197.631 136.074M187.507 146.198C193.254 145.581 193.862 135.677 199.414 132.488M183.53 150.087C193.031 141.29 195 141.096 201.358 131.139M184.52 148.188C192.544 147.15 192.725 140.677 203.584 130.245M184.172 149.362C194.1 147.112 195.061 137.444 204.265 132.835M185.81 152.268C192.721 147.75 193.177 145.958 205.353 134.343M186.353 155.125C192.377 149.2 196.024 146.042 203.314 134.255M184 158.158C188.953 151.404 195.128 144.371 204.308 129.223M188.281 156.825C194.58 151.389 198.503 142.743 205.639 130.628M186.326 160.062C195.7 149.494 205.037 139.651 209.007 134.352M184.121 159.603C190.928 150.381 203.904 140.866 210.821 132.727M188.176 162.307C190.637 154.14 197.853 145.247 208.183 130.303M188.752 163.44C192.517 148.827 201.964 138.982 207.597 131.004M187.461 164.805C189.235 151.739 200.16 144.292 211.581 134.737M188.842 166.343C195.011 154.061 202.667 145.197 208.456 133.107M187.86 164.405C191.041 155.967 201.137 145.019 214.827 130.211M185.305 168.135C192.201 157.567 201.033 142.578 210.546 130.899M183.289 168.792C190.315 157.247 198.887 147.767 214.193 135.265M187.851 166.866C195.246 156.22 208.081 145.581 214.415 136.275M187.334 171.96C195.356 161.527 198.541 152.132 216.571 137.168M184.837 168.057C198.552 158.418 208.669 143.981 215.232 133.366M185.011 174.921C190.04 167.188 198.708 157.023 218.974 135.592M182.804 174.986C193.886 164.04 205.441 151.163 219.241 137.993M185.845 174.747C192.089 163.445 202.126 154.443 217.15 133.563M185.473 176.681C197.72 163.139 206.359 153.865 220.595 137.995M183.851 177.281C199.63 165.263 207.507 147.635 219.828 134.54M182.954 177.799C201.692 163.243 213.157 147.612 221.948 140.325M188.22 181.097C193.257 171.393 202.084 162.73 219.001 137.82M186.727 183.263C196.782 167.928 208.411 155.907 220.592 136.532M183.075 179.797C199.099 168.839 207.755 152.199 221.709 140.847M188.08 183.557C191.479 169.667 202.177 163.595 221.028 139.848M188.762 185.583C202.722 165.545 214.763 148.782 222.218 139.2M186.809 182.465C193.893 170.996 206.099 159.14 224.558 139.876M184.077 188.691C195.773 175.702 204.503 162.464 223.036 140.499M186.033 189.298C197.843 174.825 210.725 156.377 224.896 146.323M186.975 185.982C193.816 180.651 199.928 168.876 221.94 147.274M184.218 188.985C193.587 174.05 206.329 164.519 221.172 147.214M187.376 190.391C202.661 174.749 212.721 158.344 225.27 145.92M187.732 189.753C195.644 176.581 209.945 165.703 221.53 147.28M186.443 192.241C196.11 179.832 206.5 173.447 225.354 149.767M183.87 194.395C199.536 180.046 209.652 168.983 226.02 149.82M185.769 196.429C195.675 184.806 209.897 170.314 226.618 146.988M186.003 197.126C197.958 185.196 208.14 172.802 227.452 151.984M186.386 197.379C192.321 187.518 200.557 175.53 227.166 153.787M184.486 200.893C201.531 182.914 214.362 164.552 225.659 150.096M186.481 202.207C193.093 188.731 202.096 176.999 226.69 153.775M182.706 199.2C194.559 190.898 202.184 179.465 225.949 153.024M186.398 204.788C192.18 193.154 205.8 178.603 225.169 154.439M187.774 201.155C197.226 187.172 209.912 177.817 223.957 158.45M184.451 204.1C199.077 187.784 217.916 171.254 227.341 156.248M183.259 202.73C198.876 189.09 216.566 168.592 225.024 158.436M187.346 204.779C202.288 186.46 213.974 172.864 223.055 163.698M185.384 206.255C198.014 198.49 207.367 181.151 223.983 161.62M186.327 209.846C198.913 198.148 206.668 180.747 224.19 164.366M185.272 207.953C193.848 198.768 201.422 186.506 226.841 163.543M188.295 212.732C196.215 199.884 205.649 188.552 227.589 168.077M185.868 210.073C194.996 200.291 202.197 193.568 222.266 165.768M187.359 214.971C194.652 199.216 207.715 188.867 223.813 168.589M186.118 217.993C195.555 203.89 203.407 190.762 226.405 166.459M185.009 218.812C195.866 200.537 213.912 183.729 224.42 168.419M184.352 220.233C193.305 205.799 200.361 199.352 227.856 170.172M184.196 217.058C199.06 206.497 209.986 190.29 222.164 172.78M186.655 216.773C195.368 203.593 211.029 193.908 225.81 171.337M186.605 218.778C195.364 208.39 207.86 194.947 222.615 176.213M186.708 223.858C199.473 205.778 209.319 194.554 223.589 178.022M186.636 220.995C198.858 208.435 208.761 199.314 222.193 174.257M182.564 224.039C195.056 216.241 201.132 205.551 225.403 181.033M185.072 226.587C195.073 214.043 200.647 208.28 224.96 178.878M186.488 229.185C197.617 214.194 207.363 205.027 225.2 177.337M182.931 227.858C201.195 214.496 212.345 194.542 225.99 179.005M185.138 227.412C196.534 216.197 202.711 205.532 226.462 181.817M187.119 232.181C195.639 219.898 211.538 207.018 227.006 186.575M183.261 231.552C194.298 222.396 203.915 205.971 223.481 185.985M184.315 235.667C193.507 222.809 203.681 214.952 227.304 183.316M185.163 232.908C195.865 223.051 207.321 204.551 226.355 185.821M183.913 235.801C194.611 220.241 208.803 207.905 224.025 190.062M184.895 238.82C199.976 220.633 213.106 203.15 222.743 193.011M187.031 239.393C196.755 222.623 210.696 210.513 227.029 193.97M182.469 239.192C199.285 219.977 215.273 202.012 222.573 191.624M186.428 239.33C196.368 229.177 200.051 222.135 225.436 195.269M184.491 243.6C195.102 226.385 203.427 216.494 226.882 194.218M185.908 241.859C198.207 227.481 209.909 209.186 222.85 197.262M188.391 242.948C199.549 226.206 217.189 209.109 225.794 198.683M186.71 244.601C199.724 229.929 210.292 213.642 226.384 198.273M187.693 245.272C194.636 235.119 204.306 222.39 223.676 201.682M185.864 248.457C195.169 233.858 211.125 216.495 226.697 201.977M182.759 248.788C196.527 233.327 208.11 219.865 227.626 198.863M187.299 246.887C198.585 235.548 214.9 217.951 226.603 203.023M183.375 252.221C199.198 234.353 213.905 214.787 225.592 202.999M186.4 251.52C194.336 238.53 210.392 225.077 225.053 203.331M186.11 251.055C197.376 239.751 206.541 231.847 225.724 205.623M187.189 252.743C200.356 234.856 217.61 221.29 225.204 210.253M182.635 252.727C199.563 242.558 212.167 223.756 222.941 207.93M184.324 253.718C201.574 242.68 209.906 227.234 224.849 209.119M186.69 260.253C192.649 246.064 206.58 235.177 228.079 207.594M186.236 260.078C195.573 250.635 201.957 238.619 224.297 213.808M184.237 256.498C196.921 243.79 207.577 228.851 223.077 211.866M184.63 263.676C200.896 244.295 218.03 225.774 222.425 211.518M184.071 258.661C194.888 247.424 209.086 233.72 225.562 217.547M183.682 260.118C193.71 253.383 205.379 239.131 226.466 217.775M186.488 266.657C200.158 248.593 211.371 236.753 224.652 219.804M183.751 262.559C197.137 253.436 208.01 242.209 223.832 219.207M185.891 266.945C192.625 251.818 203.328 240.751 222.136 220.187M183.827 267.665C203.605 247.36 217.581 230.351 227.386 218.663M184.471 267.695C199.566 253.115 205.98 242.166 224.67 223.871M188.001 269.472C197.011 257.052 205.565 246.693 227.435 220.565M186.688 271.818C196.212 259.784 203.429 249.206 224.333 224.975M186.661 268.191C195.142 255.414 205.531 246.156 223.497 225.852M187.732 268.812C200.082 257.268 210.474 240.513 224.374 227.656M186.767 270.273C202.237 254.169 215.414 242.249 226.209 231.408M187.293 275.835C196.029 263.835 204.616 249.742 223.116 231.382M190.779 273.608C203.498 255.351 216.596 239.256 222.903 233.895M189.275 276.486C199.146 256.827 213.11 240.132 224.427 229.49M185.463 273.836C198.577 264.086 215.971 249.51 222.354 231.316M187.087 277.082C195.895 263.369 207.849 253.945 222.235 232.14M190.572 276.472C198.199 265.773 208.676 254.83 226.052 234.478M191.32 279.326C201.631 267.371 211.233 255.47 222.562 237.13M186.417 281.302C204.635 265.801 219.744 246.853 225.666 238.361M192.166 280.551C201.805 271.675 205.221 259.539 224.154 234.621M193.121 282.243C200.591 271.136 211.319 252.762 225.33 236.277M192.036 279.5C201.329 264.452 214.743 248.369 228.747 239.96M189.275 281.997C202.173 273.004 207.56 259.965 226.498 239.743M194.545 283.387C201.847 272.239 206.346 264.265 228.702 241.265M190.825 284.838C204.204 270.581 209.907 259.052 228.813 241.071M194.333 285.745C203.378 271.636 217.937 253.197 227.98 244.686M196.345 287.14C201.638 276.31 208.6 265.645 231.203 245.462M250.522 222.319C249.319 217.38 253.59 216.667 257.945 211.378M191.749 286.305C199.036 276.11 212.828 267.257 232.642 246.022M249.813 222.237C250.737 218.682 254.819 217.652 259.219 208.703M196.294 286.94C205.804 271.6 221.637 259.093 231.728 249.578M249.064 225.666C256.002 222.233 255.418 213.676 263.394 213.335M200.152 290.516C213.106 276.246 225.87 265.352 230.543 253.042M249.133 229.413C258.133 224.967 260.387 216.389 265.169 209.409M196.773 291.259C209.163 285.04 213.478 275.075 231.257 251.973M252.169 229.446C256.188 223.729 263.192 215.74 265.593 212.995M200.857 292.85C210.766 277.496 224.781 260.754 231.986 252.447M251.827 234.355C257.508 226.42 263.16 218.367 266.198 211.997M201.961 293.547C214.946 281.2 227.873 265.665 237.711 256.38M251.647 238.639C260.964 227.033 265.94 219.836 269.297 212.828M198.472 297.945C216.185 282.846 227.271 267.547 233.479 255.104M251.097 238.24C259.328 227.591 261.701 223.784 274.537 213.683M199.795 297.849C214.128 282.257 225.61 272.158 237.56 255.472M252.986 240.466C260.982 229.028 262.633 223.278 270.685 214.387M202.572 296.067C213.61 282.923 228.539 269.155 237.482 259.253M256.014 238.45C258.906 232.893 264.054 229.561 276.302 212.091M201.017 296.611C213.019 286.204 224.188 279.55 237.485 257.535M254.986 236.775C257.799 231.171 263.359 228.032 277.114 218.224M206.568 296.39C217.006 283.986 229.116 265.909 240.152 260.567M256.274 240.566C263.19 231.879 268.9 224.765 274.124 216.191M204.351 299.184C211.448 286.924 220.875 276.623 241.047 257.088M258.241 237.854C264.811 232.261 265.449 226.397 278.183 215.805M208.693 306.237C218.107 296.534 227.862 280.099 243.291 265.53M263.802 249.693C271.123 239.728 278.811 231.086 280.53 225.277M211.265 308.281C226.603 293.203 240.354 276.598 246.644 263.853M262.908 247.466C269.282 241.556 273.204 230.902 280.062 221.803M209.476 304.81C225.834 295.384 233.69 278.242 248.384 267.751M263.43 248.27C266.858 240.616 275.681 230.57 286.195 222.505M210.065 305.108C226.407 293.205 242.389 276.906 246.768 263.44M264.684 247.718C266.209 240.26 270.156 237.822 286.223 226.1M213.157 309.687C221.508 297.177 230.017 290.036 246.417 268.724M266.889 250.423C269.593 241.33 276.584 233.361 286.36 227.766M216.569 313.565C232.727 297.093 242.003 285.196 252.38 269.615M266.312 256.617C273.474 250.545 282.751 243.448 291.144 232.943M219.586 315.201C233.387 296.688 248.366 282.321 254.22 271.539M272.141 255.693C278.771 249.649 284.893 239.666 289.457 228.032M222.411 317.33C229.783 298.01 243.322 287.124 253.931 271.921M268.76 253.565C277.416 248.439 287.298 238.851 288.641 230.176M220.11 314.993C228.26 300.596 241.904 294.643 253.393 272.561M270.936 253.722C279.19 248.325 282.841 242.832 288.561 229.626M223.15 315.345C235.448 298.664 244.06 283.337 254.562 276.26M273.861 256.928C273.455 247.931 279.46 241.891 294.689 231.03M219.813 313.768C231.978 306.174 234.822 298.873 259.441 276.778M273.061 257.315C276.481 249.746 284.455 243.398 291.979 231.321M223.797 320.777C238.084 305.571 250.123 297.197 261.605 281.447M279.527 260.989C280.514 258.563 288.09 250.953 298.481 235.128M227.553 321.321C241.438 303.009 251.137 292.901 260.459 282.071M278.712 264.597C282.382 259.479 288.239 250.842 295.229 241.246M229.789 322.615C239.126 312.591 244.438 297.941 263.451 278.924M274.8 263.193C287.233 256.578 294.923 244.268 300.239 236.544M229.808 323.353C238.692 314.311 242.761 305.987 266.141 279.226M280.9 262.487C286.672 257.088 295.156 248.232 299.898 241.19M228.897 320.328C235.693 311.083 243.415 302.969 263.422 277.804M278.866 266.435C280.001 257.329 289.192 254.865 300.7 237.881M227.831 322.114C238.666 314.085 247.564 302.434 269.038 278.862M278.645 268.512C283.426 260.371 289.087 253.8 298.072 241.881M228.472 323.477C246.208 310.823 256.289 294.511 267.7 278.326M275.795 269.99C287.86 258.649 295.985 243.98 301.797 240.721M230.14 321.511C245.93 307.57 258.263 288.007 298.922 242.683M232.274 324.428C246.917 303.465 265.213 288.613 300.124 239.019M232.353 326.5C256.755 294.528 285.251 265.658 302.94 243.563M229.106 326.304C244.161 308.112 261.685 290.646 301.29 245.912M229.858 325.363C246.953 313.176 262.771 292.649 304.387 240.545M231.233 329.476C262.152 298.068 289.154 265.965 307.207 246.016M231.32 329.762C253.31 310.983 266.6 289.203 304.359 247.456M232.923 326.491C258.345 295.425 285.454 262.384 304.738 243.19M236.09 331.851C256.038 301.297 278.144 272.463 307.807 248.288M237.861 330.6C251.57 306.958 268.568 290.539 308.319 245.456M234.317 331.772C261.417 299.283 284.605 274.027 309.462 249.116M238.248 329.845C258.07 303.218 282.378 275.284 305.884 246.462M237.51 328.105C259.357 302.895 286.719 276.013 306.096 247.183M239.651 332.818C254.991 309.28 267.482 292.683 310.084 250.386M239.802 333.677C253.022 317.092 267.429 297.922 311.275 250.645M241.411 329.914C259.923 305.908 279.487 287.346 307.822 250.459M238.776 332.059C255.405 310.608 270.757 290.721 307.882 250.388M239.322 335.153C264.359 305.581 290.267 276.522 309.263 252.751M241.711 333.734C260.456 308.095 283.727 285.347 310.731 251.931M238.645 335.641C253.965 317.064 271.364 297.533 314.155 249.674M237.809 337.421C260.806 315.718 273.487 296.856 309.531 253.37M240.045 335.001C266.756 309.612 287.447 284.019 310.813 254.751M240.566 335.686C270.853 306.997 298.76 273.563 314.502 255.754M241.325 339.006C264.929 311.358 290.392 285.71 315.614 256.845M244.089 339.418C260.083 314.342 279.653 294.868 316.159 255.429M242.011 339.402C269.799 308.958 291.031 278.237 311.946 256.751M242.706 341.749C275.07 309.163 298.193 276.591 312.026 255.498M246.416 339.21C265.541 317.519 287.72 290.413 314.091 259.81M248.446 341.737C271.89 311.652 294.57 279.374 314.11 258.578M247.824 338.453C265.925 320.748 283.097 296.357 317.738 260.407M243.966 339.991C265.739 320.372 279.401 299.078 314.111 256.863M247.494 341.022C261.04 326.939 276.873 305.573 315.677 260.085M247.131 341.981C269.857 314.051 289.766 289.723 314.624 259.995M247.348 344.306C263.984 323.456 275.071 308.873 317.869 259.089M249.997 344.907C275.43 317.799 295.72 289.184 320.54 261.387M251.305 344.324C273.831 313.316 301.419 280.939 316.97 262.286M248.518 343.305C267.164 323.038 285.844 300.506 320.235 265.736M249.45 346.416C264.87 325.545 279.252 308.179 322.236 263.843M251.581 346.601C278.705 315.013 302.726 282.505 319.919 266.726M251.647 347.963C269.438 323.426 291.873 297.403 317.768 265.565M252.975 343.334C270.537 320.64 286.232 298.57 320.761 263.898M250.186 349.44C270.519 328.761 286.258 303.931 322.616 265.392M251.934 349.489C270.885 320.787 295.788 296.141 322.76 266.319M250.673 350.096C265.314 332.244 282.763 315.413 324.199 265.178M251.852 348.478C269.051 327.199 289.897 313.301 321.694 266.35M253.404 347.486C268.865 330.249 284.541 315.887 324.862 272.239M254.262 348.471C275.767 323.287 293.541 302.969 322.917 273.096M257.392 348.396C272.346 334.053 283.735 314.307 323.924 273.712M259.956 346.802C279.32 324.534 297.397 301.732 326.175 273.373M256.395 348.799C278.195 330.209 292.187 309.598 324.655 269.979M262.086 347.934C284.799 317.786 306.358 291.226 322.506 273.883M262.019 349.175C282.252 326.146 304.132 298.647 325.273 274.811M261.428 350.865C274.003 332.682 296.793 309.271 327.421 275.938M261.931 351.402C285.951 323.782 307.809 295.77 322.425 278.807M262.309 353.514C276.907 333.674 288.407 318.626 323.894 275.855M264.906 354.43C284.825 327.686 300.831 304.726 325.653 275.812M266.653 350.134C287.294 323.959 311.827 301.257 324.742 280.427M263.484 349.15C290.949 327.549 312.842 298.245 325.117 279.773M264.402 352.256C286.142 326.8 305.286 299.996 327.376 280.172M263.257 351.205C284.509 331.682 302.33 314.715 326.085 281.324M265.233 355.142C285.974 337.142 300.164 317.892 325.107 285.927M267.581 352.254C286.374 327.05 309.364 304.563 327.506 282.214M266.091 350.209C285.954 330.946 305.361 313.694 323.789 286.153M268.215 354.793C279.857 337.519 295.172 326.489 328.968 284.616M271.658 349.611C282.551 337.395 294.767 319.741 325.429 286.871M270.814 355.217C281.665 336.99 296.804 324.942 328.979 288.012M274.436 350.14C289.196 334.708 302.516 320.065 328.852 287.576M271.112 355.945C292.409 330.224 306.671 313.165 323.881 293.225M273.558 350.516C291.572 329.514 311.631 311.451 327.933 291.764M275.718 354.272C292.012 327.72 314.594 307.841 328.866 293.869M275.346 351.47C295.018 334.74 312.403 311.184 326.442 292.143M277.726 351.277C294.87 331.344 309.902 314.942 324.09 296.62M280.798 352.684C294.117 338.097 303.074 323.888 325.688 295.98M279.452 351.06C296.155 333.601 309.501 316.355 325.349 298.084M278.61 353.074C294.578 337.809 310.495 317.759 323.656 298.967M279.897 350.73C294.168 340.139 304.184 330.45 327.822 297.136M283.514 355.874C296.511 335.966 309.37 324.482 325.025 303.873M280.805 349.76C295.389 336.572 308.621 322.823 325.318 299.508M286.772 352.72C296.981 335.698 318.906 312.669 327.846 304.459M283.15 349.754C302.715 337.73 314.012 319.66 328.016 307.52M287.238 353.936C302.715 337.735 314.347 319.685 326.977 304.366M285.938 352.047C295.205 341.22 305.234 330.943 328.569 306.87M287.162 353.991C297.719 338.114 310.447 326.569 328.029 305.197M287.127 354.269C304.861 337.906 316.651 320.427 327.202 306.111M290.731 350.893C301.863 339.055 316.584 317.876 327.214 312.058M292.959 350.334C301.32 346.524 308.72 336.16 323.583 309.816M294.242 354.392C300.524 345.804 307.47 331.829 326.564 315.051M294.984 354.31C309.067 336.423 322.374 325.221 329.226 312.232M294.689 350.386C306.197 340.665 309.28 335.388 327.405 314.548M296.386 355.134C304.517 343.994 315.946 331.709 327.825 316.518M296.948 351.393C308.961 339.211 319.803 324.309 329.764 318.111M298.127 351.264C304.488 345.225 314.327 334.06 327.795 317.392M301.347 352.016C309.73 343.513 318.461 331.993 328.247 320.273M302.102 355.211C310.158 342.432 321.069 327.198 328.192 320.868M299.229 351.469C308.137 343.059 315.53 333.056 329.437 319.653M301.764 352.183C307.723 348.717 313.812 340.75 324.223 322.923M301.644 353.476C314.495 339.193 320.48 328.814 329.517 326.448M306.042 353.39C312.02 347.375 319.029 336.357 325.545 326.067M304.017 354.575C309.178 346.532 314.532 342.041 326.666 327.19M307.116 349.677C314.267 346.206 321.95 338.086 326.211 327.954M310.453 348.779C314.696 345.53 316.393 340.353 326.213 329.184M306.141 353.666C314.367 344.426 321.646 338.327 326.932 331.474M311.666 352.52C318.047 345.291 323.615 335.36 327.082 328.445M313.931 349.879C318.199 348.533 317.535 341.681 328.18 332.55M313.651 348.901C314.277 346.853 321.438 341.566 324.298 332.993M317.689 346.499C321.057 346.942 319.099 345.275 324.895 338.137M319.864 345.408C322.937 344.025 323.82 340.056 324.497 339.261M463.065 140.291C465.228 137.836 468.936 137.886 467.631 133.601M463.541 142.713C462.596 141.345 467.396 136.861 472.165 132.445M459.34 145.545C463.793 140.12 466.629 136.372 471.717 135.197M464.623 147.015C468.748 142.137 468.788 133.45 477.347 130.918M458.16 147.508C463.68 145.275 473.149 134.851 478.474 130.511M458.814 151.046C466.226 148.266 468.589 139.427 475.738 133.871M461.955 151.067C467.175 147.491 470.059 141.023 479.402 133.346M374.285 252.708C376.458 253.145 380.048 247.131 383.367 244.918M459.844 149.654C466.955 147.953 469.403 143.284 479.795 131.408M369.725 259.047C373.313 252.99 381.695 240.015 387.814 232.881M460.675 150.961C467.242 145.255 473.825 138.18 481.55 134.918M361.769 263.785C370.275 258.569 379.674 246.483 399.587 225.299M462.003 156.702C468.225 151.793 472.268 140.216 483.813 132.552M365.144 268.168C376.054 249.099 396.216 234.787 407.569 219.047M458.828 158.554C468.815 147.996 475.886 139.185 482.065 129.302M359.849 267.551C374.082 252.396 391.389 238.163 407.336 212.703M462.693 159.391C465.112 146.084 473.848 138.76 484.926 131.634M362.392 274.842C375.21 255.3 387.452 241.016 413.529 214.796M460.547 156.555C468.065 147.987 473.986 139.795 484.475 133.504M361.045 274.67C378.289 257.301 390.893 239.998 413.714 213.525M462.578 160.339C467.245 151.396 477.128 136.731 483.504 132.713M361.721 275.896C371.627 259.443 384.234 247.574 415.166 210.453M458.098 160.12C466.093 148.44 478.263 145.086 483.1 129.902M363.624 275.361C382.905 250.19 401.125 228.743 417.122 209.752M463.565 161.911C472.431 149.71 481.235 138.186 485.403 133.55M362.544 277.216C379.968 263.334 392.889 241.33 416.918 213.399M462.222 160.35C471.255 152.16 479.313 139.667 484.392 132.131M358.257 280.217C372.816 267.017 388.087 247.626 419.884 210.554M462.306 162.712C471.268 154.555 477.451 144.132 486.066 131.217M360.77 281.227C375.413 262.168 390.567 245.203 421.03 210.077M459.179 165.355C470.387 157.929 480.826 143.383 491.518 134.906M358.765 283.332C375.897 265.095 391.541 246.856 424.046 211.403M459.631 166.453C473.878 154.229 481.301 143.167 487.41 136.423M359.513 287.234C378.83 262.191 404.887 229.005 420.942 212.672M462.079 165.306C463.753 160.908 470.791 152.555 488.842 134.386M357.302 284.25C383.146 257.742 410.786 226.42 422.784 209.547M459.223 167.611C471.095 157.152 482.56 146.288 493.391 137.321M358.949 285.458C373.572 275.35 385.177 257.436 423.969 213.445M461.069 170.63C468.015 159.959 475.072 153.02 489.564 134.06M360.157 289.945C382.218 262.797 406.901 236.287 424.684 208.87M462.989 170.513C472.267 155.831 483.283 147.533 493.729 133.793M361.477 287.621C380.723 271.124 396.506 251.999 424.401 209.123M459.068 170.292C472.614 160.806 483.671 149.363 490.594 137.813M361.529 289.654C380.89 268.109 394.562 250.425 425.232 212.242M458.355 172.595C472.033 163.157 479.306 153.837 493.932 133.601M359.325 293.066C369.98 278.188 383.988 256.455 430.536 209.764M461.572 174.7C475.426 157.608 484.319 142.942 493.582 137.518M357.828 291.672C384.196 267.68 402.404 242.333 426.095 212.852M461.32 175.057C466.419 169.2 472.798 161.394 495.946 136.446M357.697 297.781C371.514 277.217 390.061 259.258 431.93 215.19M461.897 175.965C472.258 168.014 476.6 156.011 495.74 138.908M355.655 296.231C379.863 272.307 402.547 243.793 429.466 210.617M461.446 178.239C470.083 166.165 480.136 154.899 496.437 137.33M356.001 299.072C382.381 270.825 407.008 242.979 429.276 213.432M458.746 182.292C475.872 163.481 483.081 152.686 496.495 138.037M359.688 296.874C371.92 281.897 387.804 265.607 431.08 214.319M462.613 181.666C472.948 168.48 481.07 155.17 494.244 136.865M358.42 299.375C378.887 276.15 401.44 251.694 434.191 212.955M457.955 183.327C477.231 168.981 486.841 154.615 497.356 137.904M358.496 302.397C382.536 272.044 406.749 239.777 435.192 217.304M461.085 184.279C471.032 170.703 487.128 150.794 499.641 140.488M356.201 302.165C382.447 275.065 408.721 244.093 433.785 217.917M459.74 186.597C476.762 165.976 486.743 156.45 498.005 143.998M358.94 305.321C384.462 278.45 403.16 251.888 431.429 216.129M461.54 187.759C470.832 171.085 484.976 156.015 495.226 141.249M358.214 305.109C379.61 278.828 407.399 248.164 431.847 219.853M461.641 187.583C469.427 178.491 479.416 167.574 500.359 140.188M359.494 302.948C376.625 287.052 396.074 262.325 433.898 218.781M460.171 185.624C467.675 174.284 481.7 164.19 501.093 141.546M357.065 305.435C375.701 288.995 390.314 271.183 436.54 219.598M460.79 187.46C471.98 177.428 483.739 164.755 498.939 143.869M361.497 305.252C389.716 272.791 416.435 242.464 437.888 221.031M462.364 189.733C475.546 179.222 485.457 162.895 497.743 148.715M360.672 305.864C381.129 282.37 405.107 257.257 434.624 221.858M459.061 192.43C474.817 179.067 488.349 160.597 496.636 145.729M357.399 310.264C380.735 289.099 398.099 260.681 436.678 218.503M460.638 190.345C474.674 179.239 489.699 162.855 501.441 147.518M358.978 311.524C382.439 284.082 406.365 257.716 439.16 224.097M463.063 195.099C471.451 179.743 479.102 168.868 502.864 147.197M356.448 312.115C376.267 293.25 392.511 271.389 436.689 221.587M461.79 196.009C473.591 185.199 479.532 170.106 499.852 150.371M361.352 314.121C381.059 284.296 404.969 255.807 435.905 223.627M461.122 197.924C473.707 180.762 489.101 168.457 502.093 147.82M355.882 313.383C383.949 285.982 405.466 262.74 435.589 225.545M461.017 194.407C471.481 180.003 484.988 168.598 502.765 149.944M356.778 313.47C386.57 280.981 418.68 245.596 434.085 228.129M458.213 200.65C467.765 189.499 476.199 179.134 501.756 151.627M358.12 316.832C377.71 297.107 388.6 282.663 434.774 225.275M462.102 200.328C473.372 183.697 487.341 175.71 496.641 151.984M360.881 320.703C383.976 291.59 406.336 260.188 438.603 224.981M462.946 202.876C474.377 184.823 485.871 164.565 501.685 156.822M358.826 318.238C370.672 304.055 384.302 292.061 409.977 262.288M407.776 260.052C413.348 254.656 427.042 242.839 437.305 227.76M462.634 201.261C470.928 192.846 483.554 177.011 497.003 155.3M358.817 323.14C375.389 304.937 390.887 288.276 408.881 267.538M414.707 254.355C424.401 242.506 428.433 234.742 433.023 232.138M462.115 202.377C470.814 188.294 479.341 178.28 497.246 157.118M355.94 323.57C379.135 302.293 392.555 281.495 406.013 267.149M424.544 244.683C426.822 240.366 433.38 236.923 431.49 235.155M460.469 200.852C474.918 188.711 487.582 169.028 498.852 160.626M361.641 323.112C373.305 307.143 384.84 290.491 405.953 264.938M459.277 202.382C471.847 188.993 488.846 176.446 502.312 159.948M358.28 323.846C367.881 310.333 376.751 304.785 407.978 268.005M463.289 207.866C468.887 195.435 481.938 179.974 497.457 158.29M359.138 326.312C373.853 308.869 387.395 287.576 407.768 267.728M461.365 208.646C473.421 195.875 480.478 180.788 498.479 163.841M357.314 326.802C376.613 310.968 386.009 290.037 408.523 270.539M461.369 209.008C472.955 193.721 484.283 180.925 499.56 163.981M355.439 325.99C371.926 314.918 382.498 301.245 403.745 270.432M461.31 211.928C477.95 188.883 491.084 175.049 496.941 165.247M358.507 330.191C378.913 306.467 399.356 286.67 408.854 274.421M461.05 212.657C470.03 198.663 478.257 190.76 501.142 166.909M356.312 331.599C373.403 311.708 391.733 291.469 404.605 276.102M458.975 209.337C473.327 195.139 490.82 176.638 502.856 165.798M356.449 328.185C373.191 319.689 384.414 299.261 407.256 275.028M459.03 213.048C467.567 201.756 477.335 196.824 500.021 170.255M361.443 331.665C370.245 319.245 381.788 308.782 410.539 273.156M460.776 216.764C467.563 205.826 480.226 196.089 502.097 171.285M360.062 330.273C375.935 310.385 398.711 291.818 407.477 273.73M462.85 213.382C475.665 199.762 483.016 188.936 502.387 173.612M356.204 332.07C372.535 317.358 392.017 298.207 406.119 273.82M463.228 216.635C469.746 202.33 484.215 188.511 500.55 171.876M359.948 337.079C372.264 318.848 389.069 302.687 410.937 275.749M460.33 219.964C466.79 210.111 477.084 200.669 502.433 175.194M357.925 336.516C374.367 320.405 387.554 303.305 408.252 275.776M460.7 222.02C471.289 204.08 485.817 194.901 500.808 173.631M360.473 335.75C374.477 317.448 386.671 304.35 411.275 277.999M460.022 218.597C468.675 208.48 476.223 201.408 498.583 174.13M361.91 337.431C371.697 323.345 384.622 309.29 413.369 279.63M462.017 220.612C478.976 203.635 492.282 189.203 499.035 175.504M361.884 339.73C372.185 326.102 379.334 315.039 410.115 282.105M462.916 224.248C473.816 207.871 493.012 188.141 499.92 175.264M362.402 336.554C379.432 317.571 395.275 293.845 415.327 279.701M463.034 224.877C471.462 210.236 486.019 194.398 500.366 177.16M359.832 336.852C381.476 319.511 397.43 298.103 414.8 281.002M460.731 223.106C475.51 207.544 490.362 188.813 499.887 179.788M362.145 340.74C379.777 318.132 397.184 300.055 410.783 279.533M463.683 228.012C470.03 213.142 480.616 200.731 498.595 180.992M363.495 341.258C376.552 329.767 384.92 313.957 416.71 278.55M462.508 225.605C474.861 210.081 486.801 194.078 498.58 182.69M361.192 343.659C377.294 321.502 396.398 303.531 416.297 280.682M463.079 230.128C474.93 210.526 486.903 199.689 502.149 183.6M362.528 342.248C373.833 326.932 392.502 306.372 418.609 281.714M462.013 228.452C473.537 211.265 492.561 198.709 498.258 181.683M361.264 340.851C377.879 325.148 397.32 299.904 419.574 280.025M461.585 230.08C473.042 218.492 480.896 203.267 497.803 187.37M361.059 343.157C378.659 329.382 386.558 317.124 415.863 279.789M463.695 229.994C470.255 220.854 484.697 208.311 499.546 185.74M367.27 343.055C385.917 320.592 408.731 296.102 420.227 279.932M457.357 235.595C473.76 217.797 491.383 195.857 498.357 186.307M366.258 342.412C377.618 326.404 392.474 316.951 421.266 278.269M458.535 232.277C475.511 216.837 493.176 197.838 497.27 190.991M362.649 345.942C382.295 326.105 402.317 304.631 424.763 282.991M458.127 233.902C468.042 224.677 482.512 212.826 500.22 187.393M363.73 346.428C378.438 332.827 392.826 319.017 425.026 277.555M460.146 240.766C467.098 226.089 481.063 211.019 498.457 188.299M365.272 343.335C382.736 330.002 398.78 311.896 432.454 276.299M457.049 242.676C469.655 227.52 475.883 218.439 500.712 193.885M366.486 345.848C388.577 319.586 413.396 292.9 433.226 270.069M461.185 243.5C473.374 221.706 487.313 206.246 501.175 193.444M367.656 346.187C398.088 315.155 423.979 281.157 443.329 264.242M460.268 241.018C467.655 232.445 475.846 217.965 496.903 197.793M367.713 350.333C393.422 314.092 427.166 281.213 446.657 255.54M457.639 248.727C464.745 239.756 473.14 226.156 498.058 197.478M367.728 346.263C404.783 305.673 443.029 261.495 501.392 199.695M367.538 349.939C397.201 316.347 428.036 280.496 498.689 197.631M370.04 346.955C405.463 312.932 440.018 273.033 501.919 201.832M369.328 351.648C403.46 304.945 442.682 264.302 499.11 202.783M370.605 350.938C415.661 301.509 456.465 250.074 501.813 203.047M373.472 349.449C421.98 295.481 466.227 239.379 500.913 204.599M373.841 351.517C403.742 316.643 433.818 283.84 499.516 203.556M374.888 352.3C414.324 300.653 458.461 249.197 499.471 203.472M372.3 353.714C406.062 314.655 440.87 277.368 499.832 208.826M376.961 350.801C414.043 307.748 449.43 262.554 499.461 209.835M376.004 353.579C413.234 309.688 447.178 271.761 498.074 209.437M377.833 350.097C401.786 319.773 431.189 285.739 500.894 209.666M377.501 350.574C421.12 300.841 461.448 252.987 499.281 211.52M377.692 352.948C406.277 321.146 435.703 287.415 502.212 210.16M382.098 352.096C426.244 299.94 469.652 249.78 502.029 212.417M378.881 354.933C402.544 322.275 429.736 291.18 502.502 214.94M381.511 353.28C414.893 311.89 453.385 271.179 501.119 216.713M383.681 353.789C409.722 318.322 438.624 283.139 499.72 216.269M384.992 353.898C417.319 313.476 454.645 276.263 502.038 220.086M386.397 353.023C424.488 304.936 468.302 258.917 501.762 217.145M384.615 352.938C407.665 326.385 437.282 297.049 499.258 222.103M387.213 352.327C419.156 311.759 455.669 271.335 499.333 219.618M387.142 354.284C424.102 306.818 464.212 259.555 502.422 222.587M386.023 351.646C425.214 308.74 458.694 268.042 501.135 223.21M387.042 351.584C425.114 314.17 460.368 269.303 501.039 224.578M387.703 353.611C409.609 329.937 435.157 303.081 499.628 224.462M393.328 353.522C423.847 316.587 450.625 283.442 499.094 229.599M391.616 355.187C421.814 314.341 457.802 275.686 497.428 230.804M393.217 353.601C416.094 324.807 437.198 301.697 499.727 229.529M391.896 351.826C413.653 329.421 435.364 306.125 499.736 230.731M397.106 351.439C421.798 323.848 444.074 294.995 502.507 229.859M398.134 354.248C423.828 325.182 448.793 292.183 497.921 234.407M398.31 353.805C429.179 321.109 457.542 292.478 501.576 232.95M396.506 353.771C421.088 323.153 445.868 294.28 502.042 233.949M400.029 351.709C437.074 310.49 475.305 261.767 500.362 238.604M397.748 354.373C420.1 327.156 446.002 302.118 501.193 238.16M404.253 350.457C431.014 316.563 467.631 273.849 501.138 236.655M400.237 353.522C427.798 316.585 453.42 289.598 502.081 238.188M402.009 351.722C435.241 317.701 460.353 288.52 501.109 239.107M404.738 352.896C442.305 310.579 478.373 268.24 500.016 241.935M404.767 353.742C430.032 328.661 452.134 298.193 502.111 245.657M407.633 355.203C431.022 322.899 456.618 293.551 497.257 244.252M407.529 351.12C442.252 317.377 475.298 274.729 501.778 247.729M408.564 352.438C436.678 319.222 470.342 282.922 498.014 249.042M409.56 351.09C442.931 318.58 475.994 278.37 498.274 246.602M411.298 353.312C433.656 331.256 457.729 300.554 502.127 246.959M410.344 353.288C436.269 325.993 458.217 295.162 500.723 247.625M411.781 352.505C446.288 316.929 475.427 277.016 503.541 249.316M413.267 352.618C438.096 319.582 468.52 289.739 497.431 250.489M415.8 352.042C431.13 335.625 451.107 315.209 500.975 254.064M414.31 354.928C443.243 323.717 469.156 291.229 501.408 258.327M416.058 354.975C443.492 321.502 474.117 286.525 501.452 256.768M418.313 350.958C451.546 320.379 477.268 282.126 502.37 256.098M418.015 350.548C445.516 321.09 477.913 285.517 500.797 256.708M418.702 353.022C445.016 323.961 470.746 297.764 497.691 257.262M418.682 352.502C435.632 335.133 455.707 314.827 497.34 259.759M424.846 348.931C446.835 321.226 471.28 296.188 498.558 262.921M421.635 354.005C457.275 315.177 486.366 283.345 500.03 262.531M427.455 349.962C439.991 333.265 456.368 313.465 500.889 263.709M426.456 347.075C454.544 320.316 476.397 285.451 498.645 266.192M430.259 352.136C450.402 328.835 469.733 299.347 496.965 268.556M430.534 347.422C454.102 320.954 481.736 290.801 497.899 268.991M430.804 349.91C457.889 316.189 481.465 288.999 498.429 272.151M440.327 342.246C457.122 323.692 471.312 304.965 496.146 275.605M446.591 330.563C463.314 313.47 481.397 290.961 496.591 277.784M451.795 326.875C461.229 315.984 476.687 304.575 497.315 278.777M458.503 320.911C468.938 310.851 477.231 300.765 493.936 281.241M467.199 313.972C474.572 299.007 486.33 290.456 496.83 277.958M477.782 302.92C478.796 300.292 484.378 291.869 491.741 282.198M483.724 298.055C484.707 293.562 487.401 290.354 489.138 290.857M464.144 144.983C463.435 141.418 469.29 139.164 471.702 133.499M460.282 144.899C461.527 144.657 466.93 140.015 473.272 133.3M462.258 149.507C464.324 142.733 470.281 140.566 469.744 133.348M462.854 151.786C465.248 141.78 468.951 143.019 475.468 133.543M457.525 152.415C466.42 147.442 471.11 139.205 478.33 133.932M373.364 258.503C373.545 252.225 383.961 241.708 384.398 239.983M457.507 151.711C468.486 142.72 474.475 137.681 478.112 133.789M370.876 262.679C372.774 249.653 382.596 241.096 393.919 231.769M459.162 150.559C464.838 144.373 467.915 138.664 478.271 129.891M366.363 266.38C373.902 254.537 382.993 245.393 397.408 225.163M458.792 154.767C466.231 145.714 474.662 138.238 481.966 132.653M365.199 266.889C375.893 254.982 387.596 236.394 407.483 216.345M462.884 153.066C463.457 152.25 468.65 142.893 482.405 131.825M360.346 267.499C373.828 253.776 387.532 242.489 410.894 212.101M460.337 153.861C468.751 146.225 477.206 137.221 482.129 132.455M363.208 270.205C374.272 259.401 386.511 244.382 415.637 212.733M461.226 155.875C466.816 155.174 473.937 145.676 482.492 134.346M359.529 272.392C377.729 259.197 389.749 242.614 412.826 214.103M457.755 158.534C468.526 150.754 472.742 146.616 482.637 133.687M359.396 274.812C379.716 255.068 393.178 234.826 416.646 212.574M458.59 161.567C470.871 151.235 478.198 145.881 484.129 134.034M357.518 280.459C378.714 252.221 404.912 228.755 419.974 212.771M458.579 163.906C465.586 155.066 472.184 144.207 483.803 133.03M361.66 284.488C381.839 255.565 407.054 229.213 419.561 211.913M458.801 165.118C469.14 154.471 481.859 140.044 489.202 133.865M357.356 282.752C380.951 261.535 401.842 236.385 421.401 208.359M460.996 167.307C466.715 160.31 471.142 154.224 488.75 136.529M357.77 286.696C375.554 265.491 394.422 248.147 424.977 208.276M459.352 173.81C469.537 159.361 483.724 141.298 488.803 133.629M355.669 292.022C380.067 262.785 407.204 235.161 425.61 212.592M457.965 173.921C470.64 161.815 476.897 151.379 491.188 134.936M360.279 291.283C377.113 267.093 399.864 241.219 427.393 210.969M459.087 173.673C468.077 161.021 480.803 151.204 490.758 134.016M357.513 292.953C389.817 258.872 415.742 228.948 430.181 209.816M458.116 173.652C471.308 164.319 476.742 149.811 490.064 137.651M356.184 290.744C382.888 259.895 413.021 231.526 429.333 211.415M459.716 174.037C472.527 162.229 483.79 149.253 495.61 138.833M360.575 322.188C376.046 297.982 391.919 280.869 408.787 263.949M360.959 319.553C371.795 303.488 387.767 291.694 415.912 252.578M356.222 323.422C381.962 293.863 403.966 264.552 426.052 243.046M368.286 347.658C394.561 315.499 421.329 283.336 502.122 190.417M366.274 345.266C406.946 303.232 441.844 260.115 499.751 193.669M367.555 345.827C422.81 289.392 471.024 227.701 498.481 193.349M371.075 346.654C411.639 300.428 455.839 253.72 501.754 198.435M367.986 350.555C396.347 315.647 426.212 283.146 497.571 198.528M369.895 351.233C413.408 298.215 460.214 243.076 501.068 200.56M371.445 348.197C415.815 299.405 452.884 255.232 501.513 199.747M369.7 349.194C401.274 318.596 430.78 282.362 499.178 199.225M373.905 350.216C414.148 301.445 454.879 254.039 498.029 199.788M370.135 348.796C398.697 320.309 427.344 290.327 499.953 203.435M375.627 350.794C417.602 297.214 461.971 247.777 502.023 203.731M371.876 351.278C405.171 316.367 434.383 283.815 501.136 203.906M375.894 350.083C408.389 312.648 441.361 272.185 497.625 207.895M378.525 351.461C417.302 302.336 458.199 255.345 501.28 205.288M375.426 350.389C405.515 314.242 440.594 274.836 497.73 208.503M377.648 351.814C413.93 307.263 450.648 263.663 502.179 210.924M378.069 351.955C422.45 300.607 471.468 242.909 499.92 208.906M377.214 353.092C403.025 322.972 430.853 291.276 502.037 213.573M381.103 354.919C416.337 312.113 452.139 268.517 500.761 212.095M378.869 354.463C403.587 322.882 431.586 296.324 501.148 214.019M380.556 355.22C416.313 315.889 446.759 280.512 501.922 217.733M381.111 352.185C420.754 308.638 460.948 263.291 502.613 216.024M382.144 353.172C418.617 314.732 451.578 274.084 499.876 218.215M386.838 351.744C414.835 318.065 445.961 282.906 498.25 219.485M384.423 350.702C435.164 298.005 481.271 244.609 498.108 218.391M388.927 354.856C428.313 303.417 469.627 254.629 502.256 219.391M387.327 354.144C418.936 315.316 455.255 275.455 502.373 225.086M390.663 354.382C419.743 318.69 450.888 278.871 501.829 223.624M387.634 354.367C423.086 312.749 458.751 274.942 501.17 223.656M388.654 354.899C425.569 309.995 461.311 268.937 500.354 223.621M389.804 351.422C425.502 315.801 456.692 278.479 502.898 227.213M393.997 355.283C420.484 318.862 447.232 288.839 500.792 230.527M394.257 355.25C433.582 306.123 475.635 261.577 498.284 227.658M397.065 353.239C429.826 313.873 461.498 277.398 501.074 230.183M395.615 352.16C428.687 317.218 459.829 278.578 499.272 232.649M394.432 354.217C436.046 304.404 477.248 253.985 501.387 232.492M397.927 355.523C423.076 321.326 452.153 287.843 497.818 233.582M401.262 354.947C419.671 328.806 445.409 302.209 499.844 236.183M400.856 354.003C438.151 306.069 476.508 263.021 497.73 239.344M400.367 350.653C437.895 318.242 469.61 275.227 500.867 234.997M402.73 350.857C424.478 325.62 443.189 302.836 499.653 239.142M402.965 351.153C438.173 315.255 471.279 274.096 497.374 239.094M403.402 354.796C427.994 320.69 450.611 294.786 499.768 241.781M407.489 353.74C439.904 315.94 473.075 276.459 498.059 243.642M408.509 350.163C442.655 314.946 477.685 272.116 501.569 243.405M407.932 352.604C426.933 327.184 448.273 308.82 497.115 245.649M408.134 352.697C439.201 316.725 474.113 274.869 497.572 247.355M411.045 350.715C445.064 310.71 479.146 272.227 500.193 248.987M410.835 349.642C435.318 320.259 463.271 289.917 500.695 246.686M410.287 349.772C434.937 331.907 450.656 310.024 498.063 247.426M413.601 355.011C442.479 313.048 473.381 280.511 498.256 248.349M413.353 352.097C446.221 313.635 483.021 267.803 501.878 250.738M412.803 353.257C433.899 329.822 449.486 313.518 502.627 255.947M413.446 349.728C440.134 324.836 467.468 290.274 497.104 256.934M418.538 354.823C442.178 325.197 461.274 300.965 500.335 256.234M415.224 352.896C443.651 319.574 466.791 292.759 497.675 255.891M417.494 353.851C436.361 330.542 455.25 310.035 502.867 257.082M421.577 350.002C446.949 321.32 467.013 291.682 501.865 258.668M421.623 352.78C451.723 317.192 478.335 282.955 502.832 262.52M423.646 350.921C437.702 333.381 458.98 307.032 502.614 260.007M425.178 351.471C455.416 316.648 483.829 288.267 501.928 264.304M428.525 350.202C450.727 320.056 470.548 295.436 499.883 267.991M426.131 351.779C440.771 331.197 458.458 316.108 497.535 264.498M431.3 349.194C452.187 323.541 473.785 290.815 499.775 269.594M427.289 346.581C449.523 329.548 466.577 308.74 497.758 269.727M431.403 349.235C448.425 329.104 466.296 307.223 498.392 273.999M438.206 342.889C460.801 314.143 482.891 292.385 495.624 271.395M443.947 332.75C459.919 321.825 467.147 304.285 494.262 274.323M456.402 326.209C469.463 304.644 488.012 289.731 495.751 274.54M458.849 320.862C470.954 303.831 487.163 285.122 497.429 279.743M470.648 312.798C478.538 297.064 488.822 288.572 495.255 278.191M473.902 307.196C482.42 295.542 490.029 285.706 494.092 280.487" stroke="url(#paint2_linear_1623_14210)" stroke-width="0.5" stroke-linecap="round"/>
<path d="M183.593 267.513C238.803 266.174 281.456 265.082 339.717 265.29M343.657 261.276C375.118 265.663 412.114 274.487 498.376 265.882M502.577 262.416C494.856 319.719 494.711 377.281 498.95 424.868M500.164 427.354C494.854 430.745 498.527 436.351 496.609 434.25M497.007 432.445C440.465 431.013 375.949 425.887 346.843 433.221M339.296 431.588C285.503 434.339 222.223 435.562 190.171 434.668M188.467 431.154C183.44 427.346 180.935 423.636 180.561 424.336M183.062 429.244C189.693 369.011 189.752 313.018 181.268 265.651M185.596 264.021C164.565 254.142 150.65 223.591 140.331 217.807M137.419 218.524C134.981 220.121 132.921 205.971 143.049 208.251M141.781 209.511C171.495 208.702 212.954 208.721 282.501 207.072M285.555 212.041C293.69 215.974 291.621 210.348 286.772 212.104M292.019 216.212C315.516 234.398 329.471 256.092 348.122 266.909M505.375 260.596C520.782 245.578 537.139 228.713 545.795 216.999M547.411 218.524C544.199 211.534 546.933 208.4 544.473 214.524M541.858 213.621C504.125 220.866 451.121 223.306 393.774 208.264M399.275 212.041C403.188 216.833 391.484 218.963 394.943 214.391M392.159 218.055C379.56 239.648 364.764 250.223 336.394 264.802M345.927 265.812C340.315 333.635 348.63 390.829 340.292 427.276M184.667 265.977V265.977Z" stroke="white" stroke-width="1.52911" stroke-linecap="round"/>
<path d="M423.401 41.3714C420.193 38.2508 412.596 31.7604 406.899 31.3813M423.401 41.3714V41.3714ZM406.977 30.3451C399.159 26.5595 396.039 24.3545 385.531 26.0391M387.601 26.4731C380.257 26.4024 374.569 27.0339 369.193 32.6273M368.225 30.3451C364.366 32.1743 359.392 35.6214 349.414 39.8495M354.205 43.48C350.532 45.4493 350.133 45.7516 339.76 51.9032M340.889 48.5978C337.523 46.9116 336.349 45.2486 332.61 43.8869M332.291 41.3714C321.987 33.7501 311.959 23.9665 296.147 27.3047M296.491 26.4781C281.017 29.4962 269.769 29.6199 262.964 41.7232M260.691 41.3714C254.025 48.7215 246.471 61.6842 244.922 79.1667M245.862 77.3271C244.449 92.8886 248.673 103.837 260.234 112.152M260.595 113.395C287.33 142.168 314.84 164.674 344.27 194.043M340.91 195.511C357.467 178.183 378.863 159.01 424.546 113.368M423.401 113.283C430.947 106.382 429.199 102.15 435.289 94.762M434.379 96.7872C436.609 91.1741 436.833 82.4204 435.559 77.0637M438.234 77.3271C438.764 68.6545 434.506 65.8591 437.175 56.8458M434.379 57.8671C432.502 49.0808 431.136 45.7339 426.271 42.9653" stroke="white" stroke-width="1.52911" stroke-linecap="round" stroke-linejoin="round"/>
<path d="M185.649 267.56C236.277 266.803 283.581 267.27 341.999 266.421M341.377 266.428C382.779 268.438 422.409 267.123 499.963 266.88M500.815 267.743C496.549 314.35 497.31 360.87 497.836 430.665M499.22 428.881C498.358 432.924 496.285 431.429 494.638 435.337M493.398 432.038C460.959 434.253 430.948 433.033 340.167 433.268M339.688 432.774C288.931 431.39 238.076 428.347 187.574 431.43M187.524 432.682C185.081 430.647 181.834 432.281 184.425 428.327M185.519 429.788C181.76 376.552 182.322 324.303 185.493 266.685M183.61 264.487C171.638 252.059 154.535 240.184 136.722 220.569M136.476 220.052C136.559 219.196 137.224 212.292 139.978 214.339M136.25 212.648C185.012 213.608 234.87 215.6 282.262 215.423M284.612 213.569C285.158 216.478 288.362 215.18 292.085 216.822M288.692 214.744C305.632 232.794 321.248 243.321 339.025 269.978M501.033 270.006C513.498 250.45 526.863 237.399 548.404 220.065M546.468 220.052C548.116 219.701 546.142 213.707 543.722 212.687M542.413 216.239C491.354 216.392 437.864 214.639 396.076 213.506M398.332 213.569C395.819 213.455 393.694 217.034 393.009 215.741M395.801 214.292C379.18 229.983 370.239 237.269 339.804 267.949M343.906 269.054C337.138 328.17 339.933 391.4 341.817 431.003M183.723 267.505V267.505Z" stroke="white" stroke-width="1.52911" stroke-linecap="round"/>
<path d="M427.987 41.3714C424.779 38.2508 417.181 31.7604 411.485 31.3813M427.987 41.3714V41.3714ZM411.563 30.3451C403.745 26.5595 400.625 24.3545 390.116 26.0391M392.187 26.4731C384.843 26.4024 379.155 27.0339 373.779 32.6273M372.811 30.3451C368.952 32.1743 363.978 35.6214 354 39.8495M358.791 43.48C355.118 45.4493 354.719 45.7516 344.346 51.9032M345.475 48.5978C342.109 46.9116 340.935 45.2486 337.196 43.8869M336.876 41.3714C326.573 33.7501 316.545 23.9665 300.733 27.3047M301.077 26.4781C285.603 29.4962 274.355 29.6199 267.55 41.7232M265.277 41.3714C258.611 48.7215 251.057 61.6842 249.508 79.1667M250.448 77.3271C249.034 92.8886 253.259 103.837 264.82 112.152M265.181 113.395C291.916 142.168 319.426 164.674 348.856 194.043M345.496 195.511C362.053 178.183 383.449 159.01 429.132 113.368M427.987 113.283C435.533 106.382 433.785 102.15 439.875 94.762M438.965 96.7872C441.195 91.1741 441.419 82.4204 440.145 77.0637M442.82 77.3271C443.35 68.6545 439.092 65.8591 441.761 56.8458M438.965 57.8671C437.087 49.0808 435.721 45.7339 430.857 42.9653" stroke="white" stroke-width="1.52911" stroke-linecap="round" stroke-linejoin="round"/>
<path d="M190.243 267.56C240.871 266.803 288.175 267.27 346.593 266.421M345.971 266.428C387.373 268.438 427.003 267.123 504.556 266.88M505.409 267.743C501.143 314.35 501.904 360.87 502.429 430.665M503.814 428.881C502.952 432.924 500.879 431.429 499.232 435.337M497.991 432.038C465.553 434.253 435.541 433.033 344.76 433.268M344.282 432.774C293.524 431.39 242.67 428.347 192.168 431.43M192.118 432.682C189.675 430.647 186.428 432.281 189.019 428.327M190.113 429.788C186.354 376.552 186.916 324.303 190.087 266.685M188.204 264.487C176.232 252.059 159.129 240.184 141.316 220.569M141.07 220.052C141.153 219.196 141.818 212.292 144.571 214.339M140.844 212.648C189.606 213.608 239.464 215.6 286.856 215.423M289.206 213.569C289.751 216.478 292.955 215.18 296.679 216.822M293.286 214.744C310.226 232.794 325.842 243.321 343.618 269.978M505.626 270.006C518.091 250.45 531.457 237.399 552.998 220.065M551.062 220.052C552.709 219.701 550.736 213.707 548.316 212.687M547.007 216.239C495.948 216.392 442.458 214.639 400.67 213.506M402.926 213.569C400.413 213.455 398.287 217.034 397.602 215.741M400.395 214.292C383.774 229.983 374.833 237.269 344.398 267.949M348.5 269.054C341.731 328.17 344.527 391.4 346.411 431.003M188.317 267.505V267.505Z" stroke="white" stroke-width="1.52911" stroke-linecap="round"/>
<defs>
<linearGradient id="paint0_linear_1623_14210" x1="269.699" y1="23.7759" x2="394.014" y2="97.5138" gradientUnits="userSpaceOnUse">
<stop stop-color="#3CA0D2"/>
<stop offset="1" stop-color="#48DCA6"/>
</linearGradient>
<linearGradient id="paint1_linear_1623_14210" x1="13.6173" y1="247.454" x2="81.3726" y2="247.53" gradientUnits="userSpaceOnUse">
<stop stop-color="#3CA0D2"/>
<stop offset="1" stop-color="#48DCA6"/>
</linearGradient>
<linearGradient id="paint2_linear_1623_14210" x1="215.459" y1="158.957" x2="393.193" y2="289.362" gradientUnits="userSpaceOnUse">
<stop stop-color="#3CA0D2"/>
<stop offset="1" stop-color="#48DCA6"/>
</linearGradient>
</defs>
</svg>
