<svg width="34" height="34" viewBox="0 0 34 34" fill="none" xmlns="http://www.w3.org/2000/svg">
<g clip-path="url(#clip0_515_5285)">
<circle cx="17.1266" cy="17.0382" r="16.545" stroke="#454545" stroke-width="0.737408"/>
<path d="M13.267 14.8135H10.3564V24.095H13.267V14.8135Z" fill="#454545"/>
<path d="M21.1405 14.6122C21.0332 14.5988 20.9192 14.5921 20.8052 14.5854C19.1756 14.5183 18.2568 15.484 17.9349 15.8998C17.8478 16.0138 17.8075 16.0809 17.8075 16.0809V14.8402H15.0244V24.1217H17.8075H17.9349C17.9349 23.1761 17.9349 22.2372 17.9349 21.2916C17.9349 20.782 17.9349 20.2723 17.9349 19.7626C17.9349 19.1322 17.888 18.4616 18.2032 17.8848C18.4714 17.402 18.9543 17.1606 19.4975 17.1606C21.107 17.1606 21.1405 18.6158 21.1405 18.75C21.1405 18.7567 21.1405 18.7634 21.1405 18.7634V24.1619H24.0511V18.1062C24.0511 16.0339 22.9982 14.8134 21.1405 14.6122Z" fill="#454545"/>
<path d="M11.812 13.6129C12.7454 13.6129 13.502 12.8562 13.502 11.9229C13.502 10.9895 12.7454 10.2329 11.812 10.2329C10.8787 10.2329 10.1221 10.9895 10.1221 11.9229C10.1221 12.8562 10.8787 13.6129 11.812 13.6129Z" fill="#454545"/>
</g>
<defs>
<clipPath id="clip0_515_5285">
<rect width="33.8274" height="33.8274" fill="white" transform="translate(0.172852 0.0849609)"/>
</clipPath>
</defs>
</svg>
