<svg width="161" height="51" viewBox="0 0 161 51" fill="none" xmlns="http://www.w3.org/2000/svg">
<path d="M34.8128 35.2788C32.253 37.3241 28.6696 38.8577 25.0861 38.8577C16.8955 38.8577 11.2641 32.7222 11.2641 24.5413C11.2641 16.3605 16.8955 10.7368 25.0861 10.7368C28.6696 10.7368 32.253 11.7592 34.8128 14.3157L36.3483 15.8493L44.5389 8.18024L42.491 6.64668C37.8838 2.55656 31.7406 0 25.0849 0C10.7504 0 0 10.7368 0 25.0531C0 39.3695 10.7504 50.1063 25.0849 50.1063C31.74 50.1063 37.8832 47.5497 42.491 43.4596L44.5389 41.926L36.3483 33.7458L34.8128 35.2788Z" fill="#B6B9BB"/>
<path d="M25.0532 33.4038C29.6654 33.4038 33.4042 29.6649 33.4042 25.0527C33.4042 20.4406 29.6654 16.7017 25.0532 16.7017C20.441 16.7017 16.7021 20.4406 16.7021 25.0527C16.7021 29.6649 20.441 33.4038 25.0532 33.4038Z" fill="#EF4335"/>
<path d="M66.1456 17.9669C66.2639 17.6028 66.779 17.6028 66.8973 17.9669L68.2074 21.9987C68.2603 22.1615 68.412 22.2718 68.5832 22.2718H72.8225C73.2054 22.2718 73.3646 22.7617 73.0548 22.9867L69.6252 25.4785C69.4867 25.5792 69.4287 25.7576 69.4816 25.9204L70.7916 29.9522C70.9099 30.3163 70.4932 30.6191 70.1834 30.3941L66.7538 27.9023C66.6153 27.8016 66.4277 27.8016 66.2892 27.9023L62.8595 30.3941C62.5498 30.6191 62.133 30.3163 62.2513 29.9522L63.5613 25.9204C63.6143 25.7576 63.5563 25.5792 63.4178 25.4785L59.9881 22.9867C59.6784 22.7617 59.8375 22.2718 60.2204 22.2718H64.4597C64.6309 22.2718 64.7827 22.1615 64.8356 21.9987L66.1456 17.9669Z" fill="#EF4335"/>
<path d="M81.9542 17.9666C82.0725 17.6025 82.5876 17.6025 82.7059 17.9666L84.016 21.9985C84.0689 22.1613 84.2206 22.2715 84.3918 22.2715H88.6311C89.014 22.2715 89.1732 22.7615 88.8634 22.9865L85.4338 25.4783C85.2952 25.5789 85.2373 25.7573 85.2902 25.9202L86.6002 29.952C86.7185 30.3161 86.3018 30.6189 85.992 30.3938L82.5624 27.902C82.4238 27.8014 82.2363 27.8014 82.0978 27.902L78.6681 30.3938C78.3584 30.6189 77.9416 30.3161 78.0599 29.952L79.3699 25.9202C79.4228 25.7573 79.3649 25.5789 79.2264 25.4783L75.7967 22.9865C75.487 22.7615 75.6461 22.2715 76.029 22.2715H80.2683C80.4395 22.2715 80.5913 22.1613 80.6442 21.9985L81.9542 17.9666Z" fill="#EF4335"/>
<path d="M97.7628 17.9666C97.8811 17.6025 98.3962 17.6025 98.5145 17.9666L99.8245 21.9985C99.8775 22.1613 100.029 22.2715 100.2 22.2715H104.44C104.823 22.2715 104.982 22.7615 104.672 22.9865L101.242 25.4783C101.104 25.5789 101.046 25.7573 101.099 25.9202L102.409 29.952C102.527 30.3161 102.11 30.6189 101.801 30.3938L98.371 27.902C98.2324 27.8014 98.0449 27.8014 97.9064 27.902L94.4767 30.3938C94.1669 30.6189 93.7502 30.3161 93.8685 29.952L95.1785 25.9202C95.2314 25.7573 95.1735 25.5789 95.035 25.4783L91.6053 22.9865C91.2955 22.7615 91.4547 22.2715 91.8376 22.2715H96.0769C96.2481 22.2715 96.3999 22.1613 96.4528 21.9985L97.7628 17.9666Z" fill="#EF4335"/>
<path d="M113.571 17.9666C113.69 17.6025 114.205 17.6025 114.323 17.9666L115.633 21.9985C115.686 22.1613 115.838 22.2715 116.009 22.2715H120.248C120.631 22.2715 120.79 22.7615 120.481 22.9865L117.051 25.4783C116.912 25.5789 116.854 25.7573 116.907 25.9202L118.217 29.952C118.336 30.3161 117.919 30.6189 117.609 30.3938L114.18 27.902C114.041 27.8014 113.853 27.8014 113.715 27.902L110.285 30.3938C109.976 30.6189 109.559 30.3161 109.677 29.952L110.987 25.9202C111.04 25.7573 110.982 25.5789 110.844 25.4783L107.414 22.9865C107.104 22.7615 107.263 22.2715 107.646 22.2715H111.885C112.057 22.2715 112.208 22.1613 112.261 21.9985L113.571 17.9666Z" fill="#EF4335"/>
<path d="M128.993 18.7218C129.111 18.3576 129.627 18.3576 129.745 18.7218L131.055 22.7536C131.108 22.9164 131.26 23.0267 131.431 23.0267H133.637H135.262H135.67C136.053 23.0267 136.212 23.5166 135.902 23.7416L135.557 23.9924L134.228 24.9582L132.473 26.2334C132.334 26.3341 132.276 26.5124 132.329 26.6753L133.639 30.7071C133.757 31.0712 133.341 31.374 133.031 31.149L129.601 28.6572C129.463 28.5565 129.275 28.5565 129.137 28.6572L125.707 31.149C125.397 31.374 124.981 31.0712 125.099 30.7071L126.409 26.6753C126.462 26.5124 126.404 26.3341 126.265 26.2334L122.836 23.7416C122.526 23.5166 122.685 23.0267 123.068 23.0267H127.307C127.478 23.0267 127.63 22.9164 127.683 22.7536L128.993 18.7218Z" fill="#EF4335"/>
</svg>
