<svg width="35" height="34" viewBox="0 0 35 34" fill="none" xmlns="http://www.w3.org/2000/svg">
<g clip-path="url(#clip0_515_5284)">
<circle cx="17.5397" cy="17.0382" r="16.545" stroke="#454545" stroke-width="0.737408"/>
<path d="M10.7344 21.4559C12.207 21.5388 13.4948 21.1945 14.7508 20.2829C13.4821 20.0661 12.6023 19.486 12.1242 18.2874C12.4939 18.2364 12.8191 18.332 13.2016 18.179C11.952 17.6308 11.1424 16.8084 11.1105 15.3867C11.5058 15.4186 11.8054 15.68 12.2772 15.6417C11.1296 14.5197 10.779 13.2956 11.4994 11.8102C12.6979 13.1873 14.1005 14.1244 15.8154 14.5643C15.911 14.5898 16.0003 14.6153 16.0959 14.6344C16.5358 14.7364 17.0586 14.9532 17.3263 14.9213C17.7854 14.8639 17.3263 14.3348 17.4411 13.6463C17.8045 11.5042 20.1633 10.5288 21.9101 11.7847C22.4201 12.1545 22.8218 12.1481 23.3254 11.925C23.5868 11.8102 23.8546 11.6955 24.1669 11.5616C24.0968 12.1736 23.625 12.5115 23.2489 12.9641C23.676 13.0597 24.0203 12.9386 24.4156 12.8111C24.2817 13.251 23.9502 13.4996 23.6505 13.7419C23.3382 13.9905 23.217 14.2519 23.2043 14.6599C23.013 20.8375 15.9939 25.6125 11.1934 21.8129C10.728 21.4431 11.1806 21.8129 10.7344 21.4559Z" fill="#454545"/>
</g>
<defs>
<clipPath id="clip0_515_5284">
<rect width="33.8274" height="33.8274" fill="white" transform="translate(0.585938 0.0849609)"/>
</clipPath>
</defs>
</svg>
