<svg width="49" height="56" viewBox="0 0 49 56" fill="none" xmlns="http://www.w3.org/2000/svg">
<path d="M43.5825 53.9746C39.2107 50.9819 33.6309 50.4405 28.5662 49.6174C25.9963 49.1862 23.3969 48.9505 20.8476 48.6499C18.2751 48.3992 15.7225 47.975 13.2072 47.3801C15.4208 48.8438 18.0203 49.6523 20.5599 50.2633C23.0996 50.8743 25.6897 51.2837 28.2483 51.6943C33.4331 52.4973 38.521 52.5208 43.5825 53.9746Z" fill="#454545"/>
<path d="M10.5173 37.6728C17.2654 32.3854 22.9984 25.9318 29.135 20.0204C35.3089 13.9816 42.252 7.85148 46.1207 0.000132464L45.7371 0.429371C45.5914 0.646951 45.4712 0.880595 45.379 1.12568C45.5507 0.935452 45.6569 0.679309 45.8463 0.54098L45.7272 0.4455C43.0685 3.77337 40.1575 6.89157 37.02 9.77246C33.9167 12.7031 30.7311 15.5422 27.6559 18.5244C21.5347 24.5666 16.1435 31.1705 10.5173 37.6728Z" fill="#454545"/>
<path d="M1.10501 31.7908C3.14742 27.3014 3.49782 22.2436 3.8878 17.405C4.27777 12.5664 4.517 7.48639 3.07692 2.75702C2.86735 6.92683 2.41748 11.2789 1.96476 15.4103C1.40935 20.8961 1.58655 26.2972 1.11025 31.7906L1.10501 31.7908Z" fill="#454545"/>
</svg>
