<svg width="29" height="52" viewBox="0 0 29 52" fill="none" xmlns="http://www.w3.org/2000/svg">
<path d="M27.468 9.8237L27.5521 37.9381C27.5624 41.3823 26.2041 44.6814 23.776 47.1095C21.3478 49.5377 18.0487 50.896 14.6045 50.8857C11.1603 50.8754 7.85304 49.4973 5.41032 47.0546C2.9676 44.6119 1.58951 41.3046 1.57921 37.8604L1.49511 9.74601C1.48824 7.44986 2.3938 5.25049 4.01257 3.63172C5.63133 2.01295 7.83071 1.1074 10.1269 1.11427C12.423 1.12113 14.6278 2.03986 16.2563 3.66834C17.8848 5.29682 18.8035 7.50166 18.8104 9.79781L18.8792 37.9275C18.8827 39.0755 18.4299 40.1752 17.6205 40.9846C16.8111 41.794 15.7114 42.2468 14.5634 42.2433C13.4153 42.2399 12.3129 41.7805 11.4986 40.9663C10.6844 40.1521 10.225 39.0496 10.2216 37.9016L10.1593 11.944" stroke="#D1CB28" stroke-linecap="round" stroke-linejoin="round"/>
</svg>
