<svg width="27" height="32" viewBox="0 0 27 32" fill="none" xmlns="http://www.w3.org/2000/svg">
<path d="M24.3955 30.2124C21.9484 28.5372 18.825 28.2342 15.9901 27.7734C14.5516 27.5321 13.0965 27.4001 11.6695 27.2319C10.2296 27.0916 8.80076 26.8541 7.39282 26.5211C8.6319 27.3404 10.087 27.793 11.5085 28.135C12.9301 28.477 14.3799 28.7062 15.8121 28.936C18.7143 29.3855 21.5623 29.3986 24.3955 30.2124Z" fill="#454545"/>
<path d="M5.88728 21.0874C9.66453 18.1278 12.8736 14.5154 16.3086 11.2065C19.7645 7.82622 23.6509 4.39486 25.8164 3.54131e-05L25.6017 0.240305C25.5201 0.362095 25.4528 0.492879 25.4012 0.630069C25.4973 0.523585 25.5568 0.380208 25.6628 0.302777L25.5961 0.249333C24.1079 2.11212 22.4785 3.85754 20.7223 5.47013C18.9851 7.11059 17.202 8.69979 15.4807 10.3691C12.0543 13.7512 9.03654 17.4478 5.88728 21.0874Z" fill="#454545"/>
<path d="M0.618855 17.7946C1.7621 15.2817 1.95824 12.4505 2.17653 9.74211C2.39482 7.0337 2.52873 4.19013 1.72264 1.54285C1.60534 3.87691 1.35352 6.31298 1.10011 8.62557C0.789213 11.6963 0.888404 14.7195 0.621791 17.7945L0.618855 17.7946Z" fill="#454545"/>
</svg>
