<svg width="24" height="64" viewBox="0 0 24 64" fill="none" xmlns="http://www.w3.org/2000/svg">
<g clip-path="url(#clip0_276_1666)">
<path d="M8.65361 0C20.0593 2.67279 23.6088 6.99683 23.8531 17.0653C24.0892 21.7322 24.1787 26.385 22.9575 31.0589C22.1434 34.0466 21.1991 37.0342 20.0267 39.9659C16.6645 48.7749 9.83407 56.4994 1.89648 62.6076C6.14615 57.7099 10.29 52.8121 13.3347 47.4175C16.3795 42.023 18.2194 36.2226 19.7825 30.4012C21.2642 24.7058 21.0851 18.5066 20.8978 12.6573C20.5803 7.83645 18.024 4.58992 13.3185 2.16202C11.8693 1.26643 10.062 0.965562 8.65361 0.0629715V0Z" fill="#454545"/>
<path d="M2.01935 48.4111C3.32193 50.4192 3.15911 52.9941 3.41962 55.1561C3.60687 57.493 3.16725 59.683 3.26494 61.943C3.26494 62.02 3.26494 61.943 3.18353 61.7401C3.11502 61.6114 3.01175 61.4987 2.88231 61.4112C2.77375 61.3264 2.64221 61.2663 2.49968 61.2363C2.32872 61.2363 2.37756 61.2363 2.42641 61.2363C3.44405 61.1314 4.51867 60.6906 5.5933 60.6066C8.13333 60.2358 10.8199 60.3687 13.2459 59.795C14.1659 59.4591 15.3219 59.5711 16.25 59.3122C15.5336 60.0119 14.6218 60.1798 13.8077 60.7675C11.52 62.1669 8.77648 62.4957 6.19574 63.1255C5.07227 63.3214 4.07091 63.8671 2.71135 63.9791C2.32419 64.0406 1.92525 64.0177 1.55108 63.9123C1.17692 63.807 0.839494 63.6227 0.569724 63.3762C0.299954 63.1297 0.106468 62.829 0.00699318 62.5016C-0.0924813 62.1742 -0.0947627 61.8306 0.000357814 61.5022C-0.113618 59.4032 0.586518 57.1782 0.814469 55.1561C1.07498 52.7422 1.94608 50.7271 1.97051 48.4111H2.01935Z" fill="#454545"/>
</g>
<defs>
<clipPath id="clip0_276_1666">
<rect width="24" height="64" fill="white"/>
</clipPath>
</defs>
</svg>
