<svg width="24" height="64" viewBox="0 0 24 64" fill="none" xmlns="http://www.w3.org/2000/svg">
<g clip-path="url(#clip0_276_1665)">
<path d="M15.3464 0C3.94069 2.67279 0.391169 6.99683 0.146935 17.0653C-0.0891571 21.7322 -0.178711 26.385 1.04246 31.0589C1.85657 34.0466 2.80094 37.0342 3.97326 39.9659C7.33554 48.7749 14.1659 56.4994 22.1035 62.6076C17.8539 57.7099 13.71 52.8121 10.6653 47.4175C7.62048 42.023 5.78058 36.2226 4.21749 30.4012C2.73581 24.7058 2.91491 18.5066 3.10216 12.6573C3.41966 7.83645 5.97597 4.58992 10.6815 2.16202C12.1307 1.26643 13.938 0.965562 15.3464 0.0629715V0Z" fill="#454545"/>
<path d="M21.9806 48.4111C20.6781 50.4192 20.8409 52.9941 20.5804 55.1561C20.3931 57.493 20.8327 59.683 20.7351 61.943C20.7351 62.02 20.7351 61.943 20.8165 61.7401C20.885 61.6114 20.9882 61.4987 21.1177 61.4112C21.2263 61.3264 21.3578 61.2663 21.5003 61.2363C21.6713 61.2363 21.6224 61.2363 21.5736 61.2363C20.556 61.1314 19.4813 60.6906 18.4067 60.6066C15.8667 60.2358 13.1801 60.3687 10.7541 59.795C9.83411 59.4591 8.67807 59.5711 7.74998 59.3122C8.4664 60.0119 9.37821 60.1798 10.1923 60.7675C12.48 62.1669 15.2235 62.4957 17.8043 63.1255C18.9277 63.3214 19.9291 63.8671 21.2887 63.9791C21.6758 64.0406 22.0747 64.0177 22.4489 63.9123C22.8231 63.807 23.1605 63.6227 23.4303 63.3762C23.7 63.1297 23.8935 62.829 23.993 62.5016C24.0925 62.1742 24.0948 61.8306 23.9996 61.5022C24.1136 59.4032 23.4135 57.1782 23.1855 55.1561C22.925 52.7422 22.0539 50.7271 22.0295 48.4111H21.9806Z" fill="#454545"/>
</g>
<defs>
<clipPath id="clip0_276_1665">
<rect width="24" height="64" fill="white" transform="matrix(-1 0 0 1 24 0)"/>
</clipPath>
</defs>
</svg>
