<svg width="46" height="30" viewBox="0 0 46 30" fill="none" xmlns="http://www.w3.org/2000/svg">
<path d="M31.6055 11.3329L38.247 19.3028L44.8886 11.3329" stroke="#3CA0D2" stroke-width="0.942096" stroke-linecap="round"/>
<path d="M21.1341 7.11538L21.174 20.4771C21.1789 22.1141 20.5334 23.682 19.3794 24.836C18.2253 25.99 16.6574 26.6356 15.0205 26.6307C13.3836 26.6258 11.8118 25.9708 10.6508 24.8099C9.48989 23.649 8.83493 22.0771 8.83004 20.4402L8.79007 7.07845C8.78681 5.98718 9.21718 4.94189 9.98653 4.17255C10.7559 3.4032 11.8012 2.97283 12.8924 2.97609C13.9837 2.97935 15.0316 3.41599 15.8055 4.18995C16.5795 4.96391 17.0161 6.01179 17.0194 7.10307L17.0521 20.4721C17.0538 21.0177 16.8386 21.5404 16.4539 21.925C16.0692 22.3097 15.5466 22.5249 15.0009 22.5233C14.4553 22.5216 13.9314 22.3033 13.5444 21.9163C13.1574 21.5294 12.9391 21.0054 12.9375 20.4598L12.9078 8.12306" stroke="#454545" stroke-opacity="0.5" stroke-width="0.942096" stroke-linecap="round" stroke-linejoin="round"/>
</svg>
