<svg width="81" height="65" viewBox="0 0 81 65" fill="none" xmlns="http://www.w3.org/2000/svg">
<path d="M24.044 21.5247C27.938 17.2372 31.0533 12.2012 35.4602 8.47024M23.331 26.6007C30.2586 19.7559 35.6386 12.2005 37.6727 6.65207M23.4947 28.7302C28.0802 20.5405 33.1349 15.7594 41.1808 8.18096M23.4158 30.1364C29.8052 21.9772 36.1495 15.8792 42.2364 7.27285M22 33.5966C32.3017 21.7149 40.9182 11.8725 46.7805 5.68483M23.0213 34.3267C29.3066 26.309 35.9367 18.229 47.5722 4.95271M23.9402 36.0864C31.3025 27.3183 38.9521 15.5077 48.1401 4M24.3599 37.9078C35.2721 25.7135 45.1851 12.6298 50.0982 4.17715M24.522 40.8081C29.3929 30.9682 36.9279 23.3204 51.7167 4.75637M25.2998 41.2343C33.6301 29.2043 44.806 17.4388 55.6514 4.76547M25.9707 43.6276C35.8772 29.3821 48.594 15.5609 54.9838 5.33371M26.3812 44.9722C34.677 32.8142 42.3988 22.9885 58.3151 4.60272M26.4009 46.2575C35.5407 32.4756 45.8431 21.98 57.5063 4.78057M25.6818 46.7741C37.0888 33.6953 46.0248 22.4153 59.1154 7.33277M27.9989 47.5792C34.6238 39.9852 40.7814 32.5336 62.348 6.62228M28.8995 48.6606C40.0309 35.8111 53.8546 19.7899 64.2464 7.5484M30.348 50.2678C42.5664 33.9178 53.4992 20.3224 64.7948 9.17647M29.4025 52.5439C42.8448 35.3266 58.0333 17.1093 64.5722 7.63508M31.7178 51.2631C39.7413 42.5567 48.3722 32.3357 66.2191 8.46536M32.6021 53.1701C45.6294 38.7848 56.4924 24.6335 67.6147 10.4512M32.4984 53.0875C44.6545 42.4833 55.8334 29.2146 68.3342 11.6088M33.8957 54.1424C48.0466 39.6504 60.0248 24.4114 70.1307 11.2314M35.3345 55.062C50.1484 39.998 63.1808 21.6049 71.077 12.3983M34.9741 56.5387C43.1564 45.5112 53.8056 35.4177 71.5865 12.4318M37.0746 56.5504C46.4141 45.8463 55.0301 35.9997 72.7667 13.3161M39.3528 57.9752C50.0354 45.7878 61.8653 29.9096 74.2118 16.8504M39.5169 60.286C49.7601 47.555 57.7966 35.1621 74.4339 15.9696M41.255 59.0696C48.4246 48.5602 59.4455 38.9556 74.9006 18.3073M41.5821 60.5727C51.9735 45.7709 63.4031 34.492 74.7888 18.053M43.9311 60.2367C55.4519 46.5167 68.6755 30.341 76.8531 20.2619M45.4768 59.8414C50.9503 52.6372 59.8303 44.5396 77.0716 22.5795M45.8977 60.917C55.8611 49.0681 67.9412 34.2833 77.9529 22.3351M48.5544 61.5226C59.1898 46.7572 68.4356 34.1566 77.3854 26.0249M49.3236 62.3092C58.8199 51.6765 67.0653 41.8901 77.6652 26.5199M50.5767 62.5118C58.6458 53.5817 63.7317 44.7926 79.5427 28.7209M53.2732 61.1122C63.2151 50.9918 71.745 41.7109 78.5204 28.1527M54.5057 61.2787C61.3506 50.5966 68.865 41.0556 78.2663 32.4565M56.4993 60.209C66.1464 50.3741 73.1578 40.4109 78.5666 33.5015M59.6943 60.4006C66.0337 50.5772 73.1999 42.2989 80.5118 36.7523M61.8259 60.0459C67.2698 52.2713 75.1056 44.2302 79.7398 37.2898M64.4047 57.1152C69.8623 51.4173 73.2153 46.9111 78.5582 43.0383M66.9055 55.6366C70.2461 52.6634 74.0547 47.525 77.6692 44.766M30.7767 12.7691V12.7691Z" stroke="url(#paint0_linear_276_1425)" stroke-width="0.257599" stroke-linecap="round"/>
<path fill-rule="evenodd" clip-rule="evenodd" d="M37.5275 34.6807C36.988 33.8552 36.5232 32.994 36.13 32.2465C35.5775 31.2032 35.8082 30.0105 36.7182 29.2077C37.0107 28.951 37.3032 28.691 37.5925 28.4277L37.6282 28.3952C37.6217 28.145 37.651 27.9207 37.677 27.742C37.5145 27.5957 37.3585 27.4527 37.2057 27.3097C37.0497 27.1635 36.8905 27.0172 36.7312 26.8742C35.8017 26.052 35.5775 24.8365 36.1657 23.7737C36.6792 22.8475 37.144 22.0447 37.5892 21.3232C38.054 20.5725 38.8015 20.1402 39.6465 20.1402C39.952 20.1402 40.2607 20.1987 40.5662 20.3092C40.6962 20.3417 40.901 20.4002 41.1252 20.527C41.1285 20.527 41.1309 20.5286 41.1334 20.5302C41.1358 20.5318 41.1382 20.5335 41.1415 20.5335C41.1141 20.4835 41.0877 20.4336 41.0611 20.3835C41.0151 20.2967 40.9688 20.2094 40.9172 20.1207C38.1677 15.4082 33.8452 13.1852 28.3235 13.7767C23.4322 14.2967 19.9157 16.952 17.9592 21.3882C15.9702 25.9025 16.474 30.3192 19.4185 34.346L19.6198 34.6208C21.1847 36.7573 22.7437 38.8857 23.741 41.3757C23.845 41.6357 24.3065 41.8957 24.612 41.9055C25.8941 41.9445 27.1762 41.9396 28.4583 41.9347C28.8857 41.9331 29.3131 41.9315 29.7405 41.9315C30.1816 41.9315 30.6228 41.9332 31.0639 41.9349C32.3323 41.9399 33.6006 41.9449 34.869 41.9087C35.1907 41.899 35.6912 41.6812 35.792 41.431C36.6045 39.3867 37.833 37.609 39.081 35.841C38.4732 35.7012 37.9532 35.3112 37.534 34.671L37.5275 34.6807ZM29.162 20.813C26.6335 21.0632 24.729 22.672 24.1245 25.1095C24.022 25.5249 23.9744 25.9553 23.9271 26.3832C23.9203 26.444 23.9136 26.5048 23.9067 26.5655C23.8092 27.4267 23.3705 27.9012 22.4735 27.7972C21.596 27.6932 21.427 27.0335 21.388 26.5362C21.5115 22.178 24.924 18.564 28.941 18.304C30.3125 18.2162 30.9267 18.5412 30.9982 19.3927C31.073 20.2572 30.5302 20.6797 29.1587 20.813H29.162ZM55.234 25.1322C55.2205 25.1574 55.2056 25.1893 55.1886 25.2255C55.1399 25.3295 55.0745 25.4691 54.9805 25.5872C54.8915 25.7007 54.7797 25.7974 54.668 25.894C54.6164 25.9385 54.5649 25.9831 54.5157 26.0292L54.503 26.0409C53.2904 27.157 53.2843 27.1627 53.3717 28.795C53.3815 28.9477 53.5147 29.12 53.6382 29.237C54.0412 29.627 54.4572 30.004 54.8797 30.368C55.2437 30.6832 55.3477 31.0732 55.1332 31.4762C54.675 32.3277 54.181 33.163 53.6675 33.9852C53.44 34.3492 53.0565 34.398 52.6535 34.268C52.3039 34.1545 51.9528 34.0442 51.6011 33.9337L51.6009 33.9336C51.4492 33.8859 51.2973 33.8382 51.1455 33.7902C51.1172 33.7814 51.0889 33.7718 51.0606 33.7621C50.9947 33.7396 50.9287 33.7171 50.8627 33.7057C50.489 33.6342 48.981 34.658 48.903 35.035C48.7925 35.568 48.6852 36.0977 48.578 36.6307C48.4935 37.0532 48.2432 37.336 47.8142 37.3457C46.8165 37.3717 45.8155 37.3717 44.8177 37.3457C44.4082 37.336 44.171 37.0597 44.0865 36.6567C44.0589 36.5196 44.0327 36.382 44.0065 36.2445L44.0064 36.244C43.9278 35.8308 43.8492 35.4177 43.7322 35.0155C43.6672 34.7977 43.4722 34.5962 43.287 34.4435C43.1975 34.3682 43.0861 34.3186 42.975 34.2692L42.975 34.2692C42.856 34.2163 42.7375 34.1635 42.6467 34.0795C42.1625 33.6407 41.6685 33.6602 41.1127 33.9137C40.9187 34.0033 40.7093 34.0606 40.5002 34.1179L40.5001 34.118C40.3904 34.148 40.2808 34.1781 40.1735 34.2127C39.504 34.424 39.2245 34.3817 38.8507 33.813C38.3665 33.072 37.9407 32.2887 37.5247 31.5055C37.3102 31.0992 37.4012 30.706 37.762 30.3907C38.0057 30.176 38.2471 29.9601 38.4883 29.7445L38.4886 29.7442C38.6525 29.5977 38.8163 29.4512 38.9807 29.3052C39.0011 29.2875 39.0234 29.2705 39.0459 29.2534C39.1056 29.2079 39.166 29.1619 39.192 29.1005C39.2472 28.9737 39.27 28.808 39.2797 28.6942C39.3009 28.4544 39.3321 28.2529 39.3592 28.078L39.3592 28.0779C39.4486 27.5015 39.4933 27.2128 38.9872 26.7865C38.7403 26.5781 38.5037 26.3584 38.2672 26.1387L38.2672 26.1387L38.2672 26.1387C38.1052 25.9882 37.9433 25.8378 37.7782 25.6912C37.4045 25.3597 37.3135 24.9665 37.5507 24.5375C37.996 23.7315 38.4542 22.9352 38.9352 22.152C39.1887 21.7392 39.5852 21.6157 40.0532 21.801C40.0902 21.8155 40.1298 21.8252 40.1693 21.8348C40.227 21.849 40.2844 21.863 40.3327 21.892C41.454 22.542 42.4777 22.3015 43.43 21.5345C43.5795 21.4142 43.6965 21.2127 43.7452 21.0242C43.8476 20.6294 43.928 20.229 44.0085 19.8287L44.0086 19.8278C44.0354 19.6946 44.0621 19.5614 44.0897 19.4285C44.171 19.032 44.3887 18.7947 44.8015 18.7102C45.8317 18.4957 46.862 18.5055 47.8922 18.7102C48.279 18.785 48.5 19.0125 48.578 19.3927C48.5865 19.4352 48.5999 19.4772 48.6133 19.5189C48.6358 19.589 48.658 19.6582 48.656 19.7275C48.6527 21.0145 49.345 21.8042 50.476 22.269C50.6385 22.3372 50.8562 22.3502 51.0252 22.3047C51.2683 22.2389 51.5081 22.1592 51.7475 22.0796C52.0874 21.9667 52.4266 21.8539 52.7737 21.7815C53.0207 21.7295 53.3977 21.8107 53.57 21.9797C54.363 22.7532 54.8342 23.738 55.2112 24.765C55.2282 24.8137 55.2299 24.868 55.2327 24.9539V24.9539V24.954C55.2342 24.9998 55.2359 25.0547 55.2405 25.1225L55.234 25.1322ZM49.3125 28.0377C49.3125 26.3087 48.0482 25.0445 46.3192 25.0477C44.6065 25.0477 43.3292 26.3347 43.3357 28.054C43.339 29.7407 44.6162 31.0147 46.3095 31.018C48.0417 31.0212 49.3125 29.7635 49.3092 28.041L49.3125 28.0377ZM33.0464 50.3815C35.1166 49.0295 35.7601 46.956 35.5749 44.4178L35.5684 44.4145C34.9056 44.4145 34.2453 44.4142 33.587 44.4139C30.5265 44.4125 27.5094 44.4111 24.4924 44.4405C24.3039 44.4438 23.9789 44.8013 23.9496 45.0255C23.6669 47.255 24.9701 49.6763 26.9591 50.6675C29.0391 51.7043 31.1224 51.6393 33.0464 50.3815Z" fill="#454545"/>
<defs>
<linearGradient id="paint0_linear_276_1425" x1="28.0121" y1="11.7236" x2="85.3301" y2="41.6325" gradientUnits="userSpaceOnUse">
<stop stop-color="#3CA0D2"/>
<stop offset="1" stop-color="#48DCA6"/>
</linearGradient>
</defs>
</svg>
