<svg width="81" height="65" viewBox="0 0 81 65" fill="none" xmlns="http://www.w3.org/2000/svg">
<path d="M24.044 21.5247C27.938 17.2372 31.0533 12.2012 35.4602 8.47024M23.331 26.6007C30.2586 19.7559 35.6386 12.2005 37.6727 6.65207M23.4947 28.7302C28.0802 20.5405 33.1349 15.7594 41.1808 8.18096M23.4158 30.1364C29.8052 21.9772 36.1495 15.8792 42.2364 7.27285M22 33.5966C32.3017 21.7149 40.9182 11.8725 46.7805 5.68483M23.0213 34.3267C29.3066 26.309 35.9367 18.229 47.5722 4.95271M23.9402 36.0864C31.3025 27.3183 38.9521 15.5077 48.1401 4M24.3599 37.9078C35.2721 25.7135 45.1851 12.6298 50.0982 4.17715M24.522 40.8081C29.3929 30.9682 36.9279 23.3204 51.7167 4.75637M25.2998 41.2343C33.6301 29.2043 44.806 17.4388 55.6514 4.76547M25.9707 43.6276C35.8772 29.3821 48.594 15.5609 54.9838 5.33371M26.3812 44.9722C34.677 32.8142 42.3988 22.9885 58.3151 4.60272M26.4009 46.2575C35.5407 32.4756 45.8431 21.98 57.5063 4.78057M25.6818 46.7741C37.0888 33.6953 46.0248 22.4153 59.1154 7.33277M27.9989 47.5792C34.6238 39.9852 40.7814 32.5336 62.348 6.62228M28.8995 48.6606C40.0309 35.8111 53.8546 19.7899 64.2464 7.5484M30.348 50.2678C42.5664 33.9178 53.4992 20.3224 64.7948 9.17647M29.4025 52.5439C42.8448 35.3266 58.0333 17.1093 64.5722 7.63508M31.7178 51.2631C39.7413 42.5567 48.3722 32.3357 66.2191 8.46536M32.6021 53.1701C45.6294 38.7848 56.4924 24.6335 67.6147 10.4512M32.4984 53.0875C44.6545 42.4833 55.8334 29.2146 68.3342 11.6088M33.8957 54.1424C48.0466 39.6504 60.0248 24.4114 70.1307 11.2314M35.3345 55.062C50.1484 39.998 63.1808 21.6049 71.077 12.3983M34.9741 56.5387C43.1564 45.5112 53.8056 35.4177 71.5865 12.4318M37.0746 56.5504C46.4141 45.8463 55.0301 35.9997 72.7667 13.3161M39.3528 57.9752C50.0354 45.7878 61.8653 29.9096 74.2118 16.8504M39.5169 60.286C49.7601 47.555 57.7966 35.1621 74.4339 15.9696M41.255 59.0696C48.4246 48.5602 59.4455 38.9556 74.9006 18.3073M41.5821 60.5727C51.9735 45.7709 63.4031 34.492 74.7888 18.053M43.9311 60.2367C55.4519 46.5167 68.6755 30.341 76.8531 20.2619M45.4768 59.8414C50.9503 52.6372 59.8303 44.5396 77.0716 22.5795M45.8977 60.917C55.8611 49.0681 67.9412 34.2833 77.9529 22.3351M48.5544 61.5226C59.1898 46.7572 68.4356 34.1566 77.3854 26.0249M49.3236 62.3092C58.8199 51.6765 67.0653 41.8901 77.6652 26.5199M50.5767 62.5118C58.6458 53.5817 63.7317 44.7926 79.5427 28.7209M53.2732 61.1122C63.2151 50.9918 71.745 41.7109 78.5204 28.1527M54.5057 61.2787C61.3506 50.5966 68.865 41.0556 78.2663 32.4565M56.4993 60.209C66.1464 50.3741 73.1578 40.4109 78.5666 33.5015M59.6943 60.4006C66.0337 50.5772 73.1999 42.2989 80.5118 36.7523M61.8259 60.0459C67.2698 52.2713 75.1056 44.2302 79.7398 37.2898M64.4047 57.1152C69.8623 51.4173 73.2153 46.9111 78.5582 43.0383M66.9055 55.6366C70.2461 52.6634 74.0547 47.525 77.6692 44.766M30.7767 12.7691V12.7691Z" stroke="url(#paint0_linear_276_1464)" stroke-width="0.257599" stroke-linecap="round"/>
<path fill-rule="evenodd" clip-rule="evenodd" d="M31.8749 28.7639C31.8684 28.8705 31.861 28.9895 31.8537 29.1266C31.7733 29.0504 31.7021 28.9833 31.6379 28.9227C31.4557 28.7507 31.3295 28.6317 31.207 28.5091C30.7148 28.0133 30.2231 27.5166 29.7314 27.0198C28.9112 26.1912 28.0908 25.3625 27.268 24.5376C26.592 23.8616 25.6657 23.8031 25.1035 24.3849C24.5217 24.9861 24.5705 25.7986 25.2627 26.4941C27.5572 28.7984 29.8582 31.0994 32.1625 33.3939C32.832 34.0601 33.6575 34.0829 34.327 33.4166C36.6637 31.0994 38.9907 28.7691 41.3112 26.4324C41.8897 25.8506 41.9157 24.9114 41.412 24.3849C40.892 23.8389 39.9267 23.8551 39.3255 24.4466C38.7294 25.0296 38.1436 25.6227 37.5581 26.2154C37.2657 26.5114 36.9734 26.8074 36.68 27.1019C36.2049 27.5794 35.728 28.0532 35.2506 28.5276C35.0912 28.686 34.9317 28.8444 34.7722 29.0031L34.6357 28.9316V28.2979C34.6357 27.2371 34.6355 26.1762 34.6353 25.1154C34.6347 21.9317 34.6341 18.7481 34.639 15.5644C34.6422 14.9209 34.4765 14.3781 33.8492 14.0954C32.858 13.6501 31.9025 14.2904 31.9025 15.4084C31.8992 19.6724 31.8992 23.9364 31.8992 28.2004C31.8992 28.37 31.8888 28.5396 31.8749 28.7639ZM49.8976 32.5506L49.8976 32.5506C49.7933 32.5126 49.6872 32.474 49.5788 32.4349C50.4335 29.2466 49.9395 26.4289 47.3558 24.3261C45.7828 23.0489 44.1123 22.5809 42.3768 22.7336C42.5198 22.8376 42.6563 22.9546 42.7798 23.0814C44.0018 24.3619 43.9465 26.4614 42.653 27.7614C39.9783 30.4524 37.7553 32.6754 35.659 34.7554C34.9863 35.4216 34.138 35.7889 33.267 35.7889C32.3863 35.7889 31.5218 35.4119 30.836 34.7294C28.3498 32.2529 26.091 29.9941 23.9298 27.8231C22.5258 26.4126 22.451 24.4139 23.751 23.0684C24.3588 22.4411 25.1745 22.0966 26.0488 22.0966C26.9848 22.0966 27.8948 22.4899 28.6065 23.2016C28.842 23.4371 29.0767 23.6734 29.3113 23.9097L29.3118 23.9101C29.5466 24.1466 29.7814 24.383 30.017 24.6186V23.1009V18.0049C29.4158 17.9334 28.8015 17.9009 28.1613 17.9204C21.697 18.0959 16.8545 22.9774 16.5588 29.4709C16.523 30.2249 16.2565 30.5726 15.5935 30.8749C10.9038 33.0166 8.476 37.9729 9.60375 43.0201C10.699 47.9276 15.002 51.3564 20.098 51.3596C29.2988 51.3661 38.4995 51.3661 47.697 51.3596C52.3315 51.3596 56.2413 48.0804 57.005 43.5824C57.8143 38.8016 55.2078 34.3524 50.7098 32.8379H50.7065C50.4397 32.7482 50.1747 32.6516 49.8976 32.5506ZM36.5233 24.5796L36.5266 24.5763V24.5796H36.5233ZM36.5266 24.5763V21.0793C37.1116 21.6351 37.6673 22.2526 38.1841 22.9383C38.1223 22.9903 38.0606 23.0423 38.0021 23.1008C37.5027 23.5905 37.0098 24.0866 36.5266 24.5763Z" fill="#454545"/>
<defs>
<linearGradient id="paint0_linear_276_1464" x1="28.0121" y1="11.7236" x2="85.3301" y2="41.6325" gradientUnits="userSpaceOnUse">
<stop stop-color="#3CA0D2"/>
<stop offset="1" stop-color="#48DCA6"/>
</linearGradient>
</defs>
</svg>
