<svg width="81" height="65" viewBox="0 0 81 65" fill="none" xmlns="http://www.w3.org/2000/svg">
<path d="M24.044 21.5247C27.938 17.2372 31.0533 12.2012 35.4602 8.47024M23.331 26.6007C30.2586 19.7559 35.6386 12.2005 37.6727 6.65207M23.4947 28.7302C28.0802 20.5405 33.1349 15.7594 41.1808 8.18096M23.4158 30.1364C29.8052 21.9772 36.1495 15.8792 42.2364 7.27285M22 33.5966C32.3017 21.7149 40.9182 11.8725 46.7805 5.68483M23.0213 34.3267C29.3066 26.309 35.9367 18.229 47.5722 4.95271M23.9402 36.0864C31.3025 27.3183 38.9521 15.5077 48.1401 4M24.3599 37.9078C35.2721 25.7135 45.1851 12.6298 50.0982 4.17715M24.522 40.8081C29.3929 30.9682 36.9279 23.3204 51.7167 4.75637M25.2998 41.2343C33.6301 29.2043 44.806 17.4388 55.6514 4.76547M25.9707 43.6276C35.8772 29.3821 48.594 15.5609 54.9838 5.33371M26.3812 44.9722C34.677 32.8142 42.3988 22.9885 58.3151 4.60272M26.4009 46.2575C35.5407 32.4756 45.8431 21.98 57.5063 4.78057M25.6818 46.7741C37.0888 33.6953 46.0248 22.4153 59.1154 7.33277M27.9989 47.5792C34.6238 39.9852 40.7814 32.5336 62.348 6.62228M28.8995 48.6606C40.0309 35.8111 53.8546 19.7899 64.2464 7.5484M30.348 50.2678C42.5664 33.9178 53.4992 20.3224 64.7948 9.17647M29.4025 52.5439C42.8448 35.3266 58.0333 17.1093 64.5722 7.63508M31.7178 51.2631C39.7413 42.5567 48.3722 32.3357 66.2191 8.46536M32.6021 53.1701C45.6294 38.7848 56.4924 24.6335 67.6147 10.4512M32.4984 53.0875C44.6545 42.4833 55.8334 29.2146 68.3342 11.6088M33.8957 54.1424C48.0466 39.6504 60.0248 24.4114 70.1307 11.2314M35.3345 55.062C50.1484 39.998 63.1808 21.6049 71.077 12.3983M34.9741 56.5387C43.1564 45.5112 53.8056 35.4177 71.5865 12.4318M37.0746 56.5504C46.4141 45.8463 55.0301 35.9997 72.7667 13.3161M39.3528 57.9752C50.0354 45.7878 61.8653 29.9096 74.2118 16.8504M39.5169 60.286C49.7601 47.555 57.7966 35.1621 74.4339 15.9696M41.255 59.0696C48.4246 48.5602 59.4455 38.9556 74.9006 18.3073M41.5821 60.5727C51.9735 45.7709 63.4031 34.492 74.7888 18.053M43.9311 60.2367C55.4519 46.5167 68.6755 30.341 76.8531 20.2619M45.4768 59.8414C50.9503 52.6372 59.8303 44.5396 77.0716 22.5795M45.8977 60.917C55.8611 49.0681 67.9412 34.2833 77.9529 22.3351M48.5544 61.5226C59.1898 46.7572 68.4356 34.1566 77.3854 26.0249M49.3236 62.3092C58.8199 51.6765 67.0653 41.8901 77.6652 26.5199M50.5767 62.5118C58.6458 53.5817 63.7317 44.7926 79.5427 28.7209M53.2732 61.1122C63.2151 50.9918 71.745 41.7109 78.5204 28.1527M54.5057 61.2787C61.3506 50.5966 68.865 41.0556 78.2663 32.4565M56.4993 60.209C66.1464 50.3741 73.1578 40.4109 78.5666 33.5015M59.6943 60.4006C66.0337 50.5772 73.1999 42.2989 80.5118 36.7523M61.8259 60.0459C67.2698 52.2713 75.1056 44.2302 79.7398 37.2898M64.4047 57.1152C69.8623 51.4173 73.2153 46.9111 78.5582 43.0383M66.9055 55.6366C70.2461 52.6634 74.0547 47.525 77.6692 44.766M30.7767 12.7691V12.7691Z" stroke="url(#paint0_linear_516_3384)" stroke-width="0.257599" stroke-linecap="round"/>
<path fill-rule="evenodd" clip-rule="evenodd" d="M30.0631 17.6017V23.8352H30.0599H9.85462V17.6017C9.85462 15.0862 11.9021 13.042 14.4144 13.042H25.5034C28.0189 13.042 30.0631 15.0895 30.0631 17.6017ZM9.85449 27.0072V26.4352H30.063V27.0072C30.063 29.5227 28.0155 31.567 25.5032 31.567H14.4142C11.8987 31.567 9.85449 29.5195 9.85449 27.0072ZM31.3048 44.6776V45.6526C31.3048 48.5516 33.6643 50.9111 36.5633 50.9111H50.0313C52.9303 50.9111 55.2898 48.5516 55.2898 45.6526V44.6776H31.3048ZM55.2931 34.2255V42.0775H31.3081V34.2255C31.3081 31.3265 33.6676 28.967 36.5666 28.967H50.0346C52.9336 28.967 55.2931 31.3265 55.2931 34.2255ZM25.8826 43.1857C26.0621 43.1857 26.2076 43.0402 26.2076 42.8607C26.2076 42.6812 26.0621 42.5357 25.8826 42.5357C25.7031 42.5357 25.5576 42.6812 25.5576 42.8607C25.5576 43.0402 25.7031 43.1857 25.8826 43.1857ZM21.3326 42.8607C21.3326 43.2197 21.0416 43.5107 20.6826 43.5107C20.3236 43.5107 20.0326 43.2197 20.0326 42.8607C20.0326 42.5017 20.3236 42.2107 20.6826 42.2107C21.0416 42.2107 21.3326 42.5017 21.3326 42.8607ZM15.9377 42.2075C16.4762 42.2075 16.9127 41.7709 16.9127 41.2325C16.9127 40.694 16.4762 40.2575 15.9377 40.2575C15.3992 40.2575 14.9627 40.694 14.9627 41.2325C14.9627 41.7709 15.3992 42.2075 15.9377 42.2075ZM16.6753 36.0942C16.6753 36.8122 16.0933 37.3942 15.3753 37.3942C14.6574 37.3942 14.0753 36.8122 14.0753 36.0942C14.0753 35.3762 14.6574 34.7942 15.3753 34.7942C16.0933 34.7942 16.6753 35.3762 16.6753 36.0942ZM34.9705 18.528C35.15 18.528 35.2955 18.3825 35.2955 18.203C35.2955 18.0235 35.15 17.878 34.9705 17.878C34.791 17.878 34.6455 18.0235 34.6455 18.203C34.6455 18.3825 34.791 18.528 34.9705 18.528ZM40.8237 18.203C40.8237 18.562 40.5327 18.853 40.1737 18.853C39.8147 18.853 39.5237 18.562 39.5237 18.203C39.5237 17.844 39.8147 17.553 40.1737 17.553C40.5327 17.553 40.8237 17.844 40.8237 18.203ZM44.9189 20.8062C45.4574 20.8062 45.8939 20.3697 45.8939 19.8312C45.8939 19.2928 45.4574 18.8562 44.9189 18.8562C44.3804 18.8562 43.9439 19.2928 43.9439 19.8312C43.9439 20.3697 44.3804 20.8062 44.9189 20.8062ZM46.7778 24.9695C46.7778 25.6875 46.1958 26.2695 45.4778 26.2695C44.7598 26.2695 44.1778 25.6875 44.1778 24.9695C44.1778 24.2515 44.7598 23.6695 45.4778 23.6695C46.1958 23.6695 46.7778 24.2515 46.7778 24.9695Z" fill="white"/>
<defs>
<linearGradient id="paint0_linear_516_3384" x1="28.0121" y1="11.7236" x2="85.3301" y2="41.6325" gradientUnits="userSpaceOnUse">
<stop stop-color="white"/>
<stop offset="1" stop-color="white"/>
</linearGradient>
</defs>
</svg>
