<svg width="81" height="65" viewBox="0 0 81 65" fill="none" xmlns="http://www.w3.org/2000/svg">
<path d="M24.044 21.5247C27.938 17.2372 31.0533 12.2012 35.4602 8.47024M23.331 26.6007C30.2586 19.7559 35.6386 12.2005 37.6727 6.65207M23.4947 28.7302C28.0802 20.5405 33.1349 15.7594 41.1808 8.18096M23.4158 30.1364C29.8052 21.9772 36.1495 15.8792 42.2364 7.27285M22 33.5966C32.3017 21.7149 40.9182 11.8725 46.7805 5.68483M23.0213 34.3267C29.3066 26.309 35.9367 18.229 47.5722 4.95271M23.9402 36.0864C31.3025 27.3183 38.9521 15.5077 48.1401 4M24.3599 37.9078C35.2721 25.7135 45.1851 12.6298 50.0982 4.17715M24.522 40.8081C29.3929 30.9682 36.9279 23.3204 51.7167 4.75637M25.2998 41.2343C33.6301 29.2043 44.806 17.4388 55.6514 4.76547M25.9707 43.6276C35.8772 29.3821 48.594 15.5609 54.9838 5.33371M26.3812 44.9722C34.677 32.8142 42.3988 22.9885 58.3151 4.60272M26.4009 46.2575C35.5407 32.4756 45.8431 21.98 57.5063 4.78057M25.6818 46.7741C37.0888 33.6953 46.0248 22.4153 59.1154 7.33277M27.9989 47.5792C34.6238 39.9852 40.7814 32.5336 62.348 6.62228M28.8995 48.6606C40.0309 35.8111 53.8546 19.7899 64.2464 7.5484M30.348 50.2678C42.5664 33.9178 53.4992 20.3224 64.7948 9.17647M29.4025 52.5439C42.8448 35.3266 58.0333 17.1093 64.5722 7.63508M31.7178 51.2631C39.7413 42.5567 48.3722 32.3357 66.2191 8.46536M32.6021 53.1701C45.6294 38.7848 56.4924 24.6335 67.6147 10.4512M32.4984 53.0875C44.6545 42.4833 55.8334 29.2146 68.3342 11.6088M33.8957 54.1424C48.0466 39.6504 60.0248 24.4114 70.1307 11.2314M35.3345 55.062C50.1484 39.998 63.1808 21.6049 71.077 12.3983M34.9741 56.5387C43.1564 45.5112 53.8056 35.4177 71.5865 12.4318M37.0746 56.5504C46.4141 45.8463 55.0301 35.9997 72.7667 13.3161M39.3528 57.9752C50.0354 45.7878 61.8653 29.9096 74.2118 16.8504M39.5169 60.286C49.7601 47.555 57.7966 35.1621 74.4339 15.9696M41.255 59.0696C48.4246 48.5602 59.4455 38.9556 74.9006 18.3073M41.5821 60.5727C51.9735 45.7709 63.4031 34.492 74.7888 18.053M43.9311 60.2367C55.4519 46.5167 68.6755 30.341 76.8531 20.2619M45.4768 59.8414C50.9503 52.6372 59.8303 44.5396 77.0716 22.5795M45.8977 60.917C55.8611 49.0681 67.9412 34.2833 77.9529 22.3351M48.5544 61.5226C59.1898 46.7572 68.4356 34.1566 77.3854 26.0249M49.3236 62.3092C58.8199 51.6765 67.0653 41.8901 77.6652 26.5199M50.5767 62.5118C58.6458 53.5817 63.7317 44.7926 79.5427 28.7209M53.2732 61.1122C63.2151 50.9918 71.745 41.7109 78.5204 28.1527M54.5057 61.2787C61.3506 50.5966 68.865 41.0556 78.2663 32.4565M56.4993 60.209C66.1464 50.3741 73.1578 40.4109 78.5666 33.5015M59.6943 60.4006C66.0337 50.5772 73.1999 42.2989 80.5118 36.7523M61.8259 60.0459C67.2698 52.2713 75.1056 44.2302 79.7398 37.2898M64.4047 57.1152C69.8623 51.4173 73.2153 46.9111 78.5582 43.0383M66.9055 55.6366C70.2461 52.6634 74.0547 47.525 77.6692 44.766M30.7767 12.7691V12.7691Z" stroke="white" stroke-width="0.257599" stroke-linecap="round"/>
<path fill-rule="evenodd" clip-rule="evenodd" d="M55.2703 17.4479C55.2492 17.4398 55.2302 17.4325 55.2111 17.4298L55.2143 17.433C55.1201 17.4135 54.7463 17.667 54.7268 17.7613C54.6976 17.8945 54.6716 18.0245 54.6456 18.1578C54.6261 18.265 54.5643 18.3365 54.4571 18.3365C54.2101 18.343 53.9598 18.343 53.7128 18.3365C53.6088 18.3333 53.5503 18.265 53.5308 18.1643L53.5184 18.0981C53.497 17.9837 53.4757 17.8697 53.4431 17.758C53.4268 17.7028 53.3781 17.654 53.3326 17.615C53.3098 17.5955 53.2814 17.5825 53.2529 17.5695C53.2245 17.5565 53.1961 17.5435 53.1733 17.524C53.0531 17.4135 52.9296 17.4168 52.7931 17.4818C52.7453 17.5046 52.695 17.5181 52.6445 17.5317C52.6159 17.5394 52.5873 17.5471 52.5591 17.5565C52.3933 17.6085 52.3218 17.5955 52.2308 17.4558C52.1106 17.2738 52.0066 17.0788 51.9026 16.8838C51.8506 16.783 51.8733 16.6855 51.9611 16.6075C52.0618 16.5198 52.1626 16.4288 52.2633 16.3378C52.2686 16.3325 52.2749 16.3272 52.2814 16.3218L52.2814 16.3218C52.2948 16.3106 52.3087 16.2989 52.3153 16.2858C52.3316 16.2533 52.3511 16.211 52.3381 16.185C52.3114 16.1224 52.3219 16.0543 52.3324 15.9864C52.3474 15.8886 52.3625 15.7911 52.2666 15.7105C52.2162 15.6666 52.1666 15.6203 52.1171 15.574C52.0675 15.5277 52.0179 15.4814 51.9676 15.4375C51.8766 15.3563 51.8538 15.2588 51.9123 15.1515C52.0228 14.9533 52.1366 14.755 52.2568 14.56C52.3186 14.456 52.4161 14.4268 52.5331 14.4723C52.5426 14.4764 52.5527 14.4787 52.5627 14.4811C52.5765 14.4843 52.59 14.4875 52.6013 14.495C52.8776 14.6575 53.1311 14.5958 53.3683 14.4073C53.4041 14.378 53.4333 14.326 53.4463 14.2805C53.4788 14.1505 53.5048 14.0173 53.5308 13.884C53.5503 13.7833 53.6056 13.728 53.7063 13.7053C53.9631 13.6533 54.2166 13.6565 54.4733 13.7053C54.5676 13.7248 54.6228 13.78 54.6423 13.8743C54.6446 13.8845 54.6476 13.8943 54.6506 13.9039L54.6506 13.904L54.6507 13.904L54.6507 13.904C54.6563 13.9221 54.6618 13.9397 54.6618 13.9588C54.6618 14.2773 54.8341 14.4723 55.1136 14.5893C55.1558 14.6055 55.2078 14.612 55.2501 14.599C55.3108 14.5828 55.3709 14.5627 55.431 14.5426C55.5156 14.5144 55.6 14.4861 55.6856 14.469C55.7473 14.456 55.8416 14.4755 55.8838 14.5178C56.0788 14.7095 56.1958 14.9533 56.2901 15.21C56.2941 15.2202 56.2944 15.2328 56.2948 15.2527C56.295 15.2648 56.2953 15.2794 56.2966 15.2978C56.2934 15.3042 56.29 15.3119 56.2862 15.3206C56.2746 15.3472 56.2593 15.3821 56.2348 15.4115C56.212 15.4412 56.1827 15.4661 56.1537 15.4907C56.1415 15.5011 56.1294 15.5114 56.1178 15.522L56.1115 15.5278C55.8155 15.8015 55.8125 15.8044 55.8351 16.2078C55.8351 16.2468 55.8708 16.289 55.9001 16.3183C56.0008 16.4125 56.1048 16.5068 56.2088 16.5978C56.2998 16.6758 56.3226 16.7733 56.2706 16.874C56.1568 17.0885 56.0333 17.2933 55.9066 17.498C55.8513 17.589 55.7571 17.602 55.6563 17.5695C55.5946 17.55 55.532 17.5305 55.4694 17.511C55.4069 17.4915 55.3443 17.472 55.2826 17.4525L55.2703 17.4479ZM53.3456 16.029C53.3456 16.4483 53.6641 16.7635 54.0833 16.7635V16.7603C54.5123 16.7635 54.8276 16.4515 54.8276 16.0225C54.8276 15.5935 54.5156 15.2815 54.0866 15.2815C53.6608 15.2848 53.3456 15.6033 53.3456 16.029ZM43.6925 13.9131C44.674 13.4906 45.818 13.9489 46.2373 14.9336L46.2438 14.9304L51.408 27.0171C51.6128 27.4949 51.616 28.0214 51.4243 28.5024C51.2325 28.9834 50.8653 29.3604 50.3875 29.5651L45.3338 31.7231C45.0835 31.8304 44.8268 31.8791 44.5733 31.8791C43.8745 31.8791 43.2115 31.4956 42.867 30.8554L32.87 34.0371C33.0813 34.5799 33.2015 35.1714 33.2015 35.7889C33.2015 37.0109 32.7465 38.1256 32.0023 38.9836C32.0413 39.0324 32.077 39.0811 32.1095 39.1364L38.0278 49.6696C38.3333 50.2124 38.1383 50.9014 37.5955 51.2069C37.42 51.3076 37.2315 51.3531 37.043 51.3531C36.6498 51.3531 36.2663 51.1451 36.0583 50.7779L30.1725 40.2999C29.6038 40.5371 28.9798 40.6671 28.3265 40.6671C27.8683 40.6671 27.4295 40.5989 27.0103 40.4819L22.028 50.7486C21.833 51.1516 21.43 51.3856 21.0108 51.3856C20.845 51.3856 20.6793 51.3499 20.52 51.2719C19.9578 50.9989 19.7238 50.3261 19.9968 49.7639L25.0343 39.3834C24.3388 38.7464 23.835 37.9111 23.5978 36.9719C23.601 36.9784 23.601 36.9914 23.601 36.9914L13.3083 40.2674C13.1068 40.3291 12.8988 40.3616 12.6973 40.3616C11.9173 40.3616 11.1893 39.9034 10.8675 39.1494L10.6693 38.6879L7.64027 39.9814C7.47452 40.0529 7.29902 40.0854 7.13002 40.0854C6.62627 40.0854 6.14527 39.7896 5.93402 39.2956C5.65127 38.6359 5.96002 37.8721 6.61977 37.5894L9.64877 36.2959L9.31727 35.5224C8.90452 34.5636 9.29127 33.4684 10.2143 32.9776L37.5533 18.4469C37.4168 18.0179 37.433 17.5564 37.602 17.1339C37.7938 16.6529 38.161 16.2759 38.6388 16.0711L43.6925 13.9131ZM26.0418 35.7921C26.0418 37.0466 27.0623 38.0671 28.3168 38.0671C29.5713 38.0671 30.5918 37.0466 30.5918 35.7921C30.5918 34.5376 29.5713 33.5171 28.3168 33.5171C27.0623 33.5171 26.0418 34.5376 26.0418 35.7921ZM40.267 18.2031L44.9113 29.0744L48.7528 27.4331L44.1085 16.5619L40.267 18.2031ZM62.7571 21.8464C62.5621 21.6774 62.3704 21.5052 62.1851 21.3264C62.1299 21.2712 62.0681 21.1932 62.0616 21.1217C62.0195 20.3705 62.0226 20.3677 62.5818 19.8535L62.5881 19.8477C62.6133 19.8237 62.64 19.8009 62.6667 19.7782C62.7158 19.7363 62.7647 19.6946 62.8026 19.6462C62.8432 19.5944 62.8712 19.5348 62.8933 19.4879C62.903 19.4672 62.9116 19.4489 62.9196 19.4349C62.9172 19.4006 62.9166 19.3737 62.9161 19.3516C62.9153 19.315 62.9147 19.2915 62.9066 19.2692C62.7344 18.7947 62.5166 18.3429 62.1494 17.9854C62.0681 17.9074 61.8959 17.8717 61.7821 17.8944C61.6165 17.928 61.4544 17.9818 61.2924 18.0357C61.1873 18.0706 61.0822 18.1055 60.9761 18.1349C60.8981 18.1577 60.7974 18.1479 60.7226 18.1187C60.2026 17.9042 59.8841 17.5402 59.8841 16.9487C59.8841 16.9167 59.8743 16.8847 59.8644 16.8527C59.8583 16.8327 59.8521 16.8127 59.8484 16.7927C59.8126 16.6172 59.7086 16.5132 59.5331 16.4774C59.0586 16.3832 58.5841 16.3799 58.1096 16.4774C57.9211 16.5164 57.8204 16.6237 57.7814 16.8089L57.7642 16.8963L57.7642 16.8964C57.7216 17.1136 57.6794 17.3285 57.6221 17.5434C57.5994 17.6279 57.5441 17.7222 57.4791 17.7774C57.0404 18.1317 56.5691 18.2422 56.0524 17.9432C56.029 17.9295 56.0021 17.9229 55.9752 17.9163C55.9572 17.9118 55.9393 17.9074 55.9224 17.9009C55.7079 17.8164 55.5259 17.8717 55.4089 18.0634C55.1879 18.4242 54.9766 18.7914 54.7719 19.1619C54.6614 19.3602 54.7036 19.5422 54.8759 19.6917C54.9551 19.7613 55.032 19.8332 55.1087 19.9051L55.1088 19.9052C55.2148 20.0042 55.3205 20.1031 55.4316 20.1954C55.6088 20.344 55.5816 20.5228 55.5543 20.7023C55.535 20.8289 55.5157 20.9559 55.5681 21.0729C55.5909 21.1217 55.5551 21.2029 55.5291 21.2614C55.5176 21.289 55.4899 21.3101 55.4631 21.3304C55.452 21.3388 55.4411 21.3471 55.4316 21.3557L55.3787 21.4031C55.2105 21.5535 55.04 21.7062 54.8694 21.8562C54.7036 22.0024 54.6614 22.1812 54.7621 22.3697C54.9539 22.7304 55.1489 23.0912 55.3731 23.4324C55.5454 23.6957 55.6721 23.7119 55.9809 23.6177C56.028 23.603 56.0755 23.59 56.1227 23.5771C56.2221 23.55 56.3206 23.523 56.4131 23.4812C56.6699 23.3642 56.8974 23.3544 57.1184 23.5559C57.1603 23.5945 57.2152 23.6183 57.2701 23.6422C57.3216 23.6646 57.3732 23.6871 57.4141 23.7217C57.4986 23.7932 57.5896 23.8842 57.6189 23.9849C57.6701 24.1618 57.7046 24.3437 57.7392 24.5258C57.7529 24.598 57.7666 24.6702 57.7814 24.7422C57.8204 24.9274 57.9276 25.0542 58.1161 25.0607C58.5744 25.0737 59.0359 25.0704 59.4974 25.0607C59.6956 25.0542 59.8094 24.9274 59.8484 24.7324L59.8693 24.6278L59.8693 24.6276C59.9111 24.4181 59.9533 24.2068 59.9979 23.9979C60.0336 23.8257 60.7291 23.3544 60.8981 23.3869C60.9299 23.3937 60.9602 23.4037 60.9899 23.4136L60.99 23.4136L60.99 23.4136C61.0028 23.4178 61.0155 23.422 61.0281 23.4259C61.2589 23.4974 61.4896 23.5722 61.7204 23.6469C61.9056 23.7054 62.0811 23.6859 62.1884 23.5169C62.4256 23.1399 62.6531 22.7532 62.8644 22.3632C62.9651 22.1779 62.9164 21.9992 62.7474 21.8529L62.7571 21.8464ZM58.8116 22.1454C58.0316 22.1454 57.4434 21.5572 57.4434 20.7804C57.4434 19.9874 58.0284 19.3959 58.8181 19.3959C59.6144 19.3959 60.1961 19.9777 60.1961 20.7739C60.1961 21.5669 59.6111 22.1487 58.8149 22.1454H58.8116ZM56.5986 15.3434C56.6441 15.3011 56.6864 15.2621 56.7319 15.2231L56.7384 15.2264C56.7404 15.2243 56.7431 15.2223 56.746 15.2201C56.7521 15.2154 56.7589 15.2103 56.7611 15.2036C56.7623 15.2007 56.7636 15.1978 56.7648 15.1949C56.7706 15.1816 56.7762 15.1688 56.7709 15.1581C56.7572 15.1308 56.7619 15.1006 56.7667 15.0702C56.7732 15.0283 56.7798 14.9859 56.7384 14.9501C56.7156 14.9306 56.6937 14.9103 56.6717 14.89C56.6498 14.8697 56.6279 14.8494 56.6051 14.8299C56.5629 14.7941 56.5531 14.7486 56.5791 14.7031C56.6279 14.6154 56.6799 14.5276 56.7319 14.4431C56.7611 14.3976 56.8034 14.3846 56.8554 14.4041C56.8586 14.4052 56.8619 14.4059 56.8651 14.4067C56.8716 14.4081 56.8781 14.4096 56.8846 14.4139C57.0081 14.4854 57.1186 14.4594 57.2226 14.3749C57.2389 14.3619 57.2519 14.3391 57.2584 14.3196C57.2692 14.2806 57.2772 14.2416 57.2851 14.2026C57.2891 14.1831 57.293 14.1636 57.2974 14.1441C57.3071 14.1019 57.3299 14.0759 57.3754 14.0661C57.4891 14.0434 57.5996 14.0434 57.7134 14.0661C57.7556 14.0759 57.7784 14.0986 57.7881 14.1409C57.7893 14.1457 57.791 14.15 57.7925 14.1542C57.7953 14.1615 57.7979 14.1684 57.7979 14.1766C57.7979 14.3164 57.8726 14.4009 57.9961 14.4529C58.0124 14.4594 58.0351 14.4626 58.0546 14.4561C58.0774 14.4493 58.0998 14.4417 58.122 14.4341C58.1633 14.42 58.2042 14.4061 58.2464 14.3976C58.2756 14.3944 58.3146 14.4009 58.3341 14.4204C58.4186 14.5049 58.4706 14.6121 58.5129 14.7259C58.5161 14.7324 58.5161 14.7421 58.5161 14.7649C58.5129 14.7746 58.5031 14.7974 58.4901 14.8136C58.4803 14.8255 58.4692 14.8349 58.4585 14.8441C58.4514 14.8501 58.4445 14.856 58.4381 14.8624C58.3049 14.9859 58.3049 14.9859 58.3146 15.1646C58.3146 15.1809 58.3309 15.2004 58.3439 15.2134L58.344 15.2135C58.3895 15.2557 58.4349 15.2979 58.4804 15.3369C58.5194 15.3694 58.5291 15.4149 58.5064 15.4571C58.4577 15.5481 58.4024 15.639 58.3472 15.73L58.3471 15.7301C58.3211 15.7724 58.2821 15.7756 58.2366 15.7626C58.209 15.7545 58.1814 15.7456 58.1538 15.7366C58.1261 15.7277 58.0985 15.7188 58.0709 15.7106C58.0655 15.7093 58.0608 15.7074 58.0563 15.7057C58.0499 15.7031 58.0441 15.7009 58.0384 15.7009C57.9961 15.6944 57.8336 15.8049 57.8239 15.8471C57.8174 15.8764 57.8117 15.9056 57.806 15.9349C57.8003 15.9641 57.7946 15.9934 57.7881 16.0226C57.7784 16.0681 57.7491 16.1006 57.7036 16.1006H57.3754C57.3299 16.1006 57.3039 16.0714 57.2941 16.0259C57.2895 16.0052 57.2854 15.9842 57.2812 15.963C57.2734 15.9242 57.2656 15.885 57.2551 15.8471C57.2486 15.8244 57.2259 15.8016 57.2064 15.7854C57.1956 15.7777 57.1834 15.7722 57.1715 15.7668C57.1582 15.7608 57.1452 15.755 57.1349 15.7464C57.0796 15.6976 57.0276 15.6976 56.9659 15.7269C56.941 15.7393 56.9143 15.746 56.8871 15.7529C56.8787 15.755 56.8703 15.7571 56.8619 15.7594C56.7904 15.7854 56.7579 15.7789 56.7189 15.7171C56.6701 15.6453 56.6288 15.5684 56.5885 15.4932C56.5832 15.4833 56.5779 15.4734 56.5726 15.4636C56.5499 15.4214 56.5596 15.3791 56.5986 15.3434ZM57.8629 15.0866C57.8629 14.8949 57.7231 14.7584 57.5346 14.7584C57.3494 14.7584 57.2096 14.8981 57.2096 15.0866C57.2096 15.2719 57.3494 15.4116 57.5346 15.4116C57.7231 15.4116 57.8629 15.2751 57.8629 15.0866Z" fill="white"/>
</svg>
