<svg width="81" height="65" viewBox="0 0 81 65" fill="none" xmlns="http://www.w3.org/2000/svg">
<path d="M24.044 21.5247C27.938 17.2372 31.0533 12.2012 35.4602 8.47024M23.331 26.6007C30.2586 19.7559 35.6386 12.2005 37.6727 6.65207M23.4947 28.7302C28.0802 20.5405 33.1349 15.7594 41.1808 8.18096M23.4158 30.1364C29.8052 21.9772 36.1495 15.8792 42.2364 7.27285M22 33.5966C32.3017 21.7149 40.9182 11.8725 46.7805 5.68483M23.0213 34.3267C29.3066 26.309 35.9367 18.229 47.5722 4.95271M23.9402 36.0864C31.3025 27.3183 38.9521 15.5077 48.1401 4M24.3599 37.9078C35.2721 25.7135 45.1851 12.6298 50.0982 4.17715M24.522 40.8081C29.3929 30.9682 36.9279 23.3204 51.7167 4.75637M25.2998 41.2343C33.6301 29.2043 44.806 17.4388 55.6514 4.76547M25.9707 43.6276C35.8772 29.3821 48.594 15.5609 54.9838 5.33371M26.3812 44.9722C34.677 32.8142 42.3988 22.9885 58.3151 4.60272M26.4009 46.2575C35.5407 32.4756 45.8431 21.98 57.5063 4.78057M25.6818 46.7741C37.0888 33.6953 46.0248 22.4153 59.1154 7.33277M27.9989 47.5792C34.6238 39.9852 40.7814 32.5336 62.348 6.62228M28.8995 48.6606C40.0309 35.8111 53.8546 19.7899 64.2464 7.5484M30.348 50.2678C42.5664 33.9178 53.4992 20.3224 64.7948 9.17647M29.4025 52.5439C42.8448 35.3266 58.0333 17.1093 64.5722 7.63508M31.7178 51.2631C39.7413 42.5567 48.3722 32.3357 66.2191 8.46536M32.6021 53.1701C45.6294 38.7848 56.4924 24.6335 67.6147 10.4512M32.4984 53.0875C44.6545 42.4833 55.8334 29.2146 68.3342 11.6088M33.8957 54.1424C48.0466 39.6504 60.0248 24.4114 70.1307 11.2314M35.3345 55.062C50.1484 39.998 63.1808 21.6049 71.077 12.3983M34.9741 56.5387C43.1564 45.5112 53.8056 35.4177 71.5865 12.4318M37.0746 56.5504C46.4141 45.8463 55.0301 35.9997 72.7667 13.3161M39.3528 57.9752C50.0354 45.7878 61.8653 29.9096 74.2118 16.8504M39.5169 60.286C49.7601 47.555 57.7966 35.1621 74.4339 15.9696M41.255 59.0696C48.4246 48.5602 59.4455 38.9556 74.9006 18.3073M41.5821 60.5727C51.9735 45.7709 63.4031 34.492 74.7888 18.053M43.9311 60.2367C55.4519 46.5167 68.6755 30.341 76.8531 20.2619M45.4768 59.8414C50.9503 52.6372 59.8303 44.5396 77.0716 22.5795M45.8977 60.917C55.8611 49.0681 67.9412 34.2833 77.9529 22.3351M48.5544 61.5226C59.1898 46.7572 68.4356 34.1566 77.3854 26.0249M49.3236 62.3092C58.8199 51.6765 67.0653 41.8901 77.6652 26.5199M50.5767 62.5118C58.6458 53.5817 63.7317 44.7926 79.5427 28.7209M53.2732 61.1122C63.2151 50.9918 71.745 41.7109 78.5204 28.1527M54.5057 61.2787C61.3506 50.5966 68.865 41.0556 78.2663 32.4565M56.4993 60.209C66.1464 50.3741 73.1578 40.4109 78.5666 33.5015M59.6943 60.4006C66.0337 50.5772 73.1999 42.2989 80.5118 36.7523M61.8259 60.0459C67.2698 52.2713 75.1056 44.2302 79.7398 37.2898M64.4047 57.1152C69.8623 51.4173 73.2153 46.9111 78.5582 43.0383M66.9055 55.6366C70.2461 52.6634 74.0547 47.525 77.6692 44.766M30.7767 12.7691V12.7691Z" stroke="url(#paint0_linear_276_1451)" stroke-width="0.257599" stroke-linecap="round"/>
<path fill-rule="evenodd" clip-rule="evenodd" d="M56.6537 34.8431C57.4532 35.6166 58.2755 36.3641 59.1172 37.0889L59.1107 37.0759C59.8322 37.6999 60.0402 38.4766 59.6112 39.2729C58.7012 40.9629 57.723 42.6204 56.7057 44.2486C56.254 44.9734 55.4967 45.0676 54.6972 44.8109C53.9564 44.5736 53.2155 44.3399 52.4733 44.1059C52.2192 44.0257 51.9649 43.9455 51.7105 43.8651C51.6581 43.8486 51.6057 43.8307 51.5532 43.8128C51.4199 43.7675 51.2857 43.7218 51.1482 43.6961C50.4072 43.5564 47.4172 45.5876 47.2645 46.3319L47.2253 46.522C47.0206 47.5145 46.8165 48.5045 46.621 49.4974C46.4552 50.3391 45.9612 50.8981 45.1065 50.9176C43.1272 50.9664 41.1415 50.9696 39.1622 50.9176C38.353 50.8981 37.8785 50.3489 37.716 49.5494C37.6564 49.2569 37.6006 48.963 37.5448 48.6688C37.3935 47.8714 37.2419 47.0725 37.014 46.2961C36.8872 45.8639 36.4972 45.4641 36.1332 45.1619C35.9546 45.0146 35.7337 44.9164 35.5134 44.8185C35.2768 44.7134 35.041 44.6086 34.8592 44.4436C33.9005 43.5759 32.919 43.6116 31.8172 44.1186C31.4182 44.3016 30.9893 44.4188 30.5599 44.5361C30.3562 44.5917 30.1524 44.6474 29.9517 44.7101C28.6257 45.1261 28.07 45.0449 27.3322 43.9171C26.7212 42.9779 26.159 42.0061 25.6162 41.0214C27.5207 39.1201 29.487 37.1506 31.5572 35.0706C33.2927 33.3286 33.309 30.9041 31.593 29.1751C29.812 27.3779 27.953 25.5124 25.9055 23.4681C26.419 22.5679 26.9487 21.6741 27.4915 20.7934C27.9952 19.9776 28.7785 19.7306 29.708 20.1011C29.7848 20.1333 29.8677 20.154 29.9504 20.1747C30.06 20.2021 30.1692 20.2294 30.2637 20.2831C32.49 21.5766 34.518 21.0924 36.403 19.5746C36.6987 19.3374 36.9295 18.9344 37.027 18.5639C37.2398 17.7504 37.4033 16.925 37.5667 16.1001C37.6128 15.8672 37.659 15.6342 37.7062 15.4016C37.8687 14.6119 38.301 14.1471 39.1167 13.9781C41.161 13.5524 43.1987 13.5719 45.243 13.9716C46.0067 14.1211 46.4487 14.5696 46.6047 15.3236C46.6217 15.4075 46.6478 15.4909 46.6739 15.574C46.7174 15.7132 46.7607 15.8515 46.7607 15.9899C46.751 18.5411 48.1257 20.1076 50.3682 21.0306C50.69 21.1639 51.119 21.1931 51.4537 21.1021C51.9331 20.9726 52.4058 20.8162 52.8781 20.66C53.5553 20.4359 54.2316 20.2122 54.9247 20.0686C55.4155 19.9646 56.1597 20.1271 56.5042 20.4619C58.074 21.9959 59.01 23.9459 59.7575 25.9869C59.7927 26.0821 59.7962 26.1879 59.8017 26.3522C59.8048 26.4457 59.8086 26.5583 59.8192 26.6986C59.7928 26.7489 59.7636 26.8117 59.7305 26.8825C59.6332 27.0912 59.5031 27.37 59.3187 27.6054C59.1411 27.8347 58.9168 28.0267 58.6921 28.2191C58.592 28.3047 58.4919 28.3905 58.3957 28.4796L58.3703 28.503C55.9646 30.7189 55.9523 30.7302 56.1272 33.9656C56.1435 34.2711 56.4132 34.6091 56.6537 34.8431ZM36.2307 32.4934C36.2372 35.8376 38.7722 38.3629 42.1295 38.3694C45.568 38.3791 48.0802 35.8799 48.0802 32.4641C48.0802 29.0321 45.5745 26.5329 42.149 26.5329C38.7527 26.5361 36.221 29.0841 36.2307 32.4934ZM24.2032 34.0467C23.9845 34.0357 23.7995 34.0238 23.6356 34.0132C23.365 33.9958 23.1516 33.9821 22.9382 33.9821C17.0622 33.9821 11.1894 33.9821 5.31344 33.9756C3.77619 33.9756 2.89219 32.6594 3.50644 31.2944C3.89644 30.4299 4.64069 30.2024 5.53119 30.2056C9.70734 30.2126 13.8852 30.2113 18.0623 30.2099C19.7332 30.2094 21.4041 30.2089 23.0747 30.2089H23.9457L24.0432 30.0204L24.0428 30.02C23.1719 29.1426 22.3011 28.2652 21.4269 27.3911C20.9917 26.957 20.5543 26.525 20.117 26.0929C19.3298 25.3153 18.5426 24.5376 17.7674 23.7479C16.9517 22.9191 16.9322 21.5899 17.6797 20.8716C18.4077 20.1794 19.7012 20.2119 20.5039 21.0081C23.7214 24.2061 26.9324 27.4106 30.1239 30.6314C31.0404 31.5544 31.0112 32.6919 30.0914 33.6116C26.9292 36.7869 23.7604 39.9556 20.5852 43.1179C19.6264 44.0734 18.5084 44.1384 17.6764 43.3356C16.8769 42.5621 16.9549 41.2881 17.8877 40.3554C19.1598 39.0856 20.4382 37.8206 21.7163 36.5559C22.2636 36.0143 22.8108 35.4729 23.3574 34.9311C23.5053 34.7833 23.649 34.6313 23.843 34.4262C23.9462 34.3171 24.0635 34.1931 24.2032 34.0467Z" fill="#454545"/>
<defs>
<linearGradient id="paint0_linear_276_1451" x1="28.0121" y1="11.7236" x2="85.3301" y2="41.6325" gradientUnits="userSpaceOnUse">
<stop stop-color="#3CA0D2"/>
<stop offset="1" stop-color="#48DCA6"/>
</linearGradient>
</defs>
</svg>
