<svg width="60" height="60" viewBox="0 0 60 60" fill="none" xmlns="http://www.w3.org/2000/svg">
<path d="M3.04395 18.5247C6.93801 14.2372 10.0533 9.20116 14.4602 5.47024M2.33097 23.6007C9.25863 16.7559 14.6386 9.20052 16.6727 3.65207M2.4947 25.7302C7.08024 17.5405 12.1349 12.7594 20.1808 5.18096M2.41579 27.1364C8.80515 18.9772 15.1495 12.8792 21.2364 4.27285M1 30.5966C11.3017 18.7149 19.9182 8.87254 25.7805 2.68483M2.02135 31.3267C8.30663 23.309 14.9367 15.229 26.5722 1.95271M2.94023 33.0864C10.3025 24.3183 17.9521 12.5077 27.1401 1M3.35989 34.9078C14.2721 22.7135 24.1851 9.62977 29.0982 1.17715M3.52201 37.8081C8.39291 27.9682 15.9279 20.3204 30.7167 1.75637M4.29981 38.2343C12.6301 26.2043 23.806 14.4388 34.6514 1.76547M4.97067 40.6276C14.8772 26.3821 27.594 12.5609 33.9838 2.33371M5.38115 41.9722C13.677 29.8142 21.3988 19.9885 37.3151 1.60272M5.40092 43.2575C14.5407 29.4756 24.8431 18.98 36.5063 1.78057M4.68177 43.7741C16.0888 30.6953 25.0248 19.4153 38.1154 4.33277M6.99889 44.5792C13.6238 36.9852 19.7814 29.5336 41.348 3.62228M7.89953 45.6606C19.0309 32.8111 32.8546 16.7899 43.2464 4.5484M9.34799 47.2678C21.5664 30.9178 32.4992 17.3224 43.7948 6.17647M8.40252 49.5439C21.8448 32.3266 37.0333 14.1093 43.5722 4.63508M10.7178 48.2631C18.7413 39.5567 27.3722 29.3357 45.2191 5.46536M11.6021 50.1701C24.6294 35.7848 35.4924 21.6335 46.6147 7.45123M11.4984 50.0875C23.6545 39.4833 34.8334 26.2146 47.3342 8.6088M12.8957 51.1424C27.0466 36.6504 39.0248 21.4114 49.1307 8.23137M14.3345 52.062C29.1484 36.998 42.1808 18.6049 50.077 9.39829M13.9741 53.5387C22.1564 42.5112 32.8056 32.4177 50.5865 9.43185M16.0746 53.5504C25.4141 42.8463 34.0301 32.9997 51.7667 10.3161M18.3528 54.9752C29.0354 42.7878 40.8653 26.9096 53.2118 13.8504M18.5169 57.286C28.7601 44.555 36.7966 32.1621 53.4339 12.9696M20.255 56.0696C27.4246 45.5602 38.4455 35.9556 53.9006 15.3073M20.5821 57.5727C30.9735 42.7709 42.4031 31.492 53.7888 15.053M22.9311 57.2367C34.4519 43.5167 47.6755 27.341 55.8531 17.2619M24.4768 56.8414C29.9503 49.6372 38.8303 41.5396 56.0716 19.5795M24.8977 57.917C34.8611 46.0681 46.9412 31.2833 56.9529 19.3351M27.5544 58.5226C38.1898 43.7572 47.4356 31.1566 56.3854 23.0249M28.3236 59.3092C37.8199 48.6765 46.0653 38.8901 56.6652 23.5199M29.5767 59.5118C37.6458 50.5817 42.7317 41.7926 58.5427 25.7209M32.2732 58.1122C42.2151 47.9918 50.745 38.7109 57.5204 25.1527M33.5057 58.2787C40.3506 47.5966 47.865 38.0556 57.2663 29.4565M35.4993 57.209C45.1464 47.3741 52.1578 37.4109 57.5666 30.5015M38.6943 57.4006C45.0337 47.5772 52.1999 39.2989 59.5118 33.7523M40.8259 57.0459C46.2698 49.2713 54.1056 41.2302 58.7398 34.2898M43.4047 54.1152C48.8623 48.4173 52.2153 43.9111 57.5582 40.0383M45.9055 52.6366C49.2461 49.6634 53.0547 44.525 56.6692 41.766M9.7767 9.76905V9.76905Z" stroke="url(#paint0_linear_516_3371)" stroke-width="0.257599" stroke-linecap="round"/>
<path fill-rule="evenodd" clip-rule="evenodd" d="M21.7619 31.9976C21.2224 31.1721 20.7576 30.3109 20.3644 29.5634C19.8119 28.5201 20.0426 27.3274 20.9526 26.5246C21.2451 26.2679 21.5376 26.0079 21.8269 25.7446L21.8626 25.7121C21.8561 25.4619 21.8854 25.2376 21.9114 25.0589C21.7489 24.9126 21.5929 24.7696 21.4401 24.6266C21.2841 24.4804 21.1249 24.3341 20.9656 24.1911C20.0361 23.3689 19.8119 22.1534 20.4001 21.0906C20.9136 20.1644 21.3784 19.3616 21.8236 18.6401C22.2884 17.8894 23.0359 17.4571 23.8809 17.4571C24.1864 17.4571 24.4951 17.5156 24.8006 17.6261C24.9306 17.6586 25.1354 17.7171 25.3596 17.8439C25.3629 17.8439 25.3653 17.8455 25.3677 17.8471C25.3702 17.8487 25.3726 17.8504 25.3759 17.8504C25.3485 17.8004 25.3221 17.7505 25.2955 17.7004C25.2495 17.6136 25.2031 17.5263 25.1516 17.4376C22.4021 12.7251 18.0796 10.5021 12.5579 11.0936C7.66661 11.6136 4.15011 14.2689 2.19361 18.7051C0.204611 23.2194 0.708361 27.6361 3.65286 31.6629L3.85414 31.9377C5.41908 34.0742 6.97812 36.2026 7.97536 38.6926C8.07936 38.9526 8.54086 39.2126 8.84636 39.2224C10.1285 39.2614 11.4106 39.2565 12.6927 39.2516C13.1201 39.25 13.5475 39.2484 13.9749 39.2484C14.416 39.2484 14.8572 39.2501 15.2983 39.2518C16.5667 39.2568 17.835 39.2618 19.1034 39.2256C19.4251 39.2159 19.9256 38.9981 20.0264 38.7479C20.8389 36.7036 22.0674 34.9259 23.3154 33.1579C22.7076 33.0181 22.1876 32.6281 21.7684 31.9879L21.7619 31.9976ZM13.3964 18.1299C10.8679 18.3801 8.96336 19.9889 8.35886 22.4264C8.25642 22.8418 8.20879 23.2722 8.16144 23.7001C8.15471 23.7609 8.14799 23.8217 8.14111 23.8824C8.04361 24.7436 7.60486 25.2181 6.70786 25.1141C5.83036 25.0101 5.66136 24.3504 5.62236 23.8531C5.74586 19.4949 9.15836 15.8809 13.1754 15.6209C14.5469 15.5331 15.1611 15.8581 15.2326 16.7096C15.3074 17.5741 14.7646 17.9966 13.3931 18.1299H13.3964ZM39.4683 22.4491C39.4549 22.4743 39.44 22.5062 39.423 22.5424C39.3743 22.6464 39.3089 22.786 39.2148 22.9041C39.1259 23.0176 39.0141 23.1142 38.9023 23.2109C38.8508 23.2554 38.7993 23.3 38.7501 23.3461L38.7374 23.3578C37.5248 24.4739 37.5186 24.4795 37.6061 26.1119C37.6158 26.2646 37.7491 26.4369 37.8726 26.5539C38.2756 26.9439 38.6916 27.3209 39.1141 27.6849C39.4781 28.0001 39.5821 28.3901 39.3676 28.7931C38.9093 29.6446 38.4153 30.4799 37.9018 31.3021C37.6743 31.6661 37.2908 31.7149 36.8878 31.5849C36.5383 31.4714 36.1871 31.3611 35.8355 31.2506L35.8353 31.2505C35.6835 31.2028 35.5317 31.1551 35.3798 31.1071C35.3516 31.0983 35.3233 31.0887 35.295 31.079C35.229 31.0565 35.1631 31.034 35.0971 31.0226C34.7233 30.9511 33.2153 31.9749 33.1373 32.3519C33.0268 32.8849 32.9196 33.4146 32.8123 33.9476C32.7278 34.3701 32.4776 34.6529 32.0486 34.6626C31.0508 34.6886 30.0498 34.6886 29.0521 34.6626C28.6426 34.6529 28.4053 34.3766 28.3208 33.9736C28.2932 33.8365 28.2671 33.6989 28.2409 33.5614L28.2408 33.5609C28.1622 33.1477 28.0836 32.7346 27.9666 32.3324C27.9016 32.1146 27.7066 31.9131 27.5213 31.7604C27.4319 31.685 27.3205 31.6355 27.2094 31.5861L27.2094 31.5861C27.0904 31.5331 26.9718 31.4804 26.8811 31.3964C26.3968 30.9576 25.9028 30.9771 25.3471 31.2306C25.1531 31.3202 24.9437 31.3775 24.7345 31.4348L24.7345 31.4349C24.6248 31.4649 24.5152 31.495 24.4078 31.5296C23.7383 31.7409 23.4588 31.6986 23.0851 31.1299C22.6008 30.3889 22.1751 29.6056 21.7591 28.8224C21.5446 28.4161 21.6356 28.0229 21.9963 27.7076C22.2401 27.4929 22.4815 27.277 22.7227 27.0614L22.7229 27.0611C22.8869 26.9146 23.0507 26.7681 23.2151 26.6221C23.2355 26.6044 23.2578 26.5874 23.2802 26.5703C23.34 26.5248 23.4003 26.4788 23.4263 26.4174C23.4816 26.2906 23.5043 26.1249 23.5141 26.0111C23.5353 25.7713 23.5665 25.5698 23.5936 25.3948L23.5936 25.3948C23.683 24.8184 23.7277 24.5297 23.2216 24.1034C22.9747 23.895 22.7381 23.6753 22.5016 23.4556L22.5016 23.4556L22.5015 23.4556C22.3396 23.3051 22.1777 23.1547 22.0126 23.0081C21.6388 22.6766 21.5478 22.2834 21.7851 21.8544C22.2303 21.0484 22.6886 20.2521 23.1696 19.4689C23.4231 19.0561 23.8196 18.9326 24.2876 19.1179C24.3245 19.1324 24.3642 19.1421 24.4036 19.1517C24.4614 19.1659 24.5188 19.1799 24.5671 19.2089C25.6883 19.8589 26.7121 19.6184 27.6643 18.8514C27.8138 18.7311 27.9308 18.5296 27.9796 18.3411C28.082 17.9462 28.1624 17.5459 28.2428 17.1456L28.243 17.1447C28.2698 17.0115 28.2965 16.8783 28.3241 16.7454C28.4053 16.3489 28.6231 16.1116 29.0358 16.0271C30.0661 15.8126 31.0963 15.8224 32.1266 16.0271C32.5133 16.1019 32.7343 16.3294 32.8123 16.7096C32.8208 16.7521 32.8343 16.7941 32.8477 16.8358C32.8702 16.9059 32.8924 16.9751 32.8903 17.0444C32.8871 18.3314 33.5793 19.1211 34.7103 19.5859C34.8728 19.6541 35.0906 19.6671 35.2596 19.6216C35.5027 19.5558 35.7424 19.4761 35.9819 19.3965C36.3218 19.2836 36.661 19.1708 37.0081 19.0984C37.2551 19.0464 37.6321 19.1276 37.8043 19.2966C38.5973 20.0701 39.0686 21.0549 39.4456 22.0819C39.4625 22.1306 39.4643 22.1849 39.4671 22.2708V22.2708V22.2709C39.4685 22.3167 39.4703 22.3716 39.4748 22.4394L39.4683 22.4491ZM33.5468 25.3546C33.5468 23.6256 32.2826 22.3614 30.5536 22.3646C28.8408 22.3646 27.5636 23.6516 27.5701 25.3709C27.5733 27.0576 28.8506 28.3316 30.5438 28.3349C32.2761 28.3381 33.5468 27.0804 33.5436 25.3579L33.5468 25.3546ZM17.2807 47.6984C19.351 46.3464 19.9945 44.2729 19.8092 41.7347L19.8027 41.7314C19.14 41.7314 18.4797 41.7311 17.8214 41.7308C14.7609 41.7294 11.7438 41.728 8.72673 41.7574C8.53823 41.7607 8.21323 42.1182 8.18398 42.3424C7.90123 44.5719 9.20448 46.9932 11.1935 47.9844C13.2735 49.0212 15.3567 48.9562 17.2807 47.6984Z" fill="white"/>
<defs>
<linearGradient id="paint0_linear_516_3371" x1="7.01209" y1="8.72356" x2="64.3301" y2="38.6325" gradientUnits="userSpaceOnUse">
<stop stop-color="white"/>
<stop offset="1" stop-color="white"/>
</linearGradient>
</defs>
</svg>
