<svg width="261" height="611" viewBox="0 0 261 611" fill="none" xmlns="http://www.w3.org/2000/svg">
<path d="M-271.602 33.0713C-267.431 28.1585 -267.017 27.0931 -261.798 22.3305M-272.246 39.7215C-265.983 28.7051 -260.287 17.2328 -254.323 11.7494M-272.637 41.919C-268.431 32.5269 -261.042 21.1745 -249.973 10.0161M-274.638 47.2112C-262.29 32.193 -252.442 20.7017 -247.517 9.27404M-274.177 51.4941C-266.333 36.7633 -255.645 25.2337 -239.16 3.95505M-274.981 52.6915C-263.667 39.5202 -252.926 25.5553 -238.614 3.96653M-273.429 56.1998C-263.936 38.0873 -247.655 22.1084 -233.188 0.946004M-274.582 59.5471C-260.439 38.3761 -247.623 20.4213 -231.019 1.91687M-276.078 62.8505C-257.266 43.1676 -244.1 19.6651 -230.037 3.69392M-273.516 65.2907C-253.488 43.4006 -239.425 17.7725 -227.23 1.44586M-271.387 69.7642C-260.087 51.2189 -244.956 28.5321 -225.446 1.05292M-271.89 71.4475C-258.623 52.6015 -248.066 38.4181 -220.26 3.76417M-271.88 73.4642C-261.795 57.3338 -249.247 42.4906 -219.312 2.25754M-269.026 73.6269C-253.006 50.8432 -235.105 27.6976 -216.658 3.18849M-270.282 77.5791C-257.918 60.4109 -246.167 44.4043 -215.594 2.23166M-265.772 80.4965C-256.126 61.7281 -245.827 50.0493 -211.943 4.18489M-268.298 79.8125C-249.2 55.6824 -231.626 30.1741 -209.935 3.16286M-264.588 82.3304C-243.368 52.7916 -222.85 20.6162 -210.068 5.10931M-263.311 83.1974C-251.378 64.1806 -235.569 45.4115 -207.437 3.11949M-261.434 84.3813C-252.883 67.663 -237.952 50.196 -205.591 6.50274M-260.626 85.778C-247.091 64.6784 -233.868 43.5574 -204.543 6.31357M-261.72 90.9002C-244.001 64.3435 -225.646 40.7861 -202.171 5.14721M-260.981 89.4648C-245.366 70.2211 -230.512 47.916 -201.447 7.88713M-258.56 92.929C-242.518 70.1308 -225.312 48.8003 -196.294 7.33496M-255.853 92.3885C-240.371 74.5647 -225.202 51.6009 -196.516 11.1254M-257.156 94.7523C-240.424 71.91 -222.993 51.7692 -194.364 9.65873M-252.694 97.7632C-230.941 64.7526 -208.62 35.345 -193.198 12.9346M-252.733 97.8106C-236.579 79.1349 -220.79 57.5862 -192.662 12.2481M-250.5 100.204C-239.14 82.1482 -224.342 63.9245 -191.102 14.2108M-249.755 101.25C-230.263 73.8648 -214.687 48.4274 -187.65 13.8589M-249.61 104.452C-231.835 79.6552 -213.824 53.9621 -185.717 16.8659M-246.124 105.305C-227.192 71.0939 -202.565 40.9281 -184.641 19.6808M-247.545 105.094C-232.527 87.8638 -220.486 68.2709 -183.46 21.1772M-243.551 107.648C-225.545 81.9753 -204.743 54.0728 -182.376 20.4561M-245.014 108.113C-226.666 82.2746 -208.183 58.664 -181.633 22.1504M-241.493 111.845C-222.01 80.7874 -200.465 53.1865 -179.731 25.7105M-239.051 113.129C-227.995 95.7619 -214.473 76.1772 -177.429 26.3428M-238.355 114.72C-219.233 86.1036 -198.879 58.7041 -177.42 28.8281M-237.404 114.071C-218.923 90.7565 -201.4 66.834 -175.422 29.2853M-235.231 114.626C-217.729 91.2349 -198.616 64.5151 -173.763 32.7652M-233.642 117.773C-212.504 82.6406 -189.753 49.775 -173.576 34.72M-232.037 119.458C-215.238 91.5809 -195.154 65.656 -171.782 34.3048M-230.053 119.495C-210.69 92.183 -192.413 66.4777 -172.792 37.3725M-231.896 123.027C-216.054 105.627 -203.218 86.1955 -171.459 38.6346M-230.086 121.718C-210.419 95.51 -193.468 71.3198 -168.803 40.3098M-227.328 125.415C-209.304 98.7403 -194.26 73.8789 -165.311 41.1027M-226.977 124.008C-201.66 93.3411 -178.546 59.73 -165.908 41.2408M-223.306 128.507C-210.546 110.432 -196.066 92.6158 -165.485 42.623M-221.508 128.739C-203.966 102.479 -185.682 75.3757 -161.147 46.1079M-222.539 128.742C-201.446 102.38 -184.929 78.0151 -160.975 44.9804M-220.145 130.203C-207.018 113.412 -193.898 95.3727 -158.509 47.6875M-218.692 132.476C-200.772 108.212 -182.991 84.2588 -158.092 48.9696M-215.246 134.595C-205.315 117.691 -194.709 101.339 -155.184 51.0535M-216.987 133.664C-196.513 111.448 -180.395 87.5677 -155.593 52.2932M-215.244 136.476C-192.647 110.524 -175.175 81.3381 -153.564 53.1558M-213.23 138.314C-192.835 111.234 -174.056 81.1743 -152.783 54.7719M-209.623 137.724C-195.873 118.306 -180.952 99.2096 -151.927 56.1597M-208.656 140.764C-190.921 117.628 -174.743 94.5671 -149.375 54.9411M-208.441 141.391C-192.233 119.856 -178.365 95.8255 -148.843 56.913M-206.189 141.759C-188.672 120.192 -170.511 96.3239 -146.669 59.3942M-206.127 142.302C-188.946 121.021 -174.956 98.1659 -143.298 60.2524M-203.538 145.149C-183.903 113.514 -159.581 81.8006 -144.832 60.5007M-200.006 147.637C-181.35 116.506 -158.921 86.8634 -143.006 60.9591M-199.181 148.348C-187.097 130.352 -175.591 110.571 -139.959 64.1271M-196.665 148.138C-179.899 124.211 -164.741 100.247 -138.52 63.8679M-196.304 147.771C-178.18 123.952 -159.968 101.977 -135.181 65.6651M-196.768 149.958C-176.595 125.144 -154.302 99.137 -136.502 66.6084M-193.513 153.019C-180.412 131.044 -162.193 110.105 -132.825 67.296M-191.337 154.164C-175.688 132.258 -160.592 109.267 -132.71 70.9695M-188.63 153.265C-166.088 122.87 -145.258 93.231 -131.97 69.6581M-189.632 155.686C-175.928 137.527 -162.903 117.154 -127.272 70.7466M-186.406 155.992C-165.292 128.491 -148.013 98.3544 -125.285 72.5814M-185.13 156.889C-172.88 137.548 -157.692 120.174 -124.16 74.9982M-182.615 157.718C-165.479 133.762 -147.878 108.612 -124.121 75.372M-182.518 161.359C-162.404 130.663 -141.589 101.916 -122.198 78.0615M-180.675 159.965C-165.727 143.04 -152.75 125.101 -120.979 76.4869M-177.251 160.34C-164.363 141.968 -151.73 121.581 -120.33 78.9633M-178.098 162.059C-154.407 130.222 -129.592 98.7471 -117.288 78.9726M-176.688 162.924C-159.246 137.449 -141.237 114.431 -114.116 80.5801M-174.513 166.104C-160.618 141.917 -144.895 122.541 -114.827 81.8681M-173.613 166.485C-158.108 145.081 -141.466 125.834 -111.644 82.7765M-170.274 168.787C-155.301 145.813 -139.222 123.209 -109.109 85.9763M-170.263 169.565C-144.734 137.753 -121.34 105.971 -109.562 84.4455M-167.401 169.238C-152.154 145.543 -135.198 120.264 -107.523 86.8828M-164.175 170.041C-141.07 137.446 -118.021 102.872 -107.602 86.1426M-163.433 170.714C-147.303 144.872 -127.693 121.695 -105.2 89.158M-162.764 172.666C-140.764 143.64 -118.734 116.162 -102.019 88.1122M-160.204 175.028C-142.727 148.414 -124.396 124.227 -101.486 89.4356M-159.248 175.635C-144.757 157.731 -127.954 137.195 -100.472 91.7907M-156.903 174.846C-145.245 158.33 -130.627 138.217 -97.1977 92.0359M-154.667 177.942C-142.669 158.089 -132.199 140.618 -95.551 92.2603M-152.168 176.81C-136.336 153.071 -117.261 128.923 -92.9366 95.5221M-153.509 177.688C-133.792 155.083 -116.968 128.305 -90.5516 96.8497M-148.71 179.892C-133.937 155.819 -115.019 129.371 -90.1728 95.7782M-148.482 181.527C-125.378 150.952 -103.055 120.35 -87.7901 99.2029M-146.285 180.549C-125.776 149.729 -103.171 118.689 -88.3724 97.4507M-143.673 182.629C-129.97 163.44 -115.419 143.537 -83.7422 100.724M-144.91 182.772C-130.538 165.515 -118.282 147.333 -84.9564 101.037M-143.656 184.041C-117.031 151.758 -97.0012 122.309 -82.0298 103.004M-141.006 187.07C-123.383 164.774 -105.557 140.39 -80.2718 103.175M-138.478 187.08C-123.816 170.149 -113.455 151.686 -78.4821 105.204M-137.26 188.033C-119.835 160.293 -98.6055 133.19 -76.2148 104.072M-134.07 189.224C-120.294 167.527 -102.656 143.449 -76.4774 106.888M-132.426 188.737C-116.757 169.9 -101.423 147.28 -72.5062 108.231M-131.709 190.642C-109.092 164.657 -91.9552 137.422 -70.5597 107.69M-130.197 191.896C-105.747 162.347 -81.869 129.569 -71.6629 108.9M-130.159 192.399C-114 175.71 -101.73 160.787 -68.8552 109.394M-126.818 194.232C-113.173 178.599 -100.597 159.366 -67.3921 109.497M-125.104 195.574C-106.127 166.368 -86.6864 139.704 -66.5352 111.031M-123.966 197.138C-100.464 163.414 -78.2691 130.12 -63.4869 112.156M-121.92 196.937C-105.322 174.936 -91.9636 154.508 -60.0814 113.498M-121.426 198.606C-101.41 174.035 -81.5006 144.733 -58.2667 113.803M-117.184 198.694C-102.138 178.992 -83.102 153.137 -57.1362 116.01M-117.878 199.923C-97.4633 176.324 -78.474 147.856 -55.5603 116.68M-115.301 200.081C-94.9314 173.77 -73.5493 143.918 -54.3761 117.555M-114.333 203.216C-97.9068 180.637 -81.5731 161.178 -52.5583 120.642M-111.161 204.61C-91.8648 177.578 -72.5163 147.971 -51.6198 118.442M-109.252 204.306C-95.1146 184.465 -81.5642 166.631 -50.6527 122.418M-107.422 204.291C-95.2878 186.865 -80.6291 165.709 -47.0309 122.193M-106.068 205.089C-89.1232 184.959 -73.1919 163.232 -47.7851 123.723M-105.466 209.667C-82.5614 179.286 -59.0137 148.674 -45.2867 124.946M-104.473 209.035C-77.0065 175.1 -55.4146 143.358 -41.5238 123.548M-101.718 209.874C-87.4638 189.052 -72.3124 168.919 -40.8911 128.178M-99.456 212.482C-80.3843 185.348 -63.8353 161.451 -37.4359 128.328M-96.2124 212.979C-78.1698 188.042 -58.1851 158.806 -37.3835 126.635M-95.072 211.991C-83.2958 193.89 -69.2235 174.595 -35.2246 130.397M-94.6345 212.428C-77.1326 193.172 -62.5426 170.44 -34.5629 129.712M-91.2832 214.247C-69.9869 187.131 -50.9103 159.153 -32.1481 131.899M-91.6703 217.228C-72.0963 185.108 -52.3114 157.543 -32.1493 132.052M-88.0102 215.476C-77.471 200.084 -63.8484 182.431 -27.3624 133.4M-86.0985 217.223C-66.9657 186.468 -42.9606 157.114 -28.6216 134.084M-85.2791 220.632C-72.5395 200.683 -58.5201 180.141 -27.2624 135.767M-84.9531 218.859C-68.5481 193.483 -48.4334 169.085 -24.9932 137.281M-80.8552 219.33C-64.4696 197.013 -46.7958 174.168 -23.2322 136.373M-80.2586 221.646C-62.7446 195.843 -45.0413 174.509 -20.2634 137.047M-79.6503 221.915C-63.7412 202.111 -45.9305 179.359 -20.4324 137.943M-77.1332 224.233C-64.1643 207.587 -52.2873 187.392 -16.0989 139.845M-76.5002 226.066C-61.5028 203.723 -43.3633 182.911 -15.7808 142.117M-75.1119 225.667C-52.0422 195.976 -32.0518 169.019 -14.86 142.272M-71.037 226.835C-53.8309 197.486 -30.6182 169.645 -10.9754 143.283M-277.716 516.621C-274.337 507.565 -267.052 499.066 -261.857 496.829M-71.4438 228.741C-53.7804 203.504 -34.7809 181.589 -11.7031 146.143M-279.849 523.048C-274.891 513.847 -264.685 504.304 -257.295 493.793M-70.0993 230.944C-51.2674 201.239 -29.7614 176.5 -10.0605 146.14M-280.369 527.853C-272.615 517.814 -266.196 506.682 -252.284 490.212M-66.0072 230.713C-43.1276 199.807 -18.8992 164.392 -8.1322 146.768M-280.478 530.746C-271.24 519.168 -261.064 502.267 -251.563 489.492M-64.7555 231.804C-45.871 205.258 -29.915 182.084 -5.31736 149.57M-281.898 538.269C-272.231 519.61 -258.72 507.074 -246.176 489.925M-63.6134 233.261C-44.4948 206.406 -24.7858 178.095 -4.18288 149.59M-281.622 539.534C-267.615 522.604 -254.046 504.798 -242.889 486.63M-61.1338 234.296C-40.8806 206.069 -19.8344 176.28 -3.12866 149.377M-280.858 544.09C-264.659 521.186 -250.06 502.282 -241.987 488.536M-61.245 235.647C-38.5705 200.298 -13.9924 169.479 1.04518 151.4M-282.449 544.837C-266.666 526.39 -251.183 506.957 -237.868 488.381M-57.4687 234.345C-36.8273 203.723 -14.553 173.244 2.20357 153.256M-279.656 550.232C-271.073 533.483 -257.225 517.154 -235.993 488.102M-58.588 235.429C-35.7505 206.78 -17.3331 180.545 4.7014 153.885M-280.144 553.245C-270.04 537.111 -256.693 519.888 -232.361 485.682M-56.8255 237.668C-35.9773 208.633 -17.0308 183.271 6.39819 154.167M-280.913 552.79C-267.804 537.784 -255.413 520.489 -231.565 485.69M-52.9769 236.951C-33.9759 211.436 -14.5635 185.224 7.19608 155.324M-277.099 557.08C-262.145 531.095 -241.959 503.081 -228.415 485.646M-50.057 238.178C-31.0904 214.072 -11.3339 188.807 9.00405 154.585M-277.779 558.353C-264.974 538.276 -250.603 522.602 -227.258 486.24M-51.7314 240.944C-29.1776 211.793 -11.108 182.544 11.3279 156.588M-275.267 560.308C-260.802 536.766 -243.529 517.227 -224.299 486.835M-49.2491 240.403C-35.5099 224.422 -19.3402 207.578 11.8154 156.996M-275.802 562.392C-262.668 541.485 -247.084 525.263 -222.92 488.979M-45.1383 241.096C-28.3049 220.441 -12.97 196.498 13.5899 160.087M-275.208 564.262C-261.618 541.642 -246.44 522.706 -220.808 487.287M-45.9287 244.648C-24.5254 213.657 -3.64945 186.547 15.185 159.261M-273.282 564.484C-251.248 536.014 -230.648 506.587 -216.291 487.186M-44.8079 244.126C-25.2079 217.843 -5.90355 191.759 15.6067 159.945M-272.575 567.09C-256.313 545.532 -237.577 521.495 -216.246 488.107M-43.0604 246.15C-22.2429 213.405 1.12252 183.515 19.0451 163.604M-272.383 570.114C-249.973 536.083 -226.666 506.781 -215.193 487.573M-39.0569 248.451C-16.9645 217.188 1.78791 187.297 19.4998 162.213M-270.991 569.641C-255.616 552.095 -242.541 535.163 -212.507 488.988M-38.7564 247.721C-17.242 217.127 7.02485 187.761 20.813 163.91M-269.854 573.416C-254.787 552.64 -238.08 530.781 -211.105 491.765M-36.4949 250.12C-18.0636 220.999 1.80464 195.351 23.1878 165.992M-267.465 574.416C-244.577 542.301 -221.787 509.386 -206.012 492.428M-33.6041 250.996C-15.6647 222.339 5.53047 193.955 24.5795 167.17M-264.983 575.668C-246.6 549.403 -229.362 526.761 -206.326 491.575M-31.7309 249.42C-7.01194 217.824 13.8528 182.935 26.0983 168.114M-262.547 575.962C-242.589 544.677 -218.792 515.881 -203.685 492.589M-29.7953 251.498C-10.2029 224.189 9.69375 193.833 30.2563 166.324M-261.978 578.385C-248.578 557.414 -235.638 539.963 -201.153 491.738M-30.701 252.122C-8.02709 226.209 9.54725 197.487 30.5709 169.47M-259.673 578.102C-243.582 555.528 -226.139 532.875 -198.538 493.658M-26.5917 252.844C-3.93095 224.669 18.6423 192.422 33.5532 169.949M-258.293 580.574C-243.237 558.751 -229.218 537.523 -196.49 493.707M-25.4193 256.042C-14.2403 233.513 3.6565 214.792 34.912 169.964M-258.878 581.464C-237.198 556.684 -219.236 529.623 -196.465 494.476M-23.9809 257.46C-2.93116 225.599 20.8766 192.461 34.3172 172.651M-255.192 583.366C-236.787 555.47 -219.816 530.655 -192.54 494.13M-22.8958 256C-8.672 235.43 7.90794 215.366 37.4284 172.177M-255.996 582.694C-241.366 560.143 -226.078 539.414 -191.604 494.641M-21.2513 258.953C-8.20157 238.107 6.32709 220.475 39.0591 172.744M-252.885 584.735C-233.957 559.208 -218.678 533.558 -190.619 496.206M-21.1057 258.832C-0.458662 235.913 13.8723 213.792 39.7029 176.261M-250.605 586.413C-230.757 558.704 -215.458 534.271 -185.532 497.241M-16.8056 261.418C-1.17411 235.512 15.2658 211.849 41.373 177.467M-248.163 583.964C-225.585 555.466 -203.864 523.317 -186.191 497.244M-16.1753 260.658C-2.60556 239.179 14.2639 216.497 44.2751 177.86M-247.383 587.942C-228.589 564.362 -213.936 539.057 -182.247 498M-13.1195 260.766C4.38204 239.847 21.338 213.437 45.1707 177.718M-242.903 586.659C-231.138 566.048 -216.696 545.53 -179.988 498.733M-12.6891 261.982C8.72327 232.681 30.9832 198.435 49.1556 181.162M-242.689 589.019C-220.834 554.387 -194.708 522.311 -176.675 498.579M-10.3772 263.996C9.79327 235.579 26.1116 210.576 48.4914 179.278M-242.413 589.185C-223.29 560.855 -206.055 538.796 -175.446 496.525M-8.19428 263.667C2.41666 246.014 17.7724 227.176 50.1984 181.862M-239.875 589.205C-219.318 564.616 -203.163 537.573 -172.906 498.713M-7.24617 266.549C15.4573 234.409 41.8645 199.739 51.7374 181.216M-236.401 589.29C-220.157 565.629 -201.71 538.797 -171.671 500.584M-6.16936 268.117C10.1157 240.3 29.8311 215.956 53.3263 182.812M-235.046 589.271C-220.257 570.648 -204.23 545.363 -170.522 499.076M-5.6231 268.123C21.0127 232.392 43.6658 200.153 56.4845 185.376M-233.143 590.663C-218.11 572.244 -204.686 554.235 -168.579 501.567M-1.03654 269.56C22.891 236.436 44.955 204.19 59.0377 184.961M-230.784 592.511C-218.192 569.788 -202.573 553.286 -165.947 500.741M-1.93009 271.992C21.9079 240.889 43.7422 209.106 60.6748 188.003M-229.422 592.2C-204.947 555.426 -177.538 520.615 -164.478 501.538M1.19996 272.73C12.9243 254.988 24.4088 235.928 61.5454 186.855M-224.886 593.189C-206.409 564.64 -184.251 534.948 -162.797 499.929M2.49288 272.678C17.2621 253.24 29.483 235.809 61.4113 187.43M-223.532 593.806C-206.799 571.684 -188.57 547.621 -157.812 503.18M2.87267 274.966C17.4739 256.235 29.1477 236.818 64.1888 188.715M-223.589 593.757C-205.295 572.722 -189.545 550.358 -157.423 501.108M4.93368 273.432C18.7311 255.251 30.3941 237.232 66.8743 189.15M-222.209 592.932C-205.158 570.47 -189.482 547.845 -153.843 503.025M7.50385 276.295C26.2536 248.125 48.3978 223.534 67.0294 190.799M-217.161 594.8C-204.172 571.625 -189.427 553.05 -151.931 502.416M8.88105 276.945C31.048 243.198 57.2542 210.41 68.1886 193.295M-217.406 594.141C-198.23 567.945 -178.552 540.003 -151.443 502.479M12.4743 276.285C24.7924 258.607 37.2265 236.627 71.9921 192.606M-215.511 594.375C-199.738 575.868 -183.909 554.007 -148.386 504.142M13.231 277.927C32.4921 248.789 56.0814 221.056 72.683 196.508M-213.773 596.449C-191.263 568.168 -171.859 541.191 -146.84 504.43M13.6576 280.937C37.3344 245.999 63.4523 214.256 73.9786 196.928M-210.824 595.159C-195.025 572.186 -177.143 549.972 -143.748 505.286M15.799 279.822C38.6525 247.778 65.264 215.757 75.7559 195.262M-209.455 597.355C-195.081 576.876 -179.132 554.722 -140.781 502.72M18.8862 282.551C30.1458 262.212 45.1559 242.244 76.3375 196.718M-206.536 598.475C-188.298 573.05 -171.684 551.703 -138.763 504.43M17.9067 281.55C42.3652 254.596 64.4814 222.179 81.3101 200.112M-203.172 599.013C-177.984 563.754 -155.249 530.247 -135.731 504.628M22.8194 284.285C40.6601 258.469 62.0939 229.507 81.2208 199.674M-203.617 599.428C-180.215 571.219 -161.918 540.527 -134.039 506.571M22.4064 283.846C40.9161 259.09 60.6182 235.699 84.3659 201.293M-199.982 600.21C-181.964 572.999 -166.703 551.017 -132.859 504.31M25.4777 285.969C42.2572 264.654 55.0705 241.446 86.6916 203.295M-197.268 600.202C-177.001 571.121 -157.157 539.781 -129.161 504.055M25.9827 285.491C46.1781 259.904 66.7731 231.753 86.3797 202.391M-196.291 599.443C-176.92 575.518 -160.726 549.962 -129.52 504.467M26.8947 287.69C49.9613 255.493 70.5928 225.221 88.6286 203.861M-194.904 599.958C-180.338 577.59 -163.554 558.171 -124.905 506.473M30.4785 289.381C44.6465 271.46 57.9986 250.404 88.9328 204.119M-191.265 599.359C-170.499 574.656 -154.269 550.431 -124.617 507.504M31.9752 290.719C50.8777 260.163 72.1268 236.058 92.0871 206.828M-190.116 600.997C-169.495 570.526 -147.196 543.599 -119.617 507.86M32.0587 292.285C53.695 262.276 72.5751 235.261 92.265 206.668M-186.068 600.425C-160.068 566.143 -133.599 531.969 -120.059 505.712M35.1663 292.99C55.1228 265.592 70.866 239.882 95.4526 209.212M-186.26 601.365C-160.358 566.519 -136.736 534.522 -115.625 506.569M37.6634 291C57.3376 266.969 74.0656 241.096 97.4216 209.954M-183.698 603.334C-158.771 568.285 -132.757 535.39 -114.417 507.613M38.1302 293.07C61.986 264.822 83.7454 232.267 100.154 208.2M-181.692 603.191C-152.541 565.366 -128.134 529.585 -111.236 507.769M39.1479 293.685C56.4696 270.349 74.4879 245.953 99.215 210.183M-176.861 603.846C-157.588 577.836 -139.62 549.766 -110.987 506.006M41.1567 295.656C55.032 278.545 66.5026 258.43 101.522 212.714M-177.677 604.421C-161.662 582.801 -147.888 559.986 -106.8 506.862M43.2812 295.771C64.501 267.101 84.1703 237.025 102.763 211.443M-174.74 602.212C-156.362 581.589 -142.503 557.858 -104.438 508.14M44.8833 297.123C61.2369 277.728 75.4122 252.55 107.64 214.932M-170.931 604.464C-155.616 583.439 -141.609 560.763 -103.215 506.003M46.0853 298.685C64.1114 276.211 80.4625 253.617 107.744 215.58M-168.929 604.996C-152.128 581.921 -136.62 560.476 -99.1338 507.036M48.6302 299.091C65.5977 276.249 83.7227 250.694 109.014 215.33M-165.505 602.485C-142.18 567.264 -116.873 534.665 -98.3792 507.714M50.9065 299.867C69.6793 275.459 85.9303 251.374 111.528 217.599M-165.437 603.34C-138.153 566.375 -109.971 529.955 -96.0007 508.112M53.8431 302.688C64.6269 282.228 75.858 264.715 112.359 217.788M-163.373 604.409C-147.004 586.164 -133.509 563.491 -91.5331 506.713M53.3092 303.69C69.2253 276.667 87.3837 251.404 116.219 218.757M-161.007 603.789C-143.622 583.917 -130.721 562.395 -89.7149 507.303M54.6296 302.01C78.9077 274.342 98.4113 245.534 117.948 218.027M-156.788 606.059C-143.854 583.27 -129.912 559.449 -87.5781 505.318M59.0669 303.136C75.5135 277.911 92.5936 253.25 116.883 219.682M-156.66 605.662C-140.61 587.303 -125.83 564.301 -85.2438 504.567M58.551 305.645C77.7249 284.968 93.6826 260.967 120.433 221.538M-153.54 606.03C-130.354 576.942 -110.311 548.491 -80.5768 504.982M61.6356 307.106C80.8389 282.09 96.5187 256.857 121.34 220.873M-149.476 605.277C-127.338 569.875 -99.173 533.831 -78.1785 503.791M62.7082 307.967C83.7949 278.852 106.027 249.342 122.68 223.711M-147.356 604.856C-133.338 583.869 -116.975 562.464 -76.4369 505.372M63.7115 307.916C77.0234 288.083 90.6785 271.876 125.488 223.184M-147.055 605.984C-117.669 567.585 -90.7424 527.527 -74.6756 505.487M68.2729 309.049C81.6821 287.167 99.1246 262.294 126.212 225.939M-143.276 606.34C-127.58 582.74 -108.116 553.701 -73.3691 505.055M68.0357 308.5C82.2832 290.541 93.6841 274.62 127.938 225.152M-143.319 605.706C-120.643 572.354 -95.2422 540.275 -68.9205 506.356M69.2579 309.932C91.8611 282.259 115.769 252.457 130.314 226.265M-139.065 605.735C-114.834 571.845 -86.6993 536.329 -67.0018 505.287M73.5325 311.856C92.1482 281.556 113.429 253.222 133.983 227.774M-138.588 608.453C-116.627 581.672 -99.5127 552.632 -63.5149 505.296M73.8224 311.437C89.4521 288.612 104.927 267.571 135.495 228.624M-135.881 607.654C-120.423 583.672 -102.555 558.574 -61.4205 505.516M74.5756 312.366C101.021 280.997 124.512 247.099 136.947 230.396M-133.676 606.454C-112.33 579.885 -93.2077 548.892 -59.831 503.359M77.3588 313.391C92.2421 290.438 108.131 266.753 137.361 229.531M-130.862 608.244C-114.841 582.919 -96.3733 558.259 -57.8427 503.342M79.8719 314.718C100.5 287.412 122.792 258.167 137.923 229.883M-127.834 607.419C-115.399 587.094 -98.2711 565.301 -54.5889 504.755M78.9946 315.723C99.6469 288.827 119.108 259.702 142.068 232.284M-127.418 609.893C-102.169 574.114 -76.775 536.457 -49.6043 503.31M81.1899 316.251C106.3 285.826 130.3 251.114 143.299 232.827M-123.574 607.678C-99.8412 573.817 -73.4274 536.143 -48.6663 502.168M82.6713 318.197C96.3029 299.737 109.493 284.918 146.779 234.072M-123.076 610.088C-103.591 588.049 -87.7296 565.696 -46.4292 503.376M86.1189 317.69C108.853 288.392 128.901 257.754 145.719 236.175M-117.721 610.223C-100.081 583.395 -83.5215 559.105 -42.2945 503.357M86.3859 319.198C99.4465 303.368 113.323 284.545 149.737 236.214M-116.975 610.664C-95.8631 579.291 -74.8196 552.796 -39.3133 502.604M90.2213 321.916C113.759 287.698 139.564 254.305 149.935 235.216M-116.107 609.342C-87.0324 568.604 -58.2147 528.377 -38.2634 502.69M91.1941 320.65C115.689 288.865 138.42 257.328 151.928 235.801M-111.822 610.359C-87.942 578.737 -66.1584 547.458 -33.3822 501.743M94.4303 321.639C111.83 299.423 130.147 272.299 153.075 236.151M-109.156 607.646C-79.6505 568.077 -51.3047 530.48 -32.4114 500.723M96.1318 322.914C110.756 303.76 122.977 283.439 157.303 239.119M-108.322 608.388C-87.7659 577.384 -64.2412 547.581 -27.6525 500.312M97.1302 325.881C114.067 296.488 136.767 270.951 159.409 239.38M-104.727 610.214C-78.9465 568.837 -51.8406 530.121 -25.4391 498.997M99.8627 325.462C115.447 301.969 135.136 275.648 159.642 240.969M-103.54 609.662C-80.9516 579.198 -57.8911 550.222 -23.7002 499.087M100.016 327.483C116.39 302.571 131.675 282.019 161.592 240.761M-101.042 610.843C-73.4808 571.514 -49.0045 535.932 -19.6622 496.909M103.164 326.13C121.741 301.376 141.113 272.833 162.536 242.206M-97.4017 608.283C-73.5412 571.322 -46.3753 535.32 -16.881 497.339M102.503 326.931C119.469 303.73 135.143 283.085 164.976 242.885M-95.5733 608.684C-71.8985 579.491 -51.1596 545.921 -15.35 498.389M106.174 328.227C120.192 309.545 133.993 287.157 167.923 244.411M-93.0077 608.676C-75.9204 582.915 -58.9378 560.755 -13.079 498.105M108.157 330.426C127.733 304.111 145.24 277.86 170.666 244.796M-89.8674 609.279C-65.2837 573.984 -41.2483 542.382 -9.63039 497.511M108.917 331.95C124.863 308.835 137.615 289.959 169.509 245.441M-86.7655 609.835C-71.3885 586.935 -52.458 562.28 -6.48977 495.729M111.278 331.995C131.662 301.47 151.361 272.496 171.198 245.968M-86.5701 610.446C-61.9004 576.766 -36.2159 541.841 -3.42211 494.979M114.807 331.181C130.251 307.058 146.953 281.598 173.394 247.773M-82.1 610.189C-58.9344 577.916 -35.6777 545.967 -0.7215 495.042M114.83 333.147C135.967 302.818 159.842 276.804 174.943 249.292M-79.3553 607.889C-55.5941 576.051 -29.3932 542.4 3.54316 493.927M115.411 333.497C140.836 302.051 163.477 269.033 179.454 248.226M-77.6732 610.415C-56.0323 579.155 -34.5164 546.785 5.54193 492.777M118.098 336.533C138.089 308.549 156.295 281.14 181.131 249.559M-74.918 608.821C-52.6394 578.681 -31.2351 546.368 10.3393 490.77M119.531 335.993C137.626 310.615 155.228 287.439 180.623 251.464M-73.981 610.529C-48.7214 575.522 -23.2953 542.672 12.3784 491.925M74.5976 405.258C77.8576 398.93 82.948 394.374 88.7761 385.504M123.444 335.69C147.603 303.895 169.752 270.447 183.315 249.796M-70.9839 609.148C-36.9504 565.681 -4.72293 521.546 16.1283 488.573M71.1737 413.731C74.1762 405.05 80.2807 395.325 93.4654 380.685M122.562 339.142C147.469 303.93 171.639 273.504 184.038 251.924M-68.1222 608.566C-38.5944 568.844 -6.85589 525.003 19.5662 488.52M64.7915 424.178C72.3311 412.104 79.2717 401.996 99.0719 376.774M125.573 338.748C150.439 304.974 172.825 271.624 189.263 253.426M-66.3762 609.559C-48.153 583.231 -29.926 561.022 21.9892 487.73M66.5184 426.159C76.7076 412.993 85.6533 399.208 100.355 373.974M127.104 340.525C146.578 314.345 163.958 290.241 190.362 254.103M-62.985 606.963C-38.3086 573.301 -11.6024 537.33 25.7155 487.137M63.5189 431.774C73.5719 416.753 82.5623 406.065 105.871 373.633M129.555 338.857C149.365 314.513 169.76 287.318 189.795 254.723M-61.7045 606.839C-35.6959 573.566 -12.0581 538.416 28.2893 485.319M64.7877 432.553C78.1649 416.452 88.1594 400.481 109.6 372.764M130.253 341.062C144.791 323.276 156.835 307.542 191.592 256.415M-57.3183 606.231C-35.3683 574.037 -14.1815 543.546 32.1091 483.513M63.9192 436.023C83.1253 409.5 103.508 385.877 115.518 369.807M133.189 341.34C156.262 306.625 180.844 273.128 192.835 258.82M-55.2315 608.609C-22.9218 563.848 6.78966 521.486 35.9869 480.751M64.3683 440.742C80.3696 418.942 96.3739 396.863 118.264 368.231M136.992 344.047C154.458 317.947 170.486 292.044 195.431 258.389M-51.3521 605.843C-28.1962 569.883 -2.26896 533.182 38.8231 481.792M63.8151 444.956C85.4267 412.454 107.36 386.264 121.133 368.73M138.156 344.618C155.856 314.571 172.716 291.067 197.988 259.596M-49.0622 606.521C-22.6128 568.127 3.3472 533.249 41.1876 479.347M66.4343 446.346C85.23 421.304 103.415 394.972 122.79 368.516M140.087 343.362C153.062 325.48 167.577 307.482 197.671 259.677M-48.2608 605.601C-17.9643 565.265 12.9661 523.557 45.0829 476.611M66.1547 449.688C82.6892 425.551 101.117 402.373 125.092 367.335M139.632 344.426C162.44 316.527 181.805 291.469 199.317 261.706M-43.1157 606.987C-18.0228 566.266 10.6323 527.899 49.5505 475.623M66.4917 452.072C80.0986 431.841 93.3547 413.043 127.002 366.381M143.31 346.664C164.844 314.228 186.591 285.066 204.19 263.596M-42.4179 604.978C-13.4015 567.886 13.7338 527.653 51.6365 474.208M67.0542 452.744C86.6254 426.558 104.303 401.729 132.308 366.692M143.723 345.808C158.19 327.569 169.09 307.515 205.657 261.567M-39.4745 605.119C-10.8359 566.231 20.4018 525.989 55.7091 474.919M69.9851 457.128C88.4192 427.211 107.409 398.823 134.531 364.075M144.936 347.327C160.459 327.77 174.531 308.479 206.335 263.844M-36.1442 606.043C-17.0008 577.625 7.06242 547.77 59.9479 472.276M69.8354 459.527C82.3903 437.652 99.3195 418.022 135.735 363.941M146.343 350.4C166.801 323.187 186.719 294.871 206.387 263.986M-33.0462 604.444C0.294392 557.07 37.6063 509.518 62.5656 470.347M68.8173 459.329C88.7682 431.351 107.883 404.545 139.631 365.057M149.265 349.846C168.046 321.097 188.566 295.659 208.331 265.425M-32.1506 606.295C-0.739175 562.253 30.0065 519.308 67.0787 469.195M70.618 463.446C98.8604 423.957 123.881 386.565 142.637 362.672M150.638 352.669C168.007 330.322 183.466 307.054 211.24 268.942M-29.4868 603.904C-6.13405 576.471 13.5087 546.09 70.6382 465.823M71.6849 463.894C96.1439 430.057 118.762 394.574 144.829 361.772M151.777 351.275C166.582 331.307 182.099 307.445 212.759 269.602M-26.0304 604.711C35.873 517.887 98.7086 429.89 147.963 363.632M153.217 352.809C171.23 326.632 190.45 301.769 212.646 269.507M-22.543 603.804C13.8892 555.444 50.0855 503.734 149.498 363.243M157.376 355.447C170.622 332.515 186.253 312.539 217.287 269.824M-19.9193 603.855C46.5272 511.261 112.515 419.495 152.127 362.171M156.274 357.827C179.917 323.471 202.412 290.762 216.63 271.488M-16.9832 602.644C76.4629 470.972 171.043 339.748 218.857 273.707M-13.9016 602.253C32.3117 538.012 79.1776 470.625 220.037 275.62M-11.3573 601.731C53.68 511.403 118.853 419.329 221.992 276.331M-9.35311 600.929C50.0268 518.36 109.941 433.7 223.444 277.276M-5.20412 600.908C69.5283 494.865 147.244 389.621 225.03 278.484M-2.38519 598.969C66.6909 502.033 135.853 407.224 225.54 281.064M-0.760006 599.169C90.994 472.941 180.917 346.131 226.928 281.879M2.54802 597.754C48.9007 535.541 93.5446 472.173 228.739 283.689M5.46807 597.455C92.0265 479.301 178.625 358.299 230.391 285.317M8.25462 597.26C90.7945 483.665 171.582 370.572 230.913 286.033M11.4979 596.187C76.7437 505.17 140.937 414.278 232.602 288.52M13.9553 596.52C100.039 476.595 185.87 356.153 233.508 288.682M17.3392 595.865C62.0714 531.358 109.029 464.842 234.787 290.487M20.8659 593.531C85.6575 500.036 152.173 408.267 236.701 292.457M23.4479 593.416C103.936 482.662 182.136 373.242 238.287 293.973M26.307 591.906C83.1338 513.648 140.192 434.079 240.068 295.05M29.0429 591.85C116.794 473.853 201.017 355.733 240.977 297.74M32.7405 589.968C81.2482 523.601 130.748 454.107 241.576 299.648M36.5526 589.563C102.101 495.584 169.116 402.246 243.242 301.067M38.7466 588.078C116.298 479.18 193.754 370.121 244.285 302.519M42.6108 587.858C123.812 475.392 204.344 362.642 245.639 304.332M44.7291 587.588C96.4323 516.507 147.085 445.761 245.503 306.229M47.8647 586.024C123.305 481.036 197.059 377.097 247.548 308.924M51.5565 584.643C115.068 496.33 178.182 409.548 248.825 309.782M53.8039 584.636C98.4604 520.912 145.732 455.74 250.047 313.088M57.8369 582.871C136.102 478.03 212.626 369.785 250.251 315.168M60.1584 582.973C103.276 520.125 147.148 459.353 251.096 316.758M64.7606 580.915C117.532 505.234 170.784 429.99 252.473 318.812M67.4738 579.434C123.995 498.083 181.286 419.249 252.803 319.713M71.4736 577.988C121.086 509.195 170.809 439.929 254.892 323.256M74.4549 577.387C144.408 479.765 214.07 380.843 255.641 325.483M77.8947 575.494C122.123 514.983 167.292 453.77 255.582 326.606M82.0752 574.48C122.728 513.154 165.718 454.632 256.285 329.217M85.4679 572.458C137.445 496.636 192.079 421.264 256.745 333.011M88.8288 570.068C136.215 500.601 185.677 432.398 258.31 335.526M90.985 569.016C127.99 522.018 163.404 473.128 258.465 337.014M95.9867 568.263C141.508 504.179 187.493 441.245 258.707 339.579M98.8646 566.631C153.086 489.746 207.154 414.631 258.767 343.415M101.713 565.825C162.884 479.456 223.128 393.699 259.637 345.038M105.315 564.479C152.4 499.686 197.246 436 260.646 349.253M108.024 564.392C168.025 479.255 227.072 395.047 259.969 351.801M111.613 561.249C149.789 508.27 188.011 455.869 259.38 355.525M115.65 559.477C157.4 498.44 200.273 438.877 260.635 359.297M120.583 558.034C144.656 525.615 167.909 491.544 191.504 459.249M191.179 457.994C216.537 421.961 241.845 387.012 258.752 361.66M123.323 556.361C142.075 525.448 164.347 498.989 189.476 463.835M192.613 455.826C213.624 428.924 233.335 400.967 259.958 365.137M129.115 554.466C152.547 520.64 175.186 484.759 191.672 465.816M199.236 455.175C213.413 435.787 230.313 412.798 259.484 368.317M131.126 551.88C148.679 528.587 164.645 508.589 190.028 469.874M201.64 454.361C221.153 428.225 241.158 398.941 260.033 373.92M137.755 549.422C157.045 521.723 173.813 498.417 190.286 471.059M206.217 450.425C222.969 428.452 244.044 400.562 255.322 379.101M140.022 544.462C160.279 516.419 180.289 489.44 190.357 473.378M209.635 449.049C220.938 431.021 234.121 413.241 254.404 384.784M145.507 542.268C156.053 528.45 168.595 508.496 190.226 477.478M213.176 448.168C220.999 435.351 231.55 422.439 255.103 391.492M150.252 540.721C160.86 522.426 174.677 507.422 189.534 484.133M219.324 442.818C226.974 430.238 238.964 414.519 251.79 398.68M155.781 537.891C162.982 525.128 168.631 514.259 188.115 489.186M226.388 433.507C233.94 428.95 239.576 421.056 246.442 410.019M157.054 534.695C165.848 524.255 172.704 517.268 187.323 493.818M164.113 527.691C170.751 519.035 176.088 515.88 185.868 500.059M-267.855 24.7229V24.7229ZM-275.811 511.242V511.242ZM78.4694 394.459V394.459Z" stroke="#454545" stroke-width="0.172364" stroke-linecap="round"/>
</svg>
