<svg width="46" height="52" viewBox="0 0 46 52" fill="none" xmlns="http://www.w3.org/2000/svg">
<path d="M4.22559 50.5322C8.31858 47.7304 13.5426 47.2235 18.2843 46.4529C20.6902 46.0492 23.1239 45.8285 25.5106 45.5471C27.9191 45.3124 30.3089 44.9152 32.6638 44.3582C30.5913 45.7287 28.1576 46.4856 25.7799 47.0576C23.4022 47.6296 20.9773 48.013 18.5819 48.3974C13.7278 49.1491 8.96435 49.1711 4.22559 50.5322Z" fill="white"/>
<path d="M35.1818 35.2701C28.8641 30.3199 23.4967 24.2779 17.7515 18.7436C11.9713 13.0899 5.47094 7.35067 1.84896 2.65316e-05L2.20814 0.401894C2.34455 0.605597 2.45704 0.82434 2.54337 1.0538C2.38263 0.8757 2.28319 0.635891 2.1059 0.506384L2.21742 0.416993C4.70655 3.53263 7.43188 6.45198 10.3693 9.14915C13.2747 11.8929 16.2571 14.551 19.1362 17.343C24.8671 22.9998 29.9145 29.1826 35.1818 35.2701Z" fill="white"/>
<path d="M43.9942 29.7629C42.082 25.5599 41.754 20.8246 41.3889 16.2946C41.0237 11.7646 40.7998 7.00854 42.148 2.58078C42.3442 6.48466 42.7654 10.5592 43.1893 14.4271C43.7092 19.563 43.5433 24.6197 43.9893 29.7628L43.9942 29.7629Z" fill="white"/>
</svg>
