<svg width="489" height="424" viewBox="0 0 489 424" fill="none" xmlns="http://www.w3.org/2000/svg">
<path d="M279.798 379.086C280.669 377.673 281.911 376.182 282.427 375.152M278.046 381.451C281.674 378.715 283.212 376.073 285.068 374.386M277.665 383.51C279.298 380.102 283.389 377.736 286.367 374.661M277.744 385.67C281.565 382.943 284.061 378.01 288.463 371.576M273.062 390.867C280.03 384.667 284.688 380.968 290.523 370.265M274.755 394.258C280.026 386.168 284.321 382.304 291.794 371.834M272.023 393.929C278.277 387.728 281.048 385.226 297.224 369.148M273.905 393.735C281.995 385.172 289.759 377.731 296.88 369.801M274.721 395.333C278.653 388.307 285.922 382.45 300.572 367.599M273.508 396.847C283.311 387.875 290.911 378.835 300.265 367.654M274.224 396.957C285.657 388.247 293.28 376.704 302.865 369.826M277.295 401.229C286.836 387.158 295.141 377.896 302.94 367.87M274.949 399.004C285.876 389.37 296.973 378.441 304.284 369.84M275.795 402.949C285.527 392.136 289.448 384.895 303.854 370.174M278.058 402.053C284.13 398.227 289.535 390.398 303.523 369.274M278.996 403.952C288.131 393.127 298.746 379.388 305.65 370.113M279.103 405.041C284.14 396.78 292.244 387.754 305.505 369.735M278.398 405.893C286.231 397.171 294.978 386.042 308.975 373.225M279.756 405.671C287.71 395.578 296.459 385.194 308.604 373.254M278.408 409.2C288.125 402.123 291.326 392.294 310.092 370.854M279.495 408.264C291.646 397.078 303.481 380.896 309.255 374.057M281.186 409.109C285.672 402.126 294.477 393.077 310.838 374.824M281.831 412.206C294.378 394.724 307.145 382.417 312.663 372.839M280.367 412.713C293.069 398.129 304.544 385.873 312.406 373.225M281.258 413.141C291.863 403.978 297.56 392.136 315.493 373.015M280.961 413.507C294.796 399.639 307.552 386.107 314.976 374.997M282.812 412.143C291.903 400.914 301.89 393.321 318.2 376.416M284.347 413.677C295.328 402.819 303.568 392.223 318.503 376.808M283.555 416.039C296.968 401.895 311.479 387.544 319.554 374.381M285.501 416.056C295.293 401.879 308.654 390.73 318.819 378.92M286.038 417.645C295.922 406.09 304.42 397.185 320.305 377.015M286.195 418.221C294.941 406.377 307.157 394.966 319.945 379.447M290.005 416.86C299.855 406.485 309.212 395.202 319.92 380.743M291.743 417.077C299.542 407.778 308.861 397.288 321.449 381.28M291.169 416.442C300.595 406.414 309.558 395.561 322.596 381.788M293.869 416.093C300.309 410.296 305.84 403.625 322.837 384.685M291.828 419.027C305.082 406.453 314.508 396.331 322.637 385.485M292.848 417.007C299.388 410.378 306.236 404.165 321.337 384.397M295.842 418.458C306.675 407.101 314.541 394.103 321.633 388.11M297.31 420.67C306.013 408.176 316.28 399.832 321.857 388.332M297.966 419.43C307.859 407.188 314.381 399.594 322.501 387.9M297.098 419.099C304.118 413.68 312.784 403.43 325.38 390.253M297.96 422.313C305.284 412.913 312.146 403.7 326.541 390.893M300.413 420.943C304.499 414.371 313.289 405.912 323.235 393.049M301.133 421.994C305.526 415.091 314.108 409.205 325.449 391.997M304.369 419.146C308.996 412.989 313.026 407.413 325.993 393.949M305.974 419.35C312.964 411.612 320.157 399.805 326.22 393.415M306.845 417.483C313.988 410.954 317.824 407.972 325.952 395.582M308.763 415.865C315.418 414.14 319.539 410.058 323.554 400.682M311.56 417.75C314.919 412.663 322.251 406.319 323.096 403.823M314.309 416.454C315.045 414.531 317.131 410.542 323.054 406.379M316.322 414.13C316.597 412.956 318.764 412.223 320.245 409.764M280.844 375.867V375.867Z" stroke="#D1CB28" stroke-linecap="round"/>
<path d="M106.101 378.892C107.136 377.351 108.495 377.053 109.801 374.549M104.658 382.361C106.678 380.171 108.349 376.367 112.448 374.02M104.423 383.705C105.153 380.656 108.579 380.631 112.617 374.778M102.356 388.603C108.814 380.701 113.254 376.286 115.058 373.267M99.4691 390.848C109.088 383.562 115.274 374.706 118.704 373.568M98.1953 393.357C107.013 386.406 110.853 382.243 118.1 369.062M98.6724 394.821C109.077 388.148 116.504 377.585 123.592 371.448M100.968 395.079C107.201 387.483 117.01 378.033 125.173 370.327M102.26 397.977C110.454 389.001 118.442 378.257 125.026 367.404M100.862 396.431C109.573 385.783 119.498 379.366 126.746 368.321M103.862 400.178C110.467 391.771 117.222 381.871 128.132 367.932M104.592 398.213C111.273 389.291 121.879 375.217 130.664 369.715M102.378 399.875C112.136 393.984 117.534 381.089 130.338 368.093M102.474 403.334C110.571 392.862 119.203 380.454 129.566 369.128M101.904 402.236C114.54 391.786 122.647 381.807 132.266 370.965M105.732 404.668C113.257 394.1 124.139 383.153 131.967 369.348M103.41 406.882C111.618 394.323 120.812 386.573 134.107 369.702M104.117 407.738C115.458 396.253 122.945 382.216 135.763 370.806M106.605 406.707C114.366 396.784 127.111 383.04 136.44 373.153M105.949 407.03C113.165 400.529 117.266 391.55 138.101 373.287M107.344 407.605C119.448 395.662 133.24 381.956 138.263 372.694M105.027 411.166C119.694 396.082 130.043 383.282 139.751 373.105M106.142 411.569C117.833 398.961 126.328 390.51 139.775 372.61M108.708 413.849C117.534 400.605 126.61 390.879 141.108 375.514M107.244 413.271C115.995 401.714 126.486 392.357 141.351 373.868M109.257 414.287C123.54 398.712 136.234 383.447 142.236 374.359M111.645 413.912C124.299 399.082 136.928 382.962 143.048 373.861M110.535 415.967C122.815 398.647 136.248 384.654 142.749 378.06M112.695 416.623C120.204 406.719 130.464 397.643 143.859 374.904M111.498 414.903C122.129 405.193 134.447 390.373 145.941 376.757M114.199 416.129C122.139 405.999 134.07 396.248 145.095 379.205M114.265 414.501C125.597 402.656 139.681 386.746 145.787 380.848M116.738 415.821C128.915 404.583 138.987 391.449 148.548 378.205M117.864 415.403C124.015 410.712 129.398 400.125 146.693 383.126M116.807 418.489C124.409 407.559 131.253 399.893 150.284 383.926M119.128 416.49C127.115 405.708 137.161 399.076 149.804 383.456M118.278 416.763C125.904 410.485 134.755 400.632 149.168 386.019M121.64 420.888C129.406 405.761 138.796 395.569 147.495 384.421M123.773 419.593C131.88 408.397 143.597 394.121 150.141 387.245M121.009 418.205C132.632 408.477 140.549 396.492 149.43 386.356M123.103 421.196C129.018 413.463 138.102 405.824 150.073 386.749M124.333 420.139C130.994 409.444 140.038 401.285 151.796 389.351M124.594 419.823C132.532 413.081 140.326 401.164 150.939 392.273M126.985 421.633C135.838 413.005 142.351 400.741 152.327 393.374M128.086 419.88C136.013 411.418 147.624 401.597 153.873 392.228M130.835 419.658C135.666 415.198 140.451 408.279 153.114 392.093M134.098 419.044C135.773 412.956 142.608 409.475 155.201 394.637M133.876 416.898C140.43 408.885 145.022 404.969 153.315 396.45M136.468 416.902C137.49 412.994 144.367 411.599 151.073 401.767M138.686 417.282C140.133 414.022 145.142 410.462 148.656 403.043M139.74 414.745C142.849 414.098 144.238 412.233 147.515 405.769M142.897 414.173C143.913 413.201 145.445 412.079 147.969 408.535M107.473 375.867V375.867Z" stroke="#D1CB28" stroke-linecap="round"/>
<path d="M352.871 155.224C350.568 152.87 349.345 152.094 348.091 150.06M356.394 159.201C353.028 156.834 349.732 153.167 346.852 147.9M357.484 161.798C353.662 158.309 350.883 155.448 345.128 147.513M355.233 162.802C355.125 161.808 349.73 154.687 342.338 149.697M357.134 165.167C350.731 157.971 346.518 151.686 341.766 148.043M356.071 165.629C351.766 161.292 349.905 157.721 339.804 147.402M357.327 169.484C353.867 164.534 347.124 157.199 339.346 148.18M355.867 170.408C351.772 160.524 342.175 157.326 339.403 146.895M355.669 171.48C346.577 161.963 341.424 154.854 335.927 150.52M355.882 171.301C349.973 166.418 345.166 161.162 333.377 148.023M353.049 174.132C350.06 163.304 342.178 155.797 332.841 148.074M355.467 175.093C351.176 167.392 347.117 163.286 333.219 146.917M355.244 172.755C349.781 170.465 344.608 163.624 331.253 146.612M352.178 176.269C348.371 169.81 341.11 163.743 330.684 147.622M352.464 176.099C345.505 165.632 335.981 156.415 329.053 149.575M352.088 180.535C344.741 166.779 333.523 157.652 326.567 146.521M353.29 181.128C344.192 168.615 334.576 159.465 326.281 149.762M351.398 180.702C344.747 172.213 336.289 162.765 325.743 151.121M351.937 180.809C341.47 170.067 333.517 160.689 328.881 152.502M354.673 182.403C343.439 174.696 334.703 164.408 329.628 155.092M352.71 185.776C343.779 177.769 338.557 169.848 329.366 157.616M351.798 185.447C342.175 177.648 337.078 166.575 328.768 161.532M352.512 186.278C343.082 178.142 336.975 170.529 331.756 162.191M351.575 187.479C346.441 182.031 339.057 174.905 329.373 162.255M349.888 188.653C346.766 182.841 340.714 177.561 330.543 164.904M349.443 190.38C343.775 183.259 340.919 180.382 330.332 169.508M350.29 191.301C344.95 187.707 340.136 179.943 331.331 171.49M347.985 191.162C343.205 188.518 338.755 181.456 332.909 171.973M349.016 193.533C346.532 187.746 341.688 183.586 332.226 174.772M349.261 194.664C342.58 189.632 337.333 180.17 332.533 174.642M348.247 198.215C345.638 191.191 337.938 185.953 332.181 176.693M349.785 197.998C342.729 191.466 338.339 184.402 335.432 179.642M347.803 199.46C343.974 193.945 340.495 189.777 334.542 183.333M346.69 199.85C347.249 198.477 341.597 194.352 335.877 186.636M348.84 202.754C346.162 199.129 342.505 195.222 334.513 186.604M346.875 203.743C343.078 195.374 336.735 191.168 334.332 189.886M347.199 205.449C342.998 200.338 341.137 194.88 336.58 188.776M346.711 204.328C346.854 204.2 342.816 200.056 338.153 193.278M347.877 204.583C346.094 202.371 343.288 202.442 338.417 194.57M347.89 206.828C345.656 205.97 341.313 203.408 337.846 198.238M346.673 209.092C344.842 205.015 340.617 202.317 336.821 198.854M346.199 209.703C344.141 207.477 339.084 202.405 338.776 199.645M346.41 211.344C344.023 207.196 340.676 205.819 336.57 200.615M345.345 212.419C342.39 210.234 339.679 206.51 337.748 201.699M345.197 212.713C341.085 210.413 339.446 206.011 335.398 202.471M343.592 215.877C342.524 210.444 339.66 207.912 336.037 201.971M345.805 215.939C341.891 211.141 339.243 207.246 335.178 203.404M343.95 216.31C343.897 214.058 341.431 213.476 334.702 203.759M344.345 219.407C341.664 215.898 336.076 210.024 332.927 205.956M342.944 220.345C338.732 215.239 334.664 210.686 332.096 206.212M344.904 220.771C339.63 218.111 336.4 212.866 333.978 207.973M342.697 223.698C338.902 216.904 335.017 211.145 333.938 210.459M344.936 221.884C339.871 221.245 338.976 215.425 331.782 209.805M341.237 224.893C339.518 219.811 334.312 213.889 332.835 212.004M344.136 226.67C339.063 220.495 334.09 215.858 330.053 210.781M342.278 226.807C336.866 222.636 334.579 214.562 328.362 212.389M341.473 229.147C335.682 220.444 332.948 214.856 329.805 210.988M342.177 230.124C337.143 225.488 332.164 221.264 328.652 212.063M341.015 232.199C336.477 224.502 333.067 221.871 327.635 213.254M341.904 230.878C336.151 229.138 332.536 223.329 325.783 211.31M340.027 231.954C336.228 229.71 333.008 222.864 325.137 211.726M339.249 234.404C333.554 227.832 327.156 217.498 322.103 211.436M339.855 236.117C333.023 228.303 327.5 220.375 321.74 214.941M339.955 236.986C333.667 229.621 324.794 220.407 320.482 213.54M341.55 235.942C336.83 230.973 331.894 227.169 319.125 214.307M341.565 239.736C332.292 231.36 328.281 222.384 316.814 212.249M340.532 239.935C330.057 231.391 322.507 223.805 316.688 213.889M340.592 241.809C332.819 235.18 326.788 226.566 317.591 214.706M338.157 241.934C332.962 234.968 328.418 229.353 316.287 217.168M339.228 244.636C333.292 235.439 324.184 225.83 315.093 215.051M337.937 243.695C329.277 237.032 324.112 227.952 313.934 217.108M336.724 247.251C328.984 239.923 323.128 229.501 313.022 215.495M335.768 246.764C326.317 237.69 318.478 227.73 310.597 218.016M336.897 248.151C326.301 235.104 315.29 223.441 308.001 214.805M337.223 250.303C329.866 241.67 324.507 235.88 307.363 216.474M336.298 252.502C328.697 241.918 320.355 232.178 307.748 216.082M334.886 253.948C324.994 237.505 314.15 225.137 307.227 218.271M335.664 253.601C328.084 245.858 324.015 237.268 303.116 218.266M334.838 255.743C325.602 240.696 314.299 229.149 305.412 215.909M337.28 256.548C323.884 244.02 312.976 230.049 304.376 216.775M335.091 258.108C323.13 242.965 312.194 226.869 300.278 219.67M335.112 257.747C323.644 243.805 311.967 232.647 300.332 220.196M336.574 257.705C324.722 247.886 317.462 239.299 300.864 219.062M336.078 258.999C322.553 248.524 312.349 233.471 297.4 218.165M335.765 263.069C319.083 244.611 307.801 230.046 298.283 220.79M333.618 262.172C325.952 251.534 317.388 243.912 297.538 221.053M333.853 263.4C322.865 253.317 312.745 239.359 294.843 220.021M332.631 266.067C320.524 249.539 307.555 239.092 295.752 220.549M335.298 265.53C322.457 256.014 314.505 245.726 294.424 220.278M333.386 268.427C317.139 251.009 300.172 231.293 292.941 218.92M331.762 268.221C318.096 252.137 303.131 235.483 291.63 221.339M333.021 269.373C314.461 252.084 296.459 230.672 288.788 221.693M334.042 273.109C316.954 251.676 296.731 230.902 288.019 219.345M329.871 272.795C313.115 253.169 295.94 231.244 288.511 220.194M332.143 274.065C319.748 259.819 303.21 244.158 285.404 221.466M331.785 275.405C320.038 262.816 313.172 253.065 285.686 221.609M330.18 276.73C318.545 259.184 304.951 242.999 284.006 223.202M329.651 277.59C321.279 266.432 311.399 252.579 283.301 222.932M331.653 278.705C320.507 265.763 309.624 255.043 282.412 221.825M329.402 279.176C319.75 263.982 307.206 252.193 282.275 220.894M327.686 279.061C315.26 264.27 304.668 249.353 281.629 224.273M329.305 283.702C316.343 268.449 300.712 251.437 279.545 223.514M329.822 282.075C318.183 268.437 304.52 254.07 277.231 224.212M329.023 283.922C314.981 270.145 300.518 252.735 278.155 224.61M328.817 283.874C314.585 269.719 300.883 252.36 274.13 225.008M327.418 288.096C306.295 263.232 289.048 241.477 272.226 222.839M327.042 290.37C316.199 273.963 301.493 259.773 272.669 226.109M325.981 291.002C311.525 269.798 297.752 256.056 273.541 223.711M328.1 290.362C313.788 274.978 303.32 262.304 269.577 224.136M326.809 290.806C310.607 274.757 297.151 256.518 270.495 225.021M326.691 294.755C313.51 277.827 301.363 264.561 270.08 224.366M326.945 295.283C310.923 275.357 293.707 259.939 266.2 224.331M327.76 296.939C312.666 280.338 294.432 261.465 265.733 225.799M328.101 294.852C309.408 280.749 297.129 262.042 265.833 225.943M325.534 298.85C302.895 274.328 284.229 247.358 264.98 227.931M326.784 297.501C308.004 279.353 289.754 256.464 263.911 227.321M326.109 301.775C311.475 284.647 298.495 269.072 263.31 226.566M322.945 298.927C302.59 275.813 281.382 250.357 262.387 229.129M324.774 301.389C308.961 283.031 293.361 264.785 260.672 226.911M323.58 301.239C300.829 276.588 281.137 256.362 258.58 228.608M319.404 300.969C308.258 283.618 292.536 271.111 256.337 227.395M319.689 302.131C297.81 274.632 275.282 248.22 255.392 229.136M317.742 301.154C299.619 277.516 280.544 260.316 253.852 230.509M317.456 299.09C298.283 279.855 281.631 260.75 253.581 228.434M313.577 301.852C294.286 278.573 274.535 255.844 253.78 230.635M312.274 300.881C298.725 284.43 285.629 266.567 251.307 228.975M312.78 299.945C289.707 273.413 264.886 243.134 250.236 231.282M310.927 300.339C296.986 281.684 279.263 266.671 251.393 230.639M311.354 300.635C296.823 287.667 286.07 271.629 250.22 231.937M308.843 298.93C292.689 286.678 280.003 267.207 247.948 230.87M308.405 301.174C289.937 280.76 270.892 259.626 245.767 229.36M305.387 300.385C288.648 282.943 272.847 263.843 243.912 228.944M304.348 301.479C281.974 274.774 264.849 251.439 245.955 230.271M302.619 301.606C289.557 285.68 272.978 267.619 241.055 232.966M303.061 299.294C281.853 278.368 267.362 258.328 241.088 232.778M300.057 299.162C281.754 277.457 261.443 255.551 241.646 231.837M300.206 299.556C285.66 283.044 271.436 267.416 239.556 232.778M296.667 299.777C275.443 275.225 255.726 251.378 240.181 234.385M298.172 300.827C285.78 284.738 272.585 273.686 235.75 232.796M297.265 302.693C279.083 282.002 262.394 259.704 236.742 231.516M293.939 300.451C282.811 287.04 271.07 275.367 233.63 234.023M293.967 302.167C276.849 279.924 260.728 261.302 233.749 234.766M292.47 301.552C272.237 277.314 252.531 256.947 231.695 234.527M291.721 300.695C275.041 282.562 257.335 265.882 232.986 233.352M289.313 300.388C267.825 275.4 246.422 251.392 232.66 232.402M286.242 300.53C269.019 277.731 247.496 254.385 231.403 233.888M284.805 301.652C271.581 284.055 254.42 263.702 226.693 236.531M283.79 302.748C269.779 284.129 252.929 267.564 227.249 234.908M282.552 299.136C264.225 281.048 247.766 259.631 225.195 235.545M280.358 302.271C259.259 274.443 238.916 251.188 225.702 237.639M279.637 301.932C264.348 281.201 250.31 265.532 224.839 236.537M278.043 302.519C257.178 278.926 237.614 254.569 224.251 237.011M277.436 302.107C265.235 286.764 251.238 270.319 223.277 236.608M276.484 302.621C262.601 282.599 246.6 266.025 219.633 236.928M274.176 302.327C258.228 281.698 244.068 260.95 218.369 238.084M272.317 300.004C261.856 285.891 251.078 272.752 216.758 237.684M273.276 299.094C261.415 289.275 248.515 272.973 216.748 238.106M273.054 300.229C253.439 277.425 231.925 255.186 217.422 235.949M270.459 301.214C252.948 277.365 232.844 256.7 215.462 238.423M268.103 301.966C251.361 281.962 234.715 261.712 214.94 237.253M268.001 302.217C250.45 281.373 231.243 256.313 212.351 239.844M267.853 302.243C248.981 283.94 233.53 266.252 212.113 237.848M266.231 299.431C247.407 282.76 235.256 267.559 209.646 238.08M262.865 303.584C246.652 280.871 225.389 257.788 208.972 238.909M261.287 299.941C243.501 276.538 220.888 250.708 209.081 239.864M263.3 302.847C243.539 283.2 226.929 264.278 208.682 240.241M258.74 300.49C247.099 289.74 239.478 273.568 205.18 240.467M259.457 301.228C242.799 279.757 224.948 260.108 207.177 241.211M257.067 299.354C238.584 274.793 213.995 252.258 203.266 240.703M255.453 301.675C241.283 285.544 226.817 267.75 203.43 238.871M255.511 303.16C244.444 290.191 230.695 273.417 201.454 241.4M252.432 302.627C238.157 282.771 221.503 264.281 202.278 241.908M251.122 300.923C231.843 276.978 210.77 251.26 198.503 241.473M252.795 303.131C238.649 289.542 226.804 272.707 199.466 241.982M248.334 299.722C234.404 286.544 223.564 270.731 199.317 241.565M246.133 300.481C236.459 287.832 222.652 272.348 198.124 240.727M247.552 302.276C238.554 288.165 225.356 279.126 197.04 240.704M247.288 300.249C235.268 287.621 224.491 273.442 194.294 243.297M246.344 301.814C229.535 285.481 216.22 268.846 192.799 242.137M243.331 300.443C224.6 282.368 211.201 261.278 192.033 242.371M243.612 302.859C230.105 288.933 218.894 272.543 192.048 242.604M241.796 303.169C228.355 287.882 214.231 272.15 190.736 243.645M108.794 150.356C108.476 149.869 108.238 149.11 107.15 148.137M240.608 300.217C218.265 278.355 202.014 258.981 190.736 243.575M109.212 153.14C108.208 151.238 108.138 150.109 105.969 148.067M238.669 303.327C219.943 284.085 206.342 263.833 186.393 244.723M109.352 153.81C108.488 153.343 106.877 150.892 104.185 148.272M238.569 301.921C223.778 288.47 211.21 272.29 188.39 244.046M110.318 156.943C108.587 154.69 106.472 153.817 102.726 147.856M237.034 302.648C223.012 288.788 211.119 275.694 185.655 242.757M110.108 157.941C109.125 154.801 105.847 151.34 100.896 147.825M235.414 302.246C220.107 286.601 205.386 266.58 184.865 244.352M110.346 161.25C107.051 155.806 102.66 151.574 100.073 149.323M231.71 301.175C215.521 281.694 202.69 264.293 184.659 246.659M109.983 163.482C106.745 159.738 102.832 154.471 100.223 148.033M230.961 301.158C220.99 288.179 210.783 276.514 184.148 244.043M111.977 165.717C107.544 160.053 102.35 155.516 99.4332 150.158M228.521 302.182C216.659 285.926 200.859 265.605 181.824 245.462M114.294 166.3C106.547 161.619 102.839 154.727 97.833 147.739M230.857 302.05C211.257 284.309 193.557 263.509 179.963 246.882M115.096 168.78C106.414 160.571 100.21 153.735 96.4435 146.883M226.338 303.163C210.602 282.243 195.888 265.596 178.099 244.237M113.66 170.475C108.661 165.037 102.988 157.313 92.9888 150.092M224.289 301.869C210.362 285.206 196.235 264.779 179.99 244.827M113.317 171.653C106.399 165.857 98.6412 158.02 91.8874 147.735M223.842 302.398C209.999 285.041 194.262 267.172 176.102 247.614M113.395 175.844C108.721 168.202 101.263 159.925 91.3589 147.188M223.554 303.067C206.011 283.432 190.733 264.31 174.569 246.694M114.822 178.877C105.51 168.014 98.5364 158.227 90.0494 148.441M224.115 302.461C208.088 284.208 190.672 265.174 174.828 247.816M116.826 177.405C109.741 170.745 102.883 168.054 87.4174 148.024M221.826 301.915C211.648 288.096 201.149 277.25 173.15 248.893M116.818 180.61C107.799 173.092 100.242 161.665 89.6487 149.743M219.854 301.41C204.093 281.403 184.004 263.471 174.243 246.513M116.853 184.457C105.167 172.545 98 161.807 85.4869 148.947M219.451 300.355C208.062 290.855 194.529 278.009 170.452 247.793M116.959 185.008C108.299 176.593 102.584 167.915 86.1117 148.723M216.507 303.041C205.278 288.704 196.556 279.344 170.221 248.101M118.293 187.636C108.73 178.206 98.9248 164.752 84.3897 150.09M216.004 301.592C206.05 290.634 197.454 278.368 167.326 247.359M116.871 188.607C105.464 177.96 97.7677 166.55 81.638 148.426M215.174 301.95C199.012 282.213 181.3 263.639 167.568 249.925M116.279 191.452C109.58 179.882 98.5837 171.965 82.2838 147.497M213.295 302.523C195.67 282.004 174.932 258.491 164.968 248.317M118.633 193.221C105.032 177.773 92.2849 165.253 78.8648 147.218M212.594 301.646C200.611 287.321 185.261 270.969 164.896 247.758M117.694 196.266C109.93 185.149 102.74 176.257 77.7177 148.896M209.077 301.522C195.282 285.989 182.315 271.564 162.641 247.769M120.796 196.072C106.25 183.927 96.2071 167.65 75.9143 149.918M210.196 303.281C197.499 292.345 191.154 278.894 163.361 251.012M121.602 200.958C105.622 182.647 93.4578 168.14 75.4565 149.751M206.554 302.248C190.023 283.655 172.152 261.445 161.989 249.932M121.189 201.971C103.687 183.994 90.8157 164.452 74.8542 151.25M204.734 300.224C196.05 291.404 188.068 280.047 162.543 250.907M122.832 203.044C104.833 185.085 91.2441 170.397 73.6674 149.113M203.803 301.802C188.989 281.541 169.52 263.484 160.423 248.949M120.727 205.769C108.807 193.734 98.5205 180.119 73.3565 147.787M204.793 302.933C193.115 289.559 182.985 276.42 160.535 249.167M120.126 207.979C107.568 194.02 95.084 179.429 69.6909 150.596M200.707 303.605C185.577 280.277 168.828 262.133 157.628 251.906M121.999 208.931C105.02 190.239 88.734 168.892 68.4195 148.496M201.046 300.44C188.319 285.2 172.375 272.241 158.858 251.271M122.579 212.388C107.446 196.277 95.2657 182.083 66.8753 150.223M198.619 303.873C183.759 284.784 169.778 269.447 154.897 250.489M122.233 216.21C111.313 201.918 96.9394 185.381 68.0698 151.593M198.729 301.395C187.923 292.144 175.845 278.497 154.226 253.975M124.916 215.651C111.758 201.538 97.3086 186.472 65.8269 150.672M197.722 302.419C185.303 289.647 174.219 276.347 153.852 250.411M124.829 217.074C101.002 192.025 78.9619 170.38 64.7979 147.66M195.733 301.59C180.535 285.047 164.219 268.116 153.523 253.948M126.024 221.106C112.192 203.166 98.5658 187.713 64.6198 151.029M195.389 300.982C182.64 288.029 169.033 275.056 149.624 254.419M125.667 221.853C102.25 195.004 77.4568 165.259 62.8297 150.609M193.706 302.984C182.943 292.789 176.895 279.413 149.615 252.269M127.221 225.94C109.89 201.736 89.7335 181.679 60.8383 148.334M191.63 303.377C174.138 282.332 159.888 265.43 148.287 251.829M125.366 226.936C112.709 210.368 96.5358 195.261 61.0168 151.299M190.029 301.475C174.629 287.011 163.384 268.207 147.731 253.589M125.787 228.898C104.874 199.379 77.8974 172.127 56.8191 150.605M189.517 303.267C173.586 285.856 161.806 271.331 146.491 252.11M126.49 229.719C99.2665 199.118 71.2249 169.67 57.2049 147.75M186.561 302.507C175.415 287.52 158.265 269.076 145.035 254.773M126.138 233.387C102.799 207.319 79.6261 178.608 54.4106 147.653M186.911 302.788C176.413 289.115 167.347 278.797 144.87 255.085M128.359 233.986C109.434 212.2 89.5303 193.064 54.4064 149.325M185.931 301.45C169.42 284.6 155.728 266.457 140.615 254.332M129.988 236.364C111.102 216.704 95.5844 199.708 53.4221 148.789M185.283 300.601C174.572 288.152 159.593 274.462 139.318 252.018M129.929 237.416C108.241 214.589 89.3512 188.952 53.0759 151.251M184.343 300.867C165.461 286.015 152.054 265.64 134.931 248.023M131.065 242.006C110.048 218.987 91.9988 198.023 51.1527 152.482M180.507 300.686C169.738 293.003 160.116 280.38 133.579 247.471M129.194 245.101C106.458 216.432 84.6509 188.116 52.4262 152.567M181.705 301.053C141.278 257.984 104.461 213.552 51.1938 152.099M180.389 302.973C128.803 247.163 81.3025 186.029 52.1599 154.132M176.363 300.724C138.06 257.838 103.068 217.146 47.8591 157.342M174.941 302.106C148.176 269.582 118.15 232.619 48.7487 155.411M175.197 302.69C149.66 274.134 126.42 245.225 47.1704 158.545M171.609 303.787C129.712 255.235 87.3611 207.077 48.6287 156.686M174.064 302.382C130.164 251.307 83.9198 200.226 48.7676 160.074M172.474 301.095C136.127 260.342 102.714 220.698 46.5825 161.396M169.762 301.082C131.966 262.448 92.172 219.543 47.447 163.609M167.701 301.182C127.897 254.806 82.6654 202.977 48.3608 161.955M166.466 302.918C145.239 275.377 118.92 246.968 47.8661 165.23M167.262 301.59C135.751 265.948 105.317 234.181 45.1469 166.115M164.249 301.935C124.416 256.291 82.9273 210.324 46.27 165.924M164.016 304.134C116.985 250.531 68.7279 194.827 45.3416 168.402M161.256 303.391C133.989 272.983 103.607 237.083 44.1999 168.297M162.668 303.09C128.642 262.175 91.9684 222.335 43.752 168.594M160.149 304.396C127.089 264.412 93.1438 228.653 44.5867 173.443M158.541 304.281C119.219 259.344 80.6752 215.933 47.6834 173.763M154.935 301.21C127.793 271.727 98.9605 239.947 45.6316 176.915M156.461 304.353C123.692 268.402 95.2134 234.124 49.0154 177.729M155.627 305.01C119.855 261.588 83.2892 219.243 47.8236 180.541M154.719 303.586C129.807 277.464 106.928 250.565 50.0543 181.231M149.812 301.569C122.242 268.178 93.0838 234.219 47.6466 186.214M149.924 304.231C109.14 258.72 68.0648 211.44 51.5164 187.363M147.652 300.974C111.045 258.5 73.0256 212.945 52.1042 190.58M147.11 304.015C111.585 258.429 72.0581 215.416 50.0512 193.41M146.738 302.027C108.618 262.164 75.6382 221.254 51.721 195.788M146.462 304.549C119.206 271.871 90.811 243.395 53.7507 194.23M142.896 301.933C118.233 274.473 96.7046 247.843 53.4484 199.856M142.11 301.194C119.237 277.588 99.0899 250.624 54.3406 201.064M139.537 301.569C113.839 272.288 86.3251 238.958 55.0514 202.416M139.786 301.563C107.95 267.21 77.0738 233.051 54.2213 203.703M139.214 302.358C112.178 275.714 89.0107 243.926 55.5268 205.827M136.283 303.083C114.527 278.222 92.4376 249.701 56.4362 207.932M134.178 303.891C111.496 272.606 85.2028 244.739 56.0422 213.501M133.799 301.316C107.687 270.676 76.1538 238.537 58.1836 213.194M133.956 301.905C105.227 270.686 74.5144 234.549 59.2592 217.003M129.919 303.444C102.992 273.369 79.8383 242.741 56.312 217.141M128.792 304.558C108.481 275.958 82.7489 249.695 60.5971 220.233M128.23 303.072C114.615 286.928 98.1248 270.434 58.8861 223.189M127.623 301.943C107.847 277.89 88.1571 255.74 61.6239 225.76M126.294 302.345C109.542 284.163 94.7962 266.266 60.1228 226.117M126.809 302.917C111.369 288.234 93.4085 267.628 61.117 230.604M125.005 301.576C100.076 277.24 81.5663 252.626 63.4384 232.39M121.428 301.41C107.832 289.226 95.8762 274.932 61.157 234.185M123.549 302.103C110.004 291.339 97.2197 276.618 64.2284 236.895M120.943 303.525C106.2 290.349 93.9318 272.989 63.929 237.998M119.205 302.85C101.973 283.06 80.8246 262.22 65.2574 240.396M115.611 303.919C96.9092 282.559 79.2733 260.474 63.2664 242.771M114.734 301.53C102.915 288.205 89.038 271.34 65.9745 244.079M114.867 304.995C97.7422 283.446 82.8305 265.518 64.5096 246.488M115.325 302.837C102.843 288.005 91.6981 276.667 68.5978 249.275M112.415 305.666C96.3506 285.579 76.8791 264.497 68.4626 252.169M110.343 301.995C97.0264 289.976 85.8785 274.482 67.5242 251.98M111.147 304.734C97.3728 288.945 86.0991 275.971 68.8479 254.612M107.981 304.186C98.4097 295.388 92.2479 283.569 66.9065 260.015M105.18 303.8C96.5559 292.702 87.963 283.319 71.174 260.007M104.923 301.673C99.8327 293.118 89.4337 284.405 71.1676 264.366M104.088 302.382C90.7331 289.638 76.9397 273.909 72.1036 263.716M105.081 303.167C89.488 291.666 77.8567 275.142 71.0863 268.613M102.76 302.341C93.6593 294.028 84.63 283.645 72.1436 268.301M100.714 303.15C94.0617 296.339 87.0188 287.883 71.3556 273.305M97.5092 302.845C90.3569 294.256 84.2909 286.998 73.3545 275.309M97.5421 304.098C92.1412 297.128 86.021 288.642 74.856 276.888M96.3376 302.307C89.3789 295.472 82.7655 289.038 74.0791 277.582M93.8249 304.914C86.0399 293.585 81.6664 285.26 76.8985 282.148M95.1479 302.242C87.289 296.975 79.2247 288.127 75.58 284.384M93.2613 305.197C89.02 298.905 86.5216 296.475 76.1468 283.613M89.415 302.599C87.5288 295.38 80.9783 292.694 75.5107 287.527M87.2893 301.378C86.7631 297.78 83.8397 295.457 76.3795 290.564M85.6307 299.118C83.0013 298.224 82.5545 295.842 78.6705 291.816M82.5835 298.65C81.2731 297.149 79.6683 296.087 79.1544 294.443M349.406 149.547V149.547ZM108.49 148.294V148.294Z" stroke="#30BF98" stroke-linecap="round"/>
<path opacity="0.7" d="M277.505 14.5472C276.615 12.575 274.595 11.7833 274.061 10.8774M277.335 16.1414C275.491 13.8238 272.643 10.5609 271.111 9.61166M278.328 17.5196C273.995 14.0474 271.629 10.4466 269.625 7.91839M277.241 19.9221C274.744 18.3571 273.625 13.7125 265.665 4.43084M277.862 22.1103C274.033 16.2102 266.592 5.92308 263.213 4.91058M279.861 25.5634C273.859 17.2524 267.458 9.5965 260.678 1M279.303 25.4933C272.27 18.1241 269.081 11.654 258.649 1.91006M279.861 26.6061C273.42 19.3573 264.831 10.4554 256.594 2.51504M281.524 31.9139C273.066 20.3592 265.368 12.8893 256.711 1.53793M283.154 33.5605C272.337 23.0687 262.15 11.8033 253.975 1.16677M282.705 35.5014C272.031 23.1078 263.53 11.7268 254.135 3.47066M283.375 37.8352C269.407 24.0329 258.55 9.65708 251.902 4.516M283.627 37.0833C277.209 32.6723 270.659 25.048 251.306 5.30965M283.093 39.7653C277.629 31.4912 267.653 25.8597 250.198 5.28561M284.991 43.0551C269.827 28.5348 257.723 12.4002 250.659 5.75826M285.082 42.1096C275.487 36.616 267.923 25.6725 249.564 2.23385M285.645 47.9531C272.233 31.0174 259.9 15.389 246.83 2.72072M284.309 46.3593C271.274 31.9015 256.406 13.4503 244.478 5.4773M283.642 50.0181C275.4 36.4312 261.775 22.8142 246.93 5.73278M283.845 51.9675C275.281 36.8728 261.157 23.8356 242.977 5.99849M287.449 53.763C271.18 38.4417 260.613 23.0613 242.17 7.4563M284.875 56.2419C276.211 43.7307 263.606 28.7509 240.634 4.43245M286.682 58.7079C269.331 37.798 250.628 18.5044 241.329 5.45687M288.509 59.0225C268.301 40.5357 251.867 20.6753 238.108 8.05865M288.767 61.189C272.013 43.9101 259.683 27.6347 237.541 5.9671M286.449 64.8479C267.466 42.2781 249.752 21.638 236.169 7.71043M286.835 64.6527C268.851 45.8091 251.571 23.241 239.012 5.63722M288.007 69.2686C270.946 49.8135 256.025 28.4695 236.271 7.98884M288.703 68.3462C270.928 46.5825 251.368 24.8501 234.567 6.27754M287.997 70.3275C276.137 58.5444 265.408 44.8718 234.265 6.0253M290.837 75.7653C275.053 52.3892 256.108 32.9744 232.306 8.34666M289.917 76.6432C269.845 52.9839 249.425 25.8537 229.37 10.0008M288.46 76.6739C272.66 58.6593 256.381 36.209 229.487 7.44756M292.745 79.8187C277.43 65.5413 266.576 52.1381 229.003 7.06958M291.731 80.165C276.755 63.2024 259.554 48.4643 229.758 10.912M291.193 83.0524C270.749 59.5444 249.425 31.4678 226.38 8.673M290.956 84.9677C272.461 61.8208 247.745 35.7936 224.585 9.12808M290.688 89.0257C266.665 61.453 244.32 31.7131 225.434 11.6482M294.19 91.6232C264.464 58.5446 239.801 28.5648 223.355 10.7729M293.701 91.3733C274.824 68.7097 256.776 51.2487 223.682 10.975M293.096 91.5951C272.211 70.7803 250.375 43.6106 223.152 11.3278M295.174 95.6009C272.584 72.1286 250.356 47.0184 220.347 9.45083M292.638 96.7064C279.62 79.0917 264.957 62.5423 219.267 11.4074M292.975 98.0222C269.875 68.2717 244.584 40.9848 219.252 10.0821M296.595 103.077C278.562 80.7858 260.605 57.4376 216.99 12.6306M297.51 102.752C274.862 79.6414 251.405 56.309 215.09 12.6736M297.746 106.116C271.033 75.5847 242.296 43.3373 216.999 13.8288M294.564 107.954C276.149 82.2583 256.06 61.0208 215.319 12.523M295.473 110.763C280.114 88.9555 259.274 69.1523 213.771 14.4959M296.684 110.497C268.985 80.7294 241.61 46.3847 210.895 13.8135M299.575 114.732C261.848 74.3346 229.194 38.4288 211.537 12.4306M298.216 115.64C269.982 82.7161 240.65 49.956 208.15 13.0283M299.877 115.828C263.157 78.5098 231.143 39.5436 210.024 15.844M298.366 121.103C279.373 96.2442 260.766 73.371 208.469 16.0567M299.173 119.923C273.389 90.0294 242.479 58.7436 208.276 13.6703M300.426 124.711C267.544 85.6908 234.212 45.3062 204.952 14.7792M299.6 125.092C278.62 103.127 258.064 78.4515 205.722 14.3307M300.049 126.113C264.049 85.1992 225.679 43.5691 202.366 13.9012M299.605 129.162C268.157 91.7616 237.905 58.5996 202.596 16.4844M300.691 130.583C271.229 96.9814 239.171 63.531 202.239 14.9893M301.38 133.476C264.901 88.226 229.389 48.0238 198.501 17.7499M303.442 135.921C264.852 92.5698 227.611 47.2618 198.38 15.744M301.629 137.305C265.267 95.6719 227.087 52.3214 199.936 18.7192M304.168 137.851C266.027 95.6342 229.015 53.3867 195.363 16.922M301.338 142.53C267.019 99.678 230.014 56.497 197.775 16.9658M302.274 145.081C261.192 96.386 219.669 46.9109 193.298 18.6085M305.622 143.885C266.061 102.205 225.481 57.63 192.684 20.1268M303.68 146.812C261.735 94.3757 215.478 45.4415 192.288 18.4743M306.156 150.392C273.193 113.026 241.339 75.9608 193.019 18.0244M304.898 149.236C281.788 124.935 257.227 95.0043 191.895 18.5619M306.813 153.925C267.007 105.844 226.944 61.8821 190.051 20.891M305.387 152.757C267.956 110.592 228.393 66.0162 187.832 18.9416M304.551 158.49C266.487 110.014 226.705 67.3475 185.479 21.7823M305.312 160.225C275.789 125.9 248.859 90.4201 186.403 21.3169M308.765 163.136C271.515 121.173 231.381 75.1122 186.866 19.0396M306.658 165.008C273.925 123.738 239.909 81.9786 184.873 22.0527M309.422 163.494C265.174 118.879 227.902 71.4059 184.345 20.765M306.196 166.193C264.138 117.799 221.545 65.109 182.605 23.1199M309.19 168.101C261.953 118.861 216.428 65.575 181.962 20.794M307.499 171.997C275.499 135.141 245.837 98.7981 179.35 23.6424M308.045 174.053C257.82 112.017 206.808 52.4647 178.91 23.2742M309.997 176.039C268.198 130.576 231.141 84.2517 175.752 20.8097M310.008 175.448C275.099 138.774 238.334 97.943 177.605 22.581M310.766 178.371C259.42 122.124 208.972 59.9373 175.769 21.5113M311.573 179.107C262.947 126.506 218.231 74.5427 173.987 21.8804M311.874 183.732C260.619 127.038 212.296 71.5704 172.763 21.7351M310.219 186.283C262.218 125.758 208.737 66.9994 171.943 23.8342M312.302 185.829C282.341 149.44 247.389 113.11 170.146 22.8002M311.971 188.69C268.424 134.33 223.863 84.5988 168.778 24.7413M313.141 188.506C264.686 135.54 218.792 81.5672 169.824 24.795M312.297 191.488C260.303 131.247 208.678 72.2995 168.737 24.4042M307.822 190.208C266.441 142.134 226.74 95.9913 167.799 24.1282M307.201 190.211C250.45 126.019 193.474 61.4275 165.086 24.9067M308.792 190.117C275.846 156.405 245.913 119.978 165.65 26.75M304.705 189.416C262.637 143.234 219.972 92.7263 163.579 26.7702M305.617 190.994C262.965 142.809 220.69 92.9585 161.626 26.2585M303.608 192.911C272.092 153.827 237.816 113.248 162.942 26.1541M302.161 190.099C250.688 129.116 198.291 70.5152 160.941 26.3868M303.643 191.211C247.484 130.156 192.977 67.5863 158.944 26.9422M301.243 193.315C257.248 143.137 212.33 89.2941 159.315 26.9941M299.213 191.486C254.396 143.407 213.699 92.8828 158.197 26.6776M299.899 193.936C258.09 140.254 213.173 91.6583 155.574 29.547M298.219 193.193C242.214 128.797 184.4 61.6913 154.485 29.1433M295.691 191.522C254.663 146.9 216.206 100.456 151.598 26.9398M295.6 193.344C244.674 132.088 192.937 72.5233 153.579 27.6131M295.578 194.138C246.113 138.972 199.207 88.4988 151.707 27.3958M293.967 191.963C251.673 149.01 215.517 106.688 149.568 30.3552M292.401 194.848C258.389 158.107 224.531 119.328 147.897 30.8419M291.307 195.47C250.818 148.537 209.168 101.99 146.525 30.9536M289.036 194.046C254.999 155.072 221.461 114.264 146.827 29.1967M290.177 193.992C243.286 143.163 195.827 88.318 145.749 30.3233M286.032 194.202C231.568 133.717 176.333 71.4448 145.902 29.351M286.755 196.23C244.333 145.855 203.835 98.88 143.501 30.9937M285.446 195.982C244.761 145.587 205.313 97.6284 143.731 32.2181M285.534 194.964C229.801 131.646 171.654 65.8325 142.238 32.9565M281.234 194.494C239.57 150.194 198.491 102.041 138.93 31.27M281.775 195.884C242.161 145.611 199.005 97.6528 138.585 32.131M280.44 194.961C248.064 156.532 214.884 118.491 139.401 31.6276M280.13 196.523C224.306 132.071 167.462 66.4864 137.918 31.3239M279.727 197.864C240.156 155.854 206.147 113.187 135.181 31.4178M277.472 196.543C240.815 155.432 204.586 116.165 136.056 31.9718M275.663 195.663C244.047 158.049 209.762 120.789 133.818 34.8245M274.814 199.458C224.495 136.659 171.24 78.2325 132.223 32.8263M273.123 198.368C230.852 148.423 188.217 101.032 132.169 32.6205M273.747 199.724C232.88 154.172 193.035 106.002 131.067 34.4824M272.878 199.75C225.928 144.876 177.07 90.4234 130.154 33.3014M269.934 197.225C218.119 137.786 167.364 77.9829 127.394 34.4665M271.437 200.371C213.862 133.219 160.559 71.0155 127.438 35.4891M267.019 199.058C234.669 161.061 200.93 121.951 124.456 33.6708M267.113 199.621C216.078 140.923 165.73 83.4172 123.636 35.0151M266.973 199.378C220.528 146.273 172.328 91.556 122.433 36.7289M263.662 199.621C237.922 164.477 207.203 132.598 122.725 34.8253M264.63 198.587C208.908 135.88 153.654 74.3578 121.931 36.8M263.102 199.443C205.153 136.258 151.996 71.4976 120.471 35.3479M263.086 200.509C211.873 143.559 165.813 90.631 120.09 35.4336M260.555 199.611C213.168 144.496 161.263 89.265 119.192 38.9563M260.427 200.16C228.656 165.333 196.082 131.063 117.573 37.0057M260.502 202.602C205.773 141.693 157.12 83.1954 115.977 38.1056M256.825 202.794C215.849 153.644 173.794 106.365 114.653 39.3648M254.538 200.13C224.886 163.812 192.664 128.274 114.618 37.3171M256.424 201.418C204.156 140.946 153.181 84.0881 111.967 40.0399M252.448 203.604C208.83 146.692 158.594 92.0581 111.391 40.7644M254.19 201.632C217.884 158.538 180.567 117.81 110.475 38.7664M252.949 203.982C211.576 159.054 176.261 113.887 109.4 40.648M249.634 204.414C212.557 160.226 174.191 115.768 106.993 39.4176M248.547 204.552C209.104 155.115 168.034 108.737 109.568 40.3624M247.397 204.01C214.475 164.16 177.044 121.631 108.611 41.0958M246.418 202.968C203.397 153.806 159.58 104.861 109.126 45.2836M248.268 204.886C203.937 155.252 160.105 105.976 109.918 45.5833M244.543 205.09C205.444 157.158 163.941 107.788 110.493 46.6626M245.427 205.82C213.218 170.806 180.514 130.549 109.517 51.43M241.741 204.54C191.397 146.754 138.808 86.5702 112.249 53.9603M242.848 204.776C199.282 159.053 159.343 113.104 111.798 52.9925M240.503 205.335C193.709 148.785 144.303 92.6557 111.464 56.1188M238.97 205.466C208.647 169.098 175.668 130.727 111.308 59.2391M238.204 206.501C193.177 152.437 146.543 103.169 112.611 60.5689M236.005 203.999C210.674 177.211 183.821 144.139 112.1 61.2683M235.755 204.838C187.553 151.119 141.81 97.7097 114.062 63.5976M234.874 207.679C209.183 175.306 181.829 144.023 114.042 66.0415M233.348 205.516C203.689 173.281 173.289 137.851 113.512 67.5375M232.941 205.14C203.263 173.272 176.179 140.605 115.596 72.0013M233.452 206.959C189.374 154.208 144.373 101.074 114.415 71.0308M232.418 208.616C190.506 161.704 150.23 113.969 113.392 74.4648M231.531 207.612C194.193 161.993 154.808 116.824 116.876 76.0225M230.589 208.647C199.548 172.86 171.773 141.664 115.298 80.1818M228.102 209.435C204.023 177.28 175.17 149.191 118.388 80.2297M225.996 210.602C188.344 159.648 144.715 113.4 117.576 81.9685M225.816 207.368C189.763 168.392 153.747 127.412 116.191 87.5295M225.131 210.593C199.259 182.062 174.551 150.419 118.278 85.1202M223.838 209.299C200.446 180.467 176.647 152.794 119.14 90.7936M223.073 210.124C180.776 164.123 139.187 114.557 120.574 92.477M220.401 210.302C181.663 165.947 145.471 126.021 120.932 92.2672M218.572 209.425C190.292 175.087 159.205 142.003 121.736 94.0434M217.899 211.159C181.37 167.866 138.733 119.663 118.957 98.3094M218.894 212.249C193.786 182.442 170.14 158.563 122.554 99.5941M216.594 211.962C190.517 184.473 170.059 154.588 120.701 101.146M215.999 211.17C191.66 184.359 167.076 154.857 121.411 103.322M214.805 212.931C178.486 170.264 143.444 131.765 121.434 105.98M211.298 210.067C185.861 177.653 153.896 143.937 123.739 108.309M211.326 213.264C186.153 183.321 160.82 151.766 123.73 108.95M212.429 212.7C187.8 183.649 162.071 156.974 122.237 112.375M209.875 213.967C176.664 173.791 144.175 139.074 123.178 115.021M207.555 214.328C176.959 177.502 147.597 145.004 123.667 114.424M207.007 211.084C184.134 187.155 161.546 161.523 125.1 117.819M208.008 211.312C185.239 186.141 163.532 162.603 126.853 118.502M204.578 214.267C178.61 182.188 148.617 146.885 127.483 123.212M204.157 213.823C176.354 181.222 149.287 147.763 126.158 124.644M204.017 212.358C178.56 188.547 158.362 159.742 125.565 128.513M200.346 213.785C181.653 192.723 162.753 166.5 129.869 127.255M201.402 215.31C173.278 181.283 146.224 148.952 128.6 130.586M199.109 216.129C177.318 187.15 156.705 163.821 126.965 132.136M199.778 213.436C175.251 185.303 147.922 155.133 129.688 135.743M198.844 216.46C177.994 193.985 161.437 175.116 131.095 138.38M198.121 214.583C178.464 194.831 160.955 174.501 130.53 137.03M196.742 215.182C183.386 200.072 167.711 183.792 132.065 142.387M195.322 215.984C170.709 189.434 148.043 159.563 130.299 144.028M191.379 215.456C169.153 188.653 142.97 162.184 129.754 146.147M190.083 215.078C173.925 197.009 156.185 176.241 131.684 146.029M191.666 216.487C177.771 202.828 168.872 189.678 131.563 146.946M188.472 215.417C177.359 201.115 164.912 187.1 130.903 150.46M189.706 217.127C175.576 200.575 159.952 186.318 133.313 153.876M189.121 215.736C173.556 200.457 157.986 180.589 132.653 157.103M185.977 216.975C169.232 196.407 151.892 178.459 132.474 155.606M187.181 217.17C175.429 205.796 164.171 192.256 134.079 160.454M185.726 219.047C163.003 193.378 143.787 172.19 134.23 162.39M183.333 216.888C166.901 197.5 148.378 175.571 133.434 163.168M182.868 219.746C164.209 197.716 149.726 178.778 137.439 164.722M182.854 220.641C169.231 205.222 157.009 189.857 136.779 169.497M181.365 219.687C168.923 207.028 157.957 191.23 138.508 169.322M179.993 218.305C167.349 203.917 154.212 189.814 139.062 173.559M178.937 220.991C171.137 208.627 163.359 198.783 135.785 174.548M176.604 220.309C160.746 200.775 145.007 186.823 140.012 176.37M173.838 218.942C164.753 208.805 159.16 197.217 137.787 179.364M174.142 221.185C160.614 207.32 148.451 190.321 139.375 178.859M172.101 221.89C161.916 208.963 152.923 196.717 140.485 183.654M174.428 221.83C163.428 207.557 150.47 196.736 142.165 184.326M170.03 222.146C164.963 211.46 157.917 206.827 141.621 186.364M168.42 221.255C158.7 208.359 149.008 194.761 140.984 189.653M169.688 220.63C158.459 210.003 152.429 203.223 139.987 187.966M167.095 221.077C161.106 213.297 152.52 205.886 143.545 193.36M167.339 220.558C158.696 214.027 154.532 207.354 142.34 192.857M164.626 221.427C159.523 216.168 153.152 210.533 142.44 198.262M163 222.009C159.702 215.307 153.489 211.675 144.523 200.497M161.246 224.462C155.852 214.62 148.977 207.588 144.113 202.261M161.749 225.324C157.094 215.453 145.87 206.866 143.033 202.906M161.861 222.668C157.23 220.005 154.193 213.745 144.513 203.247M159.607 225.699C154.511 218.564 152.98 214.557 143.173 206.992M160.306 224.798C155.968 220.481 153.178 218.234 147.211 206.951M159.417 226.003C157.167 220.816 154.164 218.821 146.207 211.321M157.758 224.065C152.437 221.116 150.976 218.25 146.215 211.878M154.5 224.165C153.102 220.381 150.69 218.195 147.643 216.308M155.4 225.2C152.629 223.033 150.826 220.247 146.446 217.394M153.049 224.941C151.444 224.016 150.082 222.247 147.649 218.754M151.851 225.915C151.672 224.661 150.356 222.972 148.819 220.383M151.156 225.282C150.156 225.085 150.087 224.043 149.176 223.021M277.09 12.3213V12.3213Z" stroke="#3CA0D2" stroke-linecap="round"/>
<path d="M359.405 274.454C369.245 228.294 378.772 182.081 398.847 124.044M395.243 119.459C296.687 120.605 193.757 122.521 85.8564 119.792M83.6876 120.59C71.7051 122.162 66.8696 130.504 69.5733 139.446M66.2109 141.578C81.7682 176.559 94.9834 218.442 105.185 259.608M102.214 261.625C100.082 267.793 113.193 275.944 118.48 270.06M115.76 269.61C178.085 266.113 238.02 271.583 355.429 273.581M475.718 13.8047C452.239 27.8489 429.048 44.9729 419.751 55.2568M418.893 54.7852C413.302 55.4411 416.827 57.0923 410.532 60.7229M415.244 60.6937C410.843 79.522 400.818 93.6349 401.036 124.561M362.03 274.27C363.203 275.287 363.749 278.252 374.497 290.023M374.217 286.334C379.607 288.781 377.903 290.444 377.515 297.637M381.428 299.643C380.27 302.594 381.149 304.733 381.64 311.937M379.696 309.975C379.164 320.795 373.62 325.331 363.797 324.112M364.498 322.723C263.191 323.767 167.199 327.908 72.1987 328.045M358.031 272.846V272.846Z" stroke="white" stroke-width="2" stroke-linecap="round" stroke-linejoin="round"/>
<path d="M287.63 381.172C290.591 399.071 299.282 404.864 315.533 409.71M287.63 381.172V381.172ZM314.109 407.651C328.806 410.556 343.907 395.605 338.16 383.362M340.589 381.172C344.109 365.549 330.965 355.76 316.595 350.985M314.109 354.693C296.787 353.67 290.772 368.911 286.328 380.102" stroke="white" stroke-width="2" stroke-linecap="round" stroke-linejoin="round"/>
<path d="M114.352 381.172C115.983 392.17 122.788 404.738 144.444 409.723M114.352 381.172V381.172ZM140.831 407.651C154.84 411.251 170.2 393.932 168.653 377.874M167.31 381.172C164.348 367.208 158.501 353.58 144.69 356.342M140.831 354.692C128.898 356.599 113.499 363.55 114.941 381.568" stroke="white" stroke-width="2" stroke-linecap="round" stroke-linejoin="round"/>
<path d="M453.11 422.931C329.254 421.76 207.133 419.217 89.3047 421.236" stroke="white" stroke-width="2" stroke-linecap="round" stroke-linejoin="round"/>
<path d="M62.7323 421.457C50.0669 421.028 42.7091 418.741 1.0625 420.038" stroke="white" stroke-width="2" stroke-linecap="round" stroke-linejoin="round"/>
<path d="M363.79 265.969C380.027 233.47 386.889 192.691 407.346 114.727M404.959 113.172C322.589 110.651 238.592 114.616 89.2773 113.711M90.6906 115.59C79.127 116.903 76.8844 128.889 74.3281 138.098M78.9847 134.099C81.2323 164.358 94.7701 194.225 107.654 257.985M109.217 256.625C112.929 262.883 113.421 266.712 126.393 264.118M121.983 269.908C179.672 269.405 233.361 273.532 363.165 270.06M487.985 11.2661C461.995 24.9023 443.599 39.1083 421.991 48.9335M425.896 49.7853C421.809 55.6241 417.572 58.0406 417.453 58.2861M415.682 60.7496C421.419 72.8575 410.868 82.1796 404.5 117.674M364.251 269.309C367.141 273.686 372.693 275.16 378.867 279.209M381.22 281.334C385.037 287.922 384.106 284.571 384.827 295.743M385.814 292.449C384.909 297.688 385.525 298.057 387.953 304.256M386.699 304.975C386.856 315.119 382.036 319 371.414 317.653M371.782 321.327C268.813 324.053 168.447 321.896 80.2674 322.133M365.034 267.846V267.846Z" stroke="white" stroke-width="2" stroke-linecap="round" stroke-linejoin="round"/>
<path d="M294.631 376.172C292.167 390.925 302.706 400.312 319.332 399.997M294.631 376.172V376.172ZM321.111 402.651C332.324 400.708 346.946 387.706 351.52 375.936M347.59 376.172C351.193 359.597 337.987 347.759 320.564 346.847M321.111 349.692C310.129 352.884 294.169 358.463 292.188 373.732" stroke="white" stroke-width="2" stroke-linecap="round" stroke-linejoin="round"/>
<path d="M121.35 376.171C120.648 386.966 132.522 404.32 144.015 401.856M121.35 376.171V376.171ZM147.829 402.651C162.921 402.218 171.424 392.384 171.806 377.049M174.309 376.171C175.58 361.984 159.018 352.151 150.541 348.82M147.829 349.692C129.272 352.282 125.291 363.031 122.118 379.191" stroke="white" stroke-width="2" stroke-linecap="round" stroke-linejoin="round"/>
<path d="M456.647 415.876C359.839 414.825 262.968 416.165 97.4453 418.188" stroke="white" stroke-width="2" stroke-linecap="round" stroke-linejoin="round"/>
<path d="M68.9076 414.618C49.4218 414.193 26.5812 413.453 7.58594 415.355" stroke="white" stroke-width="2" stroke-linecap="round" stroke-linejoin="round"/>
</svg>
