<svg width="22" height="21" viewBox="0 0 22 21" fill="none" xmlns="http://www.w3.org/2000/svg">
<path d="M9.71741 1.08188C9.99656 0.222762 11.212 0.222764 11.4911 1.08188L13.3259 6.72883C13.4508 7.11304 13.8088 7.37317 14.2128 7.37317H20.1503C21.0537 7.37317 21.4293 8.52911 20.6984 9.06007L15.8949 12.5501C15.568 12.7875 15.4313 13.2084 15.5561 13.5926L17.3909 19.2396C17.6701 20.0987 16.6868 20.8131 15.956 20.2821L11.1524 16.7921C10.8256 16.5547 10.383 16.5547 10.0562 16.7921L5.25258 20.2822C4.52177 20.8131 3.53847 20.0987 3.81762 19.2396L5.65242 13.5926C5.77726 13.2084 5.6405 12.7875 5.31367 12.5501L0.510092 9.06007C-0.220718 8.52911 0.154871 7.37317 1.0582 7.37317H6.99575C7.39974 7.37317 7.75777 7.11304 7.88261 6.72883L9.71741 1.08188Z" fill="#FFB953"/>
</svg>
