<svg width="62" height="51" viewBox="0 0 62 51" fill="none" xmlns="http://www.w3.org/2000/svg">
<g opacity="0.2" clip-path="url(#clip0_405_4742)">
<path d="M28.1127 0.774633C23.1972 2.23136 18.5376 4.41324 14.2945 7.24501C13.6887 7.63661 13.1151 8.07401 12.579 8.5532C11.5307 9.52376 10.7853 10.7696 9.97382 11.9649L7.56941 15.5706C5.99331 17.9717 4.27055 20.3187 3.05753 22.9151C2.14746 24.8527 1.61488 26.9455 1.10394 29.0208C0.936837 29.7266 0.750495 30.4125 0.669947 31.0948C0.470381 32.4536 0.999352 33.8006 1.39127 35.1853L2.0068 37.2534C3.35688 42.0991 4.55187 44.6191 8.75839 47.7237C12.3181 50.3812 14.4592 50.513 18.6333 49.0119C19.3222 48.7683 20.0062 48.5307 20.6518 48.2472C22.6042 47.4107 24.1382 45.919 25.2875 44.1685C28.293 39.6251 29.3221 33.11 25.6722 28.6396C23.9122 26.3832 21.1243 25.4491 18.4133 24.6327C17.6763 24.4044 16.9154 24.1786 16.2565 23.7151C14.7538 22.701 14.7358 20.6799 15.5436 19.2305C15.9043 18.5399 16.378 17.9494 16.836 17.3847C18.6743 15.1223 20.672 12.9886 22.8146 10.999C23.8853 10.0108 24.989 9.05671 26.1254 8.13674C26.6881 7.68382 27.2387 7.22971 27.6138 6.65326C27.9889 6.07681 28.1968 5.39919 28.3243 4.70392C28.4486 4.00353 28.5289 3.29635 28.5647 2.58634C28.5864 1.89695 28.4794 1.14403 27.9336 0.660519L28.0033 0.579346C28.2955 0.820903 28.5101 1.13998 28.6212 1.49814C28.9326 2.56281 28.7414 3.67454 28.6357 4.7545C28.4181 6.45797 27.752 7.41794 26.4488 8.50379C23.1652 11.345 20.1742 14.4945 17.5189 17.907C16.6966 18.9658 15.8358 20.1022 15.9704 21.4669C16.0979 22.9115 17.4744 23.3315 18.7139 23.6809C20.118 24.0927 21.5559 24.515 22.9312 25.1703C24.3333 25.8241 25.5678 26.7773 26.5438 27.9596C29.5061 31.5219 29.7188 36.577 28.1452 40.7545C27.1077 43.5273 25.5003 46.1908 23.0286 47.9719C21.8119 48.8648 20.3476 49.3836 18.9411 49.8542C18.2414 50.0895 17.5309 50.3177 16.7963 50.4942C13.3208 51.38 11.0161 50.4212 8.2775 48.3519C6.49223 47.0178 4.85723 45.4602 3.68628 43.5603C2.16429 41.0627 1.59565 38.104 0.751697 35.3641C-0.0982621 32.4959 -0.294222 31.8136 0.511256 28.8819C1.04504 26.7773 1.60647 24.6703 2.55501 22.6927C3.82093 20.0705 5.57615 17.7411 7.19792 15.3365C8.06471 14.1048 10.0411 11.1637 10.9007 9.97551C11.3288 9.37798 11.8169 8.82387 12.3578 8.32144C13.15 7.59205 14.1515 6.9956 15.0531 6.41562C19.0978 3.90979 23.4844 1.97657 28.0826 0.67346L28.1127 0.774633Z" fill="#454545"/>
<path d="M60.4148 0.724809C55.8714 2.13442 51.5484 4.15061 47.568 6.71638C44.7537 8.4975 44.1694 9.28923 42.3901 12.0303C41.5883 13.2397 39.571 16.2867 38.7955 17.4525C37.6066 19.236 36.3971 21.0453 35.5051 22.9817C34.9225 24.2737 34.4531 25.6118 34.1021 26.9816C33.7631 28.3286 33.3411 29.7627 33.1404 31.1144C32.9997 32.1402 33.2546 33.1249 33.5515 34.1096C33.7451 34.7849 34.2728 36.5189 34.4736 37.2118C35.0747 39.2259 35.6554 41.3294 36.7662 43.1069C37.8771 44.8845 39.4507 46.3715 41.1495 47.6256C42.2723 48.4491 43.4673 49.2362 44.8042 49.6256C46.8551 50.2244 48.9085 49.6256 50.921 48.9385C52.2759 48.4797 53.6007 48.015 54.744 47.1739C57.0186 45.5269 58.5129 42.9928 59.4699 40.4117C60.9318 36.5495 60.7695 31.8861 58.0657 28.5757C56.3033 26.2946 53.4829 25.3369 50.7599 24.5205C50.065 24.3029 49.3112 24.0887 48.638 23.6182C47.1881 22.6429 47.1857 20.6771 47.9648 19.283C48.3194 18.6066 48.7859 18.0219 49.2427 17.4584C50.1612 16.329 51.1145 15.2232 52.11 14.1644C54.0987 12.038 56.234 10.0476 58.5009 8.20692C59.0659 7.75281 59.6286 7.29048 60.0036 6.69403C60.3787 6.09757 60.5903 5.41524 60.7105 4.71527C60.8692 3.46942 61.3345 1.55066 60.2778 0.616577C60.8656 1.08715 61.0171 1.87418 61.0267 2.58357C61.0208 3.30482 60.969 4.02501 60.8716 4.73997C60.7683 5.45407 60.5855 6.17875 60.1972 6.81755C59.8089 7.45635 59.2427 7.95751 58.6956 8.43279C56.496 10.3228 54.4276 12.3543 52.5043 14.5138C51.5425 15.5898 50.6184 16.6968 49.732 17.8348C49.084 18.6701 48.448 19.503 48.216 20.5147C48.0044 21.4324 48.228 22.4853 49.0732 23.0253C49.6046 23.3899 50.2862 23.5888 50.9883 23.7935C53.0946 24.4111 55.3547 25.0875 57.134 26.4487C62.8829 30.9697 62.1832 39.1541 58.4564 44.7234C57.2302 46.5915 55.4834 48.2527 53.3651 49.1456C52.6654 49.4479 51.9633 49.6879 51.2708 49.9303C49.1333 50.6796 46.7457 51.329 44.4916 50.6361C43.0105 50.1985 41.7217 49.3503 40.5135 48.4574C38.7102 47.1162 37.0692 45.5551 35.879 43.634C34.3318 41.1211 33.7679 38.1648 32.918 35.406C32.0584 32.5132 31.8636 31.7956 32.6775 28.8427C33.2113 26.7251 33.7847 24.6181 34.7453 22.63C36.0208 19.9983 37.7737 17.6654 39.4111 15.262C40.2791 14.0255 42.2651 11.0998 43.1319 9.91039C43.5627 9.30932 44.0549 8.75274 44.601 8.24927C45.4065 7.51635 46.4043 6.92813 47.3228 6.35051C51.3852 3.8645 55.7953 1.96946 60.4148 0.724809Z" fill="#454545"/>
</g>
<defs>
<clipPath id="clip0_405_4742">
<rect width="61.3606" height="50.3548" fill="white" transform="translate(0 0.576172)"/>
</clipPath>
</defs>
</svg>
