<svg width="62" height="51" viewBox="0 0 62 51" fill="none" xmlns="http://www.w3.org/2000/svg">
<g opacity="0.2" clip-path="url(#clip0_695_4187)">
<path d="M33.5748 50.7273C38.4903 49.2705 43.1499 47.0886 47.393 44.2569C47.9988 43.8653 48.5724 43.4279 49.1085 42.9487C50.1568 41.9781 50.9022 40.7323 51.7137 39.537L54.1181 35.9313C55.6942 33.5302 57.4169 31.1832 58.63 28.5868C59.54 26.6492 60.0726 24.5564 60.5836 22.4811C60.7507 21.7753 60.937 21.0894 61.0176 20.4071C61.2171 19.0483 60.6882 17.7013 60.2962 16.3166L59.6807 14.2485C58.3306 9.40274 57.1356 6.88283 52.9291 3.77822C49.3694 1.12066 47.2283 0.988902 43.0542 2.49003C42.3653 2.73355 41.6813 2.97119 41.0357 3.25471C39.0833 4.09115 37.5493 5.58287 36.4 7.3334C33.3945 11.8768 32.3654 18.3919 36.0153 22.8623C37.7753 25.1187 40.5632 26.0528 43.2742 26.8692C44.0112 27.0974 44.7722 27.3233 45.431 27.7868C46.9337 28.8009 46.9517 30.822 46.1439 32.2714C45.7832 32.962 45.3095 33.5525 44.8515 34.1172C43.0132 36.3796 41.0155 38.5133 38.8729 40.5029C37.8022 41.4911 36.6985 42.4452 35.5621 43.3651C34.9994 43.8181 34.4488 44.2722 34.0737 44.8486C33.6986 45.4251 33.4907 46.1027 33.3632 46.798C33.2389 47.4984 33.1586 48.2055 33.1228 48.9156C33.1011 49.6049 33.2081 50.3579 33.7539 50.8414L33.6842 50.9225C33.392 50.681 33.1774 50.3619 33.0663 50.0038C32.7549 48.9391 32.9461 47.8274 33.0518 46.7474C33.2694 45.0439 33.9355 44.0839 35.2387 42.9981C38.5223 40.1569 41.5133 37.0074 44.1686 33.5949C44.991 32.5361 45.8517 31.3997 45.7171 30.035C45.5897 28.5903 44.2131 28.1704 42.9737 27.821C41.5695 27.4092 40.1316 26.9869 38.7563 26.3316C37.3542 25.6778 36.1197 24.7246 35.1437 23.5423C32.1815 19.98 31.9687 14.9249 33.5424 10.7474C34.5799 7.97455 36.1872 5.31111 38.6589 3.52999C39.8756 2.63708 41.3399 2.11827 42.7464 1.6477C43.4461 1.41242 44.1566 1.18419 44.8912 1.00772C48.3667 0.121871 50.6714 1.08066 53.41 3.15001C55.1953 4.48408 56.8303 6.04168 58.0012 7.94161C59.5232 10.4392 60.0919 13.3979 60.9358 16.1378C61.7858 19.006 61.9817 19.6883 61.1762 22.62C60.6425 24.7246 60.081 26.8316 59.1325 28.8092C57.8666 31.4314 56.1114 33.7608 54.4896 36.1654C53.6228 37.3971 51.6464 40.3382 50.7868 41.5264C50.3587 42.1239 49.8706 42.678 49.3297 43.1804C48.5375 43.9098 47.536 44.5063 46.6344 45.0863C42.5897 47.5921 38.2031 49.5253 33.6049 50.8284L33.5748 50.7273Z" fill="#454545"/>
<path d="M1.27172 50.7793C5.81516 49.3697 10.1382 47.3535 14.1185 44.7878C16.9329 43.0067 17.5171 42.2149 19.2964 39.4738C20.0983 38.2645 22.1156 35.2175 22.891 34.0517C24.08 32.2682 25.2894 30.4588 26.1814 28.5224C26.764 27.2304 27.2334 25.8923 27.5844 24.5226C27.9234 23.1755 28.3454 21.7415 28.5462 20.3898C28.6868 19.3639 28.432 18.3792 28.135 17.3946C27.9415 16.7193 27.4137 14.9852 27.2129 14.2923C26.6118 12.2783 26.0311 10.1748 24.9203 8.3972C23.8095 6.61961 22.2358 5.1326 20.5371 3.87853C19.4142 3.05502 18.2192 2.26799 16.8824 1.87859C14.8314 1.27979 12.778 1.87859 10.7655 2.56563C9.41066 3.02444 8.08583 3.48913 6.94253 4.33027C4.66796 5.97728 3.17361 8.51132 2.21666 11.0924C0.754775 14.9546 0.917073 19.618 3.62083 22.9285C5.38326 25.2096 8.20364 26.1672 10.9266 26.9837C11.6215 27.2013 12.3753 27.4154 13.0485 27.886C14.4984 28.8612 14.5008 30.8271 13.7218 32.2211C13.3671 32.8976 12.9007 33.4823 12.4438 34.0458C11.5253 35.1751 10.572 36.281 9.57656 37.3398C7.5878 39.4661 5.45249 41.4566 3.18563 43.2972C2.6206 43.7513 2.05796 44.2137 1.68288 44.8101C1.30779 45.4066 1.0962 46.0889 0.975977 46.7889C0.817286 48.0347 0.352034 49.9535 1.40877 50.8876C0.820894 50.417 0.669415 49.63 0.659798 48.9206C0.665774 48.1993 0.71757 47.4791 0.814883 46.7642C0.918272 46.0501 1.10101 45.3254 1.48932 44.6866C1.87763 44.0478 2.44387 43.5466 2.99088 43.0714C5.19057 41.1814 7.25895 39.1499 9.18224 36.9904C10.144 35.9143 11.0681 34.8073 11.9545 33.6693C12.6025 32.834 13.2385 32.0011 13.4705 30.9894C13.6821 30.0718 13.4585 29.0189 12.6133 28.4789C12.082 28.1142 11.4003 27.9154 10.6982 27.7107C8.59195 27.0931 6.33181 26.4166 4.55254 25.0555C-1.1964 20.5344 -0.496722 12.35 3.23012 6.78078C4.45637 4.91261 6.20317 3.25149 8.32146 2.35857C9.02114 2.05623 9.72323 1.81624 10.4157 1.5739C12.5532 0.824507 14.9408 0.17512 17.1949 0.868037C18.6761 1.30567 19.9648 2.15388 21.173 3.04679C22.9763 4.38792 24.6174 5.94905 25.8075 7.87016C27.3548 10.383 27.9186 13.3394 28.7686 16.0981C29.6281 18.991 29.8229 19.7086 29.009 22.6614C28.4752 24.779 27.9018 26.886 26.9412 28.8742C25.6657 31.5059 23.9129 33.8387 22.2755 36.2422C21.4075 37.4786 19.4214 40.4044 18.5546 41.5938C18.1238 42.1948 17.6316 42.7514 17.0855 43.2549C16.2801 43.9878 15.2822 44.576 14.3637 45.1536C10.3013 47.6397 5.8912 49.5347 1.27172 50.7793Z" fill="#454545"/>
</g>
<defs>
<clipPath id="clip0_695_4187">
<rect width="61.3606" height="50.3548" fill="white" transform="translate(61.6875 50.9263) rotate(-180)"/>
</clipPath>
</defs>
</svg>
