<svg width="940" height="100" viewBox="0 0 940 100" fill="none" xmlns="http://www.w3.org/2000/svg">
<path d="M92.1875 50C92.1875 41.6561 89.7133 33.4995 85.0777 26.5618C80.442 19.6241 73.8532 14.2169 66.1445 11.0238C58.4357 7.83072 49.9532 6.99526 41.7696 8.62308C33.5861 10.2509 26.069 14.2689 20.169 20.1689C14.2689 26.0689 10.251 33.586 8.62314 41.7696C6.99533 49.9532 7.83078 58.4357 11.0239 66.1444C14.2169 73.8532 19.6242 80.442 26.5619 85.0776C33.4996 89.7132 41.6561 92.1875 50 92.1875C61.1857 92.1771 71.9102 87.7291 79.8197 79.8196C87.7291 71.9102 92.1772 61.1856 92.1875 50ZM54.6875 82.4609V60.9375H62.5C63.7432 60.9375 64.9355 60.4436 65.8146 59.5645C66.6937 58.6854 67.1875 57.4932 67.1875 56.25C67.1875 55.0068 66.6937 53.8145 65.8146 52.9354C64.9355 52.0563 63.7432 51.5625 62.5 51.5625H54.6875V43.75C54.6875 42.5068 55.1814 41.3145 56.0605 40.4354C56.9395 39.5563 58.1318 39.0625 59.375 39.0625H65.625C66.8682 39.0625 68.0605 38.5686 68.9396 37.6895C69.8187 36.8104 70.3125 35.6182 70.3125 34.375C70.3125 33.1318 69.8187 31.9395 68.9396 31.0604C68.0605 30.1813 66.8682 29.6875 65.625 29.6875H59.375C55.6454 29.6875 52.0686 31.169 49.4313 33.8063C46.7941 36.4435 45.3125 40.0204 45.3125 43.75V51.5625H37.5C36.2568 51.5625 35.0645 52.0563 34.1855 52.9354C33.3064 53.8145 32.8125 55.0068 32.8125 56.25C32.8125 57.4932 33.3064 58.6854 34.1855 59.5645C35.0645 60.4436 36.2568 60.9375 37.5 60.9375H45.3125V82.4609C37.1019 81.2758 29.645 77.0247 24.4424 70.5633C19.2398 64.1018 16.6777 55.9095 17.2718 47.6352C17.8658 39.3608 21.572 31.6186 27.6443 25.9666C33.7166 20.3146 41.7044 17.1724 50 17.1724C58.2957 17.1724 66.2834 20.3146 72.3558 25.9666C78.4281 31.6186 82.1342 39.3608 82.7283 47.6352C83.3223 55.9095 80.7603 64.1018 75.5577 70.5633C70.355 77.0247 62.8981 81.2758 54.6875 82.4609Z" fill="white" fill-opacity="0.1"/>
<path d="M219.055 11.5625C220.199 8.62599 222.201 6.10185 224.8 4.31839C227.398 2.53492 230.473 1.57466 233.625 1.5625C234.454 1.5625 235.249 1.89174 235.835 2.47779C236.421 3.06384 236.75 3.8587 236.75 4.6875C236.75 5.5163 236.421 6.31116 235.835 6.89721C235.249 7.48326 234.454 7.8125 233.625 7.8125C231.731 7.81839 229.882 8.39569 228.321 9.46893C226.76 10.5422 225.559 12.0614 224.875 13.8281C224.646 14.4177 224.243 14.9238 223.72 15.2795C223.197 15.6352 222.578 15.8238 221.945 15.8203C221.573 15.8123 221.204 15.7464 220.852 15.625C220.466 15.478 220.112 15.2559 219.813 14.9716C219.513 14.6873 219.273 14.3464 219.106 13.9686C218.939 13.5908 218.848 13.1837 218.839 12.7707C218.83 12.3577 218.904 11.947 219.055 11.5625ZM254.719 60.8594C252.221 59.605 250.106 57.7038 248.594 55.354C247.081 53.0041 246.226 50.2915 246.118 47.4989C246.011 44.7063 246.654 41.9359 247.981 39.4765C249.308 37.0171 251.271 34.9586 253.664 33.5156C254.036 33.28 254.354 32.9703 254.601 32.606C254.848 32.2416 255.016 31.8304 255.097 31.398C255.178 30.9655 255.168 30.5211 255.07 30.0924C254.971 29.6637 254.785 29.2599 254.523 28.9062C250.277 23.4963 244.098 19.9441 237.286 18.997C230.475 18.0499 223.561 19.7817 218 23.8281C214.037 20.9456 209.354 19.2155 204.469 18.8291C199.584 18.4428 194.688 19.4153 190.321 21.639C185.954 23.8628 182.288 27.2511 179.727 31.4292C177.167 35.6073 175.812 40.4122 175.813 45.3125C175.907 55.6149 179.016 65.664 184.758 74.2188C190.383 82.5391 197.531 87.5 203.937 87.5H232.062C240.852 87.5 250.773 78.1641 256.242 64.8438C256.55 64.1112 256.564 63.2882 256.28 62.546C255.996 61.8038 255.437 61.1996 254.719 60.8594Z" fill="white" fill-opacity="0.2"/>
<path d="M398.5 31.25C398.5 30.4212 398.829 29.6263 399.415 29.0403C400.001 28.4542 400.796 28.125 401.625 28.125H426.625C427.454 28.125 428.249 28.4542 428.835 29.0403C429.421 29.6263 429.75 30.4212 429.75 31.25C429.75 32.0788 429.421 32.8737 428.835 33.4597C428.249 34.0458 427.454 34.375 426.625 34.375H401.625C400.796 34.375 400.001 34.0458 399.415 33.4597C398.829 32.8737 398.5 32.0788 398.5 31.25ZM432.875 59.375C432.875 60.2038 432.546 60.9987 431.96 61.5847C431.374 62.1708 430.579 62.5 429.75 62.5H402.016C402.715 65.1809 404.282 67.5548 406.473 69.2509C408.664 70.947 411.354 71.8697 414.125 71.875C415.767 71.883 417.394 71.5622 418.91 70.9316C420.426 70.301 421.801 69.3733 422.953 68.2031C423.539 67.6187 424.333 67.2905 425.16 67.2905C425.988 67.2905 426.781 67.6187 427.367 68.2031C427.661 68.4905 427.895 68.8338 428.055 69.2129C428.214 69.5919 428.296 69.9989 428.296 70.4102C428.296 70.8214 428.214 71.2285 428.055 71.6075C427.895 71.9865 427.661 72.3298 427.367 72.6172C425.637 74.3697 423.575 75.7596 421.301 76.7053C419.027 77.6511 416.588 78.1337 414.125 78.125C410.417 78.125 406.791 77.0253 403.708 74.9651C400.625 72.9048 398.221 69.9764 396.802 66.5503C395.383 63.1242 395.012 59.3542 395.735 55.7171C396.459 52.0799 398.245 48.739 400.867 46.1168C403.489 43.4945 406.83 41.7088 410.467 40.9853C414.104 40.2618 417.874 40.6331 421.3 42.0523C424.726 43.4714 427.655 45.8746 429.715 48.9581C431.775 52.0415 432.875 55.6666 432.875 59.375ZM426.234 56.25C425.546 53.5612 423.982 51.178 421.79 49.4761C419.597 47.7742 416.901 46.8505 414.125 46.8505C411.349 46.8505 408.653 47.7742 406.46 49.4761C404.268 51.178 402.704 53.5612 402.016 56.25H426.234ZM390.688 61.7188C390.688 66.07 388.959 70.243 385.882 73.3197C382.805 76.3965 378.632 78.125 374.281 78.125H348.5C347.671 78.125 346.876 77.7958 346.29 77.2097C345.704 76.6237 345.375 75.8288 345.375 75V25C345.375 24.1712 345.704 23.3763 346.29 22.7903C346.876 22.2042 347.671 21.875 348.5 21.875H369.594C372.456 21.879 375.256 22.7104 377.657 24.2692C380.057 25.8279 381.956 28.0474 383.124 30.6603C384.292 33.2733 384.68 36.1683 384.241 38.9966C383.802 41.8249 382.554 44.466 380.648 46.6016C383.623 47.8543 386.163 49.9568 387.948 52.6458C389.734 55.3348 390.687 58.4908 390.688 61.7188ZM351.625 45.3125H369.594C371.873 45.3125 374.059 44.4071 375.67 42.7955C377.282 41.1838 378.188 38.998 378.188 36.7188C378.188 34.4395 377.282 32.2537 375.67 30.6421C374.059 29.0304 371.873 28.125 369.594 28.125H351.625V45.3125ZM384.438 61.7188C384.427 59.0283 383.354 56.451 381.451 54.5486C379.549 52.6461 376.972 51.5728 374.281 51.5625H351.625V71.875H374.281C376.972 71.8647 379.549 70.7914 381.451 68.8889C383.354 66.9865 384.427 64.4092 384.438 61.7188Z" fill="white" fill-opacity="0.3"/>
<path d="M555.055 11.5625C556.199 8.62599 558.201 6.10185 560.8 4.31839C563.398 2.53492 566.473 1.57466 569.625 1.5625C570.454 1.5625 571.249 1.89174 571.835 2.47779C572.421 3.06384 572.75 3.8587 572.75 4.6875C572.75 5.5163 572.421 6.31116 571.835 6.89721C571.249 7.48326 570.454 7.8125 569.625 7.8125C567.731 7.81839 565.882 8.39569 564.321 9.46893C562.76 10.5422 561.559 12.0614 560.875 13.8281C560.646 14.4177 560.243 14.9238 559.72 15.2795C559.197 15.6352 558.578 15.8238 557.945 15.8203C557.573 15.8123 557.204 15.7464 556.852 15.625C556.466 15.478 556.112 15.2559 555.813 14.9716C555.513 14.6873 555.273 14.3464 555.106 13.9686C554.939 13.5908 554.848 13.1837 554.839 12.7707C554.83 12.3577 554.904 11.947 555.055 11.5625ZM590.719 60.8594C588.221 59.605 586.106 57.7038 584.594 55.354C583.081 53.0041 582.226 50.2915 582.118 47.4989C582.011 44.7063 582.654 41.9359 583.981 39.4765C585.308 37.0171 587.271 34.9586 589.664 33.5156C590.036 33.28 590.354 32.9703 590.601 32.606C590.848 32.2416 591.016 31.8304 591.097 31.398C591.178 30.9655 591.168 30.5211 591.07 30.0924C590.971 29.6637 590.785 29.2599 590.523 28.9062C586.277 23.4963 580.098 19.9441 573.286 18.997C566.475 18.0499 559.561 19.7817 554 23.8281C550.037 20.9456 545.354 19.2155 540.469 18.8291C535.584 18.4428 530.688 19.4153 526.321 21.639C521.954 23.8628 518.288 27.2511 515.727 31.4292C513.167 35.6073 511.812 40.4122 511.813 45.3125C511.907 55.6149 515.016 65.664 520.758 74.2188C526.383 82.5391 533.531 87.5 539.937 87.5H568.062C576.852 87.5 586.773 78.1641 592.242 64.8438C592.55 64.1112 592.564 63.2882 592.28 62.546C591.996 61.8038 591.437 61.1996 590.719 60.8594Z" fill="white" fill-opacity="0.3"/>
<path d="M734.5 31.25C734.5 30.4212 734.829 29.6263 735.415 29.0403C736.001 28.4542 736.796 28.125 737.625 28.125H762.625C763.454 28.125 764.249 28.4542 764.835 29.0403C765.421 29.6263 765.75 30.4212 765.75 31.25C765.75 32.0788 765.421 32.8737 764.835 33.4597C764.249 34.0458 763.454 34.375 762.625 34.375H737.625C736.796 34.375 736.001 34.0458 735.415 33.4597C734.829 32.8737 734.5 32.0788 734.5 31.25ZM768.875 59.375C768.875 60.2038 768.546 60.9987 767.96 61.5847C767.374 62.1708 766.579 62.5 765.75 62.5H738.016C738.715 65.1809 740.282 67.5548 742.473 69.2509C744.664 70.947 747.354 71.8697 750.125 71.875C751.767 71.883 753.394 71.5622 754.91 70.9316C756.426 70.301 757.801 69.3733 758.953 68.2031C759.539 67.6187 760.333 67.2905 761.16 67.2905C761.988 67.2905 762.781 67.6187 763.367 68.2031C763.661 68.4905 763.895 68.8338 764.055 69.2129C764.214 69.5919 764.296 69.9989 764.296 70.4102C764.296 70.8214 764.214 71.2285 764.055 71.6075C763.895 71.9865 763.661 72.3298 763.367 72.6172C761.637 74.3697 759.575 75.7596 757.301 76.7053C755.027 77.6511 752.588 78.1337 750.125 78.125C746.417 78.125 742.791 77.0253 739.708 74.9651C736.625 72.9048 734.221 69.9764 732.802 66.5503C731.383 63.1242 731.012 59.3542 731.735 55.7171C732.459 52.0799 734.245 48.739 736.867 46.1168C739.489 43.4945 742.83 41.7088 746.467 40.9853C750.104 40.2618 753.874 40.6331 757.3 42.0523C760.726 43.4714 763.655 45.8746 765.715 48.9581C767.775 52.0415 768.875 55.6666 768.875 59.375ZM762.234 56.25C761.546 53.5612 759.982 51.178 757.79 49.4761C755.597 47.7742 752.901 46.8505 750.125 46.8505C747.349 46.8505 744.653 47.7742 742.46 49.4761C740.268 51.178 738.704 53.5612 738.016 56.25H762.234ZM726.688 61.7188C726.688 66.07 724.959 70.243 721.882 73.3197C718.805 76.3965 714.632 78.125 710.281 78.125H684.5C683.671 78.125 682.876 77.7958 682.29 77.2097C681.704 76.6237 681.375 75.8288 681.375 75V25C681.375 24.1712 681.704 23.3763 682.29 22.7903C682.876 22.2042 683.671 21.875 684.5 21.875H705.594C708.456 21.879 711.256 22.7104 713.657 24.2692C716.057 25.8279 717.956 28.0474 719.124 30.6603C720.292 33.2733 720.68 36.1683 720.241 38.9966C719.802 41.8249 718.554 44.466 716.648 46.6016C719.623 47.8543 722.163 49.9568 723.948 52.6458C725.734 55.3348 726.687 58.4908 726.688 61.7188ZM687.625 45.3125H705.594C707.873 45.3125 710.059 44.4071 711.67 42.7955C713.282 41.1838 714.188 38.998 714.188 36.7188C714.188 34.4395 713.282 32.2537 711.67 30.6421C710.059 29.0304 707.873 28.125 705.594 28.125H687.625V45.3125ZM720.438 61.7188C720.427 59.0283 719.354 56.451 717.451 54.5486C715.549 52.6461 712.972 51.5728 710.281 51.5625H687.625V71.875H710.281C712.972 71.8647 715.549 70.7914 717.451 68.8889C719.354 66.9865 720.427 64.4092 720.438 61.7188Z" fill="white" fill-opacity="0.2"/>
<path d="M932.188 50C932.188 41.6561 929.713 33.4995 925.078 26.5618C920.442 19.6241 913.853 14.2169 906.144 11.0238C898.436 7.83072 889.953 6.99526 881.77 8.62308C873.586 10.2509 866.069 14.2689 860.169 20.1689C854.269 26.0689 850.251 33.586 848.623 41.7696C846.995 49.9532 847.831 58.4357 851.024 66.1444C854.217 73.8532 859.624 80.442 866.562 85.0776C873.5 89.7132 881.656 92.1875 890 92.1875C901.186 92.1771 911.91 87.7291 919.82 79.8196C927.729 71.9102 932.177 61.1856 932.188 50ZM894.688 82.4609V60.9375H902.5C903.743 60.9375 904.936 60.4436 905.815 59.5645C906.694 58.6854 907.188 57.4932 907.188 56.25C907.188 55.0068 906.694 53.8145 905.815 52.9354C904.936 52.0563 903.743 51.5625 902.5 51.5625H894.688V43.75C894.688 42.5068 895.181 41.3145 896.06 40.4354C896.94 39.5563 898.132 39.0625 899.375 39.0625H905.625C906.868 39.0625 908.061 38.5686 908.94 37.6895C909.819 36.8104 910.313 35.6182 910.313 34.375C910.313 33.1318 909.819 31.9395 908.94 31.0604C908.061 30.1813 906.868 29.6875 905.625 29.6875H899.375C895.645 29.6875 892.069 31.169 889.431 33.8063C886.794 36.4435 885.313 40.0204 885.313 43.75V51.5625H877.5C876.257 51.5625 875.065 52.0563 874.185 52.9354C873.306 53.8145 872.813 55.0068 872.813 56.25C872.813 57.4932 873.306 58.6854 874.185 59.5645C875.065 60.4436 876.257 60.9375 877.5 60.9375H885.313V82.4609C877.102 81.2758 869.645 77.0247 864.442 70.5633C859.24 64.1018 856.678 55.9095 857.272 47.6352C857.866 39.3608 861.572 31.6186 867.644 25.9666C873.717 20.3146 881.704 17.1724 890 17.1724C898.296 17.1724 906.283 20.3146 912.356 25.9666C918.428 31.6186 922.134 39.3608 922.728 47.6352C923.322 55.9095 920.76 64.1018 915.558 70.5633C910.355 77.0247 902.898 81.2758 894.688 82.4609Z" fill="white" fill-opacity="0.1"/>
</svg>
