<svg width="87" height="74" viewBox="0 0 87 74" fill="none" xmlns="http://www.w3.org/2000/svg">
<path d="M39.8591 0.787506C32.8897 2.89934 26.283 6.06244 20.267 10.1677C19.408 10.7354 18.5947 11.3695 17.8346 12.0642C16.3483 13.4712 15.2914 15.2773 14.1409 17.0101L10.7318 22.2374C8.49712 25.7183 6.05451 29.1208 4.33462 32.8848C3.04428 35.6937 2.28917 38.7278 1.56474 41.7363C1.3278 42.7596 1.0636 43.7539 0.949395 44.743C0.666441 46.7129 1.41644 48.6657 1.97212 50.673L2.84485 53.6713C4.75905 60.6962 6.45337 64.3493 12.4176 68.8501C17.4647 72.7028 20.5005 72.8938 26.4187 70.7176C27.3954 70.3646 28.3653 70.0201 29.2806 69.6091C32.0488 68.3965 34.2238 66.2339 35.8534 63.6961C40.1147 57.1095 41.5738 47.6645 36.3988 41.1837C33.9034 37.9126 29.9505 36.5584 26.1068 35.3748C25.0619 35.0439 23.9829 34.7165 23.0488 34.0445C20.9181 32.5744 20.8926 29.6444 22.038 27.5432C22.5494 26.5421 23.221 25.6859 23.8704 24.8673C26.4768 21.5875 29.3093 18.4942 32.3471 15.6099C33.8653 14.1773 35.4301 12.7941 37.0414 11.4604C37.8392 10.8038 38.6199 10.1455 39.1517 9.30983C39.6835 8.47414 39.9784 7.49178 40.1591 6.48384C40.3353 5.46848 40.4492 4.44326 40.5 3.41396C40.5306 2.41454 40.3789 1.32303 39.6051 0.622073L39.7039 0.504395C40.1182 0.854583 40.4225 1.31715 40.5801 1.83638C41.0216 3.37985 40.7505 4.99153 40.6005 6.55717C40.292 9.02672 39.3477 10.4184 37.5 11.9926C32.8443 16.1115 28.6035 20.6773 24.8386 25.6245C23.6727 27.1595 22.4522 28.807 22.6431 30.7853C22.8238 32.8797 24.7755 33.4885 26.5329 33.9951C28.5238 34.592 30.5625 35.2043 32.5125 36.1542C34.5005 37.1021 36.2508 38.4839 37.6346 40.1979C41.8346 45.3621 42.1363 52.6906 39.9051 58.7468C38.4341 62.7666 36.1551 66.6279 32.6505 69.21C30.9255 70.5044 28.8494 71.2566 26.8551 71.9388C25.863 72.2799 24.8556 72.6107 23.8142 72.8665C18.8863 74.1508 15.6187 72.7608 11.7358 69.7608C9.20451 67.8268 6.88633 65.5688 5.2261 62.8144C3.06815 59.1936 2.2619 54.9043 1.0653 50.9323C-0.139809 46.7743 -0.41765 45.7851 0.724395 41.535C1.48121 38.4839 2.27724 35.4294 3.62212 32.5625C5.41701 28.7609 7.90565 25.3841 10.2051 21.898C11.4341 20.1124 14.2363 15.8487 15.4551 14.1261C16.0621 13.2599 16.7541 12.4566 17.521 11.7282C18.6443 10.6708 20.0642 9.80612 21.3426 8.96532C27.0773 5.33258 33.2969 2.52997 39.8164 0.640834L39.8591 0.787506Z" fill="white"/>
<path d="M85.6601 0.714522C79.2182 2.75805 73.0889 5.68095 67.4454 9.40057C63.455 11.9827 62.6266 13.1305 60.1039 17.1043C58.967 18.8575 56.1067 23.2747 55.0073 24.9649C53.3215 27.5504 51.6067 30.1734 50.342 32.9806C49.5159 34.8537 48.8504 36.7935 48.3528 38.7793C47.8721 40.7321 47.2738 42.8111 46.9891 44.7707C46.7897 46.2579 47.151 47.6854 47.5721 49.1129C47.8465 50.0918 48.5948 52.6057 48.8795 53.6102C49.7317 56.53 50.555 59.5794 52.13 62.1564C53.705 64.7334 55.9363 66.8892 58.3448 68.7072C59.9368 69.901 61.6312 71.042 63.5266 71.6065C66.4346 72.4746 69.3459 71.6065 72.1993 70.6105C74.1204 69.9454 75.9988 69.2717 77.6198 68.0523C80.8448 65.6646 82.9635 61.991 84.3204 58.2492C86.3931 52.65 86.163 45.8895 82.3295 41.0902C79.8306 37.7833 75.8317 36.395 71.9709 35.2114C70.9857 34.8959 69.917 34.5855 68.9624 33.9033C66.9067 32.4895 66.9033 29.6396 68.0079 27.6186C68.5107 26.6379 69.1721 25.7903 69.8198 24.9734C71.1221 23.3361 72.4738 21.733 73.8851 20.198C76.7049 17.1155 79.7324 14.2298 82.9465 11.5614C83.7476 10.9031 84.5454 10.2328 85.0772 9.36817C85.609 8.50348 85.909 7.5143 86.0795 6.49954C86.3045 4.69343 86.9641 1.91177 85.4658 0.557617C86.2993 1.23981 86.5141 2.38078 86.5277 3.40919C86.5193 4.4548 86.4458 5.49887 86.3079 6.53535C86.1613 7.57058 85.9022 8.62116 85.3516 9.54724C84.801 10.4733 83.9982 11.1999 83.2226 11.8889C80.1038 14.6288 77.1711 17.5739 74.4442 20.7045C73.0806 22.2645 71.7704 23.8694 70.5135 25.5191C69.5948 26.73 68.6931 27.9375 68.3641 29.4042C68.0641 30.7345 68.3812 32.2609 69.5795 33.0438C70.3329 33.5725 71.2993 33.8607 72.2948 34.1574C75.2812 35.0528 78.4857 36.0335 81.0084 38.0067C89.1596 44.5609 88.1675 56.426 82.8834 64.4998C81.1448 67.2081 78.6681 69.6162 75.6647 70.9107C74.6726 71.349 73.6772 71.6969 72.6954 72.0483C69.6647 73.1347 66.2795 74.0761 63.0834 73.0715C60.9834 72.4371 59.1562 71.2075 57.4431 69.913C54.8863 67.9687 52.5596 65.7055 50.8721 62.9205C48.6783 59.2776 47.8789 54.9917 46.6738 50.9923C45.455 46.7985 45.1789 45.7582 46.3329 41.4774C47.0897 38.4075 47.9027 35.353 49.2647 32.4707C51.0732 28.6555 53.5584 25.2735 55.88 21.7892C57.1107 19.9968 59.9266 15.7552 61.1556 14.031C61.7664 13.1596 62.4643 12.3527 63.2385 11.6228C64.3806 10.5603 65.7954 9.70756 67.0976 8.87016C72.8576 5.26617 79.1104 2.51891 85.6601 0.714522Z" fill="white"/>
</svg>
