<svg width="22" height="21" viewBox="0 0 22 21" fill="none" xmlns="http://www.w3.org/2000/svg">
<path d="M10.9807 1.22596C11.1202 0.796402 11.728 0.796401 11.8675 1.22596L13.7023 6.87291C13.8896 7.44922 14.4266 7.83942 15.0326 7.83942H20.9702C21.4218 7.83942 21.6096 8.41739 21.2442 8.68287L16.4406 12.1729C15.9504 12.5291 15.7453 13.1604 15.9325 13.7367L17.7673 19.3837C17.9069 19.8132 17.4152 20.1704 17.0498 19.9049L12.2463 16.4149C11.756 16.0588 11.0922 16.0588 10.6019 16.4149L5.79835 19.9049C5.43295 20.1704 4.9413 19.8132 5.08087 19.3837L6.91568 13.7367C7.10293 13.1604 6.89779 12.5291 6.40755 12.1729L1.60397 8.68287C1.23857 8.41739 1.42636 7.83942 1.87803 7.83942H7.81558C8.42155 7.83942 8.95861 7.44922 9.14586 6.87291L10.9807 1.22596Z" stroke="#FFB953" stroke-width="0.932497"/>
</svg>
