<svg width="82" height="87" viewBox="0 0 82 87" fill="none" xmlns="http://www.w3.org/2000/svg">
<path d="M44.0547 10.5625C45.1993 7.62599 47.2011 5.10185 49.7996 3.31839C52.3982 1.53492 55.4733 0.574664 58.625 0.5625C59.4538 0.5625 60.2487 0.89174 60.8347 1.47779C61.4208 2.06384 61.75 2.8587 61.75 3.6875C61.75 4.5163 61.4208 5.31116 60.8347 5.89721C60.2487 6.48326 59.4538 6.8125 58.625 6.8125C56.7306 6.81839 54.882 7.39569 53.3209 8.46893C51.7598 9.54218 50.5589 11.0614 49.875 12.8281C49.6457 13.4177 49.2429 13.9238 48.7197 14.2795C48.1966 14.6352 47.5779 14.8238 46.9453 14.8203C46.5728 14.8123 46.2038 14.7464 45.8516 14.625C45.4655 14.478 45.1124 14.2559 44.8127 13.9716C44.5131 13.6873 44.2727 13.3464 44.1056 12.9686C43.9385 12.5908 43.848 12.1837 43.8392 11.7707C43.8305 11.3577 43.9037 10.947 44.0547 10.5625ZM79.7187 59.8594C77.2214 58.605 75.1062 56.7038 73.5935 54.354C72.0809 52.0041 71.2261 49.2915 71.1184 46.4989C71.0107 43.7063 71.6539 40.9359 72.9811 38.4765C74.3083 36.0171 76.2708 33.9586 78.6641 32.5156C79.0355 32.28 79.3544 31.9703 79.601 31.606C79.8475 31.2416 80.0163 30.8304 80.097 30.398C80.1776 29.9655 80.1683 29.5211 80.0696 29.0924C79.9709 28.6637 79.785 28.2599 79.5234 27.9062C75.2772 22.4963 69.0983 18.9441 62.2864 17.997C55.4746 17.0499 48.561 18.7817 43 22.8281C39.0372 19.9456 34.3543 18.2155 29.4692 17.8291C24.5842 17.4428 19.6875 18.4153 15.3209 20.639C10.9542 22.8628 7.28783 26.2511 4.72728 30.4292C2.16674 34.6073 0.811845 39.4122 0.8125 44.3125C0.906521 54.6149 4.01633 64.664 9.75781 73.2188C15.3828 81.5391 22.5312 86.5 28.9375 86.5H57.0625C65.8516 86.5 75.7734 77.1641 81.2422 63.8438C81.5501 63.1112 81.5635 62.2882 81.2797 61.546C80.9959 60.8038 80.4368 60.1996 79.7187 59.8594Z" fill="white" fill-opacity="0.8"/>
</svg>
