<svg width="81" height="86" viewBox="0 0 81 86" fill="none" xmlns="http://www.w3.org/2000/svg">
<path d="M43.2422 10C44.3868 7.06349 46.3886 4.53935 48.9871 2.75589C51.5857 0.972425 54.6608 0.0121644 57.8125 0C58.6413 0 59.4362 0.32924 60.0222 0.915291C60.6083 1.50134 60.9375 2.2962 60.9375 3.125C60.9375 3.9538 60.6083 4.74866 60.0222 5.33471C59.4362 5.92076 58.6413 6.25 57.8125 6.25C55.9181 6.25589 54.0695 6.83319 52.5084 7.90643C50.9473 8.97968 49.7464 10.4989 49.0625 12.2656C48.8332 12.8552 48.4304 13.3613 47.9072 13.717C47.3841 14.0727 46.7654 14.2613 46.1328 14.2578C45.7603 14.2498 45.3913 14.1839 45.0391 14.0625C44.653 13.9155 44.2999 13.6934 44.0002 13.4091C43.7006 13.1248 43.4602 12.7839 43.2931 12.4061C43.126 12.0283 43.0355 11.6212 43.0267 11.2082C43.018 10.7952 43.0912 10.3845 43.2422 10ZM78.9062 59.2969C76.4089 58.0425 74.2937 56.1413 72.781 53.7915C71.2684 51.4416 70.4136 48.729 70.3059 45.9364C70.1982 43.1438 70.8414 40.3734 72.1686 37.914C73.4958 35.4546 75.4583 33.3961 77.8516 31.9531C78.223 31.7175 78.5419 31.4078 78.7885 31.0435C79.035 30.6791 79.2038 30.2679 79.2845 29.8355C79.3651 29.403 79.3558 28.9586 79.2571 28.5299C79.1584 28.1012 78.9725 27.6974 78.7109 27.3438C74.4647 21.9338 68.2858 18.3816 61.4739 17.4345C54.6621 16.4874 47.7485 18.2192 42.1875 22.2656C38.2247 19.3831 33.5418 17.653 28.6567 17.2666C23.7717 16.8803 18.875 17.8528 14.5084 20.0765C10.1417 22.3003 6.47533 25.6886 3.91478 29.8667C1.35424 34.0448 -0.000654965 38.8497 2.37521e-07 43.75C0.094021 54.0524 3.20383 64.1015 8.94531 72.6562C14.5703 80.9766 21.7187 85.9375 28.125 85.9375H56.25C65.0391 85.9375 74.9609 76.6016 80.4297 63.2812C80.7376 62.5487 80.751 61.7257 80.4672 60.9835C80.1834 60.2413 79.6243 59.6371 78.9062 59.2969Z" fill="#807979" fill-opacity="0.2"/>
</svg>
