<svg width="88" height="57" viewBox="0 0 88 57" fill="none" xmlns="http://www.w3.org/2000/svg">
<path d="M53.125 9.375C53.125 8.5462 53.4542 7.75134 54.0403 7.16529C54.6263 6.57924 55.4212 6.25 56.25 6.25H81.25C82.0788 6.25 82.8737 6.57924 83.4597 7.16529C84.0458 7.75134 84.375 8.5462 84.375 9.375C84.375 10.2038 84.0458 10.9987 83.4597 11.5847C82.8737 12.1708 82.0788 12.5 81.25 12.5H56.25C55.4212 12.5 54.6263 12.1708 54.0403 11.5847C53.4542 10.9987 53.125 10.2038 53.125 9.375ZM87.5 37.5C87.5 38.3288 87.1708 39.1237 86.5847 39.7097C85.9987 40.2958 85.2038 40.625 84.375 40.625H56.6406C57.3397 43.3059 58.9071 45.6798 61.0978 47.3759C63.2886 49.072 65.9794 49.9947 68.75 50C70.3921 50.008 72.0191 49.6872 73.5353 49.0566C75.0515 48.426 76.4261 47.4983 77.5781 46.3281C78.164 45.7437 78.9577 45.4155 79.7852 45.4155C80.6126 45.4155 81.4063 45.7437 81.9922 46.3281C82.2863 46.6155 82.52 46.9588 82.6795 47.3379C82.8391 47.7169 82.9213 48.1239 82.9213 48.5352C82.9213 48.9464 82.8391 49.3535 82.6795 49.7325C82.52 50.1115 82.2863 50.4548 81.9922 50.7422C80.2621 52.4947 78.1998 53.8846 75.926 54.8303C73.6522 55.7761 71.2126 56.2587 68.75 56.25C65.0416 56.25 61.4165 55.1503 58.3331 53.0901C55.2496 51.0298 52.8464 48.1014 51.4273 44.6753C50.0081 41.2492 49.6368 37.4792 50.3603 33.8421C51.0837 30.2049 52.8695 26.864 55.4917 24.2418C58.114 21.6195 61.4549 19.8338 65.0921 19.1103C68.7292 18.3868 72.4992 18.7581 75.9253 20.1773C79.3514 21.5964 82.2798 23.9996 84.3401 27.0831C86.4003 30.1665 87.5 33.7916 87.5 37.5ZM80.8594 34.375C80.1709 31.6862 78.6072 29.303 76.4147 27.6011C74.2221 25.8992 71.5255 24.9755 68.75 24.9755C65.9745 24.9755 63.2779 25.8992 61.0853 27.6011C58.8928 29.303 57.3291 31.6862 56.6406 34.375H80.8594ZM45.3125 39.8438C45.3125 44.195 43.584 48.368 40.5072 51.4447C37.4305 54.5215 33.2575 56.25 28.9062 56.25H3.125C2.2962 56.25 1.50134 55.9208 0.915291 55.3347C0.32924 54.7487 0 53.9538 0 53.125V3.125C0 2.2962 0.32924 1.50134 0.915291 0.915292C1.50134 0.329241 2.2962 0 3.125 0H24.2188C27.081 0.00401263 29.881 0.835445 32.2816 2.39415C34.6821 3.95286 36.5809 6.17237 37.7491 8.78534C38.9173 11.3983 39.3051 14.2933 38.8659 17.1216C38.4266 19.9499 37.1791 22.591 35.2734 24.7266C38.2484 25.9793 40.7876 28.0818 42.5733 30.7708C44.3591 33.4598 45.3119 36.6158 45.3125 39.8438ZM6.25 23.4375H24.2188C26.498 23.4375 28.6838 22.5321 30.2955 20.9205C31.9071 19.3088 32.8125 17.123 32.8125 14.8438C32.8125 12.5645 31.9071 10.3787 30.2955 8.76705C28.6838 7.15541 26.498 6.25 24.2188 6.25H6.25V23.4375ZM39.0625 39.8438C39.0522 37.1533 37.9789 34.576 36.0764 32.6736C34.174 30.7711 31.5967 29.6978 28.9062 29.6875H6.25V50H28.9062C31.5967 49.9897 34.174 48.9164 36.0764 47.0139C37.9789 45.1115 39.0522 42.5342 39.0625 39.8438Z" fill="#807979" fill-opacity="0.2"/>
</svg>
