<svg width="562" height="321" viewBox="0 0 562 321" fill="none" xmlns="http://www.w3.org/2000/svg">
<path d="M309.74 105.66C318.65 94.7692 322.718 88.1095 339.227 74.3465M295.432 128.781C313.393 111.239 327.325 92.1958 355.609 64.1367M293.46 144.008C311.938 119.076 324.929 101.329 367.886 56.0654M284.462 155.061C315.264 124.26 333.744 96.9786 372.576 53.5826M287.483 166.849C321.682 122.532 347.233 85.5971 384.335 53.0041M287.448 176.015C324.255 126.54 370.535 84.849 385.423 48.685M279 181.462C320.209 137.624 357.256 93.3999 400.136 51.5525M284.543 186.666C318.858 141.124 363.448 94.907 405.307 51.1558M285.915 192.983C317.55 150.781 348.444 120.88 410.405 46.3496M285.478 200.507C311.045 160.387 353.295 120.988 416.307 50.3M282.722 211.264C334.053 151.985 383.569 89.7913 420.69 44M289.338 215.431C334.529 162.33 379.119 100.687 423.87 44.4741M288.959 212.563C326.255 175.141 366.895 127.567 435.723 47.2862M293.068 225.886C342.29 162.863 388.366 98.8412 443.137 52.1999M293.006 228.943C342.643 166.699 397.73 110.762 446.023 55.1657M294.1 229.332C349.654 168.8 405.762 97.0037 449.452 55.1902M299.458 239.428C358.917 166.058 421.369 91.9092 451.095 50.8624M300.421 241.861C337.183 199.507 377.603 160.514 456.656 54.9324M301.262 249.044C359.402 178.713 425.113 109.34 465.113 57.2112M301.843 253.27C340.389 207.465 380.391 164.524 473.417 56.6618M306.713 251.5C337.458 214.535 373.86 171.575 470.446 63.3427M310.404 259.966C371.48 186.013 436.711 109.536 481.664 59.8606M307.785 263.205C368.547 197.888 431.025 122.356 483.377 67.3555M311.822 266.318C377.331 194.097 444.901 120.313 485.636 65.6064M317.314 273.598C383.173 193.879 446.128 117.051 491.417 70.067M319.138 277.465C389.155 198.466 448.876 127.922 494.752 68.5909M318.586 273.727C378.471 212.565 437.785 144.177 495.24 79.0794M324.1 284.356C371.097 221.949 415.439 170.743 500.067 79.3112M330.075 281.53C393.79 204.21 458.302 125.338 504.542 84.8026M331.894 289.881C373.708 241.552 412.167 197.523 512.433 87.4849M339.532 290.794C399.018 217.997 466.563 140.016 511.304 87.3003M342.216 290.26C405.514 218.484 470.407 147.665 518.303 92.3521M340.885 298.579C388.589 244.555 435.15 199.735 522.173 95.6356M350.31 296.785C414.708 221.969 487.091 141.268 523.497 101.851M354.564 304.128C397.669 257.193 436.796 211.638 527.652 104.638M358.402 301.992C425.324 227.791 493.727 152.355 526.922 106.542M356.898 306.97C413.583 241.949 466.977 188.659 530.986 107.54M360.983 309.541C401.403 266.263 430.1 225.823 533.821 110.065M371.302 312.164C434.867 233.094 498.03 158.152 531.878 116.26M371.655 312.504C420.485 249.537 468.203 195.454 535.878 120.163M382.292 308.616C419.713 264.911 451.763 228.224 541.264 126.584M382.72 309.964C431.639 249.848 481.159 198.511 546.593 127.676M390.753 317.74C456.587 245.922 518.027 174.207 545.026 135.271M396.347 317.423C433.826 272.437 463.463 234.374 549.604 145.859M396.832 311.934C449.082 261.944 496.974 208.825 547.442 145.466M406.377 311.661C445.841 269.226 490.909 225.562 550.689 147.949M412.776 319.155C442.537 277.606 477.281 248.362 551.395 157.576M415.226 317.441C443.515 286.135 475.235 250.244 554.483 163.787M422.82 312.649C467.22 266.831 511.966 220.551 554.252 172.52M428.384 317.852C469.139 270.2 505.319 230.919 553.13 178.409M433.896 317.562C459.929 286.044 488.18 254.608 551.874 180.28M443.077 317.606C472.81 286.701 488.467 260.588 548.206 187.911M450.67 312.708C486.992 275.487 524.492 238.322 554.551 202.825M461.016 306.468C483.199 283.162 515.551 249.095 546.032 211.655M474.634 303.471C501.018 271.639 531.48 239.38 544.521 217.118M482.801 302.434C506.246 276.328 532.803 246.708 540.17 228.649M492.412 295.908C511.003 273.193 533.79 253.88 547.629 236.342M291.749 127.694C303.615 114.999 322.823 98.458 336.904 75.3094M289.495 144.161C309.83 122.631 323.472 107.34 356.346 59.6612M286.779 152.394C308.752 128.948 328.366 106.301 359.561 59.5162M287.755 164.751C302.493 136.051 323.433 111.094 370.386 57.8024M281.707 171.343C308.39 142.382 330.008 119.711 383.107 48.5209M283.787 178.883C310.398 148.05 337.55 116.144 390.956 46.2176M286.447 192.231C317.895 147.022 348.616 102.792 392.858 51.6016M285.391 198.7C312.297 158.841 346 125.786 399.336 47.7903M280.015 198.546C320.977 160.003 344.235 122.212 405.389 52.7781M285.045 207.806C332.731 153.63 385.502 89.5435 415.501 44.1045M285.27 213.987C312.107 174.679 345.009 137.198 420.547 48.0651M285.815 217.63C328.865 163.249 379.955 111.338 429.062 51.208M292.178 221.637C346.219 170.241 388.383 105.785 432.928 48.4517M289.478 224.266C338.576 174.058 390.799 110.471 435.926 48.8796M292.278 229.339C358.02 161.351 419.937 85.1986 443.93 51.95M298.982 239.302C352.232 167.634 412.463 98.2882 447.763 55.7938M301.112 241.545C355.837 169.904 406.426 107.168 453.861 53.8366M298.053 243.384C355.475 178.993 414.741 114.292 459.285 54.0302M301.243 246.766C339.27 198.029 383.18 144.879 467.523 54.7995M301.578 256.133C363.281 182.391 421.411 116.596 469.788 59.3097M305.072 260.322C347.804 217.103 385.731 164.576 475.803 60.9739M310.606 262.87C370.826 186.309 434.439 119.308 480.073 61.3645M315.502 266.114C382.125 180.534 451.454 102.84 483.42 62.9108M317.424 273.347C366.888 208.446 420.452 139.802 489.93 71.228M318.088 273.584C386.822 194.896 449.555 113.612 492.716 67.2342M322.006 277.85C361.133 238.731 396.851 192.993 491.775 72.2787M328.767 283.564C388.34 208.366 453.324 140.215 496.841 74.8278M325.73 285.102C364.73 234.036 405.369 188.945 500.503 80.4952M333.153 284.175C376.709 239.52 414.621 186.53 507.986 80.9861M337.812 289.944C379.048 246.955 417.097 193.306 506.714 84.8006M339.595 291.385C410.067 210.643 475.723 127.486 514.268 87.8711M346.737 296.739C411.94 221.193 472.042 143.117 518.303 87.0675M345.143 296.941C391.472 241.202 438.824 189.753 522.174 98.0739M353.105 298.616C417.671 223.946 483.006 142.911 522.802 97.6986M354.149 302.353C416.977 238.636 474.994 167.266 524.019 100.414M364.511 302.41C393.043 260.781 424.758 220.238 524.729 106.981M367.202 304.59C405.932 260.128 440.603 211.876 534.439 108.464M373.666 307.945C429.925 242.888 489.916 171.732 531.193 114.194M373.663 309.557C422.715 250.493 477.41 183.017 531.717 115.141M382.672 314.315C427.051 248.773 479.673 191.732 533.997 126.172M387.296 312.242C422.029 256.925 472.463 205.211 537.616 127.971M386.85 311.303C436.466 259.157 493.776 191.544 539.197 132.006M392.423 317.453C447.04 248.611 500.768 185.206 543.118 136.702M403.999 317.41C437.861 274.16 477.976 230.537 543.268 143.65M406.038 314.169C462.535 249.648 520.308 185.806 545.046 147.149M417.309 319.637C465.2 255.826 516.54 198.917 552.707 156.774M418.005 315.91C453.69 267.94 489.518 232.272 550.353 153.256M421.237 312.276C474.13 262.818 517.86 197.291 551.007 166.418M432.231 320.23C471.429 265.09 514.531 215.809 556.925 172.106M440.696 311.528C474.385 273.733 497.887 244.194 551.994 178.879M447.692 314.884C484.65 269.953 515.05 230.718 554.111 181.622M457.205 314.399C476.078 290.579 495.658 262.255 551.799 191.585M464.045 311.116C492.566 268.152 530.049 229.052 552.449 198.751M465.569 307.806C492.482 271.518 520.109 242.94 548.564 213.498M486.804 296.583C506.653 267.694 530.637 235.755 549.258 221.808M489.117 295.41C508.748 276.902 515.634 263.06 546.192 230.276M321.373 86.2655V86.2655Z" stroke="url(#paint0_linear_1720_17786)" stroke-linecap="round"/>
<path d="M538.514 6.07119C490.748 3.81499 462.369 31.1181 461.19 72.5757M538.514 6.07119V6.07119ZM460.953 67.5634C465.387 87.9888 479.391 105.136 491.43 117.494M498.132 114.8C495.416 125.647 495.811 132.628 489.011 147.444M488.915 146.915C486.099 147.25 484.635 149.248 486.549 149.069M488.961 147.976C493.484 147.411 489.647 148.787 491.435 147.024M489.59 148.832C489.513 149.487 490.672 152.089 488.906 149.318M490.588 149.196C491.443 153.753 488.703 153.8 493.767 146.234M493.77 148.271C501.325 144.048 511.506 136.579 526.492 128.368M526.582 128.18C528.742 128.969 536.063 133.707 543.025 130.159M538.514 128.976C579.667 127.042 616.401 105.012 614.648 68.3115M616.076 67.5634C620.805 36.8056 582.391 2.58259 536.936 1" stroke="white" stroke-linecap="round" stroke-linejoin="round"/>
<path d="M538.179 78.3452C546.612 83.2934 552.462 71.0689 545.347 63.9026M538.179 78.3452V78.3452ZM548.958 67.5661C553.798 63.5978 547.855 56.128 534.552 57.6451M538.179 56.7871C537.274 58.3429 525.966 60.3005 532.006 67.625M527.4 67.5661C523.217 69.2436 534.104 80.4079 542.841 82.9133" stroke="white" stroke-linecap="round" stroke-linejoin="round"/>
<path d="M499.435 78.3426C507.279 74.8629 512.022 74.0013 505.064 72.1958M499.435 78.3426V78.3426ZM510.214 67.5635C511.613 59.9486 506.914 61.9246 495.039 56.5137M499.435 56.7845C491.838 55.4001 488.214 65.72 493.62 63.4672M488.656 67.5635C490.833 70.9341 494.874 73.5806 497.17 79.896" stroke="white" stroke-linecap="round" stroke-linejoin="round"/>
<path d="M538.514 6.20868C492.433 4.15217 459.952 31.7006 462.417 66.5735M538.514 6.20868V6.20868ZM460.953 67.7008C461.857 86.864 472.087 110.108 494.47 121.698M495.72 117.411C492.292 128.698 492.689 135.664 488.612 146.598M488.915 147.052C488.79 149.566 489.283 150.784 490.05 146.243M488.961 148.113C490.763 148.813 490.629 150.704 490.215 151.873M489.59 148.97C492.959 146.681 490.571 149.795 490.24 148.007M490.588 149.333C492.051 152.264 493.072 148.017 492.136 150.025M489.091 149.079C507.205 140.959 517.989 136.924 529.233 126.5M526.582 128.318C533.038 129.508 533.677 127.621 536.621 125.943M538.514 129.113C584.216 128.887 615.914 100.666 619.352 69.6313M616.076 67.7008C617.293 37.1587 583.766 2.95642 537.035 8.79586" stroke="white" stroke-linecap="round" stroke-linejoin="round"/>
<path d="M538.141 78.4785C543.005 76.8524 550.244 73.5166 551.738 70.1526M538.141 78.4785V78.4785ZM548.92 67.6994C551.612 64.78 546.825 58.7654 536.961 59.594M538.141 56.9204C533.991 59.0558 526.995 61.6531 528.404 68.7269M527.362 67.6994C525.569 73.5436 533.658 76.3717 540.908 80.8812" stroke="white" stroke-linecap="round" stroke-linejoin="round"/>
<path d="M499.436 78.4773C504.264 79.3321 507.529 73.3448 510.399 66.3748M499.436 78.4773V78.4773ZM510.215 67.6983C507.063 60.5686 504.254 58.9734 500.818 56.4683M499.436 56.9193C493.286 57.4684 488.172 64.9205 489.822 67.8809M488.657 67.6983C488.569 72.558 496.617 78.9377 498.019 78.1686" stroke="white" stroke-linecap="round" stroke-linejoin="round"/>
<path d="M81.8372 156.874C129.603 154.618 157.983 181.921 159.161 223.379M81.8372 156.874V156.874ZM159.398 218.367C154.965 238.792 140.96 255.939 128.921 268.297M122.22 265.604C124.936 276.45 124.541 283.431 131.34 298.247M131.437 297.718C134.253 298.053 135.716 300.051 133.802 299.872M131.39 298.779C126.867 298.214 130.705 299.59 128.917 297.827M130.762 299.636C130.839 300.29 129.68 302.892 131.446 300.121M129.764 299.999C128.909 304.557 131.649 304.603 126.584 297.037M126.581 299.074C119.026 294.852 108.845 287.383 93.8594 279.171M93.7697 278.984C91.6093 279.772 84.2888 284.511 77.3268 280.962M81.8372 279.779C40.685 277.845 3.95066 255.815 5.70358 219.115M4.27591 218.367C-0.453852 187.609 37.9606 153.386 83.416 151.803" stroke="white" stroke-linecap="round" stroke-linejoin="round"/>
<path d="M82.1335 229.144C73.7007 234.092 67.8502 221.868 74.9659 214.701M82.1335 229.144V229.144ZM71.3545 218.365C66.5142 214.397 72.4577 206.927 85.7603 208.444M82.1335 207.586C83.0385 209.142 94.3469 211.099 88.3067 218.424M92.9125 218.365C97.0955 220.042 86.2087 231.207 77.4717 233.712" stroke="white" stroke-linecap="round" stroke-linejoin="round"/>
<path d="M43.4456 229.145C38.8304 230.726 30.8956 222.494 29.5046 216.681M43.4456 229.145V229.145ZM32.6666 218.366C35.9515 214.345 36.1088 209.485 43.7073 203.614M43.4456 207.587C53.3844 211.273 58.276 212.367 52.9254 221.135M54.2246 218.366C50.9689 223.8 53.5037 228.618 43.3791 227.031" stroke="white" stroke-linecap="round" stroke-linejoin="round"/>
<path d="M120.885 229.145C113.041 225.666 108.298 224.804 115.256 222.999M120.885 229.145V229.145ZM110.106 218.366C108.707 210.751 113.406 212.727 125.281 207.316M120.885 207.587C128.482 206.203 132.106 216.523 126.7 214.27M131.664 218.366C129.487 221.737 125.446 224.383 123.15 230.699" stroke="white" stroke-linecap="round" stroke-linejoin="round"/>
<path d="M81.8372 157.012C127.918 154.955 160.399 182.504 157.935 217.377M81.8372 157.012V157.012ZM159.398 218.504C158.495 237.667 148.265 260.912 125.881 272.501M124.631 268.214C128.059 279.501 127.662 286.467 131.74 297.402M131.437 297.855C131.561 300.369 131.068 301.587 130.302 297.046M131.39 298.916C129.589 299.617 129.723 301.507 130.136 302.677M130.762 299.773C127.392 297.484 129.781 300.599 130.111 298.811M129.764 300.136C128.3 303.068 127.28 298.82 128.216 300.828M131.261 299.882C113.146 291.762 102.362 287.727 91.119 277.303M93.7697 279.121C87.3139 280.311 86.6745 278.424 83.7302 276.746M81.8372 279.917C36.1358 279.69 4.43715 251.469 0.999317 220.435M4.2759 218.504C3.05877 187.962 36.5851 153.76 83.3164 159.599" stroke="white" stroke-linecap="round" stroke-linejoin="round"/>
<path d="M82.1713 229.281C77.3072 227.655 70.0686 224.319 68.5746 220.955M82.1713 229.281V229.281ZM71.3923 218.502C68.7004 215.583 73.4878 209.568 83.3513 210.397M82.1713 207.723C86.3217 209.859 93.3177 212.456 91.9087 219.53M92.9504 218.502C94.7438 224.346 86.6543 227.174 79.4045 231.684" stroke="white" stroke-linecap="round" stroke-linejoin="round"/>
<path d="M43.4877 229.28C38.525 230.547 30.7524 221.217 32.2415 220.598M43.4877 229.28V229.28ZM32.7087 218.501C32.5164 214.218 38.5416 206.936 45.9348 206.623M43.4877 207.722C49.02 208.054 56.6892 209.492 57.1406 220.778M54.2668 218.501C51.3319 227.383 49.8578 229.193 41.5662 232.6" stroke="white" stroke-linecap="round" stroke-linejoin="round"/>
<path d="M120.884 229.282C116.056 230.137 112.791 224.15 109.921 217.18M120.884 229.282V229.282ZM110.105 218.503C113.258 211.373 116.066 209.778 119.502 207.273M120.884 207.724C127.035 208.273 132.148 215.725 130.498 218.686M131.663 218.503C131.751 223.363 123.703 229.742 122.301 228.973" stroke="white" stroke-linecap="round" stroke-linejoin="round"/>
<path d="M259.695 279.631C242.911 265.753 234.081 252.771 227.594 234.099M416.276 234.8C412.291 251.113 399.438 267.536 384.531 276.709M372.527 115.567C356.453 105.704 339.816 102.333 321.538 102.668M322.078 101.897C305.074 101.12 288.398 105.399 270.685 118.133" stroke="white" stroke-linecap="round"/>
<path d="M321.609 273.624C334.484 274.555 343.875 266.629 342.185 252.739M321.609 273.624V273.624ZM342.377 252.856C340.495 241.31 333.071 232.253 320.076 232.943M321.609 232.087C310.042 234.087 298.867 243.708 300.459 251.382M300.84 252.856C297.867 262.889 311.992 270.928 322.954 271.935M314.194 281.413C299.57 279.207 283.065 293.929 285.175 309.788M314.194 281.413V281.413ZM285.264 310.343C287.155 315.897 284.883 314.138 290.408 315.689M292.247 312.758C306.203 317.694 319.561 317.262 355.422 314.066M353.135 315.162C357.9 314.108 360.353 312.823 356.685 311.093M357.954 310.343C357.108 291.872 344.664 278.759 327.366 283.062M326.836 283.332C325.492 280.262 319.238 279.385 316.391 279.359" stroke="white" stroke-linecap="round"/>
<path d="M233.712 166.216C246.679 163.887 255.048 158.812 255.46 146.428M233.712 166.216V166.216ZM254.481 145.448C254.032 133.008 242.827 122.638 232.978 125.357M233.712 124.679C221.761 121.857 210.04 132.275 215.926 145.618M212.944 145.448C214.564 159.513 222.349 166.014 231.78 163.66M226.297 174.005C212.823 173.489 198.575 187.849 197.704 204.062M226.297 174.005V174.005ZM197.367 202.935C197.955 203.712 202.193 205.72 204.945 206.332M204.846 207.618C223.002 207.89 247.719 205.561 265.675 209.675M265.238 207.753C268.34 207.072 272.326 207.432 268.266 201.715M270.057 202.935C271.151 186.368 257.037 171.504 243.904 172.689M243.811 175.476C235.845 173.766 231.061 176.717 227.133 174.364" stroke="white" stroke-linecap="round"/>
<path d="M409.447 166.216C421.555 167.863 429.277 158.014 432.235 144.465M409.447 166.216V166.216ZM430.215 145.448C429.876 134.506 423.17 126.398 411.651 122.529M409.447 124.679C396.386 122.946 388.628 131.427 386.882 144.685M388.678 145.448C390.287 158.031 398.339 167.484 408.428 165.714M402.032 174.004C385.911 175.907 375.223 185.921 375.102 202.606M402.032 174.004V174.004ZM373.102 202.934C370.955 206.555 372.38 208.792 376.025 208.839M376.041 205.199C398.109 210.71 421.322 206.662 441.4 207.26M440.973 207.753C443.076 206.376 442.815 207.013 448.036 201.719M445.792 202.934C445.275 189.533 430.753 173.573 419.26 176.563M414.495 175.024C413.521 171.62 410.776 171.863 400.724 176.685" stroke="white" stroke-linecap="round"/>
<path d="M261.144 277.374C249.48 265.047 233.145 249.722 227.617 230.64M417.725 232.543C414.357 249.869 401.924 264.581 383.422 279.939M373.976 113.309C360.371 102.083 340.585 102.597 326.005 100.735M323.527 99.6401C308.037 100.408 285.984 102.44 273.973 113.497" stroke="white" stroke-width="2" stroke-linecap="round"/>
<path d="M323.062 271.367C336.698 270.201 344.405 263.044 341.918 252.396M323.062 271.367V271.367ZM343.83 250.598C344.235 237.077 334.157 229.09 321.83 231.39M323.062 229.83C311.224 229.313 299.616 238.043 300.43 251.748M302.293 250.598C302.961 264.275 312.146 269.144 324.775 269.352M315.647 279.155C297.846 276.881 285.109 294.84 286.466 307.897M315.647 279.155V279.155ZM286.717 308.085C286.187 310.758 287.787 310.006 288.793 314.321M293.347 314.893C309.284 313.441 321.79 311.357 355.475 315.87M354.588 312.904C354.688 312.216 359.509 307.781 359.866 306.008M359.407 308.085C360.837 294.004 347.338 279.509 330.544 277.448M331.414 278.076C326.359 280.529 322.732 278.947 314.74 280.58" stroke="white" stroke-width="2" stroke-linecap="round"/>
<path d="M235.166 163.961C246.994 163.86 257.872 153.597 256.987 145.802M235.166 163.961V163.961ZM255.935 143.192C256.805 130.543 248.102 121.638 234.661 121.111M235.166 122.424C224.861 123.878 212.383 134.583 211.429 141.875M214.398 143.192C212.692 156.857 224.183 162.546 238.006 164.994M227.751 171.749C214.299 172.085 199.986 184.044 199.142 198.708M227.751 171.749V171.749ZM198.821 200.679C198.366 204.053 201.925 204.168 202.735 206.811M206.614 207.595C229.459 207.178 254.941 206.108 268.529 206.763M266.692 205.498C272.159 204.132 268.761 203.221 270.518 197.912M271.511 200.679C274.131 185.472 258.693 171.45 242.194 170.471M240.573 170.353C236.306 170.594 232.274 171.016 228.153 168.826" stroke="white" stroke-width="2" stroke-linecap="round"/>
<path d="M410.9 163.96C420.502 165.816 433.559 152.721 433.897 144.964M410.9 163.96V163.96ZM431.668 143.192C430.003 132.871 419.574 124.67 412 123.081M410.9 122.423C398.743 119.507 387.953 129.366 390.482 141.814M390.131 143.192C387.824 157.305 401.808 164.526 412.157 161.261M403.485 171.749C385.672 168.904 372.999 186.509 376.836 201.869M403.485 171.749V171.749ZM374.555 200.678C377.285 204.468 376.064 206.385 381.927 206.377M379.669 205.888C400.777 207.299 416.127 203.818 445.035 208.009M442.426 205.497C447.804 207.023 447.374 205.223 446.741 200.362M447.245 200.678C447.857 183.48 435.811 168.939 421.245 171.801M417.789 172.975C410.846 174.664 410.901 170.312 401.698 172.259" stroke="white" stroke-width="2" stroke-linecap="round"/>
<defs>
<linearGradient id="paint0_linear_1720_17786" x1="307.557" y1="80.4624" x2="493.58" y2="177.528" gradientUnits="userSpaceOnUse">
<stop stop-color="#3CA0D2"/>
<stop offset="1" stop-color="#48DCA6"/>
</linearGradient>
</defs>
</svg>
