<svg width="30" height="92" viewBox="0 0 30 92" fill="none" xmlns="http://www.w3.org/2000/svg">
<g clip-path="url(#clip0_405_3477)">
<path d="M18.8504 0C4.84039 3.82 0.480391 10 0.180391 24.39C-0.10961 31.06 -0.21961 37.71 1.28039 44.39C2.28039 48.66 3.44039 52.93 4.88039 57.12C9.01039 69.71 17.4004 80.75 27.1504 89.48C21.9304 82.48 16.8404 75.48 13.1004 67.77C9.36039 60.06 7.10039 51.77 5.18039 43.45C3.36039 35.31 3.58039 26.45 3.81039 18.09C4.20039 11.2 7.34039 6.56 13.1204 3.09C14.9004 1.81 17.1204 1.38 18.8504 0.09V0Z" fill="#454545"/>
<path d="M27.0008 69.19C25.4008 72.06 25.6008 75.74 25.2808 78.83C25.0508 82.17 25.5908 85.3 25.4708 88.53C25.4708 88.64 25.4708 88.53 25.5708 88.24C25.655 88.0561 25.7818 87.895 25.9408 87.77C26.0742 87.6488 26.2357 87.5628 26.4108 87.52C26.6208 87.52 26.5608 87.52 26.5008 87.52C25.2508 87.37 23.9308 86.74 22.6108 86.62C19.4908 86.09 16.1908 86.28 13.2108 85.46C12.0808 84.98 10.6608 85.14 9.5208 84.77C10.4008 85.77 11.5208 86.01 12.5208 86.85C15.3308 88.85 18.7008 89.32 21.8708 90.22C23.2508 90.5 24.4808 91.28 26.1508 91.44C26.6264 91.528 27.1164 91.4952 27.576 91.3446C28.0356 91.1941 28.4501 90.9306 28.7814 90.5783C29.1128 90.2261 29.3505 89.7963 29.4726 89.3284C29.5948 88.8604 29.5976 88.3693 29.4808 87.9C29.6208 84.9 28.7608 81.72 28.4808 78.83C28.1608 75.38 27.0908 72.5 27.0608 69.19H27.0008Z" fill="#454545"/>
</g>
<defs>
<clipPath id="clip0_405_3477">
<rect width="29.48" height="91.47" fill="white" transform="matrix(-1 0 0 1 29.4805 0)"/>
</clipPath>
</defs>
</svg>
