<svg width="39" height="45" viewBox="0 0 39 45" fill="none" xmlns="http://www.w3.org/2000/svg">
<path d="M3.58691 42.8921C7.06106 40.5139 11.4952 40.0837 15.52 39.4296C17.5622 39.0869 19.6279 38.8996 21.6537 38.6607C23.698 38.4615 25.7265 38.1244 27.7253 37.6516C25.9662 38.8148 23.9005 39.4573 21.8823 39.9429C19.8641 40.4284 17.8059 40.7538 15.7726 41.0801C11.6524 41.7181 7.60919 41.7368 3.58691 42.8921Z" fill="#454545"/>
<path d="M29.862 29.9374C24.4995 25.7356 19.9436 20.6072 15.0671 15.9096C10.1608 11.1107 4.64333 6.23924 1.56898 -1.85707e-05L1.87384 0.341087C1.98964 0.513991 2.08512 0.699663 2.1584 0.89443C2.02195 0.743257 1.93755 0.539705 1.78707 0.429778L1.88173 0.353905C3.99451 2.99847 6.30778 5.47642 8.80104 7.76579C11.2672 10.0947 13.7987 12.3509 16.2424 14.7207C21.1068 19.5223 25.3911 24.7703 29.862 29.9374Z" fill="#454545"/>
<path d="M37.3421 25.2632C35.7191 21.6956 35.4406 17.6763 35.1307 13.8312C34.8208 9.98611 34.6307 5.94914 35.7751 2.19084C35.9416 5.50447 36.2991 8.96292 36.6589 12.2461C37.1003 16.6055 36.9594 20.8976 37.338 25.263L37.3421 25.2632Z" fill="#454545"/>
</svg>
