<svg width="509" height="341" viewBox="0 0 509 341" fill="none" xmlns="http://www.w3.org/2000/svg">
<path d="M155.348 24.2327C150.454 22.9374 146.936 20.7415 148.006 20.383M154.271 27.8864C151.396 23.8018 147.828 19.4375 148.084 16.133M152.585 25.7613C148.07 24.3952 146.699 20.7205 146.752 16.0586M151.356 30.5132C149.473 28.0932 149.957 23.9044 144.748 16.4365M149.64 30.4734C147.798 27.8802 146.807 20.7613 145.66 19.3396M152.441 31.3488C146.094 24.5831 144.35 22.4338 140.231 19.892M153.82 35.6666C150.119 27.0929 144.46 23.7976 137.902 18.4038M154.906 31.0394C147.827 26.1904 147.789 24.6176 142.513 17.6566M148.797 32.2576C147.618 30.3807 147.582 27.0695 141.386 21.3414M153.786 37.5313C147.184 27.9514 142.774 29.3766 136.776 23.0111M152.591 36.113C148.903 30.7435 143.479 26.9537 138.828 21.8223M147.833 33.0212C145.445 31.9815 142.438 26.7941 138.022 19.9413M149.66 38.7172C145.181 28.3746 143.527 23.7665 133.78 20.5818M146.617 37.18C142.998 33.8606 136.479 25.0823 133.969 23.6299M146.949 39.104C143.471 31.8659 137.354 29.4156 136.295 25.1659M146.86 40.3712C146.102 30.0232 140.26 24.4848 131.736 20.9854M149.534 39.0055C140.931 34.319 137.867 25.1614 134.618 19.9395M143.502 40.0017C144.467 31.4862 134.571 31.9531 134.274 20.1634M147.149 36.5352C138.777 37.5133 138.729 34.714 130.146 25.1346M141.057 40.5233C139.57 31.6086 130.751 31.5911 129.51 21.0697M144.745 38.0909C137.522 37.1702 136.124 32.1093 130.804 27.8985M144.077 39.6799C140.739 37.6394 132.825 25.9373 131.714 23.5237M140.076 39.6489C137.852 38.2154 131.309 28.0081 128.348 26.1667M138.829 43.5675C140.41 40.124 136.843 33.9318 129.234 29.1251M140.054 40.2895C136.667 41.9234 131.351 34.8591 127.438 27.7544M137.342 43.193C134.608 34.4485 132.913 31.338 125.493 29.1436M142.145 46.1587C134.992 41.0865 128.894 32.9591 124.897 24.9422M139.012 47.7561C133.523 39.4111 129.013 34.3433 125.118 28.919M140.485 44.2544C131.447 38.6325 128.726 31.4763 120.176 30.2427M136.222 47.857C130.866 44.2898 127.381 34.6236 124.108 30.1159M136.83 47.6504C131.027 40.3438 122.225 30.6322 122.818 31.6458M137.957 49.9674C133.377 46.2588 128.794 40.607 118.888 27.8582M132.503 45.9833C133.212 44.2991 126.013 41.688 120.518 31.5913M132 49.7822C131.477 44.6447 123.126 40.2232 120.06 31.3778M134.933 51.3524C130.288 42.5498 128.168 39.2118 121.123 32.0984M130.344 52.4149C127.656 41.6671 124.982 40.9653 120.1 27.9369M131.338 53.3992C128.775 43.5008 120.725 35.8714 118.359 29.8468M129.336 53.9495C128.2 48.3113 124.721 41.5975 114.339 33.3313M131.339 50.902C126.744 45.726 124.037 43.6257 114.988 31.9714M172.884 100.548C171.368 98.2553 171.322 98.1375 169.637 97.4479M133.97 54.9097C125.822 45.1747 117.26 38.9517 116.461 31.8767M171.488 101.201C170.111 98.6792 170.608 95.8539 166.425 95.2588M131.547 55.9597C126.895 48.9771 121.02 39.2926 116.593 31.6321M172.342 103.214C169.027 101.205 167.47 95.7226 167.765 94.96M133.335 51.0925C127.346 51.5796 121.54 43.1994 113.131 34.1099M175.312 106.02C172.925 100.408 169.65 98.4931 163.708 94.7031M131.221 50.54C126.134 50.5988 120.827 40.1365 113.827 30.5618M172.758 103.81C170.942 101.689 166.45 97.2915 162.232 97.5634M130.807 55.3365C126.271 51.6478 117.168 42.5915 112.287 33.2128M172.393 106.291C169.665 105.897 170.415 100.332 164.263 98.2072M128.192 53.6863C122.554 52.0249 114.778 40.0428 107.778 33.7756M172.44 108.221C167.855 106.412 169.381 99.1878 163.594 95.4745M127.232 52.7821C124.702 51.4612 117.919 46.0864 112.351 32.6588M172.779 104.676C169.461 102.247 164.974 102.702 159.789 95.2081M124.593 55.9977C121.998 47.6793 118.327 47.3428 108.191 38.2468M167.808 108.995C170.238 106.415 165.184 100.214 160.665 98.0923M125.883 53.5219C122.402 51.8485 118.281 44.55 104.218 36.2024M168.674 108.617C165.607 107.037 165.733 99.1452 162.471 96.0507M127.656 57.7093C115.87 50.9822 111.333 42.9877 110.024 37.761M166.365 110.66C165.556 104.487 161.209 99.5735 157.624 97.1804M127.278 60.216C120.009 47.8903 113.954 46.5053 102.522 35.2578M170.645 110.565C163.354 104.388 161.331 104.908 161.631 95.3275M126.904 56.7192C115.847 52.1072 116.164 46.0629 105.603 34.5652M171.722 112.449C166.325 105.099 157.889 101.014 159.413 97.5886M120.428 59.4165C118.735 53.1929 113.741 44.358 103.895 40.6123M170.347 112.225C161.812 110.011 157.963 98.9545 153.027 97.8484M123.02 58.2751C116.67 51.8921 115.013 50.0417 103.61 38.948M164.704 108.998C163.897 105.907 160.398 102.628 159.178 100.963M125.833 63.4374C116.476 52.9184 110.111 48.212 102.978 40.4072M169.685 114.426C161.624 110.714 160.371 109.577 153.558 101.136M121.141 57.8049C114.472 50.1553 107.707 45.2327 101.829 39.2061M166.909 113.635C160.101 106.175 153.835 99.5595 150.605 97.5826M123.873 63.1065C114.457 51.9439 105.003 43.7121 97.6845 40.4208M163.713 112.186C160.284 109.002 155.831 105.12 151.866 97.7245M121.022 61.8679C118.296 58.7379 110.805 47.6672 100.405 37.6404M161.937 117.394C157.08 107.523 156.055 106.811 152.458 103.134M120.551 63.9722C115.375 55.5364 105.238 48.6642 99.8261 37.6605M163.885 114.628C161.214 111.713 152.559 101.522 148.243 99.3478M118.168 66.8632C114.721 56.7073 106.322 46.0722 101.997 36.3914M163.728 115.845C157.034 108.06 155.016 108.095 152.526 103.62M117.188 67.0604C111.785 56.8301 106.719 48.0997 95.758 43.4748M160.978 119.298C154.412 110.418 153.205 103.393 148.285 99.9794M117.949 61.3986C112.735 57.4987 110.109 50.5941 99.0667 44.1432M163.255 114.377C157.545 113.388 156.071 109.987 150.113 104.064M118.582 63.8504C114.86 62.6008 105.269 55.6298 94.4886 37.5327M161.131 115.467C156.571 114.932 155.623 106.351 148.947 101.379M115.722 62.4171C111.556 55.5923 99.6697 50.32 94.9719 39.8482M163.242 116.001C154.676 116.205 152.799 111.739 142.472 97.6514M112.831 64.6338C112.984 63.687 107.966 59.4288 94.8588 43.9734M159.31 116.42C156.457 115.189 152.727 105.982 145.216 100.464M117.708 64.0444C106.991 58.3591 97.9223 49.1837 90.6425 45.8799M156.605 119.381C155.554 112.605 150.045 102.372 144.189 103.808M115.328 65.1427C107.451 63.5973 102.028 57.0148 92.3914 40.8876M158.579 123.146C150.623 114.644 147.25 108.944 139.984 100.2M113.795 68.5647C108.177 58.5901 100.582 47.804 93.8365 44.7327M155.81 117.746C152.207 115.045 147.907 105.695 140.504 98.7537M110.44 70.5918C110.371 63.8294 98.0716 52.0934 94.4311 42.346M155.075 123.715C152.543 118.505 144.893 107.214 139.557 96.5923M114.493 68.9715C107.19 63.6223 98.4265 47.9985 93.2246 46.2947M158.074 119.007C152.549 113.593 145.865 105.538 137.779 95.0113M116.482 70.3506C107.405 66.3258 100.381 54.3555 91.8962 41.2709M159.589 121.986C146.641 111.463 137.452 100.795 134.883 96.0245M111.354 74.2948C110.984 64.7564 105.264 62.0267 89.1033 46.7163M156.522 124.642C151.537 117.954 139.277 108.736 128.868 90.9732M112.665 77.1178C104.785 70.1154 103.175 61.5756 85.3539 44.0657M157.941 127.028C148.046 112.805 137.443 100.79 129.381 93.6131M110.341 73.5903C104.689 63.9102 98.2715 54.6414 84.6684 44.8507M154.434 127.158C147.551 115.942 135.209 104.428 126.99 89.4738M111.806 78.9862C101.969 68.8868 94.1039 56.586 86.4819 44.0721M153.279 126.691C140.616 110.709 130.301 98.1535 126.504 93.2321M112.894 75.3235C106.755 71.7974 101.131 67.9077 86.8626 47.8694M157.24 126.795C134.01 104.232 112.875 80.0205 85.284 45.6943M153.572 127.969C122.565 94.0449 96.4036 67.6721 84.7388 44.8139M155.975 129.243C128.139 96.4886 103.385 67.3178 85.1351 44.9777M154.353 132.252C132.63 108.4 113.683 85.1262 83.5866 50.2605M152.8 128.989C136.765 105.695 116.009 81.9457 84.441 49.7546M154.692 128.882C133.597 105.31 106.739 79.9145 83.7942 50.5447M155.602 131.415C138.959 113.552 119.507 98.3577 79.5513 48.4338M154.151 133.312C131.929 108.741 109.994 82.5628 80.1891 49.5653M150.726 134.452C127.687 103.856 99.6815 72.4156 79.4665 52.4305M152.305 136.039C126.264 106.829 104.888 84.924 76.0419 52.6076M150.725 134.233C122.692 104.437 95.0078 68.4015 80.2764 52.243M148.338 134.892C132.093 113.443 111.66 87.2564 77.7142 54.3688M151.221 138.477C122.364 103.783 89.1293 72.8713 78.9022 52.4187M153.106 141.124C133.475 122.365 119.117 99.9459 70.8658 50.9944M151.353 141.214C129.381 114.399 105.195 90.1384 74.365 53.1337M149.209 141.405C132.436 124.842 115.68 104.23 74.0912 53.4637M150.391 143.897C131.835 123.187 111.971 102.443 75.1687 54.4551M148.095 141.922C129.104 125.05 114.809 100.729 74.4892 55.2571M149.675 147.038C129.278 119.002 101.68 90.4947 71.4425 53.6391M145.814 142.38C121.293 112.939 91.127 78.7531 70.8372 55.2688M146.226 149.032C127.031 127.648 108.442 104.386 67.1791 56.1226M149.784 147.832C143.879 142.173 141.962 139.326 131.957 124.088M129.187 124.356C112.839 111.144 102.974 94.558 68.4467 53.3869M146.256 145.33C139.432 139.281 136.498 135.728 133.748 133.413M126.01 125.682C111.235 101.679 88.2498 85.5022 65.3851 51.4481M147.12 152.022C144.048 144.016 141.224 144.108 135.38 135.245M123.979 120.389C111.179 106.566 99.9204 92.568 66.4061 50.3894M149.243 146.759C139.456 143.681 141.175 141.471 129.521 133.205M123.211 122.476C96.0068 93.4422 78.733 68.354 62.2346 50.0508M143.364 152.073C143.849 145.619 139.129 138.783 134.913 131.811M118.967 118.856C96.7268 97.8854 81.2534 72.7271 60.1199 53.6295M147.677 147.213C145.099 149.369 140.549 142.907 136.517 135.081M114.997 118.455C91.5594 93.4049 68.5251 66.6348 57.2954 47.3683M144.796 153.588C143.307 147.891 139.547 144.723 130.681 138.615M114.3 113.569C101.244 100.2 82.7377 79.2014 53.6343 51.034M142.163 150.379C138.91 147.863 140.474 143.016 135.329 142.368M108.409 114.585C93.6926 87.6039 68.2972 65.0625 55.0429 50.8768M142.875 149.754C139.096 146.927 135.865 146.14 133.224 139.927M109.841 116.015C91.4318 97.6434 80.4269 75.5397 48.5579 49.8089M141.606 152.171C136.876 148.471 135.757 145.32 135.59 143.582M108.99 114.696C92.6919 88.1413 70.4291 69.0906 50.2851 47.5589M140.49 154.269C139.915 151.326 138.609 148.941 135.112 146.497M105.834 106.971C88.6225 97.0141 75.7544 75.5308 47.2105 45.2333M138.28 151.978C136.751 150.316 136.107 148.224 134.035 146.248M101.016 106.572C86.3694 88.5881 61.4359 67.2501 44.962 42.7229M101.161 109.193C83.9581 88.014 71.9409 67.8112 41.6596 42.1541M99.0201 108.203C77.4103 90.7645 59.4389 70.466 41.6429 42.1297M102.008 107.85C87.405 91.8224 67.8144 79.089 35.3927 36.3422M96.4034 106.308C80.8614 93.0586 66.5894 69.9674 35.7743 33.4574M96.95 109.604C76.8996 86.6578 56.0135 63.8318 30.7846 32.4717M95.7548 105.828C78.0749 93.9258 64.316 77.4781 26.8767 33.1119M91.0265 109.399C78.2915 89.225 66.7113 75.012 25.4009 31.8785M91.5176 107.397C71.5896 88.6223 59.3722 63.9953 26.4361 27.494M89.6421 106.77C69.2959 85.2192 47.5933 61.0378 22.9694 31.7443M95.2672 108.842C64.5647 75.2933 38.6118 46.6503 22.6468 29.7139M90.0651 109.882C71.9848 92.0061 54.3656 72.672 22.7059 28.7563M91.0305 114.13C70.2654 92.4044 52.4739 72.1232 20.1767 31.1862M92.5746 110.382C69.6138 90.4279 56.1346 74.4384 20.7003 29.3045M85.8112 113.531C60.4351 80.4141 30.5602 45.5253 16.4313 29.3885M87.3869 115.766C59.9861 82.353 34.2252 52.5009 17.9353 30.87M87.3734 113.414C74.5856 97.0274 55.863 79.0742 17.6373 31.8652M87.8778 116.796C61.5199 93.0835 39.5317 63.9584 15.4436 31.2381M87.3447 116.303C62.7982 88.5464 38.8335 63.8226 9.58865 26.3718M87.6988 119.416C69.2621 96.3125 48.6306 77.4408 8.04343 27.7306M83.3228 113.922C66.6434 95.736 50.0582 73.5747 10.4364 32.921M88.4383 118.291C58.2445 89.9914 31.2569 54.4911 8.95365 33.3336M86.5739 119.666C79.0218 107.266 67.928 102.357 49.5035 76.9854M45.4372 77.4479C33.6051 63.2677 22.4217 54.3275 11.1948 33.7832M86.3377 118.064C79.208 110.974 72.5808 103.543 56.5241 85.5283M44.2263 74.5599C36.4577 63.6943 21.8756 46.9623 5.27934 33.7332M83.0062 120.321C70.5558 106.507 63.7777 94.7664 54.6125 85.0927M42.3925 70.6026C36.5758 66.6337 24.9287 55.5334 10.7547 32.8955M83.2617 122.141C74.0053 109.237 66.9974 96.0512 51.6206 86.1677M42.1695 67.5149C26.878 55.36 15.3816 42.4793 5.9173 32.9517M82.6613 121.166C72.7642 112.266 64.6671 101.373 57.1293 87.8138M36.665 67.9152C29.4744 63.3929 22.2447 52.219 8.27928 33.3667M81.9075 126.138C72.1864 111.754 64.3797 100.993 51.7376 91.7687M37.0913 69.9187C22.2498 52.7711 14.0392 38.5653 3.0935 35.1866M80.0601 126.705C74.7456 119.395 66.1592 108.904 55.0165 92.0235M34.8066 69.5827C27.0837 60.8743 22.6216 55.2398 2.81394 39.0478M81.2378 127.804C70.3102 111.348 58.9598 102.855 51.9483 94.1561M30.821 65.2729C20.3407 58.244 18.2308 52.1142 3.89772 40.1749M79.6261 123.721C76.874 118.543 67.6953 109.655 56.8659 91.5968M29.3485 64.495C19.323 55.0881 8.89827 43.2546 2.14397 36.5111M80.1863 126.808C74.7801 114.851 63.144 105.504 54.5935 93.313M23.1704 62.8365C14.4494 55.427 11.4629 48.0867 3.90511 36.6188M82.2894 128.436C69.2851 121.553 66.1426 111.927 54.3409 92.7289M23.9578 61.5847C16.9987 52.5924 10.9117 41.7146 7.12001 36.8614M84.1769 128.004C73.403 118.257 58.0966 102.885 56.8518 100.215M21.8111 60.1667C12.7914 50.2683 8.86954 48.6905 0.998891 38.5616M79.4233 132.172C68.0833 117.613 63.6405 107.803 52.7021 96.8583M19.1018 56.9769C12.1598 55.2975 10.9501 50.6397 3.51275 39.4409M80.286 133.805C69.4807 123.989 66.6256 108.535 57.3979 98.033M16.1376 58.7577C12.5824 52.8434 4.18564 49.8053 4.71691 44.8667M78.5516 132.478C71.5061 120.459 64.2684 115.246 54.2224 101.453M11.774 53.4702C12.4761 51.8542 9.46333 48.5354 5.2557 43.8328M82.1232 132.305C71.1567 119.535 56.6659 111.615 56.2353 104.691M11.4388 52.1749C8.12317 51.3472 8.46474 49.7429 6.41831 48.0488M83.4664 133.462C72.8882 125.467 64.5611 115.253 56.8404 105.448M79.1571 135.797C71.1989 125.774 70.7067 122.82 50.4391 106.741M80.7353 136.577C70.2908 125.317 57.9152 112.667 50.984 104.796M77.2364 135.061C71.4923 130.026 66.2748 123.127 52.2419 106.429M82.4079 138.426C74.4555 129.857 67.8739 125.085 56.3193 113.151M81.2832 138.137C67.0135 127.941 63.7618 116.461 53.269 110.362M76.348 138.202C70.2109 131.269 60.5846 123.97 52.7564 110.337M81.737 140.742C68.0775 129.733 58.551 123.606 56.5303 116.646M79.3112 143.521C72.4578 131.766 64.7555 126.407 57.2957 113.282M80.3328 146.544C69.5504 134.376 60.7925 130.52 55.2714 119.135M80.0405 143.215C71.9449 139.096 65.632 133.584 56.0675 117.869M76.4907 146.358C73.5141 139.395 65.7614 132.459 54.9864 116.947M76.2346 150.42C71.7386 138.934 68.833 132.182 54.3519 124.102M74.8541 151.322C70.2832 136.789 57.4977 128.182 57.5128 118.949M79.8565 148.546C65.917 137.331 57.2652 125.815 51.7399 126.22M77.8838 147.542C68.6924 144.073 58.2199 132.465 52.9514 122.451M79.4471 147.447C73.192 148.879 69.8678 143.006 56.5045 125.692M73.5382 151.91C68.8336 146.703 63.629 139.559 51.3025 126.583M73.1289 156.631C68.5578 146.903 60.7069 136.354 56.5752 126.532M75.8138 156.404C65.2571 146.787 57.9511 140.244 52.5911 132.968M76.593 152.837C69.9929 147.296 63.9043 144.462 54.4688 132.414M76.9479 155.525C72.1716 153.892 64.1343 148.763 54.1403 131.706M72.2922 160.017C69.1522 149.581 65.1455 143.223 56.4569 131.393M72.7081 158.664C67.0885 148.77 59.9434 143.562 56.103 132.969M75.2696 156.824C68.8236 152.106 63.6236 146.79 54.8551 138.36M74.5841 163.979C71.7459 156.843 67.9286 148.931 52.7648 141.356M75.6996 159.633C65.2579 154.378 63.3796 145.855 58.1483 141.689M71.2976 161.969C67.8285 158.871 61.2859 147.695 53.9157 142.469M75.968 164.077C71.0149 158.025 64.4685 148.784 56.1758 142.883M74.3919 163.452C70.7091 161.48 64.5361 154.411 56.5834 146.507M70.4709 166.688C66.9064 156.624 56.0885 153.677 54.296 143.737M71.5059 165.59C64.6405 163.014 64.1145 154.65 52.8675 146.575M73.6551 168.361C62.7195 161.863 57.9701 153.379 57.4628 146.338M67.6423 166.714C61.3188 163.137 54.8758 152.275 56.3335 149.297M69.957 168.43C65.1729 164.396 57.0617 154.414 57.2779 149.327M65.9273 169.843C65.6416 161.738 59.2316 157.967 56.7141 149.407M67.5591 171.416C62.2533 164.864 55.9552 157.931 53.8822 152.092M70.6679 166.395C67.7764 166.374 59.341 163.287 55.5992 158.125M65.7969 170.071C63.2284 165.669 61.3189 158.866 56.5702 154.786M63.7293 166.198C65.7203 169.269 59.1788 163.203 54.7923 158.851M62.0969 170.594C62.3223 166.706 57.4207 160.837 57.222 159.444M61.9063 166.969C61.5412 165.326 60.9748 164.384 53.8162 160.057M60.8884 169.84C60.2065 166.114 58.5784 165.023 54.871 163.264M153.554 24.4854V24.4854ZM173.112 98.8998V98.8998Z" stroke="url(#paint0_linear_1619_16858)" stroke-width="0.7" stroke-linecap="round"/>
<path d="M225.988 19.9731C249.001 8.20893 275.071 1.57324 302.691 1.57324C395.887 1.57324 471.438 77.1237 471.438 170.32C471.438 263.516 395.887 339.067 302.691 339.067C224.523 339.067 158.768 285.917 139.595 213.785" stroke="white" stroke-width="3" stroke-linecap="round"/>
<path d="M388.303 119.183L386.804 119.245L388.303 119.183ZM370.405 189.494L370.084 190.959L370.405 189.494ZM317.992 156.256H316.492C316.492 156.059 316.53 155.865 316.605 155.683L317.992 156.256ZM317.992 108.956L317.159 110.204L317.992 108.956ZM292.424 259.805L293.006 258.423L292.424 259.805ZM200.38 240.63L199.42 239.477L200.38 240.63ZM219.008 161.488C218.237 161.185 217.857 160.314 218.16 159.543C218.462 158.772 219.333 158.392 220.104 158.695L219.008 161.488ZM452.134 93.8339C441.362 93.2002 425.31 93.778 412.139 97.5187C405.549 99.3901 399.807 102.019 395.798 105.575C391.837 109.089 389.567 113.498 389.801 119.12L386.804 119.245C386.527 112.594 389.274 107.352 393.807 103.331C398.291 99.3531 404.518 96.5646 411.319 94.6328C424.93 90.7672 441.349 90.1943 452.31 90.8391L452.134 93.8339ZM389.801 119.12C390.113 126.591 392.378 135.376 394.862 144.329C397.322 153.197 400.001 162.243 400.977 169.97C401.942 177.615 401.334 184.616 396.474 188.812C391.653 192.973 383.241 193.848 370.084 190.959L370.727 188.029C383.776 190.894 390.865 189.691 394.513 186.541C398.122 183.426 398.952 177.883 398 170.346C397.059 162.893 394.465 154.121 391.971 145.131C389.501 136.227 387.132 127.115 386.804 119.245L389.801 119.12ZM370.084 190.959C348.97 186.325 335.634 179.751 327.541 173.314C319.491 166.912 316.492 160.516 316.492 156.256H319.492C319.492 159.24 321.733 164.862 329.408 170.966C337.039 177.036 349.909 183.46 370.727 188.029L370.084 190.959ZM316.605 155.683C319.125 149.594 322.142 139.963 323.018 130.896C323.457 126.362 323.351 122.052 322.434 118.429C321.52 114.818 319.83 111.984 317.159 110.204L318.824 107.708C322.29 110.019 324.306 113.599 325.342 117.693C326.375 121.774 326.461 126.461 326.004 131.184C325.091 140.633 321.972 150.56 319.378 156.83L316.605 155.683ZM317.159 110.204C309.557 105.136 300.186 99.3167 293.251 93.8333C289.786 91.0935 286.814 88.3512 284.95 85.7374C283.12 83.1704 282.068 80.2928 283.412 77.604L286.095 78.9457C285.522 80.0921 285.748 81.6889 287.393 83.9956C289.005 86.2557 291.706 88.7867 295.112 91.4801C301.92 96.8629 311.086 102.549 318.824 107.708L317.159 110.204ZM283.412 77.604C284.501 75.4261 286.684 73.1058 289.084 70.7846C291.592 68.3598 294.304 65.9634 296.956 63.3118C299.566 60.7015 301.89 58.0571 303.408 55.4156C304.921 52.7818 305.55 50.2966 305.022 47.919L307.95 47.2682C308.7 50.6434 307.732 53.9109 306.009 56.91C304.29 59.9014 301.74 62.7701 299.077 65.4331C296.456 68.0548 293.496 70.692 291.169 72.9413C288.736 75.2942 286.924 77.2884 286.095 78.9457L283.412 77.604ZM305.022 47.919C304.365 44.9615 303.871 40.5299 303.222 35.7716C302.564 30.9492 301.736 25.678 300.405 20.825C299.069 15.9502 297.263 11.6431 294.734 8.65336C292.262 5.7305 289.109 4.06394 284.853 4.34767L284.654 1.35431C289.986 0.998849 294.024 3.16734 297.025 6.71615C299.969 10.1981 301.919 14.9993 303.299 20.0317C304.684 25.086 305.534 30.5211 306.195 35.3663C306.864 40.2757 307.329 44.473 307.95 47.2682L305.022 47.919ZM305.2 337.015C310.866 327.571 316.937 312.438 316.843 297.751C316.796 290.431 315.22 283.276 311.356 276.981C307.499 270.699 301.303 265.171 291.842 261.188L293.006 258.423C302.977 262.621 309.692 268.535 313.913 275.412C318.126 282.276 319.794 289.999 319.843 297.732C319.941 313.151 313.611 328.827 307.772 338.559L305.2 337.015ZM291.842 261.188C267.569 250.968 257.696 244.792 252.817 239.577C250.333 236.921 249.174 234.548 248.096 232.209C247.031 229.899 246.057 227.653 243.94 224.932L246.308 223.09C248.665 226.121 249.767 228.669 250.82 230.953C251.86 233.208 252.858 235.229 255.008 237.527C259.397 242.22 268.701 248.189 293.006 258.423L291.842 261.188ZM243.94 224.932C241.876 222.279 239.707 220.938 237.341 220.536C234.93 220.125 232.089 220.65 228.634 222.185C221.672 225.28 212.891 232.157 201.34 241.782L199.42 239.477C210.881 229.927 219.996 222.742 227.416 219.444C231.152 217.783 234.624 217.03 237.845 217.578C241.112 218.134 243.896 219.99 246.308 223.09L243.94 224.932ZM201.34 241.782C182.497 257.485 162.865 256.203 156.026 253.924L156.974 251.077C162.919 253.059 181.446 254.455 199.42 239.477L201.34 241.782ZM220.104 158.695C289.564 185.968 384.493 218.413 445.772 226.438C461.087 228.443 474.2 228.909 484.245 227.429C494.349 225.941 500.96 222.549 503.882 217.223C506.793 211.916 506.366 204.087 500.879 192.895C495.414 181.749 485.092 167.617 468.895 150.016L471.102 147.985C487.376 165.668 497.921 180.049 503.573 191.575C509.201 203.055 510.138 212.056 506.512 218.666C502.896 225.257 495.068 228.868 484.682 230.397C474.237 231.935 460.809 231.432 445.383 229.413C383.7 221.335 288.466 188.759 219.008 161.488L220.104 158.695Z" fill="white"/>
<path d="M44.6083 60.1354C40.6936 66.6638 42.7978 75.0715 49.3041 78.8977L85.4315 100.561C89.7339 103.141 92.4039 107.755 92.4967 112.771L93.8435 185.488C93.904 188.755 95.6374 191.763 98.4342 193.453V193.453C103.944 196.784 111.101 193.795 112.606 187.536L122.812 145.099C125.109 135.547 136.017 130.97 144.443 136.022L164.338 147.953C168.279 150.316 170.872 154.401 171.333 158.972L172.504 170.587C172.744 172.963 174.097 175.084 176.151 176.303V176.303C180.442 178.849 185.977 176.589 187.261 171.768L192.161 153.368C192.863 150.732 194.292 148.347 196.284 146.484L210.278 133.399C213.934 129.981 213.329 124.021 209.061 121.407V121.407C206.995 120.142 204.449 119.941 202.21 120.867L191.233 125.407C186.977 127.168 182.139 126.809 178.189 124.44L158.586 112.685C150.177 107.643 149.06 95.8962 156.369 89.3601L189.056 60.1276C193.857 55.8345 193.109 48.1157 187.574 44.8232V44.8232C184.759 43.1485 181.281 43.036 178.363 44.5253L113.596 77.5843C109.128 79.865 103.8 79.6833 99.4981 77.1034L63.3706 55.4396C57.1299 51.5469 48.2797 53.7619 44.6083 60.1354Z" stroke="white" stroke-width="3"/>
<defs>
<linearGradient id="paint0_linear_1619_16858" x1="174.992" y1="131" x2="40.3686" y2="22.9695" gradientUnits="userSpaceOnUse">
<stop offset="0.0104167" stop-color="#48DCA6"/>
<stop offset="0.885417" stop-color="#3DA7CD"/>
<stop offset="0.99446" stop-color="#3DA7CD"/>
</linearGradient>
</defs>
</svg>
