<svg width="47" height="46" viewBox="0 0 47 46" fill="none" xmlns="http://www.w3.org/2000/svg">
<g clip-path="url(#clip0_471_2112)">
<circle cx="23.8102" cy="22.9367" r="22.4367" stroke="white"/>
<path d="M14.6357 28.9809C16.6328 29.0933 18.3792 28.6264 20.0824 27.3901C18.3619 27.0962 17.1689 26.3094 16.5204 24.6841C17.0219 24.6149 17.4628 24.7446 17.9815 24.5371C16.287 23.7936 15.1891 22.6783 15.1458 20.7504C15.6818 20.7936 16.0882 21.1481 16.7279 21.0962C15.1718 19.5746 14.6963 17.9147 15.6732 15.9003C17.2985 17.7677 19.2005 19.0386 21.5262 19.6352C21.6558 19.6697 21.7769 19.7043 21.9065 19.7303C22.5031 19.8686 23.212 20.1625 23.5751 20.1193C24.1976 20.0415 23.5751 19.3239 23.7307 18.3902C24.2235 15.4854 27.4223 14.1626 29.7912 15.8658C30.4828 16.3672 31.0275 16.3585 31.7105 16.056C32.0649 15.9003 32.428 15.7447 32.8517 15.5632C32.7566 16.3931 32.1168 16.8513 31.6067 17.4652C32.186 17.5948 32.6528 17.4306 33.1888 17.2577C33.0073 17.8542 32.5577 18.1914 32.1514 18.5199C31.7277 18.8571 31.5635 19.2115 31.5462 19.7648C31.2868 28.1423 21.7682 34.6177 15.2582 29.465C14.6271 28.9636 15.2409 29.465 14.6357 28.9809Z" fill="white"/>
</g>
<defs>
<clipPath id="clip0_471_2112">
<rect width="45.8734" height="45.8734" fill="white" transform="translate(0.873535)"/>
</clipPath>
</defs>
</svg>
