<svg width="515" height="1058" viewBox="0 0 515 1058" fill="none" xmlns="http://www.w3.org/2000/svg">
<path opacity="0.5" d="M-407.7 56.6374C-400.477 48.1293 -399.759 46.2843 -390.721 38.0363M-408.815 68.1541C-397.969 49.0759 -388.105 29.2081 -377.775 19.712M-409.491 71.9597C-402.208 55.6945 -389.412 36.0343 -370.243 16.7102M-412.957 81.1249C-391.572 55.1162 -374.518 35.2156 -365.99 15.4251M-412.159 88.542C-398.575 63.0312 -380.064 43.0641 -351.516 6.21362M-413.551 90.6156C-393.958 67.8055 -375.356 43.621 -350.571 6.2335M-410.864 96.6914C-394.424 65.3241 -366.228 37.6517 -341.175 1.00254M-412.861 102.488C-388.367 65.8242 -366.174 34.7299 -337.418 2.6839M-415.451 108.209C-382.873 74.1221 -360.071 33.4204 -335.717 5.76139M-411.015 112.435C-376.33 74.5257 -351.975 30.1427 -330.855 1.86819M-407.328 120.182C-387.758 88.0654 -361.554 48.7762 -327.767 1.18769M-408.199 123.097C-385.223 90.4597 -366.939 65.8969 -318.785 5.88306M-408.181 126.59C-390.716 98.6552 -368.985 72.9497 -317.143 3.27386M-403.238 126.872C-375.494 87.4147 -344.494 47.3312 -312.548 4.8861M-405.414 133.716C-384.001 103.984 -363.651 76.2638 -310.704 3.22905M-397.604 138.769C-380.899 106.265 -363.062 86.0399 -304.381 6.61166M-401.977 137.584C-368.903 95.7953 -338.469 51.62 -300.904 4.8417M-395.553 141.944C-358.805 90.7891 -323.272 35.0674 -301.134 8.21258M-393.342 143.446C-372.676 110.513 -345.298 78.0081 -296.578 4.7666M-390.09 145.496C-375.283 116.543 -349.424 86.2939 -293.381 10.6257M-388.691 147.915C-365.251 111.375 -342.352 74.7972 -291.567 10.2981M-390.585 156.786C-359.901 110.795 -328.113 69.9979 -287.459 8.27821M-389.306 154.3C-362.263 120.974 -336.541 82.3454 -286.205 13.0232M-385.114 160.299C-357.332 120.817 -327.535 83.8768 -277.28 12.067M-380.426 159.363C-353.614 128.496 -327.344 88.7269 -277.666 18.6312M-382.683 163.457C-353.706 123.898 -323.518 89.0184 -273.939 16.0913M-374.955 168.671C-337.283 111.503 -298.627 60.5749 -271.918 21.7644M-375.021 168.753C-347.047 136.411 -319.703 99.0923 -270.991 20.5755M-371.156 172.897C-351.482 141.629 -325.854 110.069 -268.289 23.9745M-369.865 174.71C-336.108 127.284 -309.133 83.2311 -262.312 23.3651M-369.614 180.255C-338.83 137.312 -307.64 92.8161 -258.964 28.5727M-363.576 181.732C-330.79 122.485 -288.141 70.2438 -257.1 33.4475M-366.037 181.366C-340.029 151.527 -319.177 117.596 -255.055 36.039M-359.121 185.789C-327.938 141.33 -291.914 93.0079 -253.178 34.7902M-361.654 186.596C-329.879 141.848 -297.87 100.959 -251.891 37.7244M-355.557 193.058C-321.816 139.272 -284.504 91.4728 -248.597 43.8899M-351.328 195.282C-332.181 165.205 -308.764 131.288 -244.611 44.9849M-350.123 198.037C-317.006 148.479 -281.757 101.028 -244.595 49.2889M-348.475 196.913C-316.469 156.537 -286.124 115.108 -241.134 50.0807M-344.713 197.874C-314.402 157.365 -281.301 111.092 -238.261 56.1073M-341.961 203.325C-305.354 142.482 -265.954 85.5649 -237.938 59.4926M-339.182 206.243C-310.087 157.965 -275.307 113.068 -234.83 58.7734M-335.744 206.307C-302.212 159.007 -270.559 114.491 -236.579 64.0862M-338.936 212.424C-311.501 182.289 -289.272 148.638 -234.272 66.2718M-335.801 210.156C-301.743 164.769 -272.387 122.876 -229.671 69.173M-331.025 216.558C-299.812 170.363 -273.758 127.308 -223.624 70.5461M-330.418 214.122C-286.575 161.013 -246.544 102.805 -224.659 70.7854M-324.061 221.913C-301.962 190.612 -276.886 159.757 -223.925 73.1789M-320.947 222.316C-290.568 176.838 -258.903 129.9 -216.414 79.2142M-322.733 222.32C-286.204 176.667 -257.599 134.471 -216.115 77.2616M-318.585 224.85C-295.852 195.772 -273.132 164.531 -211.845 81.9498M-316.07 228.788C-285.035 186.767 -254.243 145.284 -211.122 84.1701M-310.103 232.457C-292.903 203.183 -274.536 174.864 -206.086 87.779M-313.118 230.845C-277.66 192.371 -249.747 151.015 -206.795 89.926M-310.099 235.714C-270.964 190.771 -240.706 140.226 -203.281 91.4198M-306.611 238.898C-271.29 192 -238.77 139.942 -201.928 94.2186M-300.364 237.875C-276.551 204.247 -250.712 171.176 -200.446 96.6219M-298.69 243.14C-267.976 203.073 -239.959 163.136 -196.027 94.5116M-298.317 244.226C-270.249 206.931 -246.231 165.315 -195.105 97.9265M-294.417 244.863C-264.08 207.513 -232.63 166.178 -191.339 102.223M-294.31 245.804C-264.555 208.949 -240.328 169.369 -185.502 103.71M-289.827 250.734C-255.823 195.948 -213.7 141.027 -188.159 104.14M-283.709 255.043C-251.401 201.13 -212.557 149.795 -184.996 104.934M-282.281 256.273C-261.353 225.108 -241.427 190.851 -179.72 110.42M-277.923 255.91C-248.889 214.474 -222.638 172.973 -177.228 109.971M-277.299 255.274C-245.912 214.025 -214.371 175.968 -171.445 113.083M-278.102 259.063C-243.166 216.089 -204.559 171.05 -173.733 114.717M-272.465 264.364C-249.777 226.307 -218.225 190.045 -167.364 115.908M-268.696 266.346C-241.596 228.41 -215.452 188.594 -167.166 122.27M-264.008 264.79C-224.97 212.151 -188.896 160.822 -165.883 119.999M-265.743 268.982C-242.011 237.534 -219.455 202.251 -157.749 121.884M-260.156 269.513C-223.591 221.885 -193.668 169.695 -154.307 125.061M-257.947 271.066C-236.733 237.571 -210.43 207.482 -152.359 129.247M-253.591 272.501C-223.915 231.014 -193.435 187.459 -152.292 129.894M-253.423 278.808C-218.59 225.647 -182.542 175.864 -148.961 134.552M-250.232 276.392C-224.344 247.082 -201.871 216.015 -146.851 131.825M-244.303 277.043C-221.982 245.226 -200.104 209.92 -145.726 136.113M-245.769 280.018C-204.741 224.884 -161.765 170.375 -140.458 136.13M-243.327 281.517C-213.122 237.398 -181.932 197.536 -134.964 138.913M-239.56 287.024C-215.497 245.137 -188.268 211.582 -136.195 141.144M-238.003 287.684C-211.151 250.617 -182.33 217.284 -130.684 142.717M-232.22 291.671C-206.289 251.884 -178.444 212.739 -126.293 148.258M-232.2 293.018C-187.988 237.925 -147.475 182.885 -127.078 145.607M-227.243 292.452C-200.84 251.416 -171.475 207.639 -123.547 149.828M-221.657 293.842C-181.644 237.394 -141.727 177.519 -123.683 148.546M-220.372 295.008C-192.438 250.255 -158.477 210.116 -119.523 153.769M-219.213 298.388C-181.114 248.12 -142.963 200.534 -114.015 151.958M-214.78 302.478C-184.513 256.389 -152.767 214.501 -113.092 154.249M-213.124 303.53C-188.029 272.524 -158.929 236.96 -111.336 158.328M-209.064 302.163C-188.873 273.56 -163.558 238.729 -105.665 158.753M-205.192 307.526C-184.414 273.143 -166.281 242.888 -102.814 159.141M-200.863 305.565C-173.445 264.454 -140.411 222.633 -98.286 164.79M-203.186 307.085C-169.04 267.938 -139.904 221.563 -94.1555 167.089M-194.874 310.903C-169.291 269.212 -136.529 223.41 -93.4997 165.234M-194.48 313.734C-154.468 260.784 -115.808 207.787 -89.3732 171.164M-190.675 312.041C-155.157 258.665 -116.009 204.911 -90.3816 168.13M-186.152 315.642C-162.421 282.411 -137.222 247.942 -82.363 173.799M-188.294 315.89C-163.405 286.004 -142.18 254.516 -84.4658 174.341M-186.122 318.088C-140.014 262.179 -105.325 211.18 -79.3975 177.748M-181.533 323.333C-151.013 284.721 -120.141 242.492 -76.353 178.043M-177.155 323.35C-151.763 294.029 -133.821 262.055 -73.2536 181.557M-175.046 325C-144.868 276.96 -108.103 230.023 -69.327 179.597M-169.521 327.063C-145.664 289.488 -115.118 247.789 -69.7817 184.474M-166.673 326.22C-139.537 293.598 -112.983 254.425 -62.9045 186.8M-165.432 329.519C-126.263 284.518 -96.5864 237.352 -59.5335 185.863M-162.814 331.69C-120.471 280.518 -79.119 223.752 -61.4441 187.958M-162.749 332.562C-134.765 303.66 -113.515 277.816 -56.5816 188.813M-156.963 335.737C-133.331 308.663 -111.552 275.355 -54.0478 188.993M-153.993 338.061C-121.13 287.482 -87.4618 241.304 -52.5638 191.648M-152.023 340.768C-111.323 282.366 -72.8847 224.707 -47.2848 193.597M-148.479 340.421C-119.735 302.32 -96.6009 266.941 -41.3872 195.921M-147.624 343.311C-112.96 300.759 -78.481 250.013 -38.2445 196.449M-140.278 343.464C-114.221 309.343 -81.2543 264.567 -36.2867 200.272M-141.479 345.593C-106.125 304.724 -73.2396 255.423 -33.5574 201.431M-137.016 345.866C-101.741 300.301 -64.711 248.602 -31.5067 202.947M-135.34 351.296C-106.893 312.192 -78.6066 278.493 -28.3586 208.294M-129.847 353.709C-96.4298 306.894 -62.9219 255.621 -26.7333 204.483M-126.541 353.182C-102.058 318.822 -78.5911 287.937 -25.0585 211.369M-123.372 353.156C-102.358 322.977 -76.9718 286.341 -18.7862 210.978M-121.027 354.538C-91.6818 319.678 -64.0919 282.051 -20.0923 213.629M-119.985 362.466C-80.3182 309.853 -39.5381 256.838 -15.7656 215.747M-118.264 361.372C-70.6981 302.603 -33.3052 247.632 -9.24904 213.325M-113.493 362.825C-88.8081 326.765 -62.5688 291.899 -8.15332 221.343M-109.576 367.341C-76.5478 320.35 -47.8882 278.967 -2.16959 221.603M-103.959 368.203C-72.7127 325.016 -38.1031 274.385 -2.07874 218.671M-101.984 366.491C-81.5899 335.144 -57.2195 301.729 1.65999 225.187M-101.226 367.248C-70.9164 333.901 -45.6494 294.533 2.80592 224.001M-95.4226 370.399C-58.5415 323.438 -25.5045 274.986 6.98791 227.788M-96.0929 375.56C-62.1945 319.935 -27.931 272.198 6.98587 228.053M-89.7543 372.526C-71.5026 345.87 -47.9109 315.299 15.2758 230.388M-86.4437 375.553C-53.3095 322.29 -11.7372 271.456 13.0951 231.571M-85.0246 381.456C-62.9622 346.908 -38.6832 311.334 15.4489 234.486M-84.46 378.385C-56.0498 334.439 -21.2151 292.187 19.3788 237.108M-77.3633 379.202C-48.9866 340.553 -18.3791 300.99 22.4285 235.536M-76.33 383.212C-45.9993 338.526 -15.3406 301.579 27.5699 236.702M-75.2767 383.678C-47.7251 349.381 -16.8806 309.98 27.2772 238.255M-70.9175 387.692C-48.458 358.864 -27.8894 323.891 34.782 241.549M-69.8212 390.866C-43.8488 352.172 -12.4346 316.13 35.333 245.484M-67.417 390.176C-27.4648 338.757 7.15466 292.072 36.9275 245.751M-60.3601 392.199C-30.5625 341.371 9.63737 293.156 43.6549 247.503M-418.288 894.051C-412.436 878.369 -399.82 863.65 -390.822 859.776M-61.0646 395.5C-30.475 351.794 2.42847 313.842 42.3946 252.456M-421.982 905.182C-413.395 889.247 -395.722 872.721 -382.922 854.517M-58.7361 399.314C-26.123 347.871 11.1211 305.028 45.2393 252.451M-422.882 913.503C-409.454 896.118 -398.338 876.84 -374.245 848.316M-51.6495 398.915C-12.0264 345.391 29.9324 284.059 48.5788 253.537M-423.072 918.513C-407.072 898.462 -389.449 869.193 -372.996 847.07M-49.4817 400.803C-16.7775 354.831 10.8552 314.698 53.4535 258.39M-425.531 931.541C-408.789 899.228 -385.391 877.518 -363.666 847.82M-47.5038 403.326C-14.3941 356.819 19.738 307.789 55.4182 258.426M-425.053 933.732C-400.795 904.412 -377.296 873.577 -357.974 842.112M-43.2097 405.119C-8.13502 356.236 28.3128 304.648 57.2439 258.056M-423.729 941.623C-395.676 901.958 -370.393 869.219 -356.413 845.414M-43.4023 407.459C-4.13452 346.241 38.4301 292.869 64.4722 261.56M-426.484 942.916C-399.151 910.97 -372.339 877.315 -349.28 845.145M-36.8625 405.204C-1.11557 352.173 37.4592 299.389 66.4783 264.773M-421.647 952.259C-406.784 923.253 -382.802 894.975 -346.032 844.662M-38.8008 407.082C0.749161 357.468 32.6446 312.032 70.8041 265.863M-422.492 957.478C-404.994 929.537 -381.88 899.71 -339.742 840.471M-35.7485 410.959C0.356463 360.676 33.1681 316.755 73.7426 266.351M-423.825 956.69C-401.123 930.701 -379.663 900.751 -338.364 840.484M-29.0835 409.717C3.82253 365.53 37.441 320.136 75.1244 268.354M-417.22 964.118C-391.322 919.118 -356.363 870.603 -332.908 840.408M-24.0269 411.843C8.81965 370.096 43.034 326.341 78.2554 267.076M-418.397 966.323C-396.221 931.555 -371.334 904.409 -330.904 841.437M-26.9266 416.633C12.1323 366.149 43.4252 315.496 82.2799 270.545M-414.047 969.71C-388.997 928.939 -359.083 895.101 -325.781 842.468M-22.6277 415.696C1.16591 388.019 29.1686 358.849 83.1242 271.251M-414.974 973.318C-392.228 937.111 -365.239 909.018 -323.392 846.18M-15.5086 416.896C13.6435 381.125 40.2007 339.661 86.1972 276.605M-413.944 976.557C-390.409 937.382 -364.125 904.589 -319.734 843.251M-16.8773 423.048C20.1889 369.377 56.342 322.427 88.9596 275.173M-410.609 976.94C-372.451 927.637 -336.775 876.675 -311.912 843.076M-14.9364 422.143C19.0069 376.627 52.4384 331.453 89.6899 276.357M-409.385 981.453C-381.223 944.119 -348.775 902.493 -311.834 844.671M-11.9101 425.649C24.1418 368.94 64.6062 317.176 95.6445 282.695M-409.053 986.69C-370.243 927.755 -329.879 877.01 -310.01 843.746M-4.9768 429.633C33.2829 375.492 65.7585 323.726 96.4321 280.285M-406.642 985.872C-380.015 955.486 -357.371 926.163 -305.359 846.196M-4.45647 428.369C32.8023 375.387 74.8278 324.53 98.7062 283.224M-404.673 992.41C-378.579 956.429 -349.646 918.575 -302.93 851.005M-0.539854 432.524C31.3795 382.092 65.7874 337.675 102.819 286.83M-400.534 994.141C-360.898 938.524 -321.429 881.522 -294.11 852.153M4.46639 434.04C35.5339 384.413 72.2399 335.257 105.229 288.869M-396.236 996.31C-364.402 950.824 -334.548 911.613 -294.654 850.677M7.71034 431.311C50.5189 376.594 86.6525 316.173 107.859 290.505M-392.019 996.818C-357.455 942.639 -316.243 892.771 -290.081 852.433M11.0626 434.91C44.9927 387.616 79.4498 335.045 115.06 287.405M-391.032 1001.01C-367.827 964.697 -345.418 934.476 -285.696 850.958M9.49406 435.991C48.7608 391.114 79.1961 341.373 115.605 292.853M-387.04 1000.52C-359.174 961.432 -328.967 922.2 -281.166 854.283M16.6106 437.241C55.8545 388.448 94.947 332.602 120.77 293.682M-384.651 1004.8C-358.578 967.013 -334.299 930.25 -277.621 854.368M18.6408 442.779C38.0008 403.763 68.9945 371.343 123.123 293.709M-385.663 1006.35C-348.119 963.433 -317.013 916.569 -277.578 855.701M21.1319 445.235C57.586 390.057 98.8163 332.669 122.093 298.363M-379.28 1009.64C-347.407 961.33 -318.017 918.356 -270.78 855.102M23.011 442.706C47.6439 407.084 76.3572 372.336 127.481 297.542M-380.673 1008.48C-355.338 969.423 -328.861 933.524 -269.158 855.986M25.8591 447.821C48.4586 411.719 73.6194 381.183 130.305 298.523M-375.285 1012.01C-342.505 967.803 -316.046 923.384 -267.453 858.697M26.1112 447.61C61.8678 407.92 86.6863 369.61 131.42 304.614M-371.337 1014.92C-336.964 966.932 -310.469 924.618 -258.642 860.49M33.5582 452.09C60.6288 407.225 89.0996 366.246 134.312 306.702M-367.108 1010.68C-328.006 961.324 -290.391 905.648 -259.784 860.494M34.6496 450.773C58.1498 413.576 87.3644 374.296 139.338 307.383M-365.756 1017.57C-333.209 976.729 -307.833 932.907 -252.954 861.804M39.9417 450.96C70.251 414.733 99.6154 368.995 140.889 307.137M-357.998 1015.34C-337.625 979.65 -312.613 944.117 -249.042 863.073M40.6871 453.067C77.7692 402.323 116.319 343.015 147.79 313.102M-357.628 1019.43C-319.779 959.455 -274.533 903.906 -243.304 862.806M44.6909 456.553C79.6222 407.342 107.882 364.041 146.64 309.84M-357.15 1019.72C-324.033 970.656 -294.186 932.454 -241.177 859.249M48.4713 455.985C66.8473 425.413 93.4405 392.789 149.596 314.314M-352.755 1019.75C-317.154 977.169 -289.176 930.336 -236.777 863.038M50.1132 460.976C89.4312 405.316 135.163 345.274 152.261 313.194M-346.738 1019.9C-318.606 978.924 -286.661 932.457 -234.638 866.279M51.978 463.691C80.1806 415.517 114.324 373.359 155.013 315.958M-344.391 1019.87C-318.78 987.616 -291.025 943.827 -232.649 863.667M52.9241 463.702C99.0521 401.821 138.283 345.99 160.482 320.4M-341.097 1022.28C-315.063 990.38 -291.815 959.191 -229.283 867.98M60.8671 466.19C102.305 408.825 140.515 352.981 164.904 319.681M-337.011 1025.48C-315.203 986.127 -288.154 957.548 -224.726 866.55M59.3196 470.402C100.602 416.538 138.415 361.495 167.739 324.95M-334.653 1024.94C-292.266 961.254 -244.799 900.968 -222.182 867.931M64.7403 471.679C85.0445 440.955 104.933 407.945 169.247 322.961M-326.797 1026.65C-294.799 977.211 -256.425 925.79 -219.271 865.145M66.9793 471.59C92.5568 437.926 113.721 407.74 169.015 323.957M-324.452 1027.72C-295.473 989.41 -263.905 947.738 -210.638 870.774M67.6371 475.551C92.9236 443.114 113.14 409.487 173.825 326.182M-324.551 1027.64C-292.868 991.207 -265.593 952.478 -209.964 867.185M71.2063 472.896C95.1007 441.41 115.299 410.205 178.475 326.936M-322.16 1026.21C-292.632 987.307 -265.484 948.126 -203.765 870.506M75.6574 477.854C108.128 429.069 146.478 386.482 178.744 329.79M-313.419 1029.44C-290.924 989.308 -265.389 957.14 -200.452 869.451M78.0424 478.978C116.431 420.536 161.815 363.754 180.752 334.113M-313.843 1028.3C-280.633 982.935 -246.555 934.545 -199.609 869.56M84.2652 477.837C105.598 447.222 127.131 409.156 187.339 332.921M-310.561 1028.71C-283.246 996.655 -255.832 958.797 -194.313 872.439M85.5757 480.68C118.932 430.218 159.784 382.19 188.535 339.677M-307.55 1032.3C-268.569 983.322 -234.964 936.603 -191.636 872.94M86.3145 485.893C127.318 425.386 172.549 370.415 190.779 340.405M-302.444 1030.06C-275.083 990.279 -244.115 951.808 -186.281 874.422M90.023 483.961C129.601 428.467 175.687 373.013 193.857 337.521M-300.073 1033.87C-275.18 998.401 -247.559 960.035 -181.143 869.978M95.3693 488.688C114.869 453.465 140.863 418.883 194.864 340.041M-295.019 1035.81C-263.434 991.775 -234.661 954.806 -177.648 872.94M93.6731 486.954C136.03 440.275 174.331 384.135 203.475 345.92M-289.192 1036.74C-245.572 975.677 -206.199 917.649 -172.398 873.282M102.181 491.691C133.078 446.982 170.197 396.825 203.321 345.161M-289.963 1037.46C-249.436 988.604 -217.748 935.452 -169.467 876.648M101.466 490.931C133.521 448.059 167.641 407.549 208.767 347.964M-283.668 1038.81C-252.464 991.687 -226.035 953.619 -167.424 872.732M106.785 494.607C135.843 457.693 158.034 417.502 212.795 351.431M-278.968 1038.8C-243.869 988.435 -209.503 934.16 -161.019 872.289M107.659 493.779C142.634 449.468 178.3 400.715 212.255 349.867M-277.277 1037.48C-243.729 996.05 -215.685 951.792 -161.641 873.003M109.239 497.588C149.185 441.829 184.915 389.404 216.15 352.411M-274.873 1038.38C-249.649 999.637 -220.581 966.008 -153.65 876.477M115.445 500.516C139.981 469.481 163.104 433.015 216.676 352.858M-268.571 1037.34C-232.609 994.556 -204.501 952.604 -153.15 878.262M118.037 502.833C150.772 449.916 187.572 408.17 222.139 357.551M-266.582 1040.17C-230.871 987.405 -192.253 940.773 -144.492 878.88M118.182 505.545C155.652 453.575 188.348 406.79 222.447 357.273M-259.571 1039.18C-214.545 979.814 -168.705 920.632 -145.257 875.159M123.563 506.765C158.124 459.317 185.388 414.794 227.968 361.678M-259.904 1040.81C-215.046 980.466 -174.138 925.052 -137.578 876.643M127.888 503.32C161.96 461.703 190.929 416.895 231.377 362.963M-255.467 1044.22C-212.299 983.523 -167.246 926.556 -135.486 878.452M128.696 506.904C170.01 457.985 207.693 401.605 236.11 359.926M-251.993 1043.97C-201.51 978.468 -159.241 916.503 -129.976 878.721M130.459 507.97C160.457 467.556 191.661 425.307 234.483 363.361M-243.627 1045.11C-210.249 1000.06 -179.133 951.452 -129.545 875.668M133.938 511.383C157.967 481.75 177.832 446.915 238.479 367.743M-245.04 1046.1C-217.305 1008.66 -193.45 969.151 -122.295 877.15M137.617 511.583C174.365 461.932 208.429 409.845 240.629 365.542M-239.953 1042.28C-208.127 1006.56 -184.125 965.467 -118.204 879.365M140.391 513.924C168.713 480.335 193.261 436.731 249.074 371.584M-233.357 1046.18C-206.834 1009.77 -182.578 970.497 -116.085 875.664M142.473 516.629C173.691 477.708 202.008 438.58 249.253 372.706M-229.89 1047.1C-200.795 1007.14 -173.937 970 -109.018 877.451M146.88 517.331C176.265 477.774 207.654 433.517 251.453 372.274M-223.96 1042.75C-183.566 981.754 -139.739 925.301 -107.711 878.625M150.822 518.675C183.333 476.406 211.477 434.694 255.807 376.203M-223.842 1044.23C-176.591 980.215 -127.786 917.144 -103.592 879.316M155.908 523.561C174.583 488.129 194.033 457.798 257.246 376.532M-220.269 1046.08C-191.921 1014.49 -168.549 975.222 -95.8554 876.893M154.983 525.297C182.547 478.498 213.994 434.748 263.931 378.208M-216.171 1045.01C-186.064 1010.6 -163.721 973.324 -92.7065 877.915M157.27 522.388C199.315 474.471 233.091 424.582 266.924 376.944M-208.864 1048.94C-186.466 1009.47 -162.321 968.221 -89.0061 874.477M164.955 524.336C193.437 480.652 223.016 437.944 265.08 379.81M-208.642 1048.25C-180.847 1016.46 -155.25 976.625 -84.9634 873.176M164.061 528.681C197.267 492.874 224.902 451.309 271.229 383.025M-203.24 1048.89C-163.085 998.515 -128.375 949.244 -76.8813 873.895M169.403 531.211C202.659 487.889 229.814 444.191 272.8 381.874M-196.202 1047.59C-157.863 986.277 -109.086 923.856 -72.7277 871.832M171.261 532.704C207.779 482.282 246.281 431.176 275.12 386.789M-192.53 1046.86C-168.254 1010.51 -139.915 973.443 -69.7116 874.571M172.998 532.615C196.052 498.269 219.7 470.2 279.982 385.875M-192.009 1048.81C-141.118 982.311 -94.4861 912.938 -66.6614 874.77M180.898 534.577C204.12 496.682 234.327 453.606 281.237 390.647M-185.464 1049.43C-158.282 1008.56 -124.574 958.266 -64.3989 874.021M180.487 533.626C205.161 502.525 224.905 474.952 284.226 389.283M-185.539 1048.33C-146.268 990.57 -102.279 935.016 -56.6947 876.274M182.603 536.106C221.748 488.182 263.151 436.57 288.341 391.212M-178.171 1048.38C-136.208 989.689 -87.4842 928.182 -53.372 874.423M190.006 539.438C222.245 486.965 259.1 437.896 294.695 393.825M-177.345 1053.09C-139.313 1006.71 -109.675 956.416 -47.3333 874.438M190.508 538.713C217.576 499.184 244.375 462.745 297.313 395.296M-172.657 1051.7C-145.886 1010.17 -114.943 966.706 -43.7063 874.82M191.813 540.321C237.61 485.997 278.293 427.291 299.828 398.365M-168.839 1049.62C-131.872 1003.61 -98.7554 949.938 -40.9535 871.084M196.633 542.096C222.408 502.346 249.924 461.329 300.545 396.868M-163.965 1052.72C-136.22 1008.87 -104.238 966.161 -37.5102 871.055M200.985 544.395C236.709 497.107 275.313 446.459 301.518 397.477M-158.721 1051.3C-137.187 1016.1 -107.524 978.355 -31.8753 873.503M199.466 546.135C235.231 499.556 268.935 449.117 308.697 401.634M-158 1055.58C-114.275 993.618 -70.2971 928.404 -23.2429 870.999M203.267 547.05C246.754 494.359 288.316 434.245 310.828 402.576M-151.344 1051.74C-110.243 993.104 -64.4999 927.859 -21.6184 869.022M205.833 550.419C229.44 518.451 252.283 492.787 316.854 404.731M-150.482 1055.92C-116.737 1017.75 -89.2685 979.04 -17.7442 871.114M211.803 549.542C251.174 498.803 285.894 445.743 315.019 408.373M-141.207 1056.15C-110.659 1009.69 -81.9808 967.626 -10.5836 871.08M212.266 552.153C234.884 524.739 258.916 492.141 321.978 408.441M-139.915 1056.92C-103.354 1002.58 -66.9108 956.7 -5.42075 869.776M218.908 556.86C259.671 497.601 304.36 439.771 322.32 406.713M-138.413 1054.63C-88.061 984.077 -38.1544 914.41 -3.60259 869.926M220.593 554.668C263.012 499.622 302.379 445.006 325.773 407.725M-130.991 1056.39C-89.6363 1001.62 -51.9113 947.454 4.8507 868.285M226.197 556.381C256.33 517.906 288.052 470.933 327.758 408.332M-126.374 1051.69C-75.277 983.163 -26.1876 918.053 6.53187 866.52M229.144 558.589C254.471 525.417 275.635 490.226 335.081 413.471M-124.931 1052.97C-89.3312 999.281 -48.591 947.669 14.7734 865.808M230.873 563.726C260.203 512.824 299.515 468.598 338.728 413.923M-118.704 1056.14C-74.0578 984.479 -27.1156 917.431 18.6065 863.53M235.605 563.001C262.594 522.317 296.692 476.734 339.131 416.676M-116.649 1055.18C-77.5302 1002.42 -37.594 952.243 21.6181 863.686M235.87 566.501C264.227 523.359 290.697 487.766 342.508 416.316M-112.323 1057.23C-64.5923 989.115 -22.2041 927.495 28.6111 859.915M241.322 564.158C273.495 521.289 307.042 471.857 344.144 418.819M-106.019 1052.79C-64.697 988.784 -17.6508 926.434 33.4276 860.659M240.178 565.544C269.56 525.365 296.703 489.613 348.368 419.994M-102.852 1053.49C-61.852 1002.93 -25.9363 944.794 36.0789 862.478M246.534 567.789C270.812 535.436 294.711 496.665 353.473 422.637M-98.409 1053.47C-68.8173 1008.86 -39.4066 970.483 40.0118 861.985M249.969 571.598C283.87 526.026 314.19 480.564 358.222 423.303M-92.9706 1054.52C-50.3966 993.393 -8.77186 938.665 45.9842 860.956M251.285 574.238C278.901 534.207 300.985 501.517 356.218 424.42M-87.5989 1055.48C-60.9688 1015.82 -28.1848 973.124 51.4232 857.87M255.373 574.316C290.676 521.452 324.79 471.274 359.145 425.333M-87.2605 1056.54C-44.5372 998.211 -0.0567012 937.727 56.7357 856.571M261.486 572.905C288.232 531.128 317.156 487.037 362.947 428.459M-79.5191 1056.09C-39.4008 1000.2 0.875375 944.872 61.4127 856.681M261.526 576.309C298.131 523.787 339.478 478.735 365.63 431.089M-74.7657 1052.11C-33.616 996.972 11.7588 938.696 68.7982 854.75M262.531 576.916C306.562 522.458 345.773 465.276 373.442 429.243M-71.8527 1056.48C-34.3749 1002.35 2.88648 946.289 72.2597 852.758M267.184 582.174C301.805 533.711 333.335 486.244 376.347 431.552M-67.0812 1053.72C-28.4991 1001.53 8.56908 945.567 80.5679 849.283M269.667 581.239C301.004 537.288 331.487 497.153 375.466 434.851M-65.4586 1056.68C-21.7139 996.057 22.3192 939.167 84.0992 851.282M191.851 701.193C197.496 690.234 206.312 682.343 216.405 666.983M276.443 580.715C318.282 525.652 356.639 467.726 380.128 431.962M-60.2682 1054.29C-1.32874 979.015 54.483 902.58 90.5933 845.478M185.921 715.866C191.121 700.832 201.693 683.991 224.526 658.637M274.917 586.693C318.05 525.711 359.907 473.02 381.381 435.647M-55.3123 1053.28C-4.17579 984.492 50.7891 908.567 96.5471 845.386M174.869 733.957C187.926 713.048 199.945 695.544 234.235 651.863M280.13 586.009C323.193 527.521 361.962 469.764 390.429 438.25M-52.2885 1055C-20.7294 1009.41 10.8361 970.946 100.743 844.018M177.859 737.388C195.505 714.588 210.997 690.715 236.458 647.015M282.782 589.087C316.507 543.749 346.605 502.004 392.333 439.421M-46.4156 1050.51C-3.68094 992.21 42.5691 929.916 107.196 842.991M172.665 747.113C190.074 721.099 205.644 702.591 246.01 646.424M287.027 586.199C321.333 544.039 356.654 496.943 391.349 440.495M-44.1981 1050.29C0.843796 992.67 41.7799 931.796 111.654 839.842M174.862 748.462C198.029 720.579 215.337 692.92 252.467 644.918M288.236 590.017C313.413 559.215 334.27 531.967 394.463 443.425M-36.6019 1049.24C1.41114 993.485 38.1026 940.681 118.269 836.715M173.358 754.471C206.619 708.538 241.917 667.628 262.717 639.798M293.319 590.499C333.278 530.379 375.849 472.368 396.616 447.591M-32.9881 1053.36C22.966 975.839 74.4205 902.476 124.984 831.932M174.136 762.644C201.847 724.89 229.563 686.653 267.472 637.069M299.905 595.187C330.153 549.987 357.911 505.129 401.111 446.843M-26.2697 1048.57C13.8318 986.292 58.7328 922.732 129.896 833.734M173.178 769.941C210.605 713.654 248.589 668.299 272.441 637.932M301.922 596.175C332.575 544.141 361.773 503.437 405.539 448.933M-22.3039 1049.74C23.5011 983.249 68.4589 922.849 133.991 829.501M177.713 772.35C210.264 728.982 241.756 683.379 275.31 637.562M305.266 594.001C327.736 563.032 352.872 531.863 404.99 449.075M-20.9162 1048.15C31.5514 978.293 85.1169 906.063 140.737 824.762M177.229 778.137C205.864 736.335 237.778 696.195 279.298 635.517M304.478 595.843C343.977 547.528 377.513 504.133 407.841 452.588M-12.0058 1050.55C31.4503 980.028 81.0752 913.583 148.474 823.05M177.813 782.265C201.377 747.229 224.334 714.674 282.604 633.865M310.847 599.719C348.14 543.546 385.801 493.043 416.28 455.861M-10.7974 1047.07C39.4535 982.832 86.4465 913.156 152.087 820.6M178.787 783.429C212.681 738.079 243.294 695.081 291.794 634.404M311.563 598.237C336.616 566.651 355.494 531.921 418.82 452.347M-5.69999 1047.31C43.8966 979.966 97.9941 910.275 159.14 821.832M183.863 791.021C215.787 739.211 248.675 690.048 295.644 629.872M313.663 600.868C340.546 566.999 364.917 533.591 419.994 456.291M0.0673903 1048.91C33.2201 999.699 74.8929 947.995 166.48 817.255M183.603 795.176C205.346 757.292 234.664 723.297 297.728 629.639M316.1 606.19C351.529 559.061 386.023 510.023 420.084 456.537M5.43265 1046.14C63.172 964.102 127.789 881.75 171.014 813.914M181.84 794.834C216.391 746.38 249.495 699.958 304.476 631.572M321.159 605.229C353.685 555.443 389.222 511.388 423.451 459.029M6.98353 1049.35C61.3821 973.077 114.628 898.705 178.829 811.919M184.959 801.963C233.869 733.575 277.199 668.82 309.682 627.442M323.537 610.118C353.617 571.418 380.39 531.122 428.488 465.119M11.5968 1045.21C52.0392 997.699 86.0566 945.087 184.994 806.079M186.807 802.739C229.165 744.14 268.336 682.69 313.478 625.883M325.511 607.705C351.149 573.123 378.022 531.799 431.12 466.263M17.5826 1046.61C124.787 896.245 233.606 743.85 318.905 629.105M328.004 610.362C359.2 565.028 392.484 521.969 430.924 466.099M23.6221 1045.03C86.7155 961.285 149.401 871.734 321.564 628.431M335.207 614.929C358.146 575.216 385.217 540.622 438.961 466.647M28.1658 1045.12C143.238 884.77 257.516 725.848 326.116 626.574M333.299 619.051C374.244 559.553 413.201 502.908 437.824 469.528M33.2506 1043.03C195.081 814.997 358.875 587.741 441.679 473.372M38.5873 1042.35C118.62 931.096 199.782 814.395 443.723 476.685M42.9935 1041.45C155.625 885.016 268.493 725.56 447.109 477.916M46.4644 1040.06C149.299 897.063 253.059 750.448 449.623 479.553M53.6496 1040.02C183.072 856.374 317.661 674.111 452.37 481.644M58.5315 1036.66C178.158 868.787 297.932 704.598 453.253 486.112M61.346 1037.01C220.246 818.406 375.974 598.796 455.658 487.525M67.0748 1034.56C147.349 926.818 224.663 817.076 458.793 490.659M72.1318 1034.04C222.034 829.421 372.006 619.868 461.655 493.478M76.9576 1033.7C219.901 836.979 359.808 641.124 462.558 494.718M82.5743 1031.84C195.567 874.22 306.737 716.814 465.483 499.025M86.8301 1032.42C235.91 824.735 384.553 616.152 467.053 499.306M92.6903 1031.29C170.158 919.573 251.479 804.381 469.268 502.431M98.7978 1027.24C211.004 865.329 326.196 706.404 472.582 505.843M103.269 1027.04C242.659 835.241 378.087 645.746 475.33 508.469M108.221 1024.43C206.634 888.903 305.447 751.104 478.414 510.334M112.959 1024.33C264.927 819.986 410.784 615.425 479.988 514.992M119.362 1021.07C203.368 906.139 289.093 785.79 481.025 518.297M125.964 1020.37C239.482 857.619 355.537 695.975 483.909 520.754M129.764 1017.8C264.068 829.212 398.207 640.342 485.717 523.268M136.456 1017.42C277.08 822.651 416.546 627.39 488.061 526.408M140.124 1016.95C229.664 893.855 317.385 771.335 487.825 529.693M145.555 1014.24C276.202 832.426 403.93 652.423 491.368 534.361M151.948 1011.85C261.937 858.911 371.238 708.622 493.579 535.846M155.84 1011.84C233.177 901.483 315.042 788.617 495.694 541.572M162.824 1008.78C298.364 827.219 430.889 639.76 496.049 545.174M166.845 1008.96C241.515 900.12 317.493 794.875 497.511 547.928M174.815 1005.4C266.205 874.332 358.427 744.023 499.897 551.485M179.514 1002.83C277.398 861.947 376.615 725.422 500.468 553.045M186.441 1000.33C272.36 881.191 358.47 761.236 504.086 559.181M191.604 999.287C312.749 830.224 433.389 658.911 505.382 563.037M197.561 996.008C274.156 891.216 352.379 785.205 505.28 564.983M204.8 994.253C275.202 888.047 349.653 786.698 506.498 569.504M210.676 990.751C300.69 859.441 395.306 728.912 507.294 576.074M216.496 986.611C298.56 866.308 384.219 748.193 510.004 580.429M220.23 984.789C284.316 903.399 345.647 818.731 510.274 583.008M228.892 983.486C307.727 872.504 387.364 763.515 510.693 587.45M233.876 980.659C327.777 847.509 421.412 717.425 510.796 594.093M238.81 979.263C344.745 829.69 449.077 681.175 512.302 596.903M245.048 976.932C326.59 864.723 404.254 754.432 514.051 604.202M249.739 976.782C353.648 829.341 455.908 683.508 512.879 608.616M255.955 971.339C322.067 879.589 388.26 788.841 511.858 615.064M262.946 968.271C335.248 862.566 409.496 759.414 514.031 621.597M271.488 965.772C313.178 909.628 353.449 850.622 394.31 794.694M393.746 792.52C437.661 730.119 481.491 669.595 510.77 625.69M276.234 962.874C308.709 909.337 347.279 863.516 390.798 802.636M396.231 788.766C432.617 742.177 466.753 693.761 512.858 631.71M286.264 959.591C326.845 901.012 366.05 838.873 394.6 806.067M407.7 787.64C432.253 754.063 461.519 714.25 512.038 637.217M289.746 955.114C320.146 914.775 347.795 880.142 391.755 813.095M411.863 786.23C445.656 740.967 480.3 690.252 512.989 646.921M301.227 950.857C334.634 902.887 363.672 862.525 392.201 815.147M419.789 779.413C448.8 741.36 485.299 693.059 504.83 655.893M305.153 942.267C340.234 893.702 374.888 846.979 392.324 819.162M425.71 777.03C445.283 745.81 468.115 715.018 503.241 665.736M314.652 938.467C332.916 914.537 354.635 879.981 392.096 826.263M431.842 775.505C445.389 753.308 463.662 730.946 504.45 677.352M322.869 935.788C341.241 904.104 365.169 878.12 390.899 837.789M442.488 766.239C455.737 744.454 476.501 717.231 498.714 689.801M332.445 930.887C344.916 908.784 354.698 889.96 388.441 846.539M454.721 750.115C467.801 742.222 477.561 728.551 489.452 709.437M334.649 925.353C349.879 907.272 361.752 895.173 387.069 854.561M346.874 913.222C358.369 898.233 367.613 892.768 384.55 865.37M-401.21 42.1795V42.1795ZM-414.989 884.737V884.737ZM198.556 682.491V682.491Z" stroke="url(#paint0_linear_1473_11334)" stroke-width="0.857165" stroke-linecap="round"/>
<defs>
<linearGradient id="paint0_linear_1473_11334" x1="-400.749" y1="149.32" x2="302.799" y2="400.635" gradientUnits="userSpaceOnUse">
<stop stop-color="#3CA0D2"/>
<stop offset="1" stop-color="#48DCA6"/>
</linearGradient>
</defs>
</svg>
