<svg width="510" height="1058" viewBox="0 0 510 1058" fill="none" xmlns="http://www.w3.org/2000/svg">
<path opacity="0.5" d="M922.65 56.6374C915.426 48.1293 914.709 46.2843 905.671 38.0363M923.764 68.1541C912.918 49.0759 903.054 29.2081 892.725 19.712M924.441 71.9597C917.157 55.6945 904.361 36.0343 885.192 16.7102M927.907 81.1249C906.522 55.1162 889.468 35.2156 880.939 15.4251M927.108 88.542C913.524 63.0312 895.014 43.0641 866.466 6.21362M928.5 90.6156C908.908 67.8055 890.305 43.621 865.52 6.2335M925.813 96.6914C909.373 65.3241 881.177 37.6517 856.124 1.00254M927.81 102.488C903.316 65.8242 881.123 34.7299 852.368 2.6839M930.4 108.209C897.822 74.1221 875.021 33.4204 850.666 5.76139M925.964 112.435C891.279 74.5257 866.924 30.1427 845.805 1.86819M922.277 120.182C902.707 88.0654 876.503 48.7762 842.716 1.18769M923.148 123.097C900.172 90.4597 881.888 65.8969 833.735 5.88306M923.13 126.59C905.666 98.6552 883.934 72.9497 832.092 3.27386M918.188 126.872C890.444 87.4147 859.443 47.3312 827.497 4.8861M920.363 133.716C898.95 103.984 878.6 76.2638 825.653 3.22905M912.553 138.769C895.848 106.265 878.011 86.0399 819.33 6.61166M916.926 137.584C883.852 95.7953 853.418 51.62 815.853 4.8417M910.503 141.944C873.754 90.7891 838.221 35.0674 816.083 8.21258M908.291 143.446C887.625 110.513 860.247 78.0081 811.527 4.7666M905.039 145.496C890.232 116.543 864.373 86.2939 808.33 10.6257M903.64 147.915C880.2 111.375 857.301 74.7972 806.516 10.2981M905.535 156.786C874.85 110.795 843.062 69.9979 802.408 8.27821M904.255 154.3C877.213 120.974 851.49 82.3454 801.154 13.0232M900.063 160.299C872.281 120.817 842.484 83.8768 792.229 12.067M895.375 159.363C868.563 128.496 842.293 88.7269 792.615 18.6312M897.632 163.457C868.655 123.898 838.467 89.0184 788.889 16.0913M889.905 168.671C852.232 111.503 813.576 60.5749 786.868 21.7644M889.971 168.753C861.996 136.411 834.652 99.0923 785.94 20.5755M886.105 172.897C866.431 141.629 840.804 110.069 783.238 23.9745M884.814 174.71C851.057 127.284 824.083 83.2311 777.261 23.3651M884.563 180.255C853.78 137.312 822.589 92.8161 773.913 28.5727M878.525 181.732C845.74 122.485 803.09 70.2438 772.049 33.4475M880.986 181.366C854.978 151.527 834.126 117.596 770.004 36.039M874.07 185.789C842.887 141.33 806.863 93.0079 768.128 34.7902M876.604 186.596C844.828 141.848 812.819 100.959 766.84 37.7244M870.506 193.058C836.765 139.272 799.453 91.4728 763.546 43.8899M866.277 195.282C847.13 165.205 823.713 131.288 759.56 44.9849M865.072 198.037C831.955 148.479 796.706 101.028 759.544 49.2889M863.424 196.913C831.418 156.537 801.073 115.108 756.083 50.0807M859.662 197.874C829.351 157.365 796.251 111.092 753.21 56.1073M856.91 203.325C820.303 142.482 780.903 85.5649 752.888 59.4926M854.131 206.243C825.037 157.965 790.257 113.068 749.78 58.7734M850.694 206.307C817.161 159.007 785.508 114.491 751.529 64.0862M853.885 212.424C826.45 182.289 804.221 148.638 749.221 66.2718M850.751 210.156C816.692 164.769 787.336 122.876 744.621 69.173M845.974 216.558C814.762 170.363 788.707 127.308 738.573 70.5461M845.367 214.122C801.524 161.013 761.494 102.805 739.608 70.7854M839.01 221.913C816.912 190.612 791.835 159.757 738.874 73.1789M835.897 222.316C805.517 176.838 773.852 129.9 731.363 79.2142M837.682 222.32C801.153 176.667 772.549 134.471 731.064 77.2616M833.535 224.85C810.801 195.772 788.081 164.531 726.794 81.9498M831.019 228.788C799.985 186.767 769.193 145.284 726.072 84.1701M825.052 232.457C807.852 203.183 789.486 174.864 721.035 87.779M828.067 230.845C792.609 192.371 764.696 151.015 721.745 89.926M825.048 235.714C785.914 190.771 755.656 140.226 718.231 91.4198M821.561 238.898C786.239 192 753.719 139.942 716.878 94.2186M815.313 237.875C791.501 204.247 765.661 171.176 715.396 96.6219M813.639 243.14C782.925 203.073 754.908 163.136 710.976 94.5116M813.266 244.226C785.198 206.931 761.181 165.315 710.055 97.9265M809.366 244.863C779.029 207.513 747.579 166.178 706.289 102.223M809.259 245.804C779.504 208.949 755.277 169.369 700.452 103.71M804.776 250.734C770.772 195.948 728.65 141.027 703.108 104.14M798.658 255.043C766.351 201.13 727.507 149.795 699.945 104.934M797.23 256.273C776.302 225.108 756.376 190.851 694.669 110.42M792.872 255.91C763.838 214.474 737.587 172.973 692.177 109.971M792.248 255.274C760.861 214.025 729.32 175.968 686.394 113.083M793.052 259.063C758.116 216.089 719.508 171.05 688.682 114.717M787.414 264.364C764.726 226.307 733.174 190.045 682.313 115.908M783.645 266.346C756.545 228.41 730.401 188.594 682.115 122.27M778.957 264.79C739.92 212.151 703.845 160.822 680.833 119.999M780.692 268.982C756.961 237.534 734.404 202.251 672.698 121.884M775.105 269.513C738.54 221.885 708.617 169.695 669.256 125.061M772.896 271.066C751.682 237.571 725.379 207.482 667.308 129.247M768.54 272.501C738.865 231.014 708.384 187.459 667.241 129.894M768.372 278.808C733.539 225.647 697.491 175.864 663.91 134.552M765.181 276.392C739.294 247.082 716.82 216.015 661.8 131.825M759.252 277.043C736.931 245.226 715.053 209.92 660.675 136.113M760.718 280.018C719.69 224.884 676.714 170.375 655.407 136.13M758.277 281.517C728.071 237.398 696.882 197.536 649.913 138.913M754.509 287.024C730.447 245.137 703.217 211.582 651.145 141.144M752.952 287.684C726.1 250.617 697.279 217.284 645.633 142.717M747.169 291.671C721.238 251.884 693.393 212.739 641.243 148.258M747.149 293.018C702.938 237.925 662.424 182.885 642.027 145.607M742.193 292.452C715.789 251.416 686.424 207.639 638.496 149.828M736.606 293.842C696.593 237.394 656.676 177.519 638.632 148.546M735.321 295.008C707.387 250.255 673.426 210.116 634.472 153.769M734.162 298.388C696.064 248.12 657.912 200.534 628.965 151.958M729.729 302.478C699.462 256.389 667.717 214.501 628.041 154.249M728.073 303.53C702.978 272.524 673.878 236.96 626.285 158.328M724.013 302.163C703.822 273.56 678.508 238.729 620.615 158.753M720.141 307.526C699.363 273.143 681.231 242.888 617.763 159.141M715.812 305.565C688.394 264.454 655.36 222.633 613.235 164.79M718.136 307.085C683.989 267.938 654.853 221.563 609.105 167.089M709.823 310.903C684.24 269.212 651.478 223.41 608.449 165.234M709.43 313.734C669.417 260.784 630.758 207.787 604.322 171.164M705.624 312.041C670.106 258.665 630.958 204.911 605.331 168.13M701.101 315.642C677.37 282.411 652.171 247.942 597.312 173.799M703.243 315.89C678.354 286.004 657.129 254.516 599.415 174.341M701.071 318.088C654.963 262.179 620.274 211.18 594.347 177.748M696.483 323.333C665.962 284.721 635.09 242.492 591.302 178.043M692.104 323.35C666.712 294.029 648.77 262.055 588.203 181.557M689.995 325C659.817 276.96 623.053 230.023 584.276 179.597M684.47 327.063C660.613 289.488 630.068 247.789 584.731 184.474M681.623 326.22C654.487 293.598 627.933 254.425 577.854 186.8M680.382 329.519C641.212 284.518 611.536 237.352 574.483 185.863M677.763 331.69C635.42 280.518 594.068 223.752 576.393 187.958M677.698 332.562C649.714 303.66 628.464 277.816 571.531 188.813M671.912 335.737C648.281 308.663 626.502 275.355 568.997 188.993M668.942 338.061C636.079 287.482 602.411 241.304 567.513 191.648M666.972 340.768C626.272 282.366 587.834 224.707 562.234 193.597M663.428 340.421C634.684 302.32 611.55 266.941 556.336 195.921M662.573 343.311C627.909 300.759 593.43 250.013 553.194 196.449M655.227 343.464C629.171 309.343 596.203 264.567 551.236 200.272M656.428 345.593C621.075 304.724 588.189 255.423 548.507 201.431M651.966 345.866C616.69 300.301 579.66 248.602 546.456 202.947M650.289 351.296C621.843 312.192 593.556 278.493 543.308 208.294M644.796 353.709C611.379 306.894 577.871 255.621 541.683 204.483M641.49 353.182C617.007 318.822 593.54 287.937 540.008 211.369M638.321 353.156C617.307 322.977 591.921 286.341 533.735 210.978M635.976 354.538C606.631 319.678 579.041 282.051 535.041 213.629M634.934 362.466C595.267 309.853 554.487 256.838 530.715 215.747M633.214 361.372C585.647 302.603 548.254 247.632 524.198 213.325M628.443 362.825C603.757 326.765 577.518 291.899 523.103 221.343M624.526 367.341C591.497 320.35 562.837 278.967 517.119 221.603M618.908 368.203C587.662 325.016 553.052 274.385 517.028 218.671M616.933 366.491C596.539 335.144 572.169 301.729 513.289 225.187M616.176 367.248C585.866 333.901 560.599 294.533 512.143 224.001M610.372 370.399C573.491 323.438 540.454 274.986 507.961 227.788M611.042 375.56C577.144 319.935 542.88 272.198 507.963 228.053M604.704 372.526C586.452 345.87 562.86 315.299 499.673 230.388M601.393 375.553C568.259 322.29 526.686 271.456 501.854 231.571M599.974 381.456C577.911 346.908 553.632 311.334 499.5 234.486M599.409 378.385C570.999 334.439 536.164 292.187 495.57 237.108M592.313 379.202C563.936 340.553 533.328 300.99 492.521 235.536M591.279 383.212C560.949 338.526 530.29 301.579 487.379 236.702M590.226 383.678C562.674 349.381 531.83 309.98 487.672 238.255M585.867 387.692C563.407 358.864 542.839 323.891 480.167 241.549M584.77 390.866C558.798 352.172 527.384 316.13 479.616 245.484M582.366 390.176C542.414 338.757 507.795 292.072 478.022 245.751M575.309 392.199C545.512 341.371 505.312 293.156 471.294 247.503M933.237 894.051C927.385 878.369 914.769 863.65 905.772 859.776M576.014 395.5C545.424 351.794 512.521 313.842 472.555 252.456M936.931 905.182C928.344 889.247 910.671 872.721 897.871 854.517M573.685 399.314C541.072 347.871 503.828 305.028 469.71 252.451M937.832 913.503C924.403 896.118 913.287 876.84 889.195 848.316M566.599 398.915C526.976 345.391 485.017 284.059 466.37 253.537M938.021 918.513C922.022 898.462 904.399 869.193 887.946 847.07M564.431 400.803C531.727 354.831 504.094 314.698 461.496 258.39M940.48 931.541C923.738 899.228 900.341 877.518 878.616 847.82M562.453 403.326C529.343 356.819 495.211 307.789 459.531 258.426M940.002 933.732C915.744 904.412 892.245 873.577 872.923 842.112M558.159 405.119C523.084 356.236 486.636 304.648 457.705 258.056M938.678 941.623C910.625 901.958 885.342 869.219 871.362 845.414M558.351 407.459C519.084 346.241 476.519 292.869 450.477 261.56M941.433 942.916C914.1 910.97 887.288 877.315 864.229 845.145M551.812 405.204C516.065 352.173 477.49 299.389 448.471 264.773M936.596 952.259C921.733 923.253 897.751 894.975 860.982 844.662M553.75 407.082C514.2 357.468 482.305 312.032 444.145 265.863M937.441 957.478C919.944 929.537 896.829 899.71 854.691 840.471M550.698 410.959C514.593 360.676 481.781 316.755 441.207 266.351M938.774 956.69C916.072 930.701 894.613 900.751 853.313 840.484M544.033 409.717C511.127 365.53 477.508 320.136 439.825 268.354M932.169 964.118C906.271 919.118 871.312 870.603 847.858 840.408M538.976 411.843C506.13 370.096 471.915 326.341 436.694 267.076M933.346 966.323C911.17 931.555 886.283 904.409 845.854 841.437M541.876 416.633C502.817 366.149 471.524 315.496 432.669 270.545M928.996 969.71C903.946 928.939 874.032 895.101 840.73 842.468M537.577 415.696C513.783 388.019 485.781 358.849 431.825 271.251M929.923 973.318C907.177 937.111 880.188 909.018 838.341 846.18M530.458 416.896C501.306 381.125 474.749 339.661 428.752 276.605M928.894 976.557C905.358 937.382 879.074 904.589 834.683 843.251M531.827 423.048C494.76 369.377 458.607 322.427 425.99 275.173M925.559 976.94C887.4 927.637 851.725 876.675 826.861 843.076M529.886 422.143C495.942 376.627 462.511 331.453 425.259 276.357M924.334 981.453C896.172 944.119 863.724 902.493 826.783 844.671M526.859 425.649C490.807 368.94 450.343 317.176 419.305 282.695M924.002 986.69C885.192 927.755 844.828 877.01 824.96 843.746M519.926 429.633C481.666 375.492 449.191 323.726 418.517 280.285M921.592 985.872C894.964 955.486 872.32 926.163 820.308 846.196M519.406 428.369C482.147 375.387 440.121 324.53 416.243 283.224M919.622 992.41C893.528 956.429 864.595 918.575 817.879 851.005M515.489 432.524C483.57 382.092 449.162 337.675 412.13 286.83M915.484 994.141C875.847 938.524 836.379 881.522 809.059 852.153M510.483 434.04C479.415 384.413 442.709 335.257 409.72 288.869M911.185 996.31C879.351 950.824 849.497 911.613 809.603 850.677M507.239 431.311C464.43 376.594 428.297 316.173 407.09 290.505M906.968 996.818C872.404 942.639 831.192 892.771 805.03 852.433M503.887 434.91C469.957 387.616 435.499 335.045 399.889 287.405M905.981 1001.01C882.776 964.697 860.367 934.476 800.645 850.958M505.455 435.991C466.188 391.114 435.753 341.373 399.344 292.853M901.99 1000.52C874.123 961.432 843.916 922.2 796.116 854.283M498.339 437.241C459.095 388.448 420.002 332.602 394.179 293.682M899.601 1004.8C873.527 967.013 849.248 930.25 792.57 854.368M496.308 442.779C476.948 403.763 445.955 371.343 391.826 293.709M900.613 1006.35C863.068 963.433 831.962 916.569 792.527 855.701M493.817 445.235C457.363 390.057 416.133 332.669 392.856 298.363M894.229 1009.64C862.357 961.33 832.966 918.356 785.729 855.102M491.938 442.706C467.305 407.084 438.592 372.336 387.468 297.542M895.623 1008.48C870.287 969.423 843.81 933.524 784.108 855.986M489.09 447.821C466.491 411.719 441.33 381.183 384.644 298.523M890.234 1012.01C857.454 967.803 830.996 923.384 782.402 858.697M488.838 447.61C453.081 407.92 428.263 369.61 383.529 304.614M886.286 1014.92C851.913 966.932 825.418 924.618 773.592 860.49M481.391 452.09C454.32 407.225 425.85 366.246 380.637 306.702M882.058 1010.68C842.956 961.324 805.341 905.648 774.733 860.494M480.3 450.773C456.799 413.576 427.585 374.296 375.611 307.383M880.706 1017.57C848.158 976.729 822.783 932.907 767.904 861.804M475.008 450.96C444.698 414.733 415.334 368.995 374.06 307.137M872.947 1015.34C852.574 979.65 827.562 944.117 763.991 863.073M474.262 453.067C437.18 402.323 398.63 343.015 367.159 313.102M872.577 1019.43C834.728 959.455 789.483 903.906 758.254 862.806M470.258 456.553C435.327 407.342 407.067 364.041 368.309 309.84M872.1 1019.72C838.982 970.656 809.135 932.454 756.126 859.249M466.478 455.985C448.102 425.413 421.509 392.789 365.353 314.314M867.705 1019.75C832.103 977.169 804.125 930.336 751.727 863.038M464.836 460.976C425.518 405.316 379.786 345.274 362.688 313.194M861.687 1019.9C833.556 978.924 801.61 932.457 749.588 866.279M462.971 463.691C434.769 415.517 400.625 373.359 359.936 315.958M859.34 1019.87C833.729 987.616 805.974 943.827 747.598 863.667M462.025 463.702C415.897 401.821 376.666 345.99 354.467 320.4M856.046 1022.28C830.012 990.38 806.764 959.191 744.232 867.98M454.082 466.19C412.644 408.825 374.434 352.981 350.045 319.681M851.96 1025.48C830.152 986.127 803.103 957.548 739.676 866.55M455.63 470.402C414.347 416.538 376.534 361.495 347.21 324.95M849.602 1024.94C807.215 961.254 759.748 900.968 737.131 867.931M450.209 471.679C429.905 440.955 410.016 407.945 345.702 322.961M841.746 1026.65C809.748 977.211 771.375 925.79 734.22 865.145M447.97 471.59C422.392 437.926 401.228 407.74 345.935 323.957M839.402 1027.72C810.422 989.41 778.854 947.738 725.588 870.774M447.312 475.551C422.026 443.114 401.809 409.487 341.125 326.182M839.501 1027.64C807.817 991.207 780.543 952.478 724.913 867.185M443.743 472.896C419.849 441.41 399.65 410.205 336.474 326.936M837.109 1026.21C807.582 987.307 780.433 948.126 718.714 870.506M439.292 477.854C406.821 429.069 368.472 386.482 336.205 329.79M828.368 1029.44C805.873 989.308 780.338 957.14 715.401 869.451M436.907 478.978C398.518 420.536 353.134 363.754 334.198 334.113M828.793 1028.3C795.582 982.935 761.505 934.545 714.558 869.56M430.684 477.837C409.351 447.222 387.818 409.156 327.611 332.921M825.51 1028.71C798.195 996.655 770.781 958.797 709.263 872.439M429.374 480.68C396.017 430.218 355.165 382.19 326.414 339.677M822.5 1032.3C783.518 983.322 749.914 936.603 706.585 872.94M428.635 485.893C387.631 425.386 342.4 370.415 324.171 340.405M817.393 1030.06C790.032 990.279 759.064 951.808 701.23 874.422M424.926 483.961C385.348 428.467 339.262 373.013 321.093 337.521M815.023 1033.87C790.129 998.401 762.508 960.035 696.093 869.978M419.58 488.688C400.08 453.465 374.086 418.883 320.085 340.041M809.968 1035.81C778.383 991.775 749.61 954.806 692.597 872.94M421.276 486.954C378.919 440.275 340.618 384.135 311.474 345.92M804.141 1036.74C760.521 975.677 721.148 917.649 687.347 873.282M412.768 491.691C381.872 446.982 344.753 396.825 311.628 345.161M804.912 1037.46C764.385 988.604 732.697 935.452 684.416 876.648M413.484 490.931C381.428 448.059 347.308 407.549 306.182 347.964M798.617 1038.81C767.413 991.687 740.984 953.619 682.373 872.732M408.165 494.607C379.106 457.693 356.916 417.502 302.154 351.431M793.917 1038.8C758.818 988.435 724.452 934.16 675.968 872.289M407.29 493.779C372.316 449.468 336.649 400.715 302.694 349.867M792.226 1037.48C758.679 996.05 730.634 951.792 676.591 873.003M405.711 497.588C365.764 441.829 330.034 389.404 298.8 352.411M789.823 1038.38C764.598 999.637 735.531 966.008 668.599 876.477M399.504 500.516C374.968 469.481 351.845 433.015 298.273 352.858M783.52 1037.34C747.558 994.556 719.45 952.604 668.099 878.262M396.912 502.833C364.177 449.916 327.377 408.17 292.81 357.551M781.531 1040.17C745.82 987.405 707.203 940.773 659.441 878.88M396.768 505.545C359.298 453.575 326.601 406.79 292.502 357.273M774.52 1039.18C729.495 979.814 683.654 920.632 660.207 875.159M391.386 506.765C356.825 459.317 329.561 414.794 286.982 361.678M774.853 1040.81C729.996 980.466 689.087 925.052 652.527 876.643M387.061 503.32C352.99 461.703 324.02 416.895 283.572 362.963M770.416 1044.22C727.248 983.523 682.196 926.556 650.435 878.452M386.253 506.904C344.939 457.985 307.256 401.605 278.839 359.926M766.942 1043.97C716.459 978.468 674.19 916.503 644.925 878.721M384.49 507.97C354.493 467.556 323.289 425.307 280.466 363.361M758.577 1045.11C725.198 1000.06 694.082 951.452 644.494 875.668M381.012 511.383C356.982 481.75 337.117 446.915 276.47 367.743M759.989 1046.1C732.255 1008.66 708.4 969.151 637.245 877.15M377.332 511.583C340.584 461.932 306.52 409.845 274.321 365.542M754.902 1042.28C723.076 1006.56 699.074 965.467 633.153 879.365M374.558 513.924C346.237 480.335 321.688 436.731 265.876 371.584M748.307 1046.18C721.783 1009.77 697.527 970.497 631.035 875.664M372.476 516.629C341.259 477.708 312.942 438.58 265.696 372.706M744.84 1047.1C715.744 1007.14 688.887 970 623.968 877.451M368.069 517.331C338.685 477.774 307.296 433.517 263.497 372.274M738.91 1042.75C698.516 981.754 654.688 925.301 622.661 878.625M364.127 518.675C331.616 476.406 303.472 434.694 259.142 376.203M738.791 1044.23C691.54 980.215 642.735 917.144 618.542 879.316M359.041 523.561C340.366 488.129 320.916 457.798 257.703 376.532M735.218 1046.08C706.87 1014.49 683.498 975.222 610.805 876.893M359.966 525.297C332.402 478.498 300.956 434.748 251.018 378.208M731.12 1045.01C701.013 1010.6 678.67 973.324 607.656 877.915M357.679 522.388C315.634 474.471 281.858 424.582 248.025 376.944M723.813 1048.94C701.415 1009.47 677.27 968.221 603.955 874.477M349.995 524.336C321.512 480.652 291.933 437.944 249.869 379.81M723.591 1048.25C695.796 1016.46 670.2 976.625 599.913 873.176M350.888 528.681C317.683 492.874 290.047 451.309 243.72 383.025M718.189 1048.89C678.034 998.515 643.325 949.244 591.83 873.895M345.546 531.211C312.29 487.889 285.135 444.191 242.149 381.874M711.151 1047.59C672.812 986.277 624.035 923.856 587.677 871.832M343.689 532.704C307.171 482.282 268.668 431.176 239.829 386.789M707.48 1046.86C683.203 1010.51 654.864 973.443 584.661 874.571M341.951 532.615C318.898 498.269 295.25 470.2 234.967 385.875M706.958 1048.81C656.067 982.311 609.435 912.938 581.611 874.77M334.052 534.577C310.83 496.682 280.623 453.606 233.712 390.647M700.413 1049.43C673.231 1008.56 639.523 958.266 579.348 874.021M334.463 533.626C309.789 502.525 290.044 474.952 230.723 389.283M700.488 1048.33C661.217 990.57 617.228 935.016 571.644 876.274M332.346 536.106C293.202 488.182 251.798 436.57 226.608 391.212M693.12 1048.38C651.157 989.689 602.433 928.182 568.321 874.423M324.943 539.438C292.704 486.965 255.849 437.896 220.254 393.825M692.294 1053.09C654.263 1006.71 624.624 956.416 562.283 874.438M324.441 538.713C297.373 499.184 270.575 462.745 217.636 395.296M687.606 1051.7C660.836 1010.17 629.892 966.706 558.656 874.82M323.137 540.321C277.339 485.997 236.656 427.291 215.121 398.365M683.788 1049.62C646.821 1003.61 613.705 949.938 555.903 871.084M318.317 542.096C292.542 502.346 265.025 461.329 214.404 396.868M678.914 1052.72C651.169 1008.87 619.187 966.161 552.459 871.055M313.964 544.395C278.24 497.107 239.636 446.459 213.431 397.477M673.67 1051.3C652.136 1016.1 622.473 978.355 546.824 873.503M315.484 546.135C279.718 499.556 246.014 449.117 206.252 401.634M672.95 1055.58C629.224 993.618 585.246 928.404 538.192 870.999M311.682 547.05C268.196 494.359 226.633 434.245 204.121 402.576M666.293 1051.74C625.193 993.104 579.449 927.859 536.568 869.022M309.116 550.419C285.509 518.451 262.666 492.787 198.095 404.731M665.431 1055.92C631.686 1017.75 604.218 979.04 532.693 871.114M303.146 549.542C263.776 498.803 229.055 445.743 199.93 408.373M656.156 1056.15C625.608 1009.69 596.93 967.626 525.533 871.08M302.684 552.153C280.065 524.739 256.033 492.141 192.971 408.441M654.864 1056.92C618.303 1002.58 581.86 956.7 520.37 869.776M296.041 556.86C255.278 497.601 210.589 439.771 192.63 406.713M653.363 1054.63C603.01 984.077 553.104 914.41 518.552 869.926M294.357 554.668C251.937 499.622 212.57 445.006 189.177 407.725M645.94 1056.39C604.585 1001.62 566.861 947.454 510.099 868.285M288.752 556.381C258.619 517.906 226.898 470.933 187.192 408.332M641.323 1051.69C590.226 983.163 541.137 918.053 508.417 866.52M285.806 558.589C260.479 525.417 239.314 490.226 179.869 413.471M639.88 1052.97C604.28 999.281 563.54 947.669 500.176 865.808M284.076 563.726C254.746 512.824 215.434 468.598 176.221 413.923M633.653 1056.14C589.007 984.479 542.065 917.431 496.343 863.53M279.344 563.001C252.355 522.317 218.257 476.734 175.818 416.676M631.598 1055.18C592.479 1002.42 552.543 952.243 493.331 863.686M279.08 566.501C250.722 523.359 224.252 487.766 172.441 416.316M627.272 1057.23C579.542 989.115 537.153 927.495 486.338 859.915M273.627 564.158C241.455 521.289 207.908 471.857 170.805 418.819M620.968 1052.79C579.646 988.784 532.6 926.434 481.522 860.659M274.771 565.544C245.389 525.365 218.246 489.613 166.581 419.994M617.801 1053.49C576.801 1002.93 540.885 944.794 478.87 862.478M268.415 567.789C244.137 535.436 220.238 496.665 161.477 422.637M613.358 1053.47C583.766 1008.86 554.356 970.483 474.937 861.985M264.98 571.598C231.079 526.026 200.759 480.564 156.727 423.303M607.92 1054.52C565.346 993.393 523.721 938.665 468.965 860.956M263.664 574.238C236.048 534.207 213.964 501.517 158.731 424.42M602.548 1055.48C575.918 1015.82 543.134 973.124 463.526 857.87M259.576 574.316C224.273 521.452 190.16 471.274 155.805 425.333M602.21 1056.54C559.486 998.211 515.006 937.727 458.213 856.571M253.463 572.905C226.717 531.128 197.793 487.037 152.003 428.459M594.468 1056.09C554.35 1000.2 514.074 944.872 453.537 856.681M253.423 576.309C216.818 523.787 175.471 478.735 149.319 431.089M589.715 1052.11C548.565 996.972 503.19 938.696 446.151 854.75M252.418 576.916C208.387 522.458 169.176 465.276 141.508 429.243M586.802 1056.48C549.324 1002.35 512.063 946.289 442.689 852.758M247.765 582.174C213.144 533.711 181.614 486.244 138.603 431.552M582.03 1053.72C543.448 1001.53 506.38 945.567 434.381 849.283M245.282 581.239C213.946 537.288 183.462 497.153 139.483 434.851M580.408 1056.68C536.663 996.057 492.63 939.167 430.85 851.282M323.098 701.193C317.453 690.234 308.637 682.343 298.544 666.983M238.507 580.715C196.668 525.652 158.31 467.726 134.821 431.962M575.217 1054.29C516.278 979.015 460.466 902.58 424.356 845.478M329.028 715.866C323.828 700.832 313.256 683.991 290.423 658.637M240.033 586.693C196.899 525.711 155.042 473.02 133.568 435.647M570.262 1053.28C519.125 984.492 464.16 908.567 418.402 845.386M340.081 733.957C327.024 713.048 315.004 695.544 280.714 651.863M234.819 586.009C191.756 527.521 152.987 469.764 124.52 438.25M567.238 1055C535.679 1009.41 504.113 970.946 414.206 844.018M337.09 737.388C319.444 714.588 303.952 690.715 278.491 647.015M232.167 589.087C198.443 543.749 168.344 502.004 122.616 439.421M561.365 1050.51C518.63 992.21 472.38 929.916 407.753 842.991M342.285 747.113C324.875 721.099 309.305 702.591 268.939 646.424M227.922 586.199C193.616 544.039 158.295 496.943 123.6 440.495M559.147 1050.29C514.105 992.67 473.169 931.796 403.295 839.842M340.087 748.462C316.921 720.579 299.612 692.92 262.482 644.918M226.713 590.017C201.537 559.215 180.679 531.967 120.486 443.425M551.551 1049.24C513.538 993.485 476.847 940.681 396.68 836.715M341.591 754.471C308.33 708.538 273.032 667.628 252.232 639.798M221.63 590.499C181.671 530.379 139.1 472.368 118.334 447.591M547.937 1053.36C491.983 975.839 440.529 902.476 389.965 831.932M340.814 762.644C313.103 724.89 285.386 686.653 247.477 637.069M215.044 595.187C184.796 549.987 157.039 505.129 113.838 446.843M541.219 1048.57C501.117 986.292 456.216 922.732 385.053 833.734M341.772 769.941C304.345 713.654 266.361 668.299 242.508 637.932M213.027 596.175C182.375 544.141 153.176 503.437 109.41 448.933M537.253 1049.74C491.448 983.249 446.49 922.849 380.958 829.501M337.236 772.35C304.685 728.982 273.193 683.379 239.639 637.562M209.684 594.001C187.213 563.032 162.077 531.863 109.959 449.075M535.865 1048.15C483.398 978.293 429.832 906.063 374.212 824.762M337.72 778.137C309.085 736.335 277.171 696.195 235.651 635.517M210.471 595.843C170.972 547.528 137.436 504.133 107.108 452.588M526.955 1050.55C483.499 980.028 433.874 913.583 366.475 823.05M337.136 782.265C313.572 747.229 290.615 714.674 232.345 633.865M204.102 599.719C166.809 543.546 129.148 493.043 98.6688 455.861M525.747 1047.07C475.496 982.832 428.503 913.156 362.863 820.6M336.162 783.429C302.269 738.079 271.655 695.081 223.155 634.404M203.386 598.237C178.333 566.651 159.456 531.921 96.1292 452.347M520.649 1047.31C471.053 979.966 416.955 910.275 355.81 821.832M331.086 791.021C299.162 739.211 266.275 690.048 219.305 629.872M201.286 600.868C174.403 566.999 150.033 533.591 94.9551 456.291M514.882 1048.91C481.729 999.699 440.056 947.995 348.469 817.255M331.346 795.176C309.603 757.292 280.285 723.297 217.221 629.639M198.849 606.19C163.42 559.061 128.926 510.023 94.8649 456.537M509.517 1046.14C451.777 964.102 387.16 881.75 343.936 813.914M333.109 794.834C298.558 746.38 265.454 699.958 210.473 631.572M193.79 605.229C161.264 555.443 125.727 511.388 91.498 459.029M507.966 1049.35C453.567 973.077 400.322 898.705 336.12 811.919M329.99 801.963C281.08 733.575 237.75 668.82 205.268 627.442M191.412 610.118C161.332 571.418 134.559 531.122 86.4612 465.119M503.352 1045.21C462.91 997.699 428.893 945.087 329.955 806.079M328.143 802.739C285.784 744.14 246.614 682.69 201.471 625.883M189.438 607.705C163.8 573.123 136.927 531.799 83.8295 466.263M497.367 1046.61C390.162 896.245 281.343 743.85 196.044 629.105M186.945 610.362C155.749 565.028 122.466 521.969 84.0251 466.099M491.327 1045.03C428.234 961.285 365.549 871.734 193.385 628.431M179.742 614.929C156.803 575.216 129.732 540.622 75.9884 466.647M486.783 1045.12C371.711 884.77 257.434 725.848 188.833 626.574M181.65 619.051C140.705 559.553 101.748 502.908 77.1256 469.528M481.699 1043.03C319.868 814.997 156.074 587.741 73.2697 473.372M476.362 1042.35C396.329 931.096 315.167 814.395 71.2264 476.685M471.956 1041.45C359.324 885.016 246.456 725.56 67.8404 477.916M468.485 1040.06C365.65 897.063 261.89 750.448 65.3261 479.553M461.3 1040.02C331.878 856.374 197.288 674.111 62.5794 481.644M456.418 1036.66C336.791 868.787 217.017 704.598 61.6962 486.112M453.603 1037.01C294.703 818.406 138.975 598.796 59.2914 487.525M447.874 1034.56C367.6 926.818 290.286 817.076 56.1564 490.659M442.817 1034.04C292.915 829.421 142.944 619.868 53.2945 493.478M437.992 1033.7C295.049 836.979 155.141 641.124 52.391 494.718M432.375 1031.84C319.382 874.22 208.212 716.814 49.4664 499.025M428.119 1032.42C279.04 824.735 130.396 616.152 47.8964 499.306M422.259 1031.29C344.791 919.573 263.47 804.381 45.6815 502.431M416.151 1027.24C303.945 865.329 188.753 706.404 42.3677 505.843M411.68 1027.04C272.29 835.241 136.863 645.746 39.6196 508.469M406.728 1024.43C308.315 888.903 209.502 751.104 36.5354 510.334M401.99 1024.33C250.023 819.986 104.165 615.425 34.9613 514.992M395.587 1021.07C311.581 906.139 225.856 785.79 33.9247 518.297M388.985 1020.37C275.468 857.619 159.412 695.975 31.04 520.754M385.185 1017.8C250.881 829.212 116.742 640.342 29.2322 523.268M378.493 1017.42C237.869 822.651 98.4031 627.39 26.8882 526.408M374.825 1016.95C285.285 893.855 197.565 771.335 27.1244 529.693M369.395 1014.24C238.747 832.426 111.019 652.423 23.5812 534.361M363.001 1011.85C253.012 858.911 143.711 708.622 21.3703 535.846M359.109 1011.84C281.773 901.483 199.908 788.617 19.2548 541.572M352.125 1008.78C216.585 827.219 84.06 639.76 18.9005 545.174M348.104 1008.96C273.434 900.12 197.456 794.875 17.4382 547.928M340.134 1005.4C248.744 874.332 156.522 744.023 15.0521 551.485M335.435 1002.83C237.551 861.947 138.334 725.422 14.481 553.045M328.509 1000.33C242.589 881.191 156.479 761.236 10.8637 559.181M323.346 999.287C202.201 830.224 81.5603 658.911 9.56691 563.037M317.389 996.008C240.793 891.216 162.57 785.205 9.66925 564.983M310.149 994.253C239.747 888.047 165.296 786.698 8.45101 569.504M304.273 990.751C214.26 859.441 119.644 728.912 7.65476 576.074M298.453 986.611C216.389 866.308 130.73 748.193 4.94483 580.429M294.719 984.789C230.633 903.399 169.303 818.731 4.67561 583.008M286.057 983.486C207.222 872.504 127.585 763.515 4.25635 587.45M281.073 980.659C187.173 847.509 93.5373 717.425 4.15326 594.093M276.14 979.263C170.204 829.69 65.8719 681.175 2.647 596.903M269.901 976.932C188.36 864.723 110.695 754.432 0.898591 604.202M265.211 976.782C161.301 829.341 59.0417 683.508 2.07044 608.616M258.995 971.339C192.882 879.589 126.689 788.841 3.09162 615.064M252.003 968.271C179.702 862.566 105.453 759.414 0.918129 621.597M243.461 965.772C201.771 909.628 161.501 850.622 120.639 794.694M121.203 792.52C77.2878 730.119 33.4582 669.595 4.17909 625.69M238.715 962.874C206.24 909.337 167.671 863.516 124.151 802.636M118.719 788.766C82.3323 742.177 48.1958 693.761 2.09094 631.71M228.685 959.591C188.105 901.012 148.899 838.873 120.349 806.067M107.249 787.64C82.6965 754.063 53.4298 714.25 2.91125 637.217M225.203 955.114C194.803 914.775 167.154 880.142 123.195 813.095M103.087 786.23C69.2928 740.967 34.6488 690.252 1.9604 646.921M213.722 950.857C180.315 902.887 151.277 862.525 122.749 815.147M95.1599 779.413C66.1488 741.36 29.6501 693.059 10.1195 655.893M209.796 942.267C174.716 893.702 140.061 846.979 122.625 819.162M89.2394 777.03C69.6658 745.81 46.8344 715.018 11.7082 665.736M200.297 938.467C182.033 914.537 160.314 879.981 122.853 826.263M83.1075 775.505C69.5601 753.308 51.2873 730.946 10.4991 677.352M192.08 935.788C173.709 904.104 149.78 878.12 124.05 837.789M72.4608 766.239C59.2122 744.454 38.448 717.231 16.2356 689.801M182.504 930.887C170.033 908.784 160.252 889.96 126.508 846.539M60.2278 750.115C47.1479 742.222 37.3884 728.551 25.4969 709.437M180.3 925.353C165.07 907.272 153.197 895.173 127.88 854.561M168.075 913.222C156.58 898.233 147.336 892.768 130.399 865.37M916.159 42.1795V42.1795ZM929.938 884.737V884.737ZM316.393 682.491V682.491Z" stroke="url(#paint0_linear_1473_11335)" stroke-width="0.857165" stroke-linecap="round"/>
<defs>
<linearGradient id="paint0_linear_1473_11335" x1="915.698" y1="149.32" x2="212.15" y2="400.635" gradientUnits="userSpaceOnUse">
<stop stop-color="#3CA0D2"/>
<stop offset="1" stop-color="#48DCA6"/>
</linearGradient>
</defs>
</svg>
