<svg width="201" height="497" viewBox="0 0 201 497" fill="none" xmlns="http://www.w3.org/2000/svg">
<path opacity="0.4" d="M-408.484 -164.416C-403.715 -170.033 -403.241 -171.251 -397.275 -176.696M-409.22 -156.813C-402.059 -169.408 -395.547 -182.525 -388.728 -188.794M-409.666 -154.301C-404.857 -165.039 -396.41 -178.018 -383.755 -190.775M-411.954 -148.25C-397.836 -165.421 -386.578 -178.559 -380.947 -191.624M-411.427 -143.354C-402.459 -160.195 -390.239 -173.377 -371.392 -197.705M-412.346 -141.985C-399.411 -157.043 -387.131 -173.01 -370.768 -197.692M-410.572 -137.974C-399.719 -158.682 -381.104 -176.95 -364.565 -201.145M-411.891 -134.147C-395.72 -158.352 -381.069 -178.879 -362.085 -200.035M-413.601 -130.37C-392.093 -152.873 -377.04 -179.744 -360.962 -198.004M-410.672 -127.58C-387.773 -152.607 -371.695 -181.908 -357.752 -200.574M-408.238 -122.466C-395.318 -143.668 -378.019 -169.606 -355.714 -201.023M-408.813 -120.541C-393.645 -142.088 -381.574 -158.303 -349.784 -197.923M-408.801 -118.235C-397.271 -136.677 -382.925 -153.647 -348.7 -199.646M-405.538 -118.049C-387.222 -144.098 -366.756 -170.56 -345.666 -198.581M-406.974 -113.531C-392.838 -133.159 -379.403 -151.46 -344.449 -199.675M-401.818 -110.195C-390.79 -131.653 -379.015 -145.006 -340.275 -197.442M-404.705 -110.977C-382.871 -138.565 -362.779 -167.729 -337.979 -198.611M-400.465 -108.099C-376.204 -141.87 -352.746 -178.656 -338.131 -196.385M-399.005 -107.107C-385.361 -128.849 -367.287 -150.308 -335.123 -198.66M-396.858 -105.754C-387.082 -124.868 -370.011 -144.838 -333.013 -194.792M-395.934 -104.157C-380.46 -128.28 -365.342 -152.428 -331.815 -195.009M-397.185 -98.3008C-376.928 -128.663 -355.942 -155.596 -329.103 -196.342M-396.34 -99.9419C-378.487 -121.943 -361.506 -147.445 -328.275 -193.209M-393.573 -95.9813C-375.232 -122.047 -355.56 -146.434 -322.383 -193.841M-390.478 -96.5993C-372.777 -116.977 -355.434 -143.232 -322.638 -189.507M-391.967 -93.8968C-372.838 -120.012 -352.908 -143.039 -320.178 -191.184M-386.866 -90.4545C-361.996 -128.195 -336.476 -161.817 -318.844 -187.439M-386.91 -90.4002C-368.442 -111.752 -350.39 -136.389 -318.231 -188.224M-384.358 -87.6643C-371.37 -108.307 -354.451 -129.142 -316.447 -185.98M-383.505 -86.4678C-361.22 -117.777 -343.412 -146.86 -312.502 -186.382M-383.34 -82.8069C-363.017 -111.157 -342.426 -140.532 -310.291 -182.944M-379.354 -81.8317C-357.709 -120.945 -329.553 -155.434 -309.061 -179.726M-380.979 -82.0736C-363.809 -101.772 -350.042 -124.173 -307.711 -178.015M-376.413 -79.1535C-355.826 -108.505 -332.044 -140.405 -306.472 -178.839M-378.085 -78.621C-357.108 -108.162 -335.976 -135.156 -305.622 -176.902M-374.06 -74.355C-351.785 -109.863 -327.152 -141.419 -303.447 -172.832M-371.268 -72.8868C-358.628 -92.7425 -343.168 -115.134 -300.816 -172.109M-370.473 -71.0675C-348.61 -103.785 -325.339 -135.111 -300.805 -169.268M-369.384 -71.8097C-348.255 -98.4652 -328.222 -125.816 -298.52 -168.745M-366.901 -71.1756C-346.89 -97.9182 -325.038 -128.467 -296.624 -164.766M-365.084 -67.5769C-340.917 -107.744 -314.906 -145.319 -296.411 -162.532M-363.249 -65.6506C-344.042 -97.5226 -321.081 -127.162 -294.359 -163.006M-360.98 -65.6083C-338.843 -96.8343 -317.946 -126.223 -295.514 -159.499M-363.087 -61.5699C-344.975 -81.4641 -330.3 -103.68 -293.99 -158.056M-361.018 -63.067C-338.533 -93.0304 -319.153 -120.687 -290.953 -156.141M-357.864 -58.8404C-337.259 -89.3373 -320.058 -117.761 -286.961 -155.234M-357.463 -60.449C-328.519 -95.5102 -302.092 -133.938 -287.644 -155.076M-353.267 -55.3052C-338.678 -75.9697 -322.123 -96.3394 -287.16 -153.496M-351.211 -55.0395C-331.155 -85.0629 -310.251 -116.05 -282.201 -149.512M-352.39 -55.0365C-328.274 -85.176 -309.391 -113.032 -282.003 -150.801M-349.652 -53.3663C-334.644 -72.5634 -319.645 -93.1874 -279.184 -147.706M-347.992 -50.7669C-327.503 -78.5078 -307.175 -105.894 -278.708 -146.24M-344.052 -48.3447C-332.697 -67.6705 -320.572 -86.3663 -275.383 -143.857M-346.042 -49.4088C-322.634 -74.8082 -304.207 -102.111 -275.851 -142.44M-344.05 -46.1944C-318.214 -75.8645 -298.238 -109.233 -273.531 -141.454M-341.747 -44.0926C-318.429 -75.053 -296.96 -109.421 -272.638 -139.606M-337.623 -44.7677C-321.902 -66.968 -304.844 -88.8007 -271.659 -138.02M-336.517 -41.2915C-316.241 -67.7428 -297.745 -94.1085 -268.742 -139.413M-336.271 -40.5748C-317.741 -65.1961 -301.886 -92.6698 -268.134 -137.158M-333.697 -40.1542C-313.669 -64.8117 -292.906 -92.1 -265.647 -134.322M-333.626 -39.5329C-313.983 -63.864 -297.988 -89.9939 -261.794 -133.34M-330.666 -36.2785C-308.218 -72.4467 -280.409 -108.704 -263.547 -133.057M-326.627 -33.4334C-305.299 -69.0257 -279.655 -102.916 -261.46 -132.532M-325.685 -32.6214C-311.869 -53.1961 -298.714 -75.8115 -257.977 -128.91M-322.807 -32.8615C-303.64 -60.2165 -286.31 -87.6147 -256.331 -129.207M-322.395 -33.281C-301.674 -60.5128 -280.852 -85.637 -252.513 -127.152M-322.926 -30.7798C-299.862 -59.1501 -274.374 -88.8838 -254.024 -126.074M-319.205 -27.2805C-304.226 -52.4047 -283.397 -76.344 -249.819 -125.288M-316.716 -25.9719C-298.825 -51.0162 -281.566 -77.3021 -249.689 -121.088M-313.621 -26.9991C-287.85 -61.7499 -264.034 -95.6361 -248.842 -122.587M-314.767 -24.2313C-299.1 -44.9928 -284.209 -68.2855 -243.472 -121.342M-311.078 -23.8813C-286.939 -55.3238 -267.184 -89.7785 -241.199 -119.245M-309.62 -22.8556C-295.615 -44.9684 -278.251 -64.8321 -239.913 -116.482M-306.744 -21.9086C-287.153 -49.2973 -267.03 -78.0509 -239.869 -116.054M-306.633 -17.7449C-283.638 -52.8403 -259.839 -85.706 -237.67 -112.979M-304.527 -19.3396C-287.436 -38.6891 -272.6 -59.199 -236.277 -114.78M-300.612 -18.91C-285.877 -39.9146 -271.433 -63.223 -235.534 -111.948M-301.58 -16.9457C-274.495 -53.3441 -246.123 -89.3295 -232.057 -111.938M-299.968 -15.9561C-280.027 -45.0823 -259.437 -71.3984 -228.43 -110.1M-297.481 -12.3204C-281.596 -39.9733 -263.619 -62.1258 -229.243 -108.627M-296.453 -11.8852C-278.726 -36.3556 -259.699 -58.3611 -225.604 -107.589M-292.636 -9.25307C-275.517 -35.5191 -257.134 -61.3619 -222.705 -103.93M-292.623 -8.36336C-263.435 -44.7346 -236.689 -81.0708 -223.223 -105.68M-289.35 -8.73691C-271.919 -35.8284 -252.533 -64.7288 -220.892 -102.894M-285.662 -7.81965C-259.247 -45.0855 -232.894 -84.6136 -220.982 -103.74M-284.814 -7.04962C-266.373 -36.5949 -243.952 -63.0932 -218.236 -100.293M-284.049 -4.8183C-258.897 -38.0038 -233.71 -69.4193 -214.6 -101.488M-281.122 -2.11829C-261.141 -32.5452 -240.183 -60.1988 -213.99 -99.9753M-280.029 -1.42353C-263.462 -21.893 -244.25 -45.3719 -212.831 -97.2828M-277.349 -2.32595C-264.019 -21.2091 -247.307 -44.2037 -209.087 -97.0024M-274.792 1.21435C-261.075 -21.4843 -249.105 -41.4581 -207.205 -96.7459M-271.934 -0.0800704C-253.834 -27.221 -232.025 -54.8299 -204.216 -93.0167M-273.468 0.923349C-250.926 -24.9209 -231.691 -55.5366 -201.489 -91.4988M-267.981 3.4436C-251.092 -24.0796 -229.463 -54.3172 -201.056 -92.7238M-267.721 5.31254C-241.306 -29.6438 -215.784 -64.6313 -198.332 -88.8084M-265.209 4.19468C-241.761 -31.0423 -215.916 -66.5296 -198.997 -90.8117M-262.223 6.57209C-246.556 -15.3659 -229.92 -38.1218 -193.704 -87.0689M-263.637 6.73611C-247.205 -12.9939 -233.193 -33.7816 -195.092 -86.7115M-262.203 8.18689C-231.763 -28.7229 -208.863 -62.391 -191.746 -84.4621M-259.174 11.6499C-239.025 -13.8412 -218.644 -41.7194 -189.736 -84.2676M-256.283 11.6611C-239.52 -7.6962 -227.675 -28.8045 -187.69 -81.9478M-254.89 12.7505C-234.968 -18.9646 -210.697 -49.9516 -185.098 -83.2413M-251.243 14.1119C-235.493 -10.6937 -215.328 -38.2225 -185.398 -80.0219M-249.363 13.5555C-231.449 -7.9807 -213.918 -33.842 -180.858 -78.4863M-248.544 15.7334C-222.686 -13.9751 -203.094 -45.1128 -178.632 -79.1047M-246.815 17.1671C-218.862 -16.6154 -191.562 -54.0912 -179.893 -77.7215M-246.772 17.7426C-228.298 -1.33812 -214.269 -18.3996 -176.683 -77.1571M-242.953 19.8384C-227.352 1.96498 -212.974 -20.0245 -175.011 -77.0386M-240.992 21.3726C-219.297 -12.0186 -197.07 -42.5037 -174.031 -75.2855M-239.691 23.16C-212.822 -15.3959 -187.446 -53.461 -170.546 -73.9987M-237.352 22.9308C-218.376 -2.22259 -203.103 -25.5788 -166.652 -72.4645M-236.787 24.8388C-213.903 -3.25304 -191.141 -36.7543 -164.578 -72.1163M-231.938 24.9399C-214.736 2.41397 -192.972 -27.1461 -163.285 -69.5924M-232.73 26.345C-209.391 -0.635803 -187.681 -33.1832 -161.483 -68.8273M-229.785 26.5253C-206.496 -3.5558 -182.05 -37.6862 -160.13 -67.8261M-228.678 30.1099C-209.898 4.29491 -191.224 -17.9524 -158.051 -64.2966M-225.051 31.7029C-202.99 0.797234 -180.869 -33.0523 -156.978 -66.8122M-222.869 31.3552C-206.706 8.67195 -191.214 -11.7176 -155.873 -62.2664M-220.777 31.3381C-206.904 11.415 -190.145 -12.7717 -151.732 -62.5242M-219.228 32.2507C-199.856 9.23645 -181.642 -15.6038 -152.594 -60.7744M-218.541 37.4846C-192.354 2.75022 -165.432 -32.2487 -149.738 -59.3759M-217.405 36.762C-186.003 -2.03547 -161.317 -38.3261 -145.436 -60.9751M-214.255 37.7216C-197.959 13.9153 -180.636 -9.10206 -144.712 -55.6818M-211.669 40.7028C-189.865 9.68051 -170.944 -17.6399 -140.762 -55.5103M-207.961 41.2718C-187.333 12.7608 -164.484 -20.6646 -140.702 -57.4455M-206.657 40.1416C-193.193 19.447 -177.104 -2.6129 -138.234 -53.1442M-206.157 40.6414C-186.147 18.6261 -169.466 -7.3637 -137.477 -53.9269M-202.325 42.7217C-177.977 11.7192 -156.167 -20.2678 -134.716 -51.4269M-202.768 46.1289C-180.389 9.40619 -157.769 -22.1086 -134.718 -51.2516M-198.583 44.126C-186.534 26.5281 -170.959 6.34596 -129.245 -49.7106M-196.398 46.124C-174.523 10.961 -147.078 -22.5983 -130.684 -48.9295M-195.461 50.0213C-180.896 27.2137 -164.867 3.72797 -129.131 -47.0051M-195.088 47.9938C-176.332 18.9819 -153.335 -8.91188 -126.536 -45.2742M-190.403 48.5331C-171.669 23.018 -151.463 -3.10055 -124.523 -46.3117M-189.721 51.1807C-169.697 21.6795 -149.457 -2.7115 -121.129 -45.5419M-189.025 51.4883C-170.837 28.8458 -150.474 2.83406 -121.322 -44.5165M-186.148 54.1378C-171.32 35.1065 -157.741 12.0183 -116.367 -42.3422M-185.424 56.2335C-168.277 30.6888 -147.539 6.8943 -116.004 -39.7446M-183.837 55.7777C-157.461 21.8325 -134.606 -8.98813 -114.951 -39.5679M-179.178 57.1134C-159.506 23.5578 -132.967 -8.27262 -110.51 -38.4114M-415.473 388.425C-411.61 378.071 -403.281 368.354 -397.341 365.796M-179.643 59.2925C-159.448 30.4389 -137.726 5.38381 -111.342 -35.1419M-417.912 395.772C-412.243 385.253 -400.576 374.342 -392.126 362.325M-178.106 61.8105C-156.575 27.8489 -131.988 -0.434569 -109.464 -35.145M-418.506 401.266C-409.642 389.789 -402.303 377.062 -386.397 358.231M-173.427 61.5469C-147.269 26.2122 -119.569 -14.2779 -107.259 -34.4278M-418.632 404.573C-408.069 391.336 -396.435 372.014 -385.573 357.408M-171.996 62.7936C-150.406 32.444 -132.163 5.94877 -104.041 -31.2239M-420.255 413.174C-409.202 391.842 -393.756 377.51 -379.413 357.903M-170.69 64.4595C-148.832 33.7563 -126.299 1.38816 -102.744 -31.2006M-419.939 414.621C-403.925 395.264 -388.411 374.908 -375.655 354.136M-167.856 65.6428C-144.7 33.3713 -120.638 -0.68599 -101.538 -31.4444M-419.066 419.83C-400.545 393.644 -383.854 372.031 -374.625 356.315M-167.983 67.1874C-142.059 26.7728 -113.959 -8.46186 -96.7665 -29.1311M-420.884 420.684C-402.84 399.593 -385.139 377.375 -369.916 356.138M-163.665 65.6993C-140.066 30.6892 -114.6 -4.1577 -95.4421 -27.01M-417.691 426.852C-407.878 407.703 -392.046 389.034 -367.772 355.819M-164.945 66.9389C-138.835 34.1845 -117.778 4.18931 -92.5864 -26.2907M-418.249 430.297C-406.697 411.851 -391.437 392.16 -363.619 353.052M-162.93 69.4982C-139.094 36.303 -117.433 7.30698 -90.6464 -25.9682M-419.129 429.777C-404.141 412.62 -389.974 392.847 -362.71 353.061M-158.53 68.6781C-136.806 39.5071 -114.612 9.53941 -89.7342 -24.6459M-414.768 434.681C-397.671 404.973 -374.592 372.944 -359.108 353.01M-155.191 70.082C-133.507 42.5217 -110.919 13.6353 -87.6672 -25.4897M-415.545 436.136C-400.905 413.183 -384.476 395.262 -357.785 353.69M-157.106 73.2442C-131.32 39.9157 -110.661 6.47576 -85.0103 -23.1999M-412.674 438.372C-396.136 411.457 -376.387 389.118 -354.402 354.371M-154.268 72.6257C-138.56 54.354 -120.073 35.0963 -84.4529 -22.7337M-413.285 440.754C-398.269 416.851 -380.452 398.305 -352.825 356.821M-149.568 73.418C-130.322 49.8028 -112.79 22.4288 -82.4242 -19.1992M-412.606 442.893C-397.068 417.03 -379.716 395.381 -350.41 354.887M-150.472 77.4791C-126.001 42.0471 -102.134 11.0515 -80.6005 -20.1445M-410.404 443.146C-385.213 410.597 -361.661 376.953 -345.246 354.772M-149.19 76.882C-126.782 46.8329 -104.711 17.0104 -80.1184 -19.3626M-409.596 446.125C-391.004 421.478 -369.583 393.997 -345.195 355.825M-147.192 79.1962C-123.392 41.7581 -96.6781 7.58503 -76.1873 -15.1785M-409.377 449.583C-383.755 410.675 -357.108 377.174 -343.991 355.214M-142.615 81.8267C-117.357 46.0838 -95.9173 11.909 -75.6674 -16.7697M-407.785 449.042C-390.206 428.982 -375.258 409.624 -340.92 356.832M-142.272 80.9921C-117.674 46.0143 -89.93 12.44 -74.166 -14.8292M-406.485 453.359C-389.258 429.605 -370.157 404.614 -339.317 360.006M-139.686 83.7347C-118.614 50.4409 -95.8982 21.118 -71.4509 -12.4487M-403.753 454.501C-377.586 417.784 -351.53 380.153 -333.494 360.764M-136.381 84.736C-115.871 51.9732 -91.6385 19.522 -69.8598 -11.1023M-400.915 455.933C-379.899 425.904 -360.19 400.018 -333.853 359.79M-134.239 82.9342C-105.978 46.8113 -82.1236 6.92264 -68.1234 -10.0227M-398.131 456.269C-375.313 420.501 -348.106 387.579 -330.834 360.949M-132.026 85.31C-109.626 54.0881 -86.8786 19.3816 -63.3695 -12.0693M-397.48 459.039C-382.16 435.063 -367.366 415.112 -327.939 359.975M-133.062 86.024C-107.139 56.3973 -87.0461 23.5596 -63.0099 -8.4722M-394.844 458.715C-376.448 432.907 -356.506 407.007 -324.949 362.17M-128.364 86.8488C-102.456 54.6369 -76.6478 17.7687 -59.6002 -7.92491M-393.267 461.541C-376.054 436.592 -360.026 412.322 -322.608 362.226M-127.023 90.5049C-114.242 64.748 -93.781 43.3446 -58.0467 -7.90712M-393.935 462.56C-369.149 434.228 -348.614 403.29 -322.58 363.106M-125.379 92.1264C-101.313 55.6994 -74.0934 17.8132 -58.7267 -4.83491M-389.721 464.734C-368.68 432.84 -349.277 404.47 -318.092 362.711M-124.138 90.4571C-107.876 66.94 -88.9203 44.0001 -55.1697 -5.37688M-390.641 463.966C-373.915 438.183 -356.435 414.483 -317.021 363.294M-122.258 93.8339C-107.338 70.0002 -90.7277 49.8412 -53.3053 -4.72902M-387.084 466.299C-365.443 437.114 -347.976 407.789 -315.895 365.084M-122.092 93.6947C-98.4858 67.4923 -82.1013 42.2009 -52.5692 -0.70781M-384.477 468.218C-361.785 436.538 -344.294 408.604 -310.079 366.268M-117.175 96.6521C-99.3038 67.0335 -80.5081 39.98 -50.6598 0.670613M-381.686 465.417C-355.872 432.836 -331.039 396.08 -310.833 366.271M-116.455 95.7823C-100.94 71.2258 -81.6536 45.2941 -47.3418 1.11998M-380.793 469.966C-359.306 443.007 -342.554 414.076 -306.324 367.135M-112.961 95.9059C-92.9515 71.9897 -73.5658 41.7949 -46.3179 0.957609M-375.671 468.499C-362.221 444.935 -345.709 421.477 -303.741 367.974M-112.469 97.2968C-87.9882 63.7971 -62.5385 24.6434 -41.762 4.89546M-375.427 471.197C-350.44 431.602 -320.57 394.93 -299.953 367.797M-109.826 99.5987C-86.7648 67.1106 -68.1081 38.5241 -42.5214 2.74169M-375.112 471.387C-353.249 438.997 -333.544 413.777 -298.549 365.449M-107.33 99.2232C-95.1985 79.0404 -77.6423 57.5032 -40.5698 5.69525M-372.21 471.409C-348.707 443.297 -330.237 412.379 -295.644 367.95M-106.246 102.518C-80.2892 65.7726 -50.0979 26.1346 -38.8103 4.95642M-368.238 471.507C-349.666 444.455 -328.576 413.779 -294.232 370.09M-105.015 104.311C-86.3962 72.5071 -63.8556 44.6755 -36.9937 6.78113M-366.688 471.485C-349.78 450.194 -331.457 421.285 -292.919 368.365M-104.39 104.318C-73.9377 63.4659 -48.0385 26.6073 -33.3829 9.71347M-364.514 473.076C-347.327 452.018 -331.979 431.428 -290.697 371.213M-99.1465 105.961C-71.7902 68.0894 -46.5645 31.2228 -30.4638 9.23843M-361.816 475.19C-347.419 449.211 -329.562 430.343 -287.689 370.269M-100.168 108.741C-72.9142 73.1813 -47.9512 36.8433 -28.5922 12.7169M-360.259 474.834C-332.276 432.79 -300.94 392.991 -286.009 371.181M-96.5895 109.584C-83.1852 89.3007 -70.055 67.5086 -27.5968 11.4043M-355.073 475.965C-333.949 443.324 -308.616 409.378 -284.087 369.341M-95.1114 109.525C-78.2257 87.3013 -64.2536 67.3734 -27.7501 12.0617M-353.525 476.67C-334.394 451.378 -313.553 423.867 -278.388 373.058M-94.6771 112.141C-77.9836 90.7261 -64.637 68.5266 -24.5746 13.5305M-353.591 476.614C-332.674 452.564 -314.668 426.996 -277.943 370.688M-92.3208 110.388C-76.5463 89.6014 -63.212 69.0004 -21.5043 14.028M-352.012 475.671C-332.519 449.99 -314.596 424.123 -273.85 372.881M-89.3823 113.661C-67.9458 81.4541 -42.6284 53.3389 -21.3269 15.9126M-346.241 477.807C-331.391 451.311 -314.533 430.074 -271.663 372.184M-87.8078 114.403C-62.4644 75.8207 -32.5029 38.3345 -20.0016 18.7664M-346.522 477.053C-324.597 447.104 -302.1 415.157 -271.106 372.256M-83.6997 113.65C-69.6164 93.4383 -55.4005 68.3083 -15.6531 17.9793M-344.354 477.32C-326.322 456.161 -308.224 431.168 -267.611 374.157M-82.8345 115.527C-60.8133 82.2126 -33.8437 50.506 -14.8632 22.4398M-342.367 479.692C-316.632 447.359 -294.447 416.516 -265.843 374.487M-82.3467 118.968C-55.2771 79.023 -25.4166 42.7318 -13.382 22.9201M-338.996 478.217C-320.933 451.951 -300.489 426.554 -262.308 375.465M-79.8985 117.693C-53.7701 81.0567 -23.3453 44.4472 -11.3499 21.0161M-337.431 480.727C-320.997 457.314 -302.762 431.985 -258.916 372.532M-76.369 120.813C-63.4958 97.5598 -46.3348 74.7299 -10.685 22.6799M-334.094 482.008C-313.242 452.939 -294.247 428.533 -256.609 374.487M-77.4887 119.668C-49.5254 88.8523 -24.2401 51.7895 -4.99991 26.561M-330.247 482.623C-301.45 442.312 -275.457 404.003 -253.143 374.713M-71.8721 122.796C-51.4748 93.2798 -26.9697 60.1675 -5.10196 26.0599M-330.756 483.098C-304.001 450.846 -283.081 415.756 -251.207 376.935M-72.3443 122.294C-51.1823 93.9905 -28.6568 67.2468 -1.50619 27.9105M-326.601 483.992C-306 452.882 -288.553 427.75 -249.859 374.35M-68.8329 124.72C-49.6489 100.351 -34.9995 73.8178 1.15278 30.1993M-323.498 483.983C-300.326 450.734 -277.638 414.903 -245.63 374.058M-68.2555 124.174C-45.1662 94.921 -21.62 62.7353 0.796228 29.1667M-322.381 483.115C-300.234 455.761 -281.72 426.544 -246.041 374.529M-67.2128 126.688C-40.8408 89.878 -17.2529 55.268 3.36739 30.8466M-320.794 483.704C-304.142 458.13 -284.952 435.929 -240.765 376.822M-63.1154 128.621C-46.9173 108.133 -31.6519 84.0594 3.71513 31.1416M-316.634 483.018C-292.892 454.775 -274.336 427.08 -240.436 378.001M-61.4043 130.151C-39.7931 95.2168 -15.4991 67.6573 7.32144 34.2395M-315.321 484.891C-291.745 450.054 -266.251 419.269 -234.719 378.408M-61.3088 131.942C-36.5721 97.6322 -14.9866 66.7463 7.5248 34.0562M-310.692 484.238C-280.967 445.043 -250.705 405.972 -235.225 375.952M-57.7559 132.747C-34.9397 101.423 -16.9406 72.0298 11.1692 36.9641M-310.912 485.313C-281.298 445.473 -254.291 408.89 -230.155 376.932M-54.901 130.473C-32.4076 102.998 -13.2825 73.4172 13.4204 37.8128M-307.983 487.563C-279.484 447.491 -249.742 409.883 -228.774 378.126M-54.3673 132.839C-27.0931 100.544 -2.21563 63.3232 16.5448 35.8073M-305.689 487.4C-272.362 444.154 -244.457 403.247 -225.137 378.304M-53.2038 133.543C-33.3999 106.862 -12.7997 78.9703 15.4708 38.0751M-300.167 488.148C-278.131 458.411 -257.589 426.319 -224.852 376.288M-50.9071 135.796C-35.0435 116.233 -21.9292 93.2355 18.1088 40.9683M-301.099 488.806C-282.789 464.088 -267.041 438.003 -220.066 377.267M-48.4782 135.928C-24.2176 103.149 -1.72981 68.7627 19.5277 39.515M-297.741 486.28C-276.73 462.702 -260.885 435.571 -217.365 378.729M-46.6465 137.473C-27.9495 115.299 -11.7429 86.5125 25.1029 43.504M-293.387 488.855C-275.877 464.818 -259.863 438.892 -215.966 376.286M-45.2723 139.259C-24.6631 113.564 -5.9689 87.7329 25.2217 44.2447M-291.098 489.463C-271.889 463.082 -254.159 438.564 -211.301 377.466M-42.3627 139.723C-22.9638 113.608 -2.24151 84.3906 26.6735 43.9597M-287.183 486.592C-260.516 446.324 -231.582 409.055 -210.438 378.241M-39.7602 140.61C-18.2973 112.705 0.282434 85.1679 29.5481 46.5533M-287.105 487.57C-255.911 445.308 -223.691 403.67 -207.719 378.697M-36.4028 143.835C-24.0737 120.444 -11.2332 100.421 30.498 46.7701M-284.746 488.793C-266.031 467.933 -250.601 442.011 -202.611 377.097M-37.0132 144.982C-18.8163 114.086 1.94403 85.203 34.9114 47.8771M-282.041 488.084C-262.165 465.364 -247.414 440.758 -200.532 377.771M-35.5035 143.061C-7.74657 111.428 14.5519 78.4921 36.8877 47.0425M-277.217 490.679C-262.43 464.624 -246.49 437.389 -198.089 375.502M-30.4305 144.347C-11.6271 115.508 7.9005 87.3132 35.6702 48.9347M-277.07 490.225C-258.721 469.235 -241.822 442.937 -195.42 374.643M-31.0202 147.216C-9.09875 123.577 9.1456 96.1365 39.7295 51.0571M-273.504 490.646C-246.994 457.389 -224.08 424.861 -190.085 375.118M-27.4936 148.886C-5.53857 120.286 12.3881 91.4376 40.7665 50.2969M-268.857 489.784C-243.547 449.31 -211.346 408.101 -187.343 373.756M-26.2673 149.871C-2.15898 116.584 23.2593 82.845 42.2982 53.5418M-266.434 489.303C-250.407 465.309 -231.698 440.837 -185.351 375.564M-25.1203 149.813C-9.90085 127.138 5.71101 108.608 45.5082 52.9383M-266.089 490.593C-232.492 446.691 -201.707 400.893 -183.338 375.695M-19.9052 151.108C-4.57455 126.091 15.3674 97.6529 46.3363 56.089M-261.768 491C-243.824 464.018 -221.571 430.818 -181.844 375.201M-20.1765 150.48C-3.88736 129.948 9.14734 111.745 48.3097 55.1885M-261.818 490.275C-235.892 452.144 -206.852 415.468 -176.758 376.689M-18.7792 152.117C7.06302 120.479 34.3968 86.4063 51.0266 56.4615M-256.954 490.308C-229.251 451.562 -197.085 410.957 -174.564 375.466M-13.892 154.317C7.39135 119.675 31.722 87.2813 55.2213 58.1869M-256.408 493.416C-231.301 462.797 -211.734 429.596 -170.578 375.476M-13.5605 153.839C4.30885 127.742 22.0008 103.686 56.9495 59.158M-253.313 492.502C-235.64 465.084 -215.212 436.389 -168.183 375.728M-12.6994 154.9C17.535 119.037 44.3932 80.2803 58.6098 61.1843M-250.793 491.13C-226.388 460.754 -204.526 425.32 -166.366 373.262M-9.51736 156.072C7.49869 129.83 25.6645 102.751 59.0833 60.1958M-247.575 493.177C-229.259 464.223 -208.145 436.029 -164.093 373.243M-6.64412 157.589C16.9401 126.371 42.4258 92.9345 59.7258 60.5976M-244.113 492.234C-229.897 468.996 -210.314 444.08 -160.373 374.859M-7.64711 158.738C15.9645 127.988 38.2149 94.6894 64.4648 63.3424M-243.638 495.062C-214.771 454.156 -185.738 411.103 -154.674 373.206M-5.13728 159.342C23.5714 124.557 51.0097 84.8709 65.8718 63.9642M-239.243 492.53C-212.11 453.816 -181.911 410.744 -153.602 371.901M-3.44359 161.567C12.1414 140.462 27.2217 123.519 69.8501 65.3869M-238.674 495.285C-216.396 470.088 -198.262 444.532 -151.044 373.281M0.498048 160.988C26.4894 127.491 49.4111 92.4622 68.6389 67.7912M-232.551 495.439C-212.384 464.767 -193.451 436.997 -146.317 373.259M0.803256 162.711C15.7354 144.613 31.6005 123.093 73.2329 67.8357M-231.698 495.943C-207.562 460.075 -183.502 429.784 -142.908 372.399M5.18831 165.819C32.0991 126.697 61.6016 88.5192 73.4582 66.6951M-230.707 494.433C-197.465 447.857 -164.518 401.865 -141.708 372.498M6.30053 164.371C34.305 128.032 60.2942 91.9756 75.7378 67.3633M-225.807 495.596C-198.505 459.442 -173.6 423.68 -136.127 371.414M10.0004 165.503C29.8935 140.102 50.8354 109.092 77.0483 67.7641M-222.759 492.493C-189.026 447.254 -156.618 404.27 -135.017 370.249M11.9457 166.96C28.666 145.061 42.638 121.828 81.8827 71.1568M-221.806 493.341C-198.304 457.895 -171.408 423.822 -129.576 369.779M13.0873 170.352C32.4506 136.747 58.4034 107.55 84.2909 71.4553M-217.695 495.43C-188.221 448.123 -157.231 403.859 -127.046 368.275M16.2113 169.873C34.029 143.014 56.5396 112.921 84.5566 73.2727M-216.338 494.798C-190.513 459.969 -164.148 426.841 -125.058 368.378M16.3861 172.184C35.1068 143.702 52.5819 120.204 86.7863 73.0346M-213.483 496.148C-181.972 451.183 -153.988 410.503 -120.441 365.888M19.9855 170.637C41.2251 142.336 63.3721 109.702 87.866 74.6871M-209.321 493.222C-182.041 450.965 -150.982 409.803 -117.261 366.38M19.2304 171.552C38.6276 145.027 56.5469 121.424 90.655 75.4629M-207.23 493.68C-180.163 460.304 -156.452 421.923 -115.511 367.58M23.4265 173.034C39.454 151.675 55.232 126.079 94.0247 77.2082M-204.297 493.671C-184.761 464.218 -165.345 438.883 -112.915 367.255M25.6944 175.548C48.075 145.463 68.0913 115.45 97.1601 77.6478M-200.707 494.36C-172.6 454.008 -145.121 417.878 -108.972 366.576M26.5632 177.291C44.7944 150.864 59.3737 129.282 95.8372 78.3853M-197.16 494.996C-179.58 468.814 -157.936 440.626 -105.381 364.538M29.2619 177.343C52.5677 142.443 75.0888 109.317 97.7692 78.9879M-196.937 495.694C-168.732 457.188 -139.367 417.258 -101.874 363.681M33.2973 176.411C50.9545 148.831 70.0493 119.724 100.279 81.0511M-191.826 495.4C-165.341 458.503 -138.752 421.975 -98.7863 363.753M33.3236 178.659C57.4895 143.984 84.7856 114.243 102.051 82.7878M-188.688 492.771C-161.522 456.371 -131.567 417.898 -93.9106 362.479M33.9875 179.059C63.0557 143.107 88.9418 105.357 107.208 81.569M-186.765 495.659C-162.023 459.919 -137.424 422.91 -91.6254 361.164M37.0592 182.531C59.9152 150.536 80.7305 119.2 109.126 83.0934M-183.615 493.837C-158.144 459.377 -133.672 422.434 -86.1405 358.869M38.6985 181.913C59.3859 152.898 79.5102 126.402 108.544 85.271M-182.544 495.789C-153.665 455.766 -124.595 418.209 -83.8093 360.189M-12.6742 261.104C-8.94706 253.869 -3.12719 248.66 3.53605 238.519M43.1713 181.567C70.7924 145.216 96.1154 106.974 111.622 83.3642M-179.117 494.21C-140.207 444.515 -103.361 394.055 -79.522 356.357M-16.5888 270.791C-13.156 260.866 -6.17672 249.748 8.89731 233.01M42.1638 185.514C70.6394 145.255 98.2728 110.469 112.449 85.7969M-175.845 493.545C-142.086 448.131 -105.8 398.007 -75.5914 356.297M-23.8855 282.734C-15.2655 268.93 -7.33033 257.375 15.3071 228.538M45.6059 185.062C74.0348 146.45 99.6294 108.32 118.422 87.5149M-173.849 494.681C-153.015 464.58 -132.176 439.189 -72.8212 355.393M-21.9112 284.999C-10.2619 269.947 -0.0343103 254.186 16.7744 225.337M47.3567 187.094C69.6206 157.163 89.4907 129.604 119.679 88.2883M-169.972 491.713C-141.76 453.227 -111.226 412.102 -68.561 354.716M-25.3405 291.42C-13.847 274.245 -3.56821 262.027 23.0807 224.947M50.1589 185.188C72.8067 157.355 96.125 126.263 119.03 88.9975M-168.508 491.571C-138.772 453.53 -111.747 413.342 -65.6183 352.636M-23.8898 292.31C-8.5957 273.902 2.83089 255.643 27.3435 223.953M50.957 187.708C67.578 167.374 81.3477 149.385 121.085 90.9313M-163.493 490.875C-138.398 454.069 -114.175 419.208 -61.2512 350.572M-24.8828 296.277C-2.92455 265.953 20.3784 238.945 34.1099 220.573M54.3129 188.026C80.6925 148.337 108.797 110.039 122.507 93.6818M-161.108 493.595C-124.168 442.419 -90.1989 393.986 -56.8178 347.415M-24.3694 301.672C-6.07518 276.748 12.2226 251.505 37.2493 218.771M58.6606 191.122C78.63 161.281 96.9545 131.667 125.475 93.1881M-156.672 490.431C-130.198 449.319 -100.556 407.358 -53.5751 348.604M-25.0018 306.49C-0.293339 269.33 24.7827 239.388 40.5299 219.341M59.9921 191.774C80.2283 157.422 99.5047 130.55 128.398 94.5681M-154.054 491.207C-123.815 447.311 -94.1346 407.436 -50.8718 345.81M-22.0074 308.08C-0.518269 279.449 20.2723 249.344 42.4235 219.096M62.1995 190.338C77.034 169.893 93.6283 149.316 128.035 94.6617M-153.138 490.155C-118.5 444.039 -83.1374 396.354 -46.4183 342.682M-22.327 311.9C-3.42314 284.304 17.6458 257.805 45.0564 217.746M61.6795 191.554C87.7562 159.658 109.896 131.009 129.918 96.9807M-147.255 491.74C-118.567 445.184 -85.8056 401.319 -41.3105 341.551M-21.9417 314.626C-6.38495 291.496 8.77067 270.004 47.2391 216.655M65.8843 194.113C90.5046 157.029 115.367 123.688 135.489 99.1414M-146.458 489.443C-113.283 447.035 -82.2596 401.037 -38.9256 339.933M-21.2985 315.394C1.07713 285.455 21.2874 257.069 53.3059 217.011M66.3572 193.135C82.8964 172.282 95.359 149.355 137.166 96.822M-143.093 489.604C-110.35 445.143 -74.6362 399.135 -34.2694 340.747M-17.9476 320.406C3.12794 286.203 24.8395 253.746 55.848 214.02M67.7432 194.871C85.4907 172.512 101.58 150.457 137.941 99.4254M-139.285 490.66C-117.398 458.171 -89.887 424.037 -29.4232 337.725M-18.1189 323.149C-3.76491 298.139 15.5902 275.696 57.2236 213.866M69.3523 198.385C92.7418 167.272 115.514 134.898 138 99.5878M-135.743 488.832C-97.6249 434.67 -54.9663 380.304 -26.4304 335.519M-19.2828 322.923C3.52699 290.935 25.3811 260.289 61.6786 215.142M72.6923 197.751C94.1649 164.883 117.626 135.799 140.223 101.233M-134.719 490.949C-98.8066 440.595 -63.6552 391.497 -21.2706 334.202M-17.2241 327.63C15.0654 282.482 43.6709 239.732 65.1149 212.415M74.2623 200.978C94.1203 175.43 111.795 148.827 143.548 105.254M-131.674 488.215C-104.974 456.85 -82.517 422.117 -17.201 330.347M-16.0043 328.142C11.9596 289.456 37.8193 248.889 67.6211 211.386M75.5653 199.385C92.4909 176.555 110.232 149.274 145.285 106.009M-127.722 489.138C-56.948 389.872 14.8918 289.265 71.2039 213.513M77.2111 201.139C97.8057 171.211 119.779 142.785 145.156 105.9M-123.735 488.1C-82.082 432.81 -40.6988 373.691 72.9595 213.068M81.966 204.154C97.1103 177.937 114.982 155.099 150.462 106.262M-120.735 488.159C-44.767 382.297 30.6761 277.38 75.9644 211.842M80.7066 206.876C107.738 167.597 133.456 130.201 149.711 108.164M-117.378 486.774C-10.5416 336.235 97.5912 186.206 152.257 110.702M-113.855 486.328C-61.0195 412.881 -7.43799 335.837 153.606 112.889M-110.946 485.731C-36.5893 382.459 37.923 277.191 155.841 113.702M-108.655 484.814C-40.7659 390.413 27.7339 293.621 157.501 114.782M-103.911 484.79C-18.4699 363.551 70.3827 243.225 159.314 116.163M-100.688 482.573C-21.714 371.746 57.3584 263.352 159.897 119.113M-98.8304 482.802C6.07178 338.485 108.88 193.504 161.485 120.045M-95.0483 481.184C-42.0534 410.056 8.98778 337.607 163.555 122.114M-91.7098 480.842C7.25212 345.757 106.26 207.415 165.444 123.975M-88.524 480.618C5.84361 350.746 98.2074 221.448 166.04 124.794M-84.8159 479.392C-10.2206 375.332 63.1711 271.416 167.971 127.638M-82.0064 479.773C16.4124 342.663 114.543 204.962 169.008 127.823M-78.1376 479.024C-26.9954 405.273 26.6909 329.226 170.47 129.886M-74.1056 476.355C-0.0294387 369.463 76.0176 264.544 172.658 132.138M-71.1535 476.224C20.8684 349.599 110.274 224.499 174.472 133.872M-67.8847 474.498C-2.91484 385.025 62.3196 294.054 176.508 135.103M-64.7567 474.433C35.5687 339.529 131.86 204.482 177.547 138.178M-60.5293 472.282C-5.07065 396.405 51.5228 316.953 178.231 140.36M-56.171 471.818C18.7706 364.372 95.3879 257.659 180.136 141.982M-53.6626 470.121C35.0021 345.619 123.557 220.931 181.329 143.642M-49.2446 469.87C43.5921 341.288 135.664 212.381 182.877 145.715M-46.8228 469.561C12.2893 388.295 70.2003 307.41 182.721 147.884M-43.2378 467.772C43.0128 347.741 127.336 228.907 185.06 150.965M-39.017 466.194C33.595 365.226 105.753 266.008 186.52 151.946M-36.4476 466.186C14.6081 393.33 68.6535 318.819 187.916 155.726M-31.8367 464.168C57.6434 344.303 145.133 220.547 188.15 158.104M-29.1825 464.285C20.1131 392.431 70.272 322.95 189.115 159.922M-23.9209 461.932C36.4126 375.406 97.2958 289.379 190.691 162.27M-20.8188 460.239C43.802 367.23 109.303 277.1 191.068 163.3M-16.2459 458.585C40.4761 379.935 97.3239 300.743 193.456 167.351M-12.8374 457.898C67.1398 346.287 146.784 233.19 194.312 169.897M-8.90464 455.734C41.6619 386.552 93.3026 316.567 194.244 171.181M-4.12511 454.575C42.3526 384.461 91.5034 317.552 195.049 174.166M-0.246258 452.263C59.1786 365.575 121.642 279.404 195.574 178.503M3.59625 449.53C57.7725 370.109 114.323 292.132 197.363 181.379M6.06142 448.327C48.3694 394.595 88.8581 338.7 197.541 183.081M11.7798 447.467C63.8247 374.199 116.399 302.247 197.818 186.013M15.0701 445.601C77.0609 357.698 138.877 271.82 197.886 190.399M18.3269 444.679C88.2629 345.934 157.141 247.888 198.88 192.254M22.4453 443.14C76.2771 369.063 127.549 296.251 200.035 197.073M25.5419 443.041C94.1405 345.704 161.65 249.429 199.261 199.986M29.6456 439.448C73.2913 378.877 116.991 318.967 198.587 204.244M34.2613 437.422C81.9931 367.639 131.01 299.54 200.022 208.557M39.9004 435.772C67.4232 398.708 94.0088 359.754 120.984 322.831M120.612 321.396C149.604 280.2 178.539 240.244 197.869 211.258M43.0339 433.859C64.4728 398.516 89.9356 368.265 118.666 328.074M122.253 318.917C146.274 288.161 168.81 256.198 199.247 215.233M49.655 431.692C76.4455 393.02 102.328 351.997 121.176 330.339M129.824 318.174C146.033 296.008 165.355 269.724 198.706 218.869M51.954 428.737C72.0232 402.106 90.2768 379.242 119.298 334.979M132.572 317.243C154.882 287.362 177.753 253.881 199.334 225.275M59.5335 425.926C81.5882 394.258 100.758 367.611 119.592 336.334M137.805 312.743C156.958 287.621 181.053 255.734 193.947 231.198M62.1251 420.255C85.2846 388.194 108.163 357.348 119.674 338.985M141.714 311.169C154.636 290.559 169.709 270.231 192.898 237.696M68.3963 417.747C80.4536 401.949 94.7922 379.136 119.523 343.672M145.762 310.163C154.706 295.509 166.769 280.746 193.697 245.365M73.821 415.978C85.9495 395.061 101.747 377.907 118.733 351.282M152.791 304.046C161.537 289.664 175.245 271.692 189.909 253.583M80.1428 412.742C88.3759 398.15 94.8334 385.724 117.11 357.058M160.867 293.401C169.502 288.191 175.945 279.165 183.795 266.547M81.5979 409.089C91.6525 397.152 99.4906 389.165 116.204 362.354M89.6686 401.081C97.2571 391.185 103.36 387.577 114.541 369.49M-404.199 -173.961V-173.961ZM-413.295 382.275V382.275ZM-8.24759 248.757V248.757Z" stroke="white" stroke-width="0.56588" stroke-linecap="round"/>
</svg>
